# Blender v2.78 (sub 0) OBJ File: 'FE_Car_OBJ.blend'
# www.blender.org
o group__Object003
v 0.004785 0.593977 1.271493
v 0.004785 0.589094 1.271493
v -0.017947 0.589094 1.271493
v -0.017947 0.593977 1.271493
v -0.017947 0.605244 1.271493
v -0.037744 0.605244 1.271493
v -0.037744 0.610126 1.271493
v -0.017947 0.610126 1.271493
v -0.037744 0.589094 1.271493
v -0.037744 0.593977 1.271493
v 0.004785 0.610126 1.271493
v 0.004785 0.605244 1.271493
v -0.017947 0.644231 1.271493
v 0.004785 0.644100 1.271493
v -0.037744 0.644362 1.271493
v -0.049934 0.610126 1.271493
v -0.050711 0.626064 1.271493
v -0.052920 0.632456 1.271493
v -0.056462 0.638350 1.271493
v -0.052019 0.644362 1.271493
v -0.054894 0.642793 1.271493
v -0.050052 0.605243 1.271493
v -0.050972 0.589094 1.271493
v -0.050607 0.593993 1.271493
v -0.050972 0.584762 1.271493
v -0.043915 0.579012 1.271493
v -0.037744 0.581373 1.271493
v -0.047248 0.580053 1.271493
v -0.048097 0.580318 1.271493
v -0.017947 0.581630 1.271493
v 0.004785 0.581886 1.271493
v 0.027516 0.593977 1.271493
v 0.027516 0.589094 1.271493
v 0.027516 0.605244 1.271493
v 0.027516 0.610126 1.271493
v 0.047313 0.610126 1.271493
v 0.047313 0.605244 1.271493
v 0.047313 0.593977 1.271493
v 0.047313 0.589094 1.271493
v 0.027516 0.644231 1.271493
v 0.047313 0.644362 1.271493
v 0.061588 0.644362 1.271493
v 0.066032 0.638350 1.271493
v 0.064464 0.642793 1.271493
v 0.062490 0.632456 1.271493
v 0.060281 0.626064 1.271493
v 0.059504 0.610126 1.271493
v 0.059622 0.605243 1.271493
v 0.060177 0.593993 1.271493
v 0.060543 0.589094 1.271493
v 0.060543 0.584762 1.271493
v 0.057667 0.580318 1.271493
v 0.056817 0.580053 1.271493
v 0.053484 0.579012 1.271493
v 0.047313 0.581373 1.271493
v 0.027516 0.581630 1.271493
vt 0.5000 0.0782
vt 0.7051 0.1608
vt 0.5000 0.1608
vt 0.8838 0.3514
vt 0.7051 0.4340
vt 0.7051 0.3514
vt 0.7051 0.0782
vt 0.8838 0.1608
vt 0.5000 0.3514
vt 0.5000 1.0086
vt 0.7051 1.0108
vt 0.8838 0.4340
vt 0.8838 1.0130
vt 1.0008 0.7035
vt 1.0207 0.8117
vt 1.0126 1.0130
vt 1.0527 0.9113
vt 1.0385 0.9865
vt 0.9938 0.4340
vt 0.9948 0.3514
vt 0.8838 0.0782
vt 0.9998 0.1611
vt 1.0031 0.0050
vt 0.9394 -0.0923
vt 0.8838 -0.0523
vt 0.9695 -0.0747
vt 0.9772 -0.0702
vt 0.7051 -0.0480
vt 0.5000 -0.0437
vt 0.2949 0.1608
vt 0.2949 0.4340
vt 0.1162 0.3514
vt 0.2949 0.3514
vt 0.1162 0.1608
vt 0.2949 0.0782
vt 0.2949 1.0108
vt 0.1162 0.4340
vt 0.1162 1.0130
vt -0.0527 0.9113
vt -0.0126 1.0130
vt -0.0385 0.9865
vt -0.0207 0.8117
vt -0.0008 0.7035
vt 0.0062 0.4340
vt 0.0052 0.3514
vt 0.1162 0.0782
vt 0.0002 0.1611
vt -0.0031 0.0782
vt -0.0031 0.0050
vt 0.0305 -0.0747
vt 0.0606 -0.0923
vt 0.2949 -0.0480
vt 0.1162 -0.0523
vt 0.5000 0.4340
vt 1.0031 0.0782
vt 0.0228 -0.0702
vn 0.0000 0.0000 -1.0000
vn 0.0002 0.0000 -1.0000
vn -0.0001 0.0000 -1.0000
vn 0.0003 0.0000 -1.0000
vn -0.0002 0.0000 -1.0000
s 1
f 2/1/1 4/2/1 1/3/1
f 6/4/1 8/5/1 5/6/1
f 3/7/1 10/8/1 4/2/1
f 8/5/1 12/9/1 5/6/1
f 14/10/1 8/5/1 13/11/1
f 13/11/1 7/12/1 15/13/1
f 7/12/1 17/14/1 18/15/1
f 18/15/1 20/16/1 7/12/1
f 19/17/1 21/18/1 20/16/1
f 7/12/1 20/16/1 15/13/1
f 16/19/1 6/4/1 22/20/1
f 9/21/1 24/22/1 10/8/1
f 25/23/1 9/21/1 26/24/1
f 9/21/1 27/25/1 26/24/1
f 25/23/1 28/26/1 29/27/2
f 30/28/1 9/21/1 3/7/1
f 31/29/1 3/7/1 2/1/1
f 4/2/1 6/4/1 5/6/1
f 1/3/1 5/6/1 12/9/1
f 10/8/1 22/20/1 6/4/1
f 32/30/1 2/1/1 1/3/1
f 35/31/1 37/32/1 34/33/1
f 38/34/1 33/35/1 32/30/1
f 12/9/1 35/31/1 34/33/1
f 35/31/1 14/10/1 40/36/1
f 36/37/1 40/36/1 41/38/1
f 41/38/1 43/39/1 36/37/1
f 42/40/1 44/41/3 43/39/1
f 36/37/1 45/42/4 46/43/1
f 36/37/1 46/43/1 47/44/1
f 37/32/1 47/44/1 48/45/1
f 39/46/1 49/47/1 50/48/1
f 51/49/1 53/50/1 54/51/1
f 54/51/1 39/46/1 51/49/1
f 51/49/1 39/46/1 50/48/1
f 56/52/1 39/46/1 55/53/1
f 31/29/1 33/35/1 56/52/1
f 37/32/1 32/30/1 34/33/1
f 34/33/1 1/3/1 12/9/1
f 48/45/1 38/34/1 37/32/1
f 2/1/1 3/7/1 4/2/1
f 6/4/1 7/12/1 8/5/1
f 3/7/1 9/21/1 10/8/1
f 8/5/1 11/54/1 12/9/1
f 14/10/1 11/54/1 8/5/1
f 13/11/1 8/5/1 7/12/1
f 7/12/1 16/19/1 17/14/1
f 18/15/1 19/17/1 20/16/1
f 16/19/1 7/12/1 6/4/1
f 9/21/1 23/55/1 24/22/1
f 25/23/1 23/55/1 9/21/1
f 25/23/1 26/24/1 28/26/1
f 30/28/1 27/25/1 9/21/1
f 31/29/1 30/28/1 3/7/1
f 4/2/1 10/8/1 6/4/1
f 1/3/1 4/2/1 5/6/1
f 10/8/1 24/22/1 22/20/1
f 32/30/1 33/35/1 2/1/1
f 35/31/1 36/37/1 37/32/1
f 38/34/1 39/46/1 33/35/1
f 12/9/1 11/54/1 35/31/1
f 35/31/1 11/54/1 14/10/1
f 36/37/1 35/31/1 40/36/1
f 41/38/1 42/40/1 43/39/1
f 36/37/1 43/39/1 45/42/4
f 37/32/1 36/37/1 47/44/1
f 39/46/1 38/34/1 49/47/1
f 51/49/1 52/56/5 53/50/1
f 54/51/1 55/53/1 39/46/1
f 56/52/1 33/35/1 39/46/1
f 31/29/1 2/1/1 33/35/1
f 37/32/1 38/34/1 32/30/1
f 34/33/1 32/30/1 1/3/1
f 48/45/1 49/47/1 38/34/1
