<svg id="Layer_1" data-name="Layer 1" xmlns="http://www.w3.org/2000/svg" viewBox="0 0 28 22"><g id="snd_on"><path fill="#fff" d="M4.85,6.44A2.6,2.6,0,0,0,2.26,9V13a2.6,2.6,0,0,0,2.59,2.59H7.19l8.68,4.91V1.53L7.19,6.44ZM4.26,13V9a.59.59,0,0,1,.59-.6h1.6v5.12H4.85A.59.59,0,0,1,4.26,13ZM13.87,17,8.45,14V8L13.87,5Zm12.2-5.75a11,11,0,0,1-3.57,8.1L20.69,18.3a8.95,8.95,0,0,0,0-14L22.5,3.2A11,11,0,0,1,26.07,11.29Zm-4,0a8,8,0,0,1-2.47,5.76L17.8,16a5.95,5.95,0,0,0,0-9.35l1.8-1.08A8,8,0,0,1,22.07,11.29Z"/></g><g id="snd_of"><path fill="#fff" d="M15.87,20.47l-7.08-4L10.33,15l3.54,2V11.78l2-1.84Zm-8.68-14H4.85A2.6,2.6,0,0,0,2.26,9V13a2.6,2.6,0,0,0,1.35,2.26l1.81-1.67H4.85A.59.59,0,0,1,4.26,13V9a.59.59,0,0,1,.59-.6h1.6V12.6l2-1.84V8L13.87,5v.81l2-1.84V1.53ZM19.74,4.76,18.39,3.29,2.4,18l1.36,1.47Z"/></g></svg>