<?xml version="1.0" encoding="utf-8"?>
<!-- Generator: Adobe Illustrator 18.1.1, SVG Export Plug-In . SVG Version: 6.00 Build 0)  -->
<svg version="1.1" id="layer_1" xmlns="http://www.w3.org/2000/svg" xmlns:xlink="http://www.w3.org/1999/xlink" x="0px" y="0px"
	 viewBox="0 0 300 200" enable-background="new 0 0 300 200" xml:space="preserve">
<g id="jumping">
	<g>
		<path opacity="0.15" fill="#1D3A57" d="M231,183.7c-1.6-0.9-4.2-0.9-5.8,0c-0.6,0.3-0.9,0.7-1.1,1.2c-0.2-0.4-0.5-0.8-1.1-1.2
			c-1.6-0.9-4.2-0.9-5.8,0s-1.6,2.4,0,3.3s4.2,0.9,5.8,0c0.6-0.3,0.9-0.7,1.1-1.2c0.2,0.4,0.5,0.8,1.1,1.2c1.6,0.9,4.2,0.9,5.8,0
			S232.6,184.6,231,183.7z"/>
		<g>
			<g id="tgt_x5F_06_6_">
				<g>
					<path fill="#A8A8A7" d="M228.4,185.4h4c2,0,3.6-1.6,3.6-3.6v-0.5c0-0.5-0.4-0.9-0.9-0.9s-0.9,0.4-0.9,0.9v0.5
						c0,1-0.8,1.8-1.8,1.8H228L228.4,185.4z"/>
				</g>
				<g>
					<g>
						<polyline fill="#A8A8A7" points="230.3,174.7 230.3,171.8 228.5,173.7 						"/>
					</g>
					<g>
						<polyline fill="#A8A8A7" points="225.7,174.7 225.7,171.8 227.6,173.7 						"/>
					</g>
				</g>
				<linearGradient id="SVGID_1_" gradientUnits="userSpaceOnUse" x1="228.0197" y1="172.2627" x2="228.0197" y2="185.3575">
					<stop  offset="0" style="stop-color:#E8CBAF"/>
					<stop  offset="1" style="stop-color:#C6C6C6"/>
				</linearGradient>
				<path fill="url(#SVGID_1_)" d="M230.8,176c0.2-0.6,0.1-1.2-0.1-1.8c-0.3-0.8-1-1.5-1.9-1.7c-2-0.5-3.8,0.9-3.8,2.8
					c0,0.3,0,0.5,0.1,0.8c0.1,0.3,0,0.5-0.1,0.8c-1,1.7-1.6,3.8-1.6,5c0,2,2.1,3.7,4.6,3.7c2.5,0,4.6-1.6,4.6-3.7
					c0-1.1-0.6-3.3-1.6-5C230.8,176.5,230.8,176.2,230.8,176z"/>
			</g>
			<radialGradient id="SVGID_2_" cx="223.836" cy="180.7" r="5.4745" gradientUnits="userSpaceOnUse">
				<stop  offset="0" style="stop-color:#000000"/>
				<stop  offset="1" style="stop-color:#666666;stop-opacity:0"/>
			</radialGradient>
			<path opacity="0.5" fill="url(#SVGID_2_)" d="M220.4,175.1v10.1c0,0,0.1,0,0.1,0c2.5,0,3.9-1.3,3.9-1.3c1.4,1.4,3.4,1.4,3.4,1.4
				l0.5,2.1h1.2v-12.3H220.4z"/>
			<g id="tgt_x5F_06_5_">
				<g>
					<path fill="#A8A8A7" d="M221.2,185.4h5c2.5,0,4.5-2,4.5-4.5v-0.6c0-0.6-0.5-1.1-1.1-1.1s-1.1,0.5-1.1,1.1v0.6
						c0,1.2-1,2.2-2.2,2.2h-5.5L221.2,185.4z"/>
				</g>
				<g>
					<g>
						<polyline fill="#A8A8A7" points="223.5,172.2 223.5,168.6 221.2,170.9 						"/>
					</g>
					<g>
						<polyline fill="#A8A8A7" points="217.8,172.2 217.8,168.6 220.1,170.9 						"/>
					</g>
				</g>
				<linearGradient id="SVGID_3_" gradientUnits="userSpaceOnUse" x1="220.6553" y1="169.1499" x2="220.6553" y2="185.3532">
					<stop  offset="0" style="stop-color:#E8CBAF"/>
					<stop  offset="1" style="stop-color:#C6C6C6"/>
				</linearGradient>
				<path fill="url(#SVGID_3_)" d="M224.2,173.7c0.2-0.7,0.2-1.5-0.1-2.3c-0.4-1-1.3-1.8-2.3-2.1c-2.4-0.7-4.7,1.1-4.7,3.5
					c0,0.3,0,0.6,0.1,0.9c0.1,0.3,0,0.7-0.2,0.9c-1.2,2.1-2,4.8-2,6.2c0,2.5,2.5,4.5,5.7,4.5c3.1,0,5.7-2,5.7-4.5
					c0-1.4-0.8-4.1-2-6.2C224.1,174.3,224.1,174,224.2,173.7z"/>
			</g>
		</g>
	</g>
	<g>
		<path opacity="0.15" fill="#1D3A57" d="M160.6,144.4c3.8-2.2,3.8-5.7,0-7.9c-3.8-2.2-10-2.2-13.7,0s-3.8,5.7,0,7.9
			C150.7,146.6,156.8,146.6,160.6,144.4z"/>
		<g>
			<rect x="149.9" y="129.2" fill="#41B9E6" width="3.3" height="11.1"/>
			<rect x="154.2" y="129.2" fill="#41B9E6" width="3.3" height="9.6"/>
			<rect x="149.9" y="129.2" fill="#41B9E6" width="7.7" height="2.3"/>
			<path fill="#172F4C" d="M150,140.5l2.4,1.6c0.6,0.4,1.6,0.4,2.1,0.1h0c0.5-0.3,0.5-0.9-0.2-1.2l-1.1-0.6"/>
			<path fill="#172F4C" d="M154.3,138.9l2.4,1.6c0.6,0.4,1.6,0.4,2.1,0.1l0,0c0.5-0.3,0.5-0.9-0.2-1.2l-1.1-0.6"/>
			<path fill="#41B9E6" d="M152.7,140.7c-0.6,0.2-1.7,0.2-2.3,0c-0.6-0.2-0.6-0.5,0-0.7c0.6-0.2,1.7-0.2,2.3,0
				C153.3,140.2,153.3,140.5,152.7,140.7z"/>
			<path fill="#41B9E6" d="M157.1,139.1c-0.6,0.2-1.7,0.2-2.3,0s-0.6-0.5,0-0.7c0.6-0.2,1.7-0.2,2.3,0
				C157.7,138.6,157.7,138.9,157.1,139.1z"/>
			<path fill="#41B9E6" d="M156.4,131.3c-1.5,0.4-4,0.4-5.6,0c-0.8-0.2-0.9-0.6-0.8-0.9c0-0.3,0.1-0.5,0.8-0.7c1.5-0.4,4-0.4,5.6,0
				S157.9,130.8,156.4,131.3z"/>
			<g>
				<path fill="#172F4C" d="M156.8,118h-4c-2.6,0-4.8,2.1-4.8,4.8c0,0.5,0,1.1,0,1.6h1.8v4.9v0.3v0.1c0.1,0.2,0.5,0.5,1.1,0.6
					c1.5,0.4,4,0.4,5.6,0c0.5-0.2,0.9-0.3,1-0.5v-0.2v-0.3v-5h2.4v-3.1C160,119.4,158.6,118,156.8,118z"/>
			</g>
			<path fill="#B9937E" d="M154.3,119.2L154.3,119.2c-1.5,0-2.6-1.2-2.6-2.6v-1.9c0-1.5,1.2-2.6,2.6-2.6l0,0c1.5,0,2.6,1.2,2.6,2.6
				v1.9C156.9,118.1,155.8,119.2,154.3,119.2z"/>
			<path fill="#5C453B" d="M157.2,114.7c0-1.6-1.3-2.8-2.9-2.8h0c-1.6,0-2.9,1.3-2.9,2.9l0,0.7l1-0.9c0,0,2.1,1.9,4.8,0.7
				C157.2,115.3,157.2,114.7,157.2,114.7z"/>
			<g>
				<g>
					<path fill="#172F4C" d="M156.9,117.1l-3.5,0.8c-0.4,0-0.8-0.4-0.8-0.8V116c0-0.4,0.4-0.8,0.8-0.8l3.5-0.8
						c0.4,0,0.8,0.4,0.8,0.8v1.1C157.7,116.8,157.4,117.1,156.9,117.1z"/>
					<path fill="#172F4C" d="M156.9,117.1l-3.5,0.8c-0.4,0-0.8-0.4-0.8-0.8V116c0-0.4,0.4-0.8,0.8-0.8l3.5-0.8
						c0.4,0,0.8,0.4,0.8,0.8v1.1C157.7,116.8,157.4,117.1,156.9,117.1z"/>
					<path fill="#172F4C" d="M157,117.1l-3.5,0.8c-0.4,0-0.8-0.4-0.8-0.8V116c0-0.4,0.4-0.8,0.8-0.8l3.5-0.8c0.4,0,0.8,0.4,0.8,0.8
						v1.1C157.7,116.8,157.4,117.1,157,117.1z"/>
					<path fill="#172F4C" d="M157,117.1l-3.5,0.8c-0.4,0-0.8-0.4-0.8-0.8V116c0-0.4,0.4-0.8,0.8-0.8l3.5-0.8c0.4,0,0.8,0.4,0.8,0.8
						v1.1C157.7,116.8,157.4,117.1,157,117.1z"/>
					<path fill="#172F4C" d="M157,117.1l-3.5,0.8c-0.4,0-0.8-0.4-0.8-0.8V116c0-0.4,0.4-0.8,0.8-0.8l3.5-0.8c0.4,0,0.8,0.4,0.8,0.8
						v1.1C157.8,116.8,157.4,117.1,157,117.1z"/>
					<path fill="#172F4C" d="M157,117.1l-3.5,0.8c-0.4,0-0.8-0.4-0.8-0.8V116c0-0.4,0.4-0.8,0.8-0.8l3.5-0.8c0.4,0,0.8,0.4,0.8,0.8
						v1.1C157.8,116.8,157.4,117.1,157,117.1z"/>
					<path fill="#172F4C" d="M157,117.1l-3.5,0.8c-0.4,0-0.8-0.4-0.8-0.8V116c0-0.4,0.4-0.8,0.8-0.8l3.5-0.8c0.4,0,0.8,0.4,0.8,0.8
						v1.1C157.8,116.8,157.4,117.1,157,117.1z"/>
					<path fill="#172F4C" d="M157,117.1l-3.5,0.8c-0.4,0-0.8-0.4-0.8-0.8V116c0-0.4,0.4-0.8,0.8-0.8l3.5-0.8c0.4,0,0.8,0.4,0.8,0.8
						v1.1C157.8,116.8,157.4,117.1,157,117.1z"/>
					<path fill="#172F4C" d="M157,117.2l-3.5,0.8c-0.4,0-0.8-0.4-0.8-0.8V116c0-0.4,0.4-0.8,0.8-0.8l3.5-0.8c0.4,0,0.8,0.4,0.8,0.8
						v1.1C157.8,116.8,157.4,117.2,157,117.2z"/>
					<path fill="#172F4C" d="M157,117.2l-3.5,0.8c-0.4,0-0.8-0.4-0.8-0.8V116c0-0.4,0.4-0.8,0.8-0.8l3.5-0.8c0.4,0,0.8,0.4,0.8,0.8
						v1.1C157.8,116.8,157.4,117.2,157,117.2z"/>
					<path fill="#172F4C" d="M157,117.2l-3.5,0.8c-0.4,0-0.8-0.4-0.8-0.8V116c0-0.4,0.4-0.8,0.8-0.8l3.5-0.8c0.4,0,0.8,0.4,0.8,0.8
						v1.1C157.8,116.8,157.4,117.2,157,117.2z"/>
					<path fill="#172F4C" d="M157,117.2l-3.5,0.8c-0.4,0-0.8-0.4-0.8-0.8V116c0-0.4,0.4-0.8,0.8-0.8l3.5-0.8c0.4,0,0.8,0.4,0.8,0.8
						v1.1C157.8,116.8,157.4,117.2,157,117.2z"/>
					<path fill="#172F4C" d="M157,117.2l-3.5,0.8c-0.4,0-0.8-0.4-0.8-0.8V116c0-0.4,0.4-0.8,0.8-0.8l3.5-0.8c0.4,0,0.8,0.4,0.8,0.8
						v1.1C157.8,116.8,157.4,117.2,157,117.2z"/>
					<path fill="#172F4C" d="M157,117.2l-3.5,0.8c-0.4,0-0.8-0.4-0.8-0.8V116c0-0.4,0.4-0.8,0.8-0.8l3.5-0.8c0.4,0,0.8,0.4,0.8,0.8
						v1.1C157.8,116.8,157.4,117.2,157,117.2z"/>
					<path fill="#172F4C" d="M157,117.2l-3.5,0.8c-0.4,0-0.8-0.4-0.8-0.8V116c0-0.4,0.4-0.8,0.8-0.8l3.5-0.8c0.4,0,0.8,0.4,0.8,0.8
						v1.1C157.8,116.8,157.5,117.2,157,117.2z"/>
					<path fill="#172F4C" d="M157,117.2l-3.5,0.8c-0.4,0-0.8-0.4-0.8-0.8V116c0-0.4,0.4-0.8,0.8-0.8l3.5-0.8c0.4,0,0.8,0.4,0.8,0.8
						v1.1C157.8,116.8,157.5,117.2,157,117.2z"/>
					<path fill="#172F4C" d="M157,117.2l-3.5,0.8c-0.4,0-0.8-0.4-0.8-0.8V116c0-0.4,0.4-0.8,0.8-0.8l3.5-0.8c0.4,0,0.8,0.4,0.8,0.8
						v1.1C157.8,116.8,157.5,117.2,157,117.2z"/>
					<path fill="#172F4C" d="M157,117.2l-3.5,0.8c-0.4,0-0.8-0.4-0.8-0.8V116c0-0.4,0.4-0.8,0.8-0.8l3.5-0.8c0.4,0,0.8,0.4,0.8,0.8
						v1.1C157.8,116.8,157.5,117.2,157,117.2z"/>
					<path fill="#172F4C" d="M157,117.2l-3.5,0.8c-0.4,0-0.8-0.4-0.8-0.8V116c0-0.4,0.4-0.8,0.8-0.8l3.5-0.8c0.4,0,0.8,0.4,0.8,0.8
						v1.1C157.8,116.8,157.5,117.2,157,117.2z"/>
					<path fill="#172F4C" d="M157,117.2l-3.5,0.8c-0.4,0-0.8-0.4-0.8-0.8v-1.1c0-0.4,0.4-0.8,0.8-0.8l3.5-0.8c0.4,0,0.8,0.4,0.8,0.8
						v1.1C157.8,116.8,157.5,117.2,157,117.2z"/>
					<path fill="#172F4C" d="M157.1,117.2l-3.5,0.8c-0.4,0-0.8-0.4-0.8-0.8v-1.1c0-0.4,0.4-0.8,0.8-0.8l3.5-0.8
						c0.4,0,0.8,0.4,0.8,0.8v1.1C157.8,116.8,157.5,117.2,157.1,117.2z"/>
					<path fill="#172F4C" d="M157.1,117.2l-3.5,0.8c-0.4,0-0.8-0.4-0.8-0.8v-1.1c0-0.4,0.4-0.8,0.8-0.8l3.5-0.8
						c0.4,0,0.8,0.4,0.8,0.8v1.1C157.8,116.8,157.5,117.2,157.1,117.2z"/>
					<path fill="#172F4C" d="M157.1,117.2l-3.5,0.8c-0.4,0-0.8-0.4-0.8-0.8v-1.1c0-0.4,0.4-0.8,0.8-0.8l3.5-0.8
						c0.4,0,0.8,0.4,0.8,0.8v1.1C157.9,116.8,157.5,117.2,157.1,117.2z"/>
					<path fill="#172F4C" d="M157.1,117.2l-3.5,0.8c-0.4,0-0.8-0.4-0.8-0.8v-1.1c0-0.4,0.4-0.8,0.8-0.8l3.5-0.8
						c0.4,0,0.8,0.4,0.8,0.8v1.1C157.9,116.8,157.5,117.2,157.1,117.2z"/>
					<path fill="#172F4C" d="M157.1,117.2l-3.5,0.8c-0.4,0-0.8-0.4-0.8-0.8v-1.1c0-0.4,0.4-0.8,0.8-0.8l3.5-0.8
						c0.4,0,0.8,0.4,0.8,0.8v1.1C157.9,116.8,157.5,117.2,157.1,117.2z"/>
					<path fill="#172F4C" d="M157.1,117.2l-3.5,0.8c-0.4,0-0.8-0.4-0.8-0.8v-1.1c0-0.4,0.4-0.8,0.8-0.8l3.5-0.8
						c0.4,0,0.8,0.4,0.8,0.8v1.1C157.9,116.8,157.5,117.2,157.1,117.2z"/>
					<path fill="#172F4C" d="M157.1,117.2l-3.5,0.8c-0.4,0-0.8-0.4-0.8-0.8v-1.1c0-0.4,0.4-0.8,0.8-0.8l3.5-0.8
						c0.4,0,0.8,0.4,0.8,0.8v1.1C157.9,116.8,157.5,117.2,157.1,117.2z"/>
					<path fill="#172F4C" d="M157.1,117.2l-3.5,0.8c-0.4,0-0.8-0.4-0.8-0.8v-1.1c0-0.4,0.4-0.8,0.8-0.8l3.5-0.8
						c0.4,0,0.8,0.4,0.8,0.8v1.1C157.9,116.9,157.5,117.2,157.1,117.2z"/>
					<path fill="#172F4C" d="M157.1,117.2l-3.5,0.8c-0.4,0-0.8-0.4-0.8-0.8v-1.1c0-0.4,0.4-0.8,0.8-0.8l3.5-0.8
						c0.4,0,0.8,0.4,0.8,0.8v1.1C157.9,116.9,157.5,117.2,157.1,117.2z"/>
					<path fill="#172F4C" d="M157.1,117.2l-3.5,0.8c-0.4,0-0.8-0.4-0.8-0.8v-1.1c0-0.4,0.4-0.8,0.8-0.8l3.5-0.8
						c0.4,0,0.8,0.4,0.8,0.8v1.1C157.9,116.9,157.5,117.2,157.1,117.2z"/>
					<path fill="#172F4C" d="M157.1,117.2l-3.5,0.8c-0.4,0-0.8-0.4-0.8-0.8v-1.1c0-0.4,0.4-0.8,0.8-0.8l3.5-0.8
						c0.4,0,0.8,0.4,0.8,0.8v1.1C157.9,116.9,157.5,117.2,157.1,117.2z"/>
					<path fill="#172F4C" d="M157.1,117.2l-3.5,0.8c-0.4,0-0.8-0.4-0.8-0.8v-1.1c0-0.4,0.4-0.8,0.8-0.8l3.5-0.8
						c0.4,0,0.8,0.4,0.8,0.8v1.1C157.9,116.9,157.5,117.2,157.1,117.2z"/>
					<path fill="#172F4C" d="M157.1,117.2l-3.5,0.8c-0.4,0-0.8-0.4-0.8-0.8v-1.1c0-0.4,0.4-0.8,0.8-0.8l3.5-0.8
						c0.4,0,0.8,0.4,0.8,0.8v1.1C157.9,116.9,157.6,117.2,157.1,117.2z"/>
					<path fill="#172F4C" d="M157.1,117.2l-3.5,0.8c-0.4,0-0.8-0.4-0.8-0.8v-1.1c0-0.4,0.4-0.8,0.8-0.8l3.5-0.8
						c0.4,0,0.8,0.4,0.8,0.8v1.1C157.9,116.9,157.6,117.2,157.1,117.2z"/>
					<path fill="#172F4C" d="M157.1,117.2l-3.5,0.8c-0.4,0-0.8-0.4-0.8-0.8v-1.1c0-0.4,0.4-0.8,0.8-0.8l3.5-0.8
						c0.4,0,0.8,0.4,0.8,0.8v1.1C157.9,116.9,157.6,117.2,157.1,117.2z"/>
					<path fill="#172F4C" d="M157.1,117.2l-3.5,0.8c-0.4,0-0.8-0.4-0.8-0.8v-1.1c0-0.4,0.4-0.8,0.8-0.8l3.5-0.8
						c0.4,0,0.8,0.4,0.8,0.8v1.1C157.9,116.9,157.6,117.2,157.1,117.2z"/>
					<path fill="#172F4C" d="M157.1,117.2l-3.5,0.8c-0.4,0-0.8-0.4-0.8-0.8v-1.1c0-0.4,0.4-0.8,0.8-0.8l3.5-0.8
						c0.4,0,0.8,0.4,0.8,0.8v1.1C157.9,116.9,157.6,117.2,157.1,117.2z"/>
					<path fill="#172F4C" d="M157.1,117.2l-3.5,0.8c-0.4,0-0.8-0.4-0.8-0.8v-1.1c0-0.4,0.4-0.8,0.8-0.8l3.5-0.8
						c0.4,0,0.8,0.4,0.8,0.8v1.1C157.9,116.9,157.6,117.2,157.1,117.2z"/>
					<path fill="#172F4C" d="M157.2,117.2l-3.5,0.8c-0.4,0-0.8-0.4-0.8-0.8v-1.1c0-0.4,0.4-0.8,0.8-0.8l3.5-0.8
						c0.4,0,0.8,0.4,0.8,0.8v1.1C157.9,116.9,157.6,117.2,157.2,117.2z"/>
					<path fill="#172F4C" d="M157.2,117.2l-3.5,0.8c-0.4,0-0.8-0.4-0.8-0.8v-1.1c0-0.4,0.4-0.8,0.8-0.8l3.5-0.8
						c0.4,0,0.8,0.4,0.8,0.8v1.1C157.9,116.9,157.6,117.2,157.2,117.2z"/>
					<path fill="#172F4C" d="M157.2,117.2l-3.5,0.8c-0.4,0-0.8-0.4-0.8-0.8v-1.1c0-0.4,0.4-0.8,0.8-0.8l3.5-0.8
						c0.4,0,0.8,0.4,0.8,0.8v1.1C158,116.9,157.6,117.2,157.2,117.2z"/>
					<path fill="#172F4C" d="M157.2,117.2l-3.5,0.8c-0.4,0-0.8-0.4-0.8-0.8v-1.1c0-0.4,0.4-0.8,0.8-0.8l3.5-0.8
						c0.4,0,0.8,0.4,0.8,0.8v1.1C158,116.9,157.6,117.2,157.2,117.2z"/>
					<path fill="#172F4C" d="M157.2,117.2l-3.5,0.8c-0.4,0-0.8-0.4-0.8-0.8v-1.1c0-0.4,0.4-0.8,0.8-0.8l3.5-0.8
						c0.4,0,0.8,0.4,0.8,0.8v1.1C158,116.9,157.6,117.2,157.2,117.2z"/>
					<path fill="#172F4C" d="M157.2,117.3l-3.5,0.8c-0.4,0-0.8-0.4-0.8-0.8v-1.1c0-0.4,0.4-0.8,0.8-0.8l3.5-0.8
						c0.4,0,0.8,0.4,0.8,0.8v1.1C158,116.9,157.6,117.3,157.2,117.3z"/>
					<path fill="#172F4C" d="M157.2,117.3l-3.5,0.8c-0.4,0-0.8-0.4-0.8-0.8v-1.1c0-0.4,0.4-0.8,0.8-0.8l3.5-0.8
						c0.4,0,0.8,0.4,0.8,0.8v1.1C158,116.9,157.6,117.3,157.2,117.3z"/>
					<path fill="#172F4C" d="M157.2,117.3l-3.5,0.8c-0.4,0-0.8-0.4-0.8-0.8v-1.1c0-0.4,0.4-0.8,0.8-0.8l3.5-0.8
						c0.4,0,0.8,0.4,0.8,0.8v1.1C158,116.9,157.6,117.3,157.2,117.3z"/>
					<path fill="#172F4C" d="M157.2,117.3l-3.5,0.8c-0.4,0-0.8-0.4-0.8-0.8v-1.1c0-0.4,0.4-0.8,0.8-0.8l3.5-0.8
						c0.4,0,0.8,0.4,0.8,0.8v1.1C158,116.9,157.6,117.3,157.2,117.3z"/>
					<path fill="#172F4C" d="M157.2,117.3l-3.5,0.8c-0.4,0-0.8-0.4-0.8-0.8v-1.1c0-0.4,0.4-0.8,0.8-0.8l3.5-0.8
						c0.4,0,0.8,0.4,0.8,0.8v1.1C158,116.9,157.6,117.3,157.2,117.3z"/>
					<path fill="#172F4C" d="M157.2,117.3l-3.5,0.8c-0.4,0-0.8-0.4-0.8-0.8v-1.1c0-0.4,0.4-0.8,0.8-0.8l3.5-0.8
						c0.4,0,0.8,0.4,0.8,0.8v1.1C158,116.9,157.6,117.3,157.2,117.3z"/>
					<path fill="#172F4C" d="M157.2,117.3l-3.5,0.8c-0.4,0-0.8-0.4-0.8-0.8v-1.1c0-0.4,0.4-0.8,0.8-0.8l3.5-0.8
						c0.4,0,0.8,0.4,0.8,0.8v1.1C158,116.9,157.6,117.3,157.2,117.3z"/>
					<path fill="#172F4C" d="M157.2,117.3l-3.5,0.8c-0.4,0-0.8-0.4-0.8-0.8v-1.1c0-0.4,0.4-0.8,0.8-0.8l3.5-0.8
						c0.4,0,0.8,0.4,0.8,0.8v1.1C158,116.9,157.7,117.3,157.2,117.3z"/>
					<path fill="#172F4C" d="M157.2,117.3l-3.5,0.8c-0.4,0-0.8-0.4-0.8-0.8v-1.1c0-0.4,0.4-0.8,0.8-0.8l3.5-0.8
						c0.4,0,0.8,0.4,0.8,0.8v1.1C158,116.9,157.7,117.3,157.2,117.3z"/>
					<path fill="#172F4C" d="M157.2,117.3l-3.5,0.8c-0.4,0-0.8-0.4-0.8-0.8v-1.1c0-0.4,0.4-0.8,0.8-0.8l3.5-0.8
						c0.4,0,0.8,0.4,0.8,0.8v1.1C158,116.9,157.7,117.3,157.2,117.3z"/>
					<path fill="#172F4C" d="M157.2,117.3l-3.5,0.8c-0.4,0-0.8-0.4-0.8-0.8v-1.1c0-0.4,0.4-0.8,0.8-0.8l3.5-0.8
						c0.4,0,0.8,0.4,0.8,0.8v1.1C158,116.9,157.7,117.3,157.2,117.3z"/>
					<path fill="#172F4C" d="M157.2,117.3l-3.5,0.8c-0.4,0-0.8-0.4-0.8-0.8v-1.1c0-0.4,0.4-0.8,0.8-0.8l3.5-0.8
						c0.4,0,0.8,0.4,0.8,0.8v1.1C158,116.9,157.7,117.3,157.2,117.3z"/>
					<path fill="#172F4C" d="M157.2,117.3l-3.5,0.8c-0.4,0-0.8-0.4-0.8-0.8v-1.1c0-0.4,0.4-0.8,0.8-0.8l3.5-0.8
						c0.4,0,0.8,0.4,0.8,0.8v1.1C158,116.9,157.7,117.3,157.2,117.3z"/>
					<path fill="#172F4C" d="M157.3,117.3l-3.5,0.8c-0.4,0-0.8-0.4-0.8-0.8v-1.1c0-0.4,0.4-0.8,0.8-0.8l3.5-0.8
						c0.4,0,0.8,0.4,0.8,0.8v1.1C158,116.9,157.7,117.3,157.3,117.3z"/>
					<path fill="#172F4C" d="M157.3,117.3l-3.5,0.8c-0.4,0-0.8-0.4-0.8-0.8v-1.1c0-0.4,0.4-0.8,0.8-0.8l3.5-0.8
						c0.4,0,0.8,0.4,0.8,0.8v1.1C158,116.9,157.7,117.3,157.3,117.3z"/>
					<path fill="#172F4C" d="M157.3,117.3l-3.5,0.8c-0.4,0-0.8-0.4-0.8-0.8v-1.1c0-0.4,0.4-0.8,0.8-0.8l3.5-0.8
						c0.4,0,0.8,0.4,0.8,0.8v1.1C158.1,116.9,157.7,117.3,157.3,117.3z"/>
					<path fill="#172F4C" d="M157.3,117.3l-3.5,0.8c-0.4,0-0.8-0.4-0.8-0.8v-1.1c0-0.4,0.4-0.8,0.8-0.8l3.5-0.8
						c0.4,0,0.8,0.4,0.8,0.8v1.1C158.1,116.9,157.7,117.3,157.3,117.3z"/>
					<path fill="#172F4C" d="M157.3,117.3l-3.5,0.8c-0.4,0-0.8-0.4-0.8-0.8v-1.1c0-0.4,0.4-0.8,0.8-0.8l3.5-0.8
						c0.4,0,0.8,0.4,0.8,0.8v1.1C158.1,116.9,157.7,117.3,157.3,117.3z"/>
					<path fill="#172F4C" d="M157.3,117.3l-3.5,0.8c-0.4,0-0.8-0.4-0.8-0.8v-1.1c0-0.4,0.4-0.8,0.8-0.8l3.5-0.8
						c0.4,0,0.8,0.4,0.8,0.8v1.1C158.1,116.9,157.7,117.3,157.3,117.3z"/>
					<path fill="#172F4C" d="M157.3,117.3l-3.5,0.8c-0.4,0-0.8-0.4-0.8-0.8v-1.1c0-0.4,0.4-0.8,0.8-0.8l3.5-0.8
						c0.4,0,0.8,0.4,0.8,0.8v1.1C158.1,116.9,157.7,117.3,157.3,117.3z"/>
					<path fill="#172F4C" d="M157.3,117.3l-3.5,0.8c-0.4,0-0.8-0.4-0.8-0.8v-1.1c0-0.4,0.4-0.8,0.8-0.8l3.5-0.8
						c0.4,0,0.8,0.4,0.8,0.8v1.1C158.1,117,157.7,117.3,157.3,117.3z"/>
					<path fill="#172F4C" d="M157.3,117.3l-3.5,0.8c-0.4,0-0.8-0.4-0.8-0.8v-1.1c0-0.4,0.4-0.8,0.8-0.8l3.5-0.8
						c0.4,0,0.8,0.4,0.8,0.8v1.1C158.1,117,157.7,117.3,157.3,117.3z"/>
					<path fill="#172F4C" d="M157.3,117.3l-3.5,0.8c-0.4,0-0.8-0.4-0.8-0.8v-1.1c0-0.4,0.4-0.8,0.8-0.8l3.5-0.8
						c0.4,0,0.8,0.4,0.8,0.8v1.1C158.1,117,157.7,117.3,157.3,117.3z"/>
					<path fill="#172F4C" d="M157.3,117.3l-3.5,0.8c-0.4,0-0.8-0.4-0.8-0.8v-1.1c0-0.4,0.4-0.8,0.8-0.8l3.5-0.8
						c0.4,0,0.8,0.4,0.8,0.8v1.1C158.1,117,157.7,117.3,157.3,117.3z"/>
					<path fill="#172F4C" d="M157.3,117.3l-3.5,0.8c-0.4,0-0.8-0.4-0.8-0.8v-1.1c0-0.4,0.4-0.8,0.8-0.8l3.5-0.8
						c0.4,0,0.8,0.4,0.8,0.8v1.1C158.1,117,157.8,117.3,157.3,117.3z"/>
					<path fill="#172F4C" d="M157.3,117.3l-3.5,0.8c-0.4,0-0.8-0.4-0.8-0.8v-1.1c0-0.4,0.4-0.8,0.8-0.8l3.5-0.8
						c0.4,0,0.8,0.4,0.8,0.8v1.1C158.1,117,157.8,117.3,157.3,117.3z"/>
					<path fill="#172F4C" d="M157.3,117.3l-3.5,0.8c-0.4,0-0.8-0.4-0.8-0.8v-1.1c0-0.4,0.4-0.8,0.8-0.8l3.5-0.8
						c0.4,0,0.8,0.4,0.8,0.8v1.1C158.1,117,157.8,117.3,157.3,117.3z"/>
					<path fill="#172F4C" d="M157.3,117.3l-3.5,0.8c-0.4,0-0.8-0.4-0.8-0.8v-1.1c0-0.4,0.4-0.8,0.8-0.8l3.5-0.8
						c0.4,0,0.8,0.4,0.8,0.8v1.1C158.1,117,157.8,117.3,157.3,117.3z"/>
					<path fill="#172F4C" d="M157.3,117.3l-3.5,0.8c-0.4,0-0.8-0.4-0.8-0.8v-1.1c0-0.4,0.4-0.8,0.8-0.8l3.5-0.8
						c0.4,0,0.8,0.4,0.8,0.8v1.1C158.1,117,157.8,117.3,157.3,117.3z"/>
					<path fill="#172F4C" d="M157.3,117.3l-3.5,0.8c-0.4,0-0.8-0.4-0.8-0.8v-1.1c0-0.4,0.4-0.8,0.8-0.8l3.5-0.8
						c0.4,0,0.8,0.4,0.8,0.8v1.1C158.1,117,157.8,117.3,157.3,117.3z"/>
					<path fill="#172F4C" d="M157.4,117.3l-3.5,0.8c-0.4,0-0.8-0.4-0.8-0.8v-1.1c0-0.4,0.4-0.8,0.8-0.8l3.5-0.8
						c0.4,0,0.8,0.4,0.8,0.8v1.1C158.1,117,157.8,117.3,157.4,117.3z"/>
					<path fill="#172F4C" d="M157.4,117.3l-3.5,0.8c-0.4,0-0.8-0.4-0.8-0.8v-1.1c0-0.4,0.4-0.8,0.8-0.8l3.5-0.8
						c0.4,0,0.8,0.4,0.8,0.8v1.1C158.1,117,157.8,117.3,157.4,117.3z"/>
					<path fill="#172F4C" d="M157.4,117.3l-3.5,0.8c-0.4,0-0.8-0.4-0.8-0.8v-1.1c0-0.4,0.4-0.8,0.8-0.8l3.5-0.8
						c0.4,0,0.8,0.4,0.8,0.8v1.1C158.2,117,157.8,117.3,157.4,117.3z"/>
					<path fill="#172F4C" d="M157.4,117.3l-3.5,0.8c-0.4,0-0.8-0.4-0.8-0.8v-1.1c0-0.4,0.4-0.8,0.8-0.8l3.5-0.8
						c0.4,0,0.8,0.4,0.8,0.8v1.1C158.2,117,157.8,117.3,157.4,117.3z"/>
					<path fill="#172F4C" d="M157.4,117.3l-3.5,0.8c-0.4,0-0.8-0.4-0.8-0.8v-1.1c0-0.4,0.4-0.8,0.8-0.8l3.5-0.8
						c0.4,0,0.8,0.4,0.8,0.8v1.1C158.2,117,157.8,117.3,157.4,117.3z"/>
					<path fill="#172F4C" d="M157.4,117.3l-3.5,0.8c-0.4,0-0.8-0.4-0.8-0.8v-1.1c0-0.4,0.4-0.8,0.8-0.8l3.5-0.8
						c0.4,0,0.8,0.4,0.8,0.8v1.1C158.2,117,157.8,117.3,157.4,117.3z"/>
					<path fill="#172F4C" d="M157.4,117.4l-3.5,0.8c-0.4,0-0.8-0.4-0.8-0.8v-1.1c0-0.4,0.4-0.8,0.8-0.8l3.5-0.8
						c0.4,0,0.8,0.4,0.8,0.8v1.1C158.2,117,157.8,117.4,157.4,117.4z"/>
					<path fill="#172F4C" d="M157.4,117.4l-3.5,0.8c-0.4,0-0.8-0.4-0.8-0.8v-1.1c0-0.4,0.4-0.8,0.8-0.8l3.5-0.8
						c0.4,0,0.8,0.4,0.8,0.8v1.1C158.2,117,157.8,117.4,157.4,117.4z"/>
					<path fill="#172F4C" d="M157.4,117.4l-3.5,0.8c-0.4,0-0.8-0.4-0.8-0.8v-1.1c0-0.4,0.4-0.8,0.8-0.8l3.5-0.8
						c0.4,0,0.8,0.4,0.8,0.8v1.1C158.2,117,157.8,117.4,157.4,117.4z"/>
					<path fill="#172F4C" d="M157.4,117.4l-3.5,0.8c-0.4,0-0.8-0.4-0.8-0.8v-1.1c0-0.4,0.4-0.8,0.8-0.8l3.5-0.8
						c0.4,0,0.8,0.4,0.8,0.8v1.1C158.2,117,157.8,117.4,157.4,117.4z"/>
					<path fill="#172F4C" d="M157.4,117.4l-3.5,0.8c-0.4,0-0.8-0.4-0.8-0.8v-1.1c0-0.4,0.4-0.8,0.8-0.8l3.5-0.8
						c0.4,0,0.8,0.4,0.8,0.8v1.1C158.2,117,157.8,117.4,157.4,117.4z"/>
					<path fill="#172F4C" d="M157.4,117.4l-3.5,0.8c-0.4,0-0.8-0.4-0.8-0.8v-1.1c0-0.4,0.4-0.8,0.8-0.8l3.5-0.8
						c0.4,0,0.8,0.4,0.8,0.8v1.1C158.2,117,157.8,117.4,157.4,117.4z"/>
					<path fill="#172F4C" d="M157.4,117.4l-3.5,0.8c-0.4,0-0.8-0.4-0.8-0.8v-1.1c0-0.4,0.4-0.8,0.8-0.8l3.5-0.8
						c0.4,0,0.8,0.4,0.8,0.8v1.1C158.2,117,157.9,117.4,157.4,117.4z"/>
					<path fill="#172F4C" d="M157.4,117.4l-3.5,0.8c-0.4,0-0.8-0.4-0.8-0.8v-1.1c0-0.4,0.4-0.8,0.8-0.8l3.5-0.8
						c0.4,0,0.8,0.4,0.8,0.8v1.1C158.2,117,157.9,117.4,157.4,117.4z"/>
					<path fill="#172F4C" d="M157.4,117.4l-3.5,0.8c-0.4,0-0.8-0.4-0.8-0.8v-1.1c0-0.4,0.4-0.8,0.8-0.8l3.5-0.8
						c0.4,0,0.8,0.4,0.8,0.8v1.1C158.2,117,157.9,117.4,157.4,117.4z"/>
					<path fill="#172F4C" d="M157.4,117.4l-3.5,0.8c-0.4,0-0.8-0.4-0.8-0.8v-1.1c0-0.4,0.4-0.8,0.8-0.8l3.5-0.8
						c0.4,0,0.8,0.4,0.8,0.8v1.1C158.2,117,157.9,117.4,157.4,117.4z"/>
					<path fill="#172F4C" d="M157.4,117.4l-3.5,0.8c-0.4,0-0.8-0.4-0.8-0.8v-1.1c0-0.4,0.4-0.8,0.8-0.8l3.5-0.8
						c0.4,0,0.8,0.4,0.8,0.8v1.1C158.2,117,157.9,117.4,157.4,117.4z"/>
					<path fill="#172F4C" d="M157.4,117.4l-3.5,0.8c-0.4,0-0.8-0.4-0.8-0.8v-1.1c0-0.4,0.4-0.8,0.8-0.8l3.5-0.8
						c0.4,0,0.8,0.4,0.8,0.8v1.1C158.2,117,157.9,117.4,157.4,117.4z"/>
					<path fill="#172F4C" d="M157.5,117.4l-3.5,0.8c-0.4,0-0.8-0.4-0.8-0.8v-1.1c0-0.4,0.4-0.8,0.8-0.8l3.5-0.8
						c0.4,0,0.8,0.4,0.8,0.8v1.1C158.2,117,157.9,117.4,157.5,117.4z"/>
					<path fill="#172F4C" d="M157.5,117.4l-3.5,0.8c-0.4,0-0.8-0.4-0.8-0.8v-1.1c0-0.4,0.4-0.8,0.8-0.8l3.5-0.8
						c0.4,0,0.8,0.4,0.8,0.8v1.1C158.2,117,157.9,117.4,157.5,117.4z"/>
					<path fill="#172F4C" d="M157.5,117.4l-3.5,0.8c-0.4,0-0.8-0.4-0.8-0.8v-1.1c0-0.4,0.4-0.8,0.8-0.8l3.5-0.8
						c0.4,0,0.8,0.4,0.8,0.8v1.1C158.3,117,157.9,117.4,157.5,117.4z"/>
					<path fill="#172F4C" d="M157.5,117.4l-3.5,0.8c-0.4,0-0.8-0.4-0.8-0.8v-1.1c0-0.4,0.4-0.8,0.8-0.8l3.5-0.8
						c0.4,0,0.8,0.4,0.8,0.8v1.1C158.3,117,157.9,117.4,157.5,117.4z"/>
					<path fill="#172F4C" d="M157.5,117.4l-3.5,0.8c-0.4,0-0.8-0.4-0.8-0.8v-1.1c0-0.4,0.4-0.8,0.8-0.8l3.5-0.8
						c0.4,0,0.8,0.4,0.8,0.8v1.1C158.3,117,157.9,117.4,157.5,117.4z"/>
					<path fill="#172F4C" d="M157.5,117.4l-3.5,0.8c-0.4,0-0.8-0.4-0.8-0.8v-1.1c0-0.4,0.4-0.8,0.8-0.8l3.5-0.8
						c0.4,0,0.8,0.4,0.8,0.8v1.1C158.3,117,157.9,117.4,157.5,117.4z"/>
					<path fill="#172F4C" d="M157.5,117.4l-3.5,0.8c-0.4,0-0.8-0.4-0.8-0.8v-1.1c0-0.4,0.4-0.8,0.8-0.8l3.5-0.8
						c0.4,0,0.8,0.4,0.8,0.8v1.1C158.3,117,157.9,117.4,157.5,117.4z"/>
					<path fill="#172F4C" d="M157.5,117.4l-3.5,0.8c-0.4,0-0.8-0.4-0.8-0.8v-1.1c0-0.4,0.4-0.8,0.8-0.8l3.5-0.8
						c0.4,0,0.8,0.4,0.8,0.8v1.1C158.3,117,157.9,117.4,157.5,117.4z"/>
					<path fill="#172F4C" d="M157.5,117.4l-3.5,0.8c-0.4,0-0.8-0.4-0.8-0.8v-1.1c0-0.4,0.4-0.8,0.8-0.8l3.5-0.8
						c0.4,0,0.8,0.4,0.8,0.8v1.1C158.3,117.1,157.9,117.4,157.5,117.4z"/>
					<path fill="#172F4C" d="M157.5,117.4l-3.5,0.8c-0.4,0-0.8-0.4-0.8-0.8v-1.1c0-0.4,0.4-0.8,0.8-0.8l3.5-0.8
						c0.4,0,0.8,0.4,0.8,0.8v1.1C158.3,117.1,157.9,117.4,157.5,117.4z"/>
					<path fill="#172F4C" d="M157.5,117.4l-3.5,0.8c-0.4,0-0.8-0.4-0.8-0.8v-1.1c0-0.4,0.4-0.8,0.8-0.8l3.5-0.8
						c0.4,0,0.8,0.4,0.8,0.8v1.1C158.3,117.1,157.9,117.4,157.5,117.4z"/>
					<path fill="#172F4C" d="M157.5,117.4l-3.5,0.8c-0.4,0-0.8-0.4-0.8-0.8v-1.1c0-0.4,0.4-0.8,0.8-0.8l3.5-0.8
						c0.4,0,0.8,0.4,0.8,0.8v1.1C158.3,117.1,157.9,117.4,157.5,117.4z"/>
					<path fill="#172F4C" d="M157.5,117.4l-3.5,0.8c-0.4,0-0.8-0.4-0.8-0.8v-1.1c0-0.4,0.4-0.8,0.8-0.8l3.5-0.8
						c0.4,0,0.8,0.4,0.8,0.8v1.1C158.3,117.1,158,117.4,157.5,117.4z"/>
					<path fill="#172F4C" d="M157.5,117.4l-3.5,0.8c-0.4,0-0.8-0.4-0.8-0.8v-1.1c0-0.4,0.4-0.8,0.8-0.8l3.5-0.8
						c0.4,0,0.8,0.4,0.8,0.8v1.1C158.3,117.1,158,117.4,157.5,117.4z"/>
					<path fill="#172F4C" d="M157.5,117.4l-3.5,0.8c-0.4,0-0.8-0.4-0.8-0.8v-1.1c0-0.4,0.4-0.8,0.8-0.8l3.5-0.8
						c0.4,0,0.8,0.4,0.8,0.8v1.1C158.3,117.1,158,117.4,157.5,117.4z"/>
					<path fill="#172F4C" d="M157.5,117.4l-3.5,0.8c-0.4,0-0.8-0.4-0.8-0.8v-1.1c0-0.4,0.4-0.8,0.8-0.8l3.5-0.8
						c0.4,0,0.8,0.4,0.8,0.8v1.1C158.3,117.1,158,117.4,157.5,117.4z"/>
					<path fill="#172F4C" d="M157.5,117.4l-3.5,0.8c-0.4,0-0.8-0.4-0.8-0.8v-1.1c0-0.4,0.4-0.8,0.8-0.8l3.5-0.8
						c0.4,0,0.8,0.4,0.8,0.8v1.1C158.3,117.1,158,117.4,157.5,117.4z"/>
					<path fill="#172F4C" d="M157.5,117.4l-3.5,0.8c-0.4,0-0.8-0.4-0.8-0.8v-1.1c0-0.4,0.4-0.8,0.8-0.8l3.5-0.8
						c0.4,0,0.8,0.4,0.8,0.8v1.1C158.3,117.1,158,117.4,157.5,117.4z"/>
					<path fill="#172F4C" d="M157.6,117.4l-3.5,0.8c-0.4,0-0.8-0.4-0.8-0.8v-1.1c0-0.4,0.4-0.8,0.8-0.8l3.5-0.8
						c0.4,0,0.8,0.4,0.8,0.8v1.1C158.3,117.1,158,117.4,157.6,117.4z"/>
					<path fill="#172F4C" d="M157.6,117.4l-3.5,0.8c-0.4,0-0.8-0.4-0.8-0.8v-1.1c0-0.4,0.4-0.8,0.8-0.8l3.5-0.8
						c0.4,0,0.8,0.4,0.8,0.8v1.1C158.3,117.1,158,117.4,157.6,117.4z"/>
					<path fill="#172F4C" d="M157.6,117.4l-3.5,0.8c-0.4,0-0.8-0.4-0.8-0.8v-1.1c0-0.4,0.4-0.8,0.8-0.8l3.5-0.8
						c0.4,0,0.8,0.4,0.8,0.8v1.1C158.4,117.1,158,117.4,157.6,117.4z"/>
					<path fill="#172F4C" d="M157.6,117.4l-3.5,0.8c-0.4,0-0.8-0.4-0.8-0.8v-1.1c0-0.4,0.4-0.8,0.8-0.8l3.5-0.8
						c0.4,0,0.8,0.4,0.8,0.8v1.1C158.4,117.1,158,117.4,157.6,117.4z"/>
					<path fill="#172F4C" d="M157.6,117.4l-3.5,0.8c-0.4,0-0.8-0.4-0.8-0.8v-1.1c0-0.4,0.4-0.8,0.8-0.8l3.5-0.8
						c0.4,0,0.8,0.4,0.8,0.8v1.1C158.4,117.1,158,117.4,157.6,117.4z"/>
					<path fill="#172F4C" d="M157.6,117.4l-3.5,0.8c-0.4,0-0.8-0.4-0.8-0.8v-1.1c0-0.4,0.4-0.8,0.8-0.8l3.5-0.8
						c0.4,0,0.8,0.4,0.8,0.8v1.1C158.4,117.1,158,117.4,157.6,117.4z"/>
					<path fill="#172F4C" d="M157.6,117.5l-3.5,0.8c-0.4,0-0.8-0.4-0.8-0.8v-1.1c0-0.4,0.4-0.8,0.8-0.8l3.5-0.8
						c0.4,0,0.8,0.4,0.8,0.8v1.1C158.4,117.1,158,117.5,157.6,117.5z"/>
					<path fill="#172F4C" d="M157.6,117.5l-3.5,0.8c-0.4,0-0.8-0.4-0.8-0.8v-1.1c0-0.4,0.4-0.8,0.8-0.8l3.5-0.8
						c0.4,0,0.8,0.4,0.8,0.8v1.1C158.4,117.1,158,117.5,157.6,117.5z"/>
					<path fill="#172F4C" d="M157.6,117.5l-3.5,0.8c-0.4,0-0.8-0.4-0.8-0.8v-1.1c0-0.4,0.4-0.8,0.8-0.8l3.5-0.8
						c0.4,0,0.8,0.4,0.8,0.8v1.1C158.4,117.1,158,117.5,157.6,117.5z"/>
					<path fill="#172F4C" d="M157.6,117.5l-3.5,0.8c-0.4,0-0.8-0.4-0.8-0.8v-1.1c0-0.4,0.4-0.8,0.8-0.8l3.5-0.8
						c0.4,0,0.8,0.4,0.8,0.8v1.1C158.4,117.1,158,117.5,157.6,117.5z"/>
					<path fill="#172F4C" d="M157.6,117.5l-3.5,0.8c-0.4,0-0.8-0.4-0.8-0.8v-1.1c0-0.4,0.4-0.8,0.8-0.8l3.5-0.8
						c0.4,0,0.8,0.4,0.8,0.8v1.1C158.4,117.1,158,117.5,157.6,117.5z"/>
					<path fill="#172F4C" d="M157.6,117.5l-3.5,0.8c-0.4,0-0.8-0.4-0.8-0.8v-1.1c0-0.4,0.4-0.8,0.8-0.8l3.5-0.8
						c0.4,0,0.8,0.4,0.8,0.8v1.1C158.4,117.1,158,117.5,157.6,117.5z"/>
					<path fill="#172F4C" d="M157.6,117.5l-3.5,0.8c-0.4,0-0.8-0.4-0.8-0.8v-1.1c0-0.4,0.4-0.8,0.8-0.8l3.5-0.8
						c0.4,0,0.8,0.4,0.8,0.8v1.1C158.4,117.1,158.1,117.5,157.6,117.5z"/>
					<path fill="#172F4C" d="M157.6,117.5l-3.5,0.8c-0.4,0-0.8-0.4-0.8-0.8v-1.1c0-0.4,0.4-0.8,0.8-0.8l3.5-0.8
						c0.4,0,0.8,0.4,0.8,0.8v1.1C158.4,117.1,158.1,117.5,157.6,117.5z"/>
					<path fill="#172F4C" d="M157.6,117.5l-3.5,0.8c-0.4,0-0.8-0.4-0.8-0.8v-1.1c0-0.4,0.4-0.8,0.8-0.8l3.5-0.8
						c0.4,0,0.8,0.4,0.8,0.8v1.1C158.4,117.1,158.1,117.5,157.6,117.5z"/>
					<path fill="#172F4C" d="M157.6,117.5l-3.5,0.8c-0.4,0-0.8-0.4-0.8-0.8v-1.1c0-0.4,0.4-0.8,0.8-0.8l3.5-0.8
						c0.4,0,0.8,0.4,0.8,0.8v1.1C158.4,117.1,158.1,117.5,157.6,117.5z"/>
					<path fill="#172F4C" d="M157.6,117.5l-3.5,0.8c-0.4,0-0.8-0.4-0.8-0.8v-1.1c0-0.4,0.4-0.8,0.8-0.8l3.5-0.8
						c0.4,0,0.8,0.4,0.8,0.8v1.1C158.4,117.1,158.1,117.5,157.6,117.5z"/>
					<path fill="#172F4C" d="M157.6,117.5l-3.5,0.8c-0.4,0-0.8-0.4-0.8-0.8v-1.1c0-0.4,0.4-0.8,0.8-0.8l3.5-0.8
						c0.4,0,0.8,0.4,0.8,0.8v1.1C158.4,117.1,158.1,117.5,157.6,117.5z"/>
					<path fill="#172F4C" d="M157.7,117.5l-3.5,0.8c-0.4,0-0.8-0.4-0.8-0.8v-1.1c0-0.4,0.4-0.8,0.8-0.8l3.5-0.8
						c0.4,0,0.8,0.4,0.8,0.8v1.1C158.4,117.1,158.1,117.5,157.7,117.5z"/>
					<path fill="#172F4C" d="M157.7,117.5l-3.5,0.8c-0.4,0-0.8-0.4-0.8-0.8v-1.1c0-0.4,0.4-0.8,0.8-0.8l3.5-0.8
						c0.4,0,0.8,0.4,0.8,0.8v1.1C158.4,117.1,158.1,117.5,157.7,117.5z"/>
					<path fill="#172F4C" d="M157.7,117.5l-3.5,0.8c-0.4,0-0.8-0.4-0.8-0.8v-1.1c0-0.4,0.4-0.8,0.8-0.8l3.5-0.8
						c0.4,0,0.8,0.4,0.8,0.8v1.1C158.5,117.1,158.1,117.5,157.7,117.5z"/>
					<path fill="#172F4C" d="M157.7,117.5l-3.5,0.8c-0.4,0-0.8-0.4-0.8-0.8v-1.1c0-0.4,0.4-0.8,0.8-0.8l3.5-0.8
						c0.4,0,0.8,0.4,0.8,0.8v1.1C158.5,117.1,158.1,117.5,157.7,117.5z"/>
					<path fill="#172F4C" d="M157.7,117.5l-3.5,0.8c-0.4,0-0.8-0.4-0.8-0.8v-1.1c0-0.4,0.4-0.8,0.8-0.8l3.5-0.8
						c0.4,0,0.8,0.4,0.8,0.8v1.1C158.5,117.1,158.1,117.5,157.7,117.5z"/>
					<path fill="#172F4C" d="M157.7,117.5l-3.5,0.8c-0.4,0-0.8-0.4-0.8-0.8v-1.1c0-0.4,0.4-0.8,0.8-0.8l3.5-0.8
						c0.4,0,0.8,0.4,0.8,0.8v1.1C158.5,117.1,158.1,117.5,157.7,117.5z"/>
					<path fill="#172F4C" d="M157.7,117.5l-3.5,0.8c-0.4,0-0.8-0.4-0.8-0.8v-1.1c0-0.4,0.4-0.8,0.8-0.8l3.5-0.8
						c0.4,0,0.8,0.4,0.8,0.8v1.1C158.5,117.1,158.1,117.5,157.7,117.5z"/>
					<path fill="#172F4C" d="M157.7,117.5l-3.5,0.8c-0.4,0-0.8-0.4-0.8-0.8v-1.1c0-0.4,0.4-0.8,0.8-0.8l3.5-0.8
						c0.4,0,0.8,0.4,0.8,0.8v1.1C158.5,117.1,158.1,117.5,157.7,117.5z"/>
					<path fill="#172F4C" d="M157.7,117.5l-3.5,0.8c-0.4,0-0.8-0.4-0.8-0.8v-1.1c0-0.4,0.4-0.8,0.8-0.8l3.5-0.8
						c0.4,0,0.8,0.4,0.8,0.8v1.1C158.5,117.2,158.1,117.5,157.7,117.5z"/>
					<path fill="#172F4C" d="M157.7,117.5l-3.5,0.8c-0.4,0-0.8-0.4-0.8-0.8v-1.1c0-0.4,0.4-0.8,0.8-0.8l3.5-0.8
						c0.4,0,0.8,0.4,0.8,0.8v1.1C158.5,117.2,158.1,117.5,157.7,117.5z"/>
					<path fill="#172F4C" d="M157.7,117.5l-3.5,0.8c-0.4,0-0.8-0.4-0.8-0.8v-1.1c0-0.4,0.4-0.8,0.8-0.8l3.5-0.8
						c0.4,0,0.8,0.4,0.8,0.8v1.1C158.5,117.2,158.1,117.5,157.7,117.5z"/>
					<path fill="#172F4C" d="M157.7,117.5l-3.5,0.8c-0.4,0-0.8-0.4-0.8-0.8v-1.1c0-0.4,0.4-0.8,0.8-0.8l3.5-0.8
						c0.4,0,0.8,0.4,0.8,0.8v1.1C158.5,117.2,158.1,117.5,157.7,117.5z"/>
					<path fill="#172F4C" d="M157.7,117.5l-3.5,0.8c-0.4,0-0.8-0.4-0.8-0.8v-1.1c0-0.4,0.4-0.8,0.8-0.8l3.5-0.8
						c0.4,0,0.8,0.4,0.8,0.8v1.1C158.5,117.2,158.2,117.5,157.7,117.5z"/>
					<path fill="#172F4C" d="M157.7,117.5l-3.5,0.8c-0.4,0-0.8-0.4-0.8-0.8v-1.1c0-0.4,0.4-0.8,0.8-0.8l3.5-0.8
						c0.4,0,0.8,0.4,0.8,0.8v1.1C158.5,117.2,158.2,117.5,157.7,117.5z"/>
					<path fill="#172F4C" d="M157.7,117.5l-3.5,0.8c-0.4,0-0.8-0.4-0.8-0.8v-1.1c0-0.4,0.4-0.8,0.8-0.8l3.5-0.8
						c0.4,0,0.8,0.4,0.8,0.8v1.1C158.5,117.2,158.2,117.5,157.7,117.5z"/>
					<path fill="#172F4C" d="M157.7,117.5l-3.5,0.8c-0.4,0-0.8-0.4-0.8-0.8v-1.1c0-0.4,0.4-0.8,0.8-0.8l3.5-0.8
						c0.4,0,0.8,0.4,0.8,0.8v1.1C158.5,117.2,158.2,117.5,157.7,117.5z"/>
					<path fill="#172F4C" d="M157.7,117.5l-3.5,0.8c-0.4,0-0.8-0.4-0.8-0.8v-1.1c0-0.4,0.4-0.8,0.8-0.8l3.5-0.8
						c0.4,0,0.8,0.4,0.8,0.8v1.1C158.5,117.2,158.2,117.5,157.7,117.5z"/>
					<path fill="#172F4C" d="M157.7,117.5l-3.5,0.8c-0.4,0-0.8-0.4-0.8-0.8v-1.1c0-0.4,0.4-0.8,0.8-0.8l3.5-0.8
						c0.4,0,0.8,0.4,0.8,0.8v1.1C158.5,117.2,158.2,117.5,157.7,117.5z"/>
					<path fill="#172F4C" d="M157.8,117.5l-3.5,0.8c-0.4,0-0.8-0.4-0.8-0.8v-1.1c0-0.4,0.4-0.8,0.8-0.8l3.5-0.8
						c0.4,0,0.8,0.4,0.8,0.8v1.1C158.5,117.2,158.2,117.5,157.8,117.5z"/>
					<path fill="#172F4C" d="M157.8,117.5l-3.5,0.8c-0.4,0-0.8-0.4-0.8-0.8v-1.1c0-0.4,0.4-0.8,0.8-0.8l3.5-0.8
						c0.4,0,0.8,0.4,0.8,0.8v1.1C158.5,117.2,158.2,117.5,157.8,117.5z"/>
					<path fill="#172F4C" d="M157.8,117.5l-3.5,0.8c-0.4,0-0.8-0.4-0.8-0.8v-1.1c0-0.4,0.4-0.8,0.8-0.8l3.5-0.8
						c0.4,0,0.8,0.4,0.8,0.8v1.1C158.6,117.2,158.2,117.5,157.8,117.5z"/>
					<path fill="#172F4C" d="M157.8,117.5l-3.5,0.8c-0.4,0-0.8-0.4-0.8-0.8v-1.1c0-0.4,0.4-0.8,0.8-0.8l3.5-0.8
						c0.4,0,0.8,0.4,0.8,0.8v1.1C158.6,117.2,158.2,117.5,157.8,117.5z"/>
					<path fill="#172F4C" d="M157.8,117.5l-3.5,0.8c-0.4,0-0.8-0.4-0.8-0.8v-1.1c0-0.4,0.4-0.8,0.8-0.8l3.5-0.8
						c0.4,0,0.8,0.4,0.8,0.8v1.1C158.6,117.2,158.2,117.5,157.8,117.5z"/>
					<path fill="#172F4C" d="M157.8,117.5l-3.5,0.8c-0.4,0-0.8-0.4-0.8-0.8v-1.1c0-0.4,0.4-0.8,0.8-0.8l3.5-0.8
						c0.4,0,0.8,0.4,0.8,0.8v1.1C158.6,117.2,158.2,117.5,157.8,117.5z"/>
					<path fill="#172F4C" d="M157.8,117.6l-3.5,0.8c-0.4,0-0.8-0.4-0.8-0.8v-1.1c0-0.4,0.4-0.8,0.8-0.8l3.5-0.8
						c0.4,0,0.8,0.4,0.8,0.8v1.1C158.6,117.2,158.2,117.6,157.8,117.6z"/>
					<path fill="#172F4C" d="M157.8,117.6l-3.5,0.8c-0.4,0-0.8-0.4-0.8-0.8v-1.1c0-0.4,0.4-0.8,0.8-0.8l3.5-0.8
						c0.4,0,0.8,0.4,0.8,0.8v1.1C158.6,117.2,158.2,117.6,157.8,117.6z"/>
					<path fill="#172F4C" d="M157.8,117.6l-3.5,0.8c-0.4,0-0.8-0.4-0.8-0.8v-1.1c0-0.4,0.4-0.8,0.8-0.8l3.5-0.8
						c0.4,0,0.8,0.4,0.8,0.8v1.1C158.6,117.2,158.2,117.6,157.8,117.6z"/>
					<path fill="#172F4C" d="M157.8,117.6l-3.5,0.8c-0.4,0-0.8-0.4-0.8-0.8v-1.1c0-0.4,0.4-0.8,0.8-0.8l3.5-0.8
						c0.4,0,0.8,0.4,0.8,0.8v1.1C158.6,117.2,158.2,117.6,157.8,117.6z"/>
					<path fill="#172F4C" d="M157.8,117.6l-3.5,0.8c-0.4,0-0.8-0.4-0.8-0.8v-1.1c0-0.4,0.4-0.8,0.8-0.8l3.5-0.8
						c0.4,0,0.8,0.4,0.8,0.8v1.1C158.6,117.2,158.2,117.6,157.8,117.6z"/>
					<path fill="#172F4C" d="M157.8,117.6l-3.5,0.8c-0.4,0-0.8-0.4-0.8-0.8v-1.1c0-0.4,0.4-0.8,0.8-0.8l3.5-0.8
						c0.4,0,0.8,0.4,0.8,0.8v1.1C158.6,117.2,158.2,117.6,157.8,117.6z"/>
					<path fill="#172F4C" d="M157.8,117.6l-3.5,0.8c-0.4,0-0.8-0.4-0.8-0.8v-1.1c0-0.4,0.4-0.8,0.8-0.8l3.5-0.8
						c0.4,0,0.8,0.4,0.8,0.8v1.1C158.6,117.2,158.3,117.6,157.8,117.6z"/>
					<path fill="#172F4C" d="M157.8,117.6l-3.5,0.8c-0.4,0-0.8-0.4-0.8-0.8v-1.1c0-0.4,0.4-0.8,0.8-0.8l3.5-0.8
						c0.4,0,0.8,0.4,0.8,0.8v1.1C158.6,117.2,158.3,117.6,157.8,117.6z"/>
					<path fill="#172F4C" d="M157.8,117.6l-3.5,0.8c-0.4,0-0.8-0.4-0.8-0.8v-1.1c0-0.4,0.4-0.8,0.8-0.8l3.5-0.8
						c0.4,0,0.8,0.4,0.8,0.8v1.1C158.6,117.2,158.3,117.6,157.8,117.6z"/>
					<path fill="#172F4C" d="M157.8,117.6l-3.5,0.8c-0.4,0-0.8-0.4-0.8-0.8v-1.1c0-0.4,0.4-0.8,0.8-0.8l3.5-0.8
						c0.4,0,0.8,0.4,0.8,0.8v1.1C158.6,117.2,158.3,117.6,157.8,117.6z"/>
					<path fill="#172F4C" d="M157.8,117.6l-3.5,0.8c-0.4,0-0.8-0.4-0.8-0.8v-1.1c0-0.4,0.4-0.8,0.8-0.8l3.5-0.8
						c0.4,0,0.8,0.4,0.8,0.8v1.1C158.6,117.2,158.3,117.6,157.8,117.6z"/>
					<path fill="#172F4C" d="M157.8,117.6l-3.5,0.8c-0.4,0-0.8-0.4-0.8-0.8v-1.1c0-0.4,0.4-0.8,0.8-0.8l3.5-0.8
						c0.4,0,0.8,0.4,0.8,0.8v1.1C158.6,117.2,158.3,117.6,157.8,117.6z"/>
					<path fill="#172F4C" d="M157.9,117.6l-3.5,0.8c-0.4,0-0.8-0.4-0.8-0.8v-1.1c0-0.4,0.4-0.8,0.8-0.8l3.5-0.8
						c0.4,0,0.8,0.4,0.8,0.8v1.1C158.6,117.2,158.3,117.6,157.9,117.6z"/>
					<path fill="#172F4C" d="M157.9,117.6l-3.5,0.8c-0.4,0-0.8-0.4-0.8-0.8v-1.1c0-0.4,0.4-0.8,0.8-0.8l3.5-0.8
						c0.4,0,0.8,0.4,0.8,0.8v1.1C158.6,117.2,158.3,117.6,157.9,117.6z"/>
					<path fill="#172F4C" d="M157.9,117.6l-3.5,0.8c-0.4,0-0.8-0.4-0.8-0.8v-1.1c0-0.4,0.4-0.8,0.8-0.8l3.5-0.8
						c0.4,0,0.8,0.4,0.8,0.8v1.1C158.7,117.2,158.3,117.6,157.9,117.6z"/>
					<path fill="#172F4C" d="M157.9,117.6l-3.5,0.8c-0.4,0-0.8-0.4-0.8-0.8v-1.1c0-0.4,0.4-0.8,0.8-0.8l3.5-0.8
						c0.4,0,0.8,0.4,0.8,0.8v1.1C158.7,117.2,158.3,117.6,157.9,117.6z"/>
					<path fill="#172F4C" d="M157.9,117.6l-3.5,0.8c-0.4,0-0.8-0.4-0.8-0.8v-1.1c0-0.4,0.4-0.8,0.8-0.8l3.5-0.8
						c0.4,0,0.8,0.4,0.8,0.8v1.1C158.7,117.2,158.3,117.6,157.9,117.6z"/>
					<path fill="#172F4C" d="M157.9,117.6l-3.5,0.8c-0.4,0-0.8-0.4-0.8-0.8v-1.1c0-0.4,0.4-0.8,0.8-0.8l3.5-0.8
						c0.4,0,0.8,0.4,0.8,0.8v1.1C158.7,117.2,158.3,117.6,157.9,117.6z"/>
					<path fill="#172F4C" d="M157.9,117.6l-3.5,0.8c-0.4,0-0.8-0.4-0.8-0.8v-1.1c0-0.4,0.4-0.8,0.8-0.8l3.5-0.8
						c0.4,0,0.8,0.4,0.8,0.8v1.1C158.7,117.2,158.3,117.6,157.9,117.6z"/>
					<path fill="#172F4C" d="M157.9,117.6l-3.5,0.8c-0.4,0-0.8-0.4-0.8-0.8v-1.1c0-0.4,0.4-0.8,0.8-0.8l3.5-0.8
						c0.4,0,0.8,0.4,0.8,0.8v1.1C158.7,117.3,158.3,117.6,157.9,117.6z"/>
					<path fill="#172F4C" d="M157.9,117.6l-3.5,0.8c-0.4,0-0.8-0.4-0.8-0.8v-1.1c0-0.4,0.4-0.8,0.8-0.8l3.5-0.8
						c0.4,0,0.8,0.4,0.8,0.8v1.1C158.7,117.3,158.3,117.6,157.9,117.6z"/>
					<path fill="#172F4C" d="M157.9,117.6l-3.5,0.8c-0.4,0-0.8-0.4-0.8-0.8v-1.1c0-0.4,0.4-0.8,0.8-0.8l3.5-0.8
						c0.4,0,0.8,0.4,0.8,0.8v1.1C158.7,117.3,158.3,117.6,157.9,117.6z"/>
					<path fill="#172F4C" d="M157.9,117.6l-3.5,0.8c-0.4,0-0.8-0.4-0.8-0.8v-1.1c0-0.4,0.4-0.8,0.8-0.8l3.5-0.8
						c0.4,0,0.8,0.4,0.8,0.8v1.1C158.7,117.3,158.3,117.6,157.9,117.6z"/>
					<path fill="#172F4C" d="M157.9,117.6l-3.5,0.8c-0.4,0-0.8-0.4-0.8-0.8v-1.1c0-0.4,0.4-0.8,0.8-0.8l3.5-0.8
						c0.4,0,0.8,0.4,0.8,0.8v1.1C158.7,117.3,158.3,117.6,157.9,117.6z"/>
					<path fill="#172F4C" d="M157.9,117.6l-3.5,0.8c-0.4,0-0.8-0.4-0.8-0.8v-1.1c0-0.4,0.4-0.8,0.8-0.8l3.5-0.8
						c0.4,0,0.8,0.4,0.8,0.8v1.1C158.7,117.3,158.4,117.6,157.9,117.6z"/>
					<path fill="#172F4C" d="M157.9,117.6l-3.5,0.8c-0.4,0-0.8-0.4-0.8-0.8v-1.1c0-0.4,0.4-0.8,0.8-0.8l3.5-0.8
						c0.4,0,0.8,0.4,0.8,0.8v1.1C158.7,117.3,158.4,117.6,157.9,117.6z"/>
					<path fill="#172F4C" d="M157.9,117.6l-3.5,0.8c-0.4,0-0.8-0.4-0.8-0.8v-1.1c0-0.4,0.4-0.8,0.8-0.8l3.5-0.8
						c0.4,0,0.8,0.4,0.8,0.8v1.1C158.7,117.3,158.4,117.6,157.9,117.6z"/>
					<path fill="#172F4C" d="M157.9,117.6l-3.5,0.8c-0.4,0-0.8-0.4-0.8-0.8v-1.1c0-0.4,0.4-0.8,0.8-0.8l3.5-0.8
						c0.4,0,0.8,0.4,0.8,0.8v1.1C158.7,117.3,158.4,117.6,157.9,117.6z"/>
					<path fill="#172F4C" d="M157.9,117.6l-3.5,0.8c-0.4,0-0.8-0.4-0.8-0.8v-1.1c0-0.4,0.4-0.8,0.8-0.8l3.5-0.8
						c0.4,0,0.8,0.4,0.8,0.8v1.1C158.7,117.3,158.4,117.6,157.9,117.6z"/>
					<path fill="#172F4C" d="M157.9,117.6l-3.5,0.8c-0.4,0-0.8-0.4-0.8-0.8v-1.1c0-0.4,0.4-0.8,0.8-0.8l3.5-0.8
						c0.4,0,0.8,0.4,0.8,0.8v1.1C158.7,117.3,158.4,117.6,157.9,117.6z"/>
					<path fill="#172F4C" d="M158,117.6l-3.5,0.8c-0.4,0-0.8-0.4-0.8-0.8v-1.1c0-0.4,0.4-0.8,0.8-0.8l3.5-0.8c0.4,0,0.8,0.4,0.8,0.8
						v1.1C158.7,117.3,158.4,117.6,158,117.6z"/>
					<path fill="#172F4C" d="M158,117.6l-3.5,0.8c-0.4,0-0.8-0.4-0.8-0.8v-1.1c0-0.4,0.4-0.8,0.8-0.8l3.5-0.8c0.4,0,0.8,0.4,0.8,0.8
						v1.1C158.7,117.3,158.4,117.6,158,117.6z"/>
					<path fill="#172F4C" d="M158,117.6l-3.5,0.8c-0.4,0-0.8-0.4-0.8-0.8v-1.1c0-0.4,0.4-0.8,0.8-0.8l3.5-0.8c0.4,0,0.8,0.4,0.8,0.8
						v1.1C158.8,117.3,158.4,117.6,158,117.6z"/>
					<path fill="#172F4C" d="M158,117.6l-3.5,0.8c-0.4,0-0.8-0.4-0.8-0.8v-1.1c0-0.4,0.4-0.8,0.8-0.8l3.5-0.8c0.4,0,0.8,0.4,0.8,0.8
						v1.1C158.8,117.3,158.4,117.6,158,117.6z"/>
					<path fill="#172F4C" d="M158,117.6l-3.5,0.8c-0.4,0-0.8-0.4-0.8-0.8v-1.1c0-0.4,0.4-0.8,0.8-0.8l3.5-0.8c0.4,0,0.8,0.4,0.8,0.8
						v1.1C158.8,117.3,158.4,117.6,158,117.6z"/>
					<path fill="#172F4C" d="M158,117.7l-3.5,0.8c-0.4,0-0.8-0.4-0.8-0.8v-1.1c0-0.4,0.4-0.8,0.8-0.8l3.5-0.8c0.4,0,0.8,0.4,0.8,0.8
						v1.1C158.8,117.3,158.4,117.7,158,117.7z"/>
					<path fill="#172F4C" d="M158,117.7l-3.5,0.8c-0.4,0-0.8-0.4-0.8-0.8v-1.1c0-0.4,0.4-0.8,0.8-0.8l3.5-0.8c0.4,0,0.8,0.4,0.8,0.8
						v1.1C158.8,117.3,158.4,117.7,158,117.7z"/>
					<path fill="#172F4C" d="M158,117.7l-3.5,0.8c-0.4,0-0.8-0.4-0.8-0.8v-1.1c0-0.4,0.4-0.8,0.8-0.8l3.5-0.8c0.4,0,0.8,0.4,0.8,0.8
						v1.1C158.8,117.3,158.4,117.7,158,117.7z"/>
					<path fill="#172F4C" d="M158,117.7l-3.5,0.8c-0.4,0-0.8-0.4-0.8-0.8v-1.1c0-0.4,0.4-0.8,0.8-0.8l3.5-0.8c0.4,0,0.8,0.4,0.8,0.8
						v1.1C158.8,117.3,158.4,117.7,158,117.7z"/>
					<path fill="#172F4C" d="M158,117.7l-3.5,0.8c-0.4,0-0.8-0.4-0.8-0.8v-1.1c0-0.4,0.4-0.8,0.8-0.8l3.5-0.8c0.4,0,0.8,0.4,0.8,0.8
						v1.1C158.8,117.3,158.4,117.7,158,117.7z"/>
					<path fill="#172F4C" d="M158,117.7l-3.5,0.8c-0.4,0-0.8-0.4-0.8-0.8v-1.1c0-0.4,0.4-0.8,0.8-0.8l3.5-0.8c0.4,0,0.8,0.4,0.8,0.8
						v1.1C158.8,117.3,158.4,117.7,158,117.7z"/>
					<path fill="#172F4C" d="M158,117.7l-3.5,0.8c-0.4,0-0.8-0.4-0.8-0.8v-1.1c0-0.4,0.4-0.8,0.8-0.8l3.5-0.8c0.4,0,0.8,0.4,0.8,0.8
						v1.1C158.8,117.3,158.5,117.7,158,117.7z"/>
					<path fill="#172F4C" d="M158,117.7l-3.5,0.8c-0.4,0-0.8-0.4-0.8-0.8v-1.1c0-0.4,0.4-0.8,0.8-0.8l3.5-0.8c0.4,0,0.8,0.4,0.8,0.8
						v1.1C158.8,117.3,158.5,117.7,158,117.7z"/>
					<path fill="#172F4C" d="M158,117.7l-3.5,0.8c-0.4,0-0.8-0.4-0.8-0.8v-1.1c0-0.4,0.4-0.8,0.8-0.8l3.5-0.8c0.4,0,0.8,0.4,0.8,0.8
						v1.1C158.8,117.3,158.5,117.7,158,117.7z"/>
					<path fill="#172F4C" d="M158,117.7l-3.5,0.8c-0.4,0-0.8-0.4-0.8-0.8v-1.1c0-0.4,0.4-0.8,0.8-0.8l3.5-0.8c0.4,0,0.8,0.4,0.8,0.8
						v1.1C158.8,117.3,158.5,117.7,158,117.7z"/>
					<path fill="#172F4C" d="M158,117.7l-3.5,0.8c-0.4,0-0.8-0.4-0.8-0.8v-1.1c0-0.4,0.4-0.8,0.8-0.8l3.5-0.8c0.4,0,0.8,0.4,0.8,0.8
						v1.1C158.8,117.3,158.5,117.7,158,117.7z"/>
					<path fill="#172F4C" d="M158,117.7l-3.5,0.8c-0.4,0-0.8-0.4-0.8-0.8v-1.1c0-0.4,0.4-0.8,0.8-0.8l3.5-0.8c0.4,0,0.8,0.4,0.8,0.8
						v1.1C158.8,117.3,158.5,117.7,158,117.7z"/>
					<path fill="#172F4C" d="M158,117.7l-3.5,0.8c-0.4,0-0.8-0.4-0.8-0.8v-1.1c0-0.4,0.4-0.8,0.8-0.8l3.5-0.8c0.4,0,0.8,0.4,0.8,0.8
						v1.1C158.8,117.3,158.5,117.7,158,117.7z"/>
					<path fill="#172F4C" d="M158.1,117.7l-3.5,0.8c-0.4,0-0.8-0.4-0.8-0.8v-1.1c0-0.4,0.4-0.8,0.8-0.8l3.5-0.8
						c0.4,0,0.8,0.4,0.8,0.8v1.1C158.8,117.3,158.5,117.7,158.1,117.7z"/>
					<path fill="#172F4C" d="M158.1,117.7l-3.5,0.8c-0.4,0-0.8-0.4-0.8-0.8v-1.1c0-0.4,0.4-0.8,0.8-0.8l3.5-0.8
						c0.4,0,0.8,0.4,0.8,0.8v1.1C158.8,117.3,158.5,117.7,158.1,117.7z"/>
					<path fill="#172F4C" d="M158.1,117.7l-3.5,0.8c-0.4,0-0.8-0.4-0.8-0.8v-1.1c0-0.4,0.4-0.8,0.8-0.8l3.5-0.8
						c0.4,0,0.8,0.4,0.8,0.8v1.1C158.9,117.3,158.5,117.7,158.1,117.7z"/>
				</g>
				<path opacity="0.5" fill="#41B9E6" d="M158.1,117.7l-3.5,0.8c-0.4,0-0.8-0.4-0.8-0.8v-1.1c0-0.4,0.4-0.8,0.8-0.8l3.5-0.8
					c0.4,0,0.8,0.4,0.8,0.8v1.1C158.9,117.3,158.5,117.7,158.1,117.7z"/>
				<path fill="#41B9E6" d="M154.6,115.8l3.5-0.8c0.4,0,0.8,0.4,0.8,0.8v1.1c0,0.4-0.4,0.8-0.8,0.8"/>
			</g>
			<polygon fill="#0555FA" points="153.1,117.2 151.7,116.9 151.7,115.8 153.1,116.2 			"/>
			<g>
				<path fill="#0555FA" d="M152.9,126.1L152.9,126.1c-0.4,0-0.7-0.3-0.7-0.7V123c0-0.4,0.3-0.7,0.7-0.7l0,0c0.4,0,0.7,0.3,0.7,0.7
					v2.5C153.5,125.8,153.2,126.1,152.9,126.1z"/>
				<circle fill="#41B9E6" cx="152.9" cy="123.3" r="0.4"/>
			</g>
			<g>
				<path fill="#0555FA" d="M162.1,124.2L162.1,124.2c-0.4,0-0.7-0.3-0.7-0.7v-2.5c0-0.4,0.3-0.7,0.7-0.7l0,0c0.4,0,0.7,0.3,0.7,0.7
					v2.5C162.8,123.9,162.5,124.2,162.1,124.2z"/>
				<circle fill="#41B9E6" cx="162.1" cy="121.4" r="0.4"/>
			</g>
			<g>
				<path fill="#B9937E" d="M149.3,129.1c0.2,0,0.4,0,0.6-0.1l3.5-1.9c0.6-0.3,0.8-1.1,0.5-1.7l0,0c-0.3-0.6-1.1-0.8-1.7-0.5
					l-1.7,0.9v-1.4H148v3.5c0,0.4,0.2,0.8,0.6,1.1C148.8,129,149.1,129.1,149.3,129.1z"/>
			</g>
			<g>
				<path fill="#B9937E" d="M158.7,127.7c0.2,0,0.4,0,0.6-0.1l3.5-1.9c0.6-0.3,0.8-1.1,0.5-1.7l0,0c-0.3-0.6-1.1-0.8-1.7-0.5
					l-1.7,0.9V123h-2.5v3.5c0,0.4,0.2,0.8,0.6,1.1C158.3,127.6,158.5,127.7,158.7,127.7z"/>
			</g>
			<path fill="#172F4C" d="M159.6,123.3c-0.5,0.1-1.3,0.1-1.8,0c-0.5-0.1-0.5-0.4,0-0.5c0.5-0.1,1.3-0.1,1.8,0
				C160.1,122.9,160.1,123.1,159.6,123.3z"/>
			<path fill="#172F4C" d="M150.2,124.6c-0.5,0.1-1.3,0.1-1.8,0c-0.5-0.1-0.5-0.4,0-0.5c0.5-0.1,1.3-0.1,1.8,0
				C150.7,124.3,150.7,124.5,150.2,124.6z"/>
		</g>
	</g>
	<g>
		<path id="XMLID_136_" opacity="0.15" fill="#1D3A57" d="M227.1,166.5c1.2-0.7,1.2-1.8,0-2.5s-3.1-0.7-4.3,0
			c-1.2,0.7-1.2,1.8,0,2.5S225.9,167.2,227.1,166.5z"/>
		<g id="XMLID_111_">
			
				<path id="XMLID_137_" fill="none" stroke="#112341" stroke-width="0.4921" stroke-linecap="round" stroke-linejoin="round" stroke-miterlimit="10" d="
				M233.2,138.9c0-1.8-3.7-3.3-8.2-3.3c-4.5,0-8.2,1.5-8.2,3.3"/>
			<g id="XMLID_134_">
				
					<line id="XMLID_135_" fill="none" stroke="#112341" stroke-width="0.3067" stroke-linecap="round" stroke-linejoin="round" stroke-miterlimit="10" x1="221.6" y1="140.4" x2="222.9" y2="152.1"/>
			</g>
			<path id="XMLID_133_" fill="#0555FA" d="M229.1,153.9v5.4l0,0.2c-0.1,0.6-0.5,1.1-1.2,1.5c-1.6,0.9-4.3,0.9-6,0
				c-0.7-0.4-1.1-1-1.2-1.5l0-0.2v-5.4"/>
			<linearGradient id="XMLID_2_" gradientUnits="userSpaceOnUse" x1="220.67" y1="157.8019" x2="229.0926" y2="157.8019">
				<stop  offset="2.465322e-02" style="stop-color:#312783;stop-opacity:0.9645"/>
				<stop  offset="0.1249" style="stop-color:#3D348A;stop-opacity:0.8654"/>
				<stop  offset="0.3108" style="stop-color:#5E579E;stop-opacity:0.6815"/>
				<stop  offset="0.5621" style="stop-color:#948FBE;stop-opacity:0.4331"/>
				<stop  offset="0.8658" style="stop-color:#DDDBEA;stop-opacity:0.1327"/>
				<stop  offset="1" style="stop-color:#FFFFFF;stop-opacity:0"/>
			</linearGradient>
			<path id="XMLID_132_" opacity="0.5" fill="url(#XMLID_2_)" d="M229.1,153.9v5.4l0,0.2c-0.1,0.6-0.5,1.1-1.2,1.5
				c-1.6,0.9-4.3,0.9-6,0c-0.7-0.4-1.1-1-1.2-1.5l0-0.2v-5.4"/>
			<path id="XMLID_131_" fill="#41B9E6" d="M227.9,155.6c-1.6,0.9-4.3,0.9-6,0c-1.6-1-1.7-2.5,0-3.4c1.6-0.9,4.3-0.9,6,0
				C229.5,153.1,229.5,154.7,227.9,155.6z"/>
			<path id="XMLID_130_" fill="#0555FA" d="M227.2,155.2c-1.3,0.7-3.3,0.7-4.6,0s-1.3-1.9,0-2.7c1.3-0.7,3.3-0.7,4.6,0
				C228.5,153.3,228.5,154.5,227.2,155.2z"/>
			
				<line id="XMLID_129_" fill="none" stroke="#112341" stroke-width="0.3067" stroke-linecap="round" stroke-linejoin="round" stroke-miterlimit="10" x1="228.6" y1="154" x2="232.5" y2="140.4"/>
			
				<line id="XMLID_128_" fill="none" stroke="#112341" stroke-width="0.3067" stroke-linecap="round" stroke-linejoin="round" stroke-miterlimit="10" x1="217.5" y1="140.4" x2="221.2" y2="154"/>
			<g id="XMLID_126_">
				
					<line id="XMLID_127_" fill="none" stroke="#112341" stroke-width="0.3067" stroke-linecap="round" stroke-linejoin="round" stroke-miterlimit="10" x1="228.4" y1="140.4" x2="227.1" y2="152.1"/>
			</g>
			
				<path id="XMLID_125_" fill="none" stroke="#112341" stroke-width="0.3222" stroke-linecap="round" stroke-linejoin="round" stroke-miterlimit="10" d="
				M223.6,155.9"/>
			<g id="XMLID_123_">
				<linearGradient id="XMLID_3_" gradientUnits="userSpaceOnUse" x1="224.9715" y1="147.9903" x2="224.9715" y2="128.5001">
					<stop  offset="0" style="stop-color:#E61400"/>
					<stop  offset="1" style="stop-color:#FF5A0F"/>
				</linearGradient>
				<path id="XMLID_124_" fill="url(#XMLID_3_)" d="M233.1,136.7c0-4.5-3.7-8.2-8.2-8.2c-4.5,0-8.2,3.7-8.2,8.2
					c0,4.3,3.3,9.2,7.4,9.7l0,0l-0.8,1.3c0,0,0,0,0,0c0,0.1,0.7,0.2,1.5,0.2c0.8,0,1.5-0.1,1.5-0.2c0,0,0,0,0,0l-0.8-1.3l0,0
					C229.9,145.9,233.1,140.9,233.1,136.7z"/>
			</g>
			<path id="XMLID_118_" fill="#E61400" d="M223.2,150.4c0.9-0.8,1.7-0.9,2-0.9c0,0,0.1,0,0.1,0c1.2,0,2.1,0.9,2.1,2.1
				c0,0.1,0,0.3,0,0.4v0l0,0c-0.2,1-1,1.7-2.1,1.7c-0.9,0-1.6-0.6-2-1.3c-0.1,0-0.2,0-0.3,0c0,0-1.1,0-1.4,0c-0.7,0-1.2-0.4-1.5-1
				C221.7,151.5,222.6,150.9,223.2,150.4z"/>
			
				<linearGradient id="XMLID_4_" gradientUnits="userSpaceOnUse" x1="-5569.9873" y1="-9392.2793" x2="-5562.8989" y2="-9392.2793" gradientTransform="matrix(-1 0 0 1 -5341.3286 9544.4512)">
				<stop  offset="0" style="stop-color:#FF5A0F"/>
				<stop  offset="1" style="stop-color:#E61400"/>
			</linearGradient>
			<path id="XMLID_117_" fill="url(#XMLID_4_)" d="M225.3,149.5c0.1,0,0.1,0,0.1,0c0.3-0.4,0.8-0.6,1.3-0.6c0.6,0,1.2,0.3,1.5,0.8
				l0.3-0.8v1.8c0,0,0,0,0,0c0,0.4-0.2,0.8-0.4,1.2c0,0.2,0.1,0.3,0.1,0.5c0,1.6-1.3,2.9-2.9,2.9c-1.6,0-3.8-0.9-3.8-2.5
				C221.6,151.3,223.7,149.5,225.3,149.5z"/>
			<path id="XMLID_116_" fill="#F39200" d="M228,151.4c-0.1,0.2,0,0.4,0.2,0.5c0.2,0.1,0.8,0,0.8,0s-0.3-0.6-0.5-0.7
				S228.1,151.2,228,151.4z"/>
			<path id="XMLID_115_" fill="#FF5A0F" d="M221.8,151.4c0.9-0.8,1.7-0.9,2-0.9c0,0,0.1,0,0.1,0c1.2,0,2.1,0.9,2.1,2.1
				c0,0.1,0,0.3,0,0.4v0l0,0c-0.2,1-1,1.7-2.1,1.7c-0.9,0-1.6-0.6-2-1.3c-0.1,0-0.2,0-0.3,0c0,0-1.1,0-1.4,0c-0.7,0-1.2-0.4-1.5-1
				C220.2,152.5,221.2,151.9,221.8,151.4z"/>
			<path id="XMLID_114_" fill="#141428" d="M227.1,151c0,0.1,0.1,0.2,0.3,0.2s0.2-0.1,0.2-0.2s-0.1-0.2-0.3-0.2S227,150.9,227.1,151
				z"/>
			
				<line id="XMLID_113_" fill="none" stroke="#112341" stroke-width="0.3067" stroke-linecap="round" stroke-linejoin="round" stroke-miterlimit="10" x1="225" y1="142.2" x2="225" y2="155.9"/>
			
				<path id="XMLID_112_" fill="none" stroke="#112341" stroke-width="0.4921" stroke-linecap="round" stroke-linejoin="round" stroke-miterlimit="10" d="
				M233.2,138.9c0,1.8-3.7,3.3-8.2,3.3c-4.5,0-8.2-1.5-8.2-3.3"/>
		</g>
	</g>
	<g>
		<path id="XMLID_110_" opacity="0.15" fill="#1D3A57" d="M129.7,172.1c3.1-1.8,3.1-4.8,0-6.6c-3.2-1.8-8.2-1.8-11.4,0
			s-3.1,4.8,0,6.6C121.4,173.9,126.5,173.9,129.7,172.1z"/>
		<g id="XMLID_108_">
			<g id="XMLID_109_">
				<g>
					<path fill="#FF0F5D" d="M125.7,168.3c-1.1,0.7-3,0.6-4.1,0s-1.1-1.7,0-2.4s3-0.6,4.1,0S126.8,167.6,125.7,168.3z"/>
					<path fill="#FF0F5D" d="M124.8,171.1c-0.7,0.4-1.8,0.4-2.5,0s-0.7-1,0-1.4c0.7-0.4,1.8-0.4,2.5,0
						C125.5,170,125.5,170.7,124.8,171.1z"/>
					<polyline fill="#FF0F5D" points="126.4,167.4 125.3,170.5 121.9,170.5 120.7,167 					"/>
				</g>
				<g>
					<path fill="#FF0F5D" d="M131.1,165c-1.1,0.7-3,0.6-4.1,0c-1.1-0.7-1.1-1.7,0-2.4c1.1-0.7,3-0.6,4.1,0
						C132.2,163.3,132.2,164.4,131.1,165z"/>
					<path fill="#FF0F5D" d="M130.3,167.8c-0.7,0.4-1.8,0.4-2.5,0s-0.7-1,0-1.4c0.7-0.4,1.8-0.4,2.5,0
						C131,166.8,131,167.4,130.3,167.8z"/>
					<polyline fill="#FF0F5D" points="131.9,164.2 130.8,167.3 127.3,167.3 126.1,163.8 					"/>
				</g>
				<g>
					<path fill="#FF0F5D" d="M121.3,165.8c-1.1,0.7-3,0.6-4.1,0c-1.1-0.7-1.1-1.7,0-2.4c1.1-0.7,3-0.6,4.1,0
						S122.4,165.2,121.3,165.8z"/>
					<path fill="#FF0F5D" d="M120.4,168.6c-0.7,0.4-1.8,0.4-2.5,0c-0.7-0.4-0.7-1,0-1.4s1.8-0.4,2.5,0
						C121.1,167.6,121.1,168.2,120.4,168.6z"/>
					<polyline fill="#FF0F5D" points="122,165 120.9,168.1 117.5,168.1 116.3,164.6 					"/>
				</g>
				<g opacity="0.3">
					<path fill="#1D1D1B" d="M121.3,165.8c-1.1,0.7-3,0.6-4.1,0c-1.1-0.7-1.1-1.7,0-2.4c1.1-0.7,3-0.6,4.1,0
						S122.4,165.2,121.3,165.8z"/>
					<path fill="#1D1D1B" d="M120.4,168.6c-0.7,0.4-1.8,0.4-2.5,0c-0.7-0.4-0.7-1,0-1.4s1.8-0.4,2.5,0
						C121.1,167.6,121.1,168.2,120.4,168.6z"/>
					<polyline fill="#1D1D1B" points="122,165 120.9,168.1 117.5,168.1 116.3,164.6 					"/>
				</g>
				
					<ellipse transform="matrix(0.9327 -0.3607 0.3607 0.9327 -50.0367 55.8541)" fill="#FF4687" cx="124.6" cy="162" rx="8.8" ry="6.3"/>
				<g>
					<path fill="#FF0F5D" d="M116.2,163.8c0,1.2,0.9,2.8,2,3.4s2,0.1,2-1.1s-0.9-2.8-2-3.4S116.2,162.5,116.2,163.8z"/>
					<path fill="#FF0F5D" d="M114.8,165.1c0,1,0.7,2.3,1.6,2.8c0.9,0.5,1.6,0.1,1.6-0.9c0-1-0.7-2.3-1.6-2.8
						C115.5,163.6,114.8,164,114.8,165.1z"/>
					<polyline fill="#FF0F5D" points="115.1,164.1 116.5,162.7 119.5,167.4 117.6,168 					"/>
					<path fill="#FF4687" d="M114.8,165.1c0,1,0.7,2.3,1.6,2.8c0.9,0.5,1.6,0.1,1.6-0.9c0-1-0.7-2.3-1.6-2.8
						C115.5,163.6,114.8,164,114.8,165.1z"/>
				</g>
				<path fill="#FF0F5D" d="M119.6,159.2l0.2-0.2l-1.3-1.8c-0.2-0.2-0.5-0.3-0.7-0.1l-0.3,0.3"/>
				<path opacity="0.3" fill="#1D1D1B" d="M119.6,159.2l0.2-0.2l-1.3-1.8c-0.2-0.2-0.5-0.3-0.7-0.1l-0.3,0.3"/>
				<path fill="#FF0F5D" d="M122.3,159.9c-0.1,0-0.1,0-0.1,0l1.8-1c0.3-0.2,0.8,0.1,0.7,0.5l-0.3,3.3l-0.3,0.2l-0.1-1.1L122.3,159.9
					z"/>
				<path opacity="0.3" fill="#1D1D1B" d="M122.3,159.9c-0.1,0-0.1,0-0.1,0l1.8-1c0.3-0.2,0.8,0.1,0.7,0.5l-0.3,3.3l-0.3,0.2
					l-0.1-1.1L122.3,159.9z"/>
				<path fill="#FF0F5D" d="M117.3,160.1c0,0,0.5-1.1,2.3-0.9l-1.3-1.8c-0.3-0.4-0.9-0.2-0.9,0.3L117.3,160.1z"/>
				<path fill="#FF0F5D" d="M122.7,158.1l-1.2-0.2c0,0,2-1.7,4.6-2.2l1.2,0.3C127.3,156,124.4,156.4,122.7,158.1z"/>
				<path opacity="0.3" fill="#1D1D1B" d="M122.7,158.1l-1.2-0.2c0,0,2-1.7,4.6-2.2l1.2,0.3C127.3,156,124.4,156.4,122.7,158.1z"/>
				<path fill="#FF0F5D" d="M127.3,156l-1.2-0.3v0.6C126.1,156.3,126.9,156,127.3,156z"/>
				<path fill="#FF0F5D" d="M121.9,160c0,0,1.6,0.3,2.3,2.8l0.3-3.3c0-0.4-0.4-0.7-0.7-0.5L121.9,160z"/>
				<g>
					<path fill="#FF0F5D" d="M115.9,165.9c0,0.2-0.2,0.3-0.4,0.2c-0.2-0.1-0.4-0.4-0.4-0.6c0-0.2,0.2-0.3,0.4-0.2
						S115.9,165.7,115.9,165.9z"/>
				</g>
				<g>
					<path fill="#FF0F5D" d="M117.6,166.9c0,0.2-0.2,0.3-0.4,0.2c-0.2-0.1-0.4-0.4-0.4-0.6c0-0.2,0.2-0.3,0.4-0.2
						C117.5,166.4,117.6,166.7,117.6,166.9z"/>
				</g>
				<g opacity="0.3">
					<path fill="#1D1D1B" d="M115.9,165.9c0,0.2-0.2,0.3-0.4,0.2c-0.2-0.1-0.4-0.4-0.4-0.6c0-0.2,0.2-0.3,0.4-0.2
						S115.9,165.7,115.9,165.9z"/>
				</g>
				<g opacity="0.3">
					<path fill="#1D1D1B" d="M117.6,166.9c0,0.2-0.2,0.3-0.4,0.2c-0.2-0.1-0.4-0.4-0.4-0.6c0-0.2,0.2-0.3,0.4-0.2
						C117.5,166.4,117.6,166.7,117.6,166.9z"/>
				</g>
			</g>
		</g>
	</g>
	<g>
		<path opacity="0.15" fill="#1D3A57" d="M24.7,119.2c-3.8-2.2-3.8-5.7,0-7.9s10-2.2,13.7,0c3.8,2.2,3.8,5.7,0,7.9
			C34.7,121.4,28.5,121.4,24.7,119.2z"/>
		<g>
			<circle opacity="0" fill="#FFFFFF" cx="32" cy="100.8" r="20"/>
			<g>
				<path fill="#182F4C" d="M37.6,95.5c-0.3-1.4-1.5-2.5-3.1-2.5h-4c-2.6,0-4.8,2.1-4.8,4.8c0,3.2,0,6.8,0,6.8l9.6-0.3v-8.7H37.6z"
					/>
			</g>
			<rect id="XMLID_107_" x="27.6" y="104.2" fill="#FF4687" width="7.7" height="2.3"/>
			<g id="XMLID_103_">
				<rect id="XMLID_106_" x="27.6" y="104.2" fill="#FF5A0F" width="3.3" height="11.1"/>
				<path id="XMLID_105_" fill="#182F4C" d="M27.7,115.4L30,117c0.6,0.4,1.6,0.4,2.1,0.1l0,0c0.5-0.3,0.5-0.9-0.2-1.2l-1.1-0.6"/>
				<path id="XMLID_104_" fill="#FF5A0F" d="M30.4,115.6c-0.6,0.2-1.7,0.2-2.3,0c-0.6-0.2-0.6-0.5,0-0.7c0.6-0.2,1.7-0.2,2.3,0
					C31,115.1,31,115.4,30.4,115.6z"/>
			</g>
			<g id="XMLID_74_">
				<rect id="XMLID_102_" x="31.9" y="104.2" fill="#FF5A0F" width="3.3" height="9.2"/>
				<path id="XMLID_101_" fill="#182F4C" d="M32,113.5l2.4,1.6c0.6,0.4,1.6,0.4,2.1,0.1l0,0c0.5-0.3,0.5-0.9-0.2-1.2l-1.1-0.6"/>
				<path id="XMLID_77_" fill="#FF5A0F" d="M34.7,113.7c-0.6,0.2-1.7,0.2-2.3,0c-0.6-0.2-0.6-0.5,0-0.7c0.6-0.2,1.7-0.2,2.3,0
					C35.4,113.2,35.4,113.5,34.7,113.7z"/>
				<path id="XMLID_76_" fill="#FF5A0F" d="M34.1,106.2c-1.5,0.4-3.9,0.4-5.4,0c-1.5-0.4-1.5-1.1,0-1.6c1.5-0.4,3.9-0.4,5.4,0
					C35.6,105.1,35.6,105.8,34.1,106.2z"/>
				<path id="XMLID_75_" fill="#182F4C" d="M34.2,105c-1.5,0.4-4,0.4-5.6,0c-1.5-0.4-1.5-1.2,0-1.6c1.5-0.4,4-0.4,5.6,0
					S35.7,104.6,34.2,105z"/>
			</g>
			<g id="XMLID_69_">
				<path id="XMLID_73_" fill="#513E35" d="M28.1,107h-0.4c-1.1,0-2-0.9-2-2v-5.7h2.4V107z"/>
				<path id="XMLID_72_" fill="#513E35" d="M45.4,94.9v0.4h-7.7v-2.4l5.7,0C44.5,92.9,45.4,93.8,45.4,94.9z"/>
				<path id="XMLID_71_" fill="#182F4C" d="M27.9,99.6c-0.5,0.1-1.3,0.1-1.8,0c-0.5-0.1-0.5-0.4,0-0.5s1.3-0.1,1.8,0
					C28.4,99.2,28.4,99.4,27.9,99.6z"/>
				<path id="XMLID_70_" fill="#182F4C" d="M37.3,95.5c-0.2-0.6-0.2-1.5,0-2.1c0.2-0.6,0.4-0.6,0.6,0s0.2,1.5,0,2.1
					C37.8,96.1,37.5,96.1,37.3,95.5z"/>
			</g>
			<polyline fill="#182F4C" points="34.5,92.9 37.6,92.9 37.6,95.9 35.1,95.9 			"/>
			<circle fill="#A07843" cx="32" cy="88.8" r="3.9"/>
			<path fill="#513E35" d="M32,94.4L32,94.4c-1.5,0-2.6-1.2-2.6-2.6v-1.9c0-1.5,1.2-2.6,2.6-2.6h0c1.5,0,2.6,1.2,2.6,2.6v1.9
				C34.7,93.2,33.5,94.4,32,94.4z"/>
			<path fill="#A07843" d="M34.1,89.9c-1.1,0.3-2.9,0.3-4.1,0c-1.1-0.3-1.1-0.9,0-1.2c1.1-0.3,2.9-0.3,4.1,0
				C35.2,89,35.2,89.5,34.1,89.9z"/>
			<polyline fill="#A07843" points="29.4,89.3 29.4,86.4 32.2,86.4 34.7,86.4 34.7,89.3 			"/>
			<ellipse fill="#A8A8A7" cx="32" cy="86.1" rx="0.7" ry="0.3"/>
			<linearGradient id="SVGID_4_" gradientUnits="userSpaceOnUse" x1="32.0123" y1="89.3218" x2="32.0123" y2="81.5673">
				<stop  offset="0" style="stop-color:#A8A8A7"/>
				<stop  offset="0.35" style="stop-color:#ADADAC"/>
				<stop  offset="0.7904" style="stop-color:#BCBCBC"/>
				<stop  offset="1" style="stop-color:#C6C6C6"/>
			</linearGradient>
			<path fill="url(#SVGID_4_)" d="M33.4,84.4c-0.4-0.1-0.7-0.5-0.7-0.9v-1.9h-1.4v1.9c0,0.4-0.3,0.8-0.7,0.9c-1.6,0.5-2.7,2-2.7,3.8
				l0,0c0,0.3,0.4,0.6,1.1,0.8c0.3,0.1,0.7,0.2,1.1,0.2c1.5,0.2,3.3,0.1,4.6-0.2c0.2-0.1,0.3-0.1,0.5-0.2l0.5-0.3
				c0.1-0.1,0.2-0.2,0.2-0.4l0,0C36,86.4,34.9,84.9,33.4,84.4z"/>
			<ellipse fill="#A8A8A7" cx="32" cy="81.6" rx="0.7" ry="0.3"/>
			<path fill="#878787" d="M32,81.3c0.4,0,0.7,0.1,0.7,0.3c0,0.1-0.3,0.3-0.7,0.3"/>
			<rect x="39.3" y="92.9" fill="#182F4C" width="2.1" height="2.9"/>
			<rect x="39.3" y="92.9" fill="#FF4687" width="2.1" height="1.9"/>
			<linearGradient id="SVGID_5_" gradientUnits="userSpaceOnUse" x1="40.416" y1="92.9414" x2="40.416" y2="90.9414">
				<stop  offset="0" style="stop-color:#FF4687;stop-opacity:0.4"/>
				<stop  offset="3.426268e-02" style="stop-color:#FF4F8D;stop-opacity:0.4"/>
				<stop  offset="0.2892" style="stop-color:#FF8DB5;stop-opacity:0.4"/>
				<stop  offset="0.5222" style="stop-color:#FFBED5;stop-opacity:0.4"/>
				<stop  offset="0.7254" style="stop-color:#FFE2EC;stop-opacity:0.4"/>
				<stop  offset="0.8912" style="stop-color:#FFF7FA;stop-opacity:0.4"/>
				<stop  offset="0.9987" style="stop-color:#FFFFFF;stop-opacity:0.4"/>
			</linearGradient>
			<rect x="39.3" y="90.9" fill="url(#SVGID_5_)" width="2.1" height="2"/>
			<g>
				<path fill="#0555FA" d="M30.3,98.1v0.7v0.7v0.7l0.7-0.1v0.7l0.7-0.1l0.7-0.1l0.7-0.1v-0.7l0.7-0.1v-0.7v-0.7v-0.7l-0.7,0.1
					l-0.7,0.1l-0.7,0.1L31,98L30.3,98.1z M32.4,98.5v0.7l-0.7,0.1v-0.7L32.4,98.5z"/>
				<polygon fill="#0555FA" points="33.8,101.1 33.1,101.2 33.1,100.5 33.8,100.3 				"/>
				<polygon fill="#0555FA" points="31,101.6 30.3,101.7 30.3,101 31,100.8 				"/>
			</g>
		</g>
	</g>
	<g>
		<path opacity="0.15" fill="#1D3A57" d="M234.4,72.9c3.8-2.2,3.8-5.7,0-7.9c-3.8-2.2-10-2.2-13.7,0c-3.8,2.2-3.8,5.7,0,7.9
			C224.5,75.1,230.6,75.1,234.4,72.9z"/>
		<g>
			<rect x="207.1" y="37.5" fill="none" width="40" height="40"/>
			<path fill="#0555FA" d="M230.7,46.5h-4c-2.6,0-4.8,2.1-4.8,4.8c0,1.1,0,2.3,0,3.4h1.8V58c0,0,0,0,0,0h7.7c1.3,0,2.4-1.1,2.4-2.4
				v-6C233.8,47.9,232.4,46.5,230.7,46.5z"/>
			<rect x="223.7" y="57.7" fill="#0555FA" width="3.3" height="11.1"/>
			<rect x="228.1" y="57.7" fill="#0555FA" width="3.3" height="9.6"/>
			<rect x="223.7" y="57.7" fill="#0555FA" width="7.7" height="2.3"/>
			<path fill="#172F4C" d="M223.8,69l2.4,1.6c0.6,0.4,1.6,0.4,2.1,0.1l0,0c0.5-0.3,0.5-0.9-0.2-1.2l-1.1-0.6"/>
			<path fill="#172F4C" d="M228.1,67.4l2.4,1.6c0.6,0.4,1.6,0.4,2.1,0.1l0,0c0.5-0.3,0.5-0.9-0.2-1.2l-1.1-0.6"/>
			<path fill="#B9937E" d="M228.1,47.7L228.1,47.7c-1.5,0-2.6-1.2-2.6-2.6v-1.9c0-1.5,1.2-2.6,2.6-2.6l0,0c1.5,0,2.6,1.2,2.6,2.6
				v1.9C230.8,46.6,229.6,47.7,228.1,47.7z"/>
			<path fill="#0555FA" d="M226.5,69.2c-0.6,0.2-1.7,0.2-2.3,0s-0.6-0.5,0-0.7s1.7-0.2,2.3,0C227.1,68.7,227.1,69,226.5,69.2z"/>
			<path fill="#0555FA" d="M230.9,67.6c-0.6,0.2-1.7,0.2-2.3,0c-0.6-0.2-0.6-0.5,0-0.7c0.6-0.2,1.7-0.2,2.3,0
				C231.6,67.1,231.6,67.4,230.9,67.6z"/>
			<path fill="#0555FA" d="M230.2,59.8c-1.5,0.4-4,0.4-5.6,0c-0.8-0.2-0.8-0.5-0.8-0.9c0-0.3,0.1-0.5,0.8-0.8c1.5-0.4,4-0.4,5.6,0
				S231.7,59.3,230.2,59.8z"/>
			<path fill="#FDC300" d="M225.2,43.3c0-1.6,1.3-2.9,2.9-2.9l0,0c1.6,0,2.9,1.3,2.9,2.9"/>
			<path fill="#FDC300" d="M230.1,43.6c-1.1,0.3-2.9,0.3-4,0c-1.1-0.3-1.1-0.8,0-1.2c1.1-0.3,2.9-0.3,4,0
				C231.2,42.8,231.2,43.3,230.1,43.6z"/>
			<path fill="#FDC300" d="M225.8,43.3c-0.3-0.1-0.5-0.2-0.6-0.3c-0.6,0.3-0.4,0.8,0.6,1.1c1.3,0.4,3.3,0.4,4.6,0
				c1-0.3,1.2-0.7,0.6-1.1c-0.2,0.1-0.3,0.2-0.6,0.2C229.1,43.7,227.1,43.7,225.8,43.3z"/>
			<path fill="#E5A900" d="M225.8,43.3c-0.3-0.1-0.5-0.2-0.6-0.3c-0.6,0.3-0.4,0.8,0.6,1.1c1.3,0.4,3.3,0.4,4.6,0
				c1-0.3,1.2-0.7,0.6-1.1c-0.2,0.1-0.3,0.2-0.6,0.2C229.1,43.7,227.1,43.7,225.8,43.3z"/>
			<path fill="#0555FA" d="M226.8,56.7l-0.9,2.1c1.1,0.2,2.5,0.1,3.6,0l-1-2.1C227.9,56.6,227.3,56.6,226.8,56.7z"/>
			<path fill="#0555FA" d="M231.3,57.5V58C231.5,57.9,231.5,57.7,231.3,57.5z"/>
			<path fill="#FF5A0F" d="M223.7,58v5.9l2.2-5.1c-0.4-0.1-0.8-0.1-1.1-0.2C224.2,58.4,223.8,58.2,223.7,58z"/>
			<path fill="#FF5A0F" d="M229.5,58.8l1.9,3.8V58c-0.2,0.2-0.5,0.4-1,0.5C230.1,58.6,229.8,58.7,229.5,58.8z"/>
			<path fill="#FDC300" d="M230.4,51.7c0-0.4-0.3-0.6-0.6-0.5c-0.4,0.1-0.6,0.4-0.6,0.8s0.3,0.6,0.6,0.5
				C230.1,52.4,230.4,52.1,230.4,51.7z"/>
			<path fill="#B9937E" d="M231.4,59.1L231.4,59.1v-7.7h2.4v5.3C233.8,58,232.7,59.1,231.4,59.1z"/>
			<path fill="#0555FA" d="M233.5,51.6c-0.5,0.1-1.3,0.1-1.8,0c-0.5-0.1-0.5-0.4,0-0.5s1.3-0.1,1.8,0S233.9,51.5,233.5,51.6z"/>
			<polygon fill="#FF5A0F" points="231.4,52.1 231.4,47.4 229.8,50.2 			"/>
			<g>
				
					<path fill="none" stroke="#FDC300" stroke-width="0.5" stroke-linecap="round" stroke-linejoin="round" stroke-miterlimit="10" d="
					M226.2,57.2c0,0.4,0.3,0.9,0.6,1.1c0.4,0.3,0.8,0.1,0.8-0.5c0-0.6-0.4-1.4-1-1.7c-0.7-0.4-1.2-0.1-1.2,0.7
					c0,1.5,1.5,3.4,2.8,2.8c0.4-0.2,0.6-0.6,0.6-1.2c0-2.1-1.9-4.7-3.8-4.5c-1,0.1-1.6,1.1-1.6,2.5v9.1c0,2-1.4,2.8-3.1,1.8
					l-6.2-3.8"/>
			</g>
			<ellipse fill="#FF5A0F" cx="226.2" cy="57.1" rx="0.3" ry="0.2"/>
			
				<ellipse transform="matrix(0.7071 -0.7071 0.7071 0.7071 17.8669 169.9314)" fill="#FF5A0F" cx="214.1" cy="63.4" rx="0.3" ry="0.2"/>
			<path fill="#B9937E" d="M223.1,57.6c0.2,0,0.4,0,0.6-0.1l3.5-1.9c0.6-0.3,0.8-1.1,0.5-1.7l0,0c-0.3-0.6-1.1-0.8-1.7-0.5l-1.7,0.9
				v-1.4h-2.5v3.5c0,0.4,0.2,0.8,0.6,1.1C222.7,57.5,222.9,57.6,223.1,57.6z"/>
			<path fill="#0555FA" d="M224.1,53.1c-0.5,0.1-1.3,0.1-1.8,0c-0.5-0.1-0.5-0.4,0-0.5s1.3-0.1,1.8,0
				C224.5,52.8,224.5,53,224.1,53.1z"/>
			<polygon fill="#FF5A0F" points="224.4,53.6 224.4,47.9 226,50.6 			"/>
		</g>
	</g>
</g>
<g id="Peopledx">
	<g>
		<g>
			<path opacity="0.15" fill="#1D3A57" d="M270.1,134c-3.8-2.2-3.8-5.7,0-7.9c3.8-2.2,10-2.2,13.7,0c3.8,2.2,3.8,5.7,0,7.9
				C280.1,136.2,273.9,136.2,270.1,134z"/>
			<rect x="273.2" y="118.8" fill="#0555FA" width="7.7" height="2.3"/>
			<rect x="277.6" y="118.8" fill="#0555FA" width="3.3" height="11.1"/>
			<rect x="273.2" y="118.8" fill="#0555FA" width="3.3" height="9.6"/>
			<path fill="#0555FA" d="M274.3,120.9c1.5,0.4,4,0.4,5.6,0c1.5-0.4,1.5-1.2,0-1.6c-1.5-0.4-4-0.4-5.6,0
				C272.8,119.8,272.8,120.5,274.3,120.9z"/>
			<rect x="270.8" y="115.4" fill="#172F4C" width="11.9" height="9.4"/>
			<path fill="#172F4C" d="M280.7,130.1l-2.4,1.6c-0.6,0.4-1.6,0.4-2.1,0.1v0c-0.5-0.3-0.5-0.9,0.2-1.2l1.1-0.6"/>
			<path fill="#172F4C" d="M276.4,128.6l-2.4,1.6c-0.6,0.4-1.6,0.4-2.1,0.1l0,0c-0.5-0.3-0.5-0.9,0.2-1.2l1.1-0.6"/>
			<path fill="#172F4C" d="M282.7,119.2h-9.5c-1.3,0-2.4-1.1-2.4-2.4v-6c0-1.7,1.4-3.1,3.1-3.1h4c2.6,0,4.8,2.1,4.8,4.8
				C282.7,115.6,282.7,119.2,282.7,119.2z"/>
			<path fill="#0555FA" d="M278,130.3c0.6,0.2,1.7,0.2,2.3,0c0.6-0.2,0.6-0.5,0-0.7c-0.6-0.2-1.7-0.2-2.3,0
				C277.4,129.8,277.4,130.1,278,130.3z"/>
			<path fill="#0555FA" d="M273.7,128.8c0.6,0.2,1.7,0.2,2.3,0c0.6-0.2,0.6-0.5,0-0.7c-0.6-0.2-1.7-0.2-2.3,0
				C273,128.3,273,128.6,273.7,128.8z"/>
			<path fill="#172F4C" d="M272.5,125.9c2.3,0.7,6.1,0.7,8.4,0c2.3-0.7,2.3-1.8,0-2.4c-2.3-0.7-6.1-0.7-8.4,0
				C270.2,124.2,270.2,125.3,272.5,125.9z"/>
			<path fill="#E61400" d="M280.3,121.8L280.3,121.8c1.3,0,2.4-1.1,2.4-2.4v-0.5h-2.4V121.8z"/>
			<path fill="#E61400" d="M273.2,120.2L273.2,120.2v-3h-2.4v0.6C270.8,119.2,271.9,120.2,273.2,120.2z"/>
			<path fill="#172F4C" d="M280.5,119.1c0.5,0.1,1.3,0.1,1.8,0s0.5-0.4,0-0.5s-1.3-0.1-1.8,0C280.1,118.7,280,118.9,280.5,119.1z"/>
			<path fill="#172F4C" d="M271.1,117.6c0.5,0.1,1.3,0.1,1.8,0c0.5-0.1,0.5-0.4,0-0.5c-0.5-0.1-1.3-0.1-1.8,0
				C270.7,117.2,270.7,117.4,271.1,117.6z"/>
			<rect x="276" y="107.7" fill="#FF5A0F" width="2.6" height="10.1"/>
			<path fill="#B9937E" d="M276.4,108.9L276.4,108.9c1.5,0,2.6-1.2,2.6-2.6v-1.9c0-1.5-1.2-2.6-2.6-2.6l0,0c-1.5,0-2.6,1.2-2.6,2.6
				v1.9C273.8,107.7,275,108.9,276.4,108.9z"/>
			<path fill="#172F4C" d="M279.3,104.4c0-1.6-1.3-2.9-2.9-2.9l0,0c-1.6,0-2.9,1.3-2.9,2.9"/>
			<path fill="#172F4C" d="M274.4,104.8c1.1,0.3,2.9,0.3,4,0s1.1-0.8,0-1.2c-1.1-0.3-2.9-0.3-4,0
				C273.3,103.9,273.3,104.5,274.4,104.8z"/>
			<g>
				<path fill="#FF5A0F" d="M278.7,104.5c0.3-0.1,0.5-0.2,0.6-0.3c0.6,0.3,0.4,0.8-0.6,1.1c-1.3,0.4-3.3,0.4-4.6,0
					c-1-0.3-1.2-0.7-0.6-1.1c0.2,0.1,0.3,0.2,0.6,0.2C275.4,104.9,277.4,104.8,278.7,104.5z"/>
			</g>
			<circle fill="#FF5A0F" cx="276.6" cy="101.2" r="1"/>
		</g>
	</g>
	<g id="XMLID_67_">
		<path opacity="0.15" fill="#1D3A57" d="M210.5,181.5c3.8-2.2,3.8-5.7,0-7.9c-3.8-2.2-10-2.2-13.7,0c-3.8,2.2-3.8,5.7,0,7.9
			C200.5,183.6,206.7,183.7,210.5,181.5z"/>
		<rect x="199.7" y="166.3" fill="#FF5A0F" width="3.3" height="11.1"/>
		<rect x="204.1" y="166.3" fill="#FF5A0F" width="3.3" height="9.6"/>
		<rect x="199.7" y="166.3" fill="#FF5A0F" width="7.7" height="2.3"/>
		<path fill="#172F4C" d="M199.8,177.6l2.4,1.6c0.6,0.4,1.6,0.4,2.1,0.1l0,0c0.5-0.3,0.5-0.9-0.2-1.2l-1.1-0.6"/>
		<path fill="#172F4C" d="M204.2,176l2.4,1.6c0.6,0.4,1.6,0.4,2.1,0.1l0,0c0.5-0.3,0.5-0.9-0.2-1.2l-1.1-0.6"/>
		<path fill="#172F4C" d="M197.9,166.7h9.5c1.3,0,2.4-1.1,2.4-2.4v-6c0-1.7-1.4-3.1-3.1-3.1h-4c-2.6,0-4.8,2.1-4.8,4.8
			C197.9,163.1,197.9,166.7,197.9,166.7z"/>
		<path fill="#FF5A0F" d="M202.5,177.7c-0.6,0.2-1.7,0.2-2.3,0c-0.6-0.2-0.6-0.5,0-0.7c0.6-0.2,1.7-0.2,2.3,0
			C203.2,177.3,203.2,177.6,202.5,177.7z"/>
		<path fill="#FF5A0F" d="M206.9,176.2c-0.6,0.2-1.7,0.2-2.3,0c-0.6-0.2-0.6-0.5,0-0.7c0.6-0.2,1.7-0.2,2.3,0
			C207.5,175.7,207.6,176,206.9,176.2z"/>
		<path fill="#FF5A0F" d="M206.2,168.4c-1.5,0.4-4,0.4-5.6,0c-1.5-0.4-1.5-1.2,0-1.6c1.5-0.4,4-0.4,5.6,0S207.8,167.9,206.2,168.4z"
			/>
		<path fill="#172F4C" d="M206.4,167.2c-1.5,0.4-4,0.4-5.6,0c-1.5-0.4-1.5-1.2,0-1.6c1.5-0.4,4-0.4,5.6,0S207.9,166.7,206.4,167.2z"
			/>
		<path fill="#513E35" d="M200.3,169.2L200.3,169.2c-1.3,0-2.4-1.1-2.4-2.4v-5.3h2.4V169.2z"/>
		<path fill="#513E35" d="M207.4,167.7L207.4,167.7V160h2.4v5.3C209.8,166.6,208.7,167.7,207.4,167.7z"/>
		<path fill="#172F4C" d="M200,161.7c-0.5,0.1-1.3,0.1-1.8,0c-0.5-0.1-0.5-0.4,0-0.5c0.5-0.1,1.3-0.1,1.8,0
			C200.5,161.4,200.5,161.6,200,161.7z"/>
		<path fill="#172F4C" d="M209.4,160.2c-0.5,0.1-1.3,0.1-1.8,0c-0.5-0.1-0.5-0.4,0-0.5c0.5-0.1,1.3-0.1,1.8,0
			C209.9,159.8,209.9,160.1,209.4,160.2z"/>
		<path fill="#C9961A" d="M205.5,162.4c0-0.6-0.5-1.1-1.2-1c-0.6,0.1-1.2,0.7-1.2,1.4s0.5,1.1,1.2,1
			C205,163.6,205.5,163,205.5,162.4z"/>
		<polyline fill="none" stroke="#C9961A" stroke-width="0.24" stroke-miterlimit="10" points="202.4,155.2 204.4,162.3 205.9,155.2 
					"/>
		<path fill="#513E35" d="M204.2,156.3L204.2,156.3c-1.5,0-2.6-1.2-2.6-2.6v-1.9c0-1.5,1.2-2.6,2.6-2.6l0,0c1.5,0,2.6,1.2,2.6,2.6
			v1.9C206.8,155.1,205.6,156.3,204.2,156.3z"/>
		<path fill="#FF5A0F" d="M204.5,154.1l-2.7-1.6c-0.8-0.4-0.7-1.2,0.2-1.7l0,0c0.9-0.5,2.2-0.6,3-0.1l2.7,1.6
			c0.8,0.4,0.7,1.2-0.2,1.7l0,0C206.6,154.5,205.2,154.5,204.5,154.1z"/>
		<linearGradient id="SVGID_6_" gradientUnits="userSpaceOnUse" x1="204.7127" y1="154.3911" x2="204.7127" y2="150.3848">
			<stop  offset="0" style="stop-color:#FFFFFF"/>
			<stop  offset="1" style="stop-color:#000000"/>
		</linearGradient>
		<path opacity="0.3" fill="url(#SVGID_6_)" d="M204.5,154.1l-2.7-1.6c-0.8-0.4-0.7-1.2,0.2-1.7l0,0c0.9-0.5,2.2-0.6,3-0.1l2.7,1.6
			c0.8,0.4,0.7,1.2-0.2,1.7l0,0C206.6,154.5,205.2,154.5,204.5,154.1z"/>
		<path fill="#FF5A0F" d="M201.2,151.9c0-1.6,1.3-2.9,2.9-2.9h0c1.6,0,2.9,1.3,2.9,2.9"/>
		<path fill="#FF5A0F" d="M206.2,152.5c-1.1,0.3-3,0.3-4.1,0s-1.1-0.9,0-1.2c1.1-0.3,3-0.3,4.1,0S207.4,152.2,206.2,152.5z"/>
	</g>
	<g id="XMLID_66_">
		<g>
			<path opacity="0.15" fill="#1D3A57" d="M274.2,145.1c3.8-2.2,3.8-5.7,0-7.9c-3.8-2.2-10-2.2-13.7,0s-3.8,5.7,0,7.9
				C264.2,147.3,270.4,147.3,274.2,145.1z"/>
			<path fill="#172F4C" d="M267.9,139.7l2.4,1.6c0.6,0.4,1.6,0.4,2.1,0.1v0c0.5-0.3,0.5-0.9-0.2-1.2l-1.1-0.6"/>
			<rect x="263.5" y="134.8" fill="#B9937F" width="3.3" height="6.3"/>
			<rect x="267.8" y="134.8" fill="#B9937F" width="3.3" height="4.8"/>
			<path fill="#172F4C" d="M270.6,139.9c-0.6,0.2-1.7,0.2-2.3,0c-0.6-0.2-0.6-0.5,0-0.7c0.6-0.2,1.7-0.2,2.3,0
				C271.3,139.4,271.3,139.7,270.6,139.9z"/>
			<rect x="263.5" y="129.9" fill="#41B9E6" width="3.3" height="6.3"/>
			<rect x="267.8" y="129.9" fill="#41B9E6" width="3.3" height="4.8"/>
			<rect x="263.5" y="129.9" fill="#41B9E6" width="7.7" height="2.3"/>
			<path fill="#0555FA" d="M261.6,130.3h9.5c1.3,0,2.4-1.1,2.4-2.4v-6c0-1.7-1.4-3.1-3.1-3.1h-4c-2.6,0-4.8,2.1-4.8,4.8
				C261.6,126.7,261.6,130.3,261.6,130.3z"/>
			<path fill="#41B9E6" d="M266.3,136.5c-0.6,0.2-1.7,0.2-2.3,0c-0.6-0.2-0.6-0.5,0-0.7c0.6-0.2,1.7-0.2,2.3,0
				C266.9,136.1,266.9,136.4,266.3,136.5z"/>
			<path fill="#41B9E6" d="M270.6,135c-0.6,0.2-1.7,0.2-2.3,0c-0.6-0.2-0.6-0.5,0-0.7c0.6-0.2,1.7-0.2,2.3,0
				C271.3,134.5,271.3,134.8,270.6,135z"/>
			<path fill="#41B9E6" d="M270,132c-1.5,0.4-4,0.4-5.6,0c-1.5-0.4-1.5-1.2,0-1.6c1.5-0.4,4-0.4,5.6,0
				C271.5,130.8,271.5,131.6,270,132z"/>
			<path fill="#0555FA" d="M270.1,130.8c-1.5,0.4-4,0.4-5.6,0c-1.5-0.4-1.5-1.2,0-1.6c1.5-0.4,4-0.4,5.6,0
				C271.6,129.6,271.6,130.4,270.1,130.8z"/>
			<path fill="#B9937F" d="M264,132.8L264,132.8c-1.3,0-2.4-1.1-2.4-2.4v-5.3h2.4V132.8z"/>
			<path fill="#B9937F" d="M271.1,131.3L271.1,131.3v-7.7h2.4v5.3C273.5,130.2,272.5,131.3,271.1,131.3z"/>
			<path fill="#0555FA" d="M263.8,125.4c-0.5,0.1-1.3,0.1-1.8,0c-0.5-0.1-0.5-0.4,0-0.5c0.5-0.1,1.3-0.1,1.8,0
				C264.3,125,264.3,125.2,263.8,125.4z"/>
			<path fill="#0555FA" d="M273.2,123.8c-0.5,0.1-1.3,0.1-1.8,0c-0.5-0.1-0.5-0.4,0-0.5c0.5-0.1,1.3-0.1,1.8,0
				S273.7,123.7,273.2,123.8z"/>
			<path fill="#B9937F" d="M267.9,120L267.9,120c-1.5,0-2.6-1.2-2.6-2.6v-1.9c0-1.5,1.2-2.6,2.6-2.6h0c1.5,0,2.6,1.2,2.6,2.6v1.9
				C270.5,118.8,269.3,120,267.9,120z"/>
			<path fill="#0555FA" d="M268.2,117.7l-2.7-1.6c-0.8-0.4-0.7-1.2,0.2-1.7v0c0.9-0.5,2.2-0.6,3-0.1l2.7,1.6
				c0.8,0.4,0.7,1.2-0.2,1.7l0,0C270.3,118.1,269,118.2,268.2,117.7z"/>
			
				<linearGradient id="SVGID_7_" gradientUnits="userSpaceOnUse" x1="13556.9775" y1="-11737.3291" x2="13556.9775" y2="-11740.668" gradientTransform="matrix(1.2 0 0 1.2 -15999.9434 14202.832)">
				<stop  offset="0" style="stop-color:#FFFFFF"/>
				<stop  offset="1" style="stop-color:#000000"/>
			</linearGradient>
			<path opacity="0.3" fill="url(#SVGID_7_)" d="M268.2,117.7l-2.7-1.6c-0.8-0.4-0.7-1.2,0.2-1.7v0c0.9-0.5,2.2-0.6,3-0.1l2.7,1.6
				c0.8,0.4,0.7,1.2-0.2,1.7l0,0C270.3,118.1,269,118.2,268.2,117.7z"/>
			<path fill="#0555FA" d="M265,115.5c0-1.6,1.3-2.9,2.9-2.9l0,0c1.6,0,2.9,1.3,2.9,2.9"/>
			<path fill="#0555FA" d="M269.9,116.1c-1.1,0.3-3,0.3-4.1,0c-1.1-0.3-1.1-0.9,0-1.2c1.1-0.3,3-0.3,4.1,0S271.1,115.8,269.9,116.1z
				"/>
		</g>
		<g>
			<path fill="#F2D78F" d="M262,126.4c0.5,0.1,1.2,0.1,1.7,0c0.2-0.1,0.3-0.2,0.3-0.2v1.1h0c0,0.1-0.1,0.2-0.3,0.2
				c-0.2,0.1-0.4,0.1-0.6,0.1h-0.5c-0.2,0-0.5,0-0.6-0.1c-0.2-0.1-0.3-0.1-0.3-0.2h0v-1.1C261.6,126.3,261.7,126.3,262,126.4z"/>
		</g>
		<polyline fill="#172F4C" points="271.1,139.7 271.1,138.7 267.8,138.7 267.8,139.6 		"/>
		<path fill="#172F4C" d="M263.5,141.2l2.4,1.6c0.6,0.4,1.6,0.4,2.1,0.1l0,0c0.5-0.3,0.5-0.9-0.2-1.2l-1.1-0.6"/>
		<path fill="#172F4C" d="M266.2,141.4c-0.6,0.2-1.7,0.2-2.3,0c-0.6-0.2-0.6-0.5,0-0.7c0.6-0.2,1.7-0.2,2.3,0
			C266.9,140.9,266.9,141.2,266.2,141.4z"/>
		<polyline fill="#172F4C" points="266.7,141.2 266.7,140.1 263.4,140.1 263.4,141 		"/>
		<path fill="#B9937F" d="M270.6,139c-0.6,0.2-1.7,0.2-2.3,0c-0.6-0.2-0.6-0.5,0-0.7c0.6-0.2,1.7-0.2,2.3,0
			C271.3,138.5,271.3,138.8,270.6,139z"/>
		<path fill="#B9937F" d="M266.3,140.4c-0.6,0.2-1.7,0.2-2.3,0c-0.6-0.2-0.6-0.5,0-0.7c0.6-0.2,1.7-0.2,2.3,0
			C266.9,140,266.9,140.3,266.3,140.4z"/>
		<path fill="#41B9E6" d="M265.8,125.9c0-1.1,0.9-2.2,2.1-2.4c1.1-0.2,2.1,0.6,2.1,1.7s-0.9,2.2-2.1,2.4
			C266.8,127.8,265.8,127,265.8,125.9z"/>
	</g>
	<g id="XMLID_65_">
		<g>
			<path opacity="0.15" fill="#1D3A57" d="M63.4,105.4c3.8-2.2,3.8-5.7,0-7.9c-3.8-2.2-10-2.2-13.7,0c-3.8,2.2-3.8,5.7,0,7.9
				C53.4,107.6,59.6,107.6,63.4,105.4z"/>
			<rect x="52.6" y="90.3" fill="#0555FA" width="3.3" height="11.1"/>
			<rect x="57" y="90.3" fill="#0555FA" width="3.3" height="9.6"/>
			<rect x="52.6" y="90.3" fill="#0555FA" width="7.7" height="2.3"/>
			<path fill="#172F4C" d="M52.7,101.6l2.4,1.6c0.6,0.4,1.6,0.4,2.1,0.1l0,0c0.5-0.3,0.5-0.9-0.2-1.2l-1.1-0.6"/>
			<path fill="#172F4C" d="M57.1,100l2.4,1.6c0.6,0.4,1.6,0.4,2.1,0.1h0c0.5-0.3,0.5-0.9-0.2-1.2l-1.1-0.6"/>
			<path fill="#0555FA" d="M55.4,101.7c-0.6,0.2-1.7,0.2-2.3,0c-0.6-0.2-0.6-0.5,0-0.7c0.6-0.2,1.7-0.2,2.3,0S56.1,101.5,55.4,101.7
				z"/>
			<path fill="#0555FA" d="M59.8,100.2c-0.6,0.2-1.7,0.2-2.3,0c-0.6-0.2-0.6-0.5,0-0.7s1.7-0.2,2.3,0C60.5,99.7,60.5,100,59.8,100.2
				z"/>
			<path fill="#0555FA" d="M59.2,92.3c-1.5,0.4-4,0.4-5.6,0c-1.5-0.4-1.5-1.2,0-1.6s4-0.4,5.6,0C60.7,91.2,60.7,91.9,59.2,92.3z"/>
			<path fill="#172F4C" d="M59.3,91.1c-1.5,0.4-4,0.4-5.6,0c-1.5-0.4-1.5-1.2,0-1.6s4-0.4,5.6,0C60.8,90,60.8,90.7,59.3,91.1z"/>
			<g>
				<path fill="#172F4C" d="M59.6,79.1h-4c-0.9,0-1.7,0.3-2.4,0.7c0,1.7,0,7.8,0,10.9h7.1V79.2C60.1,79.1,59.8,79.1,59.6,79.1z"/>
				<path fill="#7C6253" d="M50.8,83.9c0,1.2,0,2.4,0,3.5v3.4c0,1.3,1.1,2.4,2.4,2.4c0,0,0-1.8,0-2.6c0-3.1,0-9.2,0-10.9
					C51.8,80.6,50.8,82.1,50.8,83.9z"/>
				<path fill="#7C6253" d="M60.3,79.2v11.5v1c1.3,0,2.4-1.1,2.4-2.4v-1v-6C62.7,80.7,61.7,79.5,60.3,79.2z"/>
			</g>
			<path fill="#7C6253" d="M57.1,80.3L57.1,80.3c-1.5,0-2.6-1.2-2.6-2.6v-1.9c0-1.5,1.2-2.6,2.6-2.6h0c1.5,0,2.6,1.2,2.6,2.6v1.9
				C59.7,79.1,58.5,80.3,57.1,80.3z"/>
			<path opacity="0.3" fill="#B9937E" d="M59.7,75.3c0-0.2,0-0.5-0.1-0.7c-0.8-0.1-1.6-0.1-2.5-0.1c-0.9,0-1.8,0-2.5,0.1
				c-0.1,0.2-0.1,0.4-0.1,0.7v1.9c0,0.1,0,0.1,0,0.2c0.8,0.1,1.7,0.1,2.6,0.1c0.9,0,1.8,0,2.6-0.1c0-0.1,0-0.1,0-0.2V75.3z"/>
			<ellipse fill="#646363" cx="57.1" cy="75.5" rx="4.9" ry="1.1"/>
			<path fill="#878787" d="M60,75.5c0-1.1-0.6-2-1.6-2.8c-0.4-0.4-0.9,0.3-1.3,0.3c-0.5,0-0.9-0.6-1.3-0.3c-1,0.8-1.6,1.7-1.6,2.9h0
				C56.1,75.8,58.1,75.8,60,75.5L60,75.5z"/>
		</g>
	</g>
	<g>
		<g id="New_Symbol_156_1_">
			<g>
				<path fill="#172F4C" d="M217.3,92.4v-4.8c0-1.7-1.4-3.1-3.1-3.1h-4c-2.6,0-4.8,2.1-4.8,4.8c0,3.2,0,6.8,0,6.8h9.5v-3.6H217.3z"
					/>
			</g>
			<g id="New_Symbol_23_1_">
				<g id="New_Symbol_25_1_">
					<g>
						<path fill="#FF4687" d="M213.4,90.9l-2.2,0.4c-0.2,0-0.3-0.1-0.3-0.3v-3.5c0-0.2,0.2-0.4,0.3-0.4l2.2-0.4
							c0.2,0,0.3,0.1,0.3,0.3v3.5C213.7,90.7,213.6,90.8,213.4,90.9z"/>
					</g>
				</g>
			</g>
			<g id="New_Symbol_62_1_">
				<path opacity="0.15" fill="#1D3A57" d="M218,110.8c3.8-2.2,3.8-5.7,0-7.9c-3.8-2.2-10-2.2-13.7,0c-3.8,2.2-3.8,5.7,0,7.9
					C208,112.9,214.2,113,218,110.8z"/>
				<rect x="207.3" y="95.6" fill="#346884" width="3.3" height="11.1"/>
				<rect x="211.6" y="95.6" fill="#346884" width="3.3" height="9.6"/>
				<rect x="207.3" y="95.6" fill="#346884" width="7.7" height="2.3"/>
				<path fill="#172F4C" d="M207.4,106.9l2.4,1.6c0.6,0.4,1.6,0.4,2.1,0.1h0c0.5-0.3,0.5-0.9-0.2-1.2l-1.1-0.6"/>
				<path fill="#172F4C" d="M211.7,105.3l2.4,1.6c0.6,0.4,1.6,0.4,2.1,0.1v0c0.5-0.3,0.5-0.9-0.2-1.2l-1.1-0.6"/>
				<path fill="#7C6253" d="M211.7,85.6L211.7,85.6c-1.5,0-2.6-1.2-2.6-2.6v-1.9c0-1.5,1.2-2.6,2.6-2.6h0c1.5,0,2.6,1.2,2.6,2.6V83
					C214.3,84.4,213.1,85.6,211.7,85.6z"/>
				<path fill="#346884" d="M210.1,107c-0.6,0.2-1.7,0.2-2.3,0s-0.6-0.5,0-0.7c0.6-0.2,1.7-0.2,2.3,0
					C210.7,106.6,210.7,106.9,210.1,107z"/>
				<path fill="#346884" d="M214.4,105.5c-0.6,0.2-1.7,0.2-2.3,0c-0.6-0.2-0.6-0.5,0-0.7c0.6-0.2,1.7-0.2,2.3,0
					C215.1,105,215.1,105.3,214.4,105.5z"/>
				<path fill="#346884" d="M213.8,97.7c-1.5,0.4-4,0.4-5.6,0c-1.5-0.4-1.5-1.2,0-1.6c1.5-0.4,4-0.4,5.6,0
					C215.3,96.5,215.3,97.2,213.8,97.7z"/>
				<path fill="#172F4C" d="M213.8,96.4c-1.5,0.4-4,0.4-5.5,0s-1.5-1.1,0-1.6c1.5-0.4,4-0.4,5.5,0C215.3,95.3,215.3,96,213.8,96.4z"
					/>
				<path fill="#7C6253" d="M207.8,98.5L207.8,98.5c-1.3,0-2.4-1.1-2.4-2.4v-5.3h2.4V98.5z"/>
				<path fill="#172F4C" d="M207.6,91c-0.5,0.1-1.3,0.1-1.8,0c-0.5-0.1-0.5-0.4,0-0.5c0.5-0.1,1.3-0.1,1.8,0
					C208.1,90.7,208.1,90.9,207.6,91z"/>
			</g>
			<g>
				<path fill="#7C6253" d="M216.1,94c-0.2,0-0.4,0-0.6-0.1l-3.5-1.9c-0.6-0.3-0.8-1.1-0.5-1.7l0,0c0.3-0.6,1.1-0.8,1.7-0.5l1.7,0.9
					v-1.4h2.5v3.5c0,0.4-0.2,0.8-0.6,1.1C216.5,93.9,216.3,94,216.1,94z"/>
			</g>
			<path fill="#172F4C" d="M217,89.5c-0.5,0.1-1.3,0.1-1.8,0c-0.5-0.1-0.5-0.4,0-0.5s1.3-0.1,1.8,0C217.5,89.1,217.5,89.4,217,89.5z
				"/>
		</g>
		<g>
			<g>
				<g>
					<path fill="#F8C7B5" d="M213.6,84c0-0.5,0.4-1,0.9-1.1l0.5-0.1c0,0,0-2.4,0-2.4c0-0.3,0-0.5-0.1-0.8c-0.4-1.3-1.6-2.1-3.1-1.8
						l0,0c-1.5,0.3-2.7,1.5-3.1,2.9c-0.1,0.3-0.1,0.6-0.1,0.8V84c0,0,0,0,0,0l0.5-0.1c0.5-0.1,0.9,0.2,0.9,0.7v1.6
						c0.5,0.3,1.1,0.4,1.8,0.3l0,0c0.7-0.1,1.3-0.4,1.8-0.9V84z"/>
				</g>
				<path opacity="0.9" fill="#7C6253" d="M212.4,83.3l-0.5-0.8c0,0-0.1,0-0.1,0l-0.5,1c0,0,0,0.1,0.1,0.1l1-0.2
					C212.4,83.4,212.4,83.4,212.4,83.3z"/>
				<g opacity="0.9">
					<path fill="#7C6253" d="M212.7,85.6L212.7,85.6c0.1,0,0.3-0.2,0.3-0.3v-0.9c0-0.1-0.1-0.2-0.3-0.2l0,0c-0.1,0-0.3,0.2-0.3,0.3
						v0.9C212.4,85.5,212.5,85.6,212.7,85.6z"/>
					<path fill="#7C6253" d="M211,85.9L211,85.9c0.1,0,0.3-0.2,0.3-0.3v-0.9c0-0.1-0.1-0.2-0.3-0.2l0,0c-0.1,0-0.3,0.2-0.3,0.3v0.9
						C210.7,85.8,210.8,85.9,211,85.9z"/>
					<path fill="#7C6253" d="M211.8,85.7L211.8,85.7c0.1,0,0.3-0.2,0.3-0.3v-0.9c0-0.1-0.1-0.2-0.3-0.2l0,0c-0.1,0-0.3,0.2-0.3,0.3
						v0.9C211.6,85.7,211.7,85.8,211.8,85.7z"/>
				</g>
			</g>
			<path fill="#FF4687" d="M211.5,78.7L211.5,78.7c-0.1,0.2-0.2,0.3-0.4,0.3l0,0c-0.3,0-0.5,0.4-0.3,0.6l0,0c0.1,0.1,0.1,0.3,0,0.4
				v0c-0.2,0.3,0,0.6,0.3,0.5l0,0c0.2,0,0.3,0,0.4,0.1l0,0c0.1,0.3,0.5,0.2,0.7-0.1l0,0c0.1-0.2,0.2-0.3,0.4-0.3l0,0
				c0.3,0,0.5-0.4,0.3-0.6l0,0c-0.1-0.1-0.1-0.3,0-0.4l0,0c0.2-0.3,0-0.6-0.3-0.5l0,0c-0.2,0-0.3,0-0.4-0.1l0,0
				C212,78.3,211.6,78.4,211.5,78.7z"/>
			<path opacity="0.9" fill="#7C6253" d="M212.7,82c0-0.4,0.4-0.9,0.8-0.9s0.8,0.2,0.8,0.7s-0.4,0.9-0.8,0.9S212.7,82.5,212.7,82z"
				/>
			<path opacity="0.9" fill="#7C6253" d="M209.4,82.6c0-0.4,0.4-0.9,0.8-0.9s0.8,0.2,0.8,0.7c0,0.4-0.4,0.9-0.8,0.9
				C209.7,83.4,209.4,83.1,209.4,82.6z"/>
		</g>
	</g>
	<g>
		<g>
			<path opacity="0.15" fill="#1D3A57" d="M252.9,118.8c-3.8-2.2-3.8-5.7,0-7.9c3.8-2.2,10-2.2,13.7,0s3.8,5.7,0,7.9
				S256.6,121,252.9,118.8z"/>
			<path fill="#2287F0" d="M256.8,92.8h4.2c2,0,3.6,1.6,3.6,3.6v3.9l-4.7,3.9h-3c-1.3,0-2.4-1.1-2.4-2.4v-6.6
				C254.4,93.8,255.5,92.8,256.8,92.8z"/>
			<path fill="#172F4C" d="M259.2,113.5l-2,1.6c-0.5,0.4-1.3,0.4-1.8,0.1l0,0c-0.5-0.3-0.4-0.9,0.1-1.2l1-0.6"/>
			<rect x="260.2" y="106" fill="#B9937F" width="2.8" height="6.7"/>
			<rect x="256.5" y="105.6" fill="#B9937F" width="2.8" height="5.6"/>
			<path fill="#172F4C" d="M256.9,113.6c0.5,0.2,1.4,0.2,2,0c0.5-0.2,0.5-0.5,0-0.7c-0.5-0.2-1.4-0.2-2,0
				C256.3,113.1,256.3,113.4,256.9,113.6z"/>
			<polygon fill="#FF0F5D" points="255.7,106.5 263.7,106.5 262.7,101.8 256.3,102.2 			"/>
			<path fill="#FF0F5D" d="M257.4,106.2c1.3,0.4,3.4,0.4,4.7,0c1.3-0.4,1.3-1.2,0-1.6c-1.3-0.4-3.4-0.4-4.7,0
				S256.1,105.8,257.4,106.2z"/>
			<path fill="#FF0F5D" d="M256.8,107.5c1.6,0.5,4.1,0.5,5.7,0c1.6-0.5,1.6-1.4,0-1.9c-1.6-0.5-4.1-0.5-5.7,0
				C255.3,106.1,255.3,107,256.8,107.5z"/>
			<path fill="#B9937F" d="M256.4,102.2c0,0.3,0.3,0.6,1,0.8c1.3,0.4,3.4,0.4,4.7,0c0.7-0.2,1-0.5,1-0.8v-2.4h-6.7v2.2"/>
			
				<linearGradient id="SVGID_8_" gradientUnits="userSpaceOnUse" x1="-5504.7622" y1="-8818.8213" x2="-5499.1953" y2="-8818.8213" gradientTransform="matrix(-1.2 0 0 1.2 -6342.6782 10684.1729)">
				<stop  offset="0" style="stop-color:#000000;stop-opacity:0.1"/>
				<stop  offset="1" style="stop-color:#B9937F;stop-opacity:0.2"/>
			</linearGradient>
			<path fill="url(#SVGID_8_)" d="M256.4,102.2c0,0.3,0.3,0.6,1,0.8c1.3,0.4,3.4,0.4,4.7,0c0.7-0.2,1-0.5,1-0.8v-2.4h-6.7v2.2"/>
			<path fill="#2287F0" d="M257.3,100.6c1.3,0.4,3.4,0.4,4.7,0c1.3-0.4,1.3-1.2,0-1.6c-1.3-0.4-3.4-0.4-4.7,0
				C256,99.5,256,100.2,257.3,100.6z"/>
			<path fill="#B9937F" d="M256.4,105.1L256.4,105.1v-7.7h-2v5.7C254.4,104.1,255.3,105.1,256.4,105.1z"/>
			<path fill="#2287F0" d="M254.7,97.6c0.4,0.1,1.1,0.1,1.5,0c0.4-0.1,0.4-0.4,0-0.5c-0.4-0.1-1.1-0.1-1.5,0
				C254.3,97.2,254.3,97.4,254.7,97.6z"/>
			<polyline fill="#172F4C" points="256.5,113.5 256.5,111.2 259.3,111.2 259.3,113.3 			"/>
			<path fill="#172F4C" d="M262.9,114.9l-2,1.6c-0.5,0.4-1.3,0.4-1.8,0.1l0,0c-0.5-0.3-0.4-0.9,0.1-1.2l1-0.6"/>
			<path fill="#172F4C" d="M260.6,115.1c0.5,0.2,1.4,0.2,2,0c0.5-0.2,0.5-0.5,0-0.7s-1.4-0.2-2,0
				C260.1,114.6,260.1,114.9,260.6,115.1z"/>
			<polyline fill="#172F4C" points="260.2,114.9 260.2,112.6 263,112.6 263,114.8 			"/>
			<path fill="#B9937F" d="M256.9,111.5c0.5,0.2,1.4,0.2,2,0c0.5-0.2,0.5-0.5,0-0.7c-0.5-0.2-1.4-0.2-2,0
				C256.3,111.1,256.3,111.4,256.9,111.5z"/>
			<path fill="#B9937F" d="M260.6,113c0.5,0.2,1.4,0.2,2,0c0.5-0.2,0.5-0.5,0-0.7c-0.5-0.2-1.4-0.2-2,0
				C260,112.5,260,112.8,260.6,113z"/>
			<path fill="#2287F0" d="M258,98.2c0-0.7-0.5-1.4-1.1-1.6c-0.6-0.1-1.1,0.4-1.1,1.1s0.5,1.4,1.1,1.6C257.5,99.4,258,98.9,258,98.2
				z"/>
		</g>
		<path fill="#B9937F" d="M257.2,92.7l1.2,4.2c0.1,0.3,0.4,0.3,0.5,0.1l2.2-4.3"/>
		
			<linearGradient id="SVGID_9_" gradientUnits="userSpaceOnUse" x1="-763.9836" y1="-16729.5039" x2="-763.9836" y2="-16732.6113" gradientTransform="matrix(1.44 0 0 1.44 1359.3197 24187.6152)">
			<stop  offset="0" style="stop-color:#B9937F;stop-opacity:0.2"/>
			<stop  offset="1" style="stop-color:#000000;stop-opacity:0.2"/>
		</linearGradient>
		<path fill="url(#SVGID_9_)" d="M257.2,92.7l1.2,4.2c0.1,0.3,0.4,0.3,0.5,0.1l2.2-4.3"/>
		<g>
			<circle fill="#F2D78F" cx="262.4" cy="91.6" r="0.7"/>
			<circle fill="#F2D78F" cx="256.2" cy="91.1" r="0.7"/>
			<g>
				<g>
					<path fill="#F2D78F" d="M262.5,89.5c0-1.7-1.4-3.2-3.2-3.2h0c-1.7,0-3.2,1.4-3.2,3.2v2.3l6.3,0.5V89.5z"/>
				</g>
			</g>
		</g>
		<path fill="#B9937F" d="M259.2,93.7L259.2,93.7c1.5,0,2.6-1.2,2.6-2.6v-1.9c0-1.5-1.2-2.6-2.6-2.6h0c-1.5,0-2.6,1.2-2.6,2.6v1.9
			C256.5,92.5,257.7,93.7,259.2,93.7z"/>
		<path fill="#F2D78F" d="M262.1,89.3c0-1.6-1.3-2.9-2.9-2.9l0,0c-1.6,0-2.9,1.3-2.9,2.9"/>
		<path fill="#F2D78F" d="M257.1,89.9c1.1,0.3,3,0.3,4.1,0s1.1-0.9,0-1.2c-1.1-0.3-3-0.3-4.1,0S256,89.5,257.1,89.9z"/>
		<path fill="none" stroke="#346884" stroke-width="0.5" stroke-linecap="round" stroke-miterlimit="10" d="M260,92.7v8.8
			c0,0.5-0.4,0.9-0.9,0.9l0,0c-0.5,0-0.9-0.4-0.9-0.9v-0.9"/>
		<g>
			<path fill="none" d="M251.7,92.6C251.7,92.6,251.7,92.6,251.7,92.6C251.7,92.6,251.7,92.6,251.7,92.6z"/>
			<path fill="none" d="M268.1,91.6c0,0.1,0,0.2,0.1,0.3C268.2,91.8,268.1,91.7,268.1,91.6z"/>
			<path fill="#E61400" d="M251.7,93.7c0-0.1,0-0.3,0-0.4c0,0,0,0,0,0C251.7,93.4,251.7,93.5,251.7,93.7
				C251.7,93.6,251.7,93.6,251.7,93.7z"/>
			<linearGradient id="SVGID_10_" gradientUnits="userSpaceOnUse" x1="268.2027" y1="104.9164" x2="268.2027" y2="84.916">
				<stop  offset="2.470000e-02" style="stop-color:#141428;stop-opacity:0.8"/>
				<stop  offset="0.9987" style="stop-color:#141428;stop-opacity:5.000000e-02"/>
			</linearGradient>
			<path opacity="0.5" fill="url(#SVGID_10_)" d="M268.3,93.3c0-0.5,0-0.9-0.1-1.4c0,0,0,0,0,0c0-0.1,0-0.2-0.1-0.3c0,0,0,0,0,0
				C268.2,92.2,268.3,92.7,268.3,93.3C268.3,93.3,268.3,93.3,268.3,93.3z"/>
			<path fill="#FF4687" d="M254,95.8C254,95.8,254,95.8,254,95.8c0-0.1,0-0.2,0-0.3C254,95.6,254,95.7,254,95.8z"/>
			<linearGradient id="SVGID_11_" gradientUnits="userSpaceOnUse" x1="254.0252" y1="104.9164" x2="254.0252" y2="84.916">
				<stop  offset="2.470000e-02" style="stop-color:#141428;stop-opacity:0.8"/>
				<stop  offset="0.9987" style="stop-color:#141428;stop-opacity:5.000000e-02"/>
			</linearGradient>
			<path opacity="0.5" fill="url(#SVGID_11_)" d="M254,95.8C254,95.8,254,95.8,254,95.8c0-0.1,0-0.2,0-0.3
				C254,95.6,254,95.7,254,95.8z"/>
			<path fill="#FF0F5D" d="M263,85.7c-0.4,0-0.9,0-1.4,0.1c-0.4,0.1-0.7,0.2-1.1,0.4c0,0,0,0,0,0c-0.2,0.1-0.4,0.2-0.5,0.3
				c0,0,0.1,0,0.2,0c0.1,0,0.3,0,0.6,0.1c0.1,0,0.1,0,0.2,0c0.2,0,0.4,0.1,0.6,0.1c0.2,0,0.3,0.1,0.5,0.1c0.7,0.2,1.6,0.5,2.4,1
				c0.4,0.2,0.9,0.5,1.4,0.8c0.5,0.3,0.9,0.7,1.4,1.1c0.2,0.2,0.4,0.4,0.6,0.6C266.9,88.3,265.2,86.5,263,85.7z"/>
			<path fill="#FF0F5D" d="M258.8,86.5c-0.6,0-1.1,0.1-1.6,0.3c-0.6,0.2-1.3,0.5-1.8,0.7c-1.2,0.6-2.1,1.3-2.5,1.7
				c-0.6,1-1,2.1-1.1,3.3c0,0,0,0,0,0.1c0,0.2,0,0.4,0,0.6c0,0.1,0,0.3,0,0.4c0.6,0.8,1.4,1.5,2.3,2.1c0-0.1,0-0.2,0-0.3
				c0-0.1,0-0.2,0-0.3c0-0.2,0.1-0.4,0.1-0.6c0-0.1,0-0.2,0.1-0.3c0.1-0.3,0.2-0.6,0.2-0.9c0,0,0-0.1,0-0.1c0.1-0.3,0.2-0.6,0.3-0.8
				c0-0.1,0.1-0.2,0.1-0.3c0.1-0.2,0.2-0.4,0.3-0.7c0.1-0.1,0.1-0.3,0.2-0.4c0.1-0.2,0.2-0.4,0.4-0.6c0.1-0.1,0.2-0.3,0.3-0.4
				c0.1-0.2,0.3-0.4,0.4-0.6c0.1-0.1,0.2-0.3,0.3-0.4c0.2-0.2,0.3-0.4,0.5-0.6c0.1-0.1,0.2-0.2,0.4-0.4c0.2-0.2,0.4-0.4,0.7-0.6
				c0.1-0.1,0.2-0.2,0.3-0.3c0.2-0.2,0.5-0.3,0.7-0.5c0.2-0.1,0.3-0.2,0.5-0.3C259.5,86.4,259.2,86.5,258.8,86.5z"/>
			<path fill="#F39200" d="M268.1,91.6c-0.1-0.4-0.2-0.8-0.3-1.1c-0.2-0.2-0.4-0.4-0.6-0.6c-0.4-0.4-0.9-0.8-1.4-1.1
				c-0.5-0.3-0.9-0.6-1.4-0.8c-0.9-0.5-1.7-0.8-2.4-1c-0.2-0.1-0.3-0.1-0.5-0.1c-0.2-0.1-0.4-0.1-0.6-0.1c-0.1,0-0.2,0-0.2,0
				c-0.2,0-0.4-0.1-0.6-0.1c-0.1,0-0.2,0-0.2,0s0.2,0.1,0.4,0.4c1.3,1.1,4.8,4.4,5.1,9.1c1.1-0.7,2-1.6,2.8-2.6
				C268.3,92.7,268.2,92.2,268.1,91.6z"/>
			<path fill="#F39200" d="M260,85.1c-0.1,0-0.2,0-0.3,0l0.1,0.9l0.1,0.4c0.2-0.1,0.4-0.2,0.5-0.3c0,0,0,0,0,0
				c0.4-0.2,0.7-0.3,1.1-0.4c0.6-0.1,1.1-0.1,1.4-0.1C262.1,85.3,261.1,85.1,260,85.1z"/>
			<path fill="#F39200" d="M259.1,86.2c-0.5-0.2-1.2-0.4-1.9-0.6c-1.9,0.7-3.4,2-4.4,3.6c0.4-0.4,1.3-1.1,2.5-1.7
				c0.5-0.3,1.1-0.5,1.8-0.7c0.5-0.2,1.1-0.3,1.6-0.3c0.4,0,0.8,0,1.1,0C259.9,86.5,259.6,86.3,259.1,86.2z"/>
			<path fill="#FF0F5D" d="M259.9,86.1l-0.1-0.9c-0.9,0-1.7,0.2-2.5,0.5c0.7,0.1,1.4,0.4,1.9,0.6c0.5,0.2,0.8,0.3,0.8,0.3
				L259.9,86.1z"/>
			<path fill="#F39200" d="M259.4,86.8c-0.2,0.2-0.5,0.3-0.7,0.5c-0.1,0.1-0.2,0.2-0.3,0.3c-0.2,0.2-0.5,0.4-0.7,0.6
				c-0.1,0.1-0.2,0.2-0.4,0.4c-0.2,0.2-0.4,0.4-0.5,0.6c-0.1,0.1-0.2,0.3-0.3,0.4c-0.1,0.2-0.3,0.4-0.4,0.6
				c-0.1,0.1-0.2,0.3-0.3,0.4c-0.1,0.2-0.2,0.4-0.4,0.6c-0.1,0.1-0.1,0.3-0.2,0.4c-0.1,0.2-0.2,0.4-0.3,0.7c0,0.1-0.1,0.2-0.1,0.3
				c-0.1,0.3-0.2,0.6-0.3,0.8c0,0,0,0.1,0,0.1c-0.1,0.3-0.2,0.6-0.2,0.9c0,0.1,0,0.2-0.1,0.3c0,0.2-0.1,0.4-0.1,0.6
				c0,0.1,0,0.2,0,0.3c0,0.1,0,0.2,0,0.3c1.7,1.2,3.7,1.8,5.9,1.8c0,0,0,0,0,0V86.9v-0.2v0c0-0.1,0-0.1,0-0.1
				C259.7,86.6,259.6,86.7,259.4,86.8z"/>
			<path fill="#FF0F5D" d="M260.4,86.8c-0.3-0.2-0.4-0.4-0.4-0.4l0,0.2v0.2v10.7c2.1,0,4-0.6,5.6-1.6
				C265.2,91.3,261.6,87.9,260.4,86.8z"/>
			<path fill="#FF4687" d="M259.9,86.6L259.9,86.6l0-0.1C259.9,86.5,259.9,86.5,259.9,86.6z"/>
		</g>
		
			<line fill="none" stroke="#346884" stroke-width="0.5" stroke-linecap="round" stroke-miterlimit="10" x1="259.9" y1="86.5" x2="259.9" y2="84.3"/>
		<g>
			<path fill="#B9937E" d="M263.5,102.7c-0.2,0-0.3,0-0.5-0.1l-2.9-1.6c-0.5-0.3-0.7-0.9-0.4-1.4l0,0c0.3-0.5,0.9-0.7,1.4-0.4
				l1.4,0.8v-1.1h2v2.8c0,0.4-0.2,0.7-0.5,0.9C263.9,102.7,263.7,102.7,263.5,102.7z"/>
		</g>
		<path fill="#2287F0" d="M262.7,99.1c0.4,0.1,1.1,0.1,1.5,0c0.4-0.1,0.4-0.4,0-0.5c-0.4-0.1-1.1-0.1-1.5,0
			C262.3,98.7,262.3,99,262.7,99.1z"/>
	</g>
</g>
</svg>
