<?xml version="1.0" encoding="utf-8"?>
<!-- Generator: Adobe Illustrator 21.0.2, SVG Export Plug-In . SVG Version: 6.00 Build 0)  -->
<svg version="1.1" id="Layer_1" xmlns="http://www.w3.org/2000/svg" xmlns:xlink="http://www.w3.org/1999/xlink" x="0px" y="0px"
	 viewBox="0 0 512.7 268" style="enable-background:new 0 0 512.7 268;" xml:space="preserve">
<style type="text/css">
	.st0{opacity:0.3;fill:url(#SVGID_1_);enable-background:new    ;}
	.st1{opacity:0.3;fill:url(#SVGID_2_);enable-background:new    ;}
	.st2{opacity:0.2;fill:url(#SVGID_3_);enable-background:new    ;}
	.st3{opacity:0.8;}
	.st4{fill:url(#SVGID_4_);}
	.st5{fill:url(#SVGID_5_);}
	.st6{fill:none;stroke:#FFFFFF;stroke-width:3.7789;stroke-linejoin:round;}
	.st7{fill:none;}
	.st8{fill:none;stroke:#FFFFFF;stroke-width:3.7789;stroke-linecap:round;stroke-linejoin:round;}
	.st9{clip-path:url(#SVGID_7_);}
</style>
<title>Asset 1</title>
<g>
	<g id="Layer_2">
		<g id="car">
			<g>
				
					<radialGradient id="SVGID_1_" cx="-1279.4408" cy="484.7089" r="39.9993" fx="-1279.4408" fy="470.0453" gradientTransform="matrix(4.22 0 0 -9.000000e-02 5639.6899 307.45)" gradientUnits="userSpaceOnUse">
					<stop  offset="0" style="stop-color:#000000;stop-opacity:0.5"/>
					<stop  offset="1" style="stop-color:#41B9E6;stop-opacity:0"/>
				</radialGradient>
				<ellipse class="st0" cx="240.4" cy="260.3" rx="168.9" ry="3.7"/>
				
					<radialGradient id="SVGID_2_" cx="-3959.6238" cy="484.7089" r="40.01" fx="-3959.6238" fy="470.0414" gradientTransform="matrix(1.45 0 0 -9.000000e-02 6138.3198 307.45)" gradientUnits="userSpaceOnUse">
					<stop  offset="0" style="stop-color:#000000;stop-opacity:0.5"/>
					<stop  offset="1" style="stop-color:#41B9E6;stop-opacity:0"/>
				</radialGradient>
				<ellipse class="st1" cx="381.1" cy="260.3" rx="58.2" ry="3.7"/>
				
					<radialGradient id="SVGID_3_" cx="-5433.9478" cy="484.7089" r="40.01" fx="-5433.9478" fy="470.0414" gradientTransform="matrix(1.05 0 0 -9.000000e-02 5795.4502 307.45)" gradientUnits="userSpaceOnUse">
					<stop  offset="0" style="stop-color:#000000;stop-opacity:0.5"/>
					<stop  offset="1" style="stop-color:#41B9E6;stop-opacity:0"/>
				</radialGradient>
				<ellipse class="st2" cx="113.4" cy="260.3" rx="41.8" ry="3.7"/>
				<g class="st3">
					
						<radialGradient id="SVGID_4_" cx="-5588.1299" cy="443.8973" r="40.0101" fx="-5588.1299" fy="429.2387" gradientTransform="matrix(1 0 0 -0.22 5730.1201 357.12)" gradientUnits="userSpaceOnUse">
						<stop  offset="0" style="stop-color:#000000;stop-opacity:0.5"/>
						<stop  offset="1" style="stop-color:#41B9E6;stop-opacity:0"/>
					</radialGradient>
					<ellipse class="st4" cx="142" cy="261.1" rx="40" ry="8.6"/>
					
						<radialGradient id="SVGID_5_" cx="-5379.1899" cy="443.8973" r="40.0101" fx="-5379.1899" fy="429.2388" gradientTransform="matrix(1 0 0 -0.22 5730.1201 357.12)" gradientUnits="userSpaceOnUse">
						<stop  offset="0" style="stop-color:#000000;stop-opacity:0.5"/>
						<stop  offset="1" style="stop-color:#41B9E6;stop-opacity:0"/>
					</radialGradient>
					<ellipse class="st5" cx="350.9" cy="261.1" rx="40" ry="8.6"/>
				</g>
				<circle class="st6" cx="142" cy="233.3" r="22.8"/>
				<circle class="st6" cx="350.1" cy="234.4" r="21.7"/>
				<path class="st6" d="M96.6,235.6h-9.8v-8.2h14v-8.4l-6-9.9v-9.9l9-2.1h20.6v13.5c-9.2,7.1-13.3,19.1-10.2,30.4l-13.4-5.4v-3.9"
					/>
				<path class="st6" d="M406,231.7v-3.8c6.3,0,18.9-3.3,16.8-4.2c-13.1-5.2-33-7.9-53.7-9.1l0,0c9.3,9,11.1,23.2,4.3,34.1h35.9
					l-0.1-0.5c-2-11.3-8.7-21.3-18.4-27.4"/>
				<path class="st6" d="M277.4,225c0,1.7-1.3,3-3,3c-1.6,0-19.3-1.3-19.3-3s17.7-3,19.3-3C276,222,277.4,223.3,277.4,225L277.4,225
					z"/>
				<path class="st6" d="M183.6,218.9c12-3.2,41.2-8.4,50.4-8.4h21.6c8.1,0,9.9,4.8,20.4,4.8h10.5l0.8-0.1c0.9-0.1,1.5-0.8,1.5-1.6
					v-5h-4.3"/>
				<path class="st6" d="M170.8,233.3c0,6.4-2.1,12.6-6,17.6l9.5,3.2h152.6l-12.7-4.2c0,0,1.5-6.2,9.1-10.3l0,0
					c-1.9-9.6,1.5-19.4,8.8-25.8l0,0c-15.7,0.1-29.3,0.6-37.5,1.1"/>
				<path class="st6" d="M231.3,207.5v-6l2.7-13.8h-11.7c0,0-10.2,7.2-18.6,13.8c-11.4,2.4-22.5,6.3-32.9,11.4h-8.5
					c3.4,3.4,5.9,7.7,7.3,12.3c0.2,0.7,0.4,1.4,0.5,2.1c6.5-1.4,13-2.1,19.6-2.1h45.5c2.8,0,5.1,2.3,5.1,5.1v0v10.5
					c0,2.8-2.3,5.1-5.1,5.1h0h-38.6c-4.7,0-9.4-0.4-14-1.2l-6.3-1.1"/>
			</g>
		</g>
		<g id="wheel_rear">
			<g>
				<circle class="st7" cx="142" cy="233.3" r="19.4"/>
				<path class="st8" d="M142,219.2c7.8,0,14.1,6.3,14.1,14.1c0,0,0,0,0,0"/>
				<path class="st8" d="M142,247.4c-7.8,0-14.1-6.3-14.1-14.1c0,0,0,0,0,0"/>
			</g>
		</g>
		<g id="wheel_front">
			<g>
				<circle class="st7" cx="350.1" cy="234.4" r="19.4"/>
				<path class="st8" d="M364.2,234.4c0,7.8-6.3,14.1-14.1,14.1l0,0"/>
				<path class="st8" d="M336,234.4c0-7.8,6.3-14.1,14.1-14.1l0,0"/>
			</g>
		</g>
		<g id="Layer_4">
			<g>
				<defs>
					<rect id="SVGID_6_" x="-3.3" y="-2.8" width="519.3" height="263"/>
				</defs>
				<clipPath id="SVGID_7_">
					<use xlink:href="#SVGID_6_"  style="overflow:visible;"/>
				</clipPath>
				<g class="st9">
					<g id="sky">
						<circle class="st7" cx="256.4" cy="256.4" r="256.4"/>
						<circle id="sun" class="st6" cx="51.7" cy="267.7" r="24.7"/>
						<g id="sun_rays">
							<circle class="st7" cx="51.7" cy="267.7" r="51.4"/>
							<g>
								<line class="st8" x1="97.1" y1="267.7" x2="82.6" y2="267.7"/>
							</g>
							<g>
								<line class="st8" x1="6.3" y1="267.7" x2="20.8" y2="267.7"/>
							</g>
							<g>
								<line class="st8" x1="51.7" y1="313.1" x2="51.7" y2="298.6"/>
							</g>
							<g>
								<line class="st8" x1="51.7" y1="221.5" x2="51.7" y2="236.8"/>
							</g>
							<g>
								<line class="st8" x1="19.5" y1="235.5" x2="29.9" y2="245.9"/>
							</g>
							<g>
								<line class="st8" x1="83.8" y1="299.8" x2="73.6" y2="289.6"/>
							</g>
							<g>
								<line class="st8" x1="19.6" y1="299.8" x2="29.9" y2="289.5"/>
							</g>
							<g>
								<line class="st8" x1="83.6" y1="235.8" x2="73.5" y2="245.9"/>
							</g>
						</g>
						<path id="moon" class="st6" d="M482,264c-7.5-7.5-7.6-19.6-0.1-27.1c0.5-0.5,1.1-1.1,1.7-1.5c-13.4-2.4-26.2,6.6-28.6,20
							c-2.4,13.4,6.6,26.2,20,28.6c11.7,2.1,23.2-4.5,27.4-15.6C495.4,271,487.4,269.3,482,264z"/>
					</g>
				</g>
			</g>
			<line class="st6" x1="5.7" y1="261" x2="511.9" y2="261"/>
		</g>
	</g>
</g>
</svg>
