<?xml version="1.0" encoding="utf-8"?>
<!-- Generator: Adobe Illustrator 22.0.1, SVG Export Plug-In . SVG Version: 6.00 Build 0)  -->
<svg version="1.1" id="Layer_1" xmlns="http://www.w3.org/2000/svg" xmlns:xlink="http://www.w3.org/1999/xlink" x="0px" y="0px"
	 viewBox="0 0 797 395" style="enable-background:new 0 0 797 395;" xml:space="preserve">
<style type="text/css">
	.st0{display:none;}
	.st1{display:inline;fill:url(#SVGID_1_);}
	.st2{opacity:0.5;fill:none;stroke:url(#SVGID_2_);stroke-width:17;stroke-miterlimit:10;}
	.st3{opacity:0.5;fill:none;stroke:url(#SVGID_3_);stroke-width:17;stroke-miterlimit:10;}
	.st4{opacity:0.5;fill:none;stroke:url(#SVGID_4_);stroke-width:17;stroke-miterlimit:10;}
	.st5{opacity:0.5;fill:none;stroke:url(#SVGID_5_);stroke-width:17;stroke-miterlimit:10;}
	.st6{opacity:0.5;fill:none;stroke:url(#SVGID_6_);stroke-width:17;stroke-miterlimit:10;}
	.st7{opacity:0.5;fill:none;stroke:url(#SVGID_7_);stroke-width:17;stroke-miterlimit:10;}
	.st8{opacity:0.5;fill:none;stroke:url(#SVGID_8_);stroke-width:17;stroke-miterlimit:10;}
	.st9{opacity:0.5;fill:none;stroke:url(#SVGID_9_);stroke-width:17;stroke-miterlimit:10;}
	.st10{opacity:0.5;fill:none;stroke:url(#SVGID_10_);stroke-width:17;stroke-miterlimit:10;}
	.st11{opacity:0.5;fill:none;stroke:url(#SVGID_11_);stroke-width:17;stroke-miterlimit:10;}
	.st12{opacity:0.5;fill:none;stroke:url(#SVGID_12_);stroke-width:17;stroke-miterlimit:10;}
	.st13{opacity:0.5;fill:none;stroke:url(#SVGID_13_);stroke-width:17;stroke-miterlimit:10;}
	.st14{opacity:0.5;fill:none;stroke:url(#SVGID_14_);stroke-width:17;stroke-miterlimit:10;}
	.st15{opacity:0.5;fill:none;stroke:url(#SVGID_15_);stroke-width:17;stroke-miterlimit:10;}
	.st16{opacity:0.5;fill:none;stroke:url(#SVGID_16_);stroke-width:17;stroke-miterlimit:10;}
	.st17{opacity:0.5;fill:none;stroke:url(#SVGID_17_);stroke-width:17;stroke-miterlimit:10;}
	.st18{opacity:0.5;fill:none;stroke:url(#SVGID_18_);stroke-width:17;stroke-miterlimit:10;}
	.st19{opacity:0.5;fill:none;stroke:url(#SVGID_19_);stroke-width:17;stroke-miterlimit:10;}
	.st20{opacity:0.5;fill:none;stroke:url(#SVGID_20_);stroke-width:17;stroke-miterlimit:10;}
	.st21{opacity:0.5;fill:none;stroke:url(#SVGID_21_);stroke-width:17;stroke-miterlimit:10;}
	.st22{fill:#FFFFFF;}
</style>
<g id="Layer_6" class="st0">
	
		<linearGradient id="SVGID_1_" gradientUnits="userSpaceOnUse" x1="0" y1="535" x2="797.6" y2="535" gradientTransform="matrix(1 0 0 1 0 -337)">
		<stop  offset="0" style="stop-color:#41B9E6"/>
		<stop  offset="0.1805" style="stop-color:#3AAEE8"/>
		<stop  offset="0.5021" style="stop-color:#288FEE"/>
		<stop  offset="0.9246" style="stop-color:#0A5EF8"/>
		<stop  offset="0.9965" style="stop-color:#0555FA"/>
	</linearGradient>
	<rect y="0.5" class="st1" width="797.6" height="395"/>
</g>
<g id="lines">
	
		<linearGradient id="SVGID_2_" gradientUnits="userSpaceOnUse" x1="233.3624" y1="-265.4884" x2="462.7222" y2="-265.4884" gradientTransform="matrix(1 0 0 -1 0 91.1375)">
		<stop  offset="0" style="stop-color:#FFFFFF"/>
		<stop  offset="1" style="stop-color:#41B9E6;stop-opacity:0"/>
	</linearGradient>
	<path class="st2" d="M233.4,357c44.1,0,201.1-0.8,229.4-0.8"/>
	
		<linearGradient id="SVGID_3_" gradientUnits="userSpaceOnUse" x1="233.3624" y1="-183.791" x2="462.7222" y2="-183.791" gradientTransform="matrix(1 0 0 -1 0 91.1375)">
		<stop  offset="0" style="stop-color:#FFFFFF"/>
		<stop  offset="1" style="stop-color:#41B9E6;stop-opacity:0"/>
	</linearGradient>
	<path class="st3" d="M233.4,326.7c67.4,0,194.1-103.5,229.4-103.5"/>
	
		<linearGradient id="SVGID_4_" gradientUnits="userSpaceOnUse" x1="233.3624" y1="-159.6865" x2="462.7222" y2="-159.6865" gradientTransform="matrix(1 0 0 -1 0 91.1375)">
		<stop  offset="0" style="stop-color:#FFFFFF"/>
		<stop  offset="1" style="stop-color:#41B9E6;stop-opacity:0"/>
	</linearGradient>
	<path class="st4" d="M233.4,296c51.4,0,188.9-90.3,229.4-90.3"/>
	
		<linearGradient id="SVGID_5_" gradientUnits="userSpaceOnUse" x1="233.3624" y1="-135.9543" x2="462.7222" y2="-135.9543" gradientTransform="matrix(1 0 0 -1 0 91.1375)">
		<stop  offset="0" style="stop-color:#FFFFFF"/>
		<stop  offset="1" style="stop-color:#41B9E6;stop-opacity:0"/>
	</linearGradient>
	<path class="st5" d="M233.4,266c40.4,0,188.9-77.7,229.4-77.7"/>
	
		<linearGradient id="SVGID_6_" gradientUnits="userSpaceOnUse" x1="233.3624" y1="-112.0413" x2="462.7222" y2="-112.0413" gradientTransform="matrix(1 0 0 -1 0 91.1375)">
		<stop  offset="0" style="stop-color:#FFFFFF"/>
		<stop  offset="1" style="stop-color:#41B9E6;stop-opacity:0"/>
	</linearGradient>
	<path class="st6" d="M233.4,235.6c44.4,0,179.6-64.9,229.4-64.9"/>
	
		<linearGradient id="SVGID_7_" gradientUnits="userSpaceOnUse" x1="233.3624" y1="-88.1282" x2="462.7222" y2="-88.1282" gradientTransform="matrix(1 0 0 -1 0 91.1375)">
		<stop  offset="0" style="stop-color:#FFFFFF"/>
		<stop  offset="1" style="stop-color:#41B9E6;stop-opacity:0"/>
	</linearGradient>
	<path class="st7" d="M233.4,205.3c42.4,0,182.1-52,229.4-52"/>
	
		<linearGradient id="SVGID_8_" gradientUnits="userSpaceOnUse" x1="233.3624" y1="-64.2152" x2="462.7222" y2="-64.2152" gradientTransform="matrix(1 0 0 -1 0 91.1375)">
		<stop  offset="0" style="stop-color:#FFFFFF"/>
		<stop  offset="1" style="stop-color:#41B9E6;stop-opacity:0"/>
	</linearGradient>
	<path class="st8" d="M233.4,174.9c25.4,0,188.9-39.1,229.4-39.1"/>
	
		<linearGradient id="SVGID_9_" gradientUnits="userSpaceOnUse" x1="233.3624" y1="-40.3022" x2="462.7222" y2="-40.3022" gradientTransform="matrix(1 0 0 -1 0 91.1375)">
		<stop  offset="0" style="stop-color:#FFFFFF"/>
		<stop  offset="1" style="stop-color:#41B9E6;stop-opacity:0"/>
	</linearGradient>
	<path class="st9" d="M233.4,144.5c25.4,0,188.9-26.2,229.4-26.2"/>
	
		<linearGradient id="SVGID_10_" gradientUnits="userSpaceOnUse" x1="233.3624" y1="-16.3891" x2="462.7222" y2="-16.3891" gradientTransform="matrix(1 0 0 -1 0 91.1375)">
		<stop  offset="0" style="stop-color:#FFFFFF"/>
		<stop  offset="1" style="stop-color:#41B9E6;stop-opacity:0"/>
	</linearGradient>
	<path class="st10" d="M233.4,114.2c25.4,0,188.9-13.3,229.4-13.3"/>
	
		<linearGradient id="SVGID_11_" gradientUnits="userSpaceOnUse" x1="233.3624" y1="7.5239" x2="462.7222" y2="7.5239" gradientTransform="matrix(1 0 0 -1 0 91.1375)">
		<stop  offset="0" style="stop-color:#FFFFFF"/>
		<stop  offset="1" style="stop-color:#41B9E6;stop-opacity:0"/>
	</linearGradient>
	<path class="st11" d="M233.4,83.8c25.4,0,188.9-0.4,229.4-0.4"/>
	
		<linearGradient id="SVGID_12_" gradientUnits="userSpaceOnUse" x1="-391.059" y1="-265.9945" x2="-162.6776" y2="-265.9945" gradientTransform="matrix(-1 0 0 -1 312.6849 91.1375)">
		<stop  offset="0" style="stop-color:#FFFFFF"/>
		<stop  offset="1" style="stop-color:#41B9E6;stop-opacity:0"/>
	</linearGradient>
	<path class="st12" d="M703.7,358c-44.1,0-200.1-1.8-228.4-1.8"/>
	
		<linearGradient id="SVGID_13_" gradientUnits="userSpaceOnUse" x1="-391.059" y1="-190.7278" x2="-164.6776" y2="-190.7278" gradientTransform="matrix(-1 0 0 -1 312.6849 91.1375)">
		<stop  offset="0" style="stop-color:#FFFFFF"/>
		<stop  offset="1" style="stop-color:#41B9E6;stop-opacity:0"/>
	</linearGradient>
	<path class="st13" d="M703.7,340.6c-85.2,0-201.4-117.4-226.4-117.4"/>
	
		<linearGradient id="SVGID_14_" gradientUnits="userSpaceOnUse" x1="-391.059" y1="-173.256" x2="-164.6776" y2="-173.256" gradientTransform="matrix(-1 0 0 -1 312.6849 91.1375)">
		<stop  offset="0" style="stop-color:#FFFFFF"/>
		<stop  offset="1" style="stop-color:#41B9E6;stop-opacity:0"/>
	</linearGradient>
	<path class="st14" d="M703.7,323.1c-73.7,0-195.9-117.4-226.4-117.4"/>
	
		<linearGradient id="SVGID_15_" gradientUnits="userSpaceOnUse" x1="-391.059" y1="-155.7842" x2="-164.6776" y2="-155.7842" gradientTransform="matrix(-1 0 0 -1 312.6849 91.1375)">
		<stop  offset="0" style="stop-color:#FFFFFF"/>
		<stop  offset="1" style="stop-color:#41B9E6;stop-opacity:0"/>
	</linearGradient>
	<path class="st15" d="M703.7,305.6c-62.2,0-192-117.4-226.4-117.4"/>
	
		<linearGradient id="SVGID_16_" gradientUnits="userSpaceOnUse" x1="-391.059" y1="-138.3124" x2="-164.6776" y2="-138.3124" gradientTransform="matrix(-1 0 0 -1 312.6849 91.1375)">
		<stop  offset="0" style="stop-color:#FFFFFF"/>
		<stop  offset="1" style="stop-color:#41B9E6;stop-opacity:0"/>
	</linearGradient>
	<path class="st16" d="M703.7,288.1c-50.7,0-187-117.4-226.4-117.4"/>
	
		<linearGradient id="SVGID_17_" gradientUnits="userSpaceOnUse" x1="-391.059" y1="-120.8406" x2="-164.6776" y2="-120.8406" gradientTransform="matrix(-1 0 0 -1 312.6849 91.1375)">
		<stop  offset="0" style="stop-color:#FFFFFF"/>
		<stop  offset="1" style="stop-color:#41B9E6;stop-opacity:0"/>
	</linearGradient>
	<path class="st17" d="M703.7,270.7c-39.2,0-183.4-117.4-226.4-117.4"/>
	
		<linearGradient id="SVGID_18_" gradientUnits="userSpaceOnUse" x1="-392.0374" y1="-103.3688" x2="-164.6776" y2="-103.3688" gradientTransform="matrix(-1 0 0 -1 312.6849 91.1375)">
		<stop  offset="0" style="stop-color:#FFFFFF"/>
		<stop  offset="1" style="stop-color:#41B9E6;stop-opacity:0"/>
	</linearGradient>
	<path class="st18" d="M704.7,253.2c-28.6,0-180.4-117.4-227.4-117.4"/>
	
		<linearGradient id="SVGID_19_" gradientUnits="userSpaceOnUse" x1="-392.0374" y1="-58.4489" x2="-164.6776" y2="-58.4489" gradientTransform="matrix(-1 0 0 -1 312.6849 91.1375)">
		<stop  offset="0" style="stop-color:#FFFFFF"/>
		<stop  offset="1" style="stop-color:#41B9E6;stop-opacity:0"/>
	</linearGradient>
	<path class="st19" d="M704.7,180.8c-25.4,0-186.9-62.5-227.4-62.5"/>
	
		<linearGradient id="SVGID_20_" gradientUnits="userSpaceOnUse" x1="-392.0374" y1="-40.7774" x2="-164.6776" y2="-40.7774" gradientTransform="matrix(-1 0 0 -1 312.6849 91.1375)">
		<stop  offset="0" style="stop-color:#FFFFFF"/>
		<stop  offset="1" style="stop-color:#41B9E6;stop-opacity:0"/>
	</linearGradient>
	<path class="st20" d="M704.7,163c-25.4,0-186.9-62.1-227.4-62.1"/>
	
		<linearGradient id="SVGID_21_" gradientUnits="userSpaceOnUse" x1="-392.0374" y1="7.5239" x2="-164.6776" y2="7.5239" gradientTransform="matrix(-1 0 0 -1 312.6849 91.1375)">
		<stop  offset="0" style="stop-color:#FFFFFF"/>
		<stop  offset="1" style="stop-color:#41B9E6;stop-opacity:0"/>
	</linearGradient>
	<path class="st21" d="M704.7,83.8c-25.4,0-186.9-0.4-227.4-0.4"/>
</g>
<g id="third">
	<g>
		<path class="st22" d="M726.1,181.2v-2c2.7-2.4,10.7-10,10.7-13.7c0-2.4-1.9-3.7-4.2-3.7c-2.5,0-4.2,1.7-4.2,4.1h-2.1
			c0-3.7,2.8-5.9,6.4-5.9c3.3,0,6.2,1.8,6.2,5.4c0,4.9-7.2,11-10.4,14h10.7v1.8H726.1z"/>
	</g>
	<g>
		<path class="st22" d="M750.4,174.2h0.9c0,0.5-0.1,1-0.1,1.6v4.2c0,1.4,0.1,2.9-1.5,3.6c-0.6,0.3-0.9,0.3-1.6,0.3
			c-1.3,0-2.8-0.4-2.8-1.9h0.9c0.1,0.8,1.1,1.1,2,1.1c1.1,0,2.1-0.8,2.1-1.9v-1.3h0c-0.4,0.8-1.4,1.3-2.3,1.3c-2.1,0-3-1.6-3-3.5
			c0-1.9,0.9-3.7,3-3.7c1,0,1.8,0.5,2.3,1.3l0-0.1L750.4,174.2z M748.1,174.7c-1.5,0-2.2,1.5-2.2,2.8c0,1.3,0.7,2.8,2.2,2.8
			c1.6,0,2.2-1.5,2.2-2.9C750.3,176.2,749.6,174.7,748.1,174.7z"/>
		<path class="st22" d="M753.5,177.9c0,1.5,0.7,2.8,2.4,2.8c1,0,1.8-0.7,2-1.7h0.9c-0.4,1.7-1.5,2.5-3.2,2.5c-2.1,0-3.1-1.8-3.1-3.7
			c0-1.9,1.1-3.7,3.1-3.7c2.4,0,3.2,1.7,3.2,3.9H753.5z M758,177.1c-0.1-1.4-0.8-2.4-2.3-2.4c-1.4,0-2.1,1.1-2.2,2.4H758z"/>
		<path class="st22" d="M764.5,176.2c-0.1-1.1-0.7-1.5-1.7-1.5c-0.9,0-1.6,0.3-1.7,1.2h-0.9c0.2-1.4,1.3-2,2.6-2
			c1.6,0,2.5,0.7,2.5,2.3v3.3c0,0.5,0,1.1,0.1,1.6h-0.9l0-1h0l0,0.1c-0.3,0.6-1.2,1.1-2.2,1.1c-1.3,0-2.3-0.8-2.3-2.2
			c0-1,0.6-1.7,1.4-2c0.9-0.4,2.2-0.3,3.2-0.3V176.2z M762.4,180.6c1.8,0,2.2-1.5,2.1-3c-1.2,0-3.7-0.2-3.7,1.6
			C760.8,180.2,761.5,180.6,762.4,180.6z"/>
		<path class="st22" d="M768.1,181.2h-0.8v-5.4c0-0.5,0-1.1-0.1-1.6h0.9l0,1h0c0.3-0.7,0.9-1.2,1.6-1.2c0.3,0,0.6,0,0.8,0v0.8
			c-0.2,0-0.3-0.1-0.5-0.1c-1.2,0-1.9,0.9-1.9,2.2V181.2z"/>
		<path class="st22" d="M774,174c1.3,0,2.5,0.5,2.6,1.9h-0.9c-0.1-0.9-0.9-1.2-1.7-1.2c-0.8,0-1.6,0.3-1.6,1.1c0,1,1.4,0.9,3.3,1.6
			c0.7,0.3,1.2,0.9,1.2,1.6c0,1.6-1.5,2.3-3,2.3c-1.2,0-2.6-0.6-2.6-2.1h0.9c0.1,1.1,1,1.4,1.9,1.4c0.9,0,1.8-0.4,1.8-1.4
			c0-1-1.1-1.2-2.2-1.4c-1.1-0.3-2.2-0.6-2.2-1.9C771.4,174.5,772.7,174,774,174z"/>
	</g>
	<g>
		<path class="st22" d="M728.1,297.7c1.8-0.7,3.4-1.9,4.8-3.3h1.9v20.8h-2v-18.7c-1.4,1.3-3,2.3-4.7,3.1V297.7z"/>
	</g>
	<g>
		<path class="st22" d="M750.4,308.2h0.9c0,0.5-0.1,1-0.1,1.6v4.2c0,1.4,0.1,2.9-1.5,3.6c-0.6,0.3-0.9,0.3-1.6,0.3
			c-1.3,0-2.8-0.4-2.8-1.9h0.9c0.1,0.8,1.1,1.1,2,1.1c1.1,0,2.1-0.8,2.1-1.9v-1.3h0c-0.4,0.8-1.4,1.3-2.3,1.3c-2.1,0-3-1.6-3-3.5
			c0-1.9,0.9-3.7,3-3.7c1,0,1.8,0.5,2.3,1.3l0-0.1L750.4,308.2z M748.1,308.7c-1.5,0-2.2,1.5-2.2,2.8c0,1.3,0.7,2.8,2.2,2.8
			c1.6,0,2.2-1.5,2.2-2.9C750.3,310.2,749.6,308.7,748.1,308.7z"/>
		<path class="st22" d="M753.5,311.9c0,1.5,0.7,2.8,2.4,2.8c1,0,1.8-0.7,2-1.7h0.9c-0.4,1.7-1.5,2.5-3.2,2.5c-2.1,0-3.1-1.8-3.1-3.7
			c0-1.9,1.1-3.7,3.1-3.7c2.4,0,3.2,1.7,3.2,3.9H753.5z M758,311.1c-0.1-1.4-0.8-2.4-2.3-2.4c-1.4,0-2.1,1.1-2.2,2.4H758z"/>
		<path class="st22" d="M764.5,310.2c-0.1-1.1-0.7-1.5-1.7-1.5c-0.9,0-1.6,0.3-1.7,1.2h-0.9c0.2-1.4,1.3-2,2.6-2
			c1.6,0,2.5,0.7,2.5,2.3v3.3c0,0.5,0,1.1,0.1,1.6h-0.9l0-1h0l0,0.1c-0.3,0.6-1.2,1.1-2.2,1.1c-1.3,0-2.3-0.8-2.3-2.2
			c0-1,0.6-1.7,1.4-2c0.9-0.4,2.2-0.3,3.2-0.3V310.2z M762.4,314.6c1.8,0,2.2-1.5,2.1-3c-1.2,0-3.7-0.2-3.7,1.6
			C760.8,314.2,761.5,314.6,762.4,314.6z"/>
		<path class="st22" d="M768.1,315.2h-0.8v-5.4c0-0.5,0-1.1-0.1-1.6h0.9l0,1h0c0.3-0.7,0.9-1.2,1.6-1.2c0.3,0,0.6,0,0.8,0v0.8
			c-0.2,0-0.3-0.1-0.5-0.1c-1.2,0-1.9,0.9-1.9,2.2V315.2z"/>
	</g>
	<g>
		<path class="st22" d="M731.4,82.2c2.7,0.3,5.7-0.8,5.7-3.9c0-2.4-2.2-3.8-4.6-3.8c-2.6,0-4.3,1.4-4.5,3.8h-2.1
			c0-3.5,3.1-5.6,6.4-5.6c3.5,0,7,1.6,7,5.7c0,2.5-1.9,4.2-4.2,4.7v0.1c2.6,0.6,4.6,2.5,4.6,5.2c0,3.9-3.6,6-7.1,6
			c-3.7,0-6.7-2-6.8-5.9h2.1c0,2.6,2.3,4.1,4.7,4.1c2.8,0,5-1.5,5-4.4c0-3.3-3.2-4.5-6.1-4.1V82.2z"/>
	</g>
	<g>
		<path class="st22" d="M750.4,86.9h0.9c0,0.5-0.1,1-0.1,1.6v4.2c0,1.4,0.1,2.9-1.5,3.6c-0.6,0.3-0.9,0.3-1.6,0.3
			c-1.3,0-2.8-0.4-2.8-1.9h0.9c0.1,0.8,1.1,1.1,2,1.1c1.1,0,2.1-0.8,2.1-1.9v-1.3h0c-0.4,0.8-1.4,1.3-2.3,1.3c-2.1,0-3-1.6-3-3.5
			c0-1.9,0.9-3.7,3-3.7c1,0,1.8,0.5,2.3,1.3l0-0.1L750.4,86.9z M748.1,87.5c-1.5,0-2.2,1.5-2.2,2.8c0,1.3,0.7,2.8,2.2,2.8
			c1.6,0,2.2-1.5,2.2-2.9C750.3,88.9,749.6,87.5,748.1,87.5z"/>
		<path class="st22" d="M753.5,90.6c0,1.5,0.7,2.8,2.4,2.8c1,0,1.8-0.7,2-1.7h0.9c-0.4,1.7-1.5,2.5-3.2,2.5c-2.1,0-3.1-1.8-3.1-3.7
			c0-1.9,1.1-3.7,3.1-3.7c2.4,0,3.2,1.7,3.2,3.9H753.5z M758,89.9c-0.1-1.4-0.8-2.4-2.3-2.4c-1.4,0-2.1,1.1-2.2,2.4H758z"/>
		<path class="st22" d="M764.5,89c-0.1-1.1-0.7-1.5-1.7-1.5c-0.9,0-1.6,0.3-1.7,1.2h-0.9c0.2-1.4,1.3-2,2.6-2c1.6,0,2.5,0.7,2.5,2.3
			v3.3c0,0.5,0,1.1,0.1,1.6h-0.9l0-1h0l0,0.1c-0.3,0.6-1.2,1.1-2.2,1.1c-1.3,0-2.3-0.8-2.3-2.2c0-1,0.6-1.7,1.4-2
			c0.9-0.4,2.2-0.3,3.2-0.3V89z M762.4,93.4c1.8,0,2.2-1.5,2.1-3c-1.2,0-3.7-0.2-3.7,1.6C760.8,92.9,761.5,93.4,762.4,93.4z"/>
		<path class="st22" d="M768.1,93.9h-0.8v-5.4c0-0.5,0-1.1-0.1-1.6h0.9l0,1h0c0.3-0.7,0.9-1.2,1.6-1.2c0.3,0,0.6,0,0.8,0v0.8
			c-0.2,0-0.3-0.1-0.5-0.1c-1.2,0-1.9,0.9-1.9,2.2V93.9z"/>
		<path class="st22" d="M774,86.7c1.3,0,2.5,0.5,2.6,1.9h-0.9c-0.1-0.9-0.9-1.2-1.7-1.2c-0.8,0-1.6,0.3-1.6,1.1c0,1,1.4,0.9,3.3,1.6
			c0.7,0.3,1.2,0.9,1.2,1.6c0,1.6-1.5,2.3-3,2.3c-1.2,0-2.6-0.6-2.6-2.1h0.9c0.1,1.1,1,1.4,1.9,1.4c0.9,0,1.8-0.4,1.8-1.4
			c0-1-1.1-1.2-2.2-1.4c-1.1-0.3-2.2-0.6-2.2-1.9C771.4,87.2,772.7,86.7,774,86.7z"/>
	</g>
	<g>
		<rect x="703.7" y="349.3" class="st22" width="14.1" height="17.5"/>
		<rect x="703.7" y="331.8" class="st22" width="14.1" height="17.5"/>
		<rect x="703.7" y="314.4" class="st22" width="14.1" height="17.5"/>
	</g>
	<g>
		<rect x="703.7" y="296.9" class="st22" width="14.1" height="17.5"/>
		<rect x="703.7" y="279.4" class="st22" width="14.1" height="17.5"/>
		<rect x="703.7" y="261.9" class="st22" width="14.1" height="17.5"/>
		<rect x="703.7" y="244.5" class="st22" width="14.1" height="17.5"/>
		<rect x="703.7" y="171.7" class="st22" width="14.1" height="17.5"/>
	</g>
	<g>
		<rect x="703.7" y="154.2" class="st22" width="14.1" height="17.5"/>
		<rect x="703.7" y="75.1" class="st22" width="14.1" height="17.5"/>
	</g>
</g>
<g id="second">
	<g>
		<path class="st22" d="M487.3,367.4v-2c2.7-2.4,10.7-10,10.7-13.7c0-2.4-1.9-3.7-4.2-3.7c-2.5,0-4.2,1.7-4.2,4.1h-2.1
			c0-3.7,2.8-5.9,6.4-5.9c3.3,0,6.2,1.8,6.2,5.4c0,4.9-7.2,10.9-10.4,14h10.7v1.8H487.3z"/>
	</g>
	<g>
		<path class="st22" d="M507.4,361.4L507.4,361.4c0.5-0.8,1.3-1.2,2.2-1.2c1.1,0,2,0.6,2.3,1.5c0.5-0.8,1.3-1.5,2.4-1.5
			c2.3,0,2.5,2,2.5,2.8v4.4H516v-4.5c0-1.2-0.7-1.9-1.8-1.9c-1.4,0-2,1.2-2,2.4v4h-0.8v-4.5c0-1.2-0.7-1.9-1.8-1.9
			c-1.4,0-2,1.2-2,2.4v4h-0.8V362c0-0.5,0-1.1-0.1-1.6h0.9L507.4,361.4z"/>
		<path class="st22" d="M524.8,363.9c0,1.8-1,3.7-3.3,3.7s-3.3-1.9-3.3-3.7c0-1.8,1-3.7,3.3-3.7S524.8,362,524.8,363.9z
			 M521.6,360.9c-1.7,0-2.4,1.7-2.4,3s0.7,3,2.4,3c1.7,0,2.4-1.7,2.4-3S523.3,360.9,521.6,360.9z"/>
		<path class="st22" d="M526.9,361.1h-1.4v-0.8h1.4v-1.5l0.8-0.4v1.9h1.6v0.8h-1.6v4.7c0,0.6,0.3,1,1,1c0.3,0,0.5,0,0.7-0.1v0.7
			c-0.3,0.1-0.6,0.1-0.9,0.1c-1.8,0-1.7-1.1-1.7-2.1V361.1z"/>
		<path class="st22" d="M536.7,363.9c0,1.8-1,3.7-3.3,3.7s-3.3-1.9-3.3-3.7c0-1.8,1-3.7,3.3-3.7S536.7,362,536.7,363.9z
			 M533.5,360.9c-1.7,0-2.4,1.7-2.4,3s0.7,3,2.4,3c1.7,0,2.4-1.7,2.4-3S535.2,360.9,533.5,360.9z"/>
		<path class="st22" d="M539,367.4h-0.8V362c0-0.5,0-1.1-0.1-1.6h0.9l0,1h0c0.3-0.7,0.9-1.2,1.6-1.2c0.3,0,0.6,0,0.8,0v0.8
			c-0.2,0-0.3-0.1-0.5-0.1c-1.2,0-1.9,0.9-1.9,2.2V367.4z"/>
		<path class="st22" d="M545.2,360.2c1.3,0,2.5,0.5,2.6,1.9h-0.9c-0.1-0.9-0.9-1.2-1.7-1.2c-0.8,0-1.6,0.3-1.6,1.1
			c0,1,1.4,0.9,3.3,1.6c0.7,0.3,1.2,0.9,1.2,1.6c0,1.6-1.5,2.3-3,2.3c-1.2,0-2.6-0.6-2.6-2.1h0.9c0.1,1.1,1,1.4,1.9,1.4
			c0.9,0,1.8-0.4,1.8-1.4c0-1-1.1-1.2-2.2-1.4c-1.1-0.3-2.2-0.6-2.2-1.9C542.6,360.7,544,360.2,545.2,360.2z"/>
	</g>
	<g>
		<rect x="462.7" y="214.4" class="st22" width="14.1" height="17.5"/>
		<rect x="462.7" y="348.2" class="st22" width="14.1" height="17.5"/>
		<rect x="462.7" y="197" class="st22" width="14.1" height="17.5"/>
		<rect x="462.7" y="179.5" class="st22" width="14.1" height="17.5"/>
		<rect x="462.7" y="162" class="st22" width="14.1" height="17.5"/>
		<rect x="462.7" y="144.5" class="st22" width="14.1" height="17.5"/>
		<rect x="462.7" y="127.1" class="st22" width="14.1" height="17.5"/>
		<rect x="462.7" y="109.6" class="st22" width="14.1" height="17.5"/>
		<rect x="462.7" y="92.1" class="st22" width="14.1" height="17.5"/>
		<rect x="462.7" y="74.7" class="st22" width="14.1" height="17.5"/>
	</g>
	<g>
		<path class="st22" d="M493.3,146.8c1.8-0.7,3.4-1.9,4.8-3.3h1.9v20.8h-1.9v-18.7c-1.4,1.3-3,2.3-4.7,3.1V146.8z"/>
	</g>
	<g>
		<path class="st22" d="M511.4,158.2L511.4,158.2c0.5-0.8,1.3-1.2,2.2-1.2c1.1,0,2,0.6,2.3,1.5c0.5-0.8,1.3-1.5,2.4-1.5
			c2.3,0,2.5,2,2.5,2.8v4.4H520v-4.5c0-1.2-0.7-1.9-1.8-1.9c-1.4,0-2,1.2-2,2.4v4h-0.8v-4.5c0-1.2-0.7-1.9-1.8-1.9
			c-1.4,0-2,1.2-2,2.4v4h-0.8v-5.4c0-0.5,0-1.1-0.1-1.6h0.9L511.4,158.2z"/>
		<path class="st22" d="M528.8,160.7c0,1.8-1,3.7-3.3,3.7s-3.3-1.9-3.3-3.7c0-1.8,1-3.7,3.3-3.7S528.8,158.9,528.8,160.7z
			 M525.6,157.8c-1.7,0-2.4,1.7-2.4,3s0.7,3,2.4,3c1.7,0,2.4-1.7,2.4-3S527.3,157.8,525.6,157.8z"/>
		<path class="st22" d="M530.9,158h-1.4v-0.8h1.4v-1.5l0.8-0.4v1.9h1.6v0.8h-1.6v4.7c0,0.6,0.3,1,1,1c0.3,0,0.5,0,0.7-0.1v0.7
			c-0.3,0.1-0.6,0.1-0.9,0.1c-1.8,0-1.7-1.1-1.7-2.1V158z"/>
		<path class="st22" d="M540.8,160.7c0,1.8-1,3.7-3.3,3.7s-3.3-1.9-3.3-3.7c0-1.8,1-3.7,3.3-3.7S540.8,158.9,540.8,160.7z
			 M537.5,157.8c-1.7,0-2.4,1.7-2.4,3s0.7,3,2.4,3c1.7,0,2.4-1.7,2.4-3S539.2,157.8,537.5,157.8z"/>
		<path class="st22" d="M543,164.2h-0.8v-5.4c0-0.5,0-1.1-0.1-1.6h0.9l0,1h0c0.3-0.7,0.9-1.2,1.6-1.2c0.3,0,0.6,0,0.8,0v0.8
			c-0.2,0-0.3-0.1-0.5-0.1c-1.2,0-1.9,0.9-1.9,2.2V164.2z"/>
	</g>
</g>
<g id="first">
	<g>
		<g>
			<path class="st22" d="M46,201.2h3.4c1.2,0,2.1,0.1,2.8,0.8c0.5,0.5,0.7,1.2,0.7,2c0,0.8-0.3,1.4-0.8,2c-0.5,0.5-1.2,0.9-3.1,0.9
				h-1.6v4.5H46V201.2z M47.4,205.6h1.7c0.9,0,2.3-0.1,2.3-1.7c0-1.6-1.3-1.6-2-1.6h-2V205.6z"/>
			<path class="st22" d="M58.9,211.3c-0.1-0.4-0.1-0.7-0.1-1.1c-0.6,1.2-1.6,1.3-2.2,1.3c-1.6,0-2.5-0.9-2.5-2.1
				c0-0.6,0.2-1.5,1.2-2.1c0.8-0.4,1.9-0.5,2.4-0.5c0.3,0,0.5,0,1,0c0-0.9,0-1.2-0.3-1.6c-0.3-0.4-0.8-0.5-1.2-0.5
				c-1.3,0-1.4,0.9-1.4,1.2h-1.3c0-0.4,0.1-0.9,0.5-1.3c0.5-0.6,1.5-0.8,2.3-0.8c1,0,2.1,0.3,2.5,1c0.2,0.4,0.2,0.8,0.2,1.1
				l-0.1,3.4c0,0.1,0,1,0.1,1.8H58.9z M58,207.8c-0.5,0-2.5,0-2.5,1.4c0,0.4,0.3,1.2,1.5,1.2c0.7,0,1.2-0.3,1.5-0.8
				c0.3-0.5,0.3-0.9,0.3-1.8C58.5,207.8,58.3,207.8,58,207.8z"/>
			<path class="st22" d="M62.4,205l0-0.8h1.3l0,1.1c0.2-0.3,0.7-1.3,2.3-1.3c0.6,0,2.5,0.2,2.5,2.4v4.8h-1.3v-4.5
				c0-0.5-0.1-0.9-0.4-1.2c-0.3-0.3-0.8-0.5-1.2-0.5c-1,0-1.8,0.7-1.8,2.1v4h-1.3V205z"/>
			<path class="st22" d="M75.2,211.3c-0.1-0.4-0.1-0.7-0.1-1.1c-0.6,1.2-1.6,1.3-2.2,1.3c-1.6,0-2.5-0.9-2.5-2.1
				c0-0.6,0.2-1.5,1.2-2.1c0.8-0.4,1.9-0.5,2.4-0.5c0.3,0,0.5,0,1,0c0-0.9,0-1.2-0.3-1.6c-0.3-0.4-0.8-0.5-1.2-0.5
				c-1.3,0-1.4,0.9-1.4,1.2h-1.3c0-0.4,0.1-0.9,0.5-1.3c0.5-0.6,1.5-0.8,2.3-0.8c1,0,2.1,0.3,2.5,1c0.2,0.4,0.2,0.8,0.2,1.1
				l-0.1,3.4c0,0.1,0,1,0.1,1.8H75.2z M74.3,207.8c-0.5,0-2.5,0-2.5,1.4c0,0.4,0.3,1.2,1.5,1.2c0.7,0,1.2-0.3,1.5-0.8
				c0.3-0.5,0.3-0.9,0.3-1.8C74.8,207.8,74.6,207.8,74.3,207.8z"/>
			<path class="st22" d="M79.5,209.2c0,0.5,0.3,1.3,1.5,1.3c0.5,0,1-0.1,1.2-0.4c0.1-0.2,0.2-0.4,0.2-0.7c0-0.7-0.5-0.8-1.5-1.1
				c-1.5-0.3-2.7-0.6-2.7-2.1c0-1.3,1.1-2.1,2.7-2.1c0.9,0,2.1,0.3,2.5,1.1c0.2,0.4,0.2,0.7,0.2,1h-1.3c0-1.1-0.9-1.1-1.4-1.1
				c-0.2,0-1.4,0-1.4,1c0,0.6,0.6,0.8,1,0.9c1.9,0.5,2.4,0.6,2.8,1c0.4,0.4,0.5,0.9,0.5,1.3c0,0.8-0.4,1.5-1,1.8
				c-0.6,0.4-1.4,0.5-2.1,0.5c-1.4,0-2.8-0.6-2.7-2.3H79.5z"/>
			<path class="st22" d="M88.8,204.1c2.8,0,3.4,2.2,3.4,3.7c0,2.1-1.2,3.8-3.6,3.8c-2.3,0-3.5-1.6-3.5-3.7
				C85.2,206.1,86,204.1,88.8,204.1z M88.7,210.5c1,0,2.1-0.7,2.1-2.8c0-1.8-0.8-2.7-2-2.7c-0.8,0-2.2,0.5-2.2,2.7
				C86.6,209.2,87.2,210.5,88.7,210.5z"/>
			<path class="st22" d="M94.3,205l0-0.8h1.3l0,1.1c0.2-0.3,0.7-1.3,2.3-1.3c0.6,0,2.5,0.2,2.5,2.4v4.8h-1.3v-4.5
				c0-0.5-0.1-0.9-0.4-1.2c-0.3-0.3-0.8-0.5-1.2-0.5c-1,0-1.8,0.7-1.8,2.1v4h-1.3V205z"/>
			<path class="st22" d="M102.7,201.2h1.6v1.4h-1.6V201.2z M102.8,204.2h1.3v7h-1.3V204.2z"/>
			<path class="st22" d="M110.7,206.5c0-0.3-0.1-1.5-1.4-1.5c-1.8,0-1.8,2.1-1.8,2.6c0,1.4,0.4,2.8,1.8,2.8c1.1,0,1.5-0.8,1.5-1.5
				h1.3c-0.1,1.4-1.1,2.5-2.8,2.5c-0.5,0-1.6-0.1-2.3-0.9c-0.4-0.5-0.8-1.2-0.8-2.7c0-2.9,1.8-3.8,3.2-3.8c0.5,0,1.5,0.1,2.2,0.9
				c0.5,0.6,0.6,1.2,0.6,1.6H110.7z"/>
			<path class="st22" d="M118.1,208.5c0,0.3,0,0.8,0.2,1.1c0.2,0.3,0.6,0.6,1.3,0.6c0.6,0,1.1-0.2,1.4-0.7c0.2-0.4,0.2-1,0.2-1.4v-7
				h1.4v7.4c0,1.9-1.5,2.9-3.1,2.9c-0.5,0-1.7-0.1-2.4-1.1c-0.5-0.6-0.5-1.4-0.5-1.8H118.1z"/>
			<path class="st22" d="M129.7,211.3c-0.1-0.4-0.1-0.7-0.1-1.1c-0.6,1.2-1.6,1.3-2.2,1.3c-1.6,0-2.5-0.9-2.5-2.1
				c0-0.6,0.2-1.5,1.2-2.1c0.8-0.4,1.9-0.5,2.4-0.5c0.3,0,0.5,0,1,0c0-0.9,0-1.2-0.3-1.6c-0.3-0.4-0.8-0.5-1.2-0.5
				c-1.3,0-1.4,0.9-1.4,1.2h-1.3c0-0.4,0.1-0.9,0.5-1.3c0.5-0.6,1.5-0.8,2.3-0.8c1,0,2.1,0.3,2.5,1c0.2,0.4,0.2,0.8,0.2,1.1
				l-0.1,3.4c0,0.1,0,1,0.1,1.8H129.7z M128.8,207.8c-0.5,0-2.5,0-2.5,1.4c0,0.4,0.3,1.2,1.5,1.2c0.7,0,1.2-0.3,1.5-0.8
				c0.3-0.5,0.3-0.9,0.3-1.8C129.3,207.8,129.1,207.8,128.8,207.8z"/>
			<path class="st22" d="M134.4,211.8c0.1,0.8,0.4,1.4,1.6,1.4c1.8,0,1.9-1.3,1.9-3.2c-0.6,1.2-1.9,1.2-2.3,1.2
				c-0.6,0-1.6-0.1-2.2-0.9c-0.6-0.7-0.8-1.7-0.8-2.6c0-2.4,1.4-3.5,3.1-3.5c1.4,0,1.9,0.7,2.2,1.1l0-1h1.3l0,1.3l0,4.4
				c0,1.7-0.1,2.4-0.3,2.9c-0.6,1.1-2,1.3-2.9,1.3c-2.8,0-2.9-1.3-3-2.3H134.4z M137.5,209.5c0.3-0.4,0.5-0.7,0.5-2
				c0-0.9-0.2-1.4-0.5-1.8c-0.4-0.4-0.9-0.6-1.5-0.6c-1.7,0-1.9,1.7-1.9,2.6c0,1.1,0.3,2.5,1.9,2.5
				C136.7,210.2,137.2,209.9,137.5,209.5z"/>
			<path class="st22" d="M142.9,204.2v4.5c0,0.7,0.2,1.6,1.5,1.6c0.7,0,1.3-0.2,1.7-0.8c0.3-0.4,0.3-1,0.3-1.3v-4h1.4v5.7
				c0,0.1,0,0.9,0,1.3h-1.4l0-1.2c-0.3,0.5-0.7,1.3-2.2,1.3c-1.7,0-2.5-1-2.5-2.4v-4.7H142.9z"/>
			<path class="st22" d="M154.6,211.3c-0.1-0.4-0.1-0.7-0.1-1.1c-0.6,1.2-1.6,1.3-2.2,1.3c-1.6,0-2.5-0.9-2.5-2.1
				c0-0.6,0.2-1.5,1.2-2.1c0.8-0.4,1.9-0.5,2.4-0.5c0.3,0,0.5,0,1,0c0-0.9,0-1.2-0.3-1.6c-0.3-0.4-0.8-0.5-1.2-0.5
				c-1.3,0-1.4,0.9-1.4,1.2h-1.3c0-0.4,0.1-0.9,0.5-1.3c0.5-0.6,1.5-0.8,2.3-0.8c1,0,2.1,0.3,2.5,1c0.2,0.4,0.2,0.8,0.2,1.1
				l-0.1,3.4c0,0.1,0,1,0.1,1.8H154.6z M153.6,207.8c-0.5,0-2.5,0-2.5,1.4c0,0.4,0.3,1.2,1.5,1.2c0.7,0,1.2-0.3,1.5-0.8
				c0.3-0.5,0.3-0.9,0.3-1.8C154.2,207.8,154,207.8,153.6,207.8z"/>
			<path class="st22" d="M158.1,205.7c0-0.5,0-1-0.1-1.4h1.3l0,1.4c0.3-1,1.1-1.3,1.7-1.4c0.4-0.1,0.7,0,0.9,0v1.3
				c-0.1,0-0.2,0-0.3-0.1c-0.1,0-0.2,0-0.4,0c-1.6,0-1.9,0.9-1.9,2.1v3.7h-1.3V205.7z"/>
			<path class="st22" d="M167.4,201.2h3.6c0.5,0,1.6,0,2.3,0.5c0.8,0.5,1.1,1.2,1.1,2.1c0,0.7-0.3,1.3-0.7,1.8
				c-0.4,0.4-0.9,0.6-1.2,0.7c1,0.3,1.4,0.7,1.5,1.9c0.1,1.2,0.2,2.1,0.6,3.2h-1.5c-0.2-0.7-0.4-1.9-0.5-2.7
				c-0.2-1.5-0.5-1.9-2.2-1.9h-1.8v4.6h-1.4V201.2z M168.7,205.5h2.2c0.2,0,1,0,1.3-0.2c0.2-0.1,0.7-0.5,0.7-1.3
				c0-1.6-1.5-1.6-2-1.6h-2.2V205.5z"/>
			<path class="st22" d="M181,211.3c-0.1-0.4-0.1-0.7-0.1-1.1c-0.6,1.2-1.6,1.3-2.2,1.3c-1.6,0-2.5-0.9-2.5-2.1
				c0-0.6,0.2-1.5,1.2-2.1c0.8-0.4,1.9-0.5,2.4-0.5c0.3,0,0.5,0,1,0c0-0.9,0-1.2-0.3-1.6c-0.3-0.4-0.8-0.5-1.2-0.5
				c-1.3,0-1.4,0.9-1.4,1.2h-1.3c0-0.4,0.1-0.9,0.5-1.3c0.5-0.6,1.5-0.8,2.3-0.8c1,0,2.1,0.3,2.5,1c0.2,0.4,0.2,0.8,0.2,1.1
				l-0.1,3.4c0,0.1,0,1,0.1,1.8H181z M180.1,207.8c-0.5,0-2.5,0-2.5,1.4c0,0.4,0.3,1.2,1.5,1.2c0.7,0,1.2-0.3,1.5-0.8
				c0.3-0.5,0.3-0.9,0.3-1.8C180.6,207.8,180.4,207.8,180.1,207.8z"/>
			<path class="st22" d="M188.5,206.5c0-0.3-0.1-1.5-1.4-1.5c-1.8,0-1.8,2.1-1.8,2.6c0,1.4,0.4,2.8,1.8,2.8c1.1,0,1.5-0.8,1.5-1.5
				h1.3c-0.1,1.4-1.1,2.5-2.8,2.5c-0.5,0-1.6-0.1-2.3-0.9c-0.4-0.5-0.8-1.2-0.8-2.7c0-2.9,1.8-3.8,3.2-3.8c0.5,0,1.5,0.1,2.2,0.9
				c0.5,0.6,0.6,1.2,0.6,1.6H188.5z"/>
			<path class="st22" d="M191.4,201.2h1.6v1.4h-1.6V201.2z M191.5,204.2h1.3v7h-1.3V204.2z"/>
			<path class="st22" d="M195.4,205l0-0.8h1.3l0,1.1c0.2-0.3,0.7-1.3,2.3-1.3c0.6,0,2.5,0.2,2.5,2.4v4.8h-1.3v-4.5
				c0-0.5-0.1-0.9-0.4-1.2c-0.3-0.3-0.8-0.5-1.2-0.5c-1,0-1.8,0.7-1.8,2.1v4h-1.3V205z"/>
			<path class="st22" d="M205.2,211.8c0.1,0.8,0.4,1.4,1.6,1.4c1.8,0,1.9-1.3,1.9-3.2c-0.6,1.2-1.9,1.2-2.3,1.2
				c-0.6,0-1.6-0.1-2.2-0.9c-0.6-0.7-0.8-1.7-0.8-2.6c0-2.4,1.4-3.5,3.1-3.5c1.4,0,1.9,0.7,2.2,1.1l0-1h1.3l0,1.3l0,4.4
				c0,1.7-0.1,2.4-0.3,2.9c-0.6,1.1-2,1.3-2.9,1.3c-2.8,0-2.9-1.3-3-2.3H205.2z M208.3,209.5c0.3-0.4,0.5-0.7,0.5-2
				c0-0.9-0.2-1.4-0.5-1.8c-0.4-0.4-0.9-0.6-1.5-0.6c-1.7,0-1.9,1.7-1.9,2.6c0,1.1,0.3,2.5,1.9,2.5
				C207.5,210.2,208,209.9,208.3,209.5z"/>
		</g>
	</g>
	<g>
		<g>
			<path class="st22" d="M114.5,262h2.9c1.4,0,3,0,4.1,1.3c0.9,1.1,1.2,2.4,1.2,3.8c0,2.2-0.9,3.5-1.7,4.1c-1,0.8-2.2,0.8-3.7,0.8
				h-2.8V262z M115.9,271h1.4c1,0,2-0.1,2.6-0.6c1.3-1,1.3-2.6,1.3-3.2c0-0.4,0-2.1-1-3.2c-0.6-0.7-1.5-0.9-2.7-0.9h-1.7V271z"/>
			<path class="st22" d="M124.7,266.5c0-0.5,0-1-0.1-1.4h1.3l0,1.4c0.3-1,1.1-1.3,1.7-1.4c0.4-0.1,0.7,0,0.9,0v1.3
				c-0.1,0-0.2,0-0.3-0.1c-0.1,0-0.2,0-0.4,0c-1.6,0-1.9,0.9-1.9,2.1v3.7h-1.3V266.5z"/>
			<path class="st22" d="M134.3,272.1c-0.1-0.4-0.1-0.7-0.1-1.1c-0.6,1.2-1.6,1.3-2.2,1.3c-1.6,0-2.5-0.9-2.5-2.1
				c0-0.6,0.2-1.5,1.2-2.1c0.8-0.4,1.9-0.5,2.4-0.5c0.3,0,0.5,0,1,0c0-0.9,0-1.2-0.3-1.6c-0.3-0.4-0.8-0.5-1.2-0.5
				c-1.3,0-1.4,0.9-1.4,1.2H130c0-0.4,0.1-0.9,0.5-1.3c0.5-0.6,1.5-0.8,2.3-0.8c1,0,2.1,0.3,2.5,1c0.2,0.4,0.2,0.8,0.2,1.1l-0.1,3.4
				c0,0.1,0,1,0.1,1.8H134.3z M133.4,268.7c-0.5,0-2.5,0-2.5,1.4c0,0.4,0.3,1.2,1.5,1.2c0.7,0,1.2-0.3,1.5-0.8
				c0.3-0.5,0.3-0.9,0.3-1.8C133.9,268.7,133.7,268.7,133.4,268.7z"/>
			<path class="st22" d="M139.1,272.7c0.1,0.8,0.4,1.4,1.6,1.4c1.8,0,1.9-1.3,1.9-3.2c-0.6,1.2-1.9,1.2-2.3,1.2
				c-0.6,0-1.6-0.1-2.2-0.9c-0.6-0.7-0.8-1.7-0.8-2.6c0-2.4,1.4-3.5,3.1-3.5c1.4,0,1.9,0.7,2.2,1.1l0-1h1.3l0,1.3l0,4.4
				c0,1.7-0.1,2.4-0.3,2.9c-0.6,1.1-2,1.3-2.9,1.3c-2.8,0-2.9-1.3-3-2.3H139.1z M142.2,270.3c0.3-0.4,0.5-0.7,0.5-2
				c0-0.9-0.2-1.4-0.5-1.8c-0.4-0.4-0.9-0.6-1.5-0.6c-1.7,0-1.9,1.7-1.9,2.6c0,1.1,0.3,2.5,1.9,2.5
				C141.4,271,141.8,270.7,142.2,270.3z"/>
			<path class="st22" d="M149.4,264.9c2.8,0,3.4,2.2,3.4,3.7c0,2.1-1.2,3.8-3.6,3.8c-2.3,0-3.5-1.6-3.5-3.7
				C145.9,267,146.7,264.9,149.4,264.9z M149.4,271.4c1,0,2.1-0.7,2.1-2.8c0-1.8-0.8-2.7-2-2.7c-0.8,0-2.2,0.5-2.2,2.7
				C147.2,270.1,147.9,271.4,149.4,271.4z"/>
			<path class="st22" d="M155,265.9l0-0.8h1.3l0,1.1c0.2-0.3,0.7-1.3,2.3-1.3c0.6,0,2.5,0.2,2.5,2.4v4.8h-1.3v-4.5
				c0-0.5-0.1-0.9-0.4-1.2c-0.3-0.3-0.8-0.5-1.2-0.5c-1,0-1.8,0.7-1.8,2.1v4H155V265.9z"/>
			<path class="st22" d="M167.4,262h3.6c0.5,0,1.6,0,2.3,0.5c0.8,0.5,1.1,1.2,1.1,2.1c0,0.7-0.3,1.3-0.7,1.8
				c-0.4,0.4-0.9,0.6-1.2,0.7c1,0.3,1.4,0.7,1.5,1.9c0.1,1.2,0.2,2.1,0.6,3.2h-1.5c-0.2-0.7-0.4-1.9-0.5-2.7
				c-0.2-1.5-0.5-1.9-2.2-1.9h-1.8v4.6h-1.4V262z M168.7,266.4h2.2c0.2,0,1,0,1.3-0.2c0.2-0.1,0.7-0.5,0.7-1.3c0-1.6-1.5-1.6-2-1.6
				h-2.2V266.4z"/>
			<path class="st22" d="M181,272.1c-0.1-0.4-0.1-0.7-0.1-1.1c-0.6,1.2-1.6,1.3-2.2,1.3c-1.6,0-2.5-0.9-2.5-2.1
				c0-0.6,0.2-1.5,1.2-2.1c0.8-0.4,1.9-0.5,2.4-0.5c0.3,0,0.5,0,1,0c0-0.9,0-1.2-0.3-1.6c-0.3-0.4-0.8-0.5-1.2-0.5
				c-1.3,0-1.4,0.9-1.4,1.2h-1.3c0-0.4,0.1-0.9,0.5-1.3c0.5-0.6,1.5-0.8,2.3-0.8c1,0,2.1,0.3,2.5,1c0.2,0.4,0.2,0.8,0.2,1.1
				l-0.1,3.4c0,0.1,0,1,0.1,1.8H181z M180.1,268.7c-0.5,0-2.5,0-2.5,1.4c0,0.4,0.3,1.2,1.5,1.2c0.7,0,1.2-0.3,1.5-0.8
				c0.3-0.5,0.3-0.9,0.3-1.8C180.6,268.7,180.4,268.7,180.1,268.7z"/>
			<path class="st22" d="M188.5,267.3c0-0.3-0.1-1.5-1.4-1.5c-1.8,0-1.8,2.1-1.8,2.6c0,1.4,0.4,2.8,1.8,2.8c1.1,0,1.5-0.8,1.5-1.5
				h1.3c-0.1,1.4-1.1,2.5-2.8,2.5c-0.5,0-1.6-0.1-2.3-0.9c-0.4-0.5-0.8-1.2-0.8-2.7c0-2.9,1.8-3.8,3.2-3.8c0.5,0,1.5,0.1,2.2,0.9
				c0.5,0.6,0.6,1.2,0.6,1.6H188.5z"/>
			<path class="st22" d="M191.4,262h1.6v1.4h-1.6V262z M191.5,265.1h1.3v7h-1.3V265.1z"/>
			<path class="st22" d="M195.4,265.9l0-0.8h1.3l0,1.1c0.2-0.3,0.7-1.3,2.3-1.3c0.6,0,2.5,0.2,2.5,2.4v4.8h-1.3v-4.5
				c0-0.5-0.1-0.9-0.4-1.2c-0.3-0.3-0.8-0.5-1.2-0.5c-1,0-1.8,0.7-1.8,2.1v4h-1.3V265.9z"/>
			<path class="st22" d="M205.2,272.7c0.1,0.8,0.4,1.4,1.6,1.4c1.8,0,1.9-1.3,1.9-3.2c-0.6,1.2-1.9,1.2-2.3,1.2
				c-0.6,0-1.6-0.1-2.2-0.9c-0.6-0.7-0.8-1.7-0.8-2.6c0-2.4,1.4-3.5,3.1-3.5c1.4,0,1.9,0.7,2.2,1.1l0-1h1.3l0,1.3l0,4.4
				c0,1.7-0.1,2.4-0.3,2.9c-0.6,1.1-2,1.3-2.9,1.3c-2.8,0-2.9-1.3-3-2.3H205.2z M208.3,270.3c0.3-0.4,0.5-0.7,0.5-2
				c0-0.9-0.2-1.4-0.5-1.8c-0.4-0.4-0.9-0.6-1.5-0.6c-1.7,0-1.9,1.7-1.9,2.6c0,1.1,0.3,2.5,1.9,2.5C207.5,271,208,270.7,208.3,270.3
				z"/>
		</g>
	</g>
	<g>
		<g>
			<path class="st22" d="M100.5,79.4h2.9c1.4,0,3,0,4.1,1.3c0.9,1.1,1.2,2.4,1.2,3.8c0,2.2-0.9,3.5-1.7,4.1c-1,0.8-2.2,0.8-3.7,0.8
				h-2.8V79.4z M101.9,88.4h1.4c1,0,2-0.1,2.6-0.6c1.3-1,1.3-2.6,1.3-3.2c0-0.4,0-2.1-1-3.2c-0.6-0.7-1.5-0.9-2.7-0.9h-1.7V88.4z"/>
			<path class="st22" d="M111.6,86.6c0,0.7,0.1,2,2.4,2c2.1,0,2.4-1.3,2.4-1.8c0-1.1-0.9-1.4-2.3-1.7c-1.5-0.4-2.2-0.5-2.7-0.9
				c-0.8-0.6-1.1-1.3-1.1-2c0-2.1,1.9-3,3.9-3c0.7,0,2,0.1,2.8,1c0.6,0.6,0.6,1.3,0.6,1.7h-1.5c-0.1-1.3-1.1-1.5-2.1-1.5
				c-1.4,0-2.2,0.6-2.2,1.6c0,0.9,0.6,1.2,1.8,1.5c2.4,0.6,2.7,0.7,3.3,1.1c0.9,0.6,1,1.6,1,2c0,1.8-1.4,3.2-4,3.2
				c-0.8,0-2.3-0.1-3.1-1.1c-0.6-0.7-0.6-1.6-0.6-2H111.6z"/>
			<path class="st22" d="M127.9,89.6h-1.5l-3.6-10.1h1.6l2.9,8.6l3-8.6h1.4L127.9,89.6z"/>
			<path class="st22" d="M133,79.5h1.6v1.4H133V79.5z M133.2,82.5h1.3v7h-1.3V82.5z"/>
			<path class="st22" d="M137.1,84c0-0.5,0-1-0.1-1.4h1.3l0,1.4c0.3-1,1.1-1.3,1.7-1.4c0.4-0.1,0.7,0,0.9,0v1.3
				c-0.1,0-0.2,0-0.3-0.1c-0.1,0-0.2,0-0.4,0c-1.6,0-1.9,0.9-1.9,2.1v3.7h-1.3V84z"/>
			<path class="st22" d="M143.8,90.1c0.1,0.8,0.4,1.4,1.6,1.4c1.8,0,1.9-1.3,1.9-3.2c-0.6,1.2-1.9,1.2-2.3,1.2
				c-0.6,0-1.6-0.1-2.2-0.9c-0.6-0.7-0.8-1.7-0.8-2.6c0-2.4,1.4-3.5,3.1-3.5c1.4,0,1.9,0.7,2.2,1.1l0-1h1.3l0,1.3l0,4.4
				c0,1.7-0.1,2.4-0.3,2.9c-0.6,1.1-2,1.3-2.9,1.3c-2.8,0-2.9-1.3-3-2.3H143.8z M146.8,87.8c0.3-0.4,0.5-0.7,0.5-2
				c0-0.9-0.2-1.4-0.5-1.8c-0.4-0.4-0.9-0.6-1.5-0.6c-1.7,0-1.9,1.7-1.9,2.6c0,1.1,0.3,2.5,1.9,2.5
				C146.1,88.5,146.5,88.2,146.8,87.8z"/>
			<path class="st22" d="M150.9,79.5h1.6v1.4h-1.6V79.5z M151.1,82.5h1.3v7h-1.3V82.5z"/>
			<path class="st22" d="M155,83.3l0-0.8h1.3l0,1.1c0.2-0.3,0.7-1.3,2.3-1.3c0.6,0,2.5,0.2,2.5,2.4v4.8h-1.3v-4.5
				c0-0.5-0.1-0.9-0.4-1.2c-0.3-0.3-0.8-0.5-1.2-0.5c-1,0-1.8,0.7-1.8,2.1v4H155V83.3z"/>
			<path class="st22" d="M167.4,79.4h3.6c0.5,0,1.6,0,2.3,0.5c0.8,0.5,1.1,1.2,1.1,2.1c0,0.7-0.3,1.3-0.7,1.8
				c-0.4,0.4-0.9,0.6-1.2,0.7c1,0.3,1.4,0.7,1.5,1.9c0.1,1.2,0.2,2.1,0.6,3.2h-1.5c-0.2-0.7-0.4-1.9-0.5-2.7
				c-0.2-1.5-0.5-1.9-2.2-1.9h-1.8v4.6h-1.4V79.4z M168.7,83.8h2.2c0.2,0,1,0,1.3-0.2c0.2-0.1,0.7-0.5,0.7-1.3c0-1.6-1.5-1.6-2-1.6
				h-2.2V83.8z"/>
			<path class="st22" d="M181,89.6c-0.1-0.4-0.1-0.7-0.1-1.1c-0.6,1.2-1.6,1.3-2.2,1.3c-1.6,0-2.5-0.9-2.5-2.1
				c0-0.6,0.2-1.5,1.2-2.1c0.8-0.4,1.9-0.5,2.4-0.5c0.3,0,0.5,0,1,0c0-0.9,0-1.2-0.3-1.6c-0.3-0.4-0.8-0.5-1.2-0.5
				c-1.3,0-1.4,0.9-1.4,1.2h-1.3c0-0.4,0.1-0.9,0.5-1.3c0.5-0.6,1.5-0.8,2.3-0.8c1,0,2.1,0.3,2.5,1c0.2,0.4,0.2,0.8,0.2,1.1
				l-0.1,3.4c0,0.1,0,1,0.1,1.8H181z M180.1,86.1c-0.5,0-2.5,0-2.5,1.4c0,0.4,0.3,1.2,1.5,1.2c0.7,0,1.2-0.3,1.5-0.8
				c0.3-0.5,0.3-0.9,0.3-1.8C180.6,86.1,180.4,86.1,180.1,86.1z"/>
			<path class="st22" d="M188.5,84.8c0-0.3-0.1-1.5-1.4-1.5c-1.8,0-1.8,2.1-1.8,2.6c0,1.4,0.4,2.8,1.8,2.8c1.1,0,1.5-0.8,1.5-1.5
				h1.3c-0.1,1.4-1.1,2.5-2.8,2.5c-0.5,0-1.6-0.1-2.3-0.9c-0.4-0.5-0.8-1.2-0.8-2.7c0-2.9,1.8-3.8,3.2-3.8c0.5,0,1.5,0.1,2.2,0.9
				c0.5,0.6,0.6,1.2,0.6,1.6H188.5z"/>
			<path class="st22" d="M191.4,79.5h1.6v1.4h-1.6V79.5z M191.5,82.5h1.3v7h-1.3V82.5z"/>
			<path class="st22" d="M195.4,83.3l0-0.8h1.3l0,1.1c0.2-0.3,0.7-1.3,2.3-1.3c0.6,0,2.5,0.2,2.5,2.4v4.8h-1.3v-4.5
				c0-0.5-0.1-0.9-0.4-1.2c-0.3-0.3-0.8-0.5-1.2-0.5c-1,0-1.8,0.7-1.8,2.1v4h-1.3V83.3z"/>
			<path class="st22" d="M205.2,90.1c0.1,0.8,0.4,1.4,1.6,1.4c1.8,0,1.9-1.3,1.9-3.2c-0.6,1.2-1.9,1.2-2.3,1.2
				c-0.6,0-1.6-0.1-2.2-0.9c-0.6-0.7-0.8-1.7-0.8-2.6c0-2.4,1.4-3.5,3.1-3.5c1.4,0,1.9,0.7,2.2,1.1l0-1h1.3l0,1.3l0,4.4
				c0,1.7-0.1,2.4-0.3,2.9c-0.6,1.1-2,1.3-2.9,1.3c-2.8,0-2.9-1.3-3-2.3H205.2z M208.3,87.8c0.3-0.4,0.5-0.7,0.5-2
				c0-0.9-0.2-1.4-0.5-1.8c-0.4-0.4-0.9-0.6-1.5-0.6c-1.7,0-1.9,1.7-1.9,2.6c0,1.1,0.3,2.5,1.9,2.5C207.5,88.5,208,88.2,208.3,87.8z
				"/>
		</g>
	</g>
	<g>
		<g>
			<path class="st22" d="M90.4,108.4h1.5l4.1,10.1h-1.5l-1.1-2.6h-4.7l-1.1,2.6h-1.4L90.4,108.4z M89.2,114.8H93l-1.9-5L89.2,114.8z
				"/>
			<path class="st22" d="M97.4,112.3l0-0.8h1.3l0,1.1c0.2-0.3,0.7-1.3,2.3-1.3c0.6,0,2.5,0.2,2.5,2.4v4.8h-1.3v-4.5
				c0-0.5-0.1-0.9-0.4-1.2c-0.3-0.3-0.8-0.5-1.2-0.5c-1,0-1.8,0.7-1.8,2.1v4h-1.3V112.3z"/>
			<path class="st22" d="M110.8,108.5h1.3v9c0,0.2,0,0.8,0.1,1.1h-1.3l0-1.1c-0.1,0.2-0.3,0.5-0.6,0.7c-0.6,0.4-1.3,0.5-1.7,0.5
				c-0.9,0-3-0.5-3-3.6c0-2.7,1.5-3.8,3.2-3.8c1.5,0,2,0.9,2.2,1.2V108.5z M110.3,113c-0.3-0.4-0.8-0.7-1.5-0.7
				c-1.9,0-1.9,2.3-1.9,2.8c0,1.2,0.3,2.7,1.9,2.7c2.1,0,2.1-2.3,2.1-2.8C110.9,113.9,110.6,113.4,110.3,113z"/>
			<path class="st22" d="M114.6,113c0-0.5,0-1-0.1-1.4h1.3l0,1.4c0.3-1,1.1-1.3,1.7-1.4c0.4-0.1,0.7,0,0.9,0v1.3
				c-0.1,0-0.2,0-0.3-0.1c-0.1,0-0.2,0-0.4,0c-1.6,0-1.9,0.9-1.9,2.1v3.7h-1.3V113z"/>
			<path class="st22" d="M120.7,115.3c0,1.5,0.6,2.5,2,2.5c0.9,0,1.5-0.4,1.7-1.5h1.3c0,0.4-0.1,0.9-0.6,1.5c-0.3,0.4-1,0.9-2.4,0.9
				c-2.2,0-3.3-1.4-3.3-3.6c0-1.4,0.3-2.5,1.4-3.3c0.7-0.5,1.5-0.5,1.9-0.5c3.2,0,3.1,2.8,3.1,3.9H120.7z M124.5,114.4
				c0-0.7-0.1-2.1-1.7-2.1c-0.9,0-1.9,0.5-1.9,2.1H124.5z"/>
			<path class="st22" d="M126.6,111.5h1.2V110l1.3-0.4v1.9h1.6v1h-1.6v4.2c0,0.4,0,0.9,0.9,0.9c0.3,0,0.5,0,0.6-0.1v1
				c-0.2,0-0.6,0.1-1.1,0.1c-1.2,0-1.8-0.3-1.8-1.5v-4.7h-1.2V111.5z"/>
			<path class="st22" d="M131.3,111.5h1.2V110l1.3-0.4v1.9h1.6v1h-1.6v4.2c0,0.4,0,0.9,0.9,0.9c0.3,0,0.5,0,0.6-0.1v1
				c-0.2,0-0.6,0.1-1.1,0.1c-1.2,0-1.8-0.3-1.8-1.5v-4.7h-1.2V111.5z"/>
			<path class="st22" d="M136.9,108.5h1.6v1.4h-1.6V108.5z M137.1,111.5h1.3v7h-1.3V111.5z"/>
			<path class="st22" d="M144.9,108.4h6v1.2h-4.6v3.2h4.3v1.2h-4.3v4.6h-1.4V108.4z"/>
			<path class="st22" d="M155.7,111.3c2.8,0,3.4,2.2,3.4,3.7c0,2.1-1.2,3.8-3.6,3.8c-2.3,0-3.5-1.6-3.5-3.7
				C152.1,113.4,152.9,111.3,155.7,111.3z M155.6,117.8c1,0,2.1-0.7,2.1-2.8c0-1.8-0.8-2.7-2-2.7c-0.8,0-2.2,0.5-2.2,2.7
				C153.5,116.5,154.1,117.8,155.6,117.8z"/>
			<path class="st22" d="M161.2,113c0-0.5,0-1-0.1-1.4h1.3l0,1.4c0.3-1,1.1-1.3,1.7-1.4c0.4-0.1,0.7,0,0.9,0v1.3
				c-0.1,0-0.2,0-0.3-0.1c-0.1,0-0.2,0-0.4,0c-1.6,0-1.9,0.9-1.9,2.1v3.7h-1.3V113z"/>
			<path class="st22" d="M166.6,112.5l0-0.9h1.3v1c0.7-1.1,1.6-1.2,2.2-1.2c1.6,0,2,0.8,2.3,1.3c0.2-0.4,0.8-1.3,2.4-1.3
				c1,0,2.6,0.4,2.6,2.5v4.7H176V114c0-0.6-0.1-0.9-0.2-1.1c-0.2-0.3-0.7-0.6-1.3-0.6c-0.9,0-1.3,0.5-1.5,0.7
				c-0.3,0.4-0.3,1.2-0.3,1.5v3.9h-1.3v-4.7c0-0.9-0.5-1.5-1.5-1.5c-0.9,0-1.4,0.6-1.5,0.8c-0.3,0.4-0.3,1-0.3,1.4v4h-1.3V112.5z"/>
			<path class="st22" d="M181,111.5v4.5c0,0.7,0.2,1.6,1.5,1.6c0.7,0,1.3-0.2,1.7-0.8c0.3-0.4,0.3-1,0.3-1.3v-4h1.4v5.7
				c0,0.1,0,0.9,0,1.3h-1.4l0-1.2c-0.3,0.5-0.7,1.3-2.2,1.3c-1.7,0-2.5-1-2.5-2.4v-4.7H181z"/>
			<path class="st22" d="M188.4,108.5h1.3v10.1h-1.3V108.5z"/>
			<path class="st22" d="M196.6,118.6c-0.1-0.4-0.1-0.7-0.1-1.1c-0.6,1.2-1.6,1.3-2.2,1.3c-1.6,0-2.5-0.9-2.5-2.1
				c0-0.6,0.2-1.5,1.2-2.1c0.8-0.4,1.9-0.5,2.4-0.5c0.3,0,0.5,0,1,0c0-0.9,0-1.2-0.3-1.6c-0.3-0.4-0.8-0.5-1.2-0.5
				c-1.3,0-1.4,0.9-1.4,1.2h-1.3c0-0.4,0.1-0.9,0.5-1.3c0.5-0.6,1.5-0.8,2.3-0.8c1,0,2.1,0.3,2.5,1c0.2,0.4,0.2,0.8,0.2,1.1
				l-0.1,3.4c0,0.1,0,1,0.1,1.8H196.6z M195.7,115.1c-0.5,0-2.5,0-2.5,1.4c0,0.4,0.3,1.2,1.5,1.2c0.7,0,1.2-0.3,1.5-0.8
				c0.3-0.5,0.3-0.9,0.3-1.8C196.2,115.1,196,115.1,195.7,115.1z"/>
			<path class="st22" d="M203.8,108.4h6.3v1.2h-4.9v3.2h4.7v1.2h-4.7v3.4h5.1v1.2h-6.5V108.4z"/>
		</g>
	</g>
	<g>
		<g>
			<path class="st22" d="M41.4,170.7h1.5l4.1,10.1h-1.5l-1.1-2.6h-4.7l-1.1,2.6h-1.4L41.4,170.7z M40.1,177.1H44l-1.9-5L40.1,177.1z
				"/>
			<path class="st22" d="M49.6,173.8v4.5c0,0.7,0.2,1.6,1.5,1.6c0.7,0,1.3-0.2,1.7-0.8c0.3-0.4,0.3-1,0.3-1.3v-4h1.4v5.7
				c0,0.1,0,0.9,0,1.3h-1.4l0-1.2c-0.3,0.5-0.7,1.3-2.2,1.3c-1.7,0-2.5-1-2.5-2.4v-4.7H49.6z"/>
			<path class="st22" d="M61.8,170.7h1.3v9c0,0.2,0,0.8,0.1,1.1h-1.3l0-1.1c-0.1,0.2-0.3,0.5-0.6,0.7c-0.6,0.4-1.3,0.5-1.7,0.5
				c-0.9,0-3-0.5-3-3.6c0-2.7,1.5-3.8,3.2-3.8c1.5,0,2,0.9,2.2,1.2V170.7z M61.3,175.3c-0.3-0.4-0.8-0.7-1.5-0.7
				c-1.9,0-1.9,2.3-1.9,2.8c0,1.2,0.3,2.7,1.9,2.7c2.1,0,2.1-2.3,2.1-2.8C61.8,176.2,61.6,175.6,61.3,175.3z"/>
			<path class="st22" d="M65.4,170.8h1.6v1.4h-1.6V170.8z M65.5,173.8h1.3v7h-1.3V173.8z"/>
			<path class="st22" d="M74.3,177.9c0,0.7,0.1,2,2.4,2c2.1,0,2.4-1.3,2.4-1.8c0-1.1-0.9-1.4-2.3-1.7c-1.5-0.4-2.2-0.5-2.7-0.9
				c-0.8-0.6-1.1-1.3-1.1-2c0-2.1,1.9-3,3.9-3c0.7,0,2,0.1,2.8,1c0.6,0.6,0.6,1.3,0.6,1.7h-1.5c-0.1-1.3-1.1-1.5-2.1-1.5
				c-1.4,0-2.2,0.6-2.2,1.6c0,0.9,0.6,1.2,1.8,1.5c2.4,0.6,2.7,0.7,3.3,1.1c0.9,0.6,1,1.6,1,2c0,1.8-1.4,3.2-4,3.2
				c-0.8,0-2.3-0.1-3.1-1.1c-0.6-0.7-0.6-1.6-0.6-2H74.3z"/>
			<path class="st22" d="M82.6,175c0-0.3,0-0.5,0-1.1h1.3l0,1.2c0.7-1.1,1.8-1.3,2.4-1.3c1.5,0,3,1,3,3.6c0,2.6-1.5,3.8-3.2,3.8
				c-1,0-1.8-0.4-2.2-1.1v3.5h-1.3V175z M85.8,180.1c0.3,0,1-0.1,1.5-0.7c0.5-0.7,0.6-1.7,0.6-2.2c0-1.3-0.4-2.6-1.9-2.6
				c-2.1,0-2.1,2.2-2.1,2.9C83.8,178.4,83.9,180.1,85.8,180.1z"/>
			<path class="st22" d="M94.2,173.6c2.8,0,3.4,2.2,3.4,3.7c0,2.1-1.2,3.8-3.6,3.8c-2.3,0-3.5-1.6-3.5-3.7
				C90.6,175.7,91.5,173.6,94.2,173.6z M94.1,180.1c1,0,2.1-0.7,2.1-2.8c0-1.8-0.8-2.7-2-2.7c-0.8,0-2.2,0.5-2.2,2.7
				C92,178.8,92.6,180.1,94.1,180.1z"/>
			<path class="st22" d="M99.8,175.2c0-0.5,0-1-0.1-1.4h1.3l0,1.4c0.3-1,1.1-1.3,1.7-1.4c0.4-0.1,0.7,0,0.9,0v1.3
				c-0.1,0-0.2,0-0.3-0.1c-0.1,0-0.2,0-0.4,0c-1.6,0-1.9,0.9-1.9,2.1v3.7h-1.3V175.2z"/>
			<path class="st22" d="M104.1,173.8h1.2v-1.5l1.3-0.4v1.9h1.6v1h-1.6v4.2c0,0.4,0,0.9,0.9,0.9c0.3,0,0.5,0,0.6-0.1v1
				c-0.2,0-0.6,0.1-1.1,0.1c-1.2,0-1.8-0.3-1.8-1.5v-4.7h-1.2V173.8z"/>
			<path class="st22" d="M116.9,170.7h1.5l4.1,10.1h-1.5l-1.1-2.6h-4.7l-1.1,2.6h-1.4L116.9,170.7z M115.6,177.1h3.8l-1.9-5
				L115.6,177.1z"/>
			<path class="st22" d="M123.9,170.7h3.6c1.2,0,1.9,0.1,2.5,0.7c0.4,0.4,0.7,1,0.7,1.8c0,1.7-1.2,2.1-1.7,2.3c0.6,0.2,2,0.6,2,2.5
				c0,1.4-0.9,2.1-1.2,2.3c-0.7,0.5-1.5,0.5-2.3,0.5h-3.7V170.7z M125.3,175h2c0.5,0,2.1,0,2.1-1.6c0-1.5-1.3-1.5-2-1.5h-2V175z
				 M125.3,179.7h2.4c1.1,0,2-0.6,2-1.8c0-1-0.7-1.8-1.9-1.8h-2.5V179.7z"/>
			<path class="st22" d="M135.6,180.8v-8.9h-3.4v-1.2h8.2v1.2H137v8.9H135.6z"/>
			<path class="st22" d="M146.6,177.9c0,0.7,0.1,2,2.4,2c2.1,0,2.4-1.3,2.4-1.8c0-1.1-0.9-1.4-2.3-1.7c-1.5-0.4-2.2-0.5-2.7-0.9
				c-0.8-0.6-1.1-1.3-1.1-2c0-2.1,1.9-3,3.9-3c0.7,0,2,0.1,2.8,1c0.6,0.6,0.6,1.3,0.6,1.7h-1.5c-0.1-1.3-1.1-1.5-2.1-1.5
				c-1.4,0-2.2,0.6-2.2,1.6c0,0.9,0.6,1.2,1.8,1.5c2.4,0.6,2.7,0.7,3.3,1.1c0.9,0.6,1,1.6,1,2c0,1.8-1.4,3.2-4,3.2
				c-0.8,0-2.3-0.1-3.1-1.1c-0.6-0.7-0.6-1.6-0.6-2H146.6z"/>
			<path class="st22" d="M158.9,176.1c0-0.3-0.1-1.5-1.4-1.5c-1.8,0-1.8,2.1-1.8,2.6c0,1.4,0.4,2.8,1.8,2.8c1.1,0,1.5-0.8,1.5-1.5
				h1.3c-0.1,1.4-1.1,2.5-2.8,2.5c-0.5,0-1.6-0.1-2.3-0.9c-0.4-0.5-0.8-1.2-0.8-2.7c0-2.9,1.8-3.8,3.2-3.8c0.5,0,1.5,0.1,2.2,0.9
				c0.5,0.6,0.6,1.2,0.6,1.6H158.9z"/>
			<path class="st22" d="M161.9,170.7h1.3v4.1c0.4-0.7,1.3-1.2,2.3-1.2c0.7,0,1.8,0.3,2.2,1.1c0.1,0.3,0.2,0.6,0.2,1.6v4.4h-1.3
				v-4.2c0-0.6,0-2-1.5-2c-1,0-1.5,0.6-1.7,0.9c-0.2,0.4-0.2,1.1-0.2,1.5v3.7h-1.3V170.7z"/>
			<path class="st22" d="M174.8,180.8c-0.1-0.4-0.1-0.7-0.1-1.1c-0.6,1.2-1.6,1.3-2.2,1.3c-1.6,0-2.5-0.9-2.5-2.1
				c0-0.6,0.2-1.5,1.2-2.1c0.8-0.4,1.9-0.5,2.4-0.5c0.3,0,0.5,0,1,0c0-0.9,0-1.2-0.3-1.6c-0.3-0.4-0.8-0.5-1.2-0.5
				c-1.3,0-1.4,0.9-1.4,1.2h-1.3c0-0.4,0.1-0.9,0.5-1.3c0.5-0.6,1.5-0.8,2.3-0.8c1,0,2.1,0.3,2.5,1c0.2,0.4,0.2,0.8,0.2,1.1
				l-0.1,3.4c0,0.1,0,1,0.1,1.8H174.8z M173.9,177.4c-0.5,0-2.5,0-2.5,1.4c0,0.4,0.3,1.2,1.5,1.2c0.7,0,1.2-0.3,1.5-0.8
				c0.3-0.5,0.3-0.9,0.3-1.8C174.4,177.4,174.2,177.4,173.9,177.4z"/>
			<path class="st22" d="M179.1,177.6c0,1.5,0.6,2.5,2,2.5c0.9,0,1.5-0.4,1.7-1.5h1.3c0,0.4-0.1,0.9-0.6,1.5c-0.3,0.4-1,0.9-2.4,0.9
				c-2.2,0-3.3-1.4-3.3-3.6c0-1.4,0.3-2.5,1.4-3.3c0.7-0.5,1.5-0.5,1.9-0.5c3.2,0,3.1,2.8,3.1,3.9H179.1z M182.8,176.6
				c0-0.7-0.1-2.1-1.7-2.1c-0.9,0-1.9,0.5-1.9,2.1H182.8z"/>
			<path class="st22" d="M189.6,171.7c-0.2,0-0.5,0-0.8,0c-1.1,0-1.1,0.5-1.1,1v1.1h1.6v1h-1.6v6.1h-1.3v-6.1h-1.4v-1h1.4V173
				c0-1,0.1-1.3,0.3-1.7c0.3-0.4,0.9-0.8,1.8-0.8c0.4,0,0.8,0.1,1.1,0.1V171.7z"/>
			<path class="st22" d="M194.2,171.7c-0.2,0-0.5,0-0.8,0c-1.1,0-1.1,0.5-1.1,1v1.1h1.6v1h-1.6v6.1h-1.3v-6.1h-1.4v-1h1.4V173
				c0-1,0.1-1.3,0.3-1.7c0.3-0.5,0.9-0.8,1.8-0.8c0.4,0,0.8,0.1,1.1,0.1V171.7z M195.4,170.7h1.3v10.1h-1.3V170.7z"/>
			<path class="st22" d="M200.1,177.6c0,1.5,0.6,2.5,2,2.5c0.9,0,1.5-0.4,1.7-1.5h1.3c0,0.4-0.1,0.9-0.6,1.5c-0.3,0.4-1,0.9-2.4,0.9
				c-2.2,0-3.3-1.4-3.3-3.6c0-1.4,0.3-2.5,1.4-3.3c0.7-0.5,1.5-0.5,1.9-0.5c3.2,0,3.1,2.8,3.1,3.9H200.1z M203.8,176.6
				c0-0.7-0.1-2.1-1.7-2.1c-0.9,0-1.9,0.5-1.9,2.1H203.8z"/>
			<path class="st22" d="M207.1,175.2c0-0.5,0-1-0.1-1.4h1.3l0,1.4c0.3-1,1.1-1.3,1.7-1.4c0.4-0.1,0.7,0,0.9,0v1.3
				c-0.1,0-0.2,0-0.3-0.1c-0.1,0-0.2,0-0.4,0c-1.6,0-1.9,0.9-1.9,2.1v3.7h-1.3V175.2z"/>
		</g>
	</g>
	<g>
		<g>
			<path class="st22" d="M146.5,302.6v-8.9h-3.4v-1.2h8.2v1.2h-3.4v8.9H146.5z"/>
			<path class="st22" d="M153.4,299.3c0,1.5,0.6,2.5,2,2.5c0.9,0,1.5-0.4,1.7-1.5h1.3c0,0.4-0.1,0.9-0.6,1.5c-0.3,0.4-1,0.9-2.4,0.9
				c-2.2,0-3.3-1.4-3.3-3.6c0-1.4,0.3-2.5,1.4-3.3c0.7-0.5,1.5-0.5,1.9-0.5c3.2,0,3.1,2.8,3.1,3.9H153.4z M157.1,298.4
				c0-0.7-0.1-2.1-1.7-2.1c-0.9,0-1.9,0.5-1.9,2.1H157.1z"/>
			<path class="st22" d="M164.4,297.8c0-0.3-0.1-1.5-1.4-1.5c-1.8,0-1.8,2.1-1.8,2.6c0,1.4,0.4,2.8,1.8,2.8c1.1,0,1.5-0.8,1.5-1.5
				h1.3c-0.1,1.4-1.1,2.5-2.8,2.5c-0.5,0-1.6-0.1-2.3-0.9c-0.4-0.5-0.8-1.2-0.8-2.7c0-2.9,1.8-3.8,3.2-3.8c0.5,0,1.5,0.1,2.2,0.9
				c0.5,0.6,0.6,1.2,0.6,1.6H164.4z"/>
			<path class="st22" d="M167.4,292.5h1.3v4.1c0.4-0.7,1.3-1.2,2.3-1.2c0.7,0,1.8,0.3,2.2,1.1c0.1,0.3,0.2,0.6,0.2,1.6v4.4h-1.3
				v-4.2c0-0.6,0-2-1.5-2c-1,0-1.5,0.6-1.7,0.9c-0.2,0.4-0.2,1.1-0.2,1.5v3.7h-1.3V292.5z"/>
			<path class="st22" d="M176.7,299.3c0,1.5,0.6,2.5,2,2.5c0.9,0,1.5-0.4,1.7-1.5h1.3c0,0.4-0.1,0.9-0.6,1.5c-0.3,0.4-1,0.9-2.4,0.9
				c-2.2,0-3.3-1.4-3.3-3.6c0-1.4,0.3-2.5,1.4-3.3c0.7-0.5,1.5-0.5,1.9-0.5c3.2,0,3.1,2.8,3.1,3.9H176.7z M180.5,298.4
				c0-0.7-0.1-2.1-1.7-2.1c-0.9,0-1.9,0.5-1.9,2.1H180.5z"/>
			<path class="st22" d="M184.5,299.3c0,1.5,0.6,2.5,2,2.5c0.9,0,1.5-0.4,1.7-1.5h1.3c0,0.4-0.1,0.9-0.6,1.5c-0.3,0.4-1,0.9-2.4,0.9
				c-2.2,0-3.3-1.4-3.3-3.6c0-1.4,0.3-2.5,1.4-3.3c0.7-0.5,1.5-0.5,1.9-0.5c3.2,0,3.1,2.8,3.1,3.9H184.5z M188.2,298.4
				c0-0.7-0.1-2.1-1.7-2.1c-0.9,0-1.9,0.5-1.9,2.1H188.2z"/>
			<path class="st22" d="M190.4,295.5h1.2V294l1.3-0.4v1.9h1.6v1H193v4.2c0,0.4,0,0.9,0.9,0.9c0.3,0,0.5,0,0.6-0.1v1
				c-0.2,0-0.6,0.1-1.1,0.1c-1.2,0-1.8-0.3-1.8-1.5v-4.7h-1.2V295.5z"/>
			<path class="st22" d="M200.5,302.6c-0.1-0.4-0.1-0.7-0.1-1.1c-0.6,1.2-1.6,1.3-2.2,1.3c-1.6,0-2.5-0.9-2.5-2.1
				c0-0.6,0.2-1.5,1.2-2.1c0.8-0.4,1.9-0.5,2.4-0.5c0.3,0,0.5,0,1,0c0-0.9,0-1.2-0.3-1.6c-0.3-0.4-0.8-0.5-1.2-0.5
				c-1.3,0-1.4,0.9-1.4,1.2h-1.3c0-0.4,0.1-0.9,0.5-1.3c0.5-0.6,1.5-0.8,2.3-0.8c1,0,2.1,0.3,2.5,1c0.2,0.4,0.2,0.8,0.2,1.1
				l-0.1,3.4c0,0.1,0,1,0.1,1.8H200.5z M199.5,299.1c-0.5,0-2.5,0-2.5,1.4c0,0.4,0.3,1.2,1.5,1.2c0.7,0,1.2-0.3,1.5-0.8
				c0.3-0.5,0.3-0.9,0.3-1.8C200.1,299.1,199.9,299.1,199.5,299.1z"/>
			<path class="st22" d="M204,292.5h1.3v4.1c0.4-0.7,1.3-1.2,2.3-1.2c0.7,0,1.8,0.3,2.2,1.1c0.1,0.3,0.2,0.6,0.2,1.6v4.4h-1.3v-4.2
				c0-0.6,0-2-1.5-2c-1,0-1.5,0.6-1.7,0.9c-0.2,0.4-0.2,1.1-0.2,1.5v3.7H204V292.5z"/>
		</g>
	</g>
	<g>
		<g>
			<path class="st22" d="M109.8,322.9h3.6c0.5,0,1.6,0,2.3,0.5c0.8,0.5,1.1,1.2,1.1,2.1c0,0.7-0.3,1.3-0.7,1.8
				c-0.4,0.4-0.9,0.6-1.2,0.7c1,0.3,1.4,0.7,1.5,1.9c0.1,1.2,0.2,2.1,0.6,3.2h-1.5c-0.2-0.7-0.4-1.9-0.5-2.7
				c-0.2-1.5-0.5-1.9-2.2-1.9h-1.8v4.6h-1.4V322.9z M111.2,327.2h2.2c0.2,0,1,0,1.3-0.2c0.2-0.1,0.7-0.5,0.7-1.3
				c0-1.6-1.5-1.6-2-1.6h-2.2V327.2z"/>
			<path class="st22" d="M120,329.7c0,1.5,0.6,2.5,2,2.5c0.9,0,1.5-0.4,1.7-1.5h1.3c0,0.4-0.1,0.9-0.6,1.5c-0.3,0.4-1,0.9-2.4,0.9
				c-2.2,0-3.3-1.4-3.3-3.6c0-1.4,0.3-2.5,1.4-3.3c0.7-0.5,1.5-0.5,1.9-0.5c3.2,0,3.1,2.8,3.1,3.9H120z M123.7,328.8
				c0-0.7-0.1-2.1-1.7-2.1c-0.9,0-1.9,0.5-1.9,2.1H123.7z"/>
			<path class="st22" d="M127,326.8l0-0.8h1.3l0,1.1c0.2-0.3,0.7-1.3,2.3-1.3c0.6,0,2.5,0.2,2.5,2.4v4.8h-1.3v-4.5
				c0-0.5-0.1-0.9-0.4-1.2c-0.3-0.3-0.8-0.5-1.2-0.5c-1,0-1.8,0.7-1.8,2.1v4H127V326.8z"/>
			<path class="st22" d="M139.8,333c-0.1-0.4-0.1-0.7-0.1-1.1c-0.6,1.2-1.6,1.3-2.2,1.3c-1.6,0-2.5-0.9-2.5-2.1
				c0-0.6,0.2-1.5,1.2-2.1c0.8-0.4,1.9-0.5,2.4-0.5c0.3,0,0.5,0,1,0c0-0.9,0-1.2-0.3-1.6c-0.3-0.4-0.8-0.5-1.2-0.5
				c-1.3,0-1.4,0.9-1.4,1.2h-1.3c0-0.4,0.1-0.9,0.5-1.3c0.5-0.6,1.5-0.8,2.3-0.8c1,0,2.1,0.3,2.5,1c0.2,0.4,0.2,0.8,0.2,1.1
				l-0.1,3.4c0,0.1,0,1,0.1,1.8H139.8z M138.9,329.5c-0.5,0-2.5,0-2.5,1.4c0,0.4,0.3,1.2,1.5,1.2c0.7,0,1.2-0.3,1.5-0.8
				c0.3-0.5,0.3-0.9,0.3-1.8C139.4,329.5,139.2,329.5,138.9,329.5z"/>
			<path class="st22" d="M144.5,325.9v4.5c0,0.7,0.2,1.6,1.5,1.6c0.7,0,1.3-0.2,1.7-0.8c0.3-0.4,0.3-1,0.3-1.3v-4h1.4v5.7
				c0,0.1,0,0.9,0,1.3H148l0-1.2c-0.3,0.5-0.7,1.3-2.2,1.3c-1.7,0-2.5-1-2.5-2.4v-4.7H144.5z"/>
			<path class="st22" d="M151.9,322.9h1.3V333h-1.3V322.9z"/>
			<path class="st22" d="M154.6,325.9h1.2v-1.5l1.3-0.4v1.9h1.6v1h-1.6v4.2c0,0.4,0,0.9,0.9,0.9c0.3,0,0.5,0,0.6-0.1v1
				c-0.2,0-0.6,0.1-1.1,0.1c-1.2,0-1.8-0.3-1.8-1.5v-4.7h-1.2V325.9z"/>
			<path class="st22" d="M165.1,329.7c0,1.5,0.6,2.5,2,2.5c0.9,0,1.5-0.4,1.7-1.5h1.3c0,0.4-0.1,0.9-0.6,1.5c-0.3,0.4-1,0.9-2.4,0.9
				c-2.2,0-3.3-1.4-3.3-3.6c0-1.4,0.3-2.5,1.4-3.3c0.7-0.5,1.5-0.5,1.9-0.5c3.2,0,3.1,2.8,3.1,3.9H165.1z M168.8,328.8
				c0-0.7-0.1-2.1-1.7-2.1c-0.9,0-1.9,0.5-1.9,2.1H168.8z"/>
			<path class="st22" d="M172,331.3h1.6v1.7H172V331.3z"/>
			<path class="st22" d="M180.8,322.9h1.3v9c0,0.2,0,0.8,0.1,1.1h-1.3l0-1.1c-0.1,0.2-0.3,0.5-0.6,0.7c-0.6,0.4-1.3,0.5-1.7,0.5
				c-0.9,0-3-0.5-3-3.6c0-2.7,1.5-3.8,3.2-3.8c1.5,0,2,0.9,2.2,1.2V322.9z M180.3,327.4c-0.3-0.4-0.8-0.7-1.5-0.7
				c-1.9,0-1.9,2.3-1.9,2.8c0,1.2,0.3,2.7,1.9,2.7c2.1,0,2.1-2.3,2.1-2.8C180.9,328.3,180.6,327.8,180.3,327.4z"/>
			<path class="st22" d="M188.8,333c-0.1-0.4-0.1-0.7-0.1-1.1c-0.6,1.2-1.6,1.3-2.2,1.3c-1.6,0-2.5-0.9-2.5-2.1
				c0-0.6,0.2-1.5,1.2-2.1c0.8-0.4,1.9-0.5,2.4-0.5c0.3,0,0.5,0,1,0c0-0.9,0-1.2-0.3-1.6c-0.3-0.4-0.8-0.5-1.2-0.5
				c-1.3,0-1.4,0.9-1.4,1.2h-1.3c0-0.4,0.1-0.9,0.5-1.3c0.5-0.6,1.5-0.8,2.3-0.8c1,0,2.1,0.3,2.5,1c0.2,0.4,0.2,0.8,0.2,1.1
				l-0.1,3.4c0,0.1,0,1,0.1,1.8H188.8z M187.9,329.5c-0.5,0-2.5,0-2.5,1.4c0,0.4,0.3,1.2,1.5,1.2c0.7,0,1.2-0.3,1.5-0.8
				c0.3-0.5,0.3-0.9,0.3-1.8C188.4,329.5,188.2,329.5,187.9,329.5z"/>
			<path class="st22" d="M192.3,326.9l0-0.9h1.3v1c0.7-1.1,1.6-1.2,2.2-1.2c1.6,0,2,0.8,2.3,1.3c0.2-0.4,0.8-1.3,2.4-1.3
				c1,0,2.6,0.4,2.6,2.5v4.7h-1.3v-4.5c0-0.6-0.1-0.9-0.2-1.1c-0.2-0.3-0.7-0.6-1.3-0.6c-0.9,0-1.3,0.5-1.5,0.7
				c-0.3,0.4-0.3,1.2-0.3,1.5v3.9H197v-4.7c0-0.9-0.5-1.5-1.5-1.5c-0.9,0-1.4,0.6-1.5,0.8c-0.3,0.4-0.3,1-0.3,1.4v4h-1.3V326.9z"/>
			<path class="st22" d="M206.3,330.9c0,0.5,0.3,1.3,1.5,1.3c0.5,0,1-0.1,1.2-0.4c0.1-0.2,0.2-0.4,0.2-0.7c0-0.7-0.5-0.8-1.5-1.1
				c-1.5-0.3-2.7-0.6-2.7-2.1c0-1.3,1.1-2.1,2.7-2.1c0.9,0,2.1,0.3,2.5,1.1c0.2,0.4,0.2,0.7,0.2,1h-1.3c0-1.1-0.9-1.1-1.4-1.1
				c-0.2,0-1.4,0-1.4,1c0,0.6,0.6,0.8,1,0.9c1.9,0.5,2.4,0.6,2.8,1c0.4,0.4,0.5,0.9,0.5,1.3c0,0.8-0.4,1.5-1,1.8
				c-0.6,0.4-1.4,0.5-2.1,0.5c-1.4,0-2.8-0.6-2.7-2.3H206.3z"/>
		</g>
	</g>
	<g>
		<g>
			<path class="st22" d="M99.7,231.6h2.5l2.9,8.3l2.9-8.3h2.3v10.1h-1.4v-9.1l-3.3,9.1h-1.3l-3.2-9v9h-1.4V231.6z"/>
			<path class="st22" d="M117.2,241.7c-0.1-0.4-0.1-0.7-0.1-1.1c-0.6,1.2-1.6,1.3-2.2,1.3c-1.6,0-2.5-0.9-2.5-2.1
				c0-0.6,0.2-1.5,1.2-2.1c0.8-0.4,1.9-0.5,2.4-0.5c0.3,0,0.5,0,1,0c0-0.9,0-1.2-0.3-1.6c-0.3-0.4-0.8-0.5-1.2-0.5
				c-1.3,0-1.4,0.9-1.4,1.2h-1.3c0-0.4,0.1-0.9,0.5-1.3c0.5-0.6,1.5-0.8,2.3-0.8c1,0,2.1,0.3,2.5,1c0.2,0.4,0.2,0.8,0.2,1.1
				l-0.1,3.4c0,0.1,0,1,0.1,1.8H117.2z M116.3,238.2c-0.5,0-2.5,0-2.5,1.4c0,0.4,0.3,1.2,1.5,1.2c0.7,0,1.2-0.3,1.5-0.8
				c0.3-0.5,0.3-0.9,0.3-1.8C116.8,238.2,116.6,238.2,116.3,238.2z"/>
			<path class="st22" d="M120.7,231.6h1.3v4.1c0.4-0.7,1.3-1.2,2.3-1.2c0.7,0,1.8,0.3,2.2,1.1c0.1,0.3,0.2,0.6,0.2,1.6v4.4h-1.3
				v-4.2c0-0.6,0-2-1.5-2c-1,0-1.5,0.6-1.7,0.9c-0.2,0.4-0.2,1.1-0.2,1.5v3.7h-1.3V231.6z"/>
			<path class="st22" d="M129.1,231.6h1.6v1.4h-1.6V231.6z M129.3,234.7h1.3v7h-1.3V234.7z"/>
			<path class="st22" d="M133.2,235.5l0-0.8h1.3l0,1.1c0.2-0.3,0.7-1.3,2.3-1.3c0.6,0,2.5,0.2,2.5,2.4v4.8H138v-4.5
				c0-0.5-0.1-0.9-0.4-1.2c-0.3-0.3-0.8-0.5-1.2-0.5c-1,0-1.8,0.7-1.8,2.1v4h-1.3V235.5z"/>
			<path class="st22" d="M146.6,231.6h1.3v9c0,0.2,0,0.8,0.1,1.1h-1.3l0-1.1c-0.1,0.2-0.3,0.5-0.6,0.7c-0.6,0.4-1.3,0.5-1.7,0.5
				c-0.9,0-3-0.5-3-3.6c0-2.7,1.5-3.8,3.2-3.8c1.5,0,2,0.9,2.2,1.2V231.6z M146.1,236.1c-0.3-0.4-0.8-0.7-1.5-0.7
				c-1.9,0-1.9,2.3-1.9,2.8c0,1.2,0.3,2.7,1.9,2.7c2.1,0,2.1-2.3,2.1-2.8C146.6,237.1,146.4,236.5,146.1,236.1z"/>
			<path class="st22" d="M150.3,236.1c0-0.5,0-1-0.1-1.4h1.3l0,1.4c0.3-1,1.1-1.3,1.7-1.4c0.4-0.1,0.7,0,0.9,0v1.3
				c-0.1,0-0.2,0-0.3-0.1c-0.1,0-0.2,0-0.4,0c-1.6,0-1.9,0.9-1.9,2.1v3.7h-1.3V236.1z"/>
			<path class="st22" d="M160,241.7c-0.1-0.4-0.1-0.7-0.1-1.1c-0.6,1.2-1.6,1.3-2.2,1.3c-1.6,0-2.5-0.9-2.5-2.1
				c0-0.6,0.2-1.5,1.2-2.1c0.8-0.4,1.9-0.5,2.4-0.5c0.3,0,0.5,0,1,0c0-0.9,0-1.2-0.3-1.6c-0.3-0.4-0.8-0.5-1.2-0.5
				c-1.3,0-1.4,0.9-1.4,1.2h-1.3c0-0.4,0.1-0.9,0.5-1.3c0.5-0.6,1.5-0.8,2.3-0.8c1,0,2.1,0.3,2.5,1c0.2,0.4,0.2,0.8,0.2,1.1
				l-0.1,3.4c0,0.1,0,1,0.1,1.8H160z M159.1,238.2c-0.5,0-2.5,0-2.5,1.4c0,0.4,0.3,1.2,1.5,1.2c0.7,0,1.2-0.3,1.5-0.8
				c0.3-0.5,0.3-0.9,0.3-1.8C159.6,238.2,159.4,238.2,159.1,238.2z"/>
			<path class="st22" d="M167.4,231.6h3.6c0.5,0,1.6,0,2.3,0.5c0.8,0.5,1.1,1.2,1.1,2.1c0,0.7-0.3,1.3-0.7,1.8
				c-0.4,0.4-0.9,0.6-1.2,0.7c1,0.3,1.4,0.7,1.5,1.9c0.1,1.2,0.2,2.1,0.6,3.2h-1.5c-0.2-0.7-0.4-1.9-0.5-2.7
				c-0.2-1.5-0.5-1.9-2.2-1.9h-1.8v4.6h-1.4V231.6z M168.7,235.9h2.2c0.2,0,1,0,1.3-0.2c0.2-0.1,0.7-0.5,0.7-1.3
				c0-1.6-1.5-1.6-2-1.6h-2.2V235.9z"/>
			<path class="st22" d="M181,241.7c-0.1-0.4-0.1-0.7-0.1-1.1c-0.6,1.2-1.6,1.3-2.2,1.3c-1.6,0-2.5-0.9-2.5-2.1
				c0-0.6,0.2-1.5,1.2-2.1c0.8-0.4,1.9-0.5,2.4-0.5c0.3,0,0.5,0,1,0c0-0.9,0-1.2-0.3-1.6c-0.3-0.4-0.8-0.5-1.2-0.5
				c-1.3,0-1.4,0.9-1.4,1.2h-1.3c0-0.4,0.1-0.9,0.5-1.3c0.5-0.6,1.5-0.8,2.3-0.8c1,0,2.1,0.3,2.5,1c0.2,0.4,0.2,0.8,0.2,1.1
				l-0.1,3.4c0,0.1,0,1,0.1,1.8H181z M180.1,238.2c-0.5,0-2.5,0-2.5,1.4c0,0.4,0.3,1.2,1.5,1.2c0.7,0,1.2-0.3,1.5-0.8
				c0.3-0.5,0.3-0.9,0.3-1.8C180.6,238.2,180.4,238.2,180.1,238.2z"/>
			<path class="st22" d="M188.5,236.9c0-0.3-0.1-1.5-1.4-1.5c-1.8,0-1.8,2.1-1.8,2.6c0,1.4,0.4,2.8,1.8,2.8c1.1,0,1.5-0.8,1.5-1.5
				h1.3c-0.1,1.4-1.1,2.5-2.8,2.5c-0.5,0-1.6-0.1-2.3-0.9c-0.4-0.5-0.8-1.2-0.8-2.7c0-2.9,1.8-3.8,3.2-3.8c0.5,0,1.5,0.1,2.2,0.9
				c0.5,0.6,0.6,1.2,0.6,1.6H188.5z"/>
			<path class="st22" d="M191.4,231.6h1.6v1.4h-1.6V231.6z M191.5,234.7h1.3v7h-1.3V234.7z"/>
			<path class="st22" d="M195.4,235.5l0-0.8h1.3l0,1.1c0.2-0.3,0.7-1.3,2.3-1.3c0.6,0,2.5,0.2,2.5,2.4v4.8h-1.3v-4.5
				c0-0.5-0.1-0.9-0.4-1.2c-0.3-0.3-0.8-0.5-1.2-0.5c-1,0-1.8,0.7-1.8,2.1v4h-1.3V235.5z"/>
			<path class="st22" d="M205.2,242.2c0.1,0.8,0.4,1.4,1.6,1.4c1.8,0,1.9-1.3,1.9-3.2c-0.6,1.2-1.9,1.2-2.3,1.2
				c-0.6,0-1.6-0.1-2.2-0.9c-0.6-0.7-0.8-1.7-0.8-2.6c0-2.4,1.4-3.5,3.1-3.5c1.4,0,1.9,0.7,2.2,1.1l0-1h1.3l0,1.3l0,4.4
				c0,1.7-0.1,2.4-0.3,2.9c-0.6,1.1-2,1.3-2.9,1.3c-2.8,0-2.9-1.3-3-2.3H205.2z M208.3,239.9c0.3-0.4,0.5-0.7,0.5-2
				c0-0.9-0.2-1.4-0.5-1.8c-0.4-0.4-0.9-0.6-1.5-0.6c-1.7,0-1.9,1.7-1.9,2.6c0,1.1,0.3,2.5,1.9,2.5
				C207.5,240.6,208,240.3,208.3,239.9z"/>
		</g>
	</g>
	<g>
		<g>
			<path class="st22" d="M115.4,353.3h1.9l5,8.4v-8.4h1.3v10.1h-1.8l-5.1-8.6v8.6h-1.3V353.3z"/>
			<path class="st22" d="M126.2,353.3h1.4v10.1h-1.4V353.3z"/>
			<path class="st22" d="M130.9,354.4c1.1-1.1,2.4-1.4,3.4-1.4c2.8,0,4.6,1.8,4.6,5.2c0,2.7-1.1,5.4-4.7,5.4c-3.4,0-4.6-2.5-4.6-5.2
				C129.6,357.3,129.8,355.6,130.9,354.4z M132,361.5c0.6,0.7,1.4,0.9,2.2,0.9c0.8,0,1.7-0.2,2.2-0.9c0.8-1,0.9-2.6,0.9-3.3
				c0-2.3-0.8-4-3.1-4c-2.6,0-3.2,2.1-3.2,4.1C131.1,359.4,131.3,360.7,132,361.5z"/>
			<path class="st22" d="M144.9,353.3h6v1.2h-4.6v3.2h4.3v1.2h-4.3v4.6h-1.4V353.3z"/>
			<path class="st22" d="M155.7,356.2c2.8,0,3.4,2.2,3.4,3.7c0,2.1-1.2,3.8-3.6,3.8c-2.3,0-3.5-1.6-3.5-3.7
				C152.1,358.2,152.9,356.2,155.7,356.2z M155.6,362.7c1,0,2.1-0.7,2.1-2.8c0-1.8-0.8-2.7-2-2.7c-0.8,0-2.2,0.5-2.2,2.7
				C153.5,361.3,154.1,362.7,155.6,362.7z"/>
			<path class="st22" d="M161.2,357.8c0-0.5,0-1-0.1-1.4h1.3l0,1.4c0.3-1,1.1-1.3,1.7-1.4c0.4-0.1,0.7,0,0.9,0v1.3
				c-0.1,0-0.2,0-0.3-0.1c-0.1,0-0.2,0-0.4,0c-1.6,0-1.9,0.9-1.9,2.1v3.7h-1.3V357.8z"/>
			<path class="st22" d="M166.6,357.3l0-0.9h1.3v1c0.7-1.1,1.6-1.2,2.2-1.2c1.6,0,2,0.8,2.3,1.3c0.2-0.4,0.8-1.3,2.4-1.3
				c1,0,2.6,0.4,2.6,2.5v4.7H176v-4.5c0-0.6-0.1-0.9-0.2-1.1c-0.2-0.3-0.7-0.6-1.3-0.6c-0.9,0-1.3,0.5-1.5,0.7
				c-0.3,0.4-0.3,1.2-0.3,1.5v3.9h-1.3v-4.7c0-0.9-0.5-1.5-1.5-1.5c-0.9,0-1.4,0.6-1.5,0.8c-0.3,0.4-0.3,1-0.3,1.4v4h-1.3V357.3z"/>
			<path class="st22" d="M181,356.4v4.5c0,0.7,0.2,1.6,1.5,1.6c0.7,0,1.3-0.2,1.7-0.8c0.3-0.4,0.3-1,0.3-1.3v-4h1.4v5.7
				c0,0.1,0,0.9,0,1.3h-1.4l0-1.2c-0.3,0.5-0.7,1.3-2.2,1.3c-1.7,0-2.5-1-2.5-2.4v-4.7H181z"/>
			<path class="st22" d="M188.4,353.3h1.3v10.1h-1.3V353.3z"/>
			<path class="st22" d="M196.6,363.4c-0.1-0.4-0.1-0.7-0.1-1.1c-0.6,1.2-1.6,1.3-2.2,1.3c-1.6,0-2.5-0.9-2.5-2.1
				c0-0.6,0.2-1.5,1.2-2.1c0.8-0.4,1.9-0.5,2.4-0.5c0.3,0,0.5,0,1,0c0-0.9,0-1.2-0.3-1.6c-0.3-0.4-0.8-0.5-1.2-0.5
				c-1.3,0-1.4,0.9-1.4,1.2h-1.3c0-0.4,0.1-0.9,0.5-1.3c0.5-0.6,1.5-0.8,2.3-0.8c1,0,2.1,0.3,2.5,1c0.2,0.4,0.2,0.8,0.2,1.1
				l-0.1,3.4c0,0.1,0,1,0.1,1.8H196.6z M195.7,360c-0.5,0-2.5,0-2.5,1.4c0,0.4,0.3,1.2,1.5,1.2c0.7,0,1.2-0.3,1.5-0.8
				c0.3-0.5,0.3-0.9,0.3-1.8C196.2,360,196,360,195.7,360z"/>
			<path class="st22" d="M203.8,353.3h6.3v1.2h-4.9v3.2h4.7v1.2h-4.7v3.4h5.1v1.2h-6.5V353.3z"/>
		</g>
	</g>
	<g>
		<g>
			<path class="st22" d="M96.8,150.4h-1.5l-3.6-10.1h1.6l2.9,8.6l3-8.6h1.4L96.8,150.4z"/>
			<path class="st22" d="M102.8,147.1c0,1.5,0.6,2.5,2,2.5c0.9,0,1.5-0.4,1.7-1.5h1.3c0,0.4-0.1,0.9-0.6,1.5c-0.3,0.4-1,0.9-2.4,0.9
				c-2.2,0-3.3-1.4-3.3-3.6c0-1.4,0.3-2.5,1.4-3.3c0.7-0.5,1.5-0.5,1.9-0.5c3.2,0,3.1,2.8,3.1,3.9H102.8z M106.6,146.2
				c0-0.7-0.1-2.1-1.7-2.1c-0.9,0-1.9,0.5-1.9,2.1H106.6z"/>
			<path class="st22" d="M109.9,144.2l0-0.8h1.3l0,1.1c0.2-0.3,0.7-1.3,2.3-1.3c0.6,0,2.5,0.2,2.5,2.4v4.8h-1.3v-4.5
				c0-0.5-0.1-0.9-0.4-1.2c-0.3-0.3-0.8-0.5-1.2-0.5c-1,0-1.8,0.7-1.8,2.1v4h-1.3V144.2z"/>
			<path class="st22" d="M117.3,143.4h1.2v-1.5l1.3-0.4v1.9h1.6v1h-1.6v4.2c0,0.4,0,0.9,0.9,0.9c0.3,0,0.5,0,0.6-0.1v1
				c-0.2,0-0.6,0.1-1.1,0.1c-1.2,0-1.8-0.3-1.8-1.5v-4.7h-1.2V143.4z"/>
			<path class="st22" d="M124.3,143.4v4.5c0,0.7,0.2,1.6,1.5,1.6c0.7,0,1.3-0.2,1.7-0.8c0.3-0.4,0.3-1,0.3-1.3v-4h1.4v5.7
				c0,0.1,0,0.9,0,1.3h-1.4l0-1.2c-0.3,0.5-0.7,1.3-2.2,1.3c-1.7,0-2.5-1-2.5-2.4v-4.7H124.3z"/>
			<path class="st22" d="M131.7,144.8c0-0.5,0-1-0.1-1.4h1.3l0,1.4c0.3-1,1.1-1.3,1.7-1.4c0.4-0.1,0.7,0,0.9,0v1.3
				c-0.1,0-0.2,0-0.3-0.1c-0.1,0-0.2,0-0.4,0c-1.6,0-1.9,0.9-1.9,2.1v3.7h-1.3V144.8z"/>
			<path class="st22" d="M136.9,140.3h1.6v1.4h-1.6V140.3z M137.1,143.4h1.3v7h-1.3V143.4z"/>
			<path class="st22" d="M144.9,140.3h6v1.2h-4.6v3.2h4.3v1.2h-4.3v4.6h-1.4V140.3z"/>
			<path class="st22" d="M155.7,143.2c2.8,0,3.4,2.2,3.4,3.7c0,2.1-1.2,3.8-3.6,3.8c-2.3,0-3.5-1.6-3.5-3.7
				C152.1,145.2,152.9,143.2,155.7,143.2z M155.6,149.7c1,0,2.1-0.7,2.1-2.8c0-1.8-0.8-2.7-2-2.7c-0.8,0-2.2,0.5-2.2,2.7
				C153.5,148.3,154.1,149.7,155.6,149.7z"/>
			<path class="st22" d="M161.2,144.8c0-0.5,0-1-0.1-1.4h1.3l0,1.4c0.3-1,1.1-1.3,1.7-1.4c0.4-0.1,0.7,0,0.9,0v1.3
				c-0.1,0-0.2,0-0.3-0.1c-0.1,0-0.2,0-0.4,0c-1.6,0-1.9,0.9-1.9,2.1v3.7h-1.3V144.8z"/>
			<path class="st22" d="M166.6,144.3l0-0.9h1.3v1c0.7-1.1,1.6-1.2,2.2-1.2c1.6,0,2,0.8,2.3,1.3c0.2-0.4,0.8-1.3,2.4-1.3
				c1,0,2.6,0.4,2.6,2.5v4.7H176v-4.5c0-0.6-0.1-0.9-0.2-1.1c-0.2-0.3-0.7-0.6-1.3-0.6c-0.9,0-1.3,0.5-1.5,0.7
				c-0.3,0.4-0.3,1.2-0.3,1.5v3.9h-1.3v-4.7c0-0.9-0.5-1.5-1.5-1.5c-0.9,0-1.4,0.6-1.5,0.8c-0.3,0.4-0.3,1-0.3,1.4v4h-1.3V144.3z"/>
			<path class="st22" d="M181,143.4v4.5c0,0.7,0.2,1.6,1.5,1.6c0.7,0,1.3-0.2,1.7-0.8c0.3-0.4,0.3-1,0.3-1.3v-4h1.4v5.7
				c0,0.1,0,0.9,0,1.3h-1.4l0-1.2c-0.3,0.5-0.7,1.3-2.2,1.3c-1.7,0-2.5-1-2.5-2.4v-4.7H181z"/>
			<path class="st22" d="M188.4,140.3h1.3v10.1h-1.3V140.3z"/>
			<path class="st22" d="M196.6,150.4c-0.1-0.4-0.1-0.7-0.1-1.1c-0.6,1.2-1.6,1.3-2.2,1.3c-1.6,0-2.5-0.9-2.5-2.1
				c0-0.6,0.2-1.5,1.2-2.1c0.8-0.4,1.9-0.5,2.4-0.5c0.3,0,0.5,0,1,0c0-0.9,0-1.2-0.3-1.6c-0.3-0.4-0.8-0.5-1.2-0.5
				c-1.3,0-1.4,0.9-1.4,1.2h-1.3c0-0.4,0.1-0.9,0.5-1.3c0.5-0.6,1.5-0.8,2.3-0.8c1,0,2.1,0.3,2.5,1c0.2,0.4,0.2,0.8,0.2,1.1
				l-0.1,3.4c0,0.1,0,1,0.1,1.8H196.6z M195.7,147c-0.5,0-2.5,0-2.5,1.4c0,0.4,0.3,1.2,1.5,1.2c0.7,0,1.2-0.3,1.5-0.8
				c0.3-0.5,0.3-0.9,0.3-1.8C196.2,147,196,147,195.7,147z"/>
			<path class="st22" d="M203.8,140.3h6.3v1.2h-4.9v3.2h4.7v1.2h-4.7v3.4h5.1v1.2h-6.5V140.3z"/>
		</g>
	</g>
	<g>
		<rect x="225.3" y="348.2" class="st22" width="8.1" height="17.5"/>
		<rect x="225.3" y="317.8" class="st22" width="8.1" height="17.5"/>
		<rect x="225.3" y="287.5" class="st22" width="8.1" height="17.5"/>
		<rect x="225.3" y="196.4" class="st22" width="8.1" height="17.5"/>
		<rect x="225.3" y="135.7" class="st22" width="8.1" height="17.5"/>
		<rect x="225.3" y="105.3" class="st22" width="8.1" height="17.5"/>
		<rect x="225.3" y="75" class="st22" width="8.1" height="17.5"/>
		<rect x="225.3" y="257.1" class="st22" width="8.1" height="17.5"/>
		<rect x="225.3" y="226.8" class="st22" width="8.1" height="17.5"/>
		<rect x="225.3" y="166" class="st22" width="8.1" height="17.5"/>
	</g>
</g>
</svg>
