<?xml version="1.0" encoding="utf-8"?>
<!-- Generator: Adobe Illustrator 21.0.0, SVG Export Plug-In . SVG Version: 6.00 Build 0)  -->
<svg version="1.1" id="Layer_1" xmlns="http://www.w3.org/2000/svg" xmlns:xlink="http://www.w3.org/1999/xlink" x="0px" y="0px"
	 viewBox="0 0 797 395" enable-background="new 0 0 797 395" xml:space="preserve">
<g id="Layer_6">
	
		<linearGradient id="SVGID_1_" gradientUnits="userSpaceOnUse" x1="0" y1="489" x2="797.6" y2="489" gradientTransform="matrix(1 0 0 -1 0 687)">
		<stop  offset="0" style="stop-color:#41B9E6"/>
		<stop  offset="0.1805" style="stop-color:#3AAEE8"/>
		<stop  offset="0.5021" style="stop-color:#288FEE"/>
		<stop  offset="0.9246" style="stop-color:#0A5EF8"/>
		<stop  offset="0.9965" style="stop-color:#0555FA"/>
	</linearGradient>
	<rect y="0.5" fill="url(#SVGID_1_)" width="797.6" height="395"/>
</g>
<g id="lines">
	<g>
		
			<linearGradient id="SVGID_2_" gradientUnits="userSpaceOnUse" x1="391.2" y1="-708.9353" x2="703.5" y2="-708.9353" gradientTransform="matrix(1 0 0 1 0 1066.0853)">
			<stop  offset="0" style="stop-color:#41B9E6;stop-opacity:0.5"/>
			<stop  offset="0.5404" style="stop-color:#FFFFFF"/>
			<stop  offset="1" style="stop-color:#0555FA;stop-opacity:0.5"/>
		</linearGradient>
		
			<path opacity="0.4" fill="none" stroke="url(#SVGID_2_)" stroke-width="17" stroke-miterlimit="10" enable-background="new    " d="
			M391.2,356.3c66.6,0,47.5,1.7,149,1.7c11,0,4,0,13.8,0c59.9,0,57.1,0,149.5,0"/>
		
			<linearGradient id="SVGID_3_" gradientUnits="userSpaceOnUse" x1="232.4" y1="-709.3853" x2="377.1" y2="-709.3853" gradientTransform="matrix(1 0 0 1 0 1066.0853)">
			<stop  offset="0" style="stop-color:#FFFFFF"/>
			<stop  offset="1" style="stop-color:#41B9E6;stop-opacity:0"/>
		</linearGradient>
		
			<path opacity="0.5" fill="none" stroke="url(#SVGID_3_)" stroke-width="17" stroke-miterlimit="10" enable-background="new    " d="
			M232.4,357.1c44.1,0,116.4-0.8,144.7-0.8"/>
	</g>
	<g>
		
			<linearGradient id="SVGID_4_" gradientUnits="userSpaceOnUse" x1="391.2" y1="-784.1353" x2="703.5" y2="-784.1353" gradientTransform="matrix(1 0 0 1 0 1066.0853)">
			<stop  offset="0" style="stop-color:#41B9E6;stop-opacity:0.5"/>
			<stop  offset="0.5404" style="stop-color:#FFFFFF"/>
			<stop  offset="1" style="stop-color:#0555FA;stop-opacity:0.5"/>
		</linearGradient>
		
			<path opacity="0.4" fill="none" stroke="url(#SVGID_4_)" stroke-width="17" stroke-miterlimit="10" enable-background="new    " d="
			M391.2,223.2c32.8,0,49.6,117.5,149,117.5c11,0,4,0,13.8,0c68.3,0,66.9,0,149.5,0"/>
		
			<linearGradient id="SVGID_5_" gradientUnits="userSpaceOnUse" x1="232.4" y1="-791.1353" x2="377.1" y2="-791.1353" gradientTransform="matrix(1 0 0 1 0 1066.0853)">
			<stop  offset="0" style="stop-color:#FFFFFF"/>
			<stop  offset="1" style="stop-color:#41B9E6;stop-opacity:0"/>
		</linearGradient>
		
			<path opacity="0.5" fill="none" stroke="url(#SVGID_5_)" stroke-width="17" stroke-miterlimit="10" enable-background="new    " d="
			M232.4,326.7c67.4,0,109.4-103.5,144.7-103.5"/>
	</g>
	<g>
		
			<linearGradient id="SVGID_6_" gradientUnits="userSpaceOnUse" x1="391.2" y1="-801.5353" x2="703.5" y2="-801.5353" gradientTransform="matrix(1 0 0 1 0 1066.0853)">
			<stop  offset="0" style="stop-color:#41B9E6;stop-opacity:0.5"/>
			<stop  offset="0.5404" style="stop-color:#FFFFFF"/>
			<stop  offset="1" style="stop-color:#0555FA;stop-opacity:0.5"/>
		</linearGradient>
		
			<path opacity="0.4" fill="none" stroke="url(#SVGID_6_)" stroke-width="17" stroke-miterlimit="10" enable-background="new    " d="
			M391.2,205.7c51.6,0,58.6,117.7,149,117.7c11,0,4,0,13.8,0c81.2,0,72.1-0.2,149.5-0.2"/>
		
			<linearGradient id="SVGID_7_" gradientUnits="userSpaceOnUse" x1="232.4" y1="-815.2354" x2="377.1" y2="-815.2354" gradientTransform="matrix(1 0 0 1 0 1066.0853)">
			<stop  offset="0" style="stop-color:#FFFFFF"/>
			<stop  offset="1" style="stop-color:#41B9E6;stop-opacity:0"/>
		</linearGradient>
		
			<path opacity="0.5" fill="none" stroke="url(#SVGID_7_)" stroke-width="17" stroke-miterlimit="10" enable-background="new    " d="
			M232.4,296c51.4,0,104.2-90.3,144.7-90.3"/>
	</g>
	<g>
		
			<linearGradient id="SVGID_8_" gradientUnits="userSpaceOnUse" x1="391.1" y1="-819.1354" x2="703.4" y2="-819.1354" gradientTransform="matrix(1 0 0 1 0 1066.0853)">
			<stop  offset="0" style="stop-color:#41B9E6;stop-opacity:0.5"/>
			<stop  offset="0.5404" style="stop-color:#FFFFFF"/>
			<stop  offset="1" style="stop-color:#0555FA;stop-opacity:0.5"/>
		</linearGradient>
		
			<path opacity="0.4" fill="none" stroke="url(#SVGID_8_)" stroke-width="17" stroke-miterlimit="10" enable-background="new    " d="
			M703.4,250.4c-74,0-82.7,55.3-149.5,55.3c-9.8,0-2.7,0-13.8,0c-81.7,0-78.8-117.5-149-117.5"/>
		
			<linearGradient id="SVGID_9_" gradientUnits="userSpaceOnUse" x1="232.4" y1="-838.9353" x2="377.1" y2="-838.9353" gradientTransform="matrix(1 0 0 1 0 1066.0853)">
			<stop  offset="0" style="stop-color:#FFFFFF"/>
			<stop  offset="1" style="stop-color:#41B9E6;stop-opacity:0"/>
		</linearGradient>
		
			<path opacity="0.5" fill="none" stroke="url(#SVGID_9_)" stroke-width="17" stroke-miterlimit="10" enable-background="new    " d="
			M232.4,266c40.4,0,104.2-77.7,144.7-77.7"/>
	</g>
	<g>
		
			<linearGradient id="SVGID_10_" gradientUnits="userSpaceOnUse" x1="391.2" y1="-836.5353" x2="703.5" y2="-836.5353" gradientTransform="matrix(1 0 0 1 0 1066.0853)">
			<stop  offset="0" style="stop-color:#41B9E6;stop-opacity:0.5"/>
			<stop  offset="0.5404" style="stop-color:#FFFFFF"/>
			<stop  offset="1" style="stop-color:#0555FA;stop-opacity:0.5"/>
		</linearGradient>
		
			<path opacity="0.4" fill="none" stroke="url(#SVGID_10_)" stroke-width="17" stroke-miterlimit="10" enable-background="new    " d="
			M391.2,170.8c83.1,0,80.6,117.5,149,117.5c11,0,4,0,13.8,0c60.3,0,64.9-55.4,149.5-55.4"/>
		
			<linearGradient id="SVGID_11_" gradientUnits="userSpaceOnUse" x1="232.4" y1="-862.9353" x2="377.1" y2="-862.9353" gradientTransform="matrix(1 0 0 1 0 1066.0853)">
			<stop  offset="0" style="stop-color:#FFFFFF"/>
			<stop  offset="1" style="stop-color:#41B9E6;stop-opacity:0"/>
		</linearGradient>
		
			<path opacity="0.5" fill="none" stroke="url(#SVGID_11_)" stroke-width="17" stroke-miterlimit="10" enable-background="new    " d="
			M232.4,235.6c44.4,0,94.9-64.9,144.7-64.9"/>
	</g>
	<g>
		
			<linearGradient id="SVGID_12_" gradientUnits="userSpaceOnUse" x1="391.2" y1="-854.1353" x2="702.9" y2="-854.1353" gradientTransform="matrix(1 0 0 1 0 1066.0853)">
			<stop  offset="0" style="stop-color:#41B9E6;stop-opacity:0.5"/>
			<stop  offset="0.5404" style="stop-color:#FFFFFF"/>
			<stop  offset="1" style="stop-color:#0555FA;stop-opacity:0.5"/>
		</linearGradient>
		
			<path opacity="0.4" fill="none" stroke="url(#SVGID_12_)" stroke-width="17" stroke-miterlimit="10" enable-background="new    " d="
			M391.2,153.3c94.6,0,96.6,117.3,149,117.3c11,0,4,0,13.8,0c53.9,0,54.9-55.2,148.9-55.2"/>
		
			<linearGradient id="SVGID_13_" gradientUnits="userSpaceOnUse" x1="232.4" y1="-886.7853" x2="377.1" y2="-886.7853" gradientTransform="matrix(1 0 0 1 0 1066.0853)">
			<stop  offset="0" style="stop-color:#FFFFFF"/>
			<stop  offset="1" style="stop-color:#41B9E6;stop-opacity:0"/>
		</linearGradient>
		
			<path opacity="0.5" fill="none" stroke="url(#SVGID_13_)" stroke-width="17" stroke-miterlimit="10" enable-background="new    " d="
			M232.4,205.3c42.4,0,97.4-52,144.7-52"/>
	</g>
	<g>
		
			<linearGradient id="SVGID_14_" gradientUnits="userSpaceOnUse" x1="391.2" y1="-899.1853" x2="703.5" y2="-899.1853" gradientTransform="matrix(1 0 0 1 0 1066.0853)">
			<stop  offset="0" style="stop-color:#41B9E6;stop-opacity:0.5"/>
			<stop  offset="0.5404" style="stop-color:#FFFFFF"/>
			<stop  offset="1" style="stop-color:#0555FA;stop-opacity:0.5"/>
		</linearGradient>
		
			<path opacity="0.4" fill="none" stroke="url(#SVGID_14_)" stroke-width="17" stroke-miterlimit="10" enable-background="new    " d="
			M391.2,135.8c82.3,0,83,0.5,149,0.5c11,0,4,0,13.8,0c74.9,0,71.9,61.7,149.5,61.7"/>
		
			<linearGradient id="SVGID_15_" gradientUnits="userSpaceOnUse" x1="232.4" y1="-910.7354" x2="377.1" y2="-910.7354" gradientTransform="matrix(1 0 0 1 0 1066.0853)">
			<stop  offset="0" style="stop-color:#FFFFFF"/>
			<stop  offset="1" style="stop-color:#41B9E6;stop-opacity:0"/>
		</linearGradient>
		
			<path opacity="0.5" fill="none" stroke="url(#SVGID_15_)" stroke-width="17" stroke-miterlimit="10" enable-background="new    " d="
			M232.4,174.9c25.4,0,104.2-39.1,144.7-39.1"/>
	</g>
	<g>
		
			<linearGradient id="SVGID_16_" gradientUnits="userSpaceOnUse" x1="391.2" y1="-916.6353" x2="703.5" y2="-916.6353" gradientTransform="matrix(1 0 0 1 0 1066.0853)">
			<stop  offset="0" style="stop-color:#41B9E6;stop-opacity:0.5"/>
			<stop  offset="0.5404" style="stop-color:#FFFFFF"/>
			<stop  offset="1" style="stop-color:#0555FA;stop-opacity:0.5"/>
		</linearGradient>
		
			<path opacity="0.4" fill="none" stroke="url(#SVGID_16_)" stroke-width="17" stroke-miterlimit="10" enable-background="new    " d="
			M391.2,118.4c71.2,0,75,0.4,149.1,0.4c11,0,4,0,13.8,0c83.7,0,83.1,61.7,149.4,61.7"/>
		
			<linearGradient id="SVGID_17_" gradientUnits="userSpaceOnUse" x1="232.4" y1="-934.5853" x2="377.1" y2="-934.5853" gradientTransform="matrix(1 0 0 1 0 1066.0853)">
			<stop  offset="0" style="stop-color:#FFFFFF"/>
			<stop  offset="1" style="stop-color:#41B9E6;stop-opacity:0"/>
		</linearGradient>
		
			<path opacity="0.5" fill="none" stroke="url(#SVGID_17_)" stroke-width="17" stroke-miterlimit="10" enable-background="new    " d="
			M232.4,144.6c25.4,0,104.2-26.2,144.7-26.2"/>
	</g>
	<g>
		
			<linearGradient id="SVGID_18_" gradientUnits="userSpaceOnUse" x1="391.1" y1="-964.9854" x2="703.4" y2="-964.9854" gradientTransform="matrix(1 0 0 1 0 1066.0853)">
			<stop  offset="0" style="stop-color:#41B9E6;stop-opacity:0.5"/>
			<stop  offset="0.5404" style="stop-color:#FFFFFF"/>
			<stop  offset="1" style="stop-color:#0555FA;stop-opacity:0.5"/>
		</linearGradient>
		
			<path opacity="0.4" fill="none" stroke="url(#SVGID_18_)" stroke-width="17" stroke-miterlimit="10" enable-background="new    " d="
			M703.4,101.3c-63.2,0-66.2,0-149.5,0c0,0,18.9,0-13.8,0c-80.7,0-90-0.4-149-0.4"/>
		
			<linearGradient id="SVGID_19_" gradientUnits="userSpaceOnUse" x1="232.4" y1="-958.5353" x2="377.1" y2="-958.5353" gradientTransform="matrix(1 0 0 1 0 1066.0853)">
			<stop  offset="0" style="stop-color:#FFFFFF"/>
			<stop  offset="1" style="stop-color:#41B9E6;stop-opacity:0"/>
		</linearGradient>
		
			<path opacity="0.5" fill="none" stroke="url(#SVGID_19_)" stroke-width="17" stroke-miterlimit="10" enable-background="new    " d="
			M232.4,114.2c25.4,0,104.2-13.3,144.7-13.3"/>
	</g>
	<g>
		
			<linearGradient id="SVGID_20_" gradientUnits="userSpaceOnUse" x1="391.1" y1="-982.3853" x2="703.4" y2="-982.3853" gradientTransform="matrix(1 0 0 1 0 1066.0853)">
			<stop  offset="0" style="stop-color:#41B9E6;stop-opacity:0.5"/>
			<stop  offset="0.5404" style="stop-color:#FFFFFF"/>
			<stop  offset="1" style="stop-color:#0555FA;stop-opacity:0.5"/>
		</linearGradient>
		
			<path opacity="0.4" fill="none" stroke="url(#SVGID_20_)" stroke-width="17" stroke-miterlimit="10" enable-background="new    " d="
			M703.4,83.9c-63.7,0-80.2,0-149,0c0,0,17.9,0-14.8,0c-88.6,0-102.2-0.4-148.5-0.4"/>
		
			<linearGradient id="SVGID_21_" gradientUnits="userSpaceOnUse" x1="232.4" y1="-982.3853" x2="377.1" y2="-982.3853" gradientTransform="matrix(1 0 0 1 0 1066.0853)">
			<stop  offset="0" style="stop-color:#FFFFFF"/>
			<stop  offset="1" style="stop-color:#41B9E6;stop-opacity:0"/>
		</linearGradient>
		
			<path opacity="0.5" fill="none" stroke="url(#SVGID_21_)" stroke-width="17" stroke-miterlimit="10" enable-background="new    " d="
			M232.4,83.9c25.4,0,104.2-0.4,144.7-0.4"/>
	</g>
</g>
<g id="dida">
	<rect x="171.7" y="15" fill="none" width="465.2" height="58.4"/>
	<text transform="matrix(1 0 0 1 172.246 23.6312)" fill="#FFFFFF" font-family="'UniversLTStd'" font-size="12px">Teams have opted for different drivetrain solutions this season. See which are the </text>
	<text transform="matrix(1 0 0 1 186.646 40.4312)" fill="#FFFFFF" font-family="'UniversLTStd'" font-size="12px">popular choices and which teams are experimenting with something unique.</text>
</g>
<g id="fourth">
	<g>
		<text transform="matrix(1 0 0 1 724.5729 338.5908)" fill="#FFFFFF" font-family="'UniversLTStd-Light'" font-size="14px">Direct </text>
		<text transform="matrix(1 0 0 1 724.5729 355.3908)" fill="#FFFFFF" font-family="'UniversLTStd-Light'" font-size="14px">drive</text>
	</g>
	<g>
		<rect x="702.7" y="349.3" fill="#FFFFFF" width="14.1" height="17.5"/>
		<rect x="702.7" y="331.9" fill="#FFFFFF" width="14.1" height="17.5"/>
		<rect x="702.7" y="314.4" fill="#FFFFFF" width="14.1" height="17.5"/>
	</g>
	<g>
		<rect x="702.7" y="241.6" fill="#FFFFFF" width="14.1" height="17.5"/>
		<rect x="702.7" y="224.1" fill="#FFFFFF" width="14.1" height="17.5"/>
		<rect x="702.7" y="206.7" fill="#FFFFFF" width="14.1" height="17.5"/>
		<rect x="702.7" y="189.2" fill="#FFFFFF" width="14.1" height="17.5"/>
		<rect x="702.7" y="171.7" fill="#FFFFFF" width="14.1" height="17.5"/>
	</g>
	<g>
		<rect x="702.7" y="92.6" fill="#FFFFFF" width="14.1" height="17.5"/>
		<rect x="702.7" y="75.1" fill="#FFFFFF" width="14.1" height="17.5"/>
	</g>
	<text transform="matrix(1 0 0 1 724.2397 225.5918)" fill="#FFFFFF" font-family="'UniversLTStd-Light'" font-size="30px">2</text>
	<text transform="matrix(1 0 0 1 740.3396 225.5918)" fill="#FFFFFF" font-family="'UniversLTStd-Light'" font-size="14px"> gears</text>
	<text transform="matrix(1 0 0 1 724.2397 101.3394)" fill="#FFFFFF" font-family="'UniversLTStd-Light'" font-size="30px">3</text>
	<text transform="matrix(1 0 0 1 740.3396 101.3394)" fill="#FFFFFF" font-family="'UniversLTStd-Light'" font-size="14px"> gears</text>
</g>
<g id="third">
	<g>
		<text transform="matrix(1 0 0 1 559.7282 118.3623)" fill="#FFFFFF" font-family="'UniversLTStd-Light'" font-size="14px">Longitudinal</text>
	</g>
	<g>
		<text transform="matrix(1 0 0 1 559.7284 317.96)" fill="#FFFFFF" font-family="'UniversLTStd-Light'" font-size="14px">Transverse</text>
	</g>
	<g>
		<rect x="540.1" y="127.5" fill="#FFFFFF" width="14.1" height="17.5"/>
		<rect x="540.1" y="110.1" fill="#FFFFFF" width="14.1" height="17.5"/>
		<rect x="540.1" y="92.6" fill="#FFFFFF" width="14.1" height="17.5"/>
		<rect x="540.1" y="75.1" fill="#FFFFFF" width="14.1" height="17.5"/>
	</g>
	<g>
		<rect x="540.1" y="349.3" fill="#FFFFFF" width="14.1" height="17.5"/>
		<rect x="540.1" y="331.9" fill="#FFFFFF" width="14.1" height="17.5"/>
		<rect x="540.1" y="314.4" fill="#FFFFFF" width="14.1" height="17.5"/>
		<rect x="540.1" y="296.9" fill="#FFFFFF" width="14.1" height="17.5"/>
		<rect x="540.1" y="279.4" fill="#FFFFFF" width="14.1" height="17.5"/>
		<rect x="540.1" y="262" fill="#FFFFFF" width="14.1" height="17.5"/>
	</g>
</g>
<g id="second">
	<text transform="matrix(1 0 0 1 402.3724 150.6397)" fill="#FFFFFF" font-family="'UniversLTStd-Light'" font-size="30px">1</text>
	<text transform="matrix(1 0 0 1 415.4724 150.6397)" fill="#FFFFFF" font-family="'UniversLTStd-Light'" font-size="14px"> motor</text>
	<text transform="matrix(1 0 0 1 398.3724 366.7984)" fill="#FFFFFF" font-family="'UniversLTStd-Light'" font-size="30px">2</text>
	<text transform="matrix(1 0 0 1 414.4724 366.7984)" fill="#FFFFFF" font-family="'UniversLTStd-Light'" font-size="14px"> motors</text>
	<g>
		<rect x="377.1" y="347.6" fill="#FFFFFF" width="14.1" height="17.5"/>
	</g>
	<g>
		<rect x="377.1" y="214.5" fill="#FFFFFF" width="14.1" height="17.5"/>
		<rect x="377.1" y="197" fill="#FFFFFF" width="14.1" height="17.5"/>
		<rect x="377.1" y="179.5" fill="#FFFFFF" width="14.1" height="17.5"/>
		<rect x="377.1" y="162" fill="#FFFFFF" width="14.1" height="17.5"/>
		<rect x="377.1" y="144.6" fill="#FFFFFF" width="14.1" height="17.5"/>
		<rect x="377.1" y="127.1" fill="#FFFFFF" width="14.1" height="17.5"/>
		<rect x="377.1" y="109.6" fill="#FFFFFF" width="14.1" height="17.5"/>
		<rect x="377.1" y="92.2" fill="#FFFFFF" width="14.1" height="17.5"/>
		<rect x="377.1" y="74.7" fill="#FFFFFF" width="14.1" height="17.5"/>
	</g>
</g>
<g id="first">
	<g>
		<g>
			<text transform="matrix(1 0 0 1 14.5155 210.6607)" fill="#FFFFFF" font-family="'UniversLTStd'" font-size="14px">Faraday Future Dragon Racing</text>
		</g>
	</g>
	<g>
		<g>
			<text transform="matrix(1 0 0 1 103.9892 271.5156)" fill="#FFFFFF" font-family="'UniversLTStd'" font-size="14px">DS Virgin Racing</text>
		</g>
	</g>
	<g>
		<g>
			
				<text transform="matrix(0.9999 -1.252000e-02 1.252000e-02 0.9999 41.7443 120.4833)" fill="#FFFFFF" font-family="'UniversLTStd'" font-size="14px">ABT Schaeffler Audi Sport</text>
		</g>
	</g>
	<g>
		<g>
			<text transform="matrix(1 0 0 1 90.7873 88.9507)" fill="#FFFFFF" font-family="'UniversLTStd'" font-size="14px">Andretti Formula E</text>
		</g>
	</g>
	<text transform="matrix(1 0 0 1 49.529 180.2334)" fill="#FFFFFF" font-family="'UniversLTStd'" font-size="14px">Panasonic Jaguar Racing</text>
	<g>
		<g>
			<text transform="matrix(1 0 0 1 147.5566 301.9434)" fill="#FFFFFF" font-family="'UniversLTStd'" font-size="14px">Techeetah</text>
		</g>
	</g>
	<g>
		<g>
			<text transform="matrix(1 0 0 1 113.3263 332.3706)" fill="#FFFFFF" font-family="'UniversLTStd'" font-size="14px">Renault e.dams</text>
		</g>
	</g>
	<g>
		<g>
			<text transform="matrix(1 0 0 1 103.2192 241.0884)" fill="#FFFFFF" font-family="'UniversLTStd'" font-size="14px">Mahindra Racing</text>
		</g>
	</g>
	<g>
		<g>
			<text transform="matrix(1 0 0 1 130.4486 362.7984)" fill="#FFFFFF" font-family="'UniversLTStd'" font-size="14px">NEXTEV NIO</text>
		</g>
	</g>
	<g>
		<g>
			<text transform="matrix(1 0 0 1 96.2189 149.8057)" fill="#FFFFFF" font-family="'UniversLTStd'" font-size="14px">Venturi Formula E</text>
		</g>
	</g>
	<g>
		<g>
			<rect x="224.6" y="348.3" fill="#FFFFFF" width="7.8" height="17.5"/>
		</g>
		<rect x="224.6" y="318" fill="#FFFFFF" width="7.8" height="17.5"/>
		<rect x="224.6" y="287.6" fill="#FFFFFF" width="7.8" height="17.5"/>
		<rect x="224.6" y="257.3" fill="#FFFFFF" width="7.8" height="17.5"/>
		<rect x="224.6" y="226.9" fill="#FFFFFF" width="7.8" height="17.5"/>
		<rect x="224.6" y="196.5" fill="#FFFFFF" width="7.8" height="17.5"/>
		<rect x="224.6" y="166.2" fill="#FFFFFF" width="7.8" height="17.5"/>
		<rect x="224.6" y="135.8" fill="#FFFFFF" width="7.8" height="17.5"/>
		<rect x="224.6" y="105.5" fill="#FFFFFF" width="7.8" height="17.5"/>
		<rect x="224.6" y="75.1" fill="#FFFFFF" width="7.8" height="17.5"/>
	</g>
</g>
</svg>
