<svg id="Layer_1" data-name="Layer 1" xmlns="http://www.w3.org/2000/svg" viewBox="0 0 25 25"><title>icon_team_10th</title><path d="M9.66,9.74A3.84,3.84,0,0,1,9.3,10l-0.42.27-0.43.24-0.39.2v-1Q8.54,9.48,9,9.2a6.78,6.78,0,0,0,.74-0.54h0.88v6.88h-1V9.74Z" style="fill:#fff"/><path d="M12.33,12.18q0-.26,0-0.63a6.13,6.13,0,0,1,.09-0.77A5.08,5.08,0,0,1,12.66,10a2.5,2.5,0,0,1,.4-0.73,2,2,0,0,1,.64-0.52,2,2,0,0,1,.93-0.2,2.1,2.1,0,0,1,.88.17,1.92,1.92,0,0,1,.63.45,2.26,2.26,0,0,1,.41.65,4.24,4.24,0,0,1,.24.75,5.88,5.88,0,0,1,.11.78q0,0.39,0,.71a6.41,6.41,0,0,1-.24,2A2.76,2.76,0,0,1,16,15.15a1.76,1.76,0,0,1-.37.27,2.08,2.08,0,0,1-.38.16l-0.34.07-0.28,0a2,2,0,0,1-1.15-.34,1.92,1.92,0,0,1-.4-0.36,2.08,2.08,0,0,1-.28-0.44,4.48,4.48,0,0,1-.31-0.88A6.19,6.19,0,0,1,12.33,12.18Zm1,0a8.36,8.36,0,0,0,.06,1.07,3.36,3.36,0,0,0,.22.87,1.44,1.44,0,0,0,.41.58,1,1,0,0,0,.65.21,1,1,0,0,0,.69-0.25,1.65,1.65,0,0,0,.41-0.66,3.79,3.79,0,0,0,.19-0.88,9.24,9.24,0,0,0,0-.95A9.86,9.86,0,0,0,15.92,11a3.25,3.25,0,0,0-.21-0.88,1.4,1.4,0,0,0-.41-0.57,1,1,0,0,0-.65-0.2,1,1,0,0,0-.72.27,1.71,1.71,0,0,0-.41.68,3.86,3.86,0,0,0-.18.91Q13.28,11.67,13.29,12.13Z" style="fill:#fff"/><circle cx="12.5" cy="12.5" r="6.84" style="fill:none;stroke:#fff;stroke-linejoin:round"/><circle cx="12.5" cy="12.5" r="12.5" style="fill:none"/></svg>