<svg id="Layer_1" data-name="Layer 1" xmlns="http://www.w3.org/2000/svg" viewBox="0 0 25 25"><title>icon_team_9th</title><path d="M11.24,13.9a1,1,0,0,0,.26.73,1.1,1.1,0,0,0,.84.28,1.22,1.22,0,0,0,.88-0.29,1.69,1.69,0,0,0,.45-0.73A3.35,3.35,0,0,0,13.82,13c0-.33,0-0.63,0-0.9a1.61,1.61,0,0,1-.32.42,1.58,1.58,0,0,1-.38.26,1.61,1.61,0,0,1-.42.14,2.36,2.36,0,0,1-.42,0,2.29,2.29,0,0,1-.79-0.14,1.91,1.91,0,0,1-.67-0.41,2,2,0,0,1-.46-0.68,2.38,2.38,0,0,1-.17-0.94,2.39,2.39,0,0,1,.19-1,2,2,0,0,1,1.21-1.08,2.64,2.64,0,0,1,.8-0.12,2.88,2.88,0,0,1,.6.07,2.07,2.07,0,0,1,1.21.77,2.46,2.46,0,0,1,.41.85,5.54,5.54,0,0,1,.14.73,9.2,9.2,0,0,1,.05,1.12q0,0.26,0,.62a4.83,4.83,0,0,1-.08.77,4.29,4.29,0,0,1-.23.8A2.4,2.4,0,0,1,14,15a2.07,2.07,0,0,1-.72.52,2.57,2.57,0,0,1-1.07.2,3.28,3.28,0,0,1-.71-0.08,1.85,1.85,0,0,1-.66-0.28,1.59,1.59,0,0,1-.49-0.55,1.87,1.87,0,0,1-.2-0.88h1Zm2.46-3.13a1.81,1.81,0,0,0-.11-0.65,1.29,1.29,0,0,0-.3-0.47,1.27,1.27,0,0,0-.43-0.28,1.3,1.3,0,0,0-.49-0.09,1.13,1.13,0,0,0-.92.44,1.4,1.4,0,0,0-.23.47,2,2,0,0,0-.08.58,1.41,1.41,0,0,0,.37,1,1.27,1.27,0,0,0,.93.37,1.14,1.14,0,0,0,.92-0.39A1.5,1.5,0,0,0,13.7,10.77Z" style="fill:#fff"/><circle cx="12.5" cy="12.5" r="6.84" style="fill:none;stroke:#fff;stroke-linejoin:round"/><circle cx="12.5" cy="12.5" r="12.5" style="fill:none"/></svg>