<svg id="Layer_1" data-name="Layer 1" xmlns="http://www.w3.org/2000/svg" viewBox="0 0 25 25"><title>icon_team_3rd</title><path d="M11.72,11.44A1.1,1.1,0,0,0,13,12.57a1.23,1.23,0,0,0,1.38-1.23,1.2,1.2,0,0,0-1-1.22,3.88,3.88,0,0,0-1-.05V9.26c0.69,0.06,1.85-.08,1.85-1.2A1.05,1.05,0,0,0,13,7a1.16,1.16,0,0,0-1.26,1.09h-1A2,2,0,0,1,13,6.18,2,2,0,0,1,15.27,8a1.64,1.64,0,0,1-1.38,1.63,1.63,1.63,0,0,1,1.48,1.68,2.16,2.16,0,0,1-2.4,2,2.48,2.48,0,0,1-1.9-.72,1.8,1.8,0,0,1-.41-1.23h1.06Z" style="fill:#fff"/><path d="M13.06,4.58h6.36a15.07,15.07,0,0,1-5,11.71v0.29A3.63,3.63,0,0,0,18,20.21h0.79" style="fill:none;stroke:#fff;stroke-linejoin:round"/><path d="M13.06,4.58H6.7a15.07,15.07,0,0,0,5,11.71v0.29a3.63,3.63,0,0,1-3.63,3.63H7.31" style="fill:none;stroke:#fff;stroke-linejoin:round"/><path d="M5.31,10.18h0a1.88,1.88,0,0,0,1.33.55H7.77" style="fill:none;stroke:#fff;stroke-linejoin:round"/><path d="M20.87,10.18h0a1.88,1.88,0,0,1-1.33.55H18.41" style="fill:none;stroke:#fff;stroke-linejoin:round"/></svg>