<svg id="Layer_1" data-name="Layer 1" xmlns="http://www.w3.org/2000/svg" viewBox="0 0 25 25"><title>icon_team_1st</title><path d="M13,7.5a8.45,8.45,0,0,1-1.61,1v-1A10,10,0,0,0,13,6.41h0.89v6.92H13V7.5Z" style="fill:#fff"/><path d="M13,4.69H19.4a15.07,15.07,0,0,1-5,11.71v0.29A3.63,3.63,0,0,0,18,20.31h0.79" style="fill:none;stroke:#fff;stroke-linejoin:round"/><path d="M13,4.69H6.68a15.07,15.07,0,0,0,5,11.71v0.29a3.63,3.63,0,0,1-3.63,3.63H7.29" style="fill:none;stroke:#fff;stroke-linejoin:round"/><path d="M7.11,8.8l-0.82.82a1.88,1.88,0,0,0,1.33,3.22H8.75" style="fill:none;stroke:#fff;stroke-linejoin:round"/><path d="M19,8.8l0.82,0.82a1.88,1.88,0,0,1-1.33,3.22H17.39" style="fill:none;stroke:#fff;stroke-linejoin:round"/></svg>