<svg id="Layer_1" data-name="Layer 1" xmlns="http://www.w3.org/2000/svg" viewBox="0 0 25 25"><title>icon_team_2nd</title><path d="M10.79,12.42l1.81-1.78a10.07,10.07,0,0,0,1.07-1.19,2,2,0,0,0,.51-1.23,1,1,0,0,0-1.11-1.13A1.07,1.07,0,0,0,11.94,8.3h-1a1.94,1.94,0,0,1,.64-1.52,2.27,2.27,0,0,1,1.5-.5,1.93,1.93,0,0,1,2.14,2A2.4,2.4,0,0,1,14.39,10c-0.2.25-1.08,1.16-1.28,1.36L11.9,12.54h3.29v0.79h-4.4V12.42Z" style="fill:#fff"/><path d="M13,4.69H19.4a15.07,15.07,0,0,1-5,11.71v0.29A3.63,3.63,0,0,0,18,20.31h0.79" style="fill:none;stroke:#fff;stroke-linejoin:round"/><path d="M13,4.69H6.68a15.07,15.07,0,0,0,5,11.71v0.29a3.63,3.63,0,0,1-3.63,3.63H7.29" style="fill:none;stroke:#fff;stroke-linejoin:round"/><path d="M5.29,10.28h0a1.88,1.88,0,0,0,1.33.55H7.75" style="fill:none;stroke:#fff;stroke-linejoin:round"/><path d="M20.85,10.28h0a1.88,1.88,0,0,1-1.33.55H18.39" style="fill:none;stroke:#fff;stroke-linejoin:round"/></svg>