<svg id="Layer_1" data-name="Layer 1" xmlns="http://www.w3.org/2000/svg" viewBox="0 0 25 25"><title>icon_team_8th</title><path d="M11.63,11.9a1.76,1.76,0,0,1-1-.58,1.47,1.47,0,0,1-.35-0.95,2,2,0,0,1,.09-0.55,1.69,1.69,0,0,1,.34-0.62,2,2,0,0,1,.68-0.5,2.56,2.56,0,0,1,1.11-.21,3.1,3.1,0,0,1,1,.14,2.11,2.11,0,0,1,.71.39,1.67,1.67,0,0,1,.45.58,1.7,1.7,0,0,1,.15.73,1.55,1.55,0,0,1-.08.51,1.53,1.53,0,0,1-.25.46,1.47,1.47,0,0,1-.44.37,2,2,0,0,1-.62.22L13.76,12a1.71,1.71,0,0,1,.92.8,1.68,1.68,0,0,1,.18.82,2.1,2.1,0,0,1-.13.72,1.76,1.76,0,0,1-.41.65,2.12,2.12,0,0,1-.73.47,2.87,2.87,0,0,1-1.09.18,4,4,0,0,1-.92-0.11,1.89,1.89,0,0,1-.85-0.46,1.91,1.91,0,0,1-.44-0.62,1.83,1.83,0,0,1,0-1.44,1.65,1.65,0,0,1,.39-0.58,1.47,1.47,0,0,1,.51-0.35Zm-0.52,1.7a1.42,1.42,0,0,0,.07.42,1.13,1.13,0,0,0,.23.41,1.23,1.23,0,0,0,.43.31,1.58,1.58,0,0,0,.65.12,1.55,1.55,0,0,0,.68-0.13,1.19,1.19,0,0,0,.42-0.32A1.15,1.15,0,0,0,13.8,14a1.67,1.67,0,0,0,.06-0.42,1.18,1.18,0,0,0-.38-0.92,1.39,1.39,0,0,0-1-.34,1.59,1.59,0,0,0-.58.1,1.33,1.33,0,0,0-.44.27,1.19,1.19,0,0,0-.28.41A1.3,1.3,0,0,0,11.11,13.61Zm2.69-3.25a1.06,1.06,0,0,0-.33-0.8,1.32,1.32,0,0,0-1-.32,1.63,1.63,0,0,0-.52.08,1.26,1.26,0,0,0-.41.22,1,1,0,0,0-.27.35,1.06,1.06,0,0,0-.1.47,1,1,0,0,0,.1.45,1.12,1.12,0,0,0,.27.35,1.17,1.17,0,0,0,.4.23,1.56,1.56,0,0,0,.5.08,1.46,1.46,0,0,0,.94-0.3A1,1,0,0,0,13.8,10.35Z" style="fill:#fff"/><circle cx="12.5" cy="12.5" r="6.84" style="fill:none;stroke:#fff;stroke-linejoin:round"/><circle cx="12.5" cy="12.5" r="12.5" style="fill:none"/></svg>