<svg id="Layer_1" data-name="Layer 1" xmlns="http://www.w3.org/2000/svg" viewBox="0 0 25 25"><title>icon_team_5th</title><path d="M11.33,13.91a1,1,0,0,0,.11.44,1,1,0,0,0,.27.3,1.09,1.09,0,0,0,.36.17,1.46,1.46,0,0,0,.4.05,1.2,1.2,0,0,0,1.13-.62,1.65,1.65,0,0,0,.18-0.52,2.84,2.84,0,0,0,0-.44,1.56,1.56,0,0,0-.35-1.09,1.22,1.22,0,0,0-.95-0.39,1.35,1.35,0,0,0-.53.1,1.23,1.23,0,0,0-.39.26,1,1,0,0,0-.22.31l-0.1.27h-0.9l0.18-4.09h3.87v0.8h-3l-0.13,2.23,0.2-.19a1.82,1.82,0,0,1,.3-0.21,1.91,1.91,0,0,1,.95-0.24,2,2,0,0,1,.9.19,1.83,1.83,0,0,1,.64.5,2.16,2.16,0,0,1,.38.72,2.82,2.82,0,0,1,.13.86,2.47,2.47,0,0,1-.17.94,2.28,2.28,0,0,1-.49.76,2.21,2.21,0,0,1-.77.5,2.73,2.73,0,0,1-1,.18,2.58,2.58,0,0,1-.78-0.11,1.94,1.94,0,0,1-.64-0.34,1.62,1.62,0,0,1-.44-0.56,2,2,0,0,1-.18-0.78h1Z" style="fill:#fff"/><circle cx="12.5" cy="12.5" r="6.84" style="fill:none;stroke:#fff;stroke-linejoin:round"/><circle cx="12.5" cy="12.5" r="12.5" style="fill:none"/></svg>