<svg id="Layer_1" data-name="Layer 1" xmlns="http://www.w3.org/2000/svg" viewBox="0 0 25 25"><title>icon_team_6th</title><path d="M13.78,10.29a1.05,1.05,0,0,0-.11-0.5,1,1,0,0,0-.26-0.32,0.89,0.89,0,0,0-.34-0.16,1.46,1.46,0,0,0-.34,0,1.17,1.17,0,0,0-1.1.65,5,5,0,0,0-.42,2l0.2-.27a1.5,1.5,0,0,1,.31-0.28,1.87,1.87,0,0,1,.45-0.23,1.92,1.92,0,0,1,.64-0.09,2.28,2.28,0,0,1,.79.14,1.82,1.82,0,0,1,.66.42,2,2,0,0,1,.45.69,2.51,2.51,0,0,1,.17,1,2.61,2.61,0,0,1-.2,1,2.26,2.26,0,0,1-.52.76,2.09,2.09,0,0,1-.74.45,2.54,2.54,0,0,1-.86.15,2.45,2.45,0,0,1-1-.19,1.8,1.8,0,0,1-.74-0.55,2.35,2.35,0,0,1-.31-0.56,3.78,3.78,0,0,1-.19-0.64,5,5,0,0,1-.09-0.67q0-.34,0-0.67t0-.81a6.46,6.46,0,0,1,.14-0.86A4.45,4.45,0,0,1,10.7,9.9a2.62,2.62,0,0,1,.46-0.71,2.12,2.12,0,0,1,.68-0.49,2.23,2.23,0,0,1,.94-0.18,2.59,2.59,0,0,1,.61.06,2.17,2.17,0,0,1,.47.16,2,2,0,0,1,.34.21,1.92,1.92,0,0,1,.23.21,1.39,1.39,0,0,1,.21.31,1.68,1.68,0,0,1,.11.3,1.83,1.83,0,0,1,0,.27q0,0.13,0,.23h-1Zm-1.17,4.64a1.4,1.4,0,0,0,.47-0.08,1.19,1.19,0,0,0,.43-0.27,1.4,1.4,0,0,0,.31-0.49,1.91,1.91,0,0,0,.12-0.72,3.2,3.2,0,0,0,0-.44,1.56,1.56,0,0,0-.17-0.51A1.18,1.18,0,0,0,13.34,12a1.21,1.21,0,0,0-.68-0.17,1.34,1.34,0,0,0-.61.13,1.22,1.22,0,0,0-.43.35,1.54,1.54,0,0,0-.25.49,1.92,1.92,0,0,0-.08.57,1.88,1.88,0,0,0,.1.62,1.57,1.57,0,0,0,.27.49,1.19,1.19,0,0,0,.42.32A1.23,1.23,0,0,0,12.61,14.93Z" style="fill:#fff"/><circle cx="12.5" cy="12.5" r="6.84" style="fill:none;stroke:#fff;stroke-linejoin:round"/><circle cx="12.5" cy="12.5" r="12.5" style="fill:none"/></svg>