<svg id="icons_expanded" xmlns="http://www.w3.org/2000/svg" xmlns:xlink="http://www.w3.org/1999/xlink" viewBox="0 0 1200 1200">
  <defs>
    <linearGradient id="linear-gradient" x1="661.5" y1="999.4" x2="581.46" y2="545.43" gradientUnits="userSpaceOnUse">
      <stop offset="0" stop-color="#55be5a"/>
      <stop offset="1" stop-color="#008c5a"/>
    </linearGradient>
  </defs>
  <title>circuit</title>
  <path d="M722.47,988a40.27,40.27,0,0,1-11.85-1.78l-163.15-15.6a20,20,0,0,1-5.56-1.35,71.11,71.11,0,0,1-24.86-16.76L382.28,815.22l-.15-.16a71.76,71.76,0,0,1-8.34-10.5l-27-41.51A5.81,5.81,0,0,0,339.4,761a20,20,0,0,1-4.15,1.44l-210,47.73a29.19,29.19,0,0,1-25.59-52.09l253-168.18a45.62,45.62,0,0,1,62.61,10.83L477.11,685a20,20,0,0,1,3.83,10.47l2,29.71q0,.34,0,.68a25.69,25.69,0,0,1-7.7,19.29,48.66,48.66,0,0,0,4,4.87l82,83.45c21.33,17.1,42.62,24,65,21.09,48.16-6.26,85-56.16,85.33-56.66a20.61,20.61,0,0,1,2-2.35L860.54,647.47l28.4,28.17L743.1,822.71c-7.29,9.62-50.53,63.45-111.31,71.49a117.16,117.16,0,0,1-15.37,1c-28.3,0-55.54-10.52-81.18-31.39a20,20,0,0,1-1.64-1.49l-82.82-84.25c-.4-.4-9.34-9.55-13.29-18.69l-5.33-9.74a20,20,0,0,1-1.41-3.22,25.75,25.75,0,0,1,11.49-30.54L441.43,704,383,624.37a5.77,5.77,0,0,0-7.93-1.36l-.19.13-204,135.62,153.7-34.93a46,46,0,0,1,55.71,17.39l27,41.51a31.66,31.66,0,0,0,3.61,4.56l134.76,137.3.15.16a31.36,31.36,0,0,0,8.68,6.39l162.3,15.51a20,20,0,0,1,5.56,1.35.38.38,0,0,0,.4-.08l.09-.08a.38.38,0,0,0,0-.53l-4-4.18a27.9,27.9,0,0,1,.35-38.78l347.47-349a46.48,46.48,0,0,0,8-13.64c3.08-8.6.95-13-1.55-16.25-3.74-4.81-9.47-10.62-15.55-11s-13.25,4.44-17.46,8.67L921.34,643l-28.4-28.17L1011.73,495c6.6-6.65,24.46-21.9,48.29-20.45,11.59.7,28.76,5.85,44.71,26.37,26,33.42,1.15,71.75-9.59,82.54l-339.48,341a40.44,40.44,0,0,1-5.11,52.29l-.09.08A40.43,40.43,0,0,1,722.47,988Z" style="fill: url(#linear-gradient)"/>
</svg>
