<svg id="icons_expanded" xmlns="http://www.w3.org/2000/svg" xmlns:xlink="http://www.w3.org/1999/xlink" viewBox="0 0 1200 1200">
  <defs>
    <linearGradient id="New_Gradient_Swatch" data-name="New Gradient Swatch" x1="707.84" y1="1070.73" x2="619.56" y2="570.08" gradientUnits="userSpaceOnUse">
      <stop offset="0" stop-color="#ff4687"/>
      <stop offset="1" stop-color="#ff5a0f"/>
    </linearGradient>
  </defs>
  <title>energycar</title>
  <path d="M1000,1018.61H893.64a38.39,38.39,0,0,1-37.55-29.52c-178.47-4.72-252.5-74.88-261-83.54C546,861,500.68,845.13,422.29,845.13h-161v84.38a24.65,24.65,0,0,0,18.36,23.82l24.6,6.48-10.2,38.68L269.49,992a64.68,64.68,0,0,1-48.16-62.5V844.94a41.67,41.67,0,0,1-37.52-39h-.07c0-.41,0-.81,0-1.21s0-.81,0-1.21h.07a41.67,41.67,0,0,1,37.52-39V696.46A64.68,64.68,0,0,1,269.49,634l24.6-6.48,10.2,38.68-24.6,6.48a24.65,24.65,0,0,0-18.36,23.82v67.89H405.44V718H385.17A33.61,33.61,0,0,1,351.6,684.4V654.69a34.59,34.59,0,0,1,34.55-34.55h83.77a34.59,34.59,0,0,1,34.55,34.55V684.4A33.61,33.61,0,0,1,470.89,718H445.44v45.86c64.59-3,105.59-19.89,149.67-59.9,8.61-8.81,84.89-81.09,269.63-83.72a38.7,38.7,0,0,1,28.89-12.85H1000c21.22,0,38.47,16.94,38.47,37.77V678h77.75V948h-77.75v32.85C1038.47,1001.66,1021.21,1018.61,1000,1018.61Zm-104.83-40H998.47V948H895.16Zm-271.47-101c1.08,1.1,18.51,18.51,56.72,35.73,33.88,15.26,90.93,33.24,174.75,35.76v-4.47c0-20.17,16.7-36.57,37.23-36.57h183.82V718H892.39c-20.53,0-37.23-16.41-37.23-36.57v-21C804.51,662,738.55,670,680.42,696.19c-38.25,17.23-55.68,34.66-56.73,35.73l-.62.69-.54.46c-57,52-111.3,71.28-200.24,71.28H225.34a.6.6,0,1,0,0,.79H422.29c88.94,0,143.21,19.32,200.24,71.28l.74.67ZM968.47,678h30V647.36H895.16V678ZM391.6,678h72.87V660.14H391.6Zm78.32,327.86H386.15a34.59,34.59,0,0,1-34.55-34.55V941.57A33.61,33.61,0,0,1,385.17,908h20.27V846.6h40V908h25.45a33.61,33.61,0,0,1,33.57,33.57v29.71A34.59,34.59,0,0,1,469.91,1005.83Zm-78.32-40h72.87V948H391.6ZM745.32,872.3a62.37,62.37,0,0,1,0-124.74c16,0,89.73,7.85,141.43,19.7,17,3.91,30.07,7.82,39.82,12,6.63,2.82,26.8,11.42,26.8,30.7,0,22.71-28,31.7-40,35.54-15.24,4.89-36,9.64-61.84,14.13C806.95,867.35,758.84,872.3,745.32,872.3Zm0-84.74a22.37,22.37,0,0,0,0,44.74c8.34,0,46.88-3.59,87.78-10.17,28-4.51,46.85-8.72,59.46-12.19-4.19-1.15-9.06-2.39-14.74-3.69C828.3,794.9,758.41,787.56,745.32,787.56Z" style="fill: url(#New_Gradient_Swatch)"/>
</svg>
