<svg id="icons_expanded" xmlns="http://www.w3.org/2000/svg" xmlns:xlink="http://www.w3.org/1999/xlink" viewBox="0 0 1200 1200">
  <defs>
    <linearGradient id="linear-gradient" x1="681.68" y1="62.58" x2="492.52" y2="1135.38" gradientUnits="userSpaceOnUse">
      <stop offset="0" stop-color="#0555fa"/>
      <stop offset="1" stop-color="#41b9e6"/>
    </linearGradient>
  </defs>
  <title>meter_data</title>
  <path d="M402.82,1116.72c-100.83,0-182.85-82-182.85-182.85V659.15a79.94,79.94,0,0,0-79.85-79.85H0a51.5,51.5,0,0,1-51.5-51.5A51.5,51.5,0,0,1,0,476.3H140.12c100.83,0,182.85,82,182.85,182.85V933.87a79.85,79.85,0,0,0,159.71,0V245.44c0-100.83,82-182.87,182.87-182.87s182.87,82,182.87,182.87V674.59a83.37,83.37,0,0,0,166.73,0V622.07c0-82.55,67.16-149.71,149.71-149.71H1200a51.5,51.5,0,0,1,0,103h-35.15a46.76,46.76,0,0,0-46.71,46.71v52.51c0,102.76-83.6,186.37-186.37,186.37s-186.37-83.6-186.37-186.37V245.44a79.87,79.87,0,1,0-159.73,0V933.87C585.67,1034.69,503.65,1116.72,402.82,1116.72Z" style="fill: url(#linear-gradient)"/>
</svg>
