<svg version="1.1" id="Layer_1" xmlns="http://www.w3.org/2000/svg" xmlns:xlink="http://www.w3.org/1999/xlink" x="0px" y="0px"
	 viewBox="0 0 840 840" style="enable-background:new 0 0 840 840;" xml:space="preserve">
<style type="text/css">
	.st0{fill:url(#SVGID_1_);}
</style>
<title>solar</title>
<linearGradient id="SVGID_1_" gradientUnits="userSpaceOnUse" x1="414.1758" y1="66.3301" x2="414.1758" y2="549.5698" gradientTransform="matrix(1 0 0 -1 0 842)">
	<stop  offset="0" style="stop-color:#ED2D24"/>
	<stop  offset="1" style="stop-color:#F05E2A"/>
</linearGradient>
<path class="st0" d="M414.2,775.7c-3.6,0-7-2.1-8.6-5.4l-40.5-85.1l-82.8,45c-1.4,0.8-2.9,1.2-4.5,1.2c-3.5,0-6.7-1.9-8.3-5
	c-1-1.9-1.4-4.1-1-6.3l17.2-92.7l-93.5-12.3c-5.2-0.7-8.9-5.4-8.3-10.6c0.3-2.2,1.3-4.2,2.9-5.7l68.4-64.9l-68.4-64.9
	c-3.8-3.6-4-9.6-0.4-13.4c1.5-1.6,3.5-2.6,5.7-2.9l93.5-12.2L268.5,348c-0.5-2.5,0.1-5,1.5-7.1c1.4-2.1,3.6-3.5,6.1-4
	c0.6-0.1,1.2-0.2,1.7-0.2c1.6,0,3.1,0.4,4.5,1.2l82.8,45l40.5-85.1c1.6-3.3,4.9-5.4,8.6-5.4c3.6,0,7,2.1,8.6,5.4l40.5,85.1l82.8-45
	c1.4-0.8,2.9-1.2,4.5-1.2c3.5,0,6.7,1.9,8.3,5c1,1.9,1.4,4.1,1,6.3l-17.2,92.7l93.5,12.2c5.2,0.7,8.8,5.4,8.2,10.6
	c-0.3,2.2-1.3,4.2-2.9,5.6l-68.4,64.9l68.4,64.8c3.8,3.6,4,9.6,0.4,13.4c-1.5,1.6-3.5,2.6-5.6,2.9l-103.4,13.6
	c-0.4,0.1-0.8,0.1-1.2,0.1c-1.6,0-3.2-0.4-4.7-1.2l-51-28.9c-2.2-1.2-3.8-3.3-4.5-5.7c-0.7-2.4-0.4-5,0.9-7.2c0.3-0.5,0.6-1,1-1.5
	c8.3-9.8,14.1-21.6,16.7-34.2c4.3-20.2,0.4-41-10.9-58.4s-28.7-29.3-49-33.6c-5.3-1.1-10.8-1.7-16.2-1.7
	c-36.4,0-68.3,25.9-75.8,61.5c-4.3,20.3-0.4,41,10.9,58.4c11.3,17.4,28.7,29.3,49,33.6c5.3,1.1,10.7,1.7,16.1,1.7
	c10.2,0,20.3-2,29.6-5.9l9.5,16.5c-12.3,5.4-25.6,8.3-39,8.3c-34.5,0-66.6-18.6-83.8-48.5c-12.8-22.4-16.2-48.4-9.4-73.2
	c6.7-24.9,22.8-45.6,45.1-58.4c14.6-8.4,31.2-12.8,47.9-12.8c34.5,0,66.6,18.6,83.8,48.5c16.5,28.8,17.1,63.6,1.6,93l-4.5,8.6
	l38.4,21.8L614,599l-61.2-58c-3.8-3.6-3.9-9.6-0.4-13.4c0.1-0.1,0.2-0.2,0.4-0.4l61.2-58l-83.7-10.9c-2.5-0.3-4.7-1.6-6.3-3.6
	c-1.5-2-2.2-4.5-1.9-7c0-0.2,0-0.3,0.1-0.5l15.4-83l-74.1,40.3c-1.4,0.8-2.9,1.2-4.5,1.2c-3.5,0-6.7-1.9-8.3-5
	c-0.1-0.2-0.2-0.3-0.2-0.5l-36.3-76.2L378,400.2c-1.6,3.3-4.9,5.4-8.6,5.4c-1.4,0-2.8-0.3-4.1-0.9c-0.2-0.1-0.3-0.1-0.5-0.2
	l-74.2-40.3l15.4,83c0.5,2.5-0.1,5-1.5,7.1c-1.4,2.1-3.6,3.5-6.1,4c-0.2,0-0.3,0.1-0.5,0.1l-83.7,10.9l61.2,58.1
	c3.8,3.6,4,9.6,0.4,13.4c-0.1,0.1-0.2,0.2-0.4,0.4l-61.2,58l83.7,10.9c5.2,0.7,8.8,5.4,8.2,10.6c0,0.2,0,0.3-0.1,0.5l-15.4,83
	l74.1-40.3c1.4-0.8,2.9-1.2,4.5-1.2c3.5,0,6.7,1.9,8.3,4.9c0.1,0.2,0.2,0.3,0.2,0.5l36.3,76.2l36.3-76.2c1.6-3.3,4.9-5.4,8.6-5.4
	c1.4,0,2.8,0.3,4.1,0.9c0.1,0.1,0.3,0.1,0.4,0.2l73,39.7l-7.9-33.7l18.5-4.3l12.7,54.3c1.2,5.1-2,10.2-7,11.4
	c-0.7,0.2-1.4,0.3-2.2,0.3c-1.6,0-3.2-0.4-4.5-1.2l-82.8-45.1l-40.5,85.1C421.2,773.6,417.9,775.7,414.2,775.7L414.2,775.7z"/>
</svg>
