<svg id="bg" xmlns="http://www.w3.org/2000/svg" viewBox="0 0 340 200">
  <title>1-batteryPower-phones</title>
  <g>
    <g>
      <rect x="154.86" y="101.41" width="28.36" height="49.78" style="fill: none;stroke: #fff;stroke-linejoin: round;stroke-width: 3px"/>
      <line x1="183.22" y1="140.69" x2="154.86" y2="140.69" style="fill: none;stroke: #fff;stroke-linejoin: round;stroke-width: 3px"/>
      <line x1="167.12" y1="146.21" x2="170.74" y2="146.21" style="fill: none;stroke: #fff;stroke-linejoin: round;stroke-width: 3px"/>
      <line x1="154.86" y1="108.7" x2="183.22" y2="108.7" style="fill: none;stroke: #fff;stroke-linejoin: round;stroke-width: 3px"/>
      <g>
        <line x1="164.11" y1="130.83" x2="174.29" y2="130.83" style="fill: none;stroke: #fff;stroke-linejoin: round;stroke-width: 3px"/>
        <line x1="164.11" y1="125.23" x2="174.29" y2="125.23" style="fill: none;stroke: #fff;stroke-linejoin: round;stroke-width: 3px"/>
        <line x1="164.11" y1="119.63" x2="174.29" y2="119.63" style="fill: none;stroke: #fff;stroke-linejoin: round;stroke-width: 3px"/>
      </g>
      <line x1="167.61" y1="118.42" x2="170.79" y2="118.42" style="fill: none;stroke: #fff;stroke-linejoin: round;stroke-width: 3px"/>
    </g>
    <g>
      <rect x="238.85" y="101.41" width="28.36" height="49.78" style="fill: none;stroke: #fff;stroke-linejoin: round;stroke-width: 3px"/>
      <line x1="267.2" y1="140.69" x2="238.85" y2="140.69" style="fill: none;stroke: #fff;stroke-linejoin: round;stroke-width: 3px"/>
      <line x1="251.11" y1="146.21" x2="254.72" y2="146.21" style="fill: none;stroke: #fff;stroke-linejoin: round;stroke-width: 3px"/>
      <line x1="238.85" y1="108.7" x2="267.2" y2="108.7" style="fill: none;stroke: #fff;stroke-linejoin: round;stroke-width: 3px"/>
      <g style="opacity: 0.30000000000000004">
        <line x1="248.1" y1="130.83" x2="258.28" y2="130.83" style="fill: none;stroke: #fff;stroke-linejoin: round;stroke-width: 3px"/>
      </g>
    </g>
    <g>
      <rect x="280.84" y="101.41" width="28.36" height="49.78" style="fill: none;stroke: #fff;stroke-linejoin: round;stroke-width: 3px"/>
      <line x1="309.2" y1="140.69" x2="280.84" y2="140.69" style="fill: none;stroke: #fff;stroke-linejoin: round;stroke-width: 3px"/>
      <line x1="293.1" y1="146.21" x2="296.72" y2="146.21" style="fill: none;stroke: #fff;stroke-linejoin: round;stroke-width: 3px"/>
      <line x1="280.84" y1="108.7" x2="309.2" y2="108.7" style="fill: none;stroke: #fff;stroke-linejoin: round;stroke-width: 3px"/>
      <g style="opacity: 0.30000000000000004">
        <line x1="290.09" y1="130.83" x2="300.27" y2="130.83" style="fill: none;stroke: #fff;stroke-linejoin: round;stroke-width: 3px"/>
      </g>
    </g>
    <g>
      <rect x="322.83" y="101.41" width="28.36" height="49.78" style="fill: none;stroke: #fff;stroke-linejoin: round;stroke-width: 3px"/>
      <line x1="351.19" y1="140.69" x2="322.83" y2="140.69" style="fill: none;stroke: #fff;stroke-linejoin: round;stroke-width: 3px"/>
      <line x1="335.09" y1="146.21" x2="338.71" y2="146.21" style="fill: none;stroke: #fff;stroke-linejoin: round;stroke-width: 3px"/>
      <line x1="322.83" y1="108.7" x2="351.19" y2="108.7" style="fill: none;stroke: #fff;stroke-linejoin: round;stroke-width: 3px"/>
      <g style="opacity: 0.30000000000000004">
        <line x1="332.08" y1="130.83" x2="342.26" y2="130.83" style="fill: none;stroke: #fff;stroke-linejoin: round;stroke-width: 3px"/>
      </g>
    </g>
    <g>
      <rect x="70.87" y="101.41" width="28.36" height="49.78" style="fill: none;stroke: #fff;stroke-linejoin: round;stroke-width: 3px"/>
      <line x1="99.23" y1="140.69" x2="70.87" y2="140.69" style="fill: none;stroke: #fff;stroke-linejoin: round;stroke-width: 3px"/>
      <line x1="83.14" y1="146.21" x2="86.75" y2="146.21" style="fill: none;stroke: #fff;stroke-linejoin: round;stroke-width: 3px"/>
      <line x1="70.87" y1="108.7" x2="99.23" y2="108.7" style="fill: none;stroke: #fff;stroke-linejoin: round;stroke-width: 3px"/>
      <g>
        <line x1="80.13" y1="130.83" x2="90.31" y2="130.83" style="fill: none;stroke: #fff;stroke-linejoin: round;stroke-width: 3px"/>
        <line x1="80.13" y1="125.23" x2="90.31" y2="125.23" style="fill: none;stroke: #fff;stroke-linejoin: round;stroke-width: 3px"/>
        <line x1="80.13" y1="119.63" x2="90.31" y2="119.63" style="fill: none;stroke: #fff;stroke-linejoin: round;stroke-width: 3px"/>
      </g>
      <line x1="83.63" y1="118.42" x2="86.81" y2="118.42" style="fill: none;stroke: #fff;stroke-linejoin: round;stroke-width: 3px"/>
    </g>
    <g>
      <rect x="-13.11" y="101.41" width="28.36" height="49.78" style="fill: none;stroke: #fff;stroke-linejoin: round;stroke-width: 3px"/>
      <line x1="15.24" y1="140.69" x2="-13.11" y2="140.69" style="fill: none;stroke: #fff;stroke-linejoin: round;stroke-width: 3px"/>
      <line x1="-0.85" y1="146.21" x2="2.77" y2="146.21" style="fill: none;stroke: #fff;stroke-linejoin: round;stroke-width: 3px"/>
      <line x1="-13.11" y1="108.7" x2="15.24" y2="108.7" style="fill: none;stroke: #fff;stroke-linejoin: round;stroke-width: 3px"/>
      <g>
        <line x1="-3.86" y1="130.83" x2="6.32" y2="130.83" style="fill: none;stroke: #fff;stroke-linejoin: round;stroke-width: 3px"/>
        <line x1="-3.86" y1="125.23" x2="6.32" y2="125.23" style="fill: none;stroke: #fff;stroke-linejoin: round;stroke-width: 3px"/>
        <line x1="-3.86" y1="119.63" x2="6.32" y2="119.63" style="fill: none;stroke: #fff;stroke-linejoin: round;stroke-width: 3px"/>
      </g>
      <line x1="-0.36" y1="118.42" x2="2.82" y2="118.42" style="fill: none;stroke: #fff;stroke-linejoin: round;stroke-width: 3px"/>
    </g>
    <g>
      <rect x="28.88" y="101.41" width="28.36" height="49.78" style="fill: none;stroke: #fff;stroke-linejoin: round;stroke-width: 3px"/>
      <line x1="57.24" y1="140.69" x2="28.88" y2="140.69" style="fill: none;stroke: #fff;stroke-linejoin: round;stroke-width: 3px"/>
      <line x1="41.14" y1="146.21" x2="44.76" y2="146.21" style="fill: none;stroke: #fff;stroke-linejoin: round;stroke-width: 3px"/>
      <line x1="28.88" y1="108.7" x2="57.24" y2="108.7" style="fill: none;stroke: #fff;stroke-linejoin: round;stroke-width: 3px"/>
      <g>
        <line x1="38.13" y1="130.83" x2="48.31" y2="130.83" style="fill: none;stroke: #fff;stroke-linejoin: round;stroke-width: 3px"/>
        <line x1="38.13" y1="125.23" x2="48.31" y2="125.23" style="fill: none;stroke: #fff;stroke-linejoin: round;stroke-width: 3px"/>
        <line x1="38.13" y1="119.63" x2="48.31" y2="119.63" style="fill: none;stroke: #fff;stroke-linejoin: round;stroke-width: 3px"/>
      </g>
      <line x1="41.63" y1="118.42" x2="44.81" y2="118.42" style="fill: none;stroke: #fff;stroke-linejoin: round;stroke-width: 3px"/>
    </g>
    <g>
      <g>
        <polyline points="218.27 92.64 218.27 151.19 159.9 151.19" style="fill: none;stroke: #fff;stroke-linejoin: round;stroke-width: 3px"/>
        <polyline points="159.9 151.19 121.63 151.19 121.63 100.25" style="fill: none;stroke: #fff;stroke-linejoin: round;stroke-width: 3px"/>
        <g>
          <polyline points="222.99 86.44 222.99 81.24 117.74 81.24 117.74 92.64 218.27 92.64 218.27 114.58" style="fill: none;stroke: #fff;stroke-linejoin: round;stroke-width: 3px"/>
          <line x1="121.63" y1="100.49" x2="121.63" y2="114.58" style="fill: none;stroke: #fff;stroke-linejoin: round;stroke-width: 3px"/>
        </g>
      </g>
      <g>
        <line x1="134.21" y1="114.44" x2="143.76" y2="114.44" style="fill: none;stroke: #fff;stroke-linejoin: round;stroke-width: 3px"/>
        <line x1="134.21" y1="132.99" x2="143.76" y2="132.99" style="fill: none;stroke: #fff;stroke-linejoin: round;stroke-width: 3px"/>
        <line x1="138.99" y1="109.66" x2="138.99" y2="119.21" style="fill: none;stroke: #fff;stroke-linejoin: round;stroke-width: 3px"/>
        <g>
          <circle cx="202.96" cy="121.73" r="1.68" style="fill: #fff"/>
          <circle cx="195.63" cy="125.96" r="1.68" style="fill: #fff"/>
          <circle cx="195.63" cy="117.5" r="1.68" style="fill: #fff"/>
        </g>
      </g>
    </g>
    <g style="opacity: 0.30000000000000004">
      <g>
        <path d="M244.36,83.56A28.75,28.75,0,0,0,250,66.36H237a4.69,4.69,0,0,1-4.69-4.69V60.19A4.69,4.69,0,0,1,237,55.5h25.52a4.69,4.69,0,0,1,4.69,4.69v1.49a4.69,4.69,0,0,1-4.69,4.69h-8.86" style="fill: none;stroke: #fff;stroke-linejoin: round;stroke-width: 3px"/>
        <path d="M96.38,83.56a28.75,28.75,0,0,1-5.68-17.2h13a4.69,4.69,0,0,0,4.69-4.69V60.19a4.69,4.69,0,0,0-4.69-4.69H78.18a4.69,4.69,0,0,0-4.69,4.69v1.49a4.69,4.69,0,0,0,4.69,4.69H87" style="fill: none;stroke: #fff;stroke-linejoin: round;stroke-width: 3px"/>
      </g>
      <path d="M189.81,18.59C185.08,9.21,179,2.08,170.52,1.91h-.3c-13.86.27-20.51,18.31-26.2,35.2" style="fill: none;stroke: #fff;stroke-linejoin: round;stroke-width: 3px"/>
      <path d="M205.67,59.88c-4.3-7.69-8-23.68-13.82-36.92h59.29V35.32A5.68,5.68,0,0,1,245.46,41H203.09" style="fill: none;stroke: #fff;stroke-linejoin: round;stroke-width: 3px"/>
      <path d="M143.82,23H89.6V35.32A5.68,5.68,0,0,0,95.28,41h47c-2.52,7.61-4.76,14.55-7.18,18.87" style="fill: none;stroke: #fff;stroke-linejoin: round;stroke-width: 3px"/>
      <path d="M316.6,144.28,306,117.55a12,12,0,0,0-22.15-.47l-12.79,25a15.67,15.67,0,0,1-14.31,9.28H84.12a15.67,15.67,0,0,1-14.31-9.28L57,117.08a12,12,0,0,0-22.15.47L24.27,144.28" style="fill: none;stroke: #fff;stroke-linejoin: round;stroke-width: 3px"/>
      <path d="M263.82,143.81V90.66A8.15,8.15,0,0,1,272,82.51h40.86A8.15,8.15,0,0,1,321,90.66V155a8.15,8.15,0,0,1-8.15,8.15H28A8.15,8.15,0,0,1,19.89,155V90.66A8.15,8.15,0,0,1,28,82.51H68.9a8.15,8.15,0,0,1,8.15,8.15v53.16" style="fill: none;stroke: #fff;stroke-linejoin: round;stroke-width: 3px"/>
      <path d="M148,59.82c0-14.4,20.6-13.36,22.35-13.24,1.75-.11,22.35-1.16,22.35,13.24V76.21c0,2.91-1.89,5.27-4.23,5.27H152.26c-2.34,0-4.23-2.36-4.23-5.27v-10a1.76,1.76,0,0,0-1.76-1.76H129.91c-11.43,0-22.86,27.11-48.13,27.11H76.39" style="fill: none;stroke: #fff;stroke-linejoin: round;stroke-width: 3px"/>
      <path d="M197.61,64.44h13.22c11.43,0,22.86,27.11,48.13,27.11h4.69l-10.71.17c-54.75,0-43.92,37.23-65,37.23H152.84c-19.63,0-11.67-32.14-54.37-36.69" style="fill: none;stroke: #fff;stroke-linejoin: round;stroke-width: 3px"/>
    </g>
  </g>
</svg>
