<svg xmlns="http://www.w3.org/2000/svg" xmlns:xlink="http://www.w3.org/1999/xlink" viewBox="0 0 340 200">
  <defs>
    <clipPath id="clip-path">
      <rect x="0.43" y="-17.7" width="339.47" height="191.99" style="fill: none"/>
    </clipPath>
  </defs>
  <title>1-carInfo</title>
  <g id="UI">
    <g style="clip-path: url(#clip-path)">
      <g>
        <path d="M47.71,92.48h0a66.81,66.81,0,0,0,8.15,32l1,1.75.45.44q1.82-.17,3.64-.26l4.73-.25A2.25,2.25,0,0,1,68,128.37v14.38a2.25,2.25,0,0,1-2.79,2.19l-32-8.42a2.49,2.49,0,0,1,0-4.8V87.29" style="fill: none;stroke: #fff;stroke-linejoin: round;stroke-width: 3px"/>
        <path d="M47.71,65.82h0a66.81,66.81,0,0,1,8.15-32l1-1.75.45-.44q1.82.17,3.64.26l4.73.25A2.25,2.25,0,0,0,68,29.92V15.55a2.25,2.25,0,0,0-2.79-2.19l-32,8.42a2.49,2.49,0,0,0,0,4.8V71" style="fill: none;stroke: #fff;stroke-linejoin: round;stroke-width: 3px"/>
        <path d="M367.89,119.95a116.16,116.16,0,0,1-7.63-34.1h0c-23.49,0-37.43,10.39-47.43,16.17s-28,13.33-42.74,13.33a246.38,246.38,0,0,1-59.23-7.3" style="fill: none;stroke: #fff;stroke-linejoin: round;stroke-width: 3px"/>
        <g>
          <path d="M95.7,119.95l-4.28-18A23.39,23.39,0,0,0,82,89.44l-.35-.23" style="fill: none;stroke: #fff;stroke-linejoin: round;stroke-width: 3px"/>
          <path d="M314.46,141.48v-13a3.17,3.17,0,0,1,3.17-3.17s.13-.73,23.55-.73,23.55.73,23.55.73a3.17,3.17,0,0,1,3.17,3.17v16.69a3.17,3.17,0,0,1-3.17,3.17s0,.73-23.55.73-23.55-.73-23.55-.73a3.17,3.17,0,0,1-3.17-3.17s-3.81.45-6.53.45c-42,0-47.36-4.13-64.77-8.63-10.23-2.64-19.13-8.83-21.78-19.06h0a13.52,13.52,0,0,0-10.51-9.88,804.5,804.5,0,0,0-79.65-14.29h-.06a24.38,24.38,0,0,0-10.44,10.17l-14.19,20.32c16.43.11,16.53.68,16.53.68a3,3,0,0,1,3,3v14.62a3,3,0,0,1-3,3s0,.7-22.53.7-22.53-.7-22.53-.7a3,3,0,0,1-3-3V128a3,3,0,0,1,3-3s.12-.7,22.53-.7V94.11" style="fill: none;stroke: #fff;stroke-linejoin: round;stroke-width: 3px"/>
        </g>
        <g>
          <path d="M95.7,38,91.42,56a24.68,24.68,0,0,1-9.54,13l-.24,0q-26.18,1.71-52.46,1.71H23.32a6.45,6.45,0,0,0-6.45,6.45v3.69a6.45,6.45,0,0,0,6.45,6.45h5.87A804.5,804.5,0,0,1,124.62,93" style="fill: none;stroke: #fff;stroke-linejoin: round;stroke-width: 3px"/>
          <path d="M124.62,59.3a27,27,0,0,1-3.9-5.33L106.53,33.66C123,33.55,123.06,33,123.06,33a3,3,0,0,0,3-3V15.33a3,3,0,0,0-3-3s0-.7-22.53-.7S78,12.3,78,12.3a3,3,0,0,0-3,3V29.95a3,3,0,0,0,3,3s.12.7,22.53.7V63.81s-.12,3.73,0,3.72A803.4,803.4,0,0,0,210.86,49.91,13.52,13.52,0,0,0,221.38,40h0C224,29.81,232.93,23.62,243.16,21c17.41-4.5,22.76-8.63,64.77-8.63" style="fill: none;stroke: #fff;stroke-linejoin: round;stroke-width: 3px"/>
        </g>
        <path d="M208.08,46.84l3.7-19.75a2.44,2.44,0,0,0-2.41-2.81h-15a10.37,10.37,0,0,0-9.78,6.93l-9.16,26.09-.06-13.21a1.59,1.59,0,0,0-2.62-1.22L169.07,46a4.79,4.79,0,0,0,1.15,8h0" style="fill: none;stroke: #fff;stroke-linejoin: round;stroke-width: 3px"/>
        <path d="M208.08,111.22l3.7,19.75a2.44,2.44,0,0,1-2.41,2.81h-15a10.37,10.37,0,0,1-9.78-6.93l-9.16-26.09L175.35,114a1.59,1.59,0,0,1-2.62,1.22l-3.66-3.09a4.79,4.79,0,0,1,1.15-8h0" style="fill: none;stroke: #fff;stroke-linejoin: round;stroke-width: 3px"/>
        <path d="M210.86,49.91a246.38,246.38,0,0,1,59.23-7.3c14.7,0,32.74,7.55,42.74,13.33s23.94,16.17,47.43,16.17h0A116.16,116.16,0,0,1,367.89,38" style="fill: none;stroke: #fff;stroke-linejoin: round;stroke-width: 3px"/>
        <path d="M235.42,75.64A6.13,6.13,0,0,1,240.48,73c3.39,0,13.14,2.75,13.14,6.14s-9.75,6.14-13.14,6.14a6.14,6.14,0,0,1-6.14-6.14" style="fill: none;stroke: #fff;stroke-linejoin: round;stroke-width: 3px"/>
        <path d="M179.69,63l-9.23,1.46a7.24,7.24,0,0,0-6.19,7.17V86.35a7.24,7.24,0,0,0,6.19,7.17l13.74,2,2.55-1.87a12.07,12.07,0,0,1,7.14-2.33h25.87a6.81,6.81,0,0,0,6.81-6.81V73.44a6.81,6.81,0,0,0-6.81-6.81H193.89a12.07,12.07,0,0,1-7.14-2.33l-2.55-1.87s22.4-5.14,57.06-5.14c28.79,0,59.14,12.55,68.58,16.79a5.05,5.05,0,0,1,3,4.61h0v.58h0a5.05,5.05,0,0,1-3,4.61c-9.44,4.24-39.79,16.79-68.58,16.79a308.69,308.69,0,0,1-51.33-4" style="fill: none;stroke: #fff;stroke-linejoin: round;stroke-width: 3px"/>
        <path d="M381.32,31.34A8.93,8.93,0,0,0,374,27.59l-6.14.14v1.76a3.17,3.17,0,0,1-3.17,3.17s-.13.73-23.55.73-23.55-.73-23.55-.73a3.17,3.17,0,0,1-3.17-3.17V12.8a3.17,3.17,0,0,1,3.17-3.17s0-.73,23.55-.73,23.55.73,23.55.73a3.17,3.17,0,0,1,3.17,3.17V23.63" style="fill: none;stroke: #fff;stroke-linejoin: round;stroke-width: 3px"/>
      </g>
    </g>
  </g>
</svg>
