<svg id="bg" xmlns="http://www.w3.org/2000/svg" viewBox="0 0 340 200">
  <title>1-co2-kg</title>
  <g>
    <g>
      <path d="M166.42,160.33A8.57,8.57,0,1,0,175,168.9h8v-21a15.39,15.39,0,0,0-15.39-15.39H146.49A13.43,13.43,0,0,0,133.06,146a7.78,7.78,0,0,1-7.78,7.78H124a7.65,7.65,0,0,0-7.65,7.65v8.05h9.28" style="fill: none;stroke: #fff;stroke-linejoin: round;stroke-width: 3px"/>
      <path d="M134.25,160.33a8.57,8.57,0,1,0,8.57,8.57H158" style="fill: none;stroke: #fff;stroke-linejoin: round;stroke-width: 3px"/>
      <line x1="205" y1="177.46" x2="166.27" y2="177.46" style="fill: none;stroke: #fff;stroke-linejoin: round;stroke-width: 3px"/>
      <line x1="134" y1="177.5" x2="-1" y2="177.5" style="fill: none;stroke: #fff;stroke-linejoin: round;stroke-width: 3px"/>
    </g>
    <path d="M190,165.5h30.5a24,24,0,0,0,24-24h0a24,24,0,0,0-24-24h0a34,34,0,0,1-34-34h0a21,21,0,0,1,21-21" style="fill: none;stroke: #fff;stroke-linecap: round;stroke-linejoin: round;stroke-width: 3px;stroke-dasharray: 0.45820876955986023,9.15237808227539"/>
  </g>
</svg>
