<svg xmlns="http://www.w3.org/2000/svg" viewBox="0 0 340 200">
  <title>1-co2-future</title>
  <g id="UI">
    <g>
      <g>
        <g>
          <ellipse cx="230.31" cy="97.45" rx="13.93" ry="13.95" style="fill: none;stroke: #fefefe;stroke-linecap: square;stroke-miterlimit: 10;stroke-width: 3px"/>
          <ellipse cx="230.31" cy="72.34" rx="11.14" ry="11.16" style="fill: none;stroke: #fefefe;stroke-linecap: square;stroke-miterlimit: 10;stroke-width: 3px"/>
          <ellipse cx="230.31" cy="130.1" rx="18.69" ry="18.71" style="fill: none;stroke: #fefefe;stroke-linecap: square;stroke-miterlimit: 10;stroke-width: 3px"/>
        </g>
        <line x1="230.31" y1="148.81" x2="230.31" y2="174.89" style="fill: none;stroke: #fefefe;stroke-linecap: square;stroke-miterlimit: 10;stroke-width: 3px"/>
        <g>
          <ellipse cx="278.31" cy="97.45" rx="13.93" ry="13.95" style="fill: none;stroke: #fefefe;stroke-linecap: square;stroke-miterlimit: 10;stroke-width: 3px"/>
          <ellipse cx="278.31" cy="130.1" rx="18.69" ry="18.71" style="fill: none;stroke: #fefefe;stroke-linecap: square;stroke-miterlimit: 10;stroke-width: 3px"/>
        </g>
        <line x1="278.31" y1="148.81" x2="278.31" y2="174.89" style="fill: none;stroke: #fefefe;stroke-linecap: square;stroke-miterlimit: 10;stroke-width: 3px"/>
        <ellipse cx="326.06" cy="130.1" rx="18.69" ry="18.71" style="fill: none;stroke: #fefefe;stroke-linecap: square;stroke-miterlimit: 10;stroke-width: 3px"/>
        <line x1="326.06" y1="148.81" x2="326.06" y2="174.89" style="fill: none;stroke: #fefefe;stroke-linecap: square;stroke-miterlimit: 10;stroke-width: 3px"/>
        <ellipse cx="7.5" cy="144.94" rx="18.69" ry="18.71" style="fill: none;stroke: #fefefe;stroke-linecap: square;stroke-miterlimit: 10;stroke-width: 3px"/>
        <line x1="7.5" y1="163.65" x2="7.5" y2="175.62" style="fill: none;stroke: #fefefe;stroke-linecap: square;stroke-miterlimit: 10;stroke-width: 3px"/>
        <g>
          <ellipse cx="52.89" cy="97.36" rx="13.93" ry="13.95" style="fill: none;stroke: #fefefe;stroke-linecap: square;stroke-miterlimit: 10;stroke-width: 3px"/>
          <ellipse cx="52.87" cy="129.64" rx="18.69" ry="18.71" style="fill: none;stroke: #fefefe;stroke-linecap: square;stroke-miterlimit: 10;stroke-width: 3px"/>
        </g>
        <line x1="53.33" y1="149.23" x2="53.33" y2="175.3" style="fill: none;stroke: #fefefe;stroke-linecap: square;stroke-miterlimit: 10;stroke-width: 3px"/>
        <line x1="166.23" y1="177.47" x2="339.19" y2="177.46" style="fill: none;stroke: #fefefe;stroke-linecap: square;stroke-miterlimit: 10;stroke-width: 3px"/>
        <line x1="0.81" y1="177.46" x2="134.05" y2="177.47" style="fill: none;stroke: #fefefe;stroke-linecap: square;stroke-miterlimit: 10;stroke-width: 3px"/>
      </g>
      <path d="M166.23,160.33a8.57,8.57,0,1,0,8.57,8.57h8v-21a15.39,15.39,0,0,0-15.39-15.39H146.3A13.43,13.43,0,0,0,132.87,146a7.78,7.78,0,0,1-7.78,7.78h-1.24a7.65,7.65,0,0,0-7.65,7.65v8.05h9.28" style="fill: none;stroke: #fff;stroke-linejoin: round;stroke-width: 3px"/>
      <g>
        <path d="M166.23,160.33a8.57,8.57,0,1,0,8.57,8.57h8v-21a15.39,15.39,0,0,0-15.39-15.39H146.3A13.43,13.43,0,0,0,132.87,146a7.78,7.78,0,0,1-7.78,7.78h-1.24a7.65,7.65,0,0,0-7.65,7.65v8.05h9.28" style="fill: none;stroke: #fff;stroke-linejoin: round;stroke-width: 3px"/>
        <path d="M134.05,160.33a8.57,8.57,0,1,0,8.57,8.57h15.13" style="fill: none;stroke: #fff;stroke-linejoin: round;stroke-width: 3px"/>
        <line x1="204.81" y1="177.46" x2="166.08" y2="177.46" style="fill: none;stroke: #fff;stroke-linejoin: round;stroke-width: 3px"/>
        <line x1="133.81" y1="177.5" x2="-1.19" y2="177.5" style="fill: none;stroke: #fff;stroke-linejoin: round;stroke-width: 3px"/>
      </g>
      <path d="M134.05,160.33a8.57,8.57,0,1,0,8.57,8.57h15.13" style="fill: none;stroke: #fff;stroke-linejoin: round;stroke-width: 3px"/>
      <g>
        <path d="M162,127.44a6.61,6.61,0,0,1-8.77-9.6,6.85,6.85,0,0,1,11.32.4l.15.25a6.14,6.14,0,0,0,8.43,2.09h0Z" style="fill: none;stroke: #fff;stroke-linejoin: round;stroke-width: 3px"/>
        <path d="M148.88,115.25l3.27-2.18.06-1.43a3.79,3.79,0,1,1,4.8,3.66" style="fill: none;stroke: #fff;stroke-linejoin: round;stroke-width: 3px"/>
        <line x1="159.37" y1="128.65" x2="159.37" y2="133.65" style="fill: none;stroke: #fff;stroke-linejoin: round;stroke-width: 3px"/>
      </g>
    </g>
  </g>
</svg>
