<svg id="Layer_1" data-name="Layer 1" xmlns="http://www.w3.org/2000/svg" viewBox="0 0 340 225"><title>CardsMOD</title><path d="M179.09,184.32a9,9,0,1,0,9,9h8.42V171.23A16.21,16.21,0,0,0,180.33,155H158.1A14.14,14.14,0,0,0,144,169.17v.06a8.19,8.19,0,0,1-8.19,8.19h-1.31a8.06,8.06,0,0,0-8.06,8.06V194h9.77" fill="none" stroke="#fff" stroke-linejoin="round" stroke-width="3"/><path d="M179.09,184.32a9,9,0,1,0,9,9h8.42V171.23A16.21,16.21,0,0,0,180.33,155H158.1A14.14,14.14,0,0,0,144,169.17v.06a8.19,8.19,0,0,1-8.19,8.19h-1.31a8.06,8.06,0,0,0-8.06,8.06V194h9.77" fill="none" stroke="#fff" stroke-linejoin="round" stroke-width="3"/><path d="M145.2,184.32a9,9,0,1,0,9,9h15.93" fill="none" stroke="#fff" stroke-linejoin="round" stroke-width="3"/><line x1="340" y1="202.36" x2="178.93" y2="202.36" fill="none" stroke="#fff" stroke-linejoin="round" stroke-width="3"/><line x1="144.95" y1="202.4" y2="202.4" fill="none" stroke="#fff" stroke-linejoin="round" stroke-width="3"/><polyline points="303.58 129.08 303.58 89.44 340.03 89.44" fill="none" stroke="#fff" stroke-miterlimit="10" stroke-width="3.5"/><polyline points="125.51 167.47 125.51 118.06 53.46 118.06" fill="none" stroke="#fff" stroke-linejoin="round" stroke-width="3"/><line x1="108.66" y1="135.31" x2="108.66" y2="143.54" fill="none" stroke="#fff" stroke-linejoin="round" stroke-width="3"/><line x1="108.66" y1="155.75" x2="108.66" y2="163.97" fill="none" stroke="#fff" stroke-linejoin="round" stroke-width="3"/><line x1="320.26" y1="100.74" x2="320.26" y2="108.96" fill="none" stroke="#fff" stroke-linejoin="round" stroke-width="3"/><line x1="320.26" y1="121.18" x2="320.26" y2="129.4" fill="none" stroke="#fff" stroke-linejoin="round" stroke-width="3"/><line x1="303.58" y1="142.67" x2="303.58" y2="150.89" fill="none" stroke="#fff" stroke-linejoin="round" stroke-width="3"/><line x1="303.58" y1="163.11" x2="303.58" y2="171.33" fill="none" stroke="#fff" stroke-linejoin="round" stroke-width="3"/><line x1="108.66" y1="176.19" x2="108.66" y2="184.41" fill="none" stroke="#fff" stroke-linejoin="round" stroke-width="3"/><polyline points="0 90.26 53.46 90.26 53.46 193.34" fill="none" stroke="#fff" stroke-linejoin="round" stroke-width="3"/><polyline points="257.43 149.77 257.43 92.19 282.14 92.19 282.14 77.46 248.7 77.46 248.7 86.72" fill="none" stroke="#fff" stroke-miterlimit="10" stroke-width="3.5"/><line x1="273.42" y1="101.34" x2="273.42" y2="149.77" fill="none" stroke="#fff" stroke-miterlimit="10" stroke-width="3.5"/><g id="_Group_" data-name="&lt;Group&gt;" opacity="0.5"><path d="M139,78.25a4.6,4.6,0,0,1-4.59,4.85h-16a8.34,8.34,0,0,0-8.34,8.34h0" fill="none" stroke="#fff" stroke-miterlimit="10" stroke-width="3.5"/><path d="M123.91,62a4.6,4.6,0,0,1-4.59,4.85h-8.21a8.34,8.34,0,0,0-8.34,8.34h0V81" fill="none" stroke="#fff" stroke-miterlimit="10" stroke-width="3.5"/></g><g id="_Group_2" data-name="&lt;Group&gt;" opacity="0.5"><path d="M306.18,55.72a4.6,4.6,0,0,1-4.59,4.85h-16a8.34,8.34,0,0,0-8.34,8.34h0" fill="none" stroke="#fff" stroke-miterlimit="10" stroke-width="3.5"/><path d="M291.06,39.47a4.6,4.6,0,0,1-4.59,4.85h-8.21a8.34,8.34,0,0,0-8.34,8.34h0v5.78" fill="none" stroke="#fff" stroke-miterlimit="10" stroke-width="3.5"/></g><polyline points="95.08 106.42 95.08 97.68 116.2 97.68 116.2 112.89" fill="none" stroke="#fff" stroke-miterlimit="10" stroke-width="3"/><g opacity="0.5"><path d="M205.83,181.06h13a9.74,9.74,0,0,0,9.74-9.74v-5.16" fill="none" stroke="#fff" stroke-miterlimit="10" stroke-width="3.5"/><path d="M215.26,189.23h10a7.23,7.23,0,0,1,7.23,7.23h0" fill="none" stroke="#fff" stroke-miterlimit="10" stroke-width="3.5"/></g><polyline points="339.97 129.08 288.06 129.08 288.06 181.06" fill="none" stroke="#fff" stroke-miterlimit="10" stroke-width="3.5"/><polyline points="289.35 151.06 246.66 151.06 246.66 202.36" fill="none" stroke="#fff" stroke-miterlimit="10" stroke-width="3.5"/></svg>