<svg id="Layer_1" data-name="Layer 1" xmlns="http://www.w3.org/2000/svg" viewBox="0 0 340 225"><title>CardsMOD</title><ellipse cx="246.58" cy="124.58" rx="14.67" ry="14.69" fill="none" stroke="#fff" stroke-linecap="square" stroke-miterlimit="10" stroke-width="3"/><ellipse cx="246.58" cy="158.97" rx="19.69" ry="19.71" fill="none" stroke="#fff" stroke-linecap="square" stroke-miterlimit="10" stroke-width="3"/><line x1="246.58" y1="178.67" x2="246.58" y2="199.68" fill="none" stroke="#fff" stroke-linecap="square" stroke-miterlimit="10" stroke-width="3"/><ellipse cx="303.6" cy="158.97" rx="19.69" ry="19.71" fill="none" stroke="#fff" stroke-linecap="square" stroke-miterlimit="10" stroke-width="3"/><line x1="303.6" y1="178.67" x2="303.6" y2="199.68" fill="none" stroke="#fff" stroke-linecap="square" stroke-miterlimit="10" stroke-width="3"/><ellipse cx="53.43" cy="158.85" rx="19.69" ry="19.71" fill="none" stroke="#fff" stroke-linecap="square" stroke-miterlimit="10" stroke-width="3"/><line x1="53.43" y1="179.48" x2="53.43" y2="200.11" fill="none" stroke="#fff" stroke-linecap="square" stroke-miterlimit="10" stroke-width="3"/><line y1="202.38" x2="145.19" y2="202.39" fill="none" stroke="#fff" stroke-miterlimit="10" stroke-width="3"/><path d="M179.09,184.34a9,9,0,1,0,9,9h8.43V171.25A16.21,16.21,0,0,0,180.33,155H158.09a14.15,14.15,0,0,0-14.15,14.15v.06a8.19,8.19,0,0,1-8.19,8.19h-1.31a8.06,8.06,0,0,0-8.06,8.06V194h9.77" fill="none" stroke="#fff" stroke-linejoin="round" stroke-width="3"/><path d="M179.09,184.34a9,9,0,1,0,9,9h8.43V171.25A16.21,16.21,0,0,0,180.33,155H158.09a14.15,14.15,0,0,0-14.15,14.15v.06a8.19,8.19,0,0,1-8.19,8.19h-1.31a8.06,8.06,0,0,0-8.06,8.06V194h9.77" fill="none" stroke="#fff" stroke-linejoin="round" stroke-width="3"/><path d="M145.19,184.34a9,9,0,1,0,9,9h15.94" fill="none" stroke="#fff" stroke-linejoin="round" stroke-width="3"/><line x1="340" y1="202.38" x2="178.93" y2="202.38" fill="none" stroke="#fff" stroke-linejoin="round" stroke-width="3"/><path d="M174.63,147.11A7,7,0,0,1,165.39,137a7.21,7.21,0,0,1,11.92.42l.16.26a6.47,6.47,0,0,0,8.88,2.2h0Z" fill="none" stroke="#fff" stroke-linejoin="round" stroke-width="3"/><path d="M160.81,134.27l3.44-2.3.06-1.51a4,4,0,1,1,5.06,3.85" fill="none" stroke="#fff" stroke-linejoin="round" stroke-width="3"/><line x1="171.86" y1="148.39" x2="171.86" y2="153.65" fill="none" stroke="#fff" stroke-linejoin="round" stroke-width="3"/><polyline points="303.6 128.03 303.6 89.44 339.97 89.44" fill="none" stroke="#fff" stroke-linejoin="round" stroke-width="3"/><polyline points="125.49 167.49 125.49 118.07 53.43 118.07" fill="none" stroke="#fff" stroke-linejoin="round" stroke-width="3"/><polyline points="106.42 117.95 119.08 87.11 92.6 87.11 84.22 109.61" fill="none" stroke="#fff" stroke-linejoin="round" stroke-width="3"/><line x1="108.64" y1="135.33" x2="108.64" y2="143.55" fill="none" stroke="#fff" stroke-linejoin="round" stroke-width="3"/><line x1="108.64" y1="155.77" x2="108.64" y2="163.99" fill="none" stroke="#fff" stroke-linejoin="round" stroke-width="3"/><line x1="320.29" y1="100.74" x2="320.29" y2="108.97" fill="none" stroke="#fff" stroke-linejoin="round" stroke-width="3"/><line x1="320.29" y1="121.18" x2="320.29" y2="129.41" fill="none" stroke="#fff" stroke-linejoin="round" stroke-width="3"/><line x1="108.64" y1="176.21" x2="108.64" y2="184.43" fill="none" stroke="#fff" stroke-linejoin="round" stroke-width="3"/><polyline points="0 90.26 53.43 90.26 53.43 130.75" fill="none" stroke="#fff" stroke-linejoin="round" stroke-width="3"/></svg>