<svg id="bg" xmlns="http://www.w3.org/2000/svg" xmlns:xlink="http://www.w3.org/1999/xlink" viewBox="0 0 340 250">
  <defs>
    <clipPath id="clip-path">
      <rect x="0.2" y="49" width="339.6" height="201.4" style="fill: none"/>
    </clipPath>
  </defs>
  <title>1-efficiency</title>
  <g id="car">
    <g style="clip-path: url(#clip-path)">
      <g style="opacity: 0.30000001192092896">
        <path d="M250,193.5a1.9,1.9,0,0,0,1.9-1.9v-8a2,2,0,0,1,2.5-1.9l13.5,4.1a5.34,5.34,0,0,1,3.8,5.1h0a5.38,5.38,0,0,1-5.4,5.4H253.9l-1.7,1.4a3.52,3.52,0,0,0-.8,4.4l5.4,9.9a32.65,32.65,0,0,1,4,15.9v28.6a11.33,11.33,0,0,1-3.4,8.2l-8.4,8.4a11.67,11.67,0,0,1-8.2,3.4H104a11.33,11.33,0,0,1-8.2-3.4l-8.4-8.4a11.67,11.67,0,0,1-3.4-8.2V227.9A34.09,34.09,0,0,1,88,212l5.4-9.9a3.52,3.52,0,0,0-.8-4.4l-1.7-1.4H78.5a5.38,5.38,0,0,1-5.4-5.4h0a5.28,5.28,0,0,1,3.8-5.1l13.5-4.1a2,2,0,0,1,2.5,1.9v8a1.9,1.9,0,0,0,1.9,1.9" style="fill: none;stroke: #fff;stroke-linejoin: round;stroke-width: 3.3963000774383545px"/>
        <path d="M102.3,216.3l11.1,6.4a20.12,20.12,0,0,0,11.2,2.8l47.9.6,47.9-.4a21.09,21.09,0,0,0,11.1-3.5l10.7-7" style="fill: none;stroke: #fff;stroke-linejoin: round;stroke-width: 3.3963000774383545px"/>
        <path d="M216.7,228.8h0a6.23,6.23,0,0,0,6.2,6.2h21.2a10.07,10.07,0,0,0,10.1-10.1v-2.3a11.5,11.5,0,0,0-3.4-8.2l-3.4-3.4-.7-17.5L231,166.9a16,16,0,0,0-13.8-7.9H127.6a16,16,0,0,0-13.8,7.9L98.1,193.5l-.7,17.4L94,214.3a11.5,11.5,0,0,0-3.4,8.2v2.3a10.07,10.07,0,0,0,10.1,10.1h21.2a6.23,6.23,0,0,0,6.2-6.2h0" style="fill: none;stroke: #fff;stroke-linejoin: round;stroke-width: 3.3963000774383545px"/>
        <path d="M231.5,181l-7.8-12.8a7.18,7.18,0,0,0-6.2-3.6H127.3a7.18,7.18,0,0,0-6.2,3.6L111,186a6,6,0,0,0,4.9,8.9l49.5,2.6a112.13,112.13,0,0,0,14.2,0l49.5-2.6A6,6,0,0,0,234,186" style="fill: none;stroke: #fff;stroke-linejoin: round;stroke-width: 3.3963000774383545px"/>
      </g>
    </g>
  </g>
  <g id="lancette">
    <g id="electric">
      <line x1="165.97" y1="107.49" x2="139.83" y2="78.5" style="fill: none;stroke: #fff;stroke-linejoin: round;stroke-width: 3.3963000774383545px"/>
      <circle cx="169.99" cy="112" r="5.8" transform="translate(-32.33 89.5) rotate(-27.03)" style="fill: none;stroke: #fff;stroke-linejoin: round;stroke-width: 3.3963000774383545px"/>
      <circle cx="169.99" cy="112" r="87.9" transform="translate(-32.33 89.5) rotate(-27.03)" style="fill: none"/>
    </g>
    <g id="heat" style="opacity: 0.5">
      <line x1="164.03" y1="111.02" x2="125.48" y2="104.88" style="fill: none;stroke: #fff;stroke-linejoin: round;stroke-width: 3.3963000774383545px"/>
      <circle cx="169.99" cy="112" r="5.8" transform="translate(-1.58 221.56) rotate(-65.94)" style="fill: none;stroke: #fff;stroke-linejoin: round;stroke-width: 3.3963000774383545px"/>
      <circle cx="169.99" cy="112" r="87.9" transform="translate(-1.58 221.56) rotate(-65.94)" style="fill: none"/>
    </g>
  </g>
  <path d="M170,51a61,61,0,0,0-48.7,97.7h97.4A61,61,0,0,0,170,51Z" style="fill: none;stroke: #fff;stroke-linejoin: round;stroke-width: 3.0734000205993652px"/>
  <line x1="128.5" y1="66.9" x2="134" y2="72.7" style="fill: none;stroke: #fff;stroke-linejoin: round;stroke-width: 3.0734000205993652px"/>
  <line x1="110" y1="102.1" x2="117.2" y2="103.5" style="fill: none;stroke: #fff;stroke-linejoin: round;stroke-width: 3.0734000205993652px"/>
  <line x1="117.7" y1="143.5" x2="124.1" y2="139.7" style="fill: none;stroke: #fff;stroke-linejoin: round;stroke-width: 3.0734000205993652px"/>
  <path d="M130.9,69.4A57.81,57.81,0,0,0,120.3,142" style="fill: none;stroke: #fff;stroke-linejoin: round;stroke-width: 9px;opacity: 0.30000001192092896;isolation: isolate"/>
  <path d="M130.9,69.4a57.52,57.52,0,0,0-18.1,33.3" style="fill: none;stroke: #fff;stroke-linejoin: round;stroke-width: 9px;opacity: 0.5;isolation: isolate"/>
</svg>
