<?xml version="1.0" encoding="utf-8"?>
<!-- Generator: Adobe Illustrator 21.0.0, SVG Export Plug-In . SVG Version: 6.00 Build 0)  -->
<svg version="1.1" id="bg" xmlns="http://www.w3.org/2000/svg" xmlns:xlink="http://www.w3.org/1999/xlink" x="0px" y="0px"
	 viewBox="0 0 341 133.5" style="enable-background:new 0 0 341 133.5;" xml:space="preserve">
<style type="text/css">
	.st0{fill:#FFFFFF;}
	.st1{opacity:0.3;fill:none;stroke:#FFFFFF;stroke-width:3;stroke-linejoin:round;enable-background:new    ;}
	.st2{fill:none;stroke:#FFFFFF;stroke-width:3;stroke-linecap:round;stroke-linejoin:round;}
	.st3{fill:none;stroke:#FFFFFF;stroke-width:3;stroke-linecap:round;stroke-linejoin:round;stroke-dasharray:2.8105,7.4946;}
	.st4{fill:none;stroke:#FFFFFF;stroke-width:3;stroke-linecap:round;stroke-linejoin:round;stroke-dasharray:3.3475,14.506;}
	.st5{opacity:0.3;}
	.st6{fill:none;stroke:#FFFFFF;stroke-width:3;stroke-linejoin:round;}
</style>
<title>1-fastRecharge</title>
<g id="recharge">
	<rect x="161.5" y="80.5" class="st0" width="10.5" height="41.9"/>
	<rect x="175.5" y="47.9" class="st0" width="10.5" height="74.5"/>
	<path class="st1" d="M95.8,68.8v-7.9c0-4.1,3.3-7.4,7.4-7.4h0H156"/>
	<path class="st1" d="M192.4,53.5h24c4.1,0,7.4,3.3,7.4,7.4c0,0,0,0,0,0l0,0v12.2c0,4.1,3.3,7.4,7.4,7.4c0,0,0,0,0,0h11.6"/>
	<g>
		<line class="st2" x1="95.8" y1="68.8" x2="95.8" y2="67.3"/>
		<path class="st3" d="M95.9,59.8c0.5-3.6,3.7-6.3,7.3-6.3h47.5"/>
		<line class="st2" x1="154.5" y1="53.5" x2="156" y2="53.5"/>
	</g>
	<g>
		<line class="st2" x1="192.4" y1="53.5" x2="193.9" y2="53.5"/>
		<path class="st4" d="M208.4,53.5h8c4.1,0,7.4,3.3,7.4,7.4c0,0,0,0,0,0l0,0v12.2c0,4.1,3.3,7.4,7.4,7.4c0,0,0,0,0,0h2.8"/>
		<line class="st2" x1="241.3" y1="80.5" x2="242.8" y2="80.5"/>
	</g>
	<g>
		<g>
			<g class="st5">
				<path class="st6" d="M59,69.8c2.9-3.9,4.5-8.6,4.5-13.5H53.3c-2,0-3.7-1.6-3.7-3.7c0,0,0,0,0-0.1l0,0v-1.2c0-2,1.6-3.7,3.7-3.7
					h20.1c2,0,3.7,1.7,3.7,3.7c0,0,0,0,0,0l0,0v1.1c0,2-1.6,3.7-3.7,3.7h-7"/>
				<path class="st6" d="M16.2,18.8C12.5,11.4,7.7,5.8,1,5.7H0.8"/>
				<path class="st6" d="M28.6,51.2c-3.4-6-6.3-18.6-10.9-29h46.6v9.7c0,2.5-2,4.5-4.5,4.4H26.6"/>
				<path class="st6" d="M115.8,117.6l-8.3-21c-1.9-4.9-7.4-7.2-12.3-5.3c-2.3,0.9-4.1,2.7-5.1,4.9L80,115.8
					c-2,4.4-6.4,7.3-11.2,7.3H0.5"/>
				<path class="st6" d="M74.3,117.2V75.4c0-3.5,2.9-6.4,6.4-6.4h32.1c3.5,0,6.4,2.9,6.4,6.4v50.6c0,3.5-2.9,6.4-6.4,6.4H0.5"/>
				<path class="st6" d="M0.9,40.8c1.4-0.1,17.6-0.9,17.6,10.4v12.9c0,2.3-1.5,4.1-3.3,4.1H0.5"/>
				<path class="st6" d="M22.3,54.8h10.4c9,0,18,21.3,37.8,21.3h3.7l-8.4,0.1c-43,0-34.5,29.2-51.1,29.2H0.5"/>
			</g>
			<g class="st5">
				<path class="st6" d="M242.4,95.6v33.7c0,2.2,1.8,4,4,4h14.2c2.2,0,4-1.8,4-4V118"/>
				<path class="st6" d="M340.5,118.1h-78c-3.1,0-6.1-1.2-8.3-3.4l-8.4-8.4c-2.2-2.2-3.4-5.2-3.4-8.3V69.2c0-5.6,1.4-11,4.1-15.9
					l5.4-9.9c0.8-1.5,0.5-3.3-0.8-4.4l-1.7-1.4h-12.5c-3,0-5.4-2.4-5.4-5.4v0l0,0l0,0c0-2.4,1.6-4.5,3.8-5.2l13.6-4.1
					c1-0.3,2.1,0.3,2.4,1.3c0.1,0.2,0.1,0.4,0.1,0.6v8c0,1.1,0.9,1.9,1.9,1.9l0,0l0,0"/>
				<path class="st6" d="M260.8,57.6L272,64c3.4,2,7.3,3,11.3,2.9l48.1-1.4l9.1-0.2"/>
				<path class="st6" d="M340.5,0h-54.3c-5.7,0-10.9,3-13.8,7.9l-15.8,26.7l-0.7,17.5l-3.4,3.4c-2.2,2.2-3.4,5.2-3.4,8.2v2.4
					c0,5.6,4.6,10.2,10.2,10.2h21.2c3.5,0,6.3-2.8,6.3-6.3l0,0"/>
				<polyline class="st6" points="339.5,102.7 331.2,102.7 286.8,102.7 				"/>
				<path class="st6" d="M340.5,5.7h-54.6c-2.6,0-4.9,1.4-6.2,3.6l-10.2,17.9c-1.6,2.9-0.6,6.5,2.3,8.2c0.8,0.4,1.7,0.7,2.6,0.8
					l49.7,2.7c4.8,0.2,11.5,0.2,16.2,0"/>
			</g>
		</g>
		<path class="st6" d="M146.8,122.4h54.8c1.6,0,2.9,1.3,2.9,2.9l0,0l0,0v8.2h-60.5v-8.2C143.9,123.7,145.2,122.4,146.8,122.4
			C146.7,122.4,146.7,122.4,146.8,122.4L146.8,122.4z"/>
		<path class="st6" d="M167.2,35.1h13.9c6,0,10.9,4.8,11.1,10.8l2,76.5h-40l2-76.5C156.3,39.9,161.2,35.1,167.2,35.1z"/>
	</g>
</g>
</svg>
