<svg id="bg" xmlns="http://www.w3.org/2000/svg" viewBox="0 0 340 200">
  <title>1-fanBoost</title>
  <g>
    <g id="battery">
      <rect x="158.02" y="101.45" width="7.68" height="13.48" style="fill: none;stroke: #fff;stroke-linejoin: round;stroke-width: 3px"/>
      <path d="M158,108.19H77.93A13.66,13.66,0,0,1,64.27,94.53V56.95" style="fill: none;stroke: #fff;stroke-linejoin: round;stroke-width: 3px"/>
      <g>
        <g>
          <polyline points="262.12 92.45 262.12 150.84 203.9 150.84" style="fill: none;stroke: #fff;stroke-linejoin: round;stroke-width: 3px"/>
          <polyline points="203.9 150.84 165.73 150.84 165.73 100.03" style="fill: none;stroke: #fff;stroke-linejoin: round;stroke-width: 3px"/>
        </g>
        <g>
          <line x1="178.28" y1="114.19" x2="187.81" y2="114.19" style="fill: none;stroke: #fff;stroke-linejoin: round;stroke-width: 3px"/>
          <line x1="178.28" y1="132.69" x2="187.81" y2="132.69" style="fill: none;stroke: #fff;stroke-linejoin: round;stroke-width: 3px"/>
          <line x1="183.04" y1="109.43" x2="183.04" y2="118.95" style="fill: none;stroke: #fff;stroke-linejoin: round;stroke-width: 3px"/>
          <g>
            <circle cx="246.84" cy="121.46" r="1.67" style="fill: #fff"/>
            <circle cx="239.54" cy="125.68" r="1.67" style="fill: #fff"/>
            <circle cx="239.54" cy="117.24" r="1.67" style="fill: #fff"/>
          </g>
        </g>
      </g>
    </g>
    <g id="battery_cover">
      <g>
        <polyline points="266.82 85.32 266.82 80.14 161.86 80.14 161.86 91.51 262.12 91.51 262.12 121.76" style="fill: none;stroke: #fff;stroke-linejoin: round;stroke-width: 3px"/>
        <line x1="165.73" y1="99.33" x2="165.73" y2="121.76" style="fill: none;stroke: #fff;stroke-linejoin: round;stroke-width: 3px"/>
      </g>
    </g>
    <g id="boost">
      <circle cx="64.09" cy="29.96" r="12.02" transform="translate(20.4 85.6) rotate(-76.91)" style="fill: none;stroke: #fff;stroke-linejoin: round;stroke-width: 3px"/>
      <line x1="68.84" y1="41" x2="74.77" y2="54.82" style="fill: none;stroke: #fff;stroke-linejoin: round;stroke-width: 3px"/>
      <line x1="76.06" y1="28.86" x2="91.33" y2="27.01" style="fill: none;stroke: #fff;stroke-linejoin: round;stroke-width: 3px"/>
      <line x1="66.75" y1="18.23" x2="69.71" y2="3.14" style="fill: none;stroke: #fff;stroke-linejoin: round;stroke-width: 3px"/>
      <line x1="53.94" y1="23.73" x2="40.5" y2="16.26" style="fill: none;stroke: #fff;stroke-linejoin: round;stroke-width: 3px"/>
      <circle cx="64.27" cy="29.88" r="27.06" transform="translate(-2.32 5.61) rotate(-4.91)" style="fill: none;stroke: #fff;stroke-linejoin: round;stroke-width: 3px"/>
      <line x1="55.23" y1="37.81" x2="43.97" y2="48.28" style="fill: none;stroke: #fff;stroke-linejoin: round;stroke-width: 3px"/>
    </g>
    <circle id="boost_circle" cx="63.96" cy="29.91" r="7.29" style="fill: #fff"/>
    <g id="car" style="opacity: 0.30000000000000004">
      <g>
        <path d="M288.13,83.39a28.67,28.67,0,0,0,5.66-17.15h-13a4.68,4.68,0,0,1-4.68-4.68V60.09a4.68,4.68,0,0,1,4.68-4.68h25.45A4.68,4.68,0,0,1,311,60.09v1.48a4.68,4.68,0,0,1-4.68,4.68h-8.84" style="fill: none;stroke: #fff;stroke-linejoin: round;stroke-width: 3px"/>
        <path d="M140.55,83.39a28.67,28.67,0,0,1-5.66-17.15h13a4.68,4.68,0,0,0,4.68-4.68V60.09a4.68,4.68,0,0,0-4.68-4.68H122.4a4.68,4.68,0,0,0-4.68,4.68v1.48a4.68,4.68,0,0,0,4.68,4.68h8.84" style="fill: none;stroke: #fff;stroke-linejoin: round;stroke-width: 3px"/>
      </g>
      <path d="M233.73,18.6C229,9.24,223,2.13,214.49,2h-.3c-13.82.27-20.46,18.26-26.13,35.11" style="fill: none;stroke: #fff;stroke-linejoin: round;stroke-width: 3px"/>
      <path d="M249.54,59.78c-4.29-7.67-8-23.61-13.78-36.82H294.9V35.29A5.67,5.67,0,0,1,289.23,41H247" style="fill: none;stroke: #fff;stroke-linejoin: round;stroke-width: 3px"/>
      <path d="M187.87,23H133.79V35.29A5.67,5.67,0,0,0,139.45,41H186.3c-2.52,7.59-4.75,14.51-7.16,18.82" style="fill: none;stroke: #fff;stroke-linejoin: round;stroke-width: 3px"/>
      <path d="M360.18,144l-10.56-26.66a12,12,0,0,0-22.09-.47l-12.76,25A15.63,15.63,0,0,1,300.5,151H128.32a15.63,15.63,0,0,1-14.27-9.25l-12.76-25a12,12,0,0,0-22.09.47L68.63,144" style="fill: none;stroke: #fff;stroke-linejoin: round;stroke-width: 3px"/>
      <path d="M307.54,143.49v-53a8.13,8.13,0,0,1,8.13-8.13h40.75a8.13,8.13,0,0,1,8.13,8.13v64.17a8.13,8.13,0,0,1-8.13,8.13H72.4a8.13,8.13,0,0,1-8.13-8.13V90.47a8.13,8.13,0,0,1,8.13-8.13h40.75a8.13,8.13,0,0,1,8.13,8.13v53" style="fill: none;stroke: #fff;stroke-linejoin: round;stroke-width: 3px"/>
      <path d="M192.06,59.72c0-14.37,20.54-13.32,22.29-13.21,1.74-.11,22.29-1.16,22.29,13.21V76.06c0,2.9-1.89,5.26-4.22,5.26H196.28c-2.33,0-4.22-2.35-4.22-5.26v-10a1.76,1.76,0,0,0-1.76-1.76H174c-11.4,0-22.8,27-48,27h-5.37" style="fill: none;stroke: #fff;stroke-linejoin: round;stroke-width: 3px"/>
      <path d="M241.51,64.32h13.18c11.4,0,22.8,27,48,27h4.68l-10.68.17c-54.6,0-43.8,37.13-64.87,37.13h-35c-19.58,0-11.64-32.06-54.22-36.59" style="fill: none;stroke: #fff;stroke-linejoin: round;stroke-width: 3px"/>
    </g>
  </g>
</svg>
