<?xml version="1.0" encoding="utf-8"?>
<!-- Generator: Adobe Illustrator 21.0.0, SVG Export Plug-In . SVG Version: 6.00 Build 0)  -->
<svg version="1.1" id="fastRecharge" xmlns="http://www.w3.org/2000/svg" xmlns:xlink="http://www.w3.org/1999/xlink" x="0px" y="0px"
	 viewBox="0 0 340 139" enable-background="new 0 0 340 139" xml:space="preserve">
<g id="bg">
	<g>
		<g>
			<g opacity="0.3">
				<path fill="none" stroke="#FFFFFF" stroke-width="3" stroke-linejoin="round" stroke-miterlimit="10" d="M240.4,100.8v33.7
					c0,2.2,1.8,4,4,4h14.3c2.2,0,4-1.8,4-4v-11.2"/>
				<path fill="none" stroke="#FFFFFF" stroke-width="3" stroke-linejoin="round" stroke-miterlimit="10" d="M337.2,123.3h-76.7
					c-3.1,0-6.1-1.2-8.3-3.4l-8.4-8.4c-2.2-2.2-3.4-5.2-3.4-8.3V74.5c0-5.6,1.4-11,4.1-15.9l5.4-9.9c0.8-1.5,0.5-3.3-0.8-4.4
					l-1.7-1.4h-3.6H235c-3,0-5.4-2.4-5.4-5.4l0,0c0-2.4,1.6-4.5,3.8-5.2l13.6-4.1c1.2-0.4,2.5,0.6,2.5,1.9v8c0,1.1,0.9,1.9,1.9,1.9"
					/>
				<path fill="none" stroke="#FFFFFF" stroke-width="3" stroke-linejoin="round" stroke-miterlimit="10" d="M258.9,62.8l11.1,6.5
					c3.4,2,7.3,3,11.3,2.9l56,0.6"/>
				<path fill="none" stroke="#FFFFFF" stroke-width="3" stroke-linejoin="round" stroke-miterlimit="10" d="M337.2,5.3h-53.1
					c-5.7,0-10.9,3-13.8,7.9l-15.7,26.7l-0.7,17.5l-3.4,3.4c-2.2,2.2-3.4,5.2-3.4,8.3v2.3c0,5.6,4.6,10.2,10.2,10.2h21.3
					c3.5,0,6.3-2.8,6.3-6.3l0,0"/>

					<line fill="none" stroke="#FFFFFF" stroke-width="3" stroke-linejoin="round" stroke-miterlimit="10" x1="337.2" y1="108.1" x2="284.8" y2="108.1"/>
				<path fill="none" stroke="#FFFFFF" stroke-width="3" stroke-linejoin="round" stroke-miterlimit="10" d="M337.2,11H284
					c-2.6,0-4.9,1.4-6.2,3.6l-10.2,17.9c-2.2,3.9,0.4,8.7,4.9,8.9l49.7,2.7c4.7,0.3,10.4,0.3,15.2,0"/>
			</g>
			<g>
				<g opacity="0.3">
					<g>
						<path fill="none" stroke="#FFFFFF" stroke-width="3" stroke-linejoin="round" stroke-miterlimit="10" d="M57.1,75.2
							c2.8-3.8,4.5-8.5,4.5-13.5l0,0H51.3c-2,0-3.7-1.6-3.7-3.7v-1.2c0-2,1.6-3.7,3.7-3.7h20.1c2,0,3.7,1.6,3.7,3.7V58
							c0,2-1.6,3.7-3.7,3.7h-7"/>
					</g>
					<path fill="none" stroke="#FFFFFF" stroke-width="3" stroke-linejoin="round" stroke-miterlimit="10" d="M14.2,24.1
						C10.5,16.7,4,11.1-2.7,11l0,0l0,0l0,0l0,0"/>
					<path fill="none" stroke="#FFFFFF" stroke-width="3" stroke-linejoin="round" stroke-miterlimit="10" d="M26.7,56.5
						c-3.4-6-6.3-18.6-10.9-29h46.6v9.7c0,2.5-2,4.5-4.5,4.5H24.6"/>
					<path fill="none" stroke="#FFFFFF" stroke-width="3" stroke-linejoin="round" stroke-miterlimit="10" d="M-2.7,137.6"/>
					<path fill="none" stroke="#FFFFFF" stroke-width="3" stroke-linejoin="round" stroke-miterlimit="10" d="M113.8,122.8l-8.3-21
						c-3.1-7.8-14-8-17.4-0.4l-10.1,19.7c-2,4.4-6.4,7.3-11.2,7.3H-2.7"/>
					<path fill="none" stroke="#FFFFFF" stroke-width="3" stroke-linejoin="round" stroke-miterlimit="10" d="M-2.7,122.5"/>
					<path fill="none" stroke="#FFFFFF" stroke-width="3" stroke-linejoin="round" stroke-miterlimit="10" d="M72.3,122.5V80.7
						c0-3.5,2.9-6.4,6.4-6.4h32.1c3.5,0,6.4,2.9,6.4,6.4V106v25.3c0,3.5-2.9,6.4-6.4,6.4H-2.7"/>
					<path fill="none" stroke="#FFFFFF" stroke-width="3" stroke-linejoin="round" stroke-miterlimit="10" d="M-2.7,46.1
						c1.4-0.1,19.2-0.9,19.2,10.4v12.9c0,2.3-1.5,4.1-3.3,4.1H-2.7l0,0"/>
					<path fill="none" stroke="#FFFFFF" stroke-width="3" stroke-linejoin="round" stroke-miterlimit="10" d="M20.3,60.1h10.4
						c9,0,18,21.3,37.8,21.3h3.7l-8.4,0.1c-43,0-34.5,29.3-51.1,29.3c-8,0-7.4,0-15.4,0"/>
				</g>
			</g>
		</g>
		<path fill="none" stroke="#FFFFFF" stroke-width="3" stroke-linejoin="round" stroke-miterlimit="10" d="M199.6,127.7h-54.8
			c-1.6,0-2.9,1.3-2.9,2.9v8.2h60.5v-8.2C202.4,129,201.1,127.7,199.6,127.7z"/>
		<path fill="none" stroke="#FFFFFF" stroke-width="3" stroke-linejoin="round" stroke-miterlimit="10" d="M165.2,40.3h13.9
			c6,0,10.9,4.8,11.1,10.8l2,76.5h-40l2-76.5C154.4,45.2,159.2,40.3,165.2,40.3z"/>
	</g>

		<path opacity="0.3" fill="none" stroke="#FFFFFF" stroke-width="2" stroke-linejoin="round" stroke-miterlimit="10" enable-background="new    " d="
		M190.6,70.8L190.6,70.8c4.7,0,8.6,3.8,8.6,8.6v10.9c0,4.7,3.8,8.6,8.6,8.6h32.6"/>

		<path opacity="0.3" fill="none" stroke="#FFFFFF" stroke-width="2" stroke-linejoin="round" stroke-miterlimit="10" enable-background="new    " d="
		M151.8,70.8L151.8,70.8c-4.7,0-8.6,3.8-8.6,8.6v10.9c0,4.7-3.8,8.6-8.6,8.6h-16.3"/>

		<line fill="none" stroke="#FFFFFF" stroke-width="3" stroke-linejoin="round" stroke-miterlimit="10" x1="176.6" y1="112.1" x2="182.1" y2="112.1"/>
	<g>

			<line fill="none" stroke="#FFFFFF" stroke-width="3" stroke-linejoin="round" stroke-miterlimit="10" x1="164.6" y1="112.1" x2="170.1" y2="112.1"/>

			<line fill="none" stroke="#FFFFFF" stroke-width="3" stroke-linejoin="round" stroke-miterlimit="10" x1="164.6" y1="105" x2="170.1" y2="105"/>

			<line fill="none" stroke="#FFFFFF" stroke-width="3" stroke-linejoin="round" stroke-miterlimit="10" x1="164.6" y1="97.8" x2="170.1" y2="97.8"/>

			<line fill="none" stroke="#FFFFFF" stroke-width="3" stroke-linejoin="round" stroke-miterlimit="10" x1="164.6" y1="90.7" x2="170.1" y2="90.7"/>

			<line fill="none" stroke="#FFFFFF" stroke-width="3" stroke-linejoin="round" stroke-miterlimit="10" x1="164.6" y1="83.6" x2="170.1" y2="83.6"/>

			<line fill="none" stroke="#FFFFFF" stroke-width="3" stroke-linejoin="round" stroke-miterlimit="10" x1="164.6" y1="62.1" x2="170.1" y2="62.1"/>

			<line fill="none" stroke="#FFFFFF" stroke-width="3" stroke-linejoin="round" stroke-miterlimit="10" x1="164.6" y1="69.3" x2="170.1" y2="69.3"/>

			<line fill="none" stroke="#FFFFFF" stroke-width="3" stroke-linejoin="round" stroke-miterlimit="10" x1="164.6" y1="76.3" x2="170.1" y2="76.3"/>
	</g>
</g>
<g id="UI">
</g>
</svg>
