<svg id="bg" xmlns="http://www.w3.org/2000/svg" viewBox="0 0 340 200">
  <title>1-regenerativeBraking-formulaE</title>
  <g>
    <g>
      <path d="M122.65,172.91a6.2,6.2,0,0,0,5,2.5h15.61A13.77,13.77,0,0,0,157,161.64V131.43a14.63,14.63,0,0,1,14.63-14.63h24.64" style="fill: none;stroke: #fff;stroke-linejoin: round;stroke-width: 3px"/>
      <rect x="196.27" y="109.23" width="8.25" height="14.48" style="fill: none;stroke: #fff;stroke-linejoin: round;stroke-width: 3px"/>
      <path d="M122,162.86a6.67,6.67,0,1,1-9.44,9.44Z" style="fill: none;stroke: #fff;stroke-linejoin: round;stroke-width: 3px"/>
      <circle cx="95.56" cy="145.54" r="12.8" style="fill: none;stroke: #fff;stroke-linejoin: round;stroke-width: 3px"/>
      <path d="M124.84,136.56a30.62,30.62,0,1,1-21-20.48" style="fill: none;stroke: #fff;stroke-linejoin: round;stroke-width: 3px"/>
      <g>
        <circle cx="74.43" cy="145.54" r="2.08" style="fill: #fff"/>
        <circle cx="116.7" cy="145.54" r="2.08" style="fill: #fff"/>
      </g>
      <g>
        <circle cx="80.62" cy="160.49" r="2.08" transform="translate(-89.87 104.01) rotate(-45)" style="fill: #fff"/>
        <circle cx="110.51" cy="130.6" r="2.08" transform="translate(-59.98 116.39) rotate(-45)" style="fill: #fff"/>
      </g>
      <g>
        <circle cx="95.56" cy="166.68" r="2.08" style="fill: #fff"/>
        <circle cx="95.56" cy="124.41" r="2.08" style="fill: #fff"/>
      </g>
      <g>
        <circle cx="110.51" cy="160.49" r="2.08" transform="translate(-81.12 125.15) rotate(-45)" style="fill: #fff"/>
        <circle cx="80.62" cy="130.6" r="2.08" transform="translate(-68.73 95.26) rotate(-45)" style="fill: #fff"/>
      </g>
      <path d="M104,111.65l-1.83,6.48a30.18,30.18,0,0,1,20.63,20.15l6.44-2a3.74,3.74,0,0,0,2.37-5A41,41,0,0,0,109,109.17,3.74,3.74,0,0,0,104,111.65Z" style="fill: none;stroke: #fff;stroke-linejoin: round;stroke-width: 3px"/>
    </g>
    <g>
      <g>
        <polyline points="308.12 99.56 308.12 162.29 245.57 162.29" style="fill: none;stroke: #fff;stroke-linejoin: round;stroke-width: 3px"/>
        <polyline points="245.57 162.29 204.56 162.29 204.56 107.7" style="fill: none;stroke: #fff;stroke-linejoin: round;stroke-width: 3px"/>
        <g>
          <polyline points="313.18 92.91 313.18 87.33 200.39 87.33 200.39 99.56 308.12 99.56 308.12 123.06" style="fill: none;stroke: #fff;stroke-linejoin: round;stroke-width: 3px"/>
          <line x1="204.56" y1="107.96" x2="204.56" y2="123.06" style="fill: none;stroke: #fff;stroke-linejoin: round;stroke-width: 3px"/>
        </g>
      </g>
      <g>
        <line x1="218.04" y1="122.91" x2="228.28" y2="122.91" style="fill: none;stroke: #fff;stroke-linejoin: round;stroke-width: 3px"/>
        <line x1="218.04" y1="142.79" x2="228.28" y2="142.79" style="fill: none;stroke: #fff;stroke-linejoin: round;stroke-width: 3px"/>
        <line x1="223.16" y1="117.8" x2="223.16" y2="128.03" style="fill: none;stroke: #fff;stroke-linejoin: round;stroke-width: 3px"/>
        <g>
          <circle cx="291.71" cy="130.73" r="1.8" style="fill: #fff"/>
          <circle cx="283.86" cy="135.26" r="1.8" style="fill: #fff"/>
          <circle cx="283.86" cy="126.2" r="1.8" style="fill: #fff"/>
        </g>
      </g>
    </g>
    <g style="opacity: 0.30000000000000004">
      <g>
        <path d="M336.08,89.83a30.81,30.81,0,0,0,6.08-18.43H328.23a5,5,0,0,1-5-5V64.78a5,5,0,0,1,5-5h27.35a5,5,0,0,1,5,5v1.59a5,5,0,0,1-5,5h-9.49" style="fill: none;stroke: #fff;stroke-linejoin: round;stroke-width: 3px"/>
        <path d="M177.5,89.83a30.81,30.81,0,0,1-6.08-18.43h13.93a5,5,0,0,0,5-5V64.78a5,5,0,0,0-5-5H158a5,5,0,0,0-5,5v1.59a5,5,0,0,0,5,5h9.49" style="fill: none;stroke: #fff;stroke-linejoin: round;stroke-width: 3px"/>
      </g>
      <path d="M277.62,20.21c-5.06-10.06-11.55-17.69-20.67-17.87h-.32c-14.85.29-22,19.62-28.08,37.73" style="fill: none;stroke: #fff;stroke-linejoin: round;stroke-width: 3px"/>
      <path d="M294.61,64.45C290,56.21,286,39.08,279.81,24.89h63.53V38.14a6.09,6.09,0,0,1-6.09,6.09h-45.4" style="fill: none;stroke: #fff;stroke-linejoin: round;stroke-width: 3px"/>
      <path d="M228.34,24.89H170.23V38.14a6.09,6.09,0,0,0,6.09,6.09h50.33c-2.7,8.15-5.1,15.59-7.69,20.22" style="fill: none;stroke: #fff;stroke-linejoin: round;stroke-width: 3px"/>
      <path d="M413.49,154.9l-11.35-28.65a12.88,12.88,0,0,0-23.74-.51l-13.71,26.82a16.79,16.79,0,0,1-15.33,9.94h-185A16.79,16.79,0,0,1,149,152.57l-13.71-26.82a12.88,12.88,0,0,0-23.74.51L100.23,154.9" style="fill: none;stroke: #fff;stroke-linejoin: round;stroke-width: 3px"/>
      <path d="M356.93,154.39v-57a8.73,8.73,0,0,1,8.73-8.73h43.79a8.73,8.73,0,0,1,8.73,8.73v68.95a8.73,8.73,0,0,1-8.73,8.73H104.27a8.73,8.73,0,0,1-8.73-8.73V97.43a8.73,8.73,0,0,1,8.73-8.73h43.79a8.73,8.73,0,0,1,8.73,8.73v57" style="fill: none;stroke: #fff;stroke-linejoin: round;stroke-width: 3px"/>
      <path d="M232.84,64.38c0-15.44,22.07-14.32,23.95-14.19,1.87-.12,23.95-1.24,23.95,14.19V81.95c0,3.12-2,5.65-4.54,5.65H237.38c-2.5,0-4.54-2.53-4.54-5.65V71.22A1.89,1.89,0,0,0,231,69.34H213.43c-12.25,0-24.5,29-51.58,29h-5.78" style="fill: none;stroke: #fff;stroke-linejoin: round;stroke-width: 3px"/>
      <path d="M286,69.34h14.16c12.25,0,24.5,29,51.58,29h5l-11.47.18c-58.67,0-47.07,39.89-69.7,39.89H238c-21,0-12.5-34.44-58.26-39.32" style="fill: none;stroke: #fff;stroke-linejoin: round;stroke-width: 3px"/>
    </g>
  </g>
</svg>
