<svg id="bg" xmlns="http://www.w3.org/2000/svg" viewBox="0 0 340 200">
  <title>1-sound-noise</title>
  <g>
    <g style="opacity: 0.30000000000000004">
      <path d="M265.36,130.95a116.16,116.16,0,0,1-7.63-34.1h0c-23.49,0-37.43,10.39-47.43,16.17s-28,13.33-42.74,13.33a246.38,246.38,0,0,1-59.23-7.3" style="fill: none;stroke: #fff;stroke-linejoin: round;stroke-width: 3px"/>
      <path d="M211.92,152.48v-13a3.17,3.17,0,0,1,3.17-3.17s.13-.73,23.55-.73,23.55.73,23.55.73a3.17,3.17,0,0,1,3.17,3.17v16.69a3.17,3.17,0,0,1-3.17,3.17s0,.73-23.55.73-23.55-.73-23.55-.73a3.17,3.17,0,0,1-3.17-3.17s-3.81.45-6.53.45c-42,0-47.36-4.13-64.77-8.63-10.23-2.64-19.13-8.83-21.78-19.06h0a13.52,13.52,0,0,0-10.51-9.88,804.5,804.5,0,0,0-79.65-14.29h-.06a24.38,24.38,0,0,0-10.44,10.17L4,135.26c16.43.11,16.53.68,16.53.68a3,3,0,0,1,3,3v14.62a3,3,0,0,1-3,3s0,.7-22.53.7-22.53-.7-22.53-.7a3,3,0,0,1-3-3V139a3,3,0,0,1,3-3s.12-.7,22.53-.7V105.11" style="fill: none;stroke: #fff;stroke-linejoin: round;stroke-width: 3px"/>
      <g>
        <path d="M-6.83,49l-4.28,18a24.68,24.68,0,0,1-9.54,13l-.24,0q-26.18,1.71-52.46,1.71h-5.87a6.45,6.45,0,0,0-6.45,6.45v3.69a6.45,6.45,0,0,0,6.45,6.45h5.87A804.5,804.5,0,0,1,22.08,104" style="fill: none;stroke: #fff;stroke-linejoin: round;stroke-width: 3px"/>
        <path d="M22.08,70.3A27,27,0,0,1,18.18,65L4,44.66C20.43,44.55,20.52,44,20.52,44a3,3,0,0,0,3-3V26.33a3,3,0,0,0-3-3s0-.7-22.53-.7-22.53.7-22.53.7a3,3,0,0,0-3,3V40.95a3,3,0,0,0,3,3s.12.7,22.53.7V74.81s-.12,3.73,0,3.72A803.4,803.4,0,0,0,108.33,60.91,13.52,13.52,0,0,0,118.84,51h0c2.65-10.23,11.55-16.41,21.78-19.06,17.41-4.5,22.76-8.63,64.77-8.63" style="fill: none;stroke: #fff;stroke-linejoin: round;stroke-width: 3px"/>
      </g>
      <path d="M105.54,57.84l3.7-19.75a2.44,2.44,0,0,0-2.41-2.81h-15A10.37,10.37,0,0,0,82,42.2L72.88,68.29l-.06-13.21a1.59,1.59,0,0,0-2.62-1.22L66.53,57a4.79,4.79,0,0,0,1.15,8h0" style="fill: none;stroke: #fff;stroke-linejoin: round;stroke-width: 3px"/>
      <path d="M105.54,122.22l3.7,19.75a2.44,2.44,0,0,1-2.41,2.81h-15A10.37,10.37,0,0,1,82,137.85l-9.16-26.09L72.82,125a1.59,1.59,0,0,1-2.62,1.22l-3.66-3.09a4.79,4.79,0,0,1,1.15-8h0" style="fill: none;stroke: #fff;stroke-linejoin: round;stroke-width: 3px"/>
      <polyline points="291.01 79.63 291.01 47.53 271.06 47.53 271.06 83.12 271.06 89.82 271.06 132.44 275.09 132.44" style="fill: none;stroke: #fff;stroke-linejoin: round;stroke-width: 3px"/>
      <path d="M271.49,141.38a8.94,8.94,0,0,0,8.94-8.94H291V96.85l10.15-.47V84L291,83.58v8.9" style="fill: none;stroke: #fff;stroke-linejoin: round;stroke-width: 3px"/>
      <path d="M108.33,60.91a246.38,246.38,0,0,1,59.23-7.3c14.7,0,32.74,7.55,42.74,13.33s23.94,16.17,47.43,16.17h0A116.16,116.16,0,0,1,265.36,49" style="fill: none;stroke: #fff;stroke-linejoin: round;stroke-width: 3px"/>
      <path d="M132.88,86.64A6.13,6.13,0,0,1,137.94,84c3.39,0,13.14,2.75,13.14,6.14s-9.75,6.14-13.14,6.14a6.14,6.14,0,0,1-6.14-6.14" style="fill: none;stroke: #fff;stroke-linejoin: round;stroke-width: 3px"/>
      <path d="M77.16,74l-9.23,1.46a7.24,7.24,0,0,0-6.19,7.17V97.35a7.24,7.24,0,0,0,6.19,7.17l13.74,2,2.55-1.87a12.07,12.07,0,0,1,7.14-2.33h25.87A6.81,6.81,0,0,0,124,95.53V84.44a6.81,6.81,0,0,0-6.81-6.81H91.35a12.07,12.07,0,0,1-7.14-2.33l-2.55-1.87s22.4-5.14,57.06-5.14c28.79,0,59.14,12.55,68.58,16.79a5.05,5.05,0,0,1,3,4.61h0v.58h0a5.05,5.05,0,0,1-3,4.61c-9.44,4.24-39.79,16.79-68.58,16.79a308.69,308.69,0,0,1-51.33-4" style="fill: none;stroke: #fff;stroke-linejoin: round;stroke-width: 3px"/>
      <path d="M278.78,42.34a8.93,8.93,0,0,0-7.29-3.76l-6.14.14v1.76a3.17,3.17,0,0,1-3.17,3.17s-.13.73-23.55.73-23.55-.73-23.55-.73a3.17,3.17,0,0,1-3.17-3.17V23.8a3.17,3.17,0,0,1,3.17-3.17s0-.73,23.55-.73,23.55.73,23.55.73a3.17,3.17,0,0,1,3.17,3.17V34.63" style="fill: none;stroke: #fff;stroke-linejoin: round;stroke-width: 3px"/>
    </g>
    <g>
      <path d="M234,51.08a55.4,55.4,0,0,1,0,78.35" style="fill: none;stroke: #fff;stroke-linejoin: round;stroke-width: 3px"/>
      <path d="M251.54,147a80.24,80.24,0,0,0,0-113.47" style="fill: none;stroke: #fff;stroke-linejoin: round;stroke-width: 3px"/>
      <path d="M214.34,64.48a36.46,36.46,0,0,1,0,51.56" style="fill: none;stroke: #fff;stroke-linejoin: round;stroke-width: 3px"/>
    </g>
    <g>
      <path d="M140.81,129.43a55.4,55.4,0,0,1,0-78.35" style="fill: none;stroke: #fff;stroke-linejoin: round;stroke-width: 3px"/>
      <path d="M123.25,33.52a80.24,80.24,0,0,0,0,113.47" style="fill: none;stroke: #fff;stroke-linejoin: round;stroke-width: 3px"/>
      <path d="M160.45,116a36.46,36.46,0,0,1,0-51.56" style="fill: none;stroke: #fff;stroke-linejoin: round;stroke-width: 3px"/>
    </g>
  </g>
</svg>
