<svg id="bg" xmlns="http://www.w3.org/2000/svg" viewBox="0 0 340 200">
  <title>1-tyres</title>
  <g>
    <g style="opacity: 0.30000000000000004">
      <path d="M265.66,122.31a115.88,115.88,0,0,1-7.62-34h0c-23.43,0-37.34,10.36-47.31,16.13s-28,13.3-42.64,13.3A245.78,245.78,0,0,1,109,110.45" style="fill: none;stroke: #fff;stroke-linejoin: round;stroke-width: 3px"/>
      <path d="M212.36,143.79v-13a3.16,3.16,0,0,1,3.16-3.16s.13-.73,23.49-.73,23.49.73,23.49.73a3.16,3.16,0,0,1,3.16,3.16v16.65a3.16,3.16,0,0,1-3.16,3.16s0,.73-23.49.73-23.49-.73-23.49-.73a3.16,3.16,0,0,1-3.16-3.16s-3.81.45-6.52.45c-41.91,0-47.24-4.12-64.61-8.61-10.2-2.64-19.08-8.81-21.73-19h0A13.48,13.48,0,0,0,109,110.45,802.55,802.55,0,0,0,29.56,96.2h-.06a24.32,24.32,0,0,0-10.42,10.15L4.93,126.61c16.4.11,16.49.68,16.49.68a3,3,0,0,1,3,3V144.9a3,3,0,0,1-3,3s0,.7-22.47.7-22.47-.7-22.47-.7a3,3,0,0,1-3-3V130.31a3,3,0,0,1,3-3s.12-.7,22.47-.7V96.53" style="fill: none;stroke: #fff;stroke-linejoin: round;stroke-width: 3px"/>
      <g>
        <path d="M-5.86,40.53l-4.27,18a24.62,24.62,0,0,1-9.51,13l-.24,0Q-46,73.17-72.22,73.17h-5.85a6.43,6.43,0,0,0-6.43,6.43v3.68a6.43,6.43,0,0,0,6.43,6.43h5.85A802.55,802.55,0,0,1,23,95.38" style="fill: none;stroke: #fff;stroke-linejoin: round;stroke-width: 3px"/>
        <path d="M23,61.81a27,27,0,0,1-3.89-5.31L4.93,36.23c16.4-.11,16.49-.68,16.49-.68a3,3,0,0,0,3-3V17.94a3,3,0,0,0-3-3s0-.7-22.47-.7-22.47.7-22.47.7a3,3,0,0,0-3,3V32.53a3,3,0,0,0,3,3s.12.7,22.47.7V66.31S-1.16,70-1,70A801.46,801.46,0,0,0,109,52.44a13.48,13.48,0,0,0,10.49-9.85h0c2.64-10.2,11.52-16.37,21.73-19C158.6,19.09,163.93,15,205.84,15" style="fill: none;stroke: #fff;stroke-linejoin: round;stroke-width: 3px"/>
      </g>
      <path d="M106.24,49.38l3.69-19.7a2.43,2.43,0,0,0-2.41-2.81h-15a10.34,10.34,0,0,0-9.76,6.91l-9.14,26-.06-13.18A1.59,1.59,0,0,0,71,45.41L67.32,48.5a4.78,4.78,0,0,0,1.15,8h0" style="fill: none;stroke: #fff;stroke-linejoin: round;stroke-width: 3px"/>
      <path d="M106.24,113.6l3.69,19.7a2.43,2.43,0,0,1-2.41,2.81h-15a10.34,10.34,0,0,1-9.76-6.91l-9.14-26-.06,13.18A1.59,1.59,0,0,1,71,117.57l-3.66-3.09a4.78,4.78,0,0,1,1.15-8h0" style="fill: none;stroke: #fff;stroke-linejoin: round;stroke-width: 3px"/>
      <polyline points="291.26 71.11 291.26 39.09 271.35 39.09 271.35 74.59 271.35 81.28 271.35 123.8 275.38 123.8" style="fill: none;stroke: #fff;stroke-linejoin: round;stroke-width: 3px"/>
      <path d="M271.79,132.72a8.92,8.92,0,0,0,8.92-8.92h10.55V88.3l10.13-.47V75.52l-10.13-.47v8.88" style="fill: none;stroke: #fff;stroke-linejoin: round;stroke-width: 3px"/>
      <path d="M109,52.44a245.78,245.78,0,0,1,59.08-7.28c14.67,0,32.66,7.53,42.64,13.3s23.88,16.13,47.31,16.13h0a115.88,115.88,0,0,1,7.62-34" style="fill: none;stroke: #fff;stroke-linejoin: round;stroke-width: 3px"/>
      <path d="M133.51,78.11a6.11,6.11,0,0,1,5.05-2.66c3.38,0,13.11,2.74,13.11,6.12s-9.73,6.12-13.11,6.12a6.12,6.12,0,0,1-6.12-6.12" style="fill: none;stroke: #fff;stroke-linejoin: round;stroke-width: 3px"/>
      <path d="M77.92,65.49l-9.21,1.45a7.22,7.22,0,0,0-6.18,7.15V88.8a7.22,7.22,0,0,0,6.18,7.15l13.71,2L85,96.1a12,12,0,0,1,7.12-2.33h25.81A6.79,6.79,0,0,0,124.68,87V75.91a6.79,6.79,0,0,0-6.79-6.79H92.08A12,12,0,0,1,85,66.79l-2.54-1.86s22.35-5.13,56.92-5.13c28.72,0,59,12.52,68.42,16.75a5,5,0,0,1,3,4.6h0v.58h0a5,5,0,0,1-3,4.6c-9.42,4.23-39.69,16.75-68.42,16.75a307.94,307.94,0,0,1-51.2-4" style="fill: none;stroke: #fff;stroke-linejoin: round;stroke-width: 3px"/>
      <path d="M279.06,33.92a8.91,8.91,0,0,0-7.27-3.75l-6.12.14v1.75a3.16,3.16,0,0,1-3.16,3.16S262.38,36,239,36s-23.49-.73-23.49-.73a3.16,3.16,0,0,1-3.16-3.16V15.42a3.16,3.16,0,0,1,3.16-3.16s0-.73,23.49-.73,23.49.73,23.49.73a3.16,3.16,0,0,1,3.16,3.16V26.22" style="fill: none;stroke: #fff;stroke-linejoin: round;stroke-width: 3px"/>
    </g>
    <g>
      <g>
        <path d="M4.93,126.61c16.4.11,16.49.68,16.49.68a3,3,0,0,1,3,3V144.9a3,3,0,0,1-3,3s0,.7-22.47.7-22.47-.7-22.47-.7a3,3,0,0,1-3-3V130.31a3,3,0,0,1,3-3s.12-.7,22.47-.7" style="fill: none;stroke: #fff;stroke-linecap: round;stroke-linejoin: round;stroke-width: 3px"/>
        <path d="M212.36,143.79v-13a3.16,3.16,0,0,1,3.16-3.16s.13-.73,23.49-.73,23.49.73,23.49.73a3.16,3.16,0,0,1,3.16,3.16v16.65a3.16,3.16,0,0,1-3.16,3.16s0,.73-23.49.73-23.49-.73-23.49-.73a3.16,3.16,0,0,1-3.16-3.16" style="fill: none;stroke: #fff;stroke-linecap: round;stroke-linejoin: round;stroke-width: 3px"/>
      </g>
      <path d="M4.93,36.23c16.4-.11,16.49-.68,16.49-.68a3,3,0,0,0,3-3V17.94a3,3,0,0,0-3-3s0-.7-22.47-.7-22.47.7-22.47.7a3,3,0,0,0-3,3V32.53a3,3,0,0,0,3,3s.12.7,22.47.7" style="fill: none;stroke: #fff;stroke-linecap: round;stroke-linejoin: round;stroke-width: 3px"/>
      <path d="M265.66,30.31v1.75a3.16,3.16,0,0,1-3.16,3.16S262.38,36,239,36s-23.49-.73-23.49-.73a3.16,3.16,0,0,1-3.16-3.16V15.42a3.16,3.16,0,0,1,3.16-3.16s0-.73,23.49-.73,23.49.73,23.49.73a3.16,3.16,0,0,1,3.16,3.16V26.22" style="fill: none;stroke: #fff;stroke-linecap: round;stroke-linejoin: round;stroke-width: 3px"/>
    </g>
    <g>
      <g>
        <line x1="234.01" y1="28.28" x2="257.1" y2="28.28" style="fill: none;stroke: #fff;stroke-linejoin: round;stroke-width: 3px"/>
        <line x1="225.08" y1="28.28" x2="220.87" y2="28.28" style="fill: none;stroke: #fff;stroke-linejoin: round;stroke-width: 3px"/>
      </g>
      <line x1="227.46" y1="19.87" x2="247.34" y2="19.87" style="fill: none;stroke: #fff;stroke-linejoin: round;stroke-width: 3px"/>
    </g>
    <g>
      <g>
        <line x1="6.08" y1="21.35" x2="-17" y2="21.35" style="fill: none;stroke: #fff;stroke-linejoin: round;stroke-width: 3px"/>
        <line x1="15.01" y1="21.35" x2="19.23" y2="21.35" style="fill: none;stroke: #fff;stroke-linejoin: round;stroke-width: 3px"/>
      </g>
      <line x1="12.63" y1="29.77" x2="-7.25" y2="29.77" style="fill: none;stroke: #fff;stroke-linejoin: round;stroke-width: 3px"/>
    </g>
    <g>
      <line x1="6.08" y1="133.4" x2="2.69" y2="133.4" style="fill: none;stroke: #fff;stroke-linejoin: round;stroke-width: 3px"/>
      <line x1="15.01" y1="133.4" x2="24.45" y2="133.4" style="fill: none;stroke: #fff;stroke-linejoin: round;stroke-width: 3px"/>
    </g>
    <g>
      <g>
        <line x1="246.96" y1="134.14" x2="228.72" y2="134.14" style="fill: none;stroke: #fff;stroke-linejoin: round;stroke-width: 3px"/>
        <line x1="251.44" y1="134.14" x2="265.33" y2="134.14" style="fill: none;stroke: #fff;stroke-linejoin: round;stroke-width: 3px"/>
      </g>
      <line x1="220.28" y1="142.56" x2="255.91" y2="142.56" style="fill: none;stroke: #fff;stroke-linejoin: round;stroke-width: 3px"/>
    </g>
  </g>
</svg>
