<?xml version="1.0" encoding="utf-8"?>
<!-- Generator: Adobe Illustrator 18.1.1, SVG Export Plug-In . SVG Version: 6.00 Build 0)  -->
<svg version="1.1" id="Layer_1" xmlns="http://www.w3.org/2000/svg" xmlns:xlink="http://www.w3.org/1999/xlink" x="0px" y="0px"
	 viewBox="0 0 146.5 172.6" enable-background="new 0 0 146.5 172.6" xml:space="preserve">
<g>
	<g opacity="0.3">
		<defs>
			<path id="SVGID_1_" opacity="0.3" d="M1,147.4c12.1,0,12.1-40.1,24.2-40.1s12.1,17.8,24.2,17.8c14.6,0,12.1-119.7,24.2-119.7
				S85.8,40.7,98,40.7s12.1,86.1,24.2,86.1s12.1,20.6,24.2,20.6H1z"/>
		</defs>
		<clipPath id="SVGID_2_">
			<use xlink:href="#SVGID_1_"  overflow="visible"/>
		</clipPath>
		<g clip-path="url(#SVGID_2_)">
			
				<line fill="none" stroke="#FFFFFF" stroke-width="1.5" stroke-linejoin="round" stroke-miterlimit="10" x1="0.8" y1="147.4" x2="0.8" y2="0"/>
			
				<line fill="none" stroke="#FFFFFF" stroke-width="1.5" stroke-linejoin="round" stroke-miterlimit="10" x1="7.7" y1="147.4" x2="7.7" y2="0"/>
			
				<line fill="none" stroke="#FFFFFF" stroke-width="1.5" stroke-linejoin="round" stroke-miterlimit="10" x1="14.6" y1="147.4" x2="14.6" y2="0"/>
			
				<line fill="none" stroke="#FFFFFF" stroke-width="1.5" stroke-linejoin="round" stroke-miterlimit="10" x1="21.5" y1="147.4" x2="21.5" y2="0"/>
			
				<line fill="none" stroke="#FFFFFF" stroke-width="1.5" stroke-linejoin="round" stroke-miterlimit="10" x1="28.4" y1="147.4" x2="28.4" y2="0"/>
			
				<line fill="none" stroke="#FFFFFF" stroke-width="1.5" stroke-linejoin="round" stroke-miterlimit="10" x1="35.3" y1="147.4" x2="35.3" y2="0"/>
			
				<line fill="none" stroke="#FFFFFF" stroke-width="1.5" stroke-linejoin="round" stroke-miterlimit="10" x1="42.2" y1="147.4" x2="42.2" y2="0"/>
			
				<line fill="none" stroke="#FFFFFF" stroke-width="1.5" stroke-linejoin="round" stroke-miterlimit="10" x1="49.1" y1="147.4" x2="49.1" y2="0"/>
			
				<line fill="none" stroke="#FFFFFF" stroke-width="1.5" stroke-linejoin="round" stroke-miterlimit="10" x1="56" y1="147.4" x2="56" y2="0"/>
			
				<line fill="none" stroke="#FFFFFF" stroke-width="1.5" stroke-linejoin="round" stroke-miterlimit="10" x1="62.9" y1="147.4" x2="62.9" y2="0"/>
			
				<line fill="none" stroke="#FFFFFF" stroke-width="1.5" stroke-linejoin="round" stroke-miterlimit="10" x1="69.8" y1="147.4" x2="69.8" y2="0"/>
			
				<line fill="none" stroke="#FFFFFF" stroke-width="1.5" stroke-linejoin="round" stroke-miterlimit="10" x1="76.7" y1="147.4" x2="76.7" y2="0"/>
			
				<line fill="none" stroke="#FFFFFF" stroke-width="1.5" stroke-linejoin="round" stroke-miterlimit="10" x1="83.6" y1="147.4" x2="83.6" y2="0"/>
			
				<line fill="none" stroke="#FFFFFF" stroke-width="1.5" stroke-linejoin="round" stroke-miterlimit="10" x1="90.5" y1="147.4" x2="90.5" y2="0"/>
			
				<line fill="none" stroke="#FFFFFF" stroke-width="1.5" stroke-linejoin="round" stroke-miterlimit="10" x1="97.4" y1="147.4" x2="97.4" y2="0"/>
			
				<line fill="none" stroke="#FFFFFF" stroke-width="1.5" stroke-linejoin="round" stroke-miterlimit="10" x1="104.3" y1="147.4" x2="104.3" y2="0"/>
			
				<line fill="none" stroke="#FFFFFF" stroke-width="1.5" stroke-linejoin="round" stroke-miterlimit="10" x1="111.2" y1="147.4" x2="111.2" y2="0"/>
			
				<line fill="none" stroke="#FFFFFF" stroke-width="1.5" stroke-linejoin="round" stroke-miterlimit="10" x1="118.1" y1="147.4" x2="118.1" y2="0"/>
			
				<line fill="none" stroke="#FFFFFF" stroke-width="1.5" stroke-linejoin="round" stroke-miterlimit="10" x1="125" y1="147.4" x2="125" y2="0"/>
			
				<line fill="none" stroke="#FFFFFF" stroke-width="1.5" stroke-linejoin="round" stroke-miterlimit="10" x1="131.9" y1="147.4" x2="131.9" y2="0"/>
			
				<line fill="none" stroke="#FFFFFF" stroke-width="1.5" stroke-linejoin="round" stroke-miterlimit="10" x1="138.8" y1="147.4" x2="138.8" y2="0"/>
			
				<line fill="none" stroke="#FFFFFF" stroke-width="1.5" stroke-linejoin="round" stroke-miterlimit="10" x1="145.8" y1="147.4" x2="145.8" y2="0"/>
		</g>
	</g>
	<g>
		<g>
			
				<circle fill="none" stroke="#FFFFFF" stroke-width="1.5" stroke-linejoin="round" stroke-miterlimit="10" cx="73.7" cy="164.9" r="4"/>
			
				<line fill="none" stroke="#FFFFFF" stroke-width="1.5" stroke-linejoin="round" stroke-miterlimit="10" x1="73.7" y1="172.6" x2="73.7" y2="170.5"/>
			
				<line fill="none" stroke="#FFFFFF" stroke-width="1.5" stroke-linejoin="round" stroke-miterlimit="10" x1="73.7" y1="159.3" x2="73.7" y2="157.1"/>
			
				<line fill="none" stroke="#FFFFFF" stroke-width="1.5" stroke-linejoin="round" stroke-miterlimit="10" x1="65.9" y1="164.9" x2="68.1" y2="164.9"/>
			
				<line fill="none" stroke="#FFFFFF" stroke-width="1.5" stroke-linejoin="round" stroke-miterlimit="10" x1="79.3" y1="164.9" x2="81.5" y2="164.9"/>
			
				<line fill="none" stroke="#FFFFFF" stroke-width="1.5" stroke-linejoin="round" stroke-miterlimit="10" x1="68.2" y1="170.4" x2="69.7" y2="168.8"/>
			
				<line fill="none" stroke="#FFFFFF" stroke-width="1.5" stroke-linejoin="round" stroke-miterlimit="10" x1="77.6" y1="160.9" x2="79.2" y2="159.3"/>
			
				<line fill="none" stroke="#FFFFFF" stroke-width="1.5" stroke-linejoin="round" stroke-miterlimit="10" x1="68.2" y1="159.3" x2="69.7" y2="160.9"/>
			
				<line fill="none" stroke="#FFFFFF" stroke-width="1.5" stroke-linejoin="round" stroke-miterlimit="10" x1="77.6" y1="168.8" x2="79.2" y2="170.4"/>
		</g>
		<path fill="none" stroke="#FFFFFF" stroke-width="1.5" stroke-linejoin="round" stroke-miterlimit="10" d="M12.8,167.9
			c-2.7,0-4.9-2.2-4.9-4.9c0-1.4,0.6-2.6,1.4-3.5c-0.2,0-0.4,0-0.6,0c-3.3,0-6.1,2.7-6.1,6.1c0,3.3,2.7,6.1,6.1,6.1
			c2.6,0,4.8-1.6,5.7-3.9C13.9,167.8,13.3,167.9,12.8,167.9z"/>
		<path fill="none" stroke="#FFFFFF" stroke-width="1.5" stroke-linejoin="round" stroke-miterlimit="10" d="M143.2,167.9
			c-2.7,0-4.9-2.2-4.9-4.9c0-1.4,0.6-2.6,1.4-3.5c-0.2,0-0.4,0-0.6,0c-3.3,0-6.1,2.7-6.1,6.1c0,3.3,2.7,6.1,6.1,6.1
			c2.6,0,4.8-1.6,5.7-3.9C144.3,167.8,143.7,167.9,143.2,167.9z"/>
	</g>
	<g>
		<g>
			<path fill="none" stroke="#FFFFFF" stroke-width="3" stroke-linejoin="round" stroke-miterlimit="10" d="M146.4,147.4
				c-12.1,0-12.1-20.6-24.2-20.6S110.1,40.7,98,40.7S85.8,5.4,73.7,5.4"/>
			<path fill="none" stroke="#FFFFFF" stroke-width="3" stroke-linejoin="round" stroke-miterlimit="10" d="M1,147.4
				c12.1,0,12.1-40.1,24.2-40.1s12.1,17.8,24.2,17.8c14.6,0,12.1-119.7,24.2-119.7"/>
		</g>
		
			<line fill="none" stroke="#FFFFFF" stroke-width="3" stroke-linejoin="round" stroke-miterlimit="10" stroke-dasharray="9,7.712" x1="146.4" y1="63.5" x2="0.9" y2="63.5"/>
		<path opacity="0.3" fill="#FFFFFF" d="M107,63.5c-2.3-13-5-22.8-9.1-22.8c-12.1,0-12.1-35.3-24.2-35.3c-5.9,0-8.4,28.8-11,58.2
			H107z"/>
	</g>
</g>
<g>
	<g opacity="0.3">
		<defs>
			<path id="SVGID_7_" opacity="0.3" d="M233.1,214.8h-112v109.3h119.6V222.4C240.7,218.2,237.3,214.8,233.1,214.8z"/>
		</defs>
		<clipPath id="SVGID_4_">
			<use xlink:href="#SVGID_7_"  overflow="visible"/>
		</clipPath>
		<g clip-path="url(#SVGID_4_)">
			<g>
				
					<line fill="none" stroke="#FFFFFF" stroke-width="3" stroke-linejoin="round" stroke-miterlimit="10" x1="154.4" y1="159.1" x2="100.2" y2="322.1"/>
				
					<line fill="none" stroke="#FFFFFF" stroke-width="3" stroke-linejoin="round" stroke-miterlimit="10" x1="172" y1="165" x2="117.7" y2="327.9"/>
				
					<line fill="none" stroke="#FFFFFF" stroke-width="3" stroke-linejoin="round" stroke-miterlimit="10" x1="189.5" y1="170.8" x2="135.2" y2="333.8"/>
			</g>
		</g>
	</g>
</g>
</svg>
