<?xml version="1.0" encoding="utf-8"?>
<!-- Generator: Adobe Illustrator 18.1.1, SVG Export Plug-In . SVG Version: 6.00 Build 0)  -->
<svg version="1.1" id="Layer_1" xmlns="http://www.w3.org/2000/svg" xmlns:xlink="http://www.w3.org/1999/xlink" x="0px" y="0px"
	 viewBox="0 0 340 150" enable-background="new 0 0 340 150" xml:space="preserve">
<g>
	<defs>
		<rect id="SVGID_3_" x="0.3" y="1" width="340" height="149.1"/>
	</defs>
	<clipPath id="SVGID_2_">
		<use xlink:href="#SVGID_3_"  overflow="visible"/>
	</clipPath>
	<g clip-path="url(#SVGID_2_)">
		<g>
			<g>
				<path fill="none" stroke="#FFFFFF" stroke-width="3" stroke-linejoin="round" stroke-miterlimit="10" d="M194.2,31.8
					c0-5.6-0.3-8.9-1.2-11.3c-0.4-1.1,0.5-2.2,1.6-1.9l2.4,0.7c1.9,0.5,3.2,2.3,3.2,4.4v8.7"/>
				<path fill="none" stroke="#FFFFFF" stroke-width="3" stroke-linejoin="round" stroke-miterlimit="10" d="M194.2,38.6
					c0,5.6-0.3,9.7-1.2,12.1c-0.4,1.1,0.5,2.2,1.6,1.9L197,52c1.9-0.5,3.2-2.3,3.2-4.4v-8.7"/>
			</g>
			<g>
				<g>
					<path fill="none" stroke="#FFFFFF" stroke-width="3" stroke-linejoin="round" stroke-miterlimit="10" d="M129.8,17.9
						c22.5,0,18.9,4.5,25.5,8s19.2,6.8,27.5,6.8h18.9c1.1,0,2.1,1,2.1,2.2v1.8"/>
					<path fill="none" stroke="#FFFFFF" stroke-width="3" stroke-linejoin="round" stroke-miterlimit="10" d="M187.7,21v3
						c0,0.8-0.6,1.4-1.3,1.4h-8.2c-0.7,0-1.3-0.6-1.3-1.4v-3c0-0.8,0.6-1.5,1.4-1.5h8C187,19.5,187.7,20.1,187.7,21z"/>
					<path fill="none" stroke="#FFFFFF" stroke-width="3" stroke-linejoin="round" stroke-miterlimit="10" d="M129.8,18.4v3.7
						c0,0.9-0.7,1.7-1.7,1.7h-10.4c-0.9,0-1.7-0.8-1.7-1.7v-3.7c0-1,0.8-1.8,1.8-1.8H128C129,16.6,129.8,17.4,129.8,18.4z"/>
					
						<line fill="none" stroke="#FFFFFF" stroke-width="3" stroke-linejoin="round" stroke-miterlimit="10" x1="181.9" y1="32.4" x2="181.9" y2="24.4"/>
				</g>
				<g>
					<path fill="none" stroke="#FFFFFF" stroke-width="3" stroke-linejoin="round" stroke-miterlimit="10" d="M203.8,36.3
						c0,1.2-0.9,2.2-2.1,2.2h-18.9c-8.3,0-20.9,3.2-27.5,6.8s-3.1,8-25.5,8"/>
					<path fill="none" stroke="#FFFFFF" stroke-width="3" stroke-linejoin="round" stroke-miterlimit="10" d="M187.7,50.3v-3
						c0-0.8-0.6-1.4-1.3-1.4h-8.2c-0.7,0-1.3,0.6-1.3,1.4v3c0,0.8,0.6,1.5,1.4,1.5h8C187,51.8,187.7,51.1,187.7,50.3z"/>
					<path fill="none" stroke="#FFFFFF" stroke-width="3" stroke-linejoin="round" stroke-miterlimit="10" d="M129.8,52.8v-3.7
						c0-0.9-0.7-1.7-1.7-1.7h-10.4c-0.9,0-1.7,0.8-1.7,1.7v3.7c0,1,0.8,1.8,1.8,1.8H128C129,54.7,129.8,53.8,129.8,52.8z"/>
					
						<line fill="none" stroke="#FFFFFF" stroke-width="3" stroke-linejoin="round" stroke-miterlimit="10" x1="181.9" y1="39.4" x2="181.9" y2="45.4"/>
				</g>
			</g>
			<path fill="none" stroke="#FFFFFF" stroke-width="3" stroke-linejoin="round" stroke-miterlimit="10" d="M128.7,35.9
				c0-2.9,19.2-5.3,22-5.3c2.7,0,4.9,2.4,4.9,5.3c0,2.9-2.2,5.3-4.9,5.3C148,41.2,128.7,38.9,128.7,35.9z"/>
			
				<rect x="108.5" y="23.7" fill="none" stroke="#FFFFFF" stroke-width="3" stroke-linejoin="round" stroke-miterlimit="10" width="7.5" height="24"/>
			<g>
				<path fill="none" stroke="#FFFFFF" stroke-width="3" stroke-linejoin="round" stroke-miterlimit="10" d="M158.3,44.3v5.6
					c0,0.5,0.4,0.8,0.8,0.8l3.5-0.5c3.4-0.5,5.9-3.6,5.9-7.3v-2.1"/>
				<path fill="none" stroke="#FFFFFF" stroke-width="3" stroke-linejoin="round" stroke-miterlimit="10" d="M158.3,26.9v-5.6
					c0-0.5,0.4-0.8,0.8-0.8l3.5,0.5c3.4,0.5,5.9,3.6,5.9,7.3v2.1"/>
			</g>
		</g>
		<g>
			<g>
				<path fill="none" stroke="#FFFFFF" stroke-width="3" stroke-linejoin="round" stroke-miterlimit="10" d="M335.9,31.8
					c0-5.6-0.3-8.9-1.2-11.3c-0.4-1.1,0.5-2.2,1.6-1.9l2.4,0.7c1.9,0.5,3.2,2.3,3.2,4.4v8.7"/>
				<path fill="none" stroke="#FFFFFF" stroke-width="3" stroke-linejoin="round" stroke-miterlimit="10" d="M335.9,38.6
					c0,5.6-0.3,9.7-1.2,12.1c-0.4,1.1,0.5,2.2,1.6,1.9l2.4-0.7c1.9-0.5,3.2-2.3,3.2-4.4v-8.7"/>
			</g>
			<g>
				<g>
					<path fill="none" stroke="#FFFFFF" stroke-width="3" stroke-linejoin="round" stroke-miterlimit="10" d="M271.4,17.9
						c22.5,0,18.9,4.5,25.5,8s19.2,6.8,27.5,6.8h18.9c1.1,0,2.1,1,2.1,2.2v1.8"/>
					<path fill="none" stroke="#FFFFFF" stroke-width="3" stroke-linejoin="round" stroke-miterlimit="10" d="M329.3,21v3
						c0,0.8-0.6,1.4-1.3,1.4h-8.2c-0.7,0-1.3-0.6-1.3-1.4v-3c0-0.8,0.6-1.5,1.4-1.5h8C328.7,19.5,329.3,20.1,329.3,21z"/>
					<path fill="none" stroke="#FFFFFF" stroke-width="3" stroke-linejoin="round" stroke-miterlimit="10" d="M271.4,18.4v3.7
						c0,0.9-0.7,1.7-1.7,1.7h-10.4c-0.9,0-1.7-0.8-1.7-1.7v-3.7c0-1,0.8-1.8,1.8-1.8h10.2C270.6,16.6,271.4,17.4,271.4,18.4z"/>
					
						<line fill="none" stroke="#FFFFFF" stroke-width="3" stroke-linejoin="round" stroke-miterlimit="10" x1="322.9" y1="32.4" x2="322.9" y2="24.4"/>
				</g>
				<g>
					<path fill="none" stroke="#FFFFFF" stroke-width="3" stroke-linejoin="round" stroke-miterlimit="10" d="M345.4,36.3
						c0,1.2-0.9,2.2-2.1,2.2h-18.9c-8.3,0-20.9,3.2-27.5,6.8s-3.1,8-25.5,8"/>
					<path fill="none" stroke="#FFFFFF" stroke-width="3" stroke-linejoin="round" stroke-miterlimit="10" d="M329.3,50.3v-3
						c0-0.8-0.6-1.4-1.3-1.4h-8.2c-0.7,0-1.3,0.6-1.3,1.4v3c0,0.8,0.6,1.5,1.4,1.5h8C328.7,51.8,329.3,51.1,329.3,50.3z"/>
					<path fill="none" stroke="#FFFFFF" stroke-width="3" stroke-linejoin="round" stroke-miterlimit="10" d="M271.4,52.8v-3.7
						c0-0.9-0.7-1.7-1.7-1.7h-10.4c-0.9,0-1.7,0.8-1.7,1.7v3.7c0,1,0.8,1.8,1.8,1.8h10.2C270.6,54.7,271.4,53.8,271.4,52.8z"/>
					
						<line fill="none" stroke="#FFFFFF" stroke-width="3" stroke-linejoin="round" stroke-miterlimit="10" x1="322.9" y1="39.4" x2="322.9" y2="45.4"/>
				</g>
			</g>
			<path fill="none" stroke="#FFFFFF" stroke-width="3" stroke-linejoin="round" stroke-miterlimit="10" d="M270.2,35.9
				c0-2.9,19.2-5.3,22-5.3s4.9,2.4,4.9,5.3c0,2.9-2.2,5.3-4.9,5.3S270.2,38.9,270.2,35.9z"/>
			
				<rect x="250.2" y="23.7" fill="none" stroke="#FFFFFF" stroke-width="3" stroke-linejoin="round" stroke-miterlimit="10" width="7.5" height="24"/>
			<g>
				<path fill="none" stroke="#FFFFFF" stroke-width="3" stroke-linejoin="round" stroke-miterlimit="10" d="M300,44.3v5.6
					c0,0.5,0.4,0.8,0.8,0.8l3.5-0.5c3.4-0.5,5.9-3.6,5.9-7.3v-2.1"/>
				<path fill="none" stroke="#FFFFFF" stroke-width="3" stroke-linejoin="round" stroke-miterlimit="10" d="M300,26.9v-5.6
					c0-0.5,0.4-0.8,0.8-0.8l3.5,0.5c3.4,0.5,5.9,3.6,5.9,7.3v2.1"/>
			</g>
		</g>
		<g>
			<g>
				<path fill="none" stroke="#FFFFFF" stroke-width="3" stroke-linejoin="round" stroke-miterlimit="10" d="M52.5,31.8
					c0-5.6-0.3-8.9-1.2-11.3c-0.4-1.1,0.5-2.2,1.6-1.9l2.4,0.7c1.9,0.5,3.2,2.3,3.2,4.4v8.7"/>
				<path fill="none" stroke="#FFFFFF" stroke-width="3" stroke-linejoin="round" stroke-miterlimit="10" d="M52.5,38.6
					c0,5.6-0.3,9.7-1.2,12.1c-0.4,1.1,0.5,2.2,1.6,1.9l2.4-0.7c1.9-0.5,3.2-2.3,3.2-4.4v-8.7"/>
			</g>
			<g>
				<g>
					<path fill="none" stroke="#FFFFFF" stroke-width="3" stroke-linejoin="round" stroke-miterlimit="10" d="M-11.9,17.9
						c22.5,0,18.9,4.5,25.5,8s19.2,6.8,27.5,6.8H60c1.1,0,2.1,1,2.1,2.2v1.8"/>
					<path fill="none" stroke="#FFFFFF" stroke-width="3" stroke-linejoin="round" stroke-miterlimit="10" d="M46,21v3
						c0,0.8-0.6,1.4-1.3,1.4h-8.2c-0.7,0-1.3-0.6-1.3-1.4v-3c0-0.8,0.6-1.5,1.4-1.5h8C45.4,19.5,46,20.1,46,21z"/>
					
						<line fill="none" stroke="#FFFFFF" stroke-width="3" stroke-linejoin="round" stroke-miterlimit="10" x1="39.9" y1="32.4" x2="39.9" y2="24.4"/>
				</g>
				<g>
					<path fill="none" stroke="#FFFFFF" stroke-width="3" stroke-linejoin="round" stroke-miterlimit="10" d="M62.1,36.3
						c0,1.2-0.9,2.2-2.1,2.2H41.1c-8.3,0-20.9,3.2-27.5,6.8s-3.1,8-25.5,8"/>
					<path fill="none" stroke="#FFFFFF" stroke-width="3" stroke-linejoin="round" stroke-miterlimit="10" d="M46,50.3v-3
						c0-0.8-0.6-1.4-1.3-1.4h-8.2c-0.7,0-1.3,0.6-1.3,1.4v3c0,0.8,0.6,1.5,1.4,1.5h8C45.4,51.8,46,51.1,46,50.3z"/>
					
						<line fill="none" stroke="#FFFFFF" stroke-width="3" stroke-linejoin="round" stroke-miterlimit="10" x1="39.9" y1="39.4" x2="39.9" y2="45.4"/>
				</g>
			</g>
			<path fill="none" stroke="#FFFFFF" stroke-width="3" stroke-linejoin="round" stroke-miterlimit="10" d="M-13.2,35.9
				c0-2.9,19.2-5.3,22-5.3s4.9,2.4,4.9,5.3c0,2.9-2.2,5.3-4.9,5.3S-13.2,38.9-13.2,35.9z"/>
			<g>
				<path fill="none" stroke="#FFFFFF" stroke-width="3" stroke-linejoin="round" stroke-miterlimit="10" d="M16.7,44.3v5.6
					c0,0.5,0.4,0.8,0.8,0.8l3.5-0.5c3.4-0.5,5.9-3.6,5.9-7.3v-2.1"/>
				<path fill="none" stroke="#FFFFFF" stroke-width="3" stroke-linejoin="round" stroke-miterlimit="10" d="M16.7,26.9v-5.6
					c0-0.5,0.4-0.8,0.8-0.8l3.5,0.5c3.4,0.5,5.9,3.6,5.9,7.3v2.1"/>
			</g>
		</g>
		
			<rect x="-42.5" y="79.4" fill="none" stroke="#FFFFFF" stroke-width="3" stroke-linejoin="round" stroke-miterlimit="10" width="114" height="85"/>
		
			<rect x="99.2" y="79.4" fill="none" stroke="#FFFFFF" stroke-width="3" stroke-linejoin="round" stroke-miterlimit="10" width="114" height="85"/>
		
			<rect x="240.8" y="79.4" fill="none" stroke="#FFFFFF" stroke-width="3" stroke-linejoin="round" stroke-miterlimit="10" width="114" height="85"/>
		<g opacity="0.3">
			<path fill="none" stroke="#FFFFFF" stroke-linejoin="round" stroke-miterlimit="10" d="M25.8,79.4v-1.1c0-5.3-4.3-9.6-9.6-9.6h0
				c-5.3,0-9.6-4.3-9.6-9.6v-8.5"/>
			<path fill="none" stroke="#FFFFFF" stroke-linejoin="round" stroke-miterlimit="10" d="M176.8,79.4L176.8,79.4
				c0-5.9-4.8-10.7-10.7-10.7h-20.4c-5.9,0-10.7-4.8-10.7-10.7v-3.4"/>
			<path fill="none" stroke="#FFFFFF" stroke-linejoin="round" stroke-miterlimit="10" d="M301.9,80.5L301.9,80.5
				c-0.2-4.1-3.6-7.4-7.7-7.4h-43.4c-2.4,0-4.3-1.9-4.3-4.3v0c0-2.4,1.9-4.3,4.3-4.3h22.5c5.4,0,9.9-4.4,9.9-9.9v0"/>
		</g>
	</g>
</g>
</svg>
