<?xml version="1.0" encoding="utf-8"?>
<!-- Generator: Adobe Illustrator 18.1.1, SVG Export Plug-In . SVG Version: 6.00 Build 0)  -->
<svg version="1.1" id="Layer_1" xmlns="http://www.w3.org/2000/svg" xmlns:xlink="http://www.w3.org/1999/xlink" x="0px" y="0px"
	 viewBox="0 0 295 129.6" enable-background="new 0 0 295 129.6" xml:space="preserve">
<g>
	<path fill="none" stroke="#FFFFFF" stroke-width="4" stroke-miterlimit="10" d="M2.3,73.7L2.3,73.7c0.6,1.4,2.3,1.9,3.6,1.3
		l67.4-32c3.5-1.6,7.6-0.5,9.7,2.7l8,12.3c0.5,0.8,1.1,1.6,1.8,2.2l43.5,45.3c1.5,1.6,3.3,2.8,5.3,3.6l41.3,17.9
		c2.2,0.9,4.7,0.4,6.5-1.3l0,0c2.4-2.3,2.5-6.2,0.2-8.6l-1.2-1.2c-0.9-0.9-0.9-2.3,0-3.2L291.8,9.1c1.6-1.6,1.6-4.2,0.1-5.8
		l-0.1-0.1c-1.6-1.7-4.3-1.7-5.9,0l-87.4,88c-0.4,0.4-0.8,0.9-1.2,1.3c-3.8,4.7-28.9,32.6-60.4,3L108.7,67c-0.8-0.8-2.4-2.8-2.8-3.9
		l-1.8-3.2c-0.4-1.2,0.6-2.5,1.9-2.3h0c1.1,0.2,2.1-0.7,2-1.8l-0.3-7.9c0-0.3-0.1-0.7-0.3-1L89.1,22c-2.4-3.3-7.1-4.1-10.5-1.8
		L64,30.1c-0.5,0.4-1.1,0.8-1.5,1.2l-8.6,7.6c-0.7,0.6-1.4,1.1-2.2,1.6L3.3,70.2C2.1,70.9,1.7,72.4,2.3,73.7z"/>
	<path fill="none" stroke="#FFFFFF" stroke-width="2.5" stroke-miterlimit="10" d="M46.2,55.9c0,0,19-7.6,25.5-2.7
		c1.6,1.2,1.6,3.6,0,4.8L43.5,80.9c-2.8,2.3-3,6.4-0.6,9l0,0c2.2,2.3,5.7,2.5,8.2,0.6l28.6-22.7c2.2-1.8,4.9-2.9,7.7-3.2l8.5-1"/>
</g>
</svg>
