<svg xmlns="http://www.w3.org/2000/svg" viewBox="0 0 340 260">
  <title>2-raceMicrogrid-city</title>
  <g id="bg">
    <polyline points="85.25 97.38 84.24 88.75 91.2 88.75 93.4 106.09 86.29 106.09 88.3 117.25 76.16 100.99 85.78 100.99" style="fill: none;stroke: #fff;stroke-linejoin: round;stroke-width: 2px"/>
    <path d="M258.09,108.08a5.95,5.95,0,1,1,1.58-1.31l3.48,2,7.07-.93L265,102.91,270.22,98l-7.07-.93,1.3-7-6.26,3.41L255.12,87l-3.07,6.44-6.26-3.41,1.3,7L240,98l5.18,4.91L240,107.82l7.07.93-1.3,7,6.26-3.41,3.07,6.44,3.07-6.44,6.26,3.41-1-4.37" style="fill: none;stroke: #fff;stroke-linejoin: round;stroke-width: 2px"/>
    <g>
      <path d="M81.53,167.73a14.13,14.13,0,0,1-4.46-10.12c0-5.19,3-9.72,7.71-12.57,4.68,2.84,7.71,7.38,7.71,12.57s-3,9.65-7.71,12.5V153.74" style="fill: none;stroke: #fff;stroke-linejoin: round;stroke-width: 2px"/>
      <path d="M174.87,223.51v-1.77a9.66,9.66,0,1,0-7.73,0v3.7h7.73v1.93a1.93,1.93,0,0,1-1.93,1.93h-3.86a1.93,1.93,0,0,1-1.93-1.93" style="fill: none;stroke: #fff;stroke-linejoin: round;stroke-width: 2px"/>
      <path d="M225.42,187.4a3.31,3.31,0,0,1,2.08-.76c2.13,0,3.86,2.16,3.86,4.83a5.18,5.18,0,0,1-1.83,4.1c3.91,1,6.66,4.82,6.66,9.42v1.93H211.08V205c0-4.6,2.75-8.45,6.66-9.42a5.18,5.18,0,0,1-1.83-4.1c0-2.67,1.73-4.83,3.86-4.83s3.86,2.16,3.86,4.83a5.18,5.18,0,0,1-1.83,4.1c3.33.83,6.66,4.43,6.66,7.49v1.16" style="fill: none;stroke: #fff;stroke-linejoin: round;stroke-width: 2px"/>
      <path d="M104.34,192.75l.8-3.33c.26-1,.88-2,2-2h9.61c1.07,0,1.58.82,2,2l1.58,5.78h-19a2,2,0,0,0-2,1.95v5.77a2,2,0,0,0,2,2h2.12a2.93,2.93,0,1,0,5.52,0h6a2.93,2.93,0,1,0,5.52,0h2.06a2,2,0,0,0,2-2v-5.77a2,2,0,0,0-2-1.95" style="fill: none;stroke: #fff;stroke-linejoin: round;stroke-width: 2px"/>
      <polyline points="254.51 167.24 254.51 160.48 248.72 160.48 248.72 170.14 260.31 170.14 260.31 155.65 263.2 155.65 263.2 154.68 259.34 151.46 259.34 145.99 255.48 145.99 255.48 147.92 251.61 145.03 240.02 154.68 240.02 155.65 242.92 155.65 242.92 170.14 245.82 170.14" style="fill: none;stroke: #fff;stroke-linejoin: round;stroke-width: 2px"/>
      <path d="M117.29,48a23.11,23.11,0,0,1-5.41.59c-4.78,0-8.66-1.2-8.66-2.68s3.88-2.68,8.66-2.68,8.66,1.2,8.66,2.68V65.84c0,1.48-3.88,2.68-8.66,2.68s-8.66-1.2-8.66-2.68v-6.3c0,1.48,3.88,2.68,8.66,2.68a24.93,24.93,0,0,0,4.33-.36V54.62a24.89,24.89,0,0,1-4.33.36c-4.78,0-8.66-1.2-8.66-2.68V49.58" style="fill: none;stroke: #fff;stroke-linejoin: round;stroke-width: 2px"/>
    </g>
    <g style="opacity: 0.5">
      <circle cx="168.69" cy="127.03" r="24.85" style="fill: none;stroke: #fff;stroke-linejoin: round"/>
      <g>
        <path d="M198.6,54.85h-5.5a49.26,49.26,0,0,0-49.26,49.26v22.74" style="fill: none;stroke: #fff;stroke-linejoin: round"/>
        <path d="M109.29,76.28l-1.7,5.23a49.26,49.26,0,0,0,31.63,62.07l21.63,7" style="fill: none;stroke: #fff;stroke-linejoin: round"/>
        <path d="M102.07,167.84l4.45,3.23a49.26,49.26,0,0,0,68.8-10.9l13.37-18.4" style="fill: none;stroke: #fff;stroke-linejoin: round"/>
        <path d="M186.92,203l4.45-3.23a49.26,49.26,0,0,0,10.9-68.8l-13.37-18.4" style="fill: none;stroke: #fff;stroke-linejoin: round"/>
        <path d="M246.58,133.17l-1.7-5.23a49.26,49.26,0,0,0-62.07-31.63l-21.63,7" style="fill: none;stroke: #fff;stroke-linejoin: round"/>
      </g>
      <g>
        <path d="M138.78,54.85h5.5a49.26,49.26,0,0,1,49.26,49.26v22.74" style="fill: none;stroke: #fff;stroke-linejoin: round"/>
        <path d="M228.09,76.28l1.7,5.23a49.26,49.26,0,0,1-31.63,62.07l-21.63,7" style="fill: none;stroke: #fff;stroke-linejoin: round"/>
        <path d="M235.31,167.84l-4.45,3.23a49.26,49.26,0,0,1-68.8-10.9l-13.37-18.4" style="fill: none;stroke: #fff;stroke-linejoin: round"/>
        <path d="M150.46,203,146,199.77a49.26,49.26,0,0,1-10.9-68.8l13.37-18.4" style="fill: none;stroke: #fff;stroke-linejoin: round"/>
        <path d="M90.8,133.17l1.7-5.23a49.26,49.26,0,0,1,62.07-31.63l21.63,7" style="fill: none;stroke: #fff;stroke-linejoin: round"/>
      </g>
      <g>
        <path d="M138.78,199h5.5a49.26,49.26,0,0,0,49.26-49.26V127" style="fill: none;stroke: #fff;stroke-linejoin: round"/>
        <path d="M228.09,177.57l1.7-5.23a49.26,49.26,0,0,0-31.63-62.07l-21.63-7" style="fill: none;stroke: #fff;stroke-linejoin: round"/>
        <path d="M235.31,86l-4.45-3.23a49.26,49.26,0,0,0-68.8,10.9l-13.37,18.4" style="fill: none;stroke: #fff;stroke-linejoin: round"/>
        <path d="M150.46,50.85,146,54.09a49.26,49.26,0,0,0-10.9,68.8l13.37,18.4" style="fill: none;stroke: #fff;stroke-linejoin: round"/>
        <path d="M90.8,120.68l1.7,5.23a49.26,49.26,0,0,0,62.07,31.63l21.63-7" style="fill: none;stroke: #fff;stroke-linejoin: round"/>
      </g>
      <g>
        <path d="M198.6,199h-5.5a49.26,49.26,0,0,1-49.26-49.26V127" style="fill: none;stroke: #fff;stroke-linejoin: round"/>
        <path d="M109.29,177.57l-1.7-5.23a49.26,49.26,0,0,1,31.63-62.07l21.63-7" style="fill: none;stroke: #fff;stroke-linejoin: round"/>
        <path d="M102.07,86l4.45-3.23a49.26,49.26,0,0,1,68.8,10.9l13.37,18.4" style="fill: none;stroke: #fff;stroke-linejoin: round"/>
        <path d="M186.92,50.85l4.45,3.23a49.26,49.26,0,0,1,10.9,68.8l-13.37,18.4" style="fill: none;stroke: #fff;stroke-linejoin: round"/>
        <path d="M246.58,120.68l-1.7,5.23a49.26,49.26,0,0,1-62.07,31.63l-21.63-7" style="fill: none;stroke: #fff;stroke-linejoin: round"/>
      </g>
    </g>
    <path d="M233.37,49.49a3.27,3.27,0,0,1,0,6.55h-5.45v0h-3.84s-3.85-.16-3.85-4c0,0,.05-3.79,3.85-3.79a7.74,7.74,0,0,1,15.08-2.44h0a7.21,7.21,0,0,1,0,14.43h-9.77a3.27,3.27,0,0,0,0,6.55" style="fill: none;stroke: #fff;stroke-linejoin: round;stroke-width: 2px"/>
  </g>
  <g id="UI">
    <text transform="translate(152.02 166.52)" style="font-size: 12px;fill: #fff;font-family: UniversLTStd, Univers LT Std">Meter</text>
    <path d="M172.16,28.45h4.4V52h-13.2V28.44h3.33V27.35a2.09,2.09,0,0,1,2.09-2.2h3.37a1,1,0,0,1,1.08,1.08" style="fill: none;stroke: #fff;stroke-linejoin: round;stroke-width: 2px"/>
    <g>
      <path d="M158,121.78v-7.52H179.4v29.13H158V125.07h2.27a2.12,2.12,0,0,1,2.12,2.12v4.44a2.12,2.12,0,0,0,2.12,2.12h0a2.12,2.12,0,0,0,2.12-2.12V120.5a2.13,2.13,0,0,1,2.13-2.13h0a2.13,2.13,0,0,1,2.13,2.13v6.94a2.18,2.18,0,0,0,2.18,2.18h0a2.18,2.18,0,0,0,2.18-2.18V125h.95" style="fill: none;stroke: #fff;stroke-linejoin: round;stroke-width: 2px"/>
      <line x1="163.04" y1="139" x2="167.04" y2="139" style="fill: none;stroke: #fff;stroke-linejoin: round;stroke-width: 2px"/>
    </g>
  </g>
</svg>
