<?xml version="1.0" encoding="utf-8"?>
<!-- Generator: Adobe Illustrator 21.1.0, SVG Export Plug-In . SVG Version: 6.00 Build 0)  -->
<svg version="1.1" id="Layer_1" xmlns="http://www.w3.org/2000/svg" xmlns:xlink="http://www.w3.org/1999/xlink" x="0px" y="0px"
	 width="295px" height="129.6px" viewBox="0 0 295 129.6" style="enable-background:new 0 0 295 129.6;" xml:space="preserve">
<style type="text/css">
	.st0{fill:none;stroke:#FFFFFF;stroke-width:2.5;stroke-linejoin:round;stroke-miterlimit:10;}
	.st1{fill:none;stroke:#FFFFFF;stroke-width:4;stroke-linejoin:round;stroke-miterlimit:10;}
</style>
<g>
	<path class="st0" d="M151.3,18.1c2.1,2,4.2,4,6.3,6.1c1.8,1.7,3.9,2.7,6.4,2.7c3,0.1,6.1,0.2,9.1,0.3c6,0.2,12,0.4,17.9,0.5
		c7.6,0.2,15.2,0.5,22.8,0.7c7.9,0.2,15.8,0.5,23.8,0.7c6.9,0.2,13.8,0.4,20.7,0.6c4.6,0.1,9.1,0.3,13.7,0.4c1,0,2,0.1,3,0.1
		c3.2,0.1,6.1,2.2,6.6,5.5c0.3,1.6,0.3,3.3,0.5,5c0.3,3.4,0.7,6.9,1,10.3c0.6,6.6,1.3,13.1,1.9,19.7c0,0.4,0.1,0.8,0.1,1.2"/>
	<path class="st1" d="M102.9,11.7c-2.7,0-5.4,0-8.1,0c-6.6,0-13.3,0-19.9,0c-8.4,0-16.8,0-25.2,0c-8,0-16.1,0-24.1,0
		c-5.5,0-11,0-16.4,0c-1.1,0-2.2,0-3.3,0c-1.2,0-2.2,0.4-3,1.4c-0.7,1-1,2.3-0.5,3.4c0.4,0.9,1.1,1.6,1.7,2.3
		c1.3,1.6,1.1,3.2,1.1,5.2c0,2.9,0,5.9,0,8.8c0,8.3,0,16.6,0,24.9c0,3.2,0,6.5,0,9.7c0,1.4-0.1,2.8,0,4.2c0.4,3.9,5,3.1,7.7,3.1
		c4,0,8.1,0,12.1,0c2.6,0,6.8-0.8,8,2.3c0.4,1,0.2,2.4,0.2,3.5c0,2,0,3.9,0,5.9c0,1.9,0,3.8,0,5.7c0,1.3-0.1,2.6,0.7,3.8
		c1.2,1.6,2.9,1.4,4.5,1.3c4.9-0.3,9.9-0.6,14.8-0.9c7.9-0.5,15.9-0.9,23.8-1.4c8.3-0.5,16.6-1,25-1.5c5.9-0.3,11.8-0.7,17.7-1
		c1.2-0.1,2.4-0.2,3.6-0.2c1.3-0.1,2.6,0.5,3.9,0.9c7.4,2.1,14.7,4.3,22.1,6.4c2.6,0.7,5.1,1.5,7.7,2.2c2.3,0.7,3.7,3,5.3,4.8
		c1.3,1.5,2.6,3,3.9,4.5c0.3,0.4,0.6,0.7,1,1.1c0.8,1,0.8,1.9,1,3c0.4,2.2,2.5,3.2,4.6,2.7c1.1-0.3,2.3-0.6,3.4-0.9
		c3.9-1,7.8-2,11.7-3c1.4-0.4,2.8-0.7,4.2-1.1c1.5-0.4,2.9-1,3.3-2.7c0.2-0.8,0.1-1.7,0.1-2.5c0-1.6,0-3.1,0-4.7c0-4.1,0-8.3,0-12.4
		c0-1.5,0-3,0-4.4c0-1-0.1-2,0.4-3c0.9-1.7,2.6-1.8,4.2-2c4.8-0.5,9.7-1.1,14.5-1.6c7.9-0.9,15.8-1.7,23.7-2.6
		c8.3-0.9,16.6-1.8,24.9-2.7c6.2-0.7,12.4-1.3,18.6-2c1.5-0.2,2.9-0.3,4.4-0.5c2.2-0.2,3.8-1.7,3.7-4.1c-0.2-7-0.5-14-0.8-21
		c-0.1-2.7-0.5-5.7,0.3-8.3c1-3.1,2-6.2,3.1-9.3c0.5-1.5,1.1-3,0.3-4.5c-0.7-1.2-1.8-1.7-3.1-1.8c-0.8,0-1.6,0-2.5-0.1
		c-4.3-0.1-8.7-0.2-13-0.3c-6.9-0.2-13.8-0.4-20.6-0.6c-8.3-0.2-16.7-0.4-25-0.7c-8.5-0.2-17-0.5-25.5-0.7
		c-7.5-0.2-15.1-0.4-22.6-0.6c-5.4-0.1-10.7-0.3-16.1-0.4c-2.1-0.1-4.3,0-6.4-0.2c-2-0.2-4-0.7-6-1.1c-4-0.8-8-1.5-12-2.3
		c-3.4-0.6-6.9-1.3-10.3-1.9c-0.7-0.1-1.4-0.3-2-0.4c-1.1-0.2-2.3,0.1-3.1,0.9c-0.8,0.7-1.2,1.7-2.1,2.3c-1.2,0.8-2.8,0.6-4.2,0.6
		c-2,0-3.9,0-5.9,0c-1.3,0-2.9,0.2-4.1-0.4c-1.2-0.7-1.5-1.7-1.9-2.9C105.7,12.6,104.3,11.7,102.9,11.7z"/>
</g>
</svg>
