<svg id="Layer_1" data-name="Layer 1" xmlns="http://www.w3.org/2000/svg" viewBox="0 0 272 145"><title>BerlinCircuitS04</title><path d="M105.41,105.45a7.85,7.85,0,0,1-2.49-.39l.47-1.29-.23.64.23-.64a6.26,6.26,0,0,0,6.06-1.22l.84-.86c.31-.41,2.26-2.72,6.24-1.71,3.73.95,4.19.91,5,.85l1-.07,2.32-.15c.69-.05,4.24-.48,6.89-.91,14.28-2.3,56.43-9.61,56.86-9.68.13,0,12.61-2.2,18.86-5.17s21.21-11.63,21.36-11.71,11.5-6.87,16.56-11.71l.95,1c-5.17,4.95-16.34,11.62-16.82,11.9-.16.09-15.11,8.75-21.47,11.77s-18.69,5.19-19.21,5.28S146.32,98.74,132,101c-2.64.43-6.22.86-7,.92l-2.34.15-1,.07c-1.06.08-1.69.07-5.48-.89-3.3-.84-4.75,1.14-4.82,1.22l-.07.09-.9.92A7.25,7.25,0,0,1,105.41,105.45Z" fill="#fff"/><path d="M121.78,111.12h-.07c-.54,0-13.39-.16-22.12-4.92a9.42,9.42,0,0,1-5.2-9.42l.06-.62A10,10,0,0,1,99,89.44a9.29,9.29,0,0,1,.84-.43h0l22.36-9.75A206.68,206.68,0,0,1,143,71.77c11.58-3.51,24.18-6.85,24.31-6.89l8.78-2.46a1.73,1.73,0,0,0-.71-3.38l-26.79,3.86-20.38,3.38-22.25,3.85A11.71,11.71,0,0,0,100,73L77.65,93.43a11,11,0,0,1-10.92,2.31l-8.44-2.82A106.46,106.46,0,0,1,30.56,74.46a88.6,88.6,0,0,1-13.7-16.71A7,7,0,0,1,22.94,47l12.77.24c1.19,0,2.41.09,3.61.21,2.13.21,6.59.7,12.55,1.53L74,52.17a175.69,175.69,0,0,0,25.36,1.51c12.95-.28,35-4.25,35.23-4.29l59.54-10,2-.36A5.49,5.49,0,0,0,200,36.2l4-7.45a5.48,5.48,0,0,1,9.06-.85l7.7,9.42,16.36,21a1.07,1.07,0,0,0,1.52.16l2.26-1.9a2.29,2.29,0,0,0,.43-2.74l-3.1-5.76h0c-2.38-4.88-1-10.94,3.31-13.87a12.67,12.67,0,0,1,16.7,2.08l.34.38a11,11,0,0,1,2.44,6c.36,3.23-.38,8.38-5.92,14.57a141,141,0,0,1-19.08,17.12c-2.62,2-5.45,3.93-8.42,5.87-3.9,2.56-7.87,5-10.28,6.35-6.74,3.91-25.59,13.62-55,19.42a303.67,303.67,0,0,1-40.48,5.13ZM99.2,96.82l0,.38a4.57,4.57,0,0,0,2.72,4.78c7.39,4,18.81,4.32,19.79,4.33a298.49,298.49,0,0,0,39.7-5c28.75-5.67,47-15.08,53.57-18.87C217.3,81,221.18,78.7,225,76.2c2.89-1.89,5.64-3.81,8.18-5.71A135.79,135.79,0,0,0,251.56,54c7.89-8.84,3.64-14,3.46-14.2l-.35-.39a7.88,7.88,0,0,0-10.38-1.3c-2.28,1.57-3,5.18-1.68,7.89l3,5.51a7.09,7.09,0,0,1-1.42,8.56l-.1.09-2.31,1.94a5.86,5.86,0,0,1-8.39-.88L217,40.31l-7.66-9.38a.69.69,0,0,0-1.14.11l-4,7.45A10.26,10.26,0,0,1,197,43.71l-2,.37-59.55,10c-.89.16-22.63,4.07-35.95,4.36A176.2,176.2,0,0,1,73.3,56.91L51.19,53.68c-5.87-.82-10.25-1.3-12.35-1.51-1.07-.11-2.15-.17-3.22-.19l-12.77-.24h0a2.24,2.24,0,0,0-1.89,3.44A83.76,83.76,0,0,0,33.86,71,103.24,103.24,0,0,0,60.1,88.48l8.14,2.71a6.25,6.25,0,0,0,6.18-1.31L96.8,69.51a16.49,16.49,0,0,1,8.33-4.09l22.26-3.86,20.44-3.39,26.84-3.87A6.52,6.52,0,0,1,177.35,67l-8.8,2.47c-.16,0-12.68,3.36-24.18,6.85a206,206,0,0,0-20.21,7.29l-22.28,9.72a4.27,4.27,0,0,0-.44.22A5.12,5.12,0,0,0,99.2,96.82Z" fill="#fff"/></svg>