<?xml version="1.0" encoding="utf-8"?>
<!-- Generator: Adobe Illustrator 21.1.0, SVG Export Plug-In . SVG Version: 6.00 Build 0)  -->
<svg version="1.1" id="Layer_1" xmlns="http://www.w3.org/2000/svg" xmlns:xlink="http://www.w3.org/1999/xlink" x="0px" y="0px"
	 viewBox="0 0 482.4 226.8" style="enable-background:new 0 0 482.4 226.8;" xml:space="preserve">
<style type="text/css">
	.st0{fill:none;stroke:#FFFFFF;stroke-width:6;stroke-miterlimit:10;}
	.st1{fill:none;stroke:#FFFFFF;stroke-width:3;stroke-miterlimit:10;}
</style>
<g id="Layer_1_1_">
	<path class="st0" d="M16.6,121.5l-10.8,73c0,0-0.5,8,5.4,9.5s109.9,25.5,238.4,18.5s180.5-18,200-24c0,0,12.1-3.7,18.8-1.5
		c0,0,7.7,2.9,10.3-3.4s-1.4-12.7-9.6-10.9c-8.1,1.8-65.2,19.4-128.7,21.4s-63.5,2-63.5,2s-5.7,1-13.6-1.9s-12.4-2.6-32.3-1.6
		s-45,1-45,1s-31.8,0.6-35.1-30.2s-6.4-35.1-3.2-38.6s7-8,3.8-14.6s-11-6.6-14.8-4.8s-7.9,6.8-12.5,5.9
		c-4.6-0.9-97.4-19.4-97.4-19.4S20,100,21.4,91.6c1.3-8.4,2.5-14.9,3.3-28S24.3,36,27.2,33s6.2-3.6,7.4-7s3.1-6.1,7.6-6.2
		s14.6-1.1,22.1,0.9s29.6,7.6,49.1,8.4c0,0,9.6,0.2,10.4-9.6c0,0,0.8-11.3-13.2-11c0,0-33.8-2.1-71.6,2.1c0,0-2.8,0.8-4.8-1.4
		S24.3-1.1,12.8,5.6s-5.4,21.5-0.4,23.9s4.1,7.6,4.1,7.6s-2.7,43.4-4.2,49c-1.5,5.7-1,6-3.7,7.5s-8.5,3-4.2,8.8
		C8.9,108.3,17,118.3,16.6,121.5z"/>
	<path class="st1" d="M140,114.5c0,0,8.3-8,17-9s27.8-3,27.8-3s7.8,1,8.8,8.5s8.2,69.5,8.2,69.5s1.2,16.3,15.2,19.2s17,2.8,17,2.8"
		/>
</g>
<g id="Layer_2">
</g>
<g id="Layer_2_1_">
</g>
</svg>
