<svg id="Layer_1" data-name="Layer 1" xmlns="http://www.w3.org/2000/svg" viewBox="0 0 236.95 114.7"><title>ParisCircuit</title><path d="M167.92,48.23A5.19,5.19,0,0,0,172.11,50l56.77-5.86a3,3,0,0,0,2.48-1.53,3.09,3.09,0,0,1,2.2-1.41,4.33,4.33,0,0,1,2.49,3.29s.19,1.67-2.2,1.86L176,52.24s-.5.05-1,.13a9.67,9.67,0,0,0-1.47.48A12.3,12.3,0,0,0,167,59.12" fill="none" stroke="#fff" stroke-miterlimit="10" stroke-width="1.8"/><path d="M2.5,70.35S2.55,59,6.75,57.09c0,0,.51-.49,7.4,3,1.13.57,4.07,2.23,5.27,1.49s1.21-1.42,1-3.54c-.11-1.2-.5-4.59-.72-5.89-.66-3.9-2.49-22-2.49-22a4.19,4.19,0,0,0-1.78-3.29L6,20.77l-2.3-1.48s-2.13-1.65-1.93-3c.13-.85-.08-2.06,2.82-2.45L23.76,11.6,102,3.25,114.14,2l1.59-.24a2,2,0,0,1,2.21,1.52c0,.09.23,1.28.28,1.56,0,1.12,2.54,2.46,2.54,2.46L137,17.86l1.11.65a31.27,31.27,0,0,0,3.81,2.19c2,.92,4.62,0,7.84,1.06s3.41,4.07,4.11,7.64a82.87,82.87,0,0,1,1.22,8.81l.35,2.87s.87,2.05,2.24,2a9.35,9.35,0,0,1,7.47,2.13,8.84,8.84,0,0,1,3.11,5.32A9.87,9.87,0,0,1,166,59a22.27,22.27,0,0,1-2.14,1.63L161.2,62s-2.67,1.17-2.61,3.54-.87,12.65-.87,12.65l-3.58,8.32s-3.13,12-6.17,13L107,104.79,64.6,109l-33.69,4s-4.78.07-4.58-4.11L24.11,89s-.55-2-3.71-2.67l-1.8-.15a20.26,20.26,0,0,1-10.24-4.5,20.44,20.44,0,0,1-3-3.5A18.45,18.45,0,0,1,2.5,70.35Z" fill="none" stroke="#fff" stroke-miterlimit="10" stroke-width="3.5"/></svg>