<?xml version="1.0" encoding="utf-8"?>
<!-- Generator: Adobe Illustrator 22.0.1, SVG Export Plug-In . SVG Version: 6.00 Build 0)  -->
<svg version="1.1" xmlns="http://www.w3.org/2000/svg" xmlns:xlink="http://www.w3.org/1999/xlink" x="0px" y="0px"
	 viewBox="0 0 352.6 163" enable-background="new 0 0 352.6 163" xml:space="preserve">
<g id="edifici">
</g>
<g id="circuito">
</g>
<g id="svg">
	<path fill="none" stroke="#FFFFFF" stroke-width="6" stroke-miterlimit="10" d="M81.5,159.7c-38.5,0-68.1-23.4-77.9-59
		c-0.7-2.6-0.7-7.2-0.2-8.2c1.1-1.5,7.4-3.8,7.4-3.8c2.3-1.1,2.6-4.2,0.6-5.8l-4.9-3.7c-1.9-1.4-3-3.7-2.9-6.2c0.1-2,0.3-4,0.5-6
		C5,58,7.5,49.3,11.2,41.3C15.9,31.1,22.6,22,30.8,14.4c0,0,14.1-11.4,26.9-11.4L307,3.4c5.5,0.7,6.1,6.9,10.4,8.7
		c21,11.1,32.2,31.2,32.2,63c0,46.7-37.5,84.6-83.9,84.6l-4.8,0.2c-2.8,0.1-5.2-3.8-5.6-6.6l-1.9-11.5c-0.6-3.6-4.8-3.8-7.3-1.2
		L235.6,152c0,0-8.4,7.2-16.1,7.2c-6.8,0-74.6,0.8-90.9,0.8c-2.1,0-3.8-1.4-4.3-3.5l-13.7-59.2c-0.8-3.6-2-7.2-3.6-10.5l-8.2-17.9
		c-0.8-1.8-2.4-3-4.3-3.3l-18.5-3.1c-1.8-0.3-4.5,1.5-5.4,3L58.6,87.1c-3.3,5.4-0.1,12.3,6.2,11.8l22.4-1.6c1.2-0.1,2.3,0.4,3.1,1.2
		l15.1,16.5c1,1.1,1.5,2.5,1.5,4l0.5,29.8c0,0-2.9,7.6-4.3,8.5c-1.4,0.9-6.7,1.4-6.7,1.4S89.3,159.7,81.5,159.7z"/>
	<path fill="none" stroke="#FFFFFF" stroke-width="3" stroke-miterlimit="10" d="M11.4,40.9c0,0,8.9-17.8,26.9-23.6
		c0,0,18.9,0,38.6,0c8.7-1.3,23.5-3.5,32.2-4.9c75.1-1.1,161.1-0.9,192.6,1.4c4.3,0.1,32,9.6,45.7,37.2"/>
</g>
</svg>
