<?xml version="1.0" encoding="utf-8"?>
<!-- Generator: Adobe Illustrator 21.1.0, SVG Export Plug-In . SVG Version: 6.00 Build 0)  -->
<svg version="1.1" id="Layer_1" xmlns="http://www.w3.org/2000/svg" xmlns:xlink="http://www.w3.org/1999/xlink" x="0px" y="0px"
	 viewBox="0 0 192.9 105.9" enable-background="new 0 0 192.9 105.9" xml:space="preserve">
<path fill="#FFFFFF" d="M191,80.2c-1.6-1.5-12.1-11-12.6-11.4l-0.3-0.3l-0.3-0.2c-0.4-0.2-1.7-0.9-3.5-0.9c-1.9,0-3.6,0.7-5,2.1l0,0
	l0,0l-4.7,4.8c-0.8,0.7-2.5,2.5-2.5,4.9c0,1.5,0.6,2.9,1.8,4c1.2,1.1,3.4,3.2,4.2,4c-0.8,0.1-2,0.1-3.6,0.1
	c-5.6,0-27.3,0.2-27.6,0.2l-36.7,0H70.8c-2.7-0.3-6.2-1.1-7.3-1.9c-6.4-4.7-10-9.9-10-14.1v-19V45c0.2,0,0.3,0,0.5,0
	c2.9,0,5.1-1.4,6.6-4.2c1.5-2.8,2.4-5,2.8-7.1c0.2-1,0.5-3.1,0.7-4.7c0.1-0.7,0.2-1.3,0.2-1.6c0.1-0.6,1.1-5.6,2-10l0-0.2l0-0.2
	c0.4-3.7-1.4-6.7-4.4-7.1c-1.7-0.3-14.1-2.1-14.1-2.1l-0.1,0l-0.1,0c-4.2-0.5-15.5-1.9-17.7-2.4C27.1,4.9,9.5,0.7,8,0.4
	C7.6,0.3,6.5,0,5.3,0C2.2,0,0.6,1.9,0.2,3.7c-0.4,1.6-0.7,5.3,3.9,6.8c1.2,0.4,5.7,1.8,5.7,1.9L35.4,21c1.1,0.8,2.3,1.8,2.8,2.5
	c0.1,0.2,0.3,0.4,0.4,0.6c1.2,1.7,1.9,2.8,1.2,3.9c-0.5,0.7-4.6-0.2-8.8-1.9l-12.6-3.7c-0.1,0-1.9-0.6-3.5,0.3
	c-0.9,0.5-1.5,1.4-1.8,2.7c-0.9,3.9,3.3,5,5,5.4c0.2,0,0.3,0.1,0.4,0.1c1.2,0.3,19.6,5.7,19.6,5.7l0.1,0c0,0,4,0.6,5.8,5.9
	c-0.1,1.3-0.1,2.7-0.1,4.2v23.7c0,0.5,0,5.2,1.2,8.3c1,2.6,4.9,10.6,5.5,11.7c0.9,1.8,2.2,4.9,2.5,5.9c0.5,1.7,1.6,4.4,1.9,5.1
	c0.7,2.2,3,4.5,6.3,4.5c3.2,0,5.6-2.1,6.3-5.3c0.1-0.3,0.1-0.5,0.1-2h32.2H173c0.1,0,0.3,0,0.6,0c4.5,0,7.6-0.5,9.4-1.6
	c1.3-0.7,5.5-3.3,7.4-6.2C193.5,86.2,193.7,82.6,191,80.2z M44.5,37.3L44.5,37.3l0,0.2c0,0.1-0.1,0.9-0.3,2.2
	c-2.1-3.7-5.3-4.3-5.8-4.4c-1-0.3-18.4-5.4-19.6-5.7c-0.1,0-0.3-0.1-0.5-0.1c-2.4-0.6-4.5-1.5-4-3.8c0.2-0.9,0.6-1.5,1.2-1.8
	c1-0.6,2.4-0.2,2.4-0.2l12.5,3.7c2.7,1.1,9,3.4,10.4,1.4c1.3-1.9-0.1-3.9-1.2-5.5c-0.1-0.2-0.3-0.4-0.4-0.6
	c-0.1-0.2-0.3-0.4-0.4-0.6l7.8,2.6l0.3,0.1C46.3,28.5,44.5,37.2,44.5,37.3z M187.4,88.7c-1.2,1.8-4.1,3.9-6.2,5.1
	c-1.7,1-6.1,1.1-7.6,1.1c-0.3,0-0.5,0-0.5,0H99.8c0,0-33.3,0-34.4,0c-1.1,0-1.5,1.4-1.5,1.4s0.1,3.2,0,3.5c-0.1,0.3-0.5,2.4-2.7,2.4
	c-2.3,0-2.9-2.1-2.9-2.1S57,97,56.5,95.2c-0.5-1.8-2.7-6.5-2.7-6.5s-4.4-8.9-5.3-11.4c-0.9-2.5-0.9-7-0.9-7s0-19.3,0-23.7
	c0-4.6,0.6-8.7,0.6-8.7s2.1-10.4,2.6-13.3c0.5-2.9-2.9-3.3-2.9-3.3L11,9c0,0-4.5-1.5-5.7-1.9S3.3,6.2,3.7,4.5
	c0.2-0.7,0.9-0.9,1.6-0.9c0.9,0,1.7,0.3,1.7,0.3S26.2,8.4,29.1,9c2.9,0.6,18,2.4,18,2.4s12.4,1.9,14.1,2.1c1.7,0.3,1.4,3.1,1.4,3.1
	s-1.9,9.3-2.1,10.2c-0.1,0.9-0.6,4.8-0.9,6.2c-0.3,1.4-0.9,3.2-2.4,6.1c-1,2-2.2,2.3-3.4,2.3c-0.6,0-1.2-0.1-1.8-0.1
	c-2,0-2.3,1.1-2.3,2.1s0,9.4,0,9.4s0,10.8,0,19c0,8.2,8.9,15,11.5,17c2.6,1.9,9.2,2.6,9.2,2.6h29.5h36.7c0,0,21.9-0.2,27.5-0.2
	c5.7,0,7.4-0.5,8.6-2.2c1.1-1.7-2-3.7-2-3.7s-3.1-3.1-4.7-4.5c-1.7-1.5,0.8-3.5,0.8-3.5l4.8-4.9c0.9-0.8,1.8-1.1,2.5-1.1
	c1,0,1.7,0.4,1.7,0.4s11,10,12.6,11.4C190.2,84.3,188.6,86.9,187.4,88.7z"/>
</svg>
