<?xml version="1.0" encoding="utf-8"?>
<!-- Generator: Adobe Illustrator 19.0.0, SVG Export Plug-In . SVG Version: 6.00 Build 0)  -->
<svg version="1.1" id="Layer_1" xmlns="http://www.w3.org/2000/svg" xmlns:xlink="http://www.w3.org/1999/xlink" x="0px" y="0px"
	 viewBox="690.3 203.4 1267.4 784.3" style="enable-background:new 690.3 203.4 1267.4 784.3;" xml:space="preserve">
<style type="text/css">
	.st0{fill:#FFFFFF;}
	.st1{fill:none;}
</style>
<g>
	<g>
		<path class="st0" d="M1373.5,987.8c-1.3,0-2.6-0.1-3.9-0.3c-7.2-1.2-13.1-5.7-16.8-12.7c-6.6-12.7,3.8-29.6,13.3-37.5
			c1.8-1.5,3.9-3.3,6.3-5.4c8.1-7,20.2-17.5,37.5-30.2c6.2-4.6,13.4-9.9,21-15.6c19.3-14.4,41.2-30.8,57.5-41.5
			c24.1-15.7,65.1-35.1,71.6-38.1c0.6-0.6,1.5-1.8,2.1-2.7l-16-84.1l-352.3-4.2c-5.7-0.1-10.9-2.7-14.4-7.2s-4.7-10.2-3.4-15.7
			l0.1-0.4l52.8-189.5L703.6,345.9c-8.1-2.4-13.6-10-13.3-18.4l1.1-106.3c0.3-5.7,3.1-10.9,7.7-14.3c4.7-3.3,10.5-4.4,16-2.8
			l1031,292.6c5.1,1.5,20.6,5.9,20.6,17.9c0,29.3,0,104.1,0.1,112.5v0.1l-0.3,37.8l7.7,13.8c1.3,1,4.1,2.3,5.8,2.8l67.7-22.5
			l0.4-0.1c1.7-0.4,3.5-0.6,5.3-0.6h0.4l77,5.9c7.8,0.4,14.5,5.7,16.8,13c1.2,3,6.1,15.2,8.6,29.8c4.1,23.8-0.2,42.5-12.3,54.1
			c-9.4,9-25.4,19.5-48.6,18.5h-0.4H1818c-13.5,0-26.8,2-39.7,6l-141.7,44.8c-4,1.5-63.1,24.3-68.3,26.5
			c-2.7,1.4-38.3,19.7-93.9,57.8c-44.8,30.7-79.8,63.5-80.2,63.9C1389.8,983.2,1382,987.8,1373.5,987.8z M1372,965.5
			c0.4,0.6,0.7,0.9,1,1c1.6,0.3,4.7-1.1,6.5-2.8c0.3-0.3,36.1-34,82.8-66c58.9-40.3,95-58.6,96.5-59.3l0,0c2.1-1,8.6-3.5,35.7-14
			c28.9-11.2,34.2-13.2,35.5-13.6l0,0l141.9-44.9c15-4.7,30.4-7,46.1-7h76.9c0.3,0,0.7,0,1.2,0c15.7,0.7,26.6-6.5,33-12.6
			c14.4-13.8,4.1-48.1-1.2-60.5L1853,680l-68.6,22.8l-0.4,0.1c-8.7,2.2-24-5.5-27.9-12.5l-8.8-15.6c-1-1.8-1.7-3.8-2.1-5.9l-0.2-1
			l0.4-39.7l0,0c-0.1-4.9-0.1-24-0.2-109c-1.3-0.6-3.1-1.2-5.2-1.8L712.6,225.6l-1,100.6L1237.5,483l0,0
			c9.5,2.8,15.1,12.5,12.8,22.1l-0.1,0.4l-52.6,188.6l351,4.2c8.6,0.1,16,6,17.9,14.4l0.1,0.4l16.7,88.1c2,9.8-7.4,20.8-12.9,23.8
			l-0.6,0.3c-0.5,0.2-45.4,21.1-69.8,37c-15.8,10.3-37.3,26.4-56.4,40.7c-7.6,5.7-14.9,11.1-21.2,15.8c-16.6,12.2-27.9,22-36.2,29.1
			c-2.5,2.2-4.7,4.1-6.6,5.7C1375.6,957,1372.3,963,1372,965.5z M1636.2,831h-0.2C1636,831,1636.1,831,1636.2,831z M1636.6,830.8
			l-0.3,0.1C1636.4,831,1636.4,831,1636.6,830.8z M1780.9,682L1780.9,682L1780.9,682z M709.3,224.6L709.3,224.6L709.3,224.6z"/>
	</g>
	<g>
		<path class="st0" d="M1567.7,826.8l-4.8-9.5c28.9-14.7,138.4-46.5,185.1-60.1c8.2-2.4,14.1-4.1,16.5-4.8c3-0.9,5-2.4,6-4.4
			c1.8-3.7,0.1-8.6,0.1-8.7l-0.2-0.4l-0.1-0.4c-1.1-5.3-6.3-19.7-16.1-21.9c-18.4-4.2-21.8-33.5-22.2-37.4l-1.7-11.8
			c-1.5-10.4-4.2-20.6-8.2-30.3c-4.3-10.4-12.2-18.6-22.4-23.3l-5.4-2.5c-10.6-4.9-21.8-9-33-12.1L1037.7,425
			c-20.6-5.7-41.8-9.5-63.2-11.1l-21.7-1.6l0.8-10.6l21.7,1.6c22,1.7,44,5.5,65.2,11.4l623.7,173.9c11.8,3.3,23.5,7.6,34.6,12.7
			l5.4,2.5c12.6,5.8,22.5,16.1,27.8,28.9c4.4,10.5,7.4,21.6,9,32.9l1.7,12.2c0.6,6.6,4.5,26,14,28.2c17.4,4,23.2,26.3,24,29.7
			c0.7,2,2.9,9.6-0.6,16.7c-1.6,3.3-5,7.7-12.4,9.9c-2.5,0.8-8.4,2.5-16.7,4.9C1708.6,779.6,1595.8,812.5,1567.7,826.8z"/>
	</g>
	<path class="st1" d="M1234.5,493.1L706.7,335.8c-3.5-1-5.8-4.3-5.7-8l1-106.1c0.2-5.1,5.2-8.7,10.1-7.3l1031,292.7
		c3.4,1,12.9,4.1,12.9,7.7c0,0,0,113.1,0.1,113.5l-0.4,38.8c0.2,0.9,0.5,1.7,0.9,2.5l8.8,15.6c1.8,3.1,12.5,8.3,16,7.4l69.2-23
		c0.7-0.2,1.5-0.3,2.2-0.2l77.2,6c3.5,0.1,6.6,2.6,7.4,6c0,0,22,50.5-1,72.7c-18.5,17.8-39.1,15.5-41.6,15.5H1818
		c-14.5,0-29,2.2-42.8,6.5L1633.3,821c-0.9,0.2-68.9,26.5-69.6,27c0,0-36.3,18.2-95.3,58.6c-45.9,31.4-81.1,64.6-81.5,64.9
		c-5.4,5.2-18.4,10.4-24.6-1.5c-3.5-6.8,3.9-18.7,10.6-24.4c7.9-6.5,21.2-19,43.3-35.2c22.1-16.2,55.6-42.1,78-56.8
		c25.3-16.5,71.1-37.8,71.1-37.8c3.1-1.7,8.3-8.8,7.5-12.3l-16.7-88.2c-0.8-3.6-4-6.1-7.7-6.2l-354.4-4.3c-5.1-0.1-8.8-4.8-7.6-9.8
		l53.6-192.3C1240.9,498.5,1238.5,494.3,1234.5,493.1z"/>
	<path class="st1" d="M953.2,406.9l21.7,1.6c21.7,1.6,43.2,5.4,64.2,11.3l623.7,173.9c11.6,3.2,22.9,7.4,33.8,12.4l5.4,2.5
		c11.4,5.2,20.3,14.6,25.1,26.1l0,0c4.2,10.1,7.1,20.8,8.6,31.6l1.7,11.9c0,0,2.7,29.3,18.1,32.9c15.4,3.5,20.1,26,20.1,26
		s5.9,15.4-9.5,20.1c-15.4,4.7-167,47.4-200.8,64.6"/>
</g>
</svg>
