<svg id="Layer_1" data-name="Layer 1" xmlns="http://www.w3.org/2000/svg" viewBox="0 0 340 225"><title>CardsRome</title><path d="M68.48,172.42a15.38,15.38,0,0,1-2.44-.2,14.09,14.09,0,0,1-3.75-1.29,12,12,0,0,1-5.9-8l-6.31-43.75h0l-.24-.15-42.5,6.46a5.84,5.84,0,0,1-6.68-4.86v0l-.59-3a5.87,5.87,0,0,1,4.82-6.76h.05L78.62,99.57A39.36,39.36,0,0,0,89.16,96.4l9.12-5.13A47.8,47.8,0,0,1,108.59,87l3.9-1.11c4.45-1.36,5.09-1.42,5.39-1.44a8.34,8.34,0,0,1,8.59,5.66,1.29,1.29,0,0,0,1.43.86L159,86a.65.65,0,0,0,.54-.74L149,16.85a7.72,7.72,0,0,1,6.24-8.8L180.82,3.6a102.88,102.88,0,0,1,19.81-1.5l24.55-2a44.49,44.49,0,0,1,12.47,1.07A27.9,27.9,0,0,1,243.72,3a27.1,27.1,0,0,1,3,1.65c1.53,1,36.43,25.28,40.4,28,6.53,4.66,14.81,4.45,21.31,3.75l16.2-2.67a6.47,6.47,0,0,1,7.43,5.34v.07L339.91,91a7,7,0,0,1-5.86,8l-.14,0-18.44,2.61a16.46,16.46,0,0,0-5.61,1.86l-4.4,2.49a16.45,16.45,0,0,0-4.91,4.09l-27.61,34-6.58,6.7a23.68,23.68,0,0,1-8.77,5.64l-6.51,2.36a16.6,16.6,0,0,1-3,.79l-50.18,8a6.33,6.33,0,0,1-7.25-5.25h0L187.12,140l-31.83,4.52-.13.17,1.1,7.23a5.57,5.57,0,0,1-4.66,6.35h-.05l-23.71,3.42a5.27,5.27,0,0,1-5.93-4.35l-.32-2-5.06.83.14,1.05a6.17,6.17,0,0,1-5.12,6.93l-33.13,4.91a4.8,4.8,0,0,0-.61.15L71.62,172A10,10,0,0,1,68.48,172.42ZM49.9,112.87a6.35,6.35,0,0,1,6.25,5.41L62.45,162a6.06,6.06,0,0,0,2.94,3.63,10.25,10.25,0,0,0,1.64.53,6.72,6.72,0,0,0,2.54,0l6.13-2.64a11.14,11.14,0,0,1,1.72-.43l33.12-4.91-.25-1.89a5.3,5.3,0,0,1,4.41-6l6.66-1.1a5.32,5.32,0,0,1,6.12,4.38v0l.31,1.91,22.27-3.22-1-6.67a6.29,6.29,0,0,1,5.27-7.16h0l31.71-4.61a6.27,6.27,0,0,1,7.07,5.21l3.53,22.31a.2.2,0,0,0,.22.16l50.18-8A10.49,10.49,0,0,0,249,153l6.51-2.36a17.5,17.5,0,0,0,6.49-4.17l6.48-6.6L295.8,106.2a22.56,22.56,0,0,1,6.74-5.61L307,98.22a22.62,22.62,0,0,1,7.69-2.55l18.44-2.61a.87.87,0,0,0,.74-1v0L326,40.16a.32.32,0,0,0-.13-.21.31.31,0,0,0-.24-.06l-16.37,2.69c-7.74.83-17.48,1-25.67-4.82C268.16,27,244.71,10.68,243.48,9.9a21.37,21.37,0,0,0-2.33-1.28,21.73,21.73,0,0,0-4.66-1.46h-.17a38.27,38.27,0,0,0-10.73-.94l-24.78,2h-.16a96.63,96.63,0,0,0-18.78,1.41l-25.52,4.45a1.59,1.59,0,0,0-1.26,1.82l10.54,68.3A6.8,6.8,0,0,1,160,92h0l-31.13,5a7.41,7.41,0,0,1-8.23-5,2.21,2.21,0,0,0-2.28-1.51c-.29.06-2.43.68-4.14,1.21l-4,1.13a41.65,41.65,0,0,0-9,3.75l-9.44,5.3a45.5,45.5,0,0,1-12.3,3.72L6.18,116.81l.5,2.56L48.89,113A6.22,6.22,0,0,1,49.9,112.87ZM6.39,119.42Z" fill="#fff"/><path d="M166,224.09a4.29,4.29,0,0,1-4.24-3.67l-7.87-53.93a1,1,0,0,0-1.12-.87h0l-24.79,3.5a4.2,4.2,0,0,1-4.77-3.54v-.07l-1.2-8.34,3.13-.45,1.2,8.36a1,1,0,0,0,.41.72,1,1,0,0,0,.79.2l24.79-3.5A4.18,4.18,0,0,1,157,166l7.85,54a1.13,1.13,0,0,0,1.24,1h0l31.15-4.81a3.24,3.24,0,0,0,2.7-3.64l-5-35.4a4.87,4.87,0,0,1,4-5.46l33.8-5.49a11.56,11.56,0,0,0,4-1.46L258,151.33l1.69,2.67-21.29,13.43a14.72,14.72,0,0,1-5.17,1.88l-33.8,5.49a1.7,1.7,0,0,0-1.4,1.9l5,35.4a6.41,6.41,0,0,1-5.35,7.21L166.62,224A4.35,4.35,0,0,1,166,224.09Z" fill="#fff"/></svg>