<?xml version="1.0" encoding="utf-8"?>
<!-- Generator: Adobe Illustrator 19.0.0, SVG Export Plug-In . SVG Version: 6.00 Build 0)  -->
<svg version="1.1" id="Layer_1" xmlns="http://www.w3.org/2000/svg" xmlns:xlink="http://www.w3.org/1999/xlink" x="0px" y="0px"
	 viewBox="58.3 376.2 841.7 422.1" style="enable-background:new 58.3 376.2 841.7 422.1;" xml:space="preserve">
<style type="text/css">
	.st0{fill:none;stroke:#FFFFFF;stroke-width:10.5;stroke-linejoin:round;stroke-miterlimit:10;}
	.st1{fill:none;stroke:#FFFFFF;stroke-width:5.5;stroke-linejoin:round;stroke-miterlimit:10;}
</style>
<path class="st0" d="M547.2,675.7l305,99.2c33.7,11.5,57.5-33.2,31.6-57.8l-13-13l-10.9-9.9l-2.4-2.2l-0.4-0.4c0,0-1.9-1.7-5.4-4.6
	c-9.5-7.9-30.7-24.6-56.4-40.5l-8.4-5.3c-5.4-3.4-10.2-7.8-14.1-13l-53.7-71.7c0,0-24.3-32.3-22-88.1l3.3-28.9
	c0.5-4.3,0.4-8.5-0.1-12.8l-2-14.3c-5.2-37-55.9-42.6-69.1-7.7l-1.4,3.6c0,0-2.5,6.2-4.4,9.4c-2.7,4.6-7.3,12.2-13.8,21.2
	c-11.1,15.2-16.6,29-20,43.4c-2.8,11.9-20.8,78.2-27.1,101.5c-1.4,5,0,10.3,3.5,14.1l5.8,6.1c5.7,6,4.9,15.8-1.7,20.8L551,639.2
	c-3.8,2.9-7.9,5.4-12.1,7.7l-16.7,8.7l-8.9,3.3c-5.2,1.9-10.9,2-16.1,0.3L387,623.5l-232.7-75.6c-2.7-0.9-5.7,0.2-7.1,2.7l-5.7,8.6
	c-1.3,1.9-2.8,3.6-4.6,5.1L103,590.6c-3.5,2.8-4.6,7.7-2.5,11.7c2.6,5.1,6.3,13.3,10.1,25.2c0.3,0.8,1.6,4.7,1.8,5.6
	c7.8,23.9,8.4,51.5,0.2,77.2c-7.4,22.9-20.8,42.1-37.8,56.4l-1.9,1.6l-5.7,4.3c-6.9,5.3-3.3,16.4,5.4,16.5l395.1,3.9
	c2.9,0,5.5-1.8,6.4-4.5l21.1-59.5c0,0,10.5-31.2,25.2-49.8c4.4-5.5,11.5-7.9,18.2-5.9L547.2,675.7z"/>
<path class="st1" d="M848.5,689l3.5,3.8c1.7,1.4,3.2,3.1,4.4,4.9l2.2,3.3c1.4,2.1,3,4,4.9,5.7l3.2,3l9.2,9.6
	c17.9,18.6-0.9,48.8-25.3,40.9l-38.5-12.7l-218.8-71.1l-33.8-11c-3.2-1-6.6-1.4-9.9-0.6l-22.7,7.3"/>
</svg>
