<svg xmlns="http://www.w3.org/2000/svg" viewBox="0 0 340 200">
  <title>2-racetrackInfo-berlin2017</title>
  <g id="UI">
    <g>
      <path d="M208.23,53.64h2.2c.5.1,1.2.2,1.9.4a7.55,7.55,0,0,1,4,3.4,8.75,8.75,0,0,1,.8,6.9,7.88,7.88,0,0,1-2.5,3.6c-.3.3-.6.4-.9.7-.3.1-.5.3-.8.4-.5.3-1,.5-1.5.8-2,1.1-4.1,2.3-6.5,3.6-4.7,2.6-10,5.7-16.1,9.1-12,6.8-26.6,15.1-43.4,24.5-8.4,4.7-17.3,9.8-26.7,15.1a5.58,5.58,0,0,0-.8.5,1.76,1.76,0,0,0-.5.4,9.43,9.43,0,0,0-1,1,6.44,6.44,0,0,0-1.1,2.7,7.52,7.52,0,0,0,1.6,5.8,6.6,6.6,0,0,0,2.4,1.7,8,8,0,0,0,1.5.3h.7l1.1-.1c2.9-.2,5.8-.5,8.8-.7,5.9-.4,11.9-.9,17.9-1.7s12.2-1.8,18.4-3.1a260.78,260.78,0,0,0,37.6-10.9,248.55,248.55,0,0,0,37.2-17.9,239.72,239.72,0,0,0,34.9-25.3,192.15,192.15,0,0,0,15.9-15.4c1.3-1.4,2.5-2.8,3.7-4.2l1.8-2.1.2-.3.3-.4.5-.5.9-1c2.5-2.8,4.9-5.7,7.3-8.6a87.41,87.41,0,0,0,6.4-9l.6-1.2.3-.6c.1-.1.1-.1.1-.3l.1-.3a22.5,22.5,0,0,0,.8-2.4,16.72,16.72,0,0,0,.6-5c-.1-3.3-1.3-6.5-3.7-8.4-.3-.2-.6-.5-.9-.7l-.2-.1c.1.1-.2-.1-.2-.1a1.42,1.42,0,0,0-.6-.2,10.88,10.88,0,0,0-2.4-.7,11.59,11.59,0,0,0-4.9-.2,9.5,9.5,0,0,0-4.3,1.7,12.59,12.59,0,0,0-3.1,3.4,7.81,7.81,0,0,0,0,8.2,16.82,16.82,0,0,0,3,3.7,15.58,15.58,0,0,0,2,1.6,6.73,6.73,0,0,0,1.1.7c.2.1,0,0,.4.3l.3.2a5.24,5.24,0,0,1,1.1,1,7.93,7.93,0,0,1,.6,9.8c-.1.2-.3.4-.3.5l-.2.3-.5.6-.9,1.2-1.8,2.3-.9,1.2-.5.6-.2.3c0-.1-.3.4-.4.4l-.3.3-.6.6a3.83,3.83,0,0,1-1.1.8,7.2,7.2,0,0,1-2.4,1,8.11,8.11,0,0,1-5.1-.4,6.36,6.36,0,0,1-2.2-1.4l-.5-.4-.3-.3-.5-.5-8.4-8.4c-5.5-5.7-11-11.3-16.5-17l-8.2-8.5-2.1-2.1a4.89,4.89,0,0,0-1.5-1.2,3,3,0,0,0-3,.5,2.48,2.48,0,0,0-.8,1.4l-.8,2.8-1.5,5.7-1.5,5.8a10.38,10.38,0,0,1-4.6,5.9,9.82,9.82,0,0,1-1.8.8.9.9,0,0,1-.5.1l-.4.1-.7.2-2.8.8-5.7,1.6c-3.8,1-7.6,2.1-11.3,3.1l-22.6,6.3c-29.9,8.4-59.4,16.7-87.9,24.6-7.1,2-14.2,4-21.2,5.9l-5.3,1.5a36.93,36.93,0,0,1-5.6,1.1,48.31,48.31,0,0,1-11.4.1c-.9-.1-1.9-.3-2.8-.4l-2.6-.5c-1.7-.3-3.5-.6-5.2-.8-3.5-.4-7.1-.5-10.5-1.1l-1.1-.2h-.8a9.15,9.15,0,0,0-1.7.1,9,9,0,0,0-7.2,6.6,9.26,9.26,0,0,0-.3,3.3,10.46,10.46,0,0,0,.4,1.7c.1.3.2.5.3.8l.5,1.1c.3.8.7,1.5,1,2.2l1,2.1c.7,1.4,1.4,2.8,2.2,4.2a53.31,53.31,0,0,0,11.7,14.5,67.37,67.37,0,0,0,15.3,9.8,65.15,65.15,0,0,0,8.3,3.3c1.4.5,2.8.9,4.2,1.3l.5.2h.2l.3.1.3.1h.6a4.33,4.33,0,0,0,1.6-.1,6.72,6.72,0,0,0,3-1.3,5.73,5.73,0,0,0,1.1-1.1l1.3-1.7c1.7-2.3,3.4-4.7,5.1-6.9,3.3-4.6,6.6-9,9.8-13.4,1.6-2.2,3.2-4.3,4.7-6.4.8-1.1,1.6-2.1,2.3-3.2.3-.4.7-1,1.2-1.6s.9-1.1,1.3-1.6a32.49,32.49,0,0,1,13.2-9c18.2-6.2,34.1-11.6,47.2-16L208,53.64Zm1,5.2c-2,.7-16.6,5.6-40.9,13.8-13.1,4.4-29,9.8-47.2,15.9a27.71,27.71,0,0,0-11.2,7.5,12.67,12.67,0,0,0-1.1,1.3c-.3.4-.7.9-1.1,1.5-.8,1-1.6,2.1-2.3,3.1-1.6,2.1-3.2,4.2-4.8,6.4-3.2,4.3-6.6,8.7-10,13.3-1.7,2.3-3.4,4.6-5.2,6.9l-1.3,1.8a9,9,0,0,1-2,1.9,11.68,11.68,0,0,1-5.1,2.2,13.13,13.13,0,0,1-2.8.1c-.2,0-.5-.1-.8-.1l-.4-.1-.3-.1-.3-.1c-.1,0-.3-.1-.4-.1l-.6-.2c-1.5-.4-2.9-.9-4.4-1.4-2.9-1-5.8-2.2-8.7-3.5a81.78,81.78,0,0,1-16.5-10.2q-3.9-3.15-7.5-6.6a83,83,0,0,1-6.9-7.6,51,51,0,0,1-5.7-8.8l-.6-1.2a9.38,9.38,0,0,1-.6-1.5,17,17,0,0,1,13.6-22.9,13.55,13.55,0,0,1,3.5-.1l1,.1.5.1.3.1.6.1c.4.1.3.1.5.1l.3.1c3.4.8,6.7,2.1,10.1,3.1,1.7.5,3.4.9,5.1,1.3l2.6.6c.8.2,1.6.3,2.4.5a41.87,41.87,0,0,0,10,.3,43.74,43.74,0,0,0,5-.9c1.7-.4,3.5-.9,5.2-1.4,7-1.9,14.1-3.9,21.2-5.8,28.6-7.8,58.1-15.9,88-24.2,7.5-2.1,15-4.2,22.6-6.3,3.8-1.1,7.5-2.1,11.3-3.2L230,33l2.8-.8,1.3-.4c.3-.1.6-.3.9-.4a4.89,4.89,0,0,0,2.4-3.2l1.5-5.6,1.5-5.7.7-2.9a7.86,7.86,0,0,1,10.2-5.4,6.92,6.92,0,0,1,1.9,1c.2.1.3.3.5.4l.3.3.6.6,2.2,2,8.7,8.1,17.3,16.1c2.9,2.7,5.7,5.4,8.5,8.2l.5.5.3.2.1.1c.1.1.2.1.3.2a.64.64,0,0,0,.6,0c.1,0,.2-.1.3-.1l.1-.1v.1l.2-.3,1.7-2.1,3.6-4.4a1.1,1.1,0,0,0,.1-1.1h0l-.3-.2c.2.1-.1-.1-.2-.1a11.32,11.32,0,0,1-1.3-1,26.22,26.22,0,0,1-2.5-2.2,19.3,19.3,0,0,1-4.1-5.6,13.77,13.77,0,0,1-1.5-7.2,14,14,0,0,1,2.4-6.9,15.59,15.59,0,0,1,5-4.9,15.81,15.81,0,0,1,6.6-2.3,16.66,16.66,0,0,1,6.7.5,20.21,20.21,0,0,1,3.2,1.1,5.94,5.94,0,0,1,.8.4l.4.2c.1,0,.4.2.4.3a17,17,0,0,1,1.4,1,15.06,15.06,0,0,1,4.1,5.6,19,19,0,0,1,1.4,6.5,22.47,22.47,0,0,1-.8,6.4,26.54,26.54,0,0,1-1.1,3l-.1.3a.76.76,0,0,1-.2.4l-.4.7c-.2.5-.5.9-.7,1.4a75.66,75.66,0,0,1-6.9,9.6c-2.4,3-4.9,5.9-7.5,8.8l-1,1.1-.5.5-.2.2-.2.3-1.9,2.2c-1.3,1.4-2.5,2.9-3.8,4.3A200.77,200.77,0,0,1,280,78.44a250.11,250.11,0,0,1-35.6,25.9,244.53,244.53,0,0,1-37.9,18.4,247.05,247.05,0,0,1-38.3,11.2c-6.3,1.3-12.6,2.4-18.7,3.2s-12.3,1.3-18.2,1.8c-3,.2-5.9.5-8.8.7l-1.1.1H120a13.1,13.1,0,0,1-2.7-.6,9.62,9.62,0,0,1-4.5-3.1,12.39,12.39,0,0,1-2.8-9.9,13,13,0,0,1,2-4.9,8.13,8.13,0,0,1,1.8-1.9,4.44,4.44,0,0,1,1.1-.8,9,9,0,0,1,.9-.5c9.4-5.3,18.3-10.4,26.7-15.1,16.7-9.5,31.4-17.8,43.4-24.6,6-3.4,11.4-6.4,16-9.1,2.3-1.3,4.5-2.6,6.5-3.7.5-.3,1-.6,1.4-.8l.6-.3c.1-.1.3-.2.3-.3a2,2,0,0,0,.8-1.2,3.31,3.31,0,0,0-.3-2.6,2.14,2.14,0,0,0-1.3-1.1,1.27,1.27,0,0,0-.6-.1h-.6C209.33,58.84,209.23,58.84,209.23,58.84Z" style="fill: #fff"/>
      <path d="M287.83,65l1.3,1.6-21.8,17a88.58,88.58,0,0,1-24.8,13.7l-91,32.5a19.35,19.35,0,0,1-19.3-3.5,8.11,8.11,0,0,1-2.9-6.5,8.51,8.51,0,0,1,3.2-6.4l15.5-12,1.3,1.6-15.6,12.1a6.11,6.11,0,0,0-2.4,4.8,6.44,6.44,0,0,0,2.2,4.9,17.53,17.53,0,0,0,17.3,3.1l91-32.5A85,85,0,0,0,266.13,82Z" style="fill: #fff"/>
    </g>
  </g>
</svg>
