<svg xmlns="http://www.w3.org/2000/svg" viewBox="0 0 340 200">
  <title>2-racetrackInfo-berlin2017</title>
  <g id="UI">
    <g>
      <path d="M231.72,57.06,194.09,71.24,150.87,87.46c-16.7,6.23-35.52,13.29-56,21.23l-15.64,6.1c-5.31,2.1-10.75,4.13-16.17,6.52s-10.84,5-16.37,7.68q-2.07,1-4.17,2l-2.11,1c-.24.1,0,0-.1.05l-.26.13c-.15.08-.41.19-.39.22l-.13.1-.22.18a4.11,4.11,0,0,0-1.24,1.7,4.62,4.62,0,0,0-.31,2.17,4.69,4.69,0,0,0,.67,2.07A4.27,4.27,0,0,0,40,140a5.6,5.6,0,0,0,.58.3l1.12.42,2.25.86,4.51,1.77c3,1.19,6,2.37,9.13,3.45s6.22,2.05,9.37,3l19.12,5.87.3.09.2.06.61.16.31.08.23,0,.44.07c.3,0,.66.05,1,.09s.68,0,1,0a9.81,9.81,0,0,0,7-3.8,10.61,10.61,0,0,0,1.1-1.76l1.11-2.31c2.94-6.19,5.91-12.43,8.85-18.74l4.44-9.49.59-1.25.59-1.18.76-1.31.81-1.22a22.74,22.74,0,0,1,4-4.28,35.14,35.14,0,0,1,9.86-5.52c3.45-1.36,6.89-2.35,10.3-3.41s6.77-2.1,10.16-3.25L160,95.3c6.85-2.29,13.73-4.61,20.66-6.8s13.89-4.31,20.79-6.4c.74-.19.4-.09.65-.15l.33-.07.33-.07a5.75,5.75,0,0,1,.61-.06,13.55,13.55,0,0,1,1.39,0c.41,0,.79.12,1.18.2a8.15,8.15,0,0,1,4,2.27,8.93,8.93,0,0,1,2.33,8.32,8.82,8.82,0,0,1-2.3,4c-.27.25-.56.47-.85.7l-.44.33c-.16.12-.21.14-.32.21l-1.15.74-4.62,2.94c-6.18,3.89-12.41,7.72-18.63,11.58s-12.43,7.71-18.56,11.69-12.23,8-18.33,12l-9.13,6-4.56,3-2.2,1.44-.55.4-.34.29a6.11,6.11,0,0,0-.67.73,5.64,5.64,0,0,0-1.18,3.69,6.49,6.49,0,0,0,1.37,3.76,5.65,5.65,0,0,0,3.26,2.07,6.29,6.29,0,0,0,2,.09c.3,0,.78-.11,1.23-.18l1.33-.21a222,222,0,0,0,40.91-10.75l19.72-7.18c3.24-1.26,6.53-2.46,9.59-3.85,1.55-.69,3.12-1.31,4.65-2l4.59-2.2c1.54-.7,3-1.52,4.52-2.3s3-1.54,4.46-2.37l4.35-2.51c.72-.42,1.46-.82,2.16-1.26l2.11-1.33,4.21-2.66,4.08-2.8,2-1.4c.67-.48,1.32-1,2-1.47l3.93-2.93A193.85,193.85,0,0,0,278.7,84.4l.77-.87.73-.9,1.46-1.8c1-1.2,2-2.38,2.89-3.59l2.73-3.67c.91-1.22,1.82-2.42,2.65-3.69l2.53-3.73.63-.93.16-.23.24-.34.32-.45,1.29-1.82c1.7-2.44,3.35-4.88,4.91-7.34s3-4.93,4.33-7.42a36.82,36.82,0,0,0,1.68-3.7l.31-.83.29-1a8.83,8.83,0,0,0,.21-.93c.05-.29.13-.57.16-.89a14.92,14.92,0,0,0-.58-7.22,9.44,9.44,0,0,0-4.06-5.11l-.72-.37c-.13-.06,0,0-.12-.06.23.08-.08,0-.09,0l-.49-.16c-.36-.13-.56-.15-.83-.22s-.55-.11-.83-.17a14.09,14.09,0,0,0-3.44-.17,10.41,10.41,0,0,0-6,2.31,10.61,10.61,0,0,0-2,2.4s-.13.21-.06.07l-.11.21-.23.43-.23.43c-.06.13-.09.22-.13.34s-.18.41-.25.65l-.22.73a8.33,8.33,0,0,0-.16,2.9,8.43,8.43,0,0,0,.92,2.75,14.09,14.09,0,0,0,4.29,4.53l1.38.9,1.45.8.49.28.23.14.35.24a5.28,5.28,0,0,1,.58.49,5.46,5.46,0,0,1,.49.52,6.57,6.57,0,0,1,1.3,2.47,6.66,6.66,0,0,1-.77,5.31l-1.84,2.94-1.81,2.9-.45.72a7.43,7.43,0,0,1-.65.91,6.91,6.91,0,0,1-1,1l-.52.38-.56.33a7,7,0,0,1-4.95.6,6.76,6.76,0,0,1-2.28-1.05l-.25-.18-.16-.12-.32-.25-.64-.5-5-3.89L267.17,52l-16.77-13-3.69-2.85-1.77-1.37-.87-.67L244,34.1l0,0-.22-.15-.22-.15-.11-.07h0a.33.33,0,0,1-.13-.06l-.25-.08a1.14,1.14,0,0,0-.26-.06.85.85,0,0,0-.26,0,2.34,2.34,0,0,0-1,.14,2.4,2.4,0,0,0-.88.5,2.24,2.24,0,0,0-.59.74,2.49,2.49,0,0,0-.18.43,1.57,1.57,0,0,0-.05.23l0,.12,0,.06,0,.11-.25,1.74L239,40.85l-.8,5.68-.34,2.4-.09.64,0,.27c0,.08,0,.17-.06.32a9.28,9.28,0,0,1-.41,1.38,9.56,9.56,0,0,1-2.48,3.64,9.44,9.44,0,0,1-2.23,1.53c-.27.14-.48.22-.62.28Zm-1.78-4.67s.14-.05.4-.18a4.46,4.46,0,0,0,1.07-.73,4.58,4.58,0,0,0,1.2-1.75,24.39,24.39,0,0,0,.68-3.9l.81-5.68.47-3.27.25-1.74,0-.11,0-.16.07-.33a6,6,0,0,1,.16-.65,7.44,7.44,0,0,1,.52-1.27A7.54,7.54,0,0,1,246,29.53l.2.11.12.08.22.15.22.15.24.18.11.08.86.67,1.77,1.37,3.69,2.86,16.75,13,9.51,7.37,5,3.89.64.5.32.25.16.12.08.05a1.91,1.91,0,0,0,.68.32,2.14,2.14,0,0,0,1.49-.18l.17-.1.15-.11.22-.2a3.42,3.42,0,0,0,.34-.46l.45-.72L291.2,56,293,53.07a1.83,1.83,0,0,0,.22-1.47,1.76,1.76,0,0,0-.34-.66,1,1,0,0,0-.12-.13l-.1-.09v0s-.11-.07-.15-.1l-.19-.11-.09-.05-1.71-1-1.67-1.09a18.8,18.8,0,0,1-5.73-6.19A12.46,12.46,0,0,1,282,33.15L282.3,32c.11-.37.3-.76.46-1.14.08-.18.17-.4.25-.55l.23-.43.23-.43.11-.21c.16-.28.14-.21.21-.34a15.35,15.35,0,0,1,3-3.52A15.16,15.16,0,0,1,295.46,22a18.8,18.8,0,0,1,4.62.24c.38.08.75.13,1.16.24s.85.21,1.14.32l.49.16.4.14a2.68,2.68,0,0,1,.34.16l1.1.58a13.89,13.89,0,0,1,3.74,3.28,14.6,14.6,0,0,1,2.35,4.32,19.55,19.55,0,0,1,.78,9.5c0,.39-.14.81-.23,1.21s-.17.85-.27,1.16l-.29,1c-.07.24-.08.23-.12.36l-.1.28-.21.56a41.24,41.24,0,0,1-1.91,4.2c-1.4,2.67-2.94,5.23-4.55,7.76s-3.3,5-5,7.51l-1.33,1.86-.34.47-.09.12-.16.24-.65.95-2.6,3.82c-.85,1.29-1.79,2.53-2.72,3.77L288.14,80c-1,1.23-2,2.44-3,3.67l-1.5,1.84-.75.92-.79.89a199.3,199.3,0,0,1-28.31,26.91l-4,3c-.67.5-1.34,1-2,1.51l-2.08,1.44-4.17,2.88-4.3,2.73-2.16,1.37c-.72.45-1.47.86-2.21,1.3l-4.45,2.58c-1.5.85-3,1.62-4.56,2.44s-3,1.64-4.62,2.36l-4.71,2.24c-1.57.75-3.21,1.4-4.82,2.1-3.24,1.45-6.47,2.61-9.73,3.86l-1.27.48-1.23.44-2.46.88-4.94,1.77-9.93,3.56a231.94,231.94,0,0,1-41.79,10.72l-1.33.21c-.45.07-.85.15-1.45.2a10.57,10.57,0,0,1-3.37-.18,9.94,9.94,0,0,1-5.69-3.62,10.74,10.74,0,0,1-2.26-6.26,9.94,9.94,0,0,1,2.09-6.43,10.27,10.27,0,0,1,1.17-1.27c.23-.2.48-.42.69-.59l.55-.4,2.34-1.56,4.54-3,9.09-6c6.06-4,12.17-8,18.22-12.13S175,112.61,181,108.41s12-8.41,18-12.55l4.52-3.09,1.13-.77a2.46,2.46,0,0,0,.24-.17l.1-.1c.06-.06.15-.11.21-.17a2,2,0,0,0,.39-.7,2.38,2.38,0,0,0-.06-.91,2.29,2.29,0,0,0-.51-.84,1.35,1.35,0,0,0-.65-.37.51.51,0,0,1-.16,0s0,0,0,0,.08-.06-.07,0l-.33.07-.33.07s-.54.12,0,0c-7,2.1-14.09,3.87-21.1,5.67q-5.26,1.34-10.47,2.75c-3.48.93-6.94,1.89-10.38,2.91s-6.83,2.1-10.26,3.19-6.88,2.19-10.3,3.2-6.82,2-10,3.21a30.74,30.74,0,0,0-8.63,4.71,18.15,18.15,0,0,0-3.2,3.43l-.65,1-.57,1-.59,1.17-.53,1.13-4.47,9.48c-3,6.29-5.88,12.57-8.77,18.78l-1.08,2.34a15.22,15.22,0,0,1-1.57,2.6,14.66,14.66,0,0,1-4.55,4,15.16,15.16,0,0,1-5.75,1.8c-.5.05-1,.06-1.51.07s-1,0-1.53-.1l-.81-.12-.39-.07-.31-.07-.62-.14-.41-.11-.3-.09-19.27-5.36c-3.18-.88-6.34-1.76-9.52-2.51s-6.37-1.4-9.55-2l-4.75-.94-2.36-.48-1.17-.25a15.06,15.06,0,0,1-1.67-.52A12.74,12.74,0,0,1,30.7,144a13.22,13.22,0,0,1-2.48-6.72,13.4,13.4,0,0,1,1.29-7,12.93,12.93,0,0,1,2-3,13.56,13.56,0,0,1,2.73-2.3l.76-.44.9-.44a6,6,0,0,1,.66-.27l.27-.1.44-.16,2.21-.69q2.21-.68,4.42-1.31c5.88-1.7,11.71-3.29,17.33-5.14s11.06-3.91,16.42-5.87l15.74-5.83C114,97.08,132.72,89.85,149.33,83.4L192.4,66.8Z" style="fill: #fff"/>
      <path d="M225.22,73.82a7.66,7.66,0,0,1,7.85,4.43l10.28,22.4a7.72,7.72,0,0,1-3.66,10.13c-15.66,7.5-60.59,28.5-70.69,33.06-9.55,4.31-14,2-17.26.34a10,10,0,0,0-3-1.2,7.63,7.63,0,0,0-6.84,2.49,4.62,4.62,0,0,0-.65,4.74c1.94,5.16,15,4.31,35.75-2.32l.79,2.46c-23.25,7.42-36.35,7.68-39,.77a7.19,7.19,0,0,1,1.05-7.27,10.29,10.29,0,0,1,9.21-3.44,12,12,0,0,1,3.87,1.46c3.09,1.59,6.6,3.39,15-.4,10.09-4.55,55-25.54,70.64-33a5.12,5.12,0,0,0,2.43-6.72l-10.28-22.4a5.08,5.08,0,0,0-6.29-2.69l-78.67,27-.84-2.45,78.67-27A7.78,7.78,0,0,1,225.22,73.82Z" style="fill: #fff"/>
    </g>
  </g>
</svg>
