<svg id="Layer_1" data-name="Layer 1" xmlns="http://www.w3.org/2000/svg" viewBox="0 0 301.75 179.38"><title>PDECircuit</title><path d="M172.93,125.61l-.24.07-.41.13c-5.7,1.81-19.29,6.07-22.35,6.43-1.87.22-3.9.32-5.88.43s-4,.2-6,.43c-2.67.31-12.1,1-18.33,1.53l-.69.05-6,.47c-2.32.2-9.21.71-13.76,1L98,136.3l-4.2.32H93.7l-.2.07c-1.36.59-7.7,3.94-13.83,7.18l-.47.25c-4.44,2.34-8.63,4.55-9.71,5.07-.93.21-1.17.09-1.57-.85a11.46,11.46,0,0,1-.68-1.86c0-.15-.09-.31-.16-.56A3.11,3.11,0,0,0,65.5,144a4.42,4.42,0,0,0-3.31.25c-1.39.41-11.85,4.39-14.18,5.55a70.9,70.9,0,0,0-9.54,5.7c-4,2.76-7.54,5.53-10.13,7.56l-.09.07c-1,.82-1.95,1.53-2.67,2.06-2.33,1.82-6.74,5.74-10,8.6-1.32,1.18-2.44,2.17-3.08,2.72-1.42,1-2.55,1.12-3.37.38a19.8,19.8,0,0,1-3.93-5l-.46.2h0a.46.46,0,0,1,0,.32l-.13-.18.5-.63-.66-.52-1.08.43-.08.57c-.14,1,3,5.09,4.57,6.33a3.56,3.56,0,0,0,2.46.95,6,6,0,0,0,3.39-1.25l.07-.05c.67-.57,1.8-1.58,3.15-2.78l.06-.06c3.18-2.83,7.54-6.7,9.78-8.45.74-.55,1.69-1.29,2.78-2.15,2.56-2,6.06-4.75,10-7.49a69,69,0,0,1,9.29-5.56c2.18-1.08,12.58-5,13.93-5.45a3,3,0,0,1,1.85-.32,1.21,1.21,0,0,1,.51.72l.14.5a13.08,13.08,0,0,0,.77,2.1,3,3,0,0,0,4,2l.16-.06c1.1-.51,5.6-2.89,10.39-5.42,5.6-3,11.95-6.31,13.54-7l3.53-.27,1.76-.13c5.5-.41,11.56-.86,13.78-1.05l6.62-.53H120c6.57-.51,15.57-1.21,18.23-1.52,1.92-.22,3.94-.32,5.89-.42s4.05-.21,6-.44c3.32-.39,17.25-4.79,21.82-6.23l1.26-.4.24-.07Z" fill="#fff"/><path d="M290.7,5c-.66.28-9.22,4.55-10.87,5.52s-5.27,3.23-7.72,4.76l-.14.09c-1.52,1-2.33,1.46-2.57,1.59-.89.53-14.37,9.85-19.07,13.38.45.7,1,1.41,1.39,2,.32.43.56.77.72,1l.07.11a5.42,5.42,0,0,1,.76,2.85,4.15,4.15,0,0,1-1.21,2.71c-.7.63-1.93,1.58-4,3.15l-3,2.35c-1.54,1.38-3.45,3.28-5.65,5.63a42.76,42.76,0,0,1-8.68,6.27l-.12.06a4.64,4.64,0,0,0-2.88,3.93,8.9,8.9,0,0,1-1.52,4.15,16.67,16.67,0,0,1-3.39,4.6l-.1.09a6.86,6.86,0,0,0-1.35,1.89L216.16,81l-.61,1.14c-3.91,7.37-9.27,17.45-11.38,21.36l-.09.15a24.73,24.73,0,0,1-7.56,7.72A36.21,36.21,0,0,1,184.47,116l-.63.13c-2.89.44-23.79-.93-39.26-2l-1.37-.1-.07.5,0,.17c-.08.58-.15,1.14-.2,1.55s-.07.56-.08.66a2.76,2.76,0,0,1-3.21,2.39c-1.45,0-11.07-.08-17.89.31-5.68.33-10.91.71-17.95,1.52a101.46,101.46,0,0,0-15.39,3.14c-1.3.35-2.21.6-2.85.72-5.47,1.48-41.9,13.15-45.94,14.82a13.8,13.8,0,0,0-2.85,1.88c-.62.53-4.16,4.13-6.64,6.8l-.27.24a3.41,3.41,0,0,1-4.6-.33,40.93,40.93,0,0,1-3-4.14L22,144a15.68,15.68,0,0,0-1.87-2.1,3.74,3.74,0,0,0-2.59.55,47.68,47.68,0,0,0-7.28,7,9.74,9.74,0,0,0-1.54,2.77c-.18.47-.39,1-.7,1.64a63.08,63.08,0,0,0-3.19,11.08c-.37,2.67-.2,2.92.1,3.38l.72,1.37a2.87,2.87,0,0,0,1.15,1c.68.26,1.32.12,3-1.26,1-.89,2.37-2.13,4.33-3.83l3.1-2.71c2.57-2.25,5.39-4.57,8.12-6.83l2.58-2.13.08-.07c2-1.51,3.48-2.46,4.77-3.3l1.25-.82a91.21,91.21,0,0,1,17.54-9.18c1.23-.47,3.19-1.13,5.67-2l.25-.08c3.32-1.12,7.46-2.51,12.08-4.18l.11,0c7.72-2.34,16.08-4.65,21.08-6,2.15-.59,3.7-1,4.33-1.21l.14,0a47.08,47.08,0,0,1,6.11-.84l2.25-.22h.12a14.64,14.64,0,0,1,3.67,0c2.16.24,4.28.5,6.33.76,3,.38,6.2.77,9.37,1.07l.26,0c.5.05.5.05.92-.48.71-.91,1.12-1.53,1.48-2.08s.56-.86.92-1.32l.36-.37c2.83-2.34,5.49-.43,6.5.28l.4.28c.67.43,1.33.88,2,1.33a18.27,18.27,0,0,0,4.73,2.68c.29.07,2,.07,2.62.07h.74l1.33,0a21.93,21.93,0,0,0,2.45,0l1.08-.19.11,0,1-.18c3.25-.5,6.86-1.32,10.35-2.12,2.09-.48,4.16-1,6-1.33,5.75-1.15,6.94-1.64,7.16-1.77a20.23,20.23,0,0,1,5.09-2.74,19.38,19.38,0,0,1,6.29-1,57.08,57.08,0,0,0,7.05-.76c5.78-1.53,10.07-5.59,12.64-8.72a11.54,11.54,0,0,0,1.21-1.82c13.95-26.22,15.48-28.89,16.13-30l.31-.55A3.44,3.44,0,0,1,224.52,75a3,3,0,0,1,2.47.64l.12.1c.38.36.7.71,1,1l0,0c1.07-2.25,4.79-10.09,7.86-17.1l0-.1a56.38,56.38,0,0,1,4.21-7.17c1.56-2.35,7.72-7,11.24-9.33,3.09-2.07,6.25-4.23,8.83-6l5.24-3.56c3-2,8.59-5.8,13.86-9.45,6.78-4.29,13.69-8.23,16.64-9.92l1-.57a7.05,7.05,0,0,0-.35-.71l-.19-.37c-.31-.61-1-2.1-1.67-3.28a14.72,14.72,0,0,0-1.27-1.52,12.29,12.29,0,0,1-1.5-1.86l-.61-1.14Z" fill="none"/><path d="M301.42,12.12a11.57,11.57,0,0,0-.63-1.37l-.14-.26c-.32-.63-1.09-2.19-1.74-3.42l-.06-.1c-.45-.75-.8-1.42-1.21-2.19a7.63,7.63,0,0,0-1.14-1.27,11.12,11.12,0,0,1-1.07-1.15A3.78,3.78,0,0,0,290.79.17a12.91,12.91,0,0,0-1.79.6c-.77.31-9.72,4.78-11.48,5.81-1.57.91-5,3.08-7.58,4.67l-.27.17L267.11,13c-1,.58-16.39,11.23-20.19,14.19-1.67,1.25-1.48,3.71-.81,5.07l.09.16c.59,1,1.3,1.94,1.83,2.67l.07.1.45.63.06.13c-.63.52-1.71,1.36-3.14,2.46l-.2.16L242.2,41l-.1.09c-1.67,1.49-3.69,3.49-6,5.94a38.57,38.57,0,0,1-7.58,5.43c-3.55,1.77-4.69,4.15-5.3,7.2l0,.19c-.09.89-.1,1-1,2.53a12.35,12.35,0,0,1-2.43,3.4,11.34,11.34,0,0,0-2.43,3.2C216.23,71.08,214,75.27,211.5,80l-.18.34c-4.05,7.63-9.09,17.12-11.13,20.88a19.93,19.93,0,0,1-6.09,6.26,31.61,31.61,0,0,1-10.6,4l-.42.09c-3.17.41-38.43-2-41.08-2.26a2.56,2.56,0,0,0-3,2.07c-.15.64-.28,1.54-.43,2.66l-.08.62c-2.17,0-10.46,0-17,.33-5.76.33-11.06.72-18.2,1.54a105.49,105.49,0,0,0-16.1,3.28c-1.11.3-2.07.56-2.54.64l-.17,0c-4.84,1.3-42.31,13.22-46.71,15.08l-.15.07a18.36,18.36,0,0,0-3.82,2.51c-.76.65-3.68,3.62-6,6q-.69-.94-1.87-2.66l-.4-.51a19.68,19.68,0,0,0-2.47-2.72c-1.77-1.66-5.7-1.52-8.25.3a52.17,52.17,0,0,0-8.29,7.94,14.18,14.18,0,0,0-2.13,3.83c-.17.43-.34.87-.62,1.44l-.07.16A68.35,68.35,0,0,0,.28,164l0,.12c-.56,4-.17,5.14.77,6.57l.89,1.62a7.05,7.05,0,0,0,2.71,2.34l.22.11a6.21,6.21,0,0,0,2.45.52c2.45,0,4.31-1.54,5.43-2.46l.09-.08c.93-.87,2.41-2.16,4.28-3.78l3.12-2.72c2.51-2.2,5.31-4.51,8-6.75l2.52-2.08c1.87-1.39,3.25-2.3,4.49-3.1l.18-.12,1.21-.8A87.23,87.23,0,0,1,53,144.8l.09,0c1.2-.46,3.28-1.16,5.75-2,3.34-1.12,7.51-2.52,12.16-4.21,7.61-2.31,15.91-4.6,20.92-6,2.12-.58,3.66-1,4.33-1.21a43.72,43.72,0,0,1,5.46-.73l.21,0,2.11-.21.14,0a10.18,10.18,0,0,1,2.69,0c2,.22,4,.48,6,.72l.22,0c3.08.39,6.27.78,9.53,1.09l.22,0a5,5,0,0,0,5-2.21c.84-1.07,1.32-1.8,1.71-2.4.16-.25.31-.48.47-.7a6.88,6.88,0,0,1,.79.51l.6.41c.59.37,1.17.78,1.82,1.23a21.89,21.89,0,0,0,6,3.3,16.41,16.41,0,0,0,4,.27h.69l1,0h.15a25.66,25.66,0,0,0,3,0l.14,0c.59-.09,1-.17,1.49-.26l.83-.14c3.44-.53,7.16-1.38,10.77-2.21,2.08-.48,4-.92,5.8-1.28,6.29-1.26,8-1.88,8.92-2.53l.09-.07a15.82,15.82,0,0,1,4.07-2.16,17.12,17.12,0,0,1,4.84-.68,61.85,61.85,0,0,0,7.68-.85l.15,0c5.57-1.45,10.79-5,15.1-10.24a16.56,16.56,0,0,0,1.73-2.57c8.63-16.22,13.75-25.76,15.59-29.07l.36.35.18.17A3.61,3.61,0,0,0,229,82.29c1.52-.28,2.32-1.62,3-2.91.78-1.62,4.83-10.12,8.18-17.78a51.86,51.86,0,0,1,3.9-6.62c.71-1.1,5.33-4.94,10-8.06,3.18-2.13,6.44-4.35,9.06-6.14l5.31-3.61C271.63,35,277,31.42,282,27.92c6.57-4.16,13.4-8.05,16.37-9.75l1.59-.92A4.27,4.27,0,0,0,301.42,12.12ZM293.6,7.74a14.72,14.72,0,0,1,1.27,1.52c.62,1.18,1.36,2.67,1.67,3.28l.19.37a7.05,7.05,0,0,1,.35.71l-1,.57c-3,1.68-9.87,5.63-16.64,9.92-5.27,3.65-10.85,7.42-13.86,9.45l-5.24,3.56c-2.58,1.76-5.75,3.92-8.83,6-3.52,2.35-9.68,7-11.24,9.33a56.38,56.38,0,0,0-4.21,7.17l0,.1c-3.06,7-6.78,14.85-7.86,17.1l0,0c-.31-.34-.62-.68-1-1l-.12-.1a3,3,0,0,0-2.47-.64,3.44,3.44,0,0,0-2.33,1.86l-.31.55c-.65,1.14-2.19,3.81-16.13,30a11.54,11.54,0,0,1-1.21,1.82c-2.57,3.13-6.86,7.19-12.64,8.72a57.08,57.08,0,0,1-7.05.76,19.38,19.38,0,0,0-6.29,1,20.23,20.23,0,0,0-5.09,2.74c-.23.12-1.41.61-7.16,1.77-1.85.37-3.93.85-6,1.33-3.49.8-7.1,1.63-10.35,2.12l-1,.18-.11,0-1.08.19a21.93,21.93,0,0,1-2.45,0l-1.33,0h-.74c-.64,0-2.33,0-2.62-.07a18.27,18.27,0,0,1-4.73-2.68c-.64-.44-1.3-.9-2-1.33l-.4-.28c-1-.72-3.66-2.62-6.5-.28l-.36.37c-.36.47-.63.88-.92,1.32s-.76,1.17-1.48,2.08c-.42.53-.42.53-.92.48l-.26,0c-3.17-.3-6.32-.69-9.37-1.07-2.05-.26-4.17-.52-6.33-.76a14.64,14.64,0,0,0-3.67,0h-.12l-2.25.22a47.08,47.08,0,0,0-6.11.84l-.14,0c-.63.19-2.18.62-4.33,1.21-5,1.38-13.37,3.69-21.08,6l-.11,0c-4.62,1.68-8.76,3.07-12.08,4.18l-.25.08c-2.48.83-4.44,1.49-5.67,2A91.21,91.21,0,0,0,34,149.63l-1.25.82c-1.29.84-2.76,1.8-4.77,3.3l-.08.07L25.3,156c-2.73,2.25-5.55,4.58-8.12,6.83l-3.1,2.71c-2,1.71-3.38,2.94-4.33,3.83-1.67,1.38-2.31,1.51-3,1.26a2.87,2.87,0,0,1-1.15-1l-.72-1.37c-.3-.46-.47-.71-.1-3.38A63.08,63.08,0,0,1,8,153.76c.31-.65.52-1.18.7-1.64a9.74,9.74,0,0,1,1.54-2.77,47.68,47.68,0,0,1,7.28-7,3.74,3.74,0,0,1,2.59-.55A15.68,15.68,0,0,1,22,144l.25.31a40.93,40.93,0,0,0,3,4.14,3.41,3.41,0,0,0,4.6.33l.27-.24c2.48-2.67,6-6.27,6.64-6.8a13.8,13.8,0,0,1,2.85-1.88c4-1.66,40.46-13.34,45.94-14.82.64-.12,1.55-.37,2.85-.72a101.46,101.46,0,0,1,15.39-3.14c7-.81,12.27-1.2,17.95-1.52,6.82-.39,16.44-.33,17.89-.31a2.76,2.76,0,0,0,3.21-2.39c0-.1,0-.34.08-.66s.12-1,.2-1.55l0-.17.07-.5,1.37.1c15.47,1.07,36.37,2.45,39.26,2l.63-.13a36.21,36.21,0,0,0,12.05-4.62,24.73,24.73,0,0,0,7.56-7.72l.09-.15c2.12-3.91,7.47-14,11.38-21.36l.61-1.14,5.24-9.85a6.86,6.86,0,0,1,1.35-1.89l.1-.09a16.67,16.67,0,0,0,3.39-4.6,8.9,8.9,0,0,0,1.52-4.15,4.64,4.64,0,0,1,2.88-3.93l.12-.06a42.76,42.76,0,0,0,8.68-6.27c2.2-2.35,4.11-4.25,5.65-5.63l3-2.35c2-1.57,3.26-2.52,4-3.15a4.15,4.15,0,0,0,1.21-2.71,5.42,5.42,0,0,0-.76-2.85l-.07-.11c-.16-.24-.41-.58-.72-1-.42-.58-.94-1.3-1.39-2C255,26.84,268.51,17.52,269.4,17c.23-.13,1-.64,2.57-1.59l.14-.09c2.45-1.53,6.15-3.85,7.72-4.76S290,5.31,290.7,5l.79-.29.61,1.14A12.29,12.29,0,0,0,293.6,7.74Z" fill="#fff"/></svg>