<svg id="bg" xmlns="http://www.w3.org/2000/svg" viewBox="0 0 340 250">
  <title>2-smartMetering-kit</title>
  <line x1="339.38" y1="214.91" x2="1.34" y2="214.91" style="fill: none;stroke: #fff;stroke-linejoin: round;stroke-width: 3px"/>
  <circle cx="162.12" cy="105.47" r="8.5" style="fill: none;stroke: #fff;stroke-linejoin: round;stroke-width: 3px"/>
  <rect x="198.53" y="86.69" width="37.4" height="37.35" style="fill: none;stroke: #fff;stroke-linejoin: round;stroke-width: 3px"/>
  <line x1="205" y1="115.5" x2="210" y2="115.5" style="fill: none;stroke: #fff;stroke-linejoin: round;stroke-width: 3px"/>
  <line x1="215" y1="115.5" x2="220" y2="115.5" style="fill: none;stroke: #fff;stroke-linejoin: round;stroke-width: 3px"/>
  <line x1="225" y1="115.5" x2="230" y2="115.5" style="fill: none;stroke: #fff;stroke-linejoin: round;stroke-width: 3px"/>
  <line x1="88" y1="97.5" x2="93" y2="97.5" style="fill: none;stroke: #fff;stroke-linejoin: round;stroke-width: 3px"/>
  <line x1="88" y1="105.5" x2="93" y2="105.5" style="fill: none;stroke: #fff;stroke-linejoin: round;stroke-width: 3px"/>
  <line x1="88" y1="114.5" x2="93" y2="114.5" style="fill: none;stroke: #fff;stroke-linejoin: round;stroke-width: 3px"/>
  <circle cx="92" cy="56" r="5.5" style="fill: none;stroke: #fff;stroke-linejoin: round;stroke-width: 2.068000078201294px"/>
  <circle cx="92" cy="149" r="5.5" style="fill: none;stroke: #fff;stroke-linejoin: round;stroke-width: 2.068000078201294px"/>
  <circle cx="251" cy="56" r="5.5" style="fill: none;stroke: #fff;stroke-linejoin: round;stroke-width: 2.068000078201294px"/>
  <circle cx="251" cy="149" r="5.5" style="fill: none;stroke: #fff;stroke-linejoin: round;stroke-width: 2.068000078201294px"/>
  <path d="M83.35,124.45H180V86.7H77.35V53.51A11.77,11.77,0,0,1,89.13,41.73H252.66a11.77,11.77,0,0,1,11.77,11.77V152a11.77,11.77,0,0,1-11.77,11.77H89.13A11.77,11.77,0,0,1,77.35,152V93.79" style="fill: none;stroke: #fff;stroke-linejoin: round;stroke-width: 3px"/>
  <rect x="161.95" y="163.74" width="16.1" height="11.21" style="fill: none;stroke: #fff;stroke-linejoin: round;stroke-width: 3px"/>
  <line x1="170" y1="176.11" x2="170" y2="214.91" style="fill: none;stroke: #fff;stroke-linejoin: round;stroke-width: 3px"/>
</svg>
