<svg id="bg" xmlns="http://www.w3.org/2000/svg" viewBox="0 0 340 250">
  <title>2-smartMetering-meter</title>
  <circle cx="193.15" cy="70.47" r="8.5" style="fill: none;stroke: #fff;stroke-linejoin: round;stroke-width: 3px"/>
  <circle cx="135.26" cy="152.4" r="1.5" style="fill: #fff"/>
  <circle cx="200.56" cy="152.4" r="1.5" style="fill: #fff"/>
  <rect x="148.53" y="107.23" width="37.4" height="24.82" style="fill: none;stroke: #fff;stroke-linejoin: round;stroke-width: 3px"/>
  <path d="M211.54,47V30.45a11.21,11.21,0,0,0-11-10.95H135.28a11,11,0,0,0-10.74,10.95V128" style="fill: none;stroke: #fff;stroke-linejoin: round;stroke-width: 3px"/>
  <rect x="135.54" y="36.5" width="66" height="15" style="fill: none;stroke: #fff;stroke-linejoin: round;stroke-width: 3px"/>
  <path d="M124.54,133v19.56a11,11,0,0,0,10.74,10.94H200.5a11.21,11.21,0,0,0,11-10.94V52" style="fill: none;stroke: #fff;stroke-linejoin: round;stroke-width: 3px"/>
  <g>
    <line x1="155.04" y1="125.5" x2="160.04" y2="125.5" style="fill: none;stroke: #fff;stroke-linejoin: round;stroke-width: 3px"/>
    <line x1="165.04" y1="125.5" x2="170.04" y2="125.5" style="fill: none;stroke: #fff;stroke-linejoin: round;stroke-width: 3px"/>
    <line x1="175.04" y1="125.5" x2="180.04" y2="125.5" style="fill: none;stroke: #fff;stroke-linejoin: round;stroke-width: 3px"/>
  </g>
  <rect x="159.18" y="163.74" width="16.1" height="11.21" style="fill: none;stroke: #fff;stroke-linejoin: round;stroke-width: 3px"/>
  <line x1="167.23" y1="176.11" x2="167.23" y2="214.91" style="fill: none;stroke: #fff;stroke-linejoin: round;stroke-width: 3px"/>
  <line x1="339.38" y1="214.91" x2="1.34" y2="214.91" style="fill: none;stroke: #fff;stroke-linejoin: round;stroke-width: 3px"/>
</svg>
