<svg id="bg" xmlns="http://www.w3.org/2000/svg" viewBox="0 0 340 200">
  <title>2-solarPower-generate</title>
  <line x1="244.79" y1="76.72" x2="244.79" y2="68.36" style="fill: none;stroke: #fff;stroke-linejoin: round;stroke-width: 3px"/>
  <g>
    <g>
      <polyline points="91.51 162.48 106.25 162.48 94.71 127.38 122.44 127.38 133.66 162.48 115.23 162.48" style="fill: none;stroke: #fff;stroke-linejoin: round;stroke-width: 3px"/>
      <polyline points="131.09 162.48 145.84 162.48 134.46 127.38 162.03 127.38 173.25 162.48 154.82 162.48" style="fill: none;stroke: #fff;stroke-linejoin: round;stroke-width: 3px"/>
      <polyline points="170.85 162.48 185.59 162.48 174.05 127.38 201.78 127.38 213 162.48 194.57 162.48" style="fill: none;stroke: #fff;stroke-linejoin: round;stroke-width: 3px"/>
    </g>
    <circle cx="244.79" cy="98.03" r="15.21" style="fill: none;stroke: #fff;stroke-linejoin: round;stroke-width: 3px"/>
    <line x1="244.79" y1="127.7" x2="244.79" y2="119.35" style="fill: none;stroke: #fff;stroke-linejoin: round;stroke-width: 3px"/>
    <line x1="215.13" y1="98.03" x2="223.48" y2="98.03" style="fill: none;stroke: #fff;stroke-linejoin: round;stroke-width: 3px"/>
    <line x1="266.11" y1="98.03" x2="274.46" y2="98.03" style="fill: none;stroke: #fff;stroke-linejoin: round;stroke-width: 3px"/>
    <line x1="223.82" y1="119.01" x2="229.72" y2="113.11" style="fill: none;stroke: #fff;stroke-linejoin: round;stroke-width: 3px"/>
    <line x1="259.87" y1="82.96" x2="265.77" y2="77.05" style="fill: none;stroke: #fff;stroke-linejoin: round;stroke-width: 3px"/>
    <line x1="223.82" y1="77.05" x2="229.72" y2="82.96" style="fill: none;stroke: #fff;stroke-linejoin: round;stroke-width: 3px"/>
    <line x1="259.87" y1="113.11" x2="265.77" y2="119.01" style="fill: none;stroke: #fff;stroke-linejoin: round;stroke-width: 3px"/>
  </g>
</svg>
