<svg id="bg" xmlns="http://www.w3.org/2000/svg" viewBox="0 0 340 280">
  <title>2-storage</title>
  <g>
    <path d="M92.49,42.6A10.57,10.57,0,0,1,85,24.55a13.13,13.13,0,0,0-1.35-.07A13,13,0,1,0,95.81,42.06,10.55,10.55,0,0,1,92.49,42.6Z" style="fill: none;stroke: #fff;stroke-linejoin: round;stroke-width: 2.75042527914047px"/>
    <polyline points="167.31 219.79 167.31 73.05 262.43 73.05 262.43 229.54 167.31 229.54 148.24 229.54 148.24 73.05 161.22 73.05" style="fill: none;stroke: #fff;stroke-linejoin: round;stroke-width: 3px"/>
    <line x1="251" y1="84.5" x2="242" y2="84.5" style="fill: none;stroke: #fff;stroke-linejoin: round;stroke-width: 3px"/>
    <line x1="251" y1="194.5" x2="222" y2="194.5" style="fill: none;stroke: #fff;stroke-linejoin: round;stroke-width: 3px"/>
    <line x1="251" y1="184.5" x2="222" y2="184.5" style="fill: none;stroke: #fff;stroke-linejoin: round;stroke-width: 3px"/>
    <line x1="251" y1="174.5" x2="222" y2="174.5" style="fill: none;stroke: #fff;stroke-linejoin: round;stroke-width: 3px"/>
    <line x1="251" y1="164.5" x2="222" y2="164.5" style="fill: none;stroke: #fff;stroke-linejoin: round;stroke-width: 3px"/>
    <line x1="251" y1="154.5" x2="222" y2="154.5" style="fill: none;stroke: #fff;stroke-linejoin: round;stroke-width: 3px"/>
    <line x1="251" y1="144.5" x2="222" y2="144.5" style="fill: none;stroke: #fff;stroke-linejoin: round;stroke-width: 3px"/>
    <g>
      <circle cx="191.69" cy="90.41" r="1.68" style="fill: #fff"/>
      <circle cx="184.36" cy="94.64" r="1.68" style="fill: #fff"/>
      <circle cx="184.36" cy="86.18" r="1.68" style="fill: #fff"/>
    </g>
    <g>
      <path d="M140,170.19H115.35a14.63,14.63,0,0,0-14.63,14.63V215A13.77,13.77,0,0,1,87,228.79H-76" style="fill: none;stroke: #fff;stroke-linejoin: round;stroke-width: 3px"/>
      <rect x="139.99" y="162.62" width="8.25" height="14.48" style="fill: none;stroke: #fff;stroke-linejoin: round;stroke-width: 3px"/>
    </g>
  </g>
</svg>
