<svg xmlns="http://www.w3.org/2000/svg" xmlns:xlink="http://www.w3.org/1999/xlink" viewBox="0 0 340 325.27">
  <defs>
    <clipPath id="clip-path">
      <rect width="340.43" height="325.2" style="fill: none"/>
    </clipPath>
  </defs>
  <title>3-cleanEnergySpain</title>
  <g id="UI">
    <g style="clip-path: url(#clip-path)">
      <g>
        <path d="M188.2,120a6.15,6.15,0,0,1,0,12.29H178v.08h-7.22s-7.22-.31-7.22-7.5c0,0,.1-7.11,7.22-7.11a14.53,14.53,0,0,1,28.31-4.58h0v0a13.55,13.55,0,0,1,0,27.09H180.72a6.15,6.15,0,0,0,0,12.29" style="fill: none;stroke: #fff;stroke-linejoin: round;stroke-width: 3px"/>
        <path d="M340,208.77H322.24A14.75,14.75,0,0,0,311.87,213l-6.56,6.49a14.75,14.75,0,0,1-10.36,4.26H252.54a25.43,25.43,0,0,0-18,7.45l-15.11,15.11a25.43,25.43,0,0,1-18,7.45H161.08a8.58,8.58,0,0,1-8.58-8.58h0a8.5,8.5,0,0,0-14.56-6l-16.78,17-22.3,22.3a19.73,19.73,0,0,0-5.78,14h0a50.08,50.08,0,0,1-14.67,35.41h0" style="fill: none;stroke: #fff;stroke-miterlimit: 10;stroke-width: 3px;opacity: 0.30000000000000004"/>
        <path d="M299.68,147.61l2.66-2.66a5,5,0,0,1,5-1.22l4,1.28a5,5,0,0,1,1.7,8.5l-3.39,2.89a5,5,0,0,1-5.29.73l-3.27-1.51A5,5,0,0,1,299.68,147.61Z" style="fill: none;stroke: #fff;stroke-miterlimit: 10;stroke-width: 3px;opacity: 0.30000000000000004"/>
        <path d="M284.13,155.21l.09-.09a4.23,4.23,0,0,1,4.28-1h0a4.23,4.23,0,0,1,1.45,7.25l-.1.09a4.23,4.23,0,0,1-4.51.62h0A4.23,4.23,0,0,1,284.13,155.21Z" style="fill: none;stroke: #fff;stroke-miterlimit: 10;stroke-width: 3px;opacity: 0.30000000000000004"/>
        <g style="opacity: 0.30000000000000004">
          <path d="M232,.27V28.06a29.47,29.47,0,0,1-8.63,20.84h0a45.64,45.64,0,0,1-14.75,9.87" style="fill: none;stroke: #fff;stroke-miterlimit: 10;stroke-width: 3px"/>
          <path d="M320.39,81.37a7.15,7.15,0,0,1,5.07-2.1H340" style="fill: none;stroke: #fff;stroke-miterlimit: 10;stroke-width: 3px"/>
          <path d="M90,93.9v55.85a7.15,7.15,0,0,1-1.58,4.48l-9.09,11.31a7.15,7.15,0,0,0,.41,9.43L84,179.43a7.15,7.15,0,0,1,2,4.95v14.73a7.15,7.15,0,0,0,7.15,7.15H108c.66,0,4.86-.82,5.49-1" style="fill: none;stroke: #fff;stroke-miterlimit: 10;stroke-width: 3px"/>
        </g>
        <path d="M208.62,58.77a45.64,45.64,0,0,1-17.53,3.5H142a55.83,55.83,0,0,1-28-7.55l-7.45-4.33a7.15,7.15,0,0,0-8.91,1.4L85.47,65.31a7.15,7.15,0,0,0-1.55,6.8l5.8,19.79L90,93.77h11.19a8.92,8.92,0,0,0,1.61-.15L118,90.82a8.92,8.92,0,0,1,9.61,4.83h0a8.92,8.92,0,0,1-.59,8.89L120,115.11a8.92,8.92,0,0,0-1.5,5v49.22a8.92,8.92,0,0,0,.22,2l.87,3.87a8.92,8.92,0,0,1-2.82,8.66l-.24.21a8.92,8.92,0,0,0-3,6.7v14.6L124.11,202a7.15,7.15,0,0,1,8.61,4.28l7.47,19.16a7.15,7.15,0,0,0,4,4h0a7.15,7.15,0,0,0,9.8-6.65v-3.43a7.15,7.15,0,0,1,7.15-7.15H214.9a7.15,7.15,0,0,0,5.22-2.26l32.32-34.52a7.15,7.15,0,0,0-.16-9.95h0a19.42,19.42,0,0,1,0-27.46l13.25-13.25a56,56,0,0,1,15-10.69l5.76-2.82a56,56,0,0,0,15-10.75L319.3,82.46a.92.92,0,0,0-.39-1.52l-12.71-3.75a59.27,59.27,0,0,0-16.77-2.42H246.5a26,26,0,0,1-18.65-7.9l-.19-.2A26,26,0,0,0,209,58.77h-.38Z" style="fill: none;stroke: #fff;stroke-miterlimit: 10;stroke-width: 3px"/>
      </g>
    </g>
  </g>
</svg>
