<?xml version="1.0" encoding="utf-8"?>
<!-- Generator: Adobe Illustrator 21.0.0, SVG Export Plug-In . SVG Version: 6.00 Build 0)  -->
<svg version="1.1" id="Layer_1" xmlns="http://www.w3.org/2000/svg" xmlns:xlink="http://www.w3.org/1999/xlink" x="0px" y="0px"
	 viewBox="0 0 446 320" style="enable-background:new 0 0 446 320;" xml:space="preserve">
<style type="text/css">
	.st0{fill:none;stroke:#FFFFFF;stroke-width:3;stroke-linejoin:round;}
	.st1{fill:none;stroke:#FFFFFF;stroke-width:3;stroke-miterlimit:10;}
	.st2{fill:#FFFFFF;}
</style>
<title>3-cleanEnergyChile</title>
<g id="UI">
	<g>
		<path id="_Path_" class="st0" d="M97.2,76.1c-11,0-20-8.9-20.1-19.9c0-5.3,2.1-10.5,5.9-14.2c-0.9-0.1-1.7-0.1-2.6-0.1
			c-13.6,0-24.5,11.1-24.5,24.6C56,80,67,91,80.6,90.9c10.2,0,19.2-6.3,22.9-15.8C101.4,75.8,99.3,76.1,97.2,76.1z"/>
		<g>
			<path class="st1" d="M206.7,322.1v-68.8c0-44.8,36.3-81.1,81.1-81.1s81.1,36.3,81.1,81.1v92.9"/>
			<line class="st1" x1="206.7" y1="266.5" x2="367.8" y2="266.5"/>
			<g>
				<line class="st1" x1="243.6" y1="156.7" x2="259.2" y2="176.8"/>
				<line class="st1" x1="225.4" y1="204.7" x2="209" y2="183.4"/>
				
					<rect x="198.7" y="159.9" transform="matrix(0.792 -0.6106 0.6106 0.792 -54.7367 170.5151)" class="st1" width="48.3" height="11.3"/>
			</g>
			<rect x="230.1" y="281.5" class="st1" width="13.6" height="30.4"/>
		</g>
		<circle class="st2" cx="215.7" cy="48.8" r="2.7"/>
		<circle class="st2" cx="316" cy="106" r="2.7"/>
		<circle class="st2" cx="390.1" cy="59.7" r="2.7"/>
		<circle class="st2" cx="22" cy="62.4" r="2.7"/>
		<circle class="st2" cx="67.4" cy="139.1" r="2.7"/>
		<circle class="st2" cx="126.3" cy="166.7" r="2.7"/>
		<circle class="st2" cx="431.2" cy="165.6" r="2.7"/>
		<line class="st1" x1="336.2" y1="281.5" x2="336.2" y2="311.9"/>
	</g>
	<path class="st0" d="M208.7,235.3C92.4,246.6-11.3,287-87.9,346.2"/>
	<path class="st0" d="M574,304.8c-59.7-32.7-129.8-55.8-206-66.3"/>
	<circle class="st2" cx="0.6" cy="256.6" r="2.7"/>
</g>
</svg>
