<svg xmlns="http://www.w3.org/2000/svg" viewBox="0 0 340 320">
  <title>3-cleanEnergyChile</title>
  <g id="UI">
    <g>
      <path id="_Path_" data-name="&lt;Path&gt;" d="M79.72,115.73A15.12,15.12,0,0,1,69,89.9a18.78,18.78,0,0,0-1.94-.1A18.57,18.57,0,1,0,84.46,115,15.1,15.1,0,0,1,79.72,115.73Z" style="fill: none;stroke: #fff;stroke-linejoin: round;stroke-width: 3px"/>
      <g>
        <path d="M162.57,301.74v-52a61.33,61.33,0,0,1,122.67,0V320" style="fill: none;stroke: #fff;stroke-miterlimit: 10;stroke-width: 3px"/>
        <line x1="162.57" y1="259.74" x2="284.4" y2="259.74" style="fill: none;stroke: #fff;stroke-miterlimit: 10;stroke-width: 3px"/>
        <g>
          <line x1="190.5" y1="176.66" x2="202.23" y2="191.87" style="fill: none;stroke: #fff;stroke-miterlimit: 10;stroke-width: 3px"/>
          <line x1="176.67" y1="212.97" x2="164.27" y2="196.88" style="fill: none;stroke: #fff;stroke-miterlimit: 10;stroke-width: 3px"/>
          <rect x="170.52" y="165.15" width="8.54" height="36.51" transform="translate(136.25 433.81) rotate(-127.63)" style="fill: none;stroke: #fff;stroke-miterlimit: 10;stroke-width: 3px"/>
        </g>
        <rect x="180.23" y="271.07" width="10.27" height="23" style="fill: none;stroke: #fff;stroke-miterlimit: 10;stroke-width: 3px"/>
      </g>
      <circle cx="169.38" cy="95.07" r="2.05" style="fill: #fff"/>
      <circle cx="245.23" cy="138.35" r="2.05" style="fill: #fff"/>
      <circle cx="301.23" cy="103.3" r="2.05" style="fill: #fff"/>
      <circle cx="22.88" cy="105.35" r="2.05" style="fill: #fff"/>
      <circle cx="57.23" cy="163.4" r="2.05" style="fill: #fff"/>
      <circle cx="101.73" cy="184.22" r="2.05" style="fill: #fff"/>
      <circle cx="332.38" cy="183.4" r="2.05" style="fill: #fff"/>
      <line x1="260.5" y1="271.07" x2="260.5" y2="294.07" style="fill: none;stroke: #fff;stroke-miterlimit: 10;stroke-width: 3px"/>
    </g>
    <path d="M164.08,236.15C76.11,244.64-2.28,275.22-60.23,320" style="fill: none;stroke: #fff;stroke-linejoin: round;stroke-width: 3px"/>
    <path d="M440.34,288.7C395.21,264,342.2,246.49,284.56,238.55" style="fill: none;stroke: #fff;stroke-linejoin: round;stroke-width: 3px"/>
    <circle cx="6.73" cy="252.22" r="2.05" style="fill: #fff"/>
  </g>
</svg>
