<svg id="bg" xmlns="http://www.w3.org/2000/svg" xmlns:xlink="http://www.w3.org/1999/xlink" viewBox="0 0 340 235">
  <defs>
    <clipPath id="clip-path">
      <rect x="0.43" width="339.57" height="233.33" style="fill: none"/>
    </clipPath>
    <clipPath id="clip-path-2">
      <path d="M52,160.29A114.16,114.16,0,1,0,166.21,46.12,114.16,114.16,0,0,0,52,160.29h0" style="fill: none;stroke: #fff;stroke-miterlimit: 10;stroke-width: 3px;opacity: 0.30000000000000004"/>
    </clipPath>
  </defs>
  <title>3-enelWorld</title>
  <g style="clip-path: url(#clip-path)">
    <g>
      <circle cx="166.21" cy="160.29" r="114.16" style="fill: none;stroke: #fff;stroke-linejoin: round;stroke-width: 4px"/>
      <g style="opacity: 0.30000000000000004">
        <g style="clip-path: url(#clip-path-2)">
          <g>
            <path d="M83.52,144.35H78.69a4.85,4.85,0,0,1,4.3-4.81.45.45,0,0,1,.55.49Z" style="fill: none;stroke: #fff;stroke-miterlimit: 10;stroke-width: 3px"/>
            <path d="M134.93,132.45h6.66a8.54,8.54,0,0,0,6-2.5l5-5a1.83,1.83,0,0,1,1.3-.54h7a1.83,1.83,0,0,1,1.29.54l7.13,7.13a1.84,1.84,0,1,0,2.6-2.6h0l-1.23-1.23a1.83,1.83,0,0,1,1.29-3.14h.47a1.84,1.84,0,0,1,1.3.54l4.77,4.77a1.83,1.83,0,0,0,2.59,0h0L191.54,120a7.39,7.39,0,0,1,5.25-2.17h6.07a1.83,1.83,0,0,1,1.29.54l2.71,2.71a3.21,3.21,0,0,1-2.27,5.48H191.35a4.24,4.24,0,0,0,0,8.49h8.55a1.83,1.83,0,0,1,1.83,1.83v3.07a1.83,1.83,0,0,1-.54,1.29L199,143.46a1.83,1.83,0,0,0,1.3,3.13h2.83a1.83,1.83,0,0,1,1.29.54L224.27,167a8.67,8.67,0,0,0,12.25,0l6.6-6.6A4.36,4.36,0,0,0,240,153H231.5a1.83,1.83,0,0,1-1.29-.54l-3.65-3.65a1.83,1.83,0,0,1,1.3-3.14h.47a1.83,1.83,0,0,1,1.29.54l2,2a1.83,1.83,0,0,0,1.3.54h19.47a1.83,1.83,0,0,1,1.3.54l14.91,14.91a1.83,1.83,0,0,0,2.59,0h0l3.48-3.48a1.83,1.83,0,0,0,.54-1.3V145a1.83,1.83,0,0,1,.56-1.28l6.88-6.88a1.83,1.83,0,0,0,.54-1.29v-77a1.83,1.83,0,0,0-1.83-1.83h-71a14.09,14.09,0,0,0-14.09,14.09v7.08a1.83,1.83,0,0,1-.54,1.29l-8.43,8.43a1.83,1.83,0,0,1-2.59,0h0L182.09,85a1.83,1.83,0,0,1-.54-1.29V80.27a1.83,1.83,0,0,0-1.83-1.83h-4.6a1.83,1.83,0,0,0-1.3.54L159.51,93.3a1.83,1.83,0,0,0,0,2.59h0l6.49,6.49a1.83,1.83,0,0,0,2.59,0h0l3.82-3.82a1.83,1.83,0,0,0,.54-1.29V92.89a1.83,1.83,0,0,1,.54-1.3l1.19-1.19a1.83,1.83,0,0,1,2.59,0h0l5.33,5.27a1.83,1.83,0,0,1,0,2.59h0l-9.69,9.69a1.83,1.83,0,0,1-1.29.54h-8.5a1.83,1.83,0,0,1-1.29-.54L160,106.14a1.83,1.83,0,0,0-3.14,1.29v.41a1.83,1.83,0,0,1-.54,1.3l-4.2,4.2a1.83,1.83,0,0,1-1.29.54h-5.52a1.83,1.83,0,0,0-1.83,1.83h0v3.08a1.83,1.83,0,0,1-1.83,1.83H135a1.83,1.83,0,0,0-1.83,1.83h0v8.13A1.83,1.83,0,0,0,134.93,132.45Z" style="fill: none;stroke: #fff;stroke-miterlimit: 10;stroke-width: 3px"/>
            <path d="M149.34,100.38v6.53a2,2,0,0,1-2,2h-1.15a2,2,0,0,1-2-2v-5.62a2,2,0,0,1,.74-1.54l1.15-.9a2,2,0,0,1,3.18,1.53Z" style="fill: none;stroke: #fff;stroke-miterlimit: 10;stroke-width: 3px"/>
            <path d="M140.46,106.17v.92a1.35,1.35,0,0,1-1.35,1.35h-1.6a1.35,1.35,0,0,1-.69-2.51l1.55-.92a1.35,1.35,0,0,1,2.09,1.16Z" style="fill: none;stroke: #fff;stroke-miterlimit: 10;stroke-width: 3px"/>
            <path d="M129.58,78.66l12.13-12.13a3.21,3.21,0,0,1,2.27-.94h9.49a3.21,3.21,0,0,1,3.21,3.21v3.13a3.21,3.21,0,0,1-.95,2.29l-6.09,6.09a3.21,3.21,0,0,1-1.68.89l-15.53,2.91a3.21,3.21,0,0,1-2.86-5.45Z" style="fill: none;stroke: #fff;stroke-miterlimit: 10;stroke-width: 3px"/>
            <path d="M114.45,75.91v3a5.09,5.09,0,0,1-1.48,3.6L99.79,95.67a5.09,5.09,0,0,1-3.6,1.48H77.56a5.09,5.09,0,0,1-5.09-5.09h0V72.34a5.09,5.09,0,0,1,5.66-5.06l31.8,3.57A5.09,5.09,0,0,1,114.45,75.91Z" style="fill: none;stroke: #fff;stroke-miterlimit: 10;stroke-width: 3px"/>
            <path d="M57.22,150.46l8.1,8.06a7.93,7.93,0,0,1,2.32,5.61V175.6A7.93,7.93,0,0,0,70,181.21l9.45,9.45a7.93,7.93,0,0,1,2.32,5.61v21.09A7.93,7.93,0,0,1,79.41,223l-5.77,5.77a7.93,7.93,0,0,1-11.21,0L42.62,208.91a7.93,7.93,0,0,1-2.32-5.61V155.69a7.93,7.93,0,0,1,8.8-7.88l3.4.38A7.93,7.93,0,0,1,57.22,150.46Z" style="fill: none;stroke: #fff;stroke-miterlimit: 10;stroke-width: 3px"/>
            <path d="M135,193.78h8.66a16.51,16.51,0,0,1,16.51,16.5V212a6.13,6.13,0,0,0,1.8,4.33l5.25,5.25a6.13,6.13,0,0,1,1.8,4.33v21.44a6.13,6.13,0,0,0,1.8,4.33l7.43,7.43a6.13,6.13,0,0,0,4.33,1.8h5a6.13,6.13,0,0,0,4.33-1.8l13.67-13.67a9.5,9.5,0,0,0,2.78-6.72A9.5,9.5,0,0,1,211.2,232l9.18-9.15a6.13,6.13,0,0,0,1.8-4.33V207.18a6.13,6.13,0,0,1,1.8-4.33l12.25-12.25a6.14,6.14,0,0,0,1.8-4.34v-1.91a6.13,6.13,0,0,0-6.13-6.13H230a6.13,6.13,0,0,1-4.33-1.8L196.22,147a6.14,6.14,0,0,0-4.33-1.8H180.45a6.14,6.14,0,0,0-4.33,1.8,6.13,6.13,0,0,1-8.67,0h0l-8.25-8.25a6.13,6.13,0,0,0-4.34-1.8H137.5a6.13,6.13,0,0,0-4.33,1.8l-18,18a6.13,6.13,0,0,0-1.8,4.33v11.09A21.65,21.65,0,0,0,135,193.81Z" style="fill: none;stroke: #fff;stroke-miterlimit: 10;stroke-width: 3px"/>
            <path d="M231.69,228.69v4.73A2.28,2.28,0,0,1,231,235l-6.26,6.31a2.27,2.27,0,0,1-3.88-1.6V235.3a2.27,2.27,0,0,1,.63-1.57l6.3-6.58a2.27,2.27,0,0,1,3.88,1.55Z" style="fill: none;stroke: #fff;stroke-miterlimit: 10;stroke-width: 3px"/>
          </g>
        </g>
        <path d="M52,160.29A114.16,114.16,0,1,0,166.21,46.12,114.16,114.16,0,0,0,52,160.29h0" style="fill: none;stroke: #fff;stroke-miterlimit: 10;stroke-width: 3px;opacity: 0.30000000000000004"/>
      </g>
      <path d="M110.28,48.47c0-43,74.88-53.15,74.88,44.37" style="fill: none;stroke: #fff;stroke-linejoin: round;stroke-width: 2px"/>
      <path d="M288.35,167.07c48.06-57.73-48.8-149.92-103.18-74.26" style="fill: none;stroke: #fff;stroke-linejoin: round;stroke-width: 2px"/>
      <path d="M288.35,167.07c48.06-57.73-69.12-87.83-123.49-12.16" style="fill: none;stroke: #fff;stroke-linejoin: round;stroke-width: 2px"/>
      <path d="M231.89,178.21c8.92-15.49-33.53-68.41-67.06-14.79" style="fill: none;stroke: #fff;stroke-linejoin: round;stroke-width: 2px"/>
      <path d="M98.22,137.93C65.41,80.88,160.19,38,185.9,92.81" style="fill: none;stroke: #fff;stroke-linejoin: round;stroke-width: 2px"/>
      <path d="M98.22,137.93c-7.26-51.76,56.05-22.27,58.57,18.52" style="fill: none;stroke: #fff;stroke-linejoin: round;stroke-width: 2px"/>
      <path d="M68.64,233.52C1.44,220.86,26.12,114.38,98.22,137.93" style="fill: none;stroke: #fff;stroke-linejoin: round;stroke-width: 2px"/>
      <path d="M68.64,233.52c-8,47.75,79.09,44.79,79.09,3.62" style="fill: none;stroke: #fff;stroke-linejoin: round;stroke-width: 2px"/>
      <path d="M229.32,181.44c14.57,45.44-66.93,110.18-81.6,55.7" style="fill: none;stroke: #fff;stroke-linejoin: round;stroke-width: 2px"/>
      <path d="M110.28,48.47c0-43,74.88-53.15,74.88,44.37" style="fill: none;stroke: #fff;stroke-miterlimit: 10;stroke-width: 3px"/>
      <path d="M288.35,167.07c48.06-57.73-48.8-149.92-103.18-74.26" style="fill: none;stroke: #fff;stroke-miterlimit: 10;stroke-width: 3px"/>
      <path d="M288.35,167.07c48.06-57.73-69.12-87.83-123.49-12.16" style="fill: none;stroke: #fff;stroke-miterlimit: 10;stroke-width: 3px"/>
      <path d="M231.89,178.21c8.92-15.49-33.53-68.41-67.06-14.79" style="fill: none;stroke: #fff;stroke-miterlimit: 10;stroke-width: 3px"/>
      <path d="M98.22,137.93C65.41,80.88,160.19,38,185.9,92.81" style="fill: none;stroke: #fff;stroke-miterlimit: 10;stroke-width: 3px"/>
      <path d="M98.22,137.93c-7.26-51.76,56.05-22.27,58.57,18.52" style="fill: none;stroke: #fff;stroke-miterlimit: 10;stroke-width: 3px"/>
      <path d="M68.64,233.52C1.44,220.86,26.12,114.38,98.22,137.93" style="fill: none;stroke: #fff;stroke-miterlimit: 10;stroke-width: 3px"/>
      <path d="M68.64,233.52c-8,47.75,79.09,44.79,79.09,3.62" style="fill: none;stroke: #fff;stroke-miterlimit: 10;stroke-width: 3px"/>
      <path d="M229.32,181.44c14.57,45.44-66.93,110.18-81.6,55.7" style="fill: none;stroke: #fff;stroke-miterlimit: 10;stroke-width: 3px"/>
      <path d="M220.6,169.61l1-3.85c.3-1.11,1-2.29,2.29-2.29H235c1.26,0,1.85,1,2.29,2.29l1.85,6.73H217a2.31,2.31,0,0,0-2.29,2.29v6.73a2.31,2.31,0,0,0,2.29,2.29h2.44a3,3,0,0,0-.22,1.11,3.4,3.4,0,0,0,6.8,0,3,3,0,0,0-.22-1.11h7a3,3,0,0,0-.22,1.11,3.4,3.4,0,0,0,6.8,0,3,3,0,0,0-.22-1.11h2.37a2.31,2.31,0,0,0,2.29-2.29v-6.73a2.31,2.31,0,0,0-2.29-2.29" style="fill: #1067f6"/>
      <path d="M220.6,169.61l1-3.85c.3-1.11,1-2.29,2.29-2.29H235c1.26,0,1.85,1,2.29,2.29l1.85,6.73H217a2.31,2.31,0,0,0-2.29,2.29v6.73a2.31,2.31,0,0,0,2.29,2.29h2.44a3,3,0,0,0-.22,1.11,3.4,3.4,0,0,0,6.8,0,3,3,0,0,0-.22-1.11h7a3,3,0,0,0-.22,1.11,3.4,3.4,0,0,0,6.8,0,3,3,0,0,0-.22-1.11h2.37a2.31,2.31,0,0,0,2.29-2.29v-6.73a2.31,2.31,0,0,0-2.29-2.29" style="fill: none;stroke: #fff;stroke-miterlimit: 10;stroke-width: 3px"/>
      <polyline points="104.94 145.84 104.94 137.93 98.22 137.93 98.22 149.17 111.67 149.17 111.67 132.31 115.08 132.31 115.08 131.2 110.56 127.51 110.56 121.07 106.06 121.07 106.06 123.37 101.62 119.96 88.09 131.2 88.09 132.31 91.49 132.31 91.49 149.17 94.81 149.17" style="fill: #1067f6"/>
      <polyline points="104.94 145.84 104.94 137.93 98.22 137.93 98.22 149.17 111.67 149.17 111.67 132.31 115.08 132.31 115.08 131.2 110.56 127.51 110.56 121.07 106.06 121.07 106.06 123.37 101.62 119.96 88.09 131.2 88.09 132.31 91.49 132.31 91.49 149.17 94.81 149.17" style="fill: none;stroke: #fff;stroke-miterlimit: 10;stroke-width: 3px"/>
      <path d="M135.58,226.9V214h23.37v16.34H135.58l-3.4,7.62a1.18,1.18,0,0,0,1,1.7h28a1.16,1.16,0,0,0,1-1.7l-1.77-4.51" style="fill: #1067f6"/>
      <path d="M135.58,226.9V214h23.37v16.34H135.58l-3.4,7.62a1.18,1.18,0,0,0,1,1.7h28a1.16,1.16,0,0,0,1-1.7l-1.77-4.51" style="fill: none;stroke: #fff;stroke-linejoin: round;stroke-width: 3px"/>
      <circle cx="107.84" cy="50.03" r="19.45" style="fill: #1067f6"/>
      <path d="M100.53,67.11a19,19,0,1,0-6-4.29,1.89,1.89,0,0,0,3.25-1.18h0v-2.2c0-5.32,3.18-9.83,7.76-10.94a6,6,0,0,1-2.14-4.81c0-3.11,2-5.62,4.51-5.62s4.51,2.51,4.51,5.62a6,6,0,0,1-2.14,4.81c3.85,1,7.76,5.18,7.76,8.73v1.33" style="fill: none;stroke: #fff;stroke-linejoin: round;stroke-width: 3px"/>
      <circle cx="68.64" cy="233.52" r="19.45" style="fill: #1067f6"/>
      <path d="M61.34,250.6a19,19,0,1,0-6-4.29,1.89,1.89,0,0,0,3.25-1.18h0v-2.22c0-5.32,3.18-9.83,7.76-10.94a6,6,0,0,1-2.14-4.81c0-3.11,2-5.62,4.51-5.62s4.51,2.51,4.51,5.62A6,6,0,0,1,71.1,232c3.85,1,7.76,5.18,7.76,8.73V242" style="fill: none;stroke: #fff;stroke-linejoin: round;stroke-width: 3px"/>
      <circle cx="162.39" cy="156.46" r="19.45" style="fill: #1067f6"/>
      <path d="M155.07,173.54a19,19,0,1,0-6-4.29,1.89,1.89,0,0,0,3.25-1.18h0v-2.22c0-5.32,3.18-9.83,7.76-10.94a6,6,0,0,1-2.14-4.81c0-3.11,2-5.62,4.51-5.62S167,147,167,150.1a6,6,0,0,1-2.14,4.81c3.85,1,7.76,5.18,7.76,8.73V165" style="fill: none;stroke: #fff;stroke-miterlimit: 10;stroke-width: 3px"/>
      <circle cx="285.89" cy="168.62" r="19.45" style="fill: #1067f6"/>
      <path d="M278.57,185.7a19,19,0,1,0-6-4.29,1.89,1.89,0,0,0,3.25-1.18h0V178c0-5.32,3.18-9.83,7.76-10.94a6,6,0,0,1-2.14-4.81c0-3.11,2-5.62,4.51-5.62s4.51,2.51,4.51,5.62a6,6,0,0,1-2.14,4.81c3.85,1,7.76,5.18,7.76,8.73v1.33" style="fill: none;stroke: #fff;stroke-linejoin: round;stroke-width: 3px"/>
      <path d="M194.56,75.7H175.27a1.19,1.19,0,0,0-1.21,1.18s0,0,0,0v29.53a1.19,1.19,0,0,0,1.18,1.21h19.32a1.19,1.19,0,0,0,1.21-1.18s0,0,0,0V76.85A1.23,1.23,0,0,0,194.56,75.7Z" style="fill: #1067f6"/>
      <path d="M194.56,75.7H175.27a1.19,1.19,0,0,0-1.21,1.18s0,0,0,0v29.53a1.19,1.19,0,0,0,1.18,1.21h19.32a1.19,1.19,0,0,0,1.21-1.18s0,0,0,0V76.85A1.23,1.23,0,0,0,194.56,75.7Z" style="fill: none;stroke: #fff;stroke-miterlimit: 10;stroke-width: 3px"/>
      <path d="M196.05,85A2.1,2.1,0,0,0,194,87.05h0v.74a.46.46,0,0,1-.44.48h-.09a.48.48,0,0,1-.48-.44h0v-2a2.11,2.11,0,0,0-2.09-2.09,2.13,2.13,0,0,0-2.09,2.09v4.87a.48.48,0,0,1-.44.48h-.12a.48.48,0,0,1-.48-.44h0V83.18a2.1,2.1,0,1,0-4.19,0h0v3.61a.48.48,0,1,1-1,0h0v-.74A2.1,2.1,0,0,0,180.51,84h-.12A2.1,2.1,0,0,0,178.3,86h0v5a.46.46,0,0,1-.44.48h-.09a.48.48,0,0,1-.48-.44h0V81.25a2.08,2.08,0,0,0-2.06-2.1h0a2.22,2.22,0,0,0-1,.28v7.13a2.06,2.06,0,0,0,.53-1.37V81.25a.46.46,0,0,1,.44-.48h0a.48.48,0,0,1,.48.44h0V91a2.11,2.11,0,0,0,2.09,2.09A2.13,2.13,0,0,0,179.88,91V86.13a.48.48,0,0,1,.44-.48h.07a.48.48,0,0,1,.48.44h0v.74a2.1,2.1,0,1,0,4.19,0h0v-3.6a.48.48,0,0,1,1,0v7.49a2.1,2.1,0,0,0,2.06,2.09h.08a2.1,2.1,0,0,0,2.09-2.06h0v-5a.46.46,0,0,1,.43-.49h.13a.48.48,0,0,1,.48.44h0v2a2.11,2.11,0,0,0,2.09,2.09,2.13,2.13,0,0,0,2.09-2.09v-.69a.48.48,0,0,1,.44-.48h0Z" style="fill: #fff"/>
      <circle id="smartmeter_point_racetrack" data-name="smartmeter point racetrack" cx="180.47" cy="101.27" r="1.05" style="fill: #fff"/>
      <path d="M180,104h4.59a2.7,2.7,0,0,0,2.7-2.7h0a2.7,2.7,0,0,0-2.7-2.7H180a2.7,2.7,0,0,0-2.7,2.7h0A2.7,2.7,0,0,0,180,104Z" style="fill: none;stroke: #fff;stroke-miterlimit: 10;stroke-width: 3px"/>
    </g>
  </g>
</svg>
