<svg id="bg" xmlns="http://www.w3.org/2000/svg" xmlns:xlink="http://www.w3.org/1999/xlink" viewBox="0 0 500 285.79">
  <defs>
    <clipPath id="clip-path">
      <path d="M101.45,189.08A148.56,148.56,0,1,0,250,40.52,148.56,148.56,0,0,0,101.45,189.08h0" style="fill: none;stroke: #fff;stroke-miterlimit: 10;stroke-width: 3px;opacity: 0.30000000000000004"/>
    </clipPath>
  </defs>
  <title>3-enelWorld</title>
  <g>
    <circle cx="250" cy="189.08" r="148.56" style="fill: none;stroke: #fff;stroke-linejoin: round;stroke-width: 4px"/>
    <g style="opacity: 0.30000000000000004">
      <g style="clip-path: url(#clip-path)">
        <g>
          <path d="M142.41,168.34h-6.29a6.31,6.31,0,0,1,5.59-6.25.59.59,0,0,1,.71.64Z" style="fill: none;stroke: #fff;stroke-miterlimit: 10;stroke-width: 3px"/>
          <path d="M209.3,152.86H218a11.11,11.11,0,0,0,7.86-3.25l6.48-6.48a2.39,2.39,0,0,1,1.69-.7h9.07a2.39,2.39,0,0,1,1.68.7L254,152.4A2.39,2.39,0,0,0,257.4,149h0l-1.61-1.61a2.39,2.39,0,0,1,1.68-4.08h.62a2.4,2.4,0,0,1,1.69.7l6.21,6.21a2.39,2.39,0,0,0,3.37,0h0l13.6-13.6a9.62,9.62,0,0,1,6.83-2.83h7.9a2.39,2.39,0,0,1,1.68.7l3.53,3.52a4.18,4.18,0,0,1-3,7.13H282.72a5.52,5.52,0,0,0,0,11h11.12a2.39,2.39,0,0,1,2.39,2.39v4a2.39,2.39,0,0,1-.7,1.68l-2.89,2.89a2.39,2.39,0,0,0,1.69,4.07H298a2.39,2.39,0,0,1,1.68.7l25.86,25.86a11.28,11.28,0,0,0,15.94,0l8.58-8.58a5.68,5.68,0,0,0-4-9.69H335a2.39,2.39,0,0,1-1.68-.7l-4.74-4.74a2.39,2.39,0,0,1,1.69-4.08h.62a2.39,2.39,0,0,1,1.68.7l2.59,2.59a2.39,2.39,0,0,0,1.69.7h25.34a2.39,2.39,0,0,1,1.69.7l19.41,19.41a2.39,2.39,0,0,0,3.37,0h0l4.52-4.52a2.39,2.39,0,0,0,.7-1.69V169.19a2.39,2.39,0,0,1,.73-1.66l9-9a2.39,2.39,0,0,0,.7-1.68V56.72a2.39,2.39,0,0,0-2.39-2.39H307.5a18.34,18.34,0,0,0-18.34,18.34v9.22a2.39,2.39,0,0,1-.7,1.68l-11,11a2.39,2.39,0,0,1-3.37,0h0l-3.44-3.44a2.39,2.39,0,0,1-.7-1.68V85a2.39,2.39,0,0,0-2.39-2.39h-6a2.39,2.39,0,0,0-1.69.7l-18.62,18.64a2.39,2.39,0,0,0,0,3.37h0l8.44,8.44a2.39,2.39,0,0,0,3.37,0h0l5-5a2.39,2.39,0,0,0,.7-1.68v-5.7a2.39,2.39,0,0,1,.7-1.69L261,98.12a2.39,2.39,0,0,1,3.37,0h0l6.94,6.86a2.39,2.39,0,0,1,0,3.37h0L258.74,121a2.39,2.39,0,0,1-1.68.7H246a2.39,2.39,0,0,1-1.68-.7l-2.36-2.36a2.39,2.39,0,0,0-4.08,1.68v.54a2.39,2.39,0,0,1-.7,1.69L231.7,128a2.39,2.39,0,0,1-1.68.7h-7.18a2.39,2.39,0,0,0-2.39,2.39h0v4a2.39,2.39,0,0,1-2.39,2.39h-8.73a2.39,2.39,0,0,0-2.39,2.39h0v10.58A2.39,2.39,0,0,0,209.3,152.86Z" style="fill: none;stroke: #fff;stroke-miterlimit: 10;stroke-width: 3px"/>
          <path d="M228,111.11v8.5a2.55,2.55,0,0,1-2.55,2.55H224a2.55,2.55,0,0,1-2.55-2.55V112.3a2.55,2.55,0,0,1,1-2l1.49-1.17a2.55,2.55,0,0,1,4.14,2Z" style="fill: none;stroke: #fff;stroke-miterlimit: 10;stroke-width: 3px"/>
          <path d="M216.5,118.66v1.19a1.76,1.76,0,0,1-1.76,1.76h-2.09a1.76,1.76,0,0,1-.89-3.27l2-1.19a1.76,1.76,0,0,1,2.72,1.51Z" style="fill: none;stroke: #fff;stroke-miterlimit: 10;stroke-width: 3px"/>
          <path d="M202.34,82.85l15.78-15.78a4.18,4.18,0,0,1,3-1.22h12.35A4.18,4.18,0,0,1,237.61,70V74.1a4.18,4.18,0,0,1-1.23,3L228.46,85a4.18,4.18,0,0,1-2.18,1.15l-20.21,3.79a4.18,4.18,0,0,1-3.72-7.09Z" style="fill: none;stroke: #fff;stroke-miterlimit: 10;stroke-width: 3px"/>
          <path d="M182.66,79.28V83.2a6.62,6.62,0,0,1-1.92,4.69L163.58,105a6.63,6.63,0,0,1-4.69,1.92H134.65a6.62,6.62,0,0,1-6.62-6.62h0V74.63A6.62,6.62,0,0,1,135.39,68l41.38,4.65A6.63,6.63,0,0,1,182.66,79.28Z" style="fill: none;stroke: #fff;stroke-miterlimit: 10;stroke-width: 3px"/>
          <path d="M108.18,176.29l10.54,10.49a10.31,10.31,0,0,1,3,7.29V209a10.31,10.31,0,0,0,3,7.29l12.3,12.3a10.31,10.31,0,0,1,3,7.29v27.44a10.31,10.31,0,0,1-3,7.29l-7.51,7.51a10.31,10.31,0,0,1-14.59,0L89.18,252.34a10.31,10.31,0,0,1-3-7.29V183.1a10.31,10.31,0,0,1,11.45-10.26l4.43.49A10.31,10.31,0,0,1,108.18,176.29Z" style="fill: none;stroke: #fff;stroke-miterlimit: 10;stroke-width: 3px"/>
          <path d="M209.46,232.66h11.27a21.49,21.49,0,0,1,21.49,21.47v2.22a8,8,0,0,0,2.34,5.64l6.83,6.83a8,8,0,0,1,2.34,5.64v27.9a8,8,0,0,0,2.34,5.64l9.67,9.67a8,8,0,0,0,5.64,2.34h6.51a8,8,0,0,0,5.64-2.34l17.79-17.79a12.36,12.36,0,0,0,3.62-8.75,12.36,12.36,0,0,1,3.62-8.75l12-11.9a8,8,0,0,0,2.34-5.64V250.09a8,8,0,0,1,2.34-5.64l15.93-15.93a8,8,0,0,0,2.34-5.65v-2.48a8,8,0,0,0-8-8H333a8,8,0,0,1-5.64-2.34L289,171.77a8,8,0,0,0-5.64-2.34H268.54a8,8,0,0,0-5.64,2.34,8,8,0,0,1-11.28,0h0L240.87,161a8,8,0,0,0-5.65-2.34H212.65A8,8,0,0,0,207,161L183.6,184.44a8,8,0,0,0-2.34,5.64v14.43a28.17,28.17,0,0,0,28.17,28.17Z" style="fill: none;stroke: #fff;stroke-miterlimit: 10;stroke-width: 3px"/>
          <path d="M335.21,278.09v6.16a3,3,0,0,1-.87,2.09l-8.15,8.21a3,3,0,0,1-5.05-2.09v-5.77a3,3,0,0,1,.82-2l8.2-8.56a3,3,0,0,1,5.05,2Z" style="fill: none;stroke: #fff;stroke-miterlimit: 10;stroke-width: 3px"/>
        </g>
      </g>
      <path d="M101.45,189.08A148.56,148.56,0,1,0,250,40.52,148.56,148.56,0,0,0,101.45,189.08h0" style="fill: none;stroke: #fff;stroke-miterlimit: 10;stroke-width: 3px;opacity: 0.30000000000000004"/>
    </g>
    <path d="M177.23,43.58c0-56,97.43-69.16,97.43,57.73" style="fill: none;stroke: #fff;stroke-linejoin: round;stroke-width: 2px"/>
    <path d="M408.94,197.9c62.54-75.12-63.51-195.08-134.26-96.63" style="fill: none;stroke: #fff;stroke-linejoin: round;stroke-width: 2px"/>
    <path d="M408.94,197.9C471.49,122.78,319,83.61,248.25,182.07" style="fill: none;stroke: #fff;stroke-linejoin: round;stroke-width: 2px"/>
    <path d="M335.47,212.4c11.6-20.16-43.63-89-87.26-19.24" style="fill: none;stroke: #fff;stroke-linejoin: round;stroke-width: 2px"/>
    <path d="M161.53,160c-42.69-74.24,80.64-130.05,114.1-58.71" style="fill: none;stroke: #fff;stroke-linejoin: round;stroke-width: 2px"/>
    <path d="M161.53,160c-9.45-67.35,72.94-29,76.22,24.1" style="fill: none;stroke: #fff;stroke-linejoin: round;stroke-width: 2px"/>
    <path d="M123,284.37C35.6,267.9,67.71,129.34,161.53,160" style="fill: none;stroke: #fff;stroke-linejoin: round;stroke-width: 2px"/>
    <path d="M123,284.37c-10.46,62.13,102.91,58.28,102.91,4.71" style="fill: none;stroke: #fff;stroke-linejoin: round;stroke-width: 2px"/>
    <path d="M332.13,216.6c19,59.13-87.09,143.37-106.18,72.48" style="fill: none;stroke: #fff;stroke-linejoin: round;stroke-width: 2px"/>
    <path d="M177.23,43.58c0-56,97.43-69.16,97.43,57.73" style="fill: none;stroke: #fff;stroke-miterlimit: 10;stroke-width: 3px"/>
    <path d="M408.94,197.9c62.54-75.12-63.51-195.08-134.26-96.63" style="fill: none;stroke: #fff;stroke-miterlimit: 10;stroke-width: 3px"/>
    <path d="M408.94,197.9C471.49,122.78,319,83.61,248.25,182.07" style="fill: none;stroke: #fff;stroke-miterlimit: 10;stroke-width: 3px"/>
    <path d="M335.47,212.4c11.6-20.16-43.63-89-87.26-19.24" style="fill: none;stroke: #fff;stroke-miterlimit: 10;stroke-width: 3px"/>
    <path d="M161.53,160c-42.69-74.24,80.64-130.05,114.1-58.71" style="fill: none;stroke: #fff;stroke-miterlimit: 10;stroke-width: 3px"/>
    <path d="M161.53,160c-9.45-67.35,72.94-29,76.22,24.1" style="fill: none;stroke: #fff;stroke-miterlimit: 10;stroke-width: 3px"/>
    <path d="M123,284.37C35.6,267.9,67.71,129.34,161.53,160" style="fill: none;stroke: #fff;stroke-miterlimit: 10;stroke-width: 3px"/>
    <path d="M123,284.37c-10.46,62.13,102.91,58.28,102.91,4.71" style="fill: none;stroke: #fff;stroke-miterlimit: 10;stroke-width: 3px"/>
    <path d="M332.13,216.6c19,59.13-87.09,143.37-106.18,72.48" style="fill: none;stroke: #fff;stroke-miterlimit: 10;stroke-width: 3px"/>
    <path d="M320.77,201.21l1.25-5c.38-1.44,1.35-3,3-3h14.53c1.64,0,2.41,1.25,3,3l2.41,8.76H316.16a3,3,0,0,0-3,3v8.76a3,3,0,0,0,3,3h3.18a3.85,3.85,0,0,0-.29,1.44,4.43,4.43,0,0,0,8.85,0,3.85,3.85,0,0,0-.29-1.44h9.17a3.85,3.85,0,0,0-.29,1.44,4.43,4.43,0,0,0,8.85,0,3.85,3.85,0,0,0-.29-1.44h3.08a3,3,0,0,0,3-3v-8.76a3,3,0,0,0-3-3" style="fill: #1067f6"/>
    <path d="M320.77,201.21l1.25-5c.38-1.44,1.35-3,3-3h14.53c1.64,0,2.41,1.25,3,3l2.41,8.76H316.16a3,3,0,0,0-3,3v8.76a3,3,0,0,0,3,3h3.18a3.85,3.85,0,0,0-.29,1.44,4.43,4.43,0,0,0,8.85,0,3.85,3.85,0,0,0-.29-1.44h9.17a3.85,3.85,0,0,0-.29,1.44,4.43,4.43,0,0,0,8.85,0,3.85,3.85,0,0,0-.29-1.44h3.08a3,3,0,0,0,3-3v-8.76a3,3,0,0,0-3-3" style="fill: none;stroke: #fff;stroke-miterlimit: 10;stroke-width: 3px"/>
    <polyline points="170.28 170.28 170.28 159.99 161.53 159.99 161.53 174.61 179.04 174.61 179.04 152.67 183.47 152.67 183.47 151.23 177.6 146.42 177.6 138.05 171.73 138.05 171.73 141.03 165.95 136.6 148.34 151.23 148.34 152.67 152.77 152.67 152.77 174.61 157.1 174.61" style="fill: #1067f6"/>
    <polyline points="170.28 170.28 170.28 159.99 161.53 159.99 161.53 174.61 179.04 174.61 179.04 152.67 183.47 152.67 183.47 151.23 177.6 146.42 177.6 138.05 171.73 138.05 171.73 141.03 165.95 136.6 148.34 151.23 148.34 152.67 152.77 152.67 152.77 174.61 157.1 174.61" style="fill: none;stroke: #fff;stroke-miterlimit: 10;stroke-width: 3px"/>
    <path d="M210.15,275.76V259h30.41v21.26H210.15l-4.43,9.91a1.54,1.54,0,0,0,1.35,2.21h36.47a1.51,1.51,0,0,0,1.35-2.21l-2.31-5.87" style="fill: #1067f6"/>
    <path d="M210.15,275.76V259h30.41v21.26H210.15l-4.43,9.91a1.54,1.54,0,0,0,1.35,2.21h36.47a1.51,1.51,0,0,0,1.35-2.21l-2.31-5.87" style="fill: none;stroke: #fff;stroke-linejoin: round;stroke-width: 3px"/>
    <circle cx="174.06" cy="45.6" r="25.31" style="fill: #1067f6"/>
    <path d="M164.54,67.82a24.68,24.68,0,1,0-7.79-5.58A2.46,2.46,0,0,0,161,60.7h0V57.84c0-6.93,4.14-12.8,10.1-14.24a7.86,7.86,0,0,1-2.79-6.25c0-4,2.6-7.31,5.87-7.31S180,33.3,180,37.34a7.85,7.85,0,0,1-2.79,6.25c5,1.25,10.1,6.74,10.1,11.35v1.73" style="fill: none;stroke: #fff;stroke-linejoin: round;stroke-width: 3px"/>
    <circle cx="123.04" cy="284.37" r="25.31" style="fill: #1067f6"/>
    <path d="M113.54,306.6a24.68,24.68,0,1,0-7.79-5.58,2.46,2.46,0,0,0,4.23-1.54h0v-2.89c0-6.93,4.14-12.8,10.1-14.24a7.86,7.86,0,0,1-2.79-6.25c0-4,2.6-7.31,5.87-7.31s5.87,3.27,5.87,7.31a7.85,7.85,0,0,1-2.79,6.25c5,1.25,10.1,6.74,10.1,11.35v1.73" style="fill: none;stroke: #fff;stroke-linejoin: round;stroke-width: 3px"/>
    <circle cx="245.03" cy="184.09" r="25.31" style="fill: #1067f6"/>
    <path d="M235.5,206.32a24.68,24.68,0,1,0-7.79-5.58,2.46,2.46,0,0,0,4.23-1.54h0v-2.89c0-6.93,4.14-12.8,10.1-14.24a7.86,7.86,0,0,1-2.79-6.25c0-4,2.6-7.31,5.87-7.31s5.87,3.27,5.87,7.31a7.85,7.85,0,0,1-2.79,6.25c5,1.25,10.1,6.74,10.1,11.35v1.73" style="fill: none;stroke: #fff;stroke-miterlimit: 10;stroke-width: 3px"/>
    <circle cx="405.74" cy="199.92" r="25.31" style="fill: #1067f6"/>
    <path d="M396.21,222.14a24.68,24.68,0,1,0-7.79-5.58,2.46,2.46,0,0,0,4.23-1.54h0v-2.89c0-6.93,4.14-12.8,10.1-14.24a7.86,7.86,0,0,1-2.79-6.25c0-4,2.6-7.31,5.87-7.31s5.87,3.27,5.87,7.31a7.85,7.85,0,0,1-2.79,6.25c5,1.25,10.1,6.74,10.1,11.35V211" style="fill: none;stroke: #fff;stroke-linejoin: round;stroke-width: 3px"/>
    <path d="M286.89,79h-25.1a1.55,1.55,0,0,0-1.57,1.53s0,0,0,0V119a1.55,1.55,0,0,0,1.53,1.57h25.14a1.55,1.55,0,0,0,1.57-1.53s0,0,0,0V80.51A1.61,1.61,0,0,0,286.89,79Z" style="fill: #1067f6"/>
    <path d="M286.89,79h-25.1a1.55,1.55,0,0,0-1.57,1.53s0,0,0,0V119a1.55,1.55,0,0,0,1.53,1.57h25.14a1.55,1.55,0,0,0,1.57-1.53s0,0,0,0V80.51A1.61,1.61,0,0,0,286.89,79Z" style="fill: none;stroke: #fff;stroke-miterlimit: 10;stroke-width: 3px"/>
    <path d="M288.84,91.1a2.73,2.73,0,0,0-2.72,2.67h0v1a.6.6,0,0,1-.57.63h-.12a.63.63,0,0,1-.63-.58h0V92.15a2.74,2.74,0,0,0-2.72-2.72,2.77,2.77,0,0,0-2.72,2.72v6.34a.63.63,0,0,1-.58.63h-.15a.63.63,0,0,1-.63-.58h0v-9.8a2.73,2.73,0,0,0-5.46,0h0v4.7a.63.63,0,1,1-1.26,0h0v-1a2.73,2.73,0,0,0-2.67-2.72h-.15a2.73,2.73,0,0,0-2.72,2.67h0v6.45a.6.6,0,0,1-.57.63h-.12a.63.63,0,0,1-.63-.58h0V86.23a2.7,2.7,0,0,0-2.67-2.73h0a2.89,2.89,0,0,0-1.31.37v9.28a2.68,2.68,0,0,0,.68-1.78V86.23a.6.6,0,0,1,.57-.63h.06a.63.63,0,0,1,.63.58h0V99a2.74,2.74,0,0,0,2.72,2.72A2.77,2.77,0,0,0,267.79,99v-6.4a.63.63,0,0,1,.58-.63h.09a.63.63,0,0,1,.63.58h0v1a2.73,2.73,0,1,0,5.46,0h0V88.8a.63.63,0,1,1,1.26,0v9.75a2.73,2.73,0,0,0,2.67,2.72h.11a2.73,2.73,0,0,0,2.72-2.67h0V92.15a.6.6,0,0,1,.56-.63H282a.63.63,0,0,1,.63.58h0v2.62a2.74,2.74,0,0,0,2.72,2.72,2.77,2.77,0,0,0,2.72-2.72v-.89a.63.63,0,0,1,.58-.63h0Z" style="fill: #fff"/>
    <circle id="smartmeter_point_racetrack" data-name="smartmeter point racetrack" cx="268.55" cy="112.28" r="1.37" style="fill: #fff"/>
    <path d="M267.92,115.79h6a3.51,3.51,0,0,0,3.51-3.51h0a3.51,3.51,0,0,0-3.51-3.51h-6a3.51,3.51,0,0,0-3.51,3.51h0a3.51,3.51,0,0,0,3.51,3.51Z" style="fill: none;stroke: #fff;stroke-miterlimit: 10;stroke-width: 3px"/>
  </g>
</svg>
