<?xml version="1.0" encoding="utf-8"?>
<!-- Generator: Adobe Illustrator 18.1.1, SVG Export Plug-In . SVG Version: 6.00 Build 0)  -->
<svg version="1.1" id="Layer_1" xmlns="http://www.w3.org/2000/svg" xmlns:xlink="http://www.w3.org/1999/xlink" x="0px" y="0px"
	 viewBox="0 0 262.8 87.1" enable-background="new 0 0 262.8 87.1" xml:space="preserve">
<g>
	<g>
		<path fill="none" stroke="#FFFFFF" stroke-width="2" stroke-linejoin="round" stroke-miterlimit="10" d="M31.3,77.7
			c0-2.1-1.7-3.7-3.7-3.7c-2.1,0-3.7,1.7-3.7,3.7l0-0.2c0,1.3-1.1,2.4-2.4,2.4c-1.3,0-2.4-1.1-2.4-2.4l0,0l0,0V61
			c0,0.2,0.5-3.7-3.3-3.7h-5.4c3.6,0,3.6,3.7,3.6,3.7v17.8v0.1l0,0c0,1.3-1.1,2.4-2.4,2.4s-2.4-1.1-2.4-2.4v0V63.5
			c0,0,0-3.7-3.6-3.7H2"/>
	</g>
	<g>
		<path fill="none" stroke="#FFFFFF" stroke-width="2" stroke-linejoin="round" stroke-miterlimit="10" d="M15.7,12.4
			c2,0,3.7,1.6,3.7,3.7c0,2-1.6,3.7-3.7,3.7H9.6v0H5.3c0,0-4.3-0.2-4.3-4.5c0,0,0.1-4.2,4.3-4.2c0-4.8,3.9-8.7,8.7-8.7
			c3.8,0,7.1,2.5,8.2,5.9l0,0l0,0c4.5,0,8.1,3.6,8.1,8.1c0,4.5-3.6,8.1-8.1,8.1h0.1H11.3c-2,0-3.7,1.6-3.7,3.7c0,2,1.6,3.7,3.7,3.7"
			/>
	</g>
	<g>
		<path fill="none" stroke="#FFFFFF" stroke-width="2" stroke-linejoin="round" stroke-miterlimit="10" d="M170.6,21.4
			c-1.2,0.7-2.6,1-4.1,0.6c-3.1-0.7-5.1-3.7-4.5-6.9c0.7-3.1,3.7-5.1,6.9-4.5c3.1,0.7,5.1,3.7,4.5,6.9c-0.2,1-0.6,1.8-1.2,2.5
			l3.4,1.9l6.9-0.9l-5-4.8l5-4.8l-6.9-0.9l1.3-6.8l-6.1,3.3l-3-6.3l-3,6.3l-6.1-3.3l1.3,6.8l-6.9,0.9l5,4.8l-5,4.8l6.9,0.9l-1.3,6.8
			l6.1-3.3l3,6.3l3-6.3l6.1,3.3l-1-4.3"/>
	</g>
	<g>
		<path fill="none" stroke="#FFFFFF" stroke-width="2" stroke-linejoin="round" stroke-miterlimit="10" d="M171.4,74.4
			c0.8,0.3,1.8,0.2,2.5-0.4c1.1-0.9,1.3-2.5,0.4-3.6c-0.9-1.1-2.5-1.3-3.6-0.4l0,0c0.4-0.5,0.7-1.2,0.7-2c0-1.7-1.4-3.1-3.1-3.1
			c-1.7,0-3.1,1.4-3.1,3.1V78l7.3,2.6h-18l7.2-2.6h0V56.7l0,0c0-1.1-0.1-2.2,0.7-3c1.2-1.2,3.1-1.3,4.3-0.1c1.2,1.2,1.3,3.1,0.1,4.3
			l0,0c0.7-0.5,1.5-0.7,2.5-0.7c2.1,0.2,3.6,2,3.4,4c-0.1,1-0.6,1.9-1.3,2.5"/>
	</g>
	<g>
		<text transform="matrix(1 0 0 1 46.5994 20.1108)" fill="#FFFFFF" font-family="'UniversLTStd'" font-size="12">Wind</text>
	</g>
	<g>
		<text transform="matrix(1 0 0 1 46.5998 73.0549)" fill="#FFFFFF" font-family="'UniversLTStd'" font-size="12">Hydroelectric</text>
	</g>
	<g>
		<text transform="matrix(1 0 0 1 197.573 20.1106)" fill="#FFFFFF" font-family="'UniversLTStd'" font-size="12">Solar</text>
	</g>
	<g>
		<text transform="matrix(1 0 0 1 195.5007 73.0556)" fill="#FFFFFF" font-family="'UniversLTStd'" font-size="12">Geothermal</text>
	</g>
</g>
</svg>
