<?xml version="1.0" encoding="utf-8"?>
<!-- Generator: Adobe Illustrator 18.1.1, SVG Export Plug-In . SVG Version: 6.00 Build 0)  -->
<svg version="1.1" id="Layer_1" xmlns="http://www.w3.org/2000/svg" xmlns:xlink="http://www.w3.org/1999/xlink" x="0px" y="0px"
	 viewBox="0 0 339.6 233.3" enable-background="new 0 0 339.6 233.3" xml:space="preserve">
<g>
	<defs>
		<rect id="SVGID_1_" x="0" y="0" width="339.6" height="233.3"/>
	</defs>
	<clipPath id="SVGID_2_">
		<use xlink:href="#SVGID_1_"  overflow="visible"/>
	</clipPath>
	<g clip-path="url(#SVGID_2_)">
		<circle fill="none" stroke="#FFFFFF" stroke-width="4" stroke-linejoin="round" cx="165.8" cy="160.3" r="114.2"/>
		<g opacity="0.3">
			<defs>
				<path id="SVGID_3_" opacity="0.3" d="M51.6,160.3c0,63.1,51.1,114.2,114.2,114.2s114.2-51.1,114.2-114.2
					c0-63-51.1-114.2-114.2-114.2C102.7,46.1,51.6,97.2,51.6,160.3C51.6,160.3,51.6,160.3,51.6,160.3"/>
			</defs>
			<clipPath id="SVGID_4_">
				<use xlink:href="#SVGID_3_"  overflow="visible" opacity="0.3"/>
			</clipPath>
			<g clip-path="url(#SVGID_4_)">
				<path fill="none" stroke="#FFFFFF" stroke-width="3" stroke-miterlimit="10" d="M83.1,144.4h-4.8c0-2.5,1.9-4.5,4.3-4.8
					c0.2-0.1,0.5,0.1,0.5,0.3c0,0,0,0.1,0,0.1L83.1,144.4z"/>
				<path fill="none" stroke="#FFFFFF" stroke-width="3" stroke-miterlimit="10" d="M134.5,132.5h6.7c2.3,0,4.4-0.9,6-2.5l5-5
					c0.3-0.3,0.8-0.5,1.3-0.5h7c0.5,0,1,0.2,1.3,0.5l7.1,7.1c0.7,0.7,1.9,0.7,2.6,0c0.7-0.7,0.7-1.9,0-2.6l0,0l-1.2-1.2
					c-0.7-0.7-0.7-1.9,0-2.6c0.3-0.3,0.8-0.5,1.3-0.5h0.5c0.5,0,1,0.2,1.3,0.5l4.8,4.8c0.7,0.7,1.9,0.7,2.6,0c0,0,0,0,0,0l10.4-10.4
					c1.4-1.4,3.3-2.2,5.3-2.2h6.1c0.5,0,1,0.2,1.3,0.5l2.7,2.7c1.3,1.3,1.3,3.3,0,4.5c-0.6,0.6-1.4,0.9-2.3,0.9h-13.3
					c-2.3,0-4.2,1.9-4.2,4.2c0,2.3,1.9,4.2,4.2,4.2c0,0,0,0,0,0h8.5c1,0,1.8,0.8,1.8,1.8v3.1c0,0.5-0.2,1-0.5,1.3l-2.2,2.2
					c-0.7,0.7-0.7,1.9,0,2.6c0.3,0.3,0.8,0.5,1.3,0.5h2.8c0.5,0,1,0.2,1.3,0.5l19.9,19.9c3.4,3.4,8.9,3.4,12.3,0l6.6-6.6
					c1.7-1.7,1.7-4.5,0-6.2c-0.8-0.8-1.9-1.3-3.1-1.3h-8.5c-0.5,0-1-0.2-1.3-0.5l-3.6-3.6c-0.7-0.7-0.7-1.9,0-2.6
					c0.3-0.3,0.8-0.5,1.3-0.5h0.5c0.5,0,1,0.2,1.3,0.5l2,2c0.3,0.3,0.8,0.5,1.3,0.5H252c0.5,0,1,0.2,1.3,0.5l14.9,14.9
					c0.7,0.7,1.9,0.7,2.6,0c0,0,0,0,0,0l3.5-3.5c0.3-0.3,0.5-0.8,0.5-1.3V145c0-0.5,0.2-0.9,0.6-1.3l6.9-6.9
					c0.3-0.3,0.5-0.8,0.5-1.3v-77c0-1-0.8-1.8-1.8-1.8h-71c-7.8,0-14.1,6.3-14.1,14.1v7.1c0,0.5-0.2,1-0.5,1.3l-8.4,8.4
					c-0.7,0.7-1.9,0.7-2.6,0c0,0,0,0,0,0l-2.6-2.6c-0.3-0.3-0.5-0.8-0.5-1.3v-3.4c0-1-0.8-1.8-1.8-1.8h-4.6c-0.5,0-1,0.2-1.3,0.5
					l-14.3,14.3c-0.7,0.7-0.7,1.9,0,2.6c0,0,0,0,0,0l6.5,6.5c0.7,0.7,1.9,0.7,2.6,0c0,0,0,0,0,0l3.8-3.8c0.3-0.3,0.5-0.8,0.5-1.3
					v-4.4c0-0.5,0.2-1,0.5-1.3l1.2-1.2c0.7-0.7,1.9-0.7,2.6,0c0,0,0,0,0,0l5.3,5.3c0.7,0.7,0.7,1.9,0,2.6c0,0,0,0,0,0l-9.7,9.7
					c-0.3,0.3-0.8,0.5-1.3,0.5h-8.5c-0.5,0-1-0.2-1.3-0.5l-1.8-1.8c-0.7-0.7-1.9-0.7-2.6,0c-0.3,0.3-0.5,0.8-0.5,1.3v0.4
					c0,0.5-0.2,1-0.5,1.3l-4.2,4.2c-0.3,0.3-0.8,0.5-1.3,0.5h-5.5c-1,0-1.8,0.8-1.8,1.8l0,0v3.1c0,1-0.8,1.8-1.8,1.8l0,0h-6.7
					c-1,0-1.8,0.8-1.8,1.8l0,0v8.1C132.7,131.6,133.5,132.4,134.5,132.5z"/>
				<path fill="none" stroke="#FFFFFF" stroke-width="3" stroke-miterlimit="10" d="M148.9,100.4v6.5c0,1.1-0.9,2-2,2h-1.1
					c-1.1,0-2-0.9-2-2v-5.6c0-0.6,0.3-1.2,0.7-1.5l1.1-0.9c0.8-0.7,2.1-0.5,2.8,0.3C148.8,99.5,148.9,99.9,148.9,100.4z"/>
				<path fill="none" stroke="#FFFFFF" stroke-width="3" stroke-miterlimit="10" d="M140,106.2v0.9c0,0.7-0.6,1.4-1.4,1.4h-1.6
					c-0.7,0-1.3-0.6-1.3-1.4c0-0.5,0.3-0.9,0.7-1.2l1.6-0.9c0.6-0.4,1.5-0.2,1.9,0.4C140,105.6,140,105.9,140,106.2z"/>
				<path fill="none" stroke="#FFFFFF" stroke-width="3" stroke-miterlimit="10" d="M129.2,78.7l12.1-12.1c0.6-0.6,1.4-0.9,2.3-0.9
					h9.5c1.8,0,3.2,1.4,3.2,3.2v3.1c0,0.9-0.3,1.7-0.9,2.3l-6.1,6.1c-0.5,0.5-1,0.8-1.7,0.9L132,84.1c-1.7,0.3-3.4-0.8-3.8-2.5
					C128,80.5,128.4,79.4,129.2,78.7z"/>
				<path fill="none" stroke="#FFFFFF" stroke-width="3" stroke-miterlimit="10" d="M114,75.9v3c0,1.3-0.5,2.6-1.5,3.6L99.4,95.7
					c-1,1-2.3,1.5-3.6,1.5H77.1c-2.8,0-5.1-2.3-5.1-5.1c0,0,0,0,0,0V72.3c0-2.8,2.3-5.1,5.1-5.1c0.2,0,0.4,0,0.6,0l31.8,3.6
					C112.1,71.1,114,73.3,114,75.9z"/>
				<path fill="none" stroke="#FFFFFF" stroke-width="3" stroke-miterlimit="10" d="M56.8,150.5l8.1,8.1c1.5,1.5,2.3,3.5,2.3,5.6
					v11.5c0,2.1,0.8,4.1,2.3,5.6l9.5,9.5c1.5,1.5,2.3,3.5,2.3,5.6v21.1c0,2.1-0.8,4.1-2.3,5.6l-5.8,5.8c-3.1,3.1-8.1,3.1-11.2,0
					l-19.8-19.8c-1.5-1.5-2.3-3.5-2.3-5.6v-47.6c0-4.4,3.5-7.9,7.9-7.9c0.3,0,0.6,0,0.9,0l3.4,0.4C53.9,148.4,55.5,149.2,56.8,150.5
					z"/>
				<path fill="none" stroke="#FFFFFF" stroke-width="3" stroke-miterlimit="10" d="M134.6,193.8h8.7c9.1,0,16.5,7.4,16.5,16.5v1.7
					c0,1.6,0.6,3.2,1.8,4.3l5.3,5.3c1.1,1.1,1.8,2.7,1.8,4.3v21.4c0,1.6,0.6,3.2,1.8,4.3l7.4,7.4c1.1,1.1,2.7,1.8,4.3,1.8h5
					c1.6,0,3.2-0.6,4.3-1.8l13.7-13.7c1.8-1.8,2.8-4.2,2.8-6.7c0-2.5,1-4.9,2.8-6.7l9.2-9.1c1.1-1.1,1.8-2.7,1.8-4.3v-11.3
					c0-1.6,0.6-3.2,1.8-4.3l12.2-12.2c1.2-1.2,1.8-2.7,1.8-4.3v-1.9c0-3.4-2.7-6.1-6.1-6.1h-1.9c-1.6,0-3.2-0.6-4.3-1.8L195.8,147
					c-1.1-1.1-2.7-1.8-4.3-1.8H180c-1.6,0-3.2,0.6-4.3,1.8c-2.4,2.4-6.3,2.4-8.7,0c0,0,0,0,0,0l-8.3-8.3c-1.2-1.2-2.7-1.8-4.3-1.8
					h-17.3c-1.6,0-3.2,0.6-4.3,1.8l-18,18c-1.1,1.1-1.8,2.7-1.8,4.3v11.1C113,184.1,122.6,193.8,134.6,193.8L134.6,193.8z"/>
				<path fill="none" stroke="#FFFFFF" stroke-width="3" stroke-miterlimit="10" d="M231.3,228.7v4.7c0,0.6-0.2,1.2-0.7,1.6
					l-6.3,6.3c-0.9,0.9-2.3,0.9-3.2,0c-0.4-0.4-0.7-1-0.7-1.6v-4.4c0-0.6,0.2-1.1,0.6-1.6l6.3-6.6c0.9-0.9,2.3-0.9,3.2,0
					C231,227.5,231.2,228.1,231.3,228.7z"/>
			</g>
			
				<use xlink:href="#SVGID_3_"  overflow="visible" opacity="0.3" fill="none" stroke="#FFFFFF" stroke-width="3" stroke-miterlimit="10"/>
		</g>
		<path fill="none" stroke="#FFFFFF" stroke-width="2" stroke-linejoin="round" d="M109.9,48.5c0-43,74.9-53.2,74.9,44.4"/>
		<path fill="none" stroke="#FFFFFF" stroke-width="2" stroke-linejoin="round" d="M287.9,167.1c48.1-57.7-48.8-149.9-103.2-74.3"/>
		<path fill="none" stroke="#FFFFFF" stroke-width="2" stroke-linejoin="round" d="M287.9,167.1c48.1-57.7-69.1-87.8-123.5-12.2"/>
		<path fill="none" stroke="#FFFFFF" stroke-width="2" stroke-linejoin="round" d="M231.5,178.2c8.9-15.5-33.5-68.4-67.1-14.8"/>
		<path fill="none" stroke="#FFFFFF" stroke-width="2" stroke-linejoin="round" d="M97.8,137.9C65,80.9,159.8,38,185.5,92.8"/>
		<path fill="none" stroke="#FFFFFF" stroke-width="2" stroke-linejoin="round" d="M97.8,137.9c-7.3-51.8,56.1-22.3,58.6,18.5"/>
		<path fill="none" stroke="#FFFFFF" stroke-width="2" stroke-linejoin="round" d="M68.2,233.5C1,220.9,25.7,114.4,97.8,137.9"/>
		<path fill="none" stroke="#FFFFFF" stroke-width="2" stroke-linejoin="round" d="M228.9,181.4c14.6,45.4-66.9,110.2-81.6,55.7"/>
		<path fill="none" stroke="#FFFFFF" stroke-width="3" stroke-miterlimit="10" d="M109.9,48.5c0-43,74.9-53.2,74.9,44.4"/>
		<path fill="none" stroke="#FFFFFF" stroke-width="3" stroke-miterlimit="10" d="M287.9,167.1c48.1-57.7-48.8-149.9-103.2-74.3"/>
		<path fill="none" stroke="#FFFFFF" stroke-width="3" stroke-miterlimit="10" d="M287.9,167.1c48.1-57.7-69.1-87.8-123.5-12.2"/>
		<path fill="none" stroke="#FFFFFF" stroke-width="3" stroke-miterlimit="10" d="M231.5,178.2c8.9-15.5-33.5-68.4-67.1-14.8"/>
		<path fill="none" stroke="#FFFFFF" stroke-width="3" stroke-miterlimit="10" d="M97.8,137.9C65,80.9,159.8,38,185.5,92.8"/>
		<path fill="none" stroke="#FFFFFF" stroke-width="3" stroke-miterlimit="10" d="M97.8,137.9c-7.3-51.8,56.1-22.3,58.6,18.5"/>
		<path fill="none" stroke="#FFFFFF" stroke-width="3" stroke-miterlimit="10" d="M68.2,233.5C1,220.9,25.7,114.4,97.8,137.9"/>
		<path fill="none" stroke="#FFFFFF" stroke-width="3" stroke-miterlimit="10" d="M68.2,233.5c-8,47.7,79.1,44.8,79.1,3.6"/>
		<path fill="none" stroke="#FFFFFF" stroke-width="3" stroke-miterlimit="10" d="M228.9,181.4c14.6,45.4-66.9,110.2-81.6,55.7"/>
		<path fill="#41B8E5" d="M220.2,169.6l1-3.8c0.3-1.1,1-2.3,2.3-2.3h11.2c1.3,0,1.8,1,2.3,2.3l1.8,6.7h-22.1c-1.3,0-2.3,1-2.3,2.3
			v6.7c0,1.3,1,2.3,2.3,2.3h2.4c-0.1,0.4-0.2,0.7-0.2,1.1c0,1.9,1.5,3.4,3.4,3.4c1.9,0,3.4-1.5,3.4-3.4c0-0.4-0.1-0.8-0.2-1.1h7
			c-0.1,0.4-0.2,0.7-0.2,1.1c0,1.9,1.5,3.4,3.4,3.4c1.9,0,3.4-1.5,3.4-3.4c0-0.4-0.1-0.8-0.2-1.1h2.4c1.3,0,2.3-1,2.3-2.3v-6.7
			c0-1.3-1-2.3-2.3-2.3"/>
		<path fill="none" stroke="#FFFFFF" stroke-width="3" stroke-miterlimit="10" d="M220.2,169.6l1-3.8c0.3-1.1,1-2.3,2.3-2.3h11.2
			c1.3,0,1.8,1,2.3,2.3l1.8,6.7h-22.1c-1.3,0-2.3,1-2.3,2.3v6.7c0,1.3,1,2.3,2.3,2.3h2.4c-0.1,0.4-0.2,0.7-0.2,1.1
			c0,1.9,1.5,3.4,3.4,3.4c1.9,0,3.4-1.5,3.4-3.4c0-0.4-0.1-0.8-0.2-1.1h7c-0.1,0.4-0.2,0.7-0.2,1.1c0,1.9,1.5,3.4,3.4,3.4
			c1.9,0,3.4-1.5,3.4-3.4c0-0.4-0.1-0.8-0.2-1.1h2.4c1.3,0,2.3-1,2.3-2.3v-6.7c0-1.3-1-2.3-2.3-2.3"/>
		<polyline fill="#41B8E5" points="104.5,145.8 104.5,137.9 97.8,137.9 97.8,149.2 111.2,149.2 111.2,132.3 114.6,132.3 
			114.6,131.2 110.1,127.5 110.1,121.1 105.6,121.1 105.6,123.4 101.2,120 87.7,131.2 87.7,132.3 91.1,132.3 91.1,149.2 94.4,149.2 
					"/>
		<polyline fill="none" stroke="#FFFFFF" stroke-width="3" stroke-miterlimit="10" points="104.5,145.8 104.5,137.9 97.8,137.9 
			97.8,149.2 111.2,149.2 111.2,132.3 114.6,132.3 114.6,131.2 110.1,127.5 110.1,121.1 105.6,121.1 105.6,123.4 101.2,120 
			87.7,131.2 87.7,132.3 91.1,132.3 91.1,149.2 94.4,149.2 		"/>
		<path fill="#41B8E5" d="M135.2,226.9V214h23.4v16.3h-23.4l-3.4,7.6c-0.3,0.6,0,1.3,0.5,1.6c0.2,0.1,0.3,0.1,0.5,0.1h28
			c0.6,0,1.2-0.5,1.2-1.2c0-0.2,0-0.4-0.1-0.5l-1.8-4.5"/>
		<path fill="none" stroke="#FFFFFF" stroke-width="3" stroke-linejoin="round" d="M135.2,226.9V214h23.4v16.3h-23.4l-3.4,7.6
			c-0.3,0.6,0,1.3,0.5,1.6c0.2,0.1,0.3,0.1,0.5,0.1h28c0.6,0,1.2-0.5,1.2-1.2c0-0.2,0-0.4-0.1-0.5l-1.8-4.5"/>
		<circle fill="#41B8E5" cx="107.4" cy="50" r="19.4"/>
		<path fill="none" stroke="#FFFFFF" stroke-width="3" stroke-linejoin="round" d="M100.1,67.1c9.5,4.3,20.8,0.1,25.1-9.4
			c4.3-9.5,0.1-20.8-9.4-25.1S95,32.5,90.7,42c-3.2,7-1.8,15.2,3.4,20.8c0.7,0.8,1.9,0.8,2.7,0.1c0.3-0.3,0.5-0.8,0.6-1.2l0,0v-2.2
			c0-5.3,3.2-9.8,7.8-10.9c-1.4-1.2-2.2-3-2.1-4.8c0-3.1,2-5.6,4.5-5.6s4.5,2.5,4.5,5.6c0.1,1.8-0.7,3.6-2.1,4.8
			c3.8,1,7.8,5.2,7.8,8.7v1.3"/>
		<circle fill="#41B8E5" cx="68.2" cy="233.5" r="19.4"/>
		<path fill="none" stroke="#FFFFFF" stroke-width="3" stroke-linejoin="round" d="M60.9,250.6c9.5,4.3,20.8,0.1,25.1-9.4
			s0.1-20.8-9.4-25.1c-9.5-4.3-20.8-0.1-25.1,9.4c-3.2,7-1.8,15.2,3.4,20.8c0.7,0.8,1.9,0.8,2.7,0.1c0.3-0.3,0.5-0.8,0.6-1.2l0,0
			v-2.2c0-5.3,3.2-9.8,7.8-10.9c-1.4-1.2-2.2-3-2.1-4.8c0-3.1,2-5.6,4.5-5.6s4.5,2.5,4.5,5.6c0.1,1.8-0.7,3.6-2.1,4.8
			c3.8,1,7.8,5.2,7.8,8.7v1.3"/>
		<circle fill="#41B8E5" cx="162" cy="156.5" r="19.4"/>
		<path fill="none" stroke="#FFFFFF" stroke-width="3" stroke-miterlimit="10" d="M154.6,173.5c9.5,4.3,20.8,0.1,25.1-9.4
			c4.3-9.5,0.1-20.8-9.4-25.1c-9.5-4.3-20.8-0.1-25.1,9.4c-3.2,7-1.8,15.2,3.4,20.8c0.7,0.8,1.9,0.8,2.7,0.1
			c0.3-0.3,0.5-0.8,0.6-1.2l0,0v-2.2c0-5.3,3.2-9.8,7.8-10.9c-1.4-1.2-2.2-3-2.1-4.8c0-3.1,2-5.6,4.5-5.6c2.5,0,4.5,2.5,4.5,5.6
			c0.1,1.8-0.7,3.6-2.1,4.8c3.8,1,7.8,5.2,7.8,8.7v1.3"/>
		<circle fill="#41B8E5" cx="285.5" cy="168.6" r="19.4"/>
		<path fill="none" stroke="#FFFFFF" stroke-width="3" stroke-linejoin="round" d="M278.1,185.7c9.5,4.3,20.8,0.1,25.1-9.4
			c4.3-9.5,0.1-20.8-9.4-25.1c-9.5-4.3-20.8-0.1-25.1,9.4c-3.2,7-1.8,15.2,3.4,20.8c0.7,0.8,1.9,0.8,2.7,0.1
			c0.3-0.3,0.5-0.8,0.6-1.2l0,0V178c0-5.3,3.2-9.8,7.8-10.9c-1.4-1.2-2.2-3-2.1-4.8c0-3.1,2-5.6,4.5-5.6s4.5,2.5,4.5,5.6
			c0.1,1.8-0.7,3.6-2.1,4.8c3.8,1,7.8,5.2,7.8,8.7v1.3"/>
		<path fill="#41B8E5" d="M194.1,75.7h-19.3c-0.7,0-1.2,0.5-1.2,1.2c0,0,0,0,0,0v29.5c0,0.7,0.5,1.2,1.2,1.2c0,0,0,0,0,0h19.3
			c0.7,0,1.2-0.5,1.2-1.2c0,0,0,0,0,0V76.9C195.3,76.2,194.8,75.7,194.1,75.7z"/>
		<path fill="none" stroke="#FFFFFF" stroke-width="3" stroke-miterlimit="10" d="M194.1,75.7h-19.3c-0.7,0-1.2,0.5-1.2,1.2
			c0,0,0,0,0,0v29.5c0,0.7,0.5,1.2,1.2,1.2c0,0,0,0,0,0h19.3c0.7,0,1.2-0.5,1.2-1.2c0,0,0,0,0,0V76.9
			C195.3,76.2,194.8,75.7,194.1,75.7z"/>
		<path fill="#FFFFFF" d="M195.6,85c-1.1,0-2.1,0.9-2.1,2.1l0,0v0.7c0,0.3-0.2,0.5-0.4,0.5c0,0,0,0,0,0H193c-0.3,0-0.5-0.2-0.5-0.4
			l0,0v-2c0-1.2-0.9-2.1-2.1-2.1c-1.1,0-2.1,0.9-2.1,2.1v4.9c0,0.3-0.2,0.5-0.4,0.5h-0.1c-0.3,0-0.5-0.2-0.5-0.4l0,0v-7.5
			c0-1.2-0.9-2.1-2.1-2.1c-1.2,0-2.1,0.9-2.1,2.1l0,0v3.6c0,0.3-0.2,0.5-0.5,0.5c-0.3,0-0.5-0.2-0.5-0.5l0,0v-0.7
			c0-1.1-0.9-2.1-2.1-2.1H180c-1.1,0-2.1,0.9-2.1,2.1l0,0v5c0,0.3-0.2,0.5-0.4,0.5c0,0,0,0,0,0h-0.1c-0.3,0-0.5-0.2-0.5-0.4l0,0
			v-9.8c0-1.1-0.9-2.1-2.1-2.1c0,0,0,0,0,0l0,0c-0.4,0-0.7,0.1-1,0.3v7.1c0.3-0.4,0.5-0.9,0.5-1.4v-3.9c0-0.3,0.2-0.5,0.4-0.5
			c0,0,0,0,0,0h0c0.3,0,0.5,0.2,0.5,0.4l0,0V91c0,1.2,0.9,2.1,2.1,2.1c1.1,0,2.1-0.9,2.1-2.1v-4.9c0-0.3,0.2-0.5,0.4-0.5h0.1
			c0.3,0,0.5,0.2,0.5,0.4l0,0v0.7c0,1.2,0.9,2.1,2.1,2.1c1.2,0,2.1-0.9,2.1-2.1l0,0v-3.6c0-0.3,0.2-0.5,0.5-0.5
			c0.3,0,0.5,0.2,0.5,0.5v7.5c0,1.1,0.9,2.1,2.1,2.1h0.1c1.1,0,2.1-0.9,2.1-2.1l0,0v-5c0-0.3,0.2-0.5,0.4-0.5c0,0,0,0,0.1,0h0.1
			c0.3,0,0.5,0.2,0.5,0.4l0,0v2c0,1.2,0.9,2.1,2.1,2.1c1.1,0,2.1-0.9,2.1-2.1v-0.7c0-0.3,0.2-0.5,0.4-0.5h0L195.6,85z"/>
		<circle id="smartmeter_point_racetrack" fill="#FFFFFF" cx="180" cy="101.3" r="1.1"/>
		<path fill="none" stroke="#FFFFFF" stroke-width="1.5" stroke-miterlimit="10" d="M179.5,104h4.6c1.5,0,2.7-1.2,2.7-2.7v0l0,0
			c0-1.5-1.2-2.7-2.7-2.7l0,0h-4.6c-1.5,0-2.7,1.2-2.7,2.7v0l0,0C176.8,102.8,178.1,104,179.5,104L179.5,104z"/>
	</g>
</g>
</svg>
