<svg id="bg" xmlns="http://www.w3.org/2000/svg" viewBox="0 0 340 200">
  <title>3-formulaE</title>
  <g>
    <g>
      <g>
        <circle cx="221.96" cy="107.75" r="4.25" style="fill: none;stroke: #fff;stroke-linejoin: round;stroke-width: 3px"/>
        <path d="M218.55,136.65V149.3h6.51V132.82H213.94V122.17a5.82,5.82,0,0,1,5.82-5.82h7.18a7.15,7.15,0,0,0,6.58-4.36l3.17-7.49" style="fill: none;stroke: #fff;stroke-linejoin: round;stroke-width: 3px"/>
      </g>
      <g>
        <circle cx="251.96" cy="115.75" r="4.25" style="fill: none;stroke: #fff;stroke-linejoin: round;stroke-width: 3px"/>
        <path d="M260,140.82V130.17a5.82,5.82,0,0,0-5.82-5.82h-4.4a5.82,5.82,0,0,0-5.82,5.82v10.65h11.12V157.3h-6.51V144.65" style="fill: none;stroke: #fff;stroke-linejoin: round;stroke-width: 3px"/>
      </g>
      <g>
        <circle cx="194.96" cy="119.75" r="4.25" style="fill: none;stroke: #fff;stroke-linejoin: round;stroke-width: 3px"/>
        <path d="M203,144.82V134.17a5.82,5.82,0,0,0-5.82-5.82h-4.4a5.82,5.82,0,0,0-5.82,5.82v10.65h11.12V161.3h-6.51V148.65" style="fill: none;stroke: #fff;stroke-linejoin: round;stroke-width: 3px"/>
      </g>
      <line x1="212.58" y1="116.1" x2="205.8" y2="105.5" style="fill: none;stroke: #fff;stroke-linejoin: round;stroke-width: 3px"/>
      <polyline points="224.45 132.86 227.95 132.86 227.95 120.36" style="fill: none;stroke: #fff;stroke-linejoin: round;stroke-width: 3px"/>
    </g>
    <polyline points="374.55 168.33 263 168.33 263 157.3 236.7 157.3 236.7 149.3 209.38 149.3 209.38 161.28 181.87 161.28 181.87 168.33 127.7 168.33" style="fill: none;stroke: #fff;stroke-linejoin: round;stroke-width: 3px"/>
    <g>
      <polyline points="-31 167.57 56.61 167.57 49.86 147.03 66.08 147.03 72.64 167.57 61.86 167.57" style="fill: none;stroke: #fff;stroke-linejoin: round;stroke-width: 3px"/>
      <polyline points="71.14 167.57 79.77 167.57 73.11 147.03 89.23 147.03 95.8 167.57 85.02 167.57" style="fill: none;stroke: #fff;stroke-linejoin: round;stroke-width: 3px"/>
      <polyline points="94.39 167.57 103.02 167.57 96.27 147.03 112.48 147.03 119.05 167.57 108.27 167.57" style="fill: none;stroke: #fff;stroke-linejoin: round;stroke-width: 3px"/>
    </g>
    <g>
      <line x1="86.72" y1="67.82" x2="86.72" y2="59.46" style="fill: none;stroke: #fff;stroke-linejoin: round;stroke-width: 3px"/>
      <line x1="86.72" y1="16.83" x2="86.72" y2="8.48" style="fill: none;stroke: #fff;stroke-linejoin: round;stroke-width: 3px"/>
      <line x1="57.05" y1="38.15" x2="65.4" y2="38.15" style="fill: none;stroke: #fff;stroke-linejoin: round;stroke-width: 3px"/>
      <line x1="108.04" y1="38.15" x2="116.39" y2="38.15" style="fill: none;stroke: #fff;stroke-linejoin: round;stroke-width: 3px"/>
      <line x1="65.74" y1="59.13" x2="71.65" y2="53.22" style="fill: none;stroke: #fff;stroke-linejoin: round;stroke-width: 3px"/>
      <line x1="101.79" y1="23.07" x2="107.7" y2="17.17" style="fill: none;stroke: #fff;stroke-linejoin: round;stroke-width: 3px"/>
      <line x1="65.74" y1="17.17" x2="71.65" y2="23.07" style="fill: none;stroke: #fff;stroke-linejoin: round;stroke-width: 3px"/>
      <line x1="101.79" y1="53.22" x2="107.7" y2="59.13" style="fill: none;stroke: #fff;stroke-linejoin: round;stroke-width: 3px"/>
    </g>
    <g>
      <line x1="143.12" y1="70.58" x2="143.12" y2="67.54" style="fill: none;stroke: #fff;stroke-linejoin: round;stroke-width: 3px"/>
      <line x1="143.12" y1="52.02" x2="143.12" y2="48.98" style="fill: none;stroke: #fff;stroke-linejoin: round;stroke-width: 3px"/>
      <line x1="132.32" y1="59.78" x2="135.36" y2="59.78" style="fill: none;stroke: #fff;stroke-linejoin: round;stroke-width: 3px"/>
      <line x1="150.88" y1="59.78" x2="153.92" y2="59.78" style="fill: none;stroke: #fff;stroke-linejoin: round;stroke-width: 3px"/>
      <line x1="135.48" y1="67.42" x2="137.63" y2="65.27" style="fill: none;stroke: #fff;stroke-linejoin: round;stroke-width: 3px"/>
      <line x1="148.61" y1="54.3" x2="150.76" y2="52.15" style="fill: none;stroke: #fff;stroke-linejoin: round;stroke-width: 3px"/>
      <line x1="135.48" y1="52.15" x2="137.63" y2="54.3" style="fill: none;stroke: #fff;stroke-linejoin: round;stroke-width: 3px"/>
      <line x1="148.61" y1="65.27" x2="150.76" y2="67.42" style="fill: none;stroke: #fff;stroke-linejoin: round;stroke-width: 3px"/>
    </g>
    <g>
      <line x1="41.84" y1="101.65" x2="41.84" y2="98.61" style="fill: none;stroke: #fff;stroke-linejoin: round;stroke-width: 3px"/>
      <line x1="41.84" y1="83.09" x2="41.84" y2="80.05" style="fill: none;stroke: #fff;stroke-linejoin: round;stroke-width: 3px"/>
      <line x1="31.04" y1="90.85" x2="34.08" y2="90.85" style="fill: none;stroke: #fff;stroke-linejoin: round;stroke-width: 3px"/>
      <line x1="49.6" y1="90.85" x2="52.64" y2="90.85" style="fill: none;stroke: #fff;stroke-linejoin: round;stroke-width: 3px"/>
      <line x1="34.2" y1="98.48" x2="36.35" y2="96.33" style="fill: none;stroke: #fff;stroke-linejoin: round;stroke-width: 3px"/>
      <line x1="47.33" y1="85.36" x2="49.48" y2="83.21" style="fill: none;stroke: #fff;stroke-linejoin: round;stroke-width: 3px"/>
      <line x1="34.2" y1="83.21" x2="36.35" y2="85.36" style="fill: none;stroke: #fff;stroke-linejoin: round;stroke-width: 3px"/>
      <line x1="47.33" y1="96.33" x2="49.48" y2="98.48" style="fill: none;stroke: #fff;stroke-linejoin: round;stroke-width: 3px"/>
    </g>
  </g>
</svg>
