<svg xmlns="http://www.w3.org/2000/svg" xmlns:xlink="http://www.w3.org/1999/xlink" viewBox="0 0 340 338">
  <defs>
    <clipPath id="clip-path">
      <rect x="0.43" width="340" height="337.93" style="fill: none"/>
    </clipPath>
  </defs>
  <title>3-germany</title>
  <g id="bg">
    <g style="clip-path: url(#clip-path)">
      <g>
        <path d="M229.14,130.83V169.7a18.37,18.37,0,0,0,1.75,7.82L237,190.4a12,12,0,0,1-6.69,16.37l-14.64,5.43a20.77,20.77,0,0,0-6.55,35h0a18.38,18.38,0,0,1,2.79,24.4l-2.48,3.49a5.52,5.52,0,0,0-.51,5.51h0a5.52,5.52,0,0,1-6.35,7.67l-2-.49A117.5,117.5,0,0,0,149,286.56l-9.12,1.82a10.69,10.69,0,0,1-12-13.57l3-10.13a10.69,10.69,0,0,0-5.48-12.58l-15.56-7.78a10.74,10.74,0,0,1-5.88-8.46l-4.48-41.71a17,17,0,0,1,9.62-17.21l.28-.13a17.36,17.36,0,0,0,9.9-16.93c-.62-8.68-1.31-19-1.31-19l12.36-4.65a18.72,18.72,0,0,0,11.88-20.57l-1.61-9.77h16.46l12.68,15.37a15.94,15.94,0,0,0,19.1,4.26l10.45-4.94A8.63,8.63,0,0,1,210.5,124l.12.21a15,15,0,0,0,15.86,7.12Z" style="fill: none;stroke: #fff;stroke-linejoin: round;stroke-width: 3px"/>
        <g style="opacity: 0.30000000000000004">
          <path d="M229.14,130.83l31.54-8.11a10,10,0,0,0,2.62-1.09l20.55-12.18a10,10,0,0,1,11.42.83l2.64,2.14a10,10,0,0,0,13.73-1.06l4.17-4.59a10,10,0,0,1,1.74-1.52l11.15-7.67A10,10,0,0,0,333,89.31V67a10,10,0,0,1,.94-4.23l.51-1.1c4.53-9.74,19.13-6.51,19.13,4.23V390.1a10,10,0,0,1-10,10h-45a10,10,0,0,1-4.8-1.22l-34-18.48a10,10,0,0,1-3.16-2.7l-38-49.51a10,10,0,0,0-15.93,0l-5.57,7.31a10,10,0,0,0-1.74,8.58l8.06,31.33a10,10,0,0,0,4.49,6.06h0c8.65,5.28,4.91,18.6-5.23,18.6h-9.61A10,10,0,0,1,185,396l-27.28-37.41A10,10,0,0,0,144,356.23L113.7,376.85a10,10,0,0,1-8.17,1.42l-26.17-6.8A10,10,0,0,0,71,373l-13.83,9.88a10,10,0,0,1-8.62,1.47l-59.08-17.12a10,10,0,0,1-7.24-9.64V246.23a10,10,0,0,1,8.54-9.92L19.18,232A10,10,0,0,0,25.86,228l20.93-29.3A151.12,151.12,0,0,1,90.55,157.8L118,140.88" style="fill: none;stroke: #fff;stroke-linejoin: round;stroke-width: 3px"/>
          <path d="M121.25,333.71h0a14.54,14.54,0,0,0-.31,23.15l10.29,8" style="fill: none;stroke: #fff;stroke-linejoin: round;stroke-width: 3px"/>
          <path d="M157.13,105.9h0a15.84,15.84,0,0,1,.11-16.52l10.69-17.24h0a9.88,9.88,0,0,0,1.13-14.77l-4.57-4.71V35.35a4.51,4.51,0,0,0-8.1-2.72l-16.76,22.1a34.32,34.32,0,0,0-7,20.74h0a60.56,60.56,0,0,0,6.06,26.4l2,4" style="fill: none;stroke: #fff;stroke-linejoin: round;stroke-width: 3px"/>
          <path d="M100.41,202.22,87.3,193.81a31.16,31.16,0,0,0-20-4.77l-14.73,1.5" style="fill: none;stroke: #fff;stroke-linejoin: round;stroke-width: 3px"/>
          <path d="M44.24,202.22,58.72,212.6a19.46,19.46,0,0,1,7.51,11l1.58,6.14a19.46,19.46,0,0,0,18.85,14.62h23.25" style="fill: none;stroke: #fff;stroke-linejoin: round;stroke-width: 3px"/>
          <path d="M128.5,282.29l-25.68,32.26a6.81,6.81,0,0,0,5.32,11h0A6.81,6.81,0,0,1,113.3,328l2.93,3.39a6.81,6.81,0,0,0,8.29,1.6L152,318.67a17,17,0,0,0,1.35-29.34l-4.3-2.77" style="fill: none;stroke: #fff;stroke-linejoin: round;stroke-width: 3px"/>
          <path d="M155.62,316.15l27.93-13.21a18.63,18.63,0,0,1,17.87,2.23h0l40.09,3.69L257.4,304l11.74-21.5a19.42,19.42,0,0,0,1.29-15.72h0a11,11,0,0,0-9.83-7.37L214.82,257" style="fill: none;stroke: #fff;stroke-linejoin: round;stroke-width: 3px"/>
          <polyline points="236.04 202.22 299.76 235.58 267.99 259.79" style="fill: none;stroke: #fff;stroke-linejoin: round;stroke-width: 3px"/>
          <line x1="299.76" y1="235.58" x2="350.43" y2="244.33" style="fill: none;stroke: #fff;stroke-linejoin: round;stroke-width: 3px"/>
          <polyline points="273.29 274.91 308.83 277.94 353.63 257.01" style="fill: none;stroke: #fff;stroke-linejoin: round;stroke-width: 3px"/>
          <line x1="218.89" y1="306.78" x2="215.42" y2="325.52" style="fill: none;stroke: #fff;stroke-linejoin: round;stroke-width: 3px"/>
        </g>
        <path d="M-85.43,188.86l30.5-15.38a6.6,6.6,0,0,1,3.86-.65l56,7.6a6.6,6.6,0,0,0,3.82-.63l8.05-4A6.6,6.6,0,0,0,16.68,164h0a6.6,6.6,0,0,1-3.19-8.62l13.09-29.61a27.54,27.54,0,0,0-6.32-31.2l-22-20.65a6.6,6.6,0,0,1-1.88-3.21L-17.76,13.9" style="fill: none;stroke: #fff;stroke-linejoin: round;stroke-width: 3px;opacity: 0.30000000000000004"/>
      </g>
    </g>
  </g>
  <g id="UI">
    <path d="M173.79,211.54a8.84,8.84,0,1,1,2.34-1.95l5.18,2.94,10.51-1.38-7.7-7.29,7.7-7.29-10.51-1.38,1.94-10.42-9.31,5.06-4.56-9.57-4.56,9.57-9.31-5.06,1.94,10.42-10.51,1.38,7.7,7.29-7.7,7.29,10.51,1.38L155.51,223l9.31-5.06,4.56,9.57,4.56-9.57,9.31,5.06-1.52-6.5" style="fill: none;stroke: #fff;stroke-linejoin: round;stroke-width: 3px"/>
  </g>
</svg>
