<svg xmlns="http://www.w3.org/2000/svg" viewBox="0 0 340 333">
  <title>3-germany</title>
  <g id="bg">
    <g>
      <path d="M237.73,120.91v47.35a22.38,22.38,0,0,0,2.13,9.53l7.39,15.69a14.63,14.63,0,0,1-8.15,19.94l-17.84,6.62a25.31,25.31,0,0,0-8,42.67h0a22.39,22.39,0,0,1,3.4,29.73l-3,4.25a6.73,6.73,0,0,0-.62,6.72h0a6.73,6.73,0,0,1-7.74,9.35l-2.39-.6a143.16,143.16,0,0,0-62.77-1.5L129,312.88a13,13,0,0,1-14.57-16.54L118.08,284a13,13,0,0,0-6.67-15.33l-19-9.48a13.09,13.09,0,0,1-7.16-10.31l-5.46-50.82a20.77,20.77,0,0,1,11.72-21l.34-.16A21.16,21.16,0,0,0,104,156.32c-.76-10.58-1.6-23.16-1.6-23.16l15.06-5.66a22.8,22.8,0,0,0,14.48-25.06l-2-11.9H150l15.45,18.72a19.42,19.42,0,0,0,23.27,5.2l12.73-6A10.52,10.52,0,0,1,215,112.64l.15.25a18.21,18.21,0,0,0,19.33,8.68Z" style="fill: none;stroke: #fff;stroke-linejoin: round;stroke-width: 3px"/>
      <g style="opacity: 0.30000000000000004">
        <path d="M526.38,436.81C389.4,443.56,383.93,449,377.18,449H322.31a12.22,12.22,0,0,1-5.84-1.49L275.1,425a12.22,12.22,0,0,1-3.85-3.29L224.9,361.42a12.22,12.22,0,0,0-19.41,0l-6.78,8.9a12.22,12.22,0,0,0-2.11,10.45L206.41,419a12.22,12.22,0,0,0,5.47,7.39h0c10.54,6.43,6,22.66-6.37,22.66H193.8a12.22,12.22,0,0,1-9.88-5L150.7,398.44a12.22,12.22,0,0,0-16.76-2.9L97.08,420.67a12.22,12.22,0,0,1-10,1.73l-31.89-8.28A12.22,12.22,0,0,0,45.06,416L28.2,428a12.22,12.22,0,0,1-10.51,1.79L-137.9,409a12.22,12.22,0,0,1-8.82-11.74V261.51a12.22,12.22,0,0,1,10.41-12.09l118.23-5.19a12.22,12.22,0,0,0,8.13-5l25.5-35.69a184.12,184.12,0,0,1,53.33-49.79l33.48-20.61" style="fill: none;stroke: #fff;stroke-linejoin: round;stroke-width: 3px"/>
        <path d="M237.73,120.91,276.15,111a12.22,12.22,0,0,0,3.19-1.32l25-14.84a12.22,12.22,0,0,1,13.91,1l3.22,2.6a12.22,12.22,0,0,0,16.73-1.29l5.08-5.59a12.22,12.22,0,0,1,2.12-1.86L359,80.4a12.22,12.22,0,0,0,5.3-10.07V43.11A12.22,12.22,0,0,1,365.47,38l.62-1.34c5.52-11.87,23.31-7.93,160.28,5.15" style="fill: none;stroke: #fff;stroke-linejoin: round;stroke-width: 3px"/>
        <path d="M150,90.54h0a19.3,19.3,0,0,1,.13-20.13l13-21h0a12,12,0,0,0,1.38-18L159,25.68V11.58a5.49,5.49,0,0,0-9.87-3.32L128.67,28.19a41.82,41.82,0,0,0-8.5,25.27h0a73.78,73.78,0,0,0,7.38,32.17l2.38,4.91" style="fill: none;stroke: #fff;stroke-linejoin: round;stroke-width: 3px"/>
        <path d="M80.89,207.89l-16-10.25a38,38,0,0,0-24.35-5.82l-17.95,1.83" style="fill: none;stroke: #fff;stroke-linejoin: round;stroke-width: 3px"/>
        <path d="M12.44,207.89l17.65,12.65a23.71,23.71,0,0,1,9.15,13.37l1.92,7.48a23.71,23.71,0,0,0,23,17.81H92.45" style="fill: none;stroke: #fff;stroke-linejoin: round;stroke-width: 3px"/>
        <path d="M115.11,305.45l-31.29,39.3a8.29,8.29,0,0,0,6.49,13.46h0a8.29,8.29,0,0,1,6.28,2.88l3.57,4.14a8.29,8.29,0,0,0,10.1,1.94l33.47-17.39A20.68,20.68,0,0,0,145.38,314l-5.24-3.37" style="fill: none;stroke: #fff;stroke-linejoin: round;stroke-width: 3px"/>
        <path d="M148.15,346.7l34-16.1A22.69,22.69,0,0,1,204,333.33h0l48.84,4.49,19.35-5.93,14.31-26.19A23.66,23.66,0,0,0,288,286.54h0a13.43,13.43,0,0,0-12-9l-55.78-2.91" style="fill: none;stroke: #fff;stroke-linejoin: round;stroke-width: 3px"/>
        <polyline points="246.14 207.89 323.77 248.54 285.06 278.03" style="fill: none;stroke: #fff;stroke-linejoin: round;stroke-width: 3px"/>
        <line x1="323.77" y1="248.54" x2="385.51" y2="259.2" style="fill: none;stroke: #fff;stroke-linejoin: round;stroke-width: 3px"/>
        <polyline points="291.51 296.46 334.82 300.15 389.4 274.65" style="fill: none;stroke: #fff;stroke-linejoin: round;stroke-width: 3px"/>
      </g>
    </g>
  </g>
  <g id="UI">
    <path d="M170.29,219.25a10.77,10.77,0,1,1,2.86-2.37l6.31,3.58,12.81-1.68-9.38-8.89,9.38-8.89-12.81-1.68,2.36-12.7-11.35,6.17-5.55-11.66-5.55,11.66L148,186.63l2.36,12.7L137.57,201l9.38,8.89-9.38,8.89,12.81,1.68L148,233.16,159.36,227l5.55,11.66L170.47,227l11.35,6.17L180,225.23" style="fill: none;stroke: #fff;stroke-linejoin: round;stroke-width: 3px"/>
  </g>
</svg>
