<svg id="Layer_1" data-name="Layer 1" xmlns="http://www.w3.org/2000/svg" viewBox="0 0 340 225"><title>CardsMOD</title><path d="M340,219.23c-106.27-48.64-233.56-48.28-340,0" fill="none" stroke="#fff" stroke-linejoin="round" stroke-width="3"/><circle cx="179.39" cy="138.64" r="4.19" fill="none" stroke="#fff" stroke-linejoin="round" stroke-width="3"/><path d="M182.44,182.14V164.61h-11V154.13a5.73,5.73,0,0,1,5.73-5.73h7.07a7,7,0,0,0,6.48-4.29l3.12-7.38" fill="none" stroke="#fff" stroke-linejoin="round" stroke-width="3"/><path d="M176,169.67v12.47" fill="none" stroke="#fff" stroke-linejoin="round" stroke-width="3"/><circle cx="208.93" cy="139.43" r="4.19" fill="none" stroke="#fff" stroke-linejoin="round" stroke-width="3"/><path d="M205.59,182.92V170.46" fill="none" stroke="#fff" stroke-linejoin="round" stroke-width="3"/><path d="M216.85,165.41V154.92a5.73,5.73,0,0,0-5.73-5.73h-4.33a5.73,5.73,0,0,0-5.73,5.73h0v10.49h11v18.51" fill="none" stroke="#fff" stroke-linejoin="round" stroke-width="3"/><circle cx="137.04" cy="139.24" r="4.19" fill="none" stroke="#fff" stroke-linejoin="round" stroke-width="3"/><path d="M133.71,183.73V170.27" fill="none" stroke="#fff" stroke-linejoin="round" stroke-width="3"/><path d="M151.85,162.26,145,158.78v-4a5.73,5.73,0,0,0-5.73-5.73H134.9a5.73,5.73,0,0,0-5.73,5.73h0v10.49h11v17.51" fill="none" stroke="#fff" stroke-linejoin="round" stroke-width="3"/><line x1="170.15" y1="144.58" x2="163.47" y2="134.14" fill="none" stroke="#fff" stroke-linejoin="round" stroke-width="3"/><polyline points="182.44 164.62 185.29 164.62 185.29 153.88" fill="none" stroke="#fff" stroke-linejoin="round" stroke-width="3"/><circle cx="104.53" cy="80.74" r="14.98" fill="none" stroke="#fff" stroke-linejoin="round" stroke-width="3"/><line x1="104.53" y1="109.96" x2="104.53" y2="101.74" fill="none" stroke="#fff" stroke-linejoin="round" stroke-width="3"/><line x1="104.53" y1="59.75" x2="104.53" y2="51.53" fill="none" stroke="#fff" stroke-linejoin="round" stroke-width="3"/><line x1="75.32" y1="80.74" x2="83.54" y2="80.74" fill="none" stroke="#fff" stroke-linejoin="round" stroke-width="3"/><line x1="125.52" y1="80.74" x2="133.75" y2="80.74" fill="none" stroke="#fff" stroke-linejoin="round" stroke-width="3"/><line x1="83.87" y1="101.4" x2="89.68" y2="95.58" fill="none" stroke="#fff" stroke-linejoin="round" stroke-width="3"/><line x1="119.37" y1="65.9" x2="125.19" y2="60.08" fill="none" stroke="#fff" stroke-linejoin="round" stroke-width="3"/><line x1="83.87" y1="60.08" x2="89.68" y2="65.9" fill="none" stroke="#fff" stroke-linejoin="round" stroke-width="3"/><line x1="119.37" y1="95.58" x2="125.19" y2="101.4" fill="none" stroke="#fff" stroke-linejoin="round" stroke-width="3"/><polyline points="339.75 154.72 314.63 154.72 314.63 209.36" fill="none" stroke="#fff" stroke-linejoin="round" stroke-width="3"/><polyline points="291.99 201.5 291.99 123.21 254.56 123.21 254.56 183.77" fill="none" stroke="#fff" stroke-linejoin="round" stroke-width="3"/><polyline points="327.44 155.22 327.44 104.5 272.29 104.5 272.29 114.84" fill="none" stroke="#fff" stroke-linejoin="round" stroke-width="3"/><polyline points="63.52 195.59 63.52 182.3 22.16 182.3 22.16 209.38" fill="none" stroke="#fff" stroke-linejoin="round" stroke-width="3"/><polyline points="34.96 181.8 34.96 160.63 0 160.63" fill="none" stroke="#fff" stroke-linejoin="round" stroke-width="3"/><polyline points="309.71 104.01 317.59 84.8 299.86 84.8 294.93 97.46" fill="none" stroke="#fff" stroke-linejoin="round" stroke-width="3"/><line x1="314.63" y1="114.84" x2="314.63" y2="118.78" fill="none" stroke="#fff" stroke-linejoin="round" stroke-width="3"/><line x1="314.63" y1="124.69" x2="314.63" y2="128.63" fill="none" stroke="#fff" stroke-linejoin="round" stroke-width="3"/><line x1="314.63" y1="134.53" x2="314.63" y2="138.47" fill="none" stroke="#fff" stroke-linejoin="round" stroke-width="3"/><line x1="8.37" y1="183.77" x2="8.37" y2="187.71" fill="none" stroke="#fff" stroke-linejoin="round" stroke-width="3"/><line x1="8.37" y1="193.62" x2="8.37" y2="197.56" fill="none" stroke="#fff" stroke-linejoin="round" stroke-width="3"/><line x1="279.6" y1="142.18" x2="284.79" y2="136.99" fill="none" stroke="#fff" stroke-linejoin="round" stroke-width="3"/><line x1="291.56" y1="161.75" x2="260.62" y2="192.71" fill="none" stroke="#fff" stroke-linejoin="round" stroke-width="3"/><path d="M92.59,181.91a7.25,7.25,0,0,0,9.62-10.54,7.52,7.52,0,0,0-12.42.44l-.16.27a6.74,6.74,0,0,1-9.24,2.32h0Z" fill="none" stroke="#fff" stroke-linejoin="round" stroke-width="3"/><path d="M107,168.55l-3.6-2.39-.07-1.57a4.16,4.16,0,1,0-5.27,4" fill="none" stroke="#fff" stroke-linejoin="round" stroke-width="3"/><line x1="95.18" y1="183.24" x2="95.18" y2="188.73" fill="none" stroke="#fff" stroke-linejoin="round" stroke-width="3"/><line x1="291.56" y1="141.26" x2="276.59" y2="156.22" fill="none" stroke="#fff" stroke-linejoin="round" stroke-width="3"/></svg>