<svg xmlns="http://www.w3.org/2000/svg" viewBox="0 0 340 280">
  <title>3-howMuchSunMexico</title>
  <g id="UI">
    <path d="M147.27,140.18a8.84,8.84,0,1,1,2.34-1.95l5.18,2.94,10.51-1.38-7.7-7.29,7.7-7.29-10.51-1.38,1.94-10.42-9.31,5.06-4.56-9.57-4.56,9.57L129,113.41l1.94,10.42-10.51,1.38,7.7,7.29-7.7,7.29,10.51,1.38L129,151.59l9.31-5.06,4.56,9.57,4.56-9.57,9.31,5.06-1.52-6.5" style="fill: none;stroke: #fff;stroke-linejoin: round;stroke-width: 3px"/>
    <g>
      <g style="opacity: 0.30000000000000004">
        <path d="M198.13,149.71V124.12A50.53,50.53,0,0,1,248.65,73.6h14.53a73.77,73.77,0,0,0,35.76-9.24L340.8,38.43" style="fill: none;stroke: #fff;stroke-linejoin: round;stroke-width: 3px"/>
        <line x1="12.85" y1="26.86" x2="0.24" y2="7.69" style="fill: none;stroke: #fff;stroke-linejoin: round;stroke-width: 3px"/>
        <path d="M339.76,228.39H301.43a9,9,0,0,1-7.74-13.58l5.21-8.87" style="fill: none;stroke: #fff;stroke-linejoin: round;stroke-width: 3px"/>
        <path d="M250.17,249.81l.93,1a32.45,32.45,0,0,0,23.52,10.09h22.31a32.3,32.3,0,0,1,22.83,9.45l20,20" style="fill: none;stroke: #fff;stroke-linejoin: round;stroke-width: 3px"/>
      </g>
      <path d="M198.38,177.68a25.52,25.52,0,0,0,25.45,25.45h29.06a7,7,0,0,0,6.13-3.57L266.13,187a34.06,34.06,0,0,1,29.63-17.26h10A7,7,0,0,1,312.05,180l-13.15,26a7,7,0,0,1-6.29,3.86h-4a7,7,0,0,0-6,3.31l-22,35.13A7,7,0,0,1,250,249.8l-8.18-7.19a7,7,0,0,0-4.65-1.76h-16a104.57,104.57,0,0,1-48.88-12.13l-42.49-22.47a34.8,34.8,0,0,1-18.53-30.76h0a34.8,34.8,0,0,0-7-20.95L46,77.15a7,7,0,0,1-1.42-4.24V58.57a9,9,0,0,0-9-9h0a9,9,0,0,0-9,9v16.1a7,7,0,0,0,1.23,4L69.06,139a7,7,0,0,1-5.82,11h0A7,7,0,0,1,57.42,147L14.07,83.41a7,7,0,0,1-1.23-4V26.86H30.73A49.43,49.43,0,0,1,64.92,40.58h0a57.58,57.58,0,0,0,39.82,16h0a78.91,78.91,0,0,1,59.69,27.3l24.94,25.8a32.08,32.08,0,0,1,9,22.3Z" style="fill: none;stroke: #fff;stroke-linejoin: round;stroke-width: 3px"/>
    </g>
  </g>
</svg>
