<?xml version="1.0" encoding="utf-8"?>
<!-- Generator: Adobe Illustrator 21.1.0, SVG Export Plug-In . SVG Version: 6.00 Build 0)  -->
<svg version="1.1" id="Layer_1" xmlns="http://www.w3.org/2000/svg" xmlns:xlink="http://www.w3.org/1999/xlink" x="0px" y="0px"
	 viewBox="0 0 340 225" style="enable-background:new 0 0 340 225;" xml:space="preserve">
<style type="text/css">
	.st0{fill:none;stroke:#FFFFFF;stroke-width:3;stroke-linejoin:round;}
</style>
<title>CardsMOD</title>
<path class="st0" d="M340,219.2c-106.3-48.6-233.6-48.3-340,0"/>
<circle class="st0" cx="179.4" cy="138.6" r="4.2"/>
<path class="st0" d="M182.4,182.1v-17.5h-11v-10.5c0-3.2,2.6-5.7,5.7-5.7h7.1c2.8,0,5.4-1.7,6.5-4.3l3.1-7.4"/>
<path class="st0" d="M176,169.7v12.5"/>
<circle class="st0" cx="208.9" cy="139.4" r="4.2"/>
<path class="st0" d="M205.6,182.9v-12.5"/>
<path class="st0" d="M216.9,165.4v-10.5c0-3.2-2.6-5.7-5.7-5.7h-4.3c-3.2,0-5.7,2.6-5.7,5.7l0,0v10.5h11v18.5"/>
<circle class="st0" cx="137" cy="139.2" r="4.2"/>
<path class="st0" d="M133.7,183.7v-13.5"/>
<path class="st0" d="M151.9,162.3l-6.9-3.5v-4c0-3.2-2.6-5.7-5.7-5.7h-4.4c-3.2,0-5.7,2.6-5.7,5.7l0,0v10.5h11v17.5"/>
<line class="st0" x1="170.1" y1="144.6" x2="163.5" y2="134.1"/>
<polyline class="st0" points="182.4,164.6 185.3,164.6 185.3,153.9 "/>
<circle class="st0" cx="224.5" cy="72.5" r="15"/>
<line class="st0" x1="224.5" y1="101.7" x2="224.5" y2="93.5"/>
<line class="st0" x1="224.5" y1="51.5" x2="224.5" y2="43.3"/>
<line class="st0" x1="195.3" y1="72.5" x2="203.5" y2="72.5"/>
<line class="st0" x1="245.5" y1="72.5" x2="253.7" y2="72.5"/>
<line class="st0" x1="203.9" y1="93.2" x2="209.7" y2="87.4"/>
<line class="st0" x1="239.4" y1="57.7" x2="245.2" y2="51.9"/>
<line class="st0" x1="203.9" y1="51.9" x2="209.7" y2="57.7"/>
<line class="st0" x1="239.4" y1="87.4" x2="245.2" y2="93.2"/>
<polyline class="st0" points="339.8,154.7 314.6,154.7 314.6,209.4 "/>
<polyline class="st0" points="292,201.5 292,123.2 254.6,123.2 254.6,183.8 "/>
<polyline class="st0" points="327.4,155.2 327.4,104.5 272.3,104.5 272.3,114.8 "/>
<polyline class="st0" points="63.5,195.6 63.5,182.3 22.2,182.3 22.2,209.4 "/>
<polyline class="st0" points="35,181.8 35,160.6 0,160.6 "/>
<polyline class="st0" points="309.7,104 317.6,84.8 299.9,84.8 294.9,97.5 "/>
<line class="st0" x1="314.6" y1="114.8" x2="314.6" y2="118.8"/>
<line class="st0" x1="314.6" y1="124.7" x2="314.6" y2="128.6"/>
<line class="st0" x1="314.6" y1="134.5" x2="314.6" y2="138.5"/>
<line class="st0" x1="8.4" y1="183.8" x2="8.4" y2="187.7"/>
<line class="st0" x1="8.4" y1="193.6" x2="8.4" y2="197.6"/>
<line class="st0" x1="279.6" y1="142.2" x2="284.8" y2="137"/>
<line class="st0" x1="291.6" y1="161.8" x2="260.6" y2="192.7"/>
<path class="st0" d="M92.6,181.9c3.4,2.1,7.9,1.1,10-2.3c1.6-2.6,1.5-5.9-0.4-8.3c-2.5-3.3-7.2-4.1-10.5-1.6c-0.8,0.6-1.4,1.3-1.9,2
	l-0.2,0.3c-1.9,3.2-6,4.2-9.2,2.3l0,0L92.6,181.9z"/>
<path class="st0" d="M107,168.6l-3.6-2.4l-0.1-1.6c0-2.3-1.9-4.2-4.2-4.2c-2.3,0-4.2,1.9-4.2,4.2c0,1.9,1.2,3.5,3,4"/>
<line class="st0" x1="95.2" y1="183.2" x2="95.2" y2="188.7"/>
<line class="st0" x1="291.6" y1="141.3" x2="276.6" y2="156.2"/>
</svg>
