<?xml version="1.0" encoding="utf-8"?>
<!-- Generator: Adobe Illustrator 18.1.1, SVG Export Plug-In . SVG Version: 6.00 Build 0)  -->
<svg version="1.1" id="Layer_1" xmlns="http://www.w3.org/2000/svg" xmlns:xlink="http://www.w3.org/1999/xlink" x="0px" y="0px"
	 viewBox="0 0 230.5 156.9" enable-background="new 0 0 230.5 156.9" xml:space="preserve">
<g>
	<path fill="none" stroke="#FFFFFF" stroke-width="3" stroke-linejoin="round" stroke-miterlimit="10" d="M30.7,138.1
		c-2,1.1-4.4,1.6-6.8,1.1c-5.2-1.1-8.5-6.2-7.4-11.4c1.1-5.2,6.2-8.5,11.4-7.4c5.2,1.1,8.5,6.2,7.4,11.4c-0.3,1.6-1.1,3.1-2.1,4.2
		l5.6,3.2l11.4-1.5l-8.4-7.9l8.4-7.9l-11.4-1.5l2.1-11.3l-10.1,5.5l-4.9-10.4l-4.9,10.4l-10.1-5.5l2.1,11.3l-11.4,1.5l8.4,7.9
		l-8.4,7.9l11.4,1.5l-2.1,11.3l10.1-5.5l4.9,10.4l4.9-10.4l10.1,5.5l-1.7-7.1"/>
	<path fill="none" stroke="#FFFFFF" stroke-width="3" stroke-linejoin="round" stroke-miterlimit="10" d="M37,37.5
		c1.4,0.6,3,0.4,4.2-0.6c1.8-1.5,2.1-4.1,0.6-5.9c-1.5-1.8-4.1-2.1-5.9-0.6l0,0c0.7-0.9,1.2-2.1,1.2-3.3c0-2.9-2.3-5.2-5.2-5.2
		c-2.9,0-5.2,2.3-5.2,5.2v16.4l12.1,4.3h-30l12-4.2h0.1V8.1l0,0c0-1.8-0.2-3.6,1.1-5c1.9-2,5.1-2.1,7.2-0.2c2,1.9,2.1,5.1,0.2,7.2
		l0,0c1.1-0.8,2.6-1.2,4.1-1.1c3.4,0.3,6,3.3,5.7,6.7c-0.1,1.7-0.9,3.2-2.1,4.2"/>
	<polyline fill="none" stroke="#FFFFFF" stroke-width="3" stroke-linejoin="round" stroke-miterlimit="10" points="171.7,61.9 
		169.9,47.2 181.6,47.2 185.3,76.6 174.2,76.6 176.7,95 156.4,67.4 172.3,67.4 	"/>
	<path fill="none" stroke="#FFFFFF" stroke-width="3" stroke-linejoin="round" stroke-miterlimit="10" d="M173.4,32.8L173.4,32.8
		c-21.2,0-38.3,17.2-38.3,38.3v0c0,21.2,17.2,38.3,38.3,38.3h0c21.2,0,38.3-17.2,38.3-38.3v0C211.7,49.9,194.5,32.8,173.4,32.8z"/>
	
		<path opacity="0.5" fill="none" stroke="#FFFFFF" stroke-width="3" stroke-linecap="round" stroke-linejoin="round" stroke-miterlimit="10" stroke-dasharray="0,9" d="
		M173.4,24.2L173.4,24.2c-25.9,0-46.9,21-46.9,46.9v0c0,25.9,21,46.9,46.9,46.9h0c25.9,0,46.9-21,46.9-46.9v0
		C220.3,45.2,199.3,24.2,173.4,24.2z"/>
	
		<path opacity="0.2" fill="none" stroke="#FFFFFF" stroke-width="3" stroke-linecap="round" stroke-linejoin="round" stroke-miterlimit="10" stroke-dasharray="0,18" d="
		M173.4,15.5L173.4,15.5c-30.7,0-55.6,24.9-55.6,55.6v0c0,30.7,24.9,55.6,55.6,55.6h0c30.7,0,55.6-24.9,55.6-55.6v0
		C229,40.4,204.1,15.5,173.4,15.5z"/>
	
		<path fill="none" stroke="#FFFFFF" stroke-width="3" stroke-linecap="round" stroke-linejoin="round" stroke-miterlimit="10" stroke-dasharray="0,8.3197" d="
		M54.2,45.1c10.3,15.7,28,26.1,48.2,26.1H135"/>
	
		<path fill="none" stroke="#FFFFFF" stroke-width="3" stroke-linecap="round" stroke-linejoin="round" stroke-miterlimit="10" stroke-dasharray="0,8.3197" d="
		M54.2,96.6c10.3-15.7,28-26.1,48.2-26.1"/>
</g>
</svg>
