<svg id="bg" xmlns="http://www.w3.org/2000/svg" viewBox="0 0 340 260">
  <title>3-v2gDenmark</title>
  <g>
    <rect id="_Rectangle_" data-name="&lt;Rectangle&gt;" x="283.42" y="145.53" width="29.12" height="29.55" style="fill: none;stroke: #fff;stroke-miterlimit: 10;stroke-width: 3px"/>
    <path id="_Path_" data-name="&lt;Path&gt;" d="M97.83,95.06V87A17.51,17.51,0,0,0,80.32,69.53h0A17.51,17.51,0,0,0,62.81,87V198.19" style="fill: none;stroke: #fff;stroke-linejoin: round;stroke-width: 3px"/>
    <circle id="_Path_2" data-name="&lt;Path&gt;" cx="97.77" cy="100.14" r="4.25" style="fill: none;stroke: #fff;stroke-linejoin: round;stroke-width: 3px"/>
    <line id="_Path_3" data-name="&lt;Path&gt;" x1="89.6" y1="108.47" x2="84.63" y2="113.44" style="fill: none;stroke: #fff;stroke-linejoin: round;stroke-width: 3px"/>
    <line id="_Path_4" data-name="&lt;Path&gt;" x1="111.03" y1="87.04" x2="106.06" y2="92.01" style="fill: none;stroke: #fff;stroke-linejoin: round;stroke-width: 3px"/>
    <line id="_Path_5" data-name="&lt;Path&gt;" x1="106.06" y1="108.47" x2="111.03" y2="113.44" style="fill: none;stroke: #fff;stroke-linejoin: round;stroke-width: 3px"/>
    <line id="_Path_6" data-name="&lt;Path&gt;" x1="84.63" y1="87.04" x2="89.6" y2="92.01" style="fill: none;stroke: #fff;stroke-linejoin: round;stroke-width: 3px"/>
    <line id="_Path_7" data-name="&lt;Path&gt;" x1="298.02" y1="162.3" x2="304.24" y2="156.08" style="fill: none;stroke: #fff;stroke-linejoin: round;stroke-width: 3px"/>
    <line id="_Path_8" data-name="&lt;Path&gt;" x1="312.38" y1="156.57" x2="294.42" y2="174.53" style="fill: none;stroke: #fff;stroke-linejoin: round;stroke-width: 3px"/>
    <path id="_Path_9" data-name="&lt;Path&gt;" d="M113.9,159.47v-5.59h28.65v16.86H113.9V166.5H111.7a2.68,2.68,0,0,1-2.8-2.71v-4.32a1.26,1.26,0,0,1,1.36-1.36h.58" style="fill: none;stroke: #fff;stroke-linejoin: round;stroke-width: 3px"/>
    <rect id="_Rectangle_2" data-name="&lt;Rectangle&gt;" x="123.94" y="152.54" width="8.07" height="19.27" transform="translate(290.15 34.2) rotate(90)" style="fill: #fff"/>
    <path id="_Path_10" data-name="&lt;Path&gt;" d="M159.72,35.65A15.12,15.12,0,0,1,149,9.82a18.78,18.78,0,0,0-1.94-.1,18.57,18.57,0,1,0,17.36,25.17A15.1,15.1,0,0,1,159.72,35.65Z" style="fill: none;stroke: #fff;stroke-linejoin: round;stroke-width: 3px"/>
    <g id="_Group_" data-name="&lt;Group&gt;">
      <line id="_Path_11" data-name="&lt;Path&gt;" x1="88.67" y1="189.29" x2="89.78" y2="189.29" style="fill: none;stroke: #fff;stroke-linejoin: round;stroke-width: 3px"/>
      <path id="_Path_12" data-name="&lt;Path&gt;" d="M136.82,178.51a10.13,10.13,0,1,0,10.13,10.13l9.47,0V163.86a18.18,18.18,0,0,0-18.18-18.18h-25A15.86,15.86,0,0,0,97.4,161.54h0a9.19,9.19,0,0,1-9.19,9.19H86.74a9,9,0,0,0-9,9v9.51h11" style="fill: none;stroke: #fff;stroke-miterlimit: 10;stroke-width: 3px"/>
      <path id="_Path_13" data-name="&lt;Path&gt;" d="M98.8,178.51a10.13,10.13,0,1,0,10.13,10.13l17.88,0" style="fill: none;stroke: #fff;stroke-miterlimit: 10;stroke-width: 3px"/>
    </g>
    <line id="_Path_14" data-name="&lt;Path&gt;" x1="98.05" y1="198.79" x2="-19.57" y2="198.79" style="fill: none;stroke: #fff;stroke-linecap: square;stroke-miterlimit: 10;stroke-width: 3px"/>
    <line id="_Path_15" data-name="&lt;Path&gt;" x1="260.5" y1="178.02" x2="260.5" y2="198.59" style="fill: none;stroke: #fff;stroke-linecap: square;stroke-miterlimit: 10;stroke-width: 3px"/>
    <path id="_Path_16" data-name="&lt;Path&gt;" d="M437.76,198.77H331.19V156.39a17.14,17.14,0,0,1,17.14-17.14h.7a17.14,17.14,0,0,1,17.14,17.14v33.8h26.07l-.1-72.17L327,78.51l-66.42,40.31,0,59.2" style="fill: none;stroke: #fff;stroke-linecap: square;stroke-miterlimit: 10;stroke-width: 3px"/>
    <polyline id="_Path_17" data-name="&lt;Path&gt;" points="174.32 189.07 164.31 179.06 174.32 169.04" style="fill: none;stroke: #fff;stroke-linejoin: round;stroke-width: 3px"/>
    <path id="_Path_18" data-name="&lt;Path&gt;" d="M260.54,198.62l-17,0v-8.41h0v-30a8.45,8.45,0,0,0-8.45-8.45h-3.34a8.45,8.45,0,0,0-8.45,8.45v38.44H135.69" style="fill: none;stroke: #fff;stroke-miterlimit: 10;stroke-width: 3px"/>
    <line id="_Path_19" data-name="&lt;Path&gt;" x1="164.31" y1="179.06" x2="220.06" y2="179.06" style="fill: none;stroke: #fff;stroke-linecap: round;stroke-linejoin: round;stroke-width: 3px;stroke-dasharray: 0.40001362562179565,8.000272750854492"/>
    <line id="_Path_20" data-name="&lt;Path&gt;" x1="229.79" y1="181.87" x2="236.39" y2="181.87" style="fill: none;stroke: #fff;stroke-miterlimit: 10;stroke-width: 3px"/>
    <line id="_Path_21" data-name="&lt;Path&gt;" x1="229.79" y1="190.03" x2="236.39" y2="190.03" style="fill: none;stroke: #fff;stroke-miterlimit: 10;stroke-width: 3px"/>
  </g>
</svg>
