<?xml version="1.0" encoding="utf-8"?>
<!-- Generator: Adobe Illustrator 19.0.0, SVG Export Plug-In . SVG Version: 6.00 Build 0)  -->
<svg version="1.1" id="Layer_1" xmlns="http://www.w3.org/2000/svg" xmlns:xlink="http://www.w3.org/1999/xlink" x="0px" y="0px"
	 viewBox="-404 501 381.4 189.5" enable-background="new -404 501 381.4 189.5" xml:space="preserve">
<g>
	<g>
		<g>
			
				<circle fill="none" stroke="#FFFFFF" stroke-width="3" stroke-linejoin="round" stroke-miterlimit="10" cx="-336.1" cy="532.7" r="15.2"/>
			
				<line fill="none" stroke="#FFFFFF" stroke-width="3" stroke-linejoin="round" stroke-miterlimit="10" x1="-336.1" y1="562.3" x2="-336.1" y2="554"/>
			
				<line fill="none" stroke="#FFFFFF" stroke-width="3" stroke-linejoin="round" stroke-miterlimit="10" x1="-336.1" y1="511.3" x2="-336.1" y2="503"/>
			
				<line fill="none" stroke="#FFFFFF" stroke-width="3" stroke-linejoin="round" stroke-miterlimit="10" x1="-365.8" y1="532.7" x2="-357.5" y2="532.7"/>
			
				<line fill="none" stroke="#FFFFFF" stroke-width="3" stroke-linejoin="round" stroke-miterlimit="10" x1="-314.8" y1="532.7" x2="-306.5" y2="532.7"/>
			
				<line fill="none" stroke="#FFFFFF" stroke-width="3" stroke-linejoin="round" stroke-miterlimit="10" x1="-357.1" y1="553.6" x2="-351.2" y2="547.7"/>
			
				<line fill="none" stroke="#FFFFFF" stroke-width="3" stroke-linejoin="round" stroke-miterlimit="10" x1="-321.1" y1="517.6" x2="-315.2" y2="511.7"/>
			
				<line fill="none" stroke="#FFFFFF" stroke-width="3" stroke-linejoin="round" stroke-miterlimit="10" x1="-357.1" y1="511.7" x2="-351.2" y2="517.6"/>
			
				<line fill="none" stroke="#FFFFFF" stroke-width="3" stroke-linejoin="round" stroke-miterlimit="10" x1="-321.1" y1="547.7" x2="-315.2" y2="553.6"/>
		</g>
		
			<rect x="-251.8" y="599.7" fill="none" stroke="#FFFFFF" stroke-width="3" stroke-linejoin="round" stroke-miterlimit="10" width="34" height="25"/>
		
			<line fill="none" stroke="#FFFFFF" stroke-width="3" stroke-linejoin="round" stroke-miterlimit="10" x1="-230.1" y1="613.9" x2="-224.9" y2="608.6"/>
		
			<line fill="none" stroke="#FFFFFF" stroke-width="3" stroke-linejoin="round" stroke-miterlimit="10" x1="-218" y1="609" x2="-233.2" y2="624.2"/>
		<path fill="none" stroke="#FFFFFF" stroke-width="3" stroke-linejoin="round" stroke-miterlimit="10" d="M-307,671.8
			c4.7,0,8.6,3.8,8.6,8.6c0,4.7-3.8,8.6-8.6,8.6c-4.7,0-8.6-3.8-8.6-8.6h-8v-21c0-8.5,6.9-15.4,15.4-15.4h21.1
			c7.4,0,13.4,6,13.4,13.4c0,4.3,3.5,7.8,7.8,7.8h1.2c4.2,0,7.7,3.4,7.7,7.7v8.1h-9.3"/>
		<path fill="none" stroke="#FFFFFF" stroke-width="3" stroke-linejoin="round" stroke-miterlimit="10" d="M-274.8,671.8
			c4.7,0,8.6,3.8,8.6,8.6c0,4.7-3.8,8.6-8.6,8.6c-4.7,0-8.6-3.8-8.6-8.6h-15.1"/>
		<g opacity="0.3">
			
				<line fill="none" stroke="#FFFFFF" stroke-width="3" stroke-linejoin="round" stroke-miterlimit="10" x1="-72.8" y1="681" x2="-73.8" y2="681"/>
			<path fill="none" stroke="#FFFFFF" stroke-width="3" stroke-linejoin="round" stroke-miterlimit="10" d="M-113.6,671.8
				c4.7,0,8.6,3.8,8.6,8.6c0,4.7-3.8,8.6-8.6,8.6c-4.8,0-8.6-3.8-8.6-8.6h-8v-21c0-8.5,6.9-15.4,15.4-15.4h21.1
				c7.4,0,13.4,6,13.4,13.4c0,4.3,3.5,7.8,7.8,7.8h1.2c4.2,0,7.7,3.4,7.7,7.7v8.1h-9.3"/>
			<path fill="none" stroke="#FFFFFF" stroke-width="3" stroke-linejoin="round" stroke-miterlimit="10" d="M-81.4,671.8
				c4.7,0,8.6,3.8,8.6,8.6c0,4.7-3.8,8.6-8.6,8.6s-8.6-3.8-8.6-8.6h-15.1"/>
		</g>
		<polyline fill="none" stroke="#FFFFFF" stroke-width="3" stroke-linejoin="round" stroke-miterlimit="10" points="-197,642.1 
			-197,582.2 -251.7,553.1 -307.6,582.8 -307.6,634.5 		"/>
	</g>
	<g>
		<path fill="none" stroke="#FFFFFF" stroke-width="3" stroke-linejoin="round" stroke-miterlimit="10" d="M-215,688.3h9.3l0,0
			v-32.5c0-3.9,3.2-7.2,7.2-7.2h2.8c3.9,0,7.2,3.2,7.2,7.2v25.4v7.1h9.4"/>
		
			<line fill="none" stroke="#FFFFFF" stroke-width="3" stroke-linejoin="round" stroke-miterlimit="10" x1="-200.2" y1="660.4" x2="-194.6" y2="660.4"/>
		
			<line fill="none" stroke="#FFFFFF" stroke-width="3" stroke-linejoin="round" stroke-miterlimit="10" x1="-200.2" y1="667.3" x2="-194.6" y2="667.3"/>
		
			<line fill="none" stroke="#FFFFFF" stroke-width="3" stroke-linejoin="round" stroke-miterlimit="10" x1="-200.2" y1="674.2" x2="-194.6" y2="674.2"/>
		
			<line fill="none" stroke="#FFFFFF" stroke-width="3" stroke-linejoin="round" stroke-miterlimit="10" x1="-200.2" y1="681.1" x2="-194.6" y2="681.1"/>
	</g>
	
		<path opacity="0.3" fill="none" stroke="#FFFFFF" stroke-width="2" stroke-linejoin="round" stroke-miterlimit="10" enable-background="new    " d="
		M-205.7,660.4c-3.8,0-6.9,3.1-6.9,6.9l0,0c0,3.8-3.1,6.9-6.9,6.9H-256"/>
	
		<path opacity="0.3" fill="none" stroke="#FFFFFF" stroke-width="2" stroke-linejoin="round" stroke-miterlimit="10" enable-background="new    " d="
		M-188.3,660.4c3.8,0,6.9,3.1,6.9,6.9l0,0c0,3.8,3.1,6.9,6.9,6.9h42.8"/>
	<g opacity="0.3">
		
			<line fill="none" stroke="#FFFFFF" stroke-width="3" stroke-linejoin="round" stroke-miterlimit="10" x1="-197.2" y1="598.4" x2="-161.2" y2="598.4"/>
		<polyline fill="none" stroke="#FFFFFF" stroke-width="3" stroke-linejoin="round" stroke-miterlimit="10" points="-22.6,601.3 
			-93.9,601.3 -93.9,636.5 		"/>
		<polyline fill="none" stroke="#FFFFFF" stroke-width="3" stroke-linejoin="round" stroke-miterlimit="10" points="-116.9,636.5 
			-116.9,569.3 -160.9,569.3 -160.9,662.8 		"/>
		<polyline fill="none" stroke="#FFFFFF" stroke-width="3" stroke-linejoin="round" stroke-miterlimit="10" points="-70.8,601.8 
			-70.8,550.3 -136.9,550.3 -136.9,560.8 		"/>
		<polyline fill="none" stroke="#FFFFFF" stroke-width="3" stroke-linejoin="round" stroke-miterlimit="10" points="-93.9,549.8 
			-85.9,530.3 -103.9,530.3 -108.9,543.2 		"/>
		
			<line fill="none" stroke="#FFFFFF" stroke-width="3" stroke-linejoin="round" stroke-miterlimit="10" x1="-83.8" y1="560.8" x2="-83.8" y2="564.8"/>
		
			<line fill="none" stroke="#FFFFFF" stroke-width="3" stroke-linejoin="round" stroke-miterlimit="10" x1="-83.8" y1="570.8" x2="-83.8" y2="574.8"/>
		
			<line fill="none" stroke="#FFFFFF" stroke-width="3" stroke-linejoin="round" stroke-miterlimit="10" x1="-83.8" y1="580.8" x2="-83.8" y2="584.8"/>
		
			<line fill="none" stroke="#FFFFFF" stroke-width="3" stroke-linejoin="round" stroke-miterlimit="10" x1="-129.5" y1="588.6" x2="-124.2" y2="583.3"/>
		
			<line fill="none" stroke="#FFFFFF" stroke-width="3" stroke-linejoin="round" stroke-miterlimit="10" x1="-117.3" y1="583.7" x2="-132.5" y2="598.9"/>
	</g>
	<g>
		<g>
			
				<ellipse fill="none" stroke="#FFFFFF" stroke-width="3" stroke-linejoin="round" stroke-miterlimit="10" cx="-356.8" cy="657.6" rx="15.6" ry="15.6"/>
		</g>
		
			<line fill="none" stroke="#FFFFFF" stroke-width="3" stroke-linejoin="round" stroke-miterlimit="10" x1="-356.4" y1="673.9" x2="-356.4" y2="689"/>
	</g>
	
		<path id="XMLID_7_" opacity="0.3" fill="none" stroke="#FFFFFF" stroke-width="3" stroke-linejoin="round" stroke-miterlimit="10" enable-background="new    " d="
		M-30.1,528.4c-8.4,0-15.1-6.8-15.1-15.1c0-4.2,1.7-8,4.4-10.7c-0.6-0.1-1.3-0.1-1.9-0.1c-10.3,0-18.6,8.3-18.6,18.6
		c0,10.3,8.3,18.6,18.6,18.6c7.9,0,14.7-5,17.4-12C-26.9,528.1-28.5,528.4-30.1,528.4z"/>
	<polyline fill="none" stroke="#FFFFFF" stroke-width="3" stroke-linejoin="round" stroke-miterlimit="10" points="-404,575.8 
		-356.8,575.8 -356.8,629.5 	"/>
	<polyline fill="none" stroke="#FFFFFF" stroke-width="3" stroke-linejoin="round" stroke-miterlimit="10" points="-356.8,599.7 
		-323.6,599.7 -323.6,634.5 	"/>
	
		<line fill="none" stroke="#FFFFFF" stroke-width="3" stroke-linejoin="round" stroke-miterlimit="10" x1="-378" y1="598.1" x2="-372.7" y2="592.8"/>
	
		<line fill="none" stroke="#FFFFFF" stroke-width="3" stroke-linejoin="round" stroke-miterlimit="10" x1="-365.8" y1="593.2" x2="-381" y2="608.4"/>
</g>
</svg>
