<?xml version="1.0" encoding="utf-8"?>
<!-- Generator: Adobe Illustrator 18.1.1, SVG Export Plug-In . SVG Version: 6.00 Build 0)  -->
<svg version="1.1" id="Layer_1" xmlns="http://www.w3.org/2000/svg" xmlns:xlink="http://www.w3.org/1999/xlink" x="0px" y="0px"
	 viewBox="0 0 340 260" enable-background="new 0 0 340 260" xml:space="preserve">
<g>
	<g>
		<g>
			
				<circle fill="none" stroke="#FFFFFF" stroke-width="3" stroke-linejoin="round" stroke-miterlimit="10" cx="37.9" cy="67" r="15.2"/>
			
				<line fill="none" stroke="#FFFFFF" stroke-width="3" stroke-linejoin="round" stroke-miterlimit="10" x1="37.9" y1="96.6" x2="37.9" y2="88.3"/>
			
				<line fill="none" stroke="#FFFFFF" stroke-width="3" stroke-linejoin="round" stroke-miterlimit="10" x1="37.9" y1="45.6" x2="37.9" y2="37.3"/>
			
				<line fill="none" stroke="#FFFFFF" stroke-width="3" stroke-linejoin="round" stroke-miterlimit="10" x1="8.2" y1="67" x2="16.5" y2="67"/>
			
				<line fill="none" stroke="#FFFFFF" stroke-width="3" stroke-linejoin="round" stroke-miterlimit="10" x1="59.2" y1="67" x2="67.5" y2="67"/>
			
				<line fill="none" stroke="#FFFFFF" stroke-width="3" stroke-linejoin="round" stroke-miterlimit="10" x1="16.9" y1="87.9" x2="22.8" y2="82"/>
			
				<line fill="none" stroke="#FFFFFF" stroke-width="3" stroke-linejoin="round" stroke-miterlimit="10" x1="52.9" y1="51.9" x2="58.8" y2="46"/>
			
				<line fill="none" stroke="#FFFFFF" stroke-width="3" stroke-linejoin="round" stroke-miterlimit="10" x1="16.9" y1="46" x2="22.8" y2="51.9"/>
			
				<line fill="none" stroke="#FFFFFF" stroke-width="3" stroke-linejoin="round" stroke-miterlimit="10" x1="52.9" y1="82" x2="58.8" y2="87.9"/>
		</g>
		
			<rect x="113.2" y="134" fill="none" stroke="#FFFFFF" stroke-width="3" stroke-linejoin="round" stroke-miterlimit="10" width="34" height="25"/>
		
			<line fill="none" stroke="#FFFFFF" stroke-width="3" stroke-linejoin="round" stroke-miterlimit="10" x1="134.9" y1="148.2" x2="140.1" y2="142.9"/>
		
			<line fill="none" stroke="#FFFFFF" stroke-width="3" stroke-linejoin="round" stroke-miterlimit="10" x1="147" y1="143.3" x2="131.8" y2="158.5"/>
		<path fill="none" stroke="#FFFFFF" stroke-width="3" stroke-linejoin="round" stroke-miterlimit="10" d="M58,206.1
			c4.7,0,8.6,3.8,8.6,8.6c0,4.7-3.8,8.6-8.6,8.6c-4.7,0-8.6-3.8-8.6-8.6l-8,0v-21c0-8.5,6.9-15.4,15.4-15.4h21.1
			c7.4,0,13.4,6,13.4,13.4c0,4.3,3.5,7.8,7.8,7.8h1.2c4.2,0,7.7,3.4,7.7,7.7v8.1h-9.3"/>
		<path fill="none" stroke="#FFFFFF" stroke-width="3" stroke-linejoin="round" stroke-miterlimit="10" d="M90.2,206.1
			c4.7,0,8.6,3.8,8.6,8.6c0,4.7-3.8,8.6-8.6,8.6c-4.7,0-8.6-3.8-8.6-8.6l-15.1,0"/>
		<g opacity="0.3">
			
				<line fill="none" stroke="#FFFFFF" stroke-width="3" stroke-linejoin="round" stroke-miterlimit="10" x1="289.2" y1="215.3" x2="288.2" y2="215.3"/>
			<path fill="none" stroke="#FFFFFF" stroke-width="3" stroke-linejoin="round" stroke-miterlimit="10" d="M248.4,206.1
				c4.7,0,8.6,3.8,8.6,8.6c0,4.7-3.8,8.6-8.6,8.6s-8.6-3.8-8.6-8.6l-8,0v-21c0-8.5,6.9-15.4,15.4-15.4h21.1c7.4,0,13.4,6,13.4,13.4
				c0,4.3,3.5,7.8,7.8,7.8h1.2c4.2,0,7.7,3.4,7.7,7.7v8.1h-9.3"/>
			<path fill="none" stroke="#FFFFFF" stroke-width="3" stroke-linejoin="round" stroke-miterlimit="10" d="M280.6,206.1
				c4.7,0,8.6,3.8,8.6,8.6c0,4.7-3.8,8.6-8.6,8.6s-8.6-3.8-8.6-8.6l-15.1,0"/>
		</g>
		<polyline fill="none" stroke="#FFFFFF" stroke-width="3" stroke-linejoin="round" stroke-miterlimit="10" points="168,176.4 
			168,116.5 113.3,87.4 57.4,117.1 57.4,168.8 		"/>
	</g>
	<g>
		<path fill="none" stroke="#FFFFFF" stroke-width="3" stroke-linejoin="round" stroke-miterlimit="10" d="M150,222.6l9.3,0v0v-32.5
			c0-3.9,3.2-7.2,7.2-7.2h2.8c3.9,0,7.2,3.2,7.2,7.2v25.4v7.1l9.4,0"/>
		
			<line fill="none" stroke="#FFFFFF" stroke-width="3" stroke-linejoin="round" stroke-miterlimit="10" x1="164.8" y1="194.7" x2="170.4" y2="194.7"/>
		
			<line fill="none" stroke="#FFFFFF" stroke-width="3" stroke-linejoin="round" stroke-miterlimit="10" x1="164.8" y1="201.6" x2="170.4" y2="201.6"/>
		
			<line fill="none" stroke="#FFFFFF" stroke-width="3" stroke-linejoin="round" stroke-miterlimit="10" x1="164.8" y1="208.5" x2="170.4" y2="208.5"/>
		
			<line fill="none" stroke="#FFFFFF" stroke-width="3" stroke-linejoin="round" stroke-miterlimit="10" x1="164.8" y1="215.4" x2="170.4" y2="215.4"/>
	</g>
	<path opacity="0.3" fill="none" stroke="#FFFFFF" stroke-width="2" stroke-linejoin="round" stroke-miterlimit="10" d="
		M159.3,194.7c-3.8,0-6.9,3.1-6.9,6.9v0c0,3.8-3.1,6.9-6.9,6.9H109"/>
	<path opacity="0.3" fill="none" stroke="#FFFFFF" stroke-width="2" stroke-linejoin="round" stroke-miterlimit="10" d="
		M176.7,194.7c3.8,0,6.9,3.1,6.9,6.9v0c0,3.8,3.1,6.9,6.9,6.9H227"/>
	<g opacity="0.3">
		
			<line fill="none" stroke="#FFFFFF" stroke-width="3" stroke-linejoin="round" stroke-miterlimit="10" x1="167.8" y1="132.7" x2="203.8" y2="132.7"/>
		<polyline fill="none" stroke="#FFFFFF" stroke-width="3" stroke-linejoin="round" stroke-miterlimit="10" points="337.4,135.6 
			265.1,135.6 265.1,170.8 		"/>
		<polyline fill="none" stroke="#FFFFFF" stroke-width="3" stroke-linejoin="round" stroke-miterlimit="10" points="242.1,173.3 
			242.1,103.6 204.1,103.6 204.1,197.1 		"/>
		<polyline fill="none" stroke="#FFFFFF" stroke-width="3" stroke-linejoin="round" stroke-miterlimit="10" points="278.1,136.1 
			278.1,84.6 222.1,84.6 222.1,95.1 		"/>
		<polyline fill="none" stroke="#FFFFFF" stroke-width="3" stroke-linejoin="round" stroke-miterlimit="10" points="260.1,84.1 
			268.1,64.6 250.1,64.6 245.1,77.5 		"/>
		
			<line fill="none" stroke="#FFFFFF" stroke-width="3" stroke-linejoin="round" stroke-miterlimit="10" x1="265.1" y1="95.1" x2="265.1" y2="99.1"/>
		
			<line fill="none" stroke="#FFFFFF" stroke-width="3" stroke-linejoin="round" stroke-miterlimit="10" x1="265.1" y1="105.1" x2="265.1" y2="109.1"/>
		
			<line fill="none" stroke="#FFFFFF" stroke-width="3" stroke-linejoin="round" stroke-miterlimit="10" x1="265.1" y1="115.1" x2="265.1" y2="119.1"/>
		
			<line fill="none" stroke="#FFFFFF" stroke-width="3" stroke-linejoin="round" stroke-miterlimit="10" x1="229.5" y1="122.9" x2="234.8" y2="117.6"/>
		
			<line fill="none" stroke="#FFFFFF" stroke-width="3" stroke-linejoin="round" stroke-miterlimit="10" x1="241.7" y1="118" x2="226.5" y2="133.2"/>
	</g>
	<g>
		<g>
			
				<ellipse fill="none" stroke="#FFFFFF" stroke-width="3" stroke-linejoin="round" stroke-miterlimit="10" cx="18.2" cy="191.9" rx="15.6" ry="15.6"/>
		</g>
		
			<line fill="none" stroke="#FFFFFF" stroke-width="3" stroke-linejoin="round" stroke-miterlimit="10" x1="18.6" y1="208.2" x2="18.6" y2="223.3"/>
	</g>
	
		<path id="XMLID_7_" opacity="0.3" fill="none" stroke="#FFFFFF" stroke-width="3" stroke-linejoin="round" stroke-miterlimit="10" d="
		M319.9,62.7c-8.4,0-15.1-6.8-15.1-15.1c0-4.2,1.7-8,4.4-10.7c-0.6-0.1-1.3-0.1-1.9-0.1c-10.3,0-18.6,8.3-18.6,18.6
		c0,10.3,8.3,18.6,18.6,18.6c7.9,0,14.7-5,17.4-12C323.1,62.4,321.5,62.7,319.9,62.7z"/>
</g>
</svg>
