<?xml version="1.0" encoding="utf-8"?>
<!-- Generator: Adobe Illustrator 18.1.1, SVG Export Plug-In . SVG Version: 6.00 Build 0)  -->
<svg version="1.1" xmlns="http://www.w3.org/2000/svg" xmlns:xlink="http://www.w3.org/1999/xlink" x="0px" y="0px"
	 viewBox="0 0 340 260" style="enable-background:new 0 0 340 260;" xml:space="preserve">
<style type="text/css">
	.st0{fill:none;stroke:#FFFFFF;stroke-width:3;stroke-linejoin:round;stroke-miterlimit:10;}
	.st1{opacity:0.3;}
	.st2{fill:#FFFFFF;}
	.st3{opacity:0.3;fill:none;stroke:#FFFFFF;stroke-width:3;stroke-linejoin:round;enable-background:new    ;}
	.st4{fill:none;stroke:#FFFFFF;stroke-width:3;stroke-linecap:round;stroke-linejoin:round;}
	.st5{fill:none;stroke:#FFFFFF;stroke-width:3;stroke-linecap:round;stroke-linejoin:round;stroke-dasharray:2.8105,7.4946;}
	.st6{fill:none;stroke:#FFFFFF;stroke-width:3;stroke-linecap:round;stroke-linejoin:round;stroke-dasharray:3.3475,14.506;}
	.st7{fill:none;stroke:#FFFFFF;stroke-width:3;stroke-linejoin:round;}
	.st8{fill:none;stroke:#0000FF;stroke-width:2;stroke-linejoin:round;stroke-miterlimit:10;}
	.st9{fill:none;stroke:#0000FF;stroke-width:2;stroke-miterlimit:10;}
	
		.st10{fill:none;stroke:#FFFFFF;stroke-width:3;stroke-linecap:round;stroke-linejoin:round;stroke-miterlimit:10;stroke-dasharray:0.4582,9.1524;}
	.st11{fill:none;stroke:#FFFFFF;stroke-width:3;stroke-linecap:round;stroke-linejoin:round;stroke-miterlimit:10;}
	.st12{fill:none;stroke:#FFFFFF;stroke-width:3.4169;stroke-linejoin:round;stroke-miterlimit:10;}
	.st13{fill:none;stroke:#FFFFFF;stroke-width:2;stroke-linejoin:round;stroke-miterlimit:10;}
	.st14{opacity:0.5;}
	.st15{fill:none;stroke:#FFFFFF;stroke-linejoin:round;stroke-miterlimit:10;}
	.st16{fill:none;stroke:#FFFFFF;stroke-width:2.7504;stroke-linejoin:round;stroke-miterlimit:10;}
	.st17{fill:none;stroke:#FFFFFF;stroke-width:3;stroke-miterlimit:10;}
	.st18{fill:none;stroke:#FFFFFF;stroke-width:3;stroke-linecap:square;stroke-miterlimit:10;}
	
		.st19{fill:none;stroke:#FFFFFF;stroke-width:3;stroke-linecap:round;stroke-linejoin:round;stroke-miterlimit:10;stroke-dasharray:0.4,8.0003;}
	.st20{fill:none;stroke:#0000FF;stroke-width:2.0283;stroke-linejoin:round;stroke-miterlimit:10;}
	.st21{fill:#0000FF;}
	.st22{clip-path:url(#SVGID_2_);}
	.st23{opacity:0.3;fill:none;stroke:#FFFFFF;stroke-width:3;stroke-linejoin:round;stroke-miterlimit:10;}
	.st24{fill:none;stroke:#FFFFFF;stroke-width:2.068;stroke-linejoin:round;stroke-miterlimit:10;}
	.st25{clip-path:url(#SVGID_4_);}
	.st26{fill:none;stroke:#FFFFFF;stroke-width:4;stroke-linejoin:round;}
	.st27{clip-path:url(#SVGID_6_);}
	.st28{fill:none;stroke:#FFFFFF;stroke-width:2;stroke-linejoin:round;}
	.st29{fill:#1067F6;}
	.st30{clip-path:url(#SVGID_8_);}
	.st31{clip-path:url(#SVGID_10_);}
	.st32{fill:none;stroke:#FFFFFF;stroke-width:3.3963;stroke-linejoin:round;stroke-miterlimit:10;}
	.st33{fill:none;}
	.st34{fill:none;stroke:#FFFFFF;stroke-width:3.0734;stroke-linejoin:round;stroke-miterlimit:10;}
	
		.st35{opacity:0.3;fill:none;stroke:#FFFFFF;stroke-width:9;stroke-linejoin:round;stroke-miterlimit:10;enable-background:new    ;}
	
		.st36{opacity:0.5;fill:none;stroke:#FFFFFF;stroke-width:9;stroke-linejoin:round;stroke-miterlimit:10;enable-background:new    ;}
	.st37{opacity:0.3;fill:none;stroke:#FFFFFF;stroke-width:2;stroke-linejoin:round;stroke-miterlimit:10;}
	.st38{clip-path:url(#SVGID_12_);}
	.st39{fill:none;stroke:#FFFFFF;stroke-width:2.0708;stroke-linejoin:round;stroke-miterlimit:10;}
	
		.st40{fill-rule:evenodd;clip-rule:evenodd;fill:none;stroke:#FFFFFF;stroke-width:1.8551;stroke-linecap:round;stroke-linejoin:round;stroke-miterlimit:10;}
	.st41{fill:none;stroke:#FFFFFF;stroke-width:1.8551;stroke-linecap:round;stroke-linejoin:round;stroke-miterlimit:10;}
	.st42{clip-path:url(#SVGID_14_);}
	.st43{fill:none;stroke:#FEFEFE;stroke-width:3;stroke-linecap:square;stroke-miterlimit:10;}
</style>
<g id="bg">
	<g>
		<g>
			<circle class="st0" cx="39.5" cy="58.5" r="15.2"/>
			<line class="st0" x1="39.5" y1="88.1" x2="39.5" y2="79.8"/>
			<line class="st0" x1="39.5" y1="37.1" x2="39.5" y2="28.8"/>
			<line class="st0" x1="9.8" y1="58.5" x2="18.2" y2="58.5"/>
			<line class="st0" x1="60.8" y1="58.5" x2="69.1" y2="58.5"/>
			<line class="st0" x1="18.5" y1="79.4" x2="24.4" y2="73.5"/>
			<line class="st0" x1="54.5" y1="43.4" x2="60.4" y2="37.5"/>
			<line class="st0" x1="18.5" y1="37.5" x2="24.4" y2="43.4"/>
			<line class="st0" x1="54.5" y1="73.5" x2="60.4" y2="79.4"/>
		</g>
		<rect x="114.8" y="125.5" class="st0" width="34" height="25"/>
		<line class="st0" x1="136.5" y1="139.7" x2="141.7" y2="134.4"/>
		<line class="st0" x1="148.6" y1="134.8" x2="133.4" y2="150"/>
		<path class="st0" d="M59.6,197.6c4.7,0,8.6,3.8,8.6,8.6c0,4.7-3.8,8.6-8.6,8.6c-4.7,0-8.6-3.8-8.6-8.6l-8,0v-21
			c0-8.5,6.9-15.4,15.4-15.4h21.1c7.4,0,13.4,6,13.4,13.4c0,4.3,3.5,7.8,7.8,7.8h1.2c4.2,0,7.7,3.4,7.7,7.7v8.1h-9.3"/>
		<path class="st0" d="M91.8,197.6c4.7,0,8.6,3.8,8.6,8.6c0,4.7-3.8,8.6-8.6,8.6c-4.7,0-8.6-3.8-8.6-8.6l-15.1,0"/>
		<g class="st1">
			<line class="st0" x1="290.8" y1="206.8" x2="289.8" y2="206.8"/>
			<path class="st0" d="M250,197.6c4.7,0,8.6,3.8,8.6,8.6c0,4.7-3.8,8.6-8.6,8.6s-8.6-3.8-8.6-8.6l-8,0v-21
				c0-8.5,6.9-15.4,15.4-15.4H270c7.4,0,13.4,6,13.4,13.4c0,4.3,3.5,7.8,7.8,7.8h1.2c4.2,0,7.7,3.4,7.7,7.7v8.1h-9.3"/>
			<path class="st0" d="M282.2,197.6c4.7,0,8.6,3.8,8.6,8.6c0,4.7-3.8,8.6-8.6,8.6s-8.6-3.8-8.6-8.6l-15.1,0"/>
		</g>
		<polyline class="st0" points="169.6,167.9 169.6,108 114.9,78.9 59,108.6 59,160.3 		"/>
	</g>
	<g>
		<path class="st0" d="M151.6,214.1l9.3,0v0v-32.5c0-3.9,3.2-7.2,7.2-7.2h2.8c3.9,0,7.2,3.2,7.2,7.2V207v7.1l9.4,0"/>
		<line class="st0" x1="166.4" y1="186.2" x2="172" y2="186.2"/>
		<line class="st0" x1="166.4" y1="193.1" x2="172" y2="193.1"/>
		<line class="st0" x1="166.4" y1="200" x2="172" y2="200"/>
		<line class="st0" x1="166.4" y1="206.9" x2="172" y2="206.9"/>
	</g>
	<path class="st37" d="M160.9,186.2c-3.8,0-6.9,3.1-6.9,6.9v0c0,3.8-3.1,6.9-6.9,6.9h-36.5"/>
	<path class="st37" d="M178.4,186.2c3.8,0,6.9,3.1,6.9,6.9v0c0,3.8,3.1,6.9,6.9,6.9h36.5"/>
	<g class="st1">
		<line class="st0" x1="169.4" y1="124.2" x2="205.4" y2="124.2"/>
		<polyline class="st0" points="339,127.1 266.7,127.1 266.7,162.3 		"/>
		<polyline class="st0" points="243.7,164.8 243.7,95.1 205.7,95.1 205.7,188.6 		"/>
		<polyline class="st0" points="279.7,127.6 279.7,76.1 223.7,76.1 223.7,86.6 		"/>
		<polyline class="st0" points="261.7,75.6 269.7,56.1 251.7,56.1 246.7,69 		"/>
		<line class="st0" x1="266.7" y1="86.6" x2="266.7" y2="90.6"/>
		<line class="st0" x1="266.7" y1="96.6" x2="266.7" y2="100.6"/>
		<line class="st0" x1="266.7" y1="106.6" x2="266.7" y2="110.6"/>
		<line class="st0" x1="231.1" y1="114.4" x2="236.4" y2="109.1"/>
		<line class="st0" x1="243.3" y1="109.5" x2="228.1" y2="124.7"/>
	</g>
	<g>
		<g>
			<ellipse class="st0" cx="19.8" cy="183.4" rx="15.6" ry="15.6"/>
		</g>
		<line class="st0" x1="20.2" y1="199.7" x2="20.2" y2="214.8"/>
	</g>
	<path id="XMLID_7_" class="st23" d="M321.5,54.2c-8.4,0-15.1-6.8-15.1-15.1c0-4.2,1.7-8,4.4-10.7c-0.6-0.1-1.3-0.1-1.9-0.1
		c-10.3,0-18.6,8.3-18.6,18.6c0,10.3,8.3,18.6,18.6,18.6c7.9,0,14.7-5,17.4-12C324.8,53.9,323.2,54.2,321.5,54.2z"/>
</g>
<g id="UI">
</g>
</svg>
