<?xml version="1.0" encoding="utf-8"?>
<!-- Generator: Adobe Illustrator 19.0.0, SVG Export Plug-In . SVG Version: 6.00 Build 0)  -->
<svg version="1.1" id="Layer_1" xmlns="http://www.w3.org/2000/svg" xmlns:xlink="http://www.w3.org/1999/xlink" x="0px" y="0px"
	 viewBox="-423.9 500.8 336.3 189.5" enable-background="new -423.9 500.8 336.3 189.5" xml:space="preserve">
<g>
	<g>
		<g>
			
				<circle fill="none" stroke="#FFFFFF" stroke-width="3" stroke-linejoin="round" stroke-miterlimit="10" cx="-387.1" cy="532.5" r="15.2"/>
			
				<line fill="none" stroke="#FFFFFF" stroke-width="3" stroke-linejoin="round" stroke-miterlimit="10" x1="-387.1" y1="562.1" x2="-387.1" y2="553.8"/>
			
				<line fill="none" stroke="#FFFFFF" stroke-width="3" stroke-linejoin="round" stroke-miterlimit="10" x1="-387.1" y1="511.1" x2="-387.1" y2="502.8"/>
			
				<line fill="none" stroke="#FFFFFF" stroke-width="3" stroke-linejoin="round" stroke-miterlimit="10" x1="-416.8" y1="532.5" x2="-408.5" y2="532.5"/>
			
				<line fill="none" stroke="#FFFFFF" stroke-width="3" stroke-linejoin="round" stroke-miterlimit="10" x1="-365.8" y1="532.5" x2="-357.5" y2="532.5"/>
			
				<line fill="none" stroke="#FFFFFF" stroke-width="3" stroke-linejoin="round" stroke-miterlimit="10" x1="-408.1" y1="553.4" x2="-402.2" y2="547.5"/>
			
				<line fill="none" stroke="#FFFFFF" stroke-width="3" stroke-linejoin="round" stroke-miterlimit="10" x1="-372.1" y1="517.4" x2="-366.2" y2="511.5"/>
			
				<line fill="none" stroke="#FFFFFF" stroke-width="3" stroke-linejoin="round" stroke-miterlimit="10" x1="-408.1" y1="511.5" x2="-402.2" y2="517.4"/>
			
				<line fill="none" stroke="#FFFFFF" stroke-width="3" stroke-linejoin="round" stroke-miterlimit="10" x1="-372.1" y1="547.5" x2="-366.2" y2="553.4"/>
		</g>
		
			<rect x="-311.8" y="599.5" fill="none" stroke="#FFFFFF" stroke-width="3" stroke-linejoin="round" stroke-miterlimit="10" width="34" height="25"/>
		
			<line fill="none" stroke="#FFFFFF" stroke-width="3" stroke-linejoin="round" stroke-miterlimit="10" x1="-290.1" y1="613.7" x2="-284.9" y2="608.4"/>
		
			<line fill="none" stroke="#FFFFFF" stroke-width="3" stroke-linejoin="round" stroke-miterlimit="10" x1="-278" y1="608.8" x2="-293.2" y2="624"/>
		<path fill="none" stroke="#FFFFFF" stroke-width="3" stroke-linejoin="round" stroke-miterlimit="10" d="M-367,671.6
			c4.7,0,8.6,3.8,8.6,8.6c0,4.7-3.8,8.6-8.6,8.6c-4.7,0-8.6-3.8-8.6-8.6h-8v-21c0-8.5,6.9-15.4,15.4-15.4h21.1
			c7.4,0,13.4,6,13.4,13.4c0,4.3,3.5,7.8,7.8,7.8h1.2c4.2,0,7.7,3.4,7.7,7.7v8.1h-9.3"/>
		<path fill="none" stroke="#FFFFFF" stroke-width="3" stroke-linejoin="round" stroke-miterlimit="10" d="M-334.8,671.6
			c4.7,0,8.6,3.8,8.6,8.6c0,4.7-3.8,8.6-8.6,8.6c-4.7,0-8.6-3.8-8.6-8.6h-15.1"/>
		<g opacity="0.3">
			
				<line fill="none" stroke="#FFFFFF" stroke-width="3" stroke-linejoin="round" stroke-miterlimit="10" x1="-135.8" y1="680.8" x2="-136.8" y2="680.8"/>
			<path fill="none" stroke="#FFFFFF" stroke-width="3" stroke-linejoin="round" stroke-miterlimit="10" d="M-176.6,671.6
				c4.7,0,8.6,3.8,8.6,8.6c0,4.7-3.8,8.6-8.6,8.6s-8.6-3.8-8.6-8.6h-8v-21c0-8.5,6.9-15.4,15.4-15.4h21.1c7.4,0,13.4,6,13.4,13.4
				c0,4.3,3.5,7.8,7.8,7.8h1.2c4.2,0,7.7,3.4,7.7,7.7v8.1h-9.3"/>
			<path fill="none" stroke="#FFFFFF" stroke-width="3" stroke-linejoin="round" stroke-miterlimit="10" d="M-144.4,671.6
				c4.7,0,8.6,3.8,8.6,8.6c0,4.7-3.8,8.6-8.6,8.6s-8.6-3.8-8.6-8.6h-15.1"/>
		</g>
		<polyline fill="none" stroke="#FFFFFF" stroke-width="3" stroke-linejoin="round" stroke-miterlimit="10" points="-257,641.9 
			-257,582 -311.7,552.9 -367.6,582.6 -367.6,634.3 		"/>
	</g>
	<g>
		<path fill="none" stroke="#FFFFFF" stroke-width="3" stroke-linejoin="round" stroke-miterlimit="10" d="M-275,688.1h9.3l0,0
			v-32.5c0-3.9,3.2-7.2,7.2-7.2h2.8c3.9,0,7.2,3.2,7.2,7.2V681v7.1h9.4"/>
		
			<line fill="none" stroke="#FFFFFF" stroke-width="3" stroke-linejoin="round" stroke-miterlimit="10" x1="-260.2" y1="660.2" x2="-254.6" y2="660.2"/>
		
			<line fill="none" stroke="#FFFFFF" stroke-width="3" stroke-linejoin="round" stroke-miterlimit="10" x1="-260.2" y1="667.1" x2="-254.6" y2="667.1"/>
		
			<line fill="none" stroke="#FFFFFF" stroke-width="3" stroke-linejoin="round" stroke-miterlimit="10" x1="-260.2" y1="674" x2="-254.6" y2="674"/>
		
			<line fill="none" stroke="#FFFFFF" stroke-width="3" stroke-linejoin="round" stroke-miterlimit="10" x1="-260.2" y1="680.9" x2="-254.6" y2="680.9"/>
	</g>
	
		<path opacity="0.3" fill="none" stroke="#FFFFFF" stroke-width="2" stroke-linejoin="round" stroke-miterlimit="10" enable-background="new    " d="
		M-265.7,660.2c-3.8,0-6.9,3.1-6.9,6.9l0,0c0,3.8-3.1,6.9-6.9,6.9H-316"/>
	
		<path opacity="0.3" fill="none" stroke="#FFFFFF" stroke-width="2" stroke-linejoin="round" stroke-miterlimit="10" enable-background="new    " d="
		M-248.3,660.2c3.8,0,6.9,3.1,6.9,6.9l0,0c0,3.8,3.1,6.9,6.9,6.9h36.5"/>
	<g opacity="0.3">
		
			<line fill="none" stroke="#FFFFFF" stroke-width="3" stroke-linejoin="round" stroke-miterlimit="10" x1="-257.2" y1="598.2" x2="-221.2" y2="598.2"/>
		<polyline fill="none" stroke="#FFFFFF" stroke-width="3" stroke-linejoin="round" stroke-miterlimit="10" points="-87.6,601.1 
			-159.9,601.1 -159.9,636.3 		"/>
		<polyline fill="none" stroke="#FFFFFF" stroke-width="3" stroke-linejoin="round" stroke-miterlimit="10" points="-182.9,638.8 
			-182.9,569.1 -220.9,569.1 -220.9,662.6 		"/>
		<polyline fill="none" stroke="#FFFFFF" stroke-width="3" stroke-linejoin="round" stroke-miterlimit="10" points="-146.9,601.6 
			-146.9,550.1 -202.9,550.1 -202.9,560.6 		"/>
		<polyline fill="none" stroke="#FFFFFF" stroke-width="3" stroke-linejoin="round" stroke-miterlimit="10" points="-164.9,549.6 
			-156.9,530.1 -174.9,530.1 -179.9,543 		"/>
		
			<line fill="none" stroke="#FFFFFF" stroke-width="3" stroke-linejoin="round" stroke-miterlimit="10" x1="-159.9" y1="560.6" x2="-159.9" y2="564.6"/>
		
			<line fill="none" stroke="#FFFFFF" stroke-width="3" stroke-linejoin="round" stroke-miterlimit="10" x1="-159.9" y1="570.6" x2="-159.9" y2="574.6"/>
		
			<line fill="none" stroke="#FFFFFF" stroke-width="3" stroke-linejoin="round" stroke-miterlimit="10" x1="-159.9" y1="580.6" x2="-159.9" y2="584.6"/>
		
			<line fill="none" stroke="#FFFFFF" stroke-width="3" stroke-linejoin="round" stroke-miterlimit="10" x1="-195.5" y1="588.4" x2="-190.2" y2="583.1"/>
		
			<line fill="none" stroke="#FFFFFF" stroke-width="3" stroke-linejoin="round" stroke-miterlimit="10" x1="-183.3" y1="583.5" x2="-198.5" y2="598.7"/>
	</g>
	<g>
		<g>
			
				<ellipse fill="none" stroke="#FFFFFF" stroke-width="3" stroke-linejoin="round" stroke-miterlimit="10" cx="-406.8" cy="657.4" rx="15.6" ry="15.6"/>
		</g>
		
			<line fill="none" stroke="#FFFFFF" stroke-width="3" stroke-linejoin="round" stroke-miterlimit="10" x1="-406.4" y1="673.7" x2="-406.4" y2="688.8"/>
	</g>
	
		<path id="XMLID_7_" opacity="0.3" fill="none" stroke="#FFFFFF" stroke-width="3" stroke-linejoin="round" stroke-miterlimit="10" enable-background="new    " d="
		M-105.1,528.2c-8.4,0-15.1-6.8-15.1-15.1c0-4.2,1.7-8,4.4-10.7c-0.6-0.1-1.3-0.1-1.9-0.1c-10.3,0-18.6,8.3-18.6,18.6
		c0,10.3,8.3,18.6,18.6,18.6c7.9,0,14.7-5,17.4-12C-101.9,527.9-103.5,528.2-105.1,528.2z"/>
</g>
</svg>
