<svg xmlns="http://www.w3.org/2000/svg" xmlns:xlink="http://www.w3.org/1999/xlink" viewBox="0 0 340.4 301.6"><defs><path id="a" d="M0 0h340.4v301.6H0z"/></defs><clipPath id="b"><use xlink:href="#a" overflow="visible"/></clipPath><g stroke="#FFF" stroke-width="3" stroke-linejoin="round" stroke-miterlimit="10"><path fill="none" d="M194.8 261v26.1h-32.2M184.1 127.8h10.7v93.9M176.8 281V127.8M138.4 264.7v22.4h18V127.8h-18v87.9M188.6 127.4V96.2h-11.8v32.2M144.7 96.2h11.7v31.2h-11.7z"/><path fill="none" d="M182.7 96.3V79.1h-32.1v17.2M182.7 79.1c-5.4 0-9.9-4.4-9.9-9.9V54.8c0-2-.9-3.8-2.4-4.9"/><path fill="none" d="M166.6 24.1v24.5c-3.4 0-6.2 2.8-6.2 6.2v14.4c0 5.4-4.4 9.9-9.9 9.9M185.8 168.3v7M166.6 168.3v7M166.6 95.8v7M166.6 188.2v7M166.6 206.6v7M185.8 144.9v7M147.4 168.3v7"/><g fill="none"><path d="M32.5 180.4c3.4 2.1 7.9.8 9.6-3 1-2.2.6-4.7-.8-6.6-3-4.1-9-3.5-11.3.4l-.2.3c-1.8 2.9-5.5 3.8-8.4 2.1l11.1 6.8z"/><path d="M45.7 168.3l-3.3-2.2-.1-1.4c0-2.1-1.7-3.8-3.8-3.8s-3.8 1.7-3.8 3.8c0 1.7 1.2 3.2 2.8 3.7M34.9 181.7v5"/></g><circle fill="none" cx="75.6" cy="132.8" r="10.4"/><circle fill="none" cx="75.6" cy="162.6" r="19.5"/><path fill="#0555F9" d="M222.5 275.2v11.9"/><g fill="none"><path d="M285.1 171.3v-41.4h-62.7v38.6c10.7 0 19.5 8.7 19.5 19.5 0 10.7-8.7 19.5-19.5 19.5 18.7 0 33.9 15.2 33.9 33.9s-15.2 33.9-33.9 33.9v12.9"/><path d="M285.1 287.1v-22.7c-14.6-8.1-24.5-23.7-24.5-41.6"/><circle cx="222.5" cy="187.9" r="19.5"/><circle cx="222.5" cy="241.3" r="33.9"/><path d="M308.2 175.3c-8.4 0-16.2 2.2-23.1 6-14.6 8.1-24.5 23.7-24.5 41.6s9.9 33.5 24.5 41.6c6.8 3.8 14.7 6 23.1 6 26.3 0 47.6-21.3 47.6-47.6s-21.3-47.6-47.6-47.6z"/></g><path fill="#0555F9" d="M308.2 270.4v16.7M115 274.1v13M74.3 277.9v9.2"/><g fill="none"><path d="M41.8 218.6c-1.9.8-4 1.2-6.2 1.2 2.2 0 4.4.3 6.5.7-.2-.6-.2-1.2-.3-1.9zM108.3 206.9c2.2-.4 4.4-.7 6.7-.7-2.6 0-5.1-.5-7.4-1.4.3.7.5 1.4.7 2.1z"/><path d="M41.8 218.6c.1.7.1 1.3.2 2 7.9 1.8 14.5 6.9 18.4 13.8 3.9-2.8 8.7-4.4 13.9-4.4 2.8 0 5.5.5 7.9 1.4 3.3-12.3 13.4-21.9 26.1-24.4-.2-.7-.4-1.4-.7-2.1-6.6-2.7-11.3-8.8-12-16.2-5.6-4.1-12.5-6.5-20-6.5-10.6 0-20.1 4.9-26.3 12.5 1.7 2.6 2.6 5.6 2.6 8.9 0 6.7-4.2 12.6-10.1 15z"/><path d="M107.6 204.8c2.3.9 4.7 1.4 7.4 1.4 10.7 0 19.5-8.7 19.5-19.5 0-10.7-8.7-19.5-19.5-19.5-10.7 0-19.5 8.7-19.5 19.5 0 .6 0 1.2.1 1.8.7 7.5 5.5 13.6 12 16.3zM115 206.3c-2.3 0-4.5.2-6.7.7-12.6 2.5-22.7 12.1-26.1 24.4 9.3 3.3 16 12.2 16 22.6 0 4.9-1.5 9.4-3.9 13.2 5.7 4.4 12.9 7 20.7 7 18.7 0 33.9-15.2 33.9-33.9 0-18.8-15.2-34-33.9-34z"/><path d="M82.2 231.3c-2.5-.9-5.2-1.4-7.9-1.4-5.2 0-10 1.6-13.9 4.4 2.3 4.1 3.7 8.9 3.7 14 0 8-3.3 15.2-8.6 20.4 4.4 5.5 11.2 9.1 18.8 9.1 8.4 0 15.7-4.3 20-10.8 2.5-3.8 3.9-8.3 3.9-13.2.1-10.3-6.6-19.2-16-22.5zM51.9 203.5c0-3.3-1-6.3-2.6-8.9-2.9-4.5-8-7.5-13.8-7.5-9 0-16.4 7.3-16.4 16.4 0 9 7.3 16.4 16.4 16.4 2.2 0 4.3-.4 6.2-1.2 6-2.5 10.2-8.4 10.2-15.2z"/><path d="M64.1 248.4c0-5.1-1.3-9.9-3.7-14-3.9-6.9-10.5-12-18.4-13.8-2.1-.5-4.2-.7-6.5-.7-15.7 0-28.5 12.7-28.5 28.5S19.8 277 35.6 277c7.8 0 14.8-3.1 20-8.2 5.2-5.2 8.5-12.4 8.5-20.4z"/></g><path fill="#0555F9" d="M35.6 277v10.1"/><path fill="none" d="M241.9 287.1H340"/><path fill="#0555F9" d="M125.3 287.1H.4"/><g fill="none"><path d="M273.8 129.7l8.9-38.6h-14.8l-1.5 5.9H253l-4.4 17.8h13.3l1.5-5.9h10.4M266.4 97l-3 11.9"/></g></g></svg>
