<?xml version="1.0" encoding="utf-8"?>
<!-- Generator: Adobe Illustrator 18.1.1, SVG Export Plug-In . SVG Version: 6.00 Build 0)  -->
<svg version="1.1" id="Layer_1" xmlns="http://www.w3.org/2000/svg" xmlns:xlink="http://www.w3.org/1999/xlink" x="0px" y="0px"
	 viewBox="0 0 340 286" enable-background="new 0 0 340 286" xml:space="preserve">
<g>
	<defs>
		<rect id="SVGID_9_" x="0" y="0" width="340.4" height="287.4"/>
	</defs>
	<clipPath id="SVGID_2_">
		<use xlink:href="#SVGID_9_"  overflow="visible"/>
	</clipPath>
	<g clip-path="url(#SVGID_2_)">
		<polyline fill="none" stroke="#FFFFFF" stroke-width="3" stroke-linejoin="round" stroke-miterlimit="10" points="194.8,254.3 
			194.8,280.4 176.8,280.4 162.6,280.4 		"/>
		<polyline fill="none" stroke="#FFFFFF" stroke-width="3" stroke-linejoin="round" stroke-miterlimit="10" points="184.1,121.1 
			194.8,121.1 194.8,215 		"/>
		
			<line fill="none" stroke="#FFFFFF" stroke-width="3" stroke-linejoin="round" stroke-miterlimit="10" x1="176.8" y1="274.3" x2="176.8" y2="121.1"/>
		<polyline fill="none" stroke="#FFFFFF" stroke-width="3" stroke-linejoin="round" stroke-miterlimit="10" points="138.4,258 
			138.4,280.4 156.4,280.4 156.4,121.1 138.4,121.1 138.4,209 		"/>
		<polyline fill="none" stroke="#FFFFFF" stroke-width="3" stroke-linejoin="round" stroke-miterlimit="10" points="188.6,120.7 
			188.6,89.5 176.8,89.5 176.8,121.7 		"/>
		
			<rect x="144.7" y="89.5" fill="none" stroke="#FFFFFF" stroke-width="3" stroke-linejoin="round" stroke-miterlimit="10" width="11.7" height="31.2"/>
		<polyline fill="none" stroke="#FFFFFF" stroke-width="3" stroke-linejoin="round" stroke-miterlimit="10" points="182.7,89.6 
			182.7,72.4 150.6,72.4 150.6,89.6 		"/>
		<path fill="none" stroke="#FFFFFF" stroke-width="3" stroke-linejoin="round" stroke-miterlimit="10" d="M182.7,72.4L182.7,72.4
			c-5.4,0-9.9-4.4-9.9-9.9v-8.2v-6.2c0-2-0.9-3.8-2.4-4.9"/>
		<path fill="none" stroke="#FFFFFF" stroke-width="3" stroke-linejoin="round" stroke-miterlimit="10" d="M166.6,17.4v24.5l0,0
			c-3.4,0-6.2,2.8-6.2,6.2v14.4c0,5.4-4.4,9.9-9.9,9.9h0"/>
		
			<line fill="none" stroke="#FFFFFF" stroke-width="3" stroke-linejoin="round" stroke-miterlimit="10" x1="185.8" y1="161.6" x2="185.8" y2="168.6"/>
		
			<line fill="none" stroke="#FFFFFF" stroke-width="3" stroke-linejoin="round" stroke-miterlimit="10" x1="166.6" y1="161.6" x2="166.6" y2="168.6"/>
		
			<line fill="none" stroke="#FFFFFF" stroke-width="3" stroke-linejoin="round" stroke-miterlimit="10" x1="166.6" y1="89.1" x2="166.6" y2="96.1"/>
		
			<line fill="none" stroke="#FFFFFF" stroke-width="3" stroke-linejoin="round" stroke-miterlimit="10" x1="166.6" y1="181.5" x2="166.6" y2="188.5"/>
		
			<line fill="none" stroke="#FFFFFF" stroke-width="3" stroke-linejoin="round" stroke-miterlimit="10" x1="166.6" y1="199.9" x2="166.6" y2="206.9"/>
		
			<line fill="none" stroke="#FFFFFF" stroke-width="3" stroke-linejoin="round" stroke-miterlimit="10" x1="185.8" y1="138.2" x2="185.8" y2="145.2"/>
		
			<line fill="none" stroke="#FFFFFF" stroke-width="3" stroke-linejoin="round" stroke-miterlimit="10" x1="147.4" y1="161.6" x2="147.4" y2="168.6"/>
		<g>
			<path fill="none" stroke="#FFFFFF" stroke-width="3" stroke-linejoin="round" stroke-miterlimit="10" d="M32.5,173.7
				c3.4,2.1,7.9,0.8,9.6-3c1-2.2,0.6-4.7-0.8-6.6c-3-4.1-9-3.5-11.3,0.4l-0.2,0.3c-1.8,2.9-5.5,3.8-8.4,2.1h0L32.5,173.7z"/>
			<path fill="none" stroke="#FFFFFF" stroke-width="3" stroke-linejoin="round" stroke-miterlimit="10" d="M45.7,161.5l-3.3-2.2
				l-0.1-1.4c0-2.1-1.7-3.8-3.8-3.8c-2.1,0-3.8,1.7-3.8,3.8c0,1.7,1.2,3.2,2.8,3.7"/>
			
				<line fill="none" stroke="#FFFFFF" stroke-width="3" stroke-linejoin="round" stroke-miterlimit="10" x1="34.9" y1="174.9" x2="34.9" y2="179.9"/>
		</g>
		
			<circle fill="none" stroke="#FFFFFF" stroke-width="3" stroke-linejoin="round" stroke-miterlimit="10" cx="75.6" cy="126" r="10.4"/>
		
			<circle fill="none" stroke="#FFFFFF" stroke-width="3" stroke-linejoin="round" stroke-miterlimit="10" cx="75.6" cy="155.9" r="19.5"/>
		
			<line fill="#0555F9" stroke="#FFFFFF" stroke-width="3" stroke-linejoin="round" stroke-miterlimit="10" x1="222.5" y1="268.5" x2="222.5" y2="280.4"/>
		<g>
			<path fill="none" stroke="#FFFFFF" stroke-width="3" stroke-linejoin="round" stroke-miterlimit="10" d="M285.1,164.6v-41.4
				h-62.7v38.6c10.7,0,19.5,8.7,19.5,19.5c0,10.7-8.7,19.5-19.5,19.5c18.7,0,33.9,15.2,33.9,33.9c0,18.7-15.2,33.9-33.9,33.9v12.9"
				/>
			<path fill="none" stroke="#FFFFFF" stroke-width="3" stroke-linejoin="round" stroke-miterlimit="10" d="M285.1,280.4v-22.7
				c-14.6-8.1-24.5-23.7-24.5-41.6"/>
			
				<circle fill="none" stroke="#FFFFFF" stroke-width="3" stroke-linejoin="round" stroke-miterlimit="10" cx="222.5" cy="181.2" r="19.5"/>
			
				<circle fill="none" stroke="#FFFFFF" stroke-width="3" stroke-linejoin="round" stroke-miterlimit="10" cx="222.5" cy="234.6" r="33.9"/>
			<path fill="none" stroke="#FFFFFF" stroke-width="3" stroke-linejoin="round" stroke-miterlimit="10" d="M308.2,168.6
				c-8.4,0-16.2,2.2-23.1,6c-14.6,8.1-24.5,23.7-24.5,41.6c0,17.9,9.9,33.5,24.5,41.6c6.8,3.8,14.7,6,23.1,6
				c26.3,0,47.6-21.3,47.6-47.6C355.8,189.9,334.5,168.6,308.2,168.6z"/>
		</g>
		
			<line fill="#0555F9" stroke="#FFFFFF" stroke-width="3" stroke-linejoin="round" stroke-miterlimit="10" x1="308.2" y1="263.7" x2="308.2" y2="280.4"/>
		
			<line fill="#0555F9" stroke="#FFFFFF" stroke-width="3" stroke-linejoin="round" stroke-miterlimit="10" x1="115" y1="267.4" x2="115" y2="280.4"/>
		
			<line fill="#0555F9" stroke="#FFFFFF" stroke-width="3" stroke-linejoin="round" stroke-miterlimit="10" x1="74.3" y1="271.2" x2="74.3" y2="280.4"/>
		<g>
			<path fill="none" stroke="#FFFFFF" stroke-width="3" stroke-linejoin="round" stroke-miterlimit="10" d="M41.8,211.9
				c-1.9,0.8-4,1.2-6.2,1.2c2.2,0,4.4,0.3,6.5,0.7C41.9,213.2,41.9,212.6,41.8,211.9z"/>
			<path fill="none" stroke="#FFFFFF" stroke-width="3" stroke-linejoin="round" stroke-miterlimit="10" d="M108.3,200.2
				c2.2-0.4,4.4-0.7,6.7-0.7c-2.6,0-5.1-0.5-7.4-1.4C107.9,198.8,108.1,199.5,108.3,200.2z"/>
			<path fill="none" stroke="#FFFFFF" stroke-width="3" stroke-linejoin="round" stroke-miterlimit="10" d="M41.8,211.9
				c0.1,0.7,0.1,1.3,0.2,2c7.9,1.8,14.5,6.9,18.4,13.8c3.9-2.8,8.7-4.4,13.9-4.4c2.8,0,5.5,0.5,7.9,1.4
				c3.3-12.3,13.4-21.9,26.1-24.4c-0.2-0.7-0.4-1.4-0.7-2.1c-6.6-2.7-11.3-8.8-12-16.2c-5.6-4.1-12.5-6.5-20-6.5
				c-10.6,0-20.1,4.9-26.3,12.5c1.7,2.6,2.6,5.6,2.6,8.9C51.9,203.6,47.7,209.5,41.8,211.9z"/>
			<path fill="none" stroke="#FFFFFF" stroke-width="3" stroke-linejoin="round" stroke-miterlimit="10" d="M107.6,198.1
				c2.3,0.9,4.7,1.4,7.4,1.4c10.7,0,19.5-8.7,19.5-19.5c0-10.7-8.7-19.5-19.5-19.5c-10.7,0-19.5,8.7-19.5,19.5c0,0.6,0,1.2,0.1,1.8
				C96.3,189.3,101.1,195.4,107.6,198.1z"/>
			<path fill="none" stroke="#FFFFFF" stroke-width="3" stroke-linejoin="round" stroke-miterlimit="10" d="M115,199.6
				c-2.3,0-4.5,0.2-6.7,0.7c-12.6,2.5-22.7,12.1-26.1,24.4c9.3,3.3,16,12.2,16,22.6c0,4.9-1.5,9.4-3.9,13.2c5.7,4.4,12.9,7,20.7,7
				c18.7,0,33.9-15.2,33.9-33.9C148.9,214.7,133.7,199.6,115,199.6z"/>
			<path fill="none" stroke="#FFFFFF" stroke-width="3" stroke-linejoin="round" stroke-miterlimit="10" d="M82.2,224.6
				c-2.5-0.9-5.2-1.4-7.9-1.4c-5.2,0-10,1.6-13.9,4.4c2.3,4.1,3.7,8.9,3.7,14c0,8-3.3,15.2-8.6,20.4c4.4,5.5,11.2,9.1,18.8,9.1
				c8.4,0,15.7-4.3,20-10.8c2.5-3.8,3.9-8.3,3.9-13.2C98.3,236.8,91.6,227.9,82.2,224.6z"/>
			<path fill="none" stroke="#FFFFFF" stroke-width="3" stroke-linejoin="round" stroke-miterlimit="10" d="M51.9,196.8
				c0-3.3-1-6.3-2.6-8.9c-2.9-4.5-8-7.5-13.8-7.5c-9,0-16.4,7.3-16.4,16.4c0,9,7.3,16.4,16.4,16.4c2.2,0,4.3-0.4,6.2-1.2
				C47.7,209.5,51.9,203.6,51.9,196.8z"/>
			<path fill="none" stroke="#FFFFFF" stroke-width="3" stroke-linejoin="round" stroke-miterlimit="10" d="M64.1,241.7
				c0-5.1-1.3-9.9-3.7-14c-3.9-6.9-10.5-12-18.4-13.8c-2.1-0.5-4.2-0.7-6.5-0.7C19.8,213.1,7,225.9,7,241.7
				c0,15.8,12.8,28.6,28.6,28.6c7.8,0,14.8-3.1,20-8.2C60.8,256.9,64.1,249.7,64.1,241.7z"/>
		</g>
		
			<line fill="#0555F9" stroke="#FFFFFF" stroke-width="3" stroke-linejoin="round" stroke-miterlimit="10" x1="35.6" y1="270.3" x2="35.6" y2="280.4"/>
		
			<line fill="none" stroke="#FFFFFF" stroke-width="3" stroke-linejoin="round" stroke-miterlimit="10" x1="241.9" y1="280.4" x2="340" y2="280.4"/>
		
			<line fill="#0555F9" stroke="#FFFFFF" stroke-width="3" stroke-linejoin="round" stroke-miterlimit="10" x1="125.3" y1="280.4" x2="0.4" y2="280.4"/>
		<g>
			<polyline fill="none" stroke="#FFFFFF" stroke-width="3" stroke-linejoin="round" stroke-miterlimit="10" points="273.8,122.9 
				282.7,84.4 267.9,84.4 266.4,90.3 253,90.3 248.6,108.1 261.9,108.1 263.4,102.2 273.8,102.2 			"/>
			
				<line fill="none" stroke="#FFFFFF" stroke-width="3" stroke-linejoin="round" stroke-miterlimit="10" x1="266.4" y1="90.3" x2="263.4" y2="102.2"/>
		</g>
	</g>
</g>
</svg>
