<svg id="Layer_1" data-name="Layer 1" xmlns="http://www.w3.org/2000/svg" viewBox="0 0 340 225"><title>CardsRome</title><line x1="165.89" y1="30.88" x2="340" y2="30.88" fill="none" stroke="#fff" stroke-linejoin="round" stroke-width="3" opacity="0.5" style="isolation:isolate"/><line y1="30.88" x2="144.28" y2="30.88" fill="none" stroke="#fff" stroke-linejoin="round" stroke-width="3" opacity="0.5" style="isolation:isolate"/><line x1="143.59" y1="38.48" y2="38.48" fill="none" stroke="#fff" stroke-linejoin="round" stroke-width="3" opacity="0.5" style="isolation:isolate"/><line x1="340" y1="38.48" x2="165.38" y2="38.48" fill="none" stroke="#fff" stroke-linejoin="round" stroke-width="3" opacity="0.5" style="isolation:isolate"/><polyline points="252.04 170.58 232.7 170.58 247.84 124.55 211.48 124.55 196.76 170.58 220.93 170.58" fill="none" stroke="#fff" stroke-linejoin="round" stroke-width="3" opacity="0.5" style="isolation:isolate"/><polyline points="200.13 170.58 180.79 170.58 195.71 124.55 159.56 124.55 144.85 170.58 169.02 170.58" fill="none" stroke="#fff" stroke-linejoin="round" stroke-width="3"/><polyline points="148 170.58 128.67 170.58 143.8 124.55 107.44 124.55 92.73 170.58 116.9 170.58" fill="none" stroke="#fff" stroke-linejoin="round" stroke-width="3" opacity="0.5" style="isolation:isolate"/><path d="M286,178.66H58.74a11.73,11.73,0,0,0,0,23.45H286a11.73,11.73,0,1,0,.68-23.45Z" fill="none" stroke="#fff" stroke-linejoin="round" stroke-width="3"/><line x1="164.52" y1="39.46" x2="179.71" y2="66.67" fill="none" stroke="#fff" stroke-linejoin="round" stroke-width="3"/><line x1="168.37" y1="71.82" x2="153.97" y2="46" fill="none" stroke="#fff" stroke-linejoin="round" stroke-width="3"/><polyline points="169.91 112.45 158.26 92.27 168.01 73.77" fill="none" stroke="#fff" stroke-linejoin="round" stroke-width="3"/><polyline points="188.24 72.48 200.9 92.67 189.25 112.85" fill="none" stroke="#fff" stroke-linejoin="round" stroke-width="3"/><path d="M173.47,67.32a10.88,10.88,0,1,1-6,9.72,10.88,10.88,0,0,1,6-9.72" fill="none" stroke="#fff" stroke-linejoin="round" stroke-width="3"/><circle cx="178.37" cy="77.04" r="3.42" fill="#fff" opacity="0.5" style="isolation:isolate"/><circle cx="154.75" cy="34.68" r="10.88" fill="none" stroke="#fff" stroke-linejoin="round" stroke-width="3"/><circle cx="154.75" cy="34.68" r="3.42" fill="#fff" opacity="0.5" style="isolation:isolate"/><circle cx="60.25" cy="191.39" r="5.18" fill="none" stroke="#fff" stroke-linejoin="round" stroke-width="3" opacity="0.5" style="isolation:isolate"/><circle cx="92.24" cy="191.39" r="5.18" fill="none" stroke="#fff" stroke-linejoin="round" stroke-width="3" opacity="0.5" style="isolation:isolate"/><circle cx="124.22" cy="191.39" r="5.18" fill="none" stroke="#fff" stroke-linejoin="round" stroke-width="3" opacity="0.5" style="isolation:isolate"/><circle cx="156.2" cy="191.39" r="5.18" fill="none" stroke="#fff" stroke-linejoin="round" stroke-width="3" opacity="0.5" style="isolation:isolate"/><circle cx="188.19" cy="191.39" r="5.18" fill="none" stroke="#fff" stroke-linejoin="round" stroke-width="3" opacity="0.5" style="isolation:isolate"/><circle cx="220.17" cy="191.39" r="5.18" fill="none" stroke="#fff" stroke-linejoin="round" stroke-width="3" opacity="0.5" style="isolation:isolate"/><circle cx="252.15" cy="191.39" r="5.18" fill="none" stroke="#fff" stroke-linejoin="round" stroke-width="3" opacity="0.5" style="isolation:isolate"/><circle cx="284.14" cy="191.39" r="5.18" fill="none" stroke="#fff" stroke-linejoin="round" stroke-width="3" opacity="0.5" style="isolation:isolate"/></svg>