<?xml version="1.0" encoding="utf-8"?>
<!-- Generator: Adobe Illustrator 19.0.0, SVG Export Plug-In . SVG Version: 6.00 Build 0)  -->
<svg version="1.1" id="Livello_1" xmlns="http://www.w3.org/2000/svg" xmlns:xlink="http://www.w3.org/1999/xlink" x="0px" y="0px"
	 viewBox="-425 489.8 341 211.7" enable-background="new -425 489.8 341 211.7" xml:space="preserve">
<title>chile-lasilla</title>
<g id="Layer_2">
	<g id="artwork">
		<path fill="none" stroke="#FFFFFF" stroke-width="3" stroke-linejoin="round" d="M-261.8,629.7c-56.2,6.1-111.1,21.2-162.6,44.6"
			/>
		<path id="_Path_" fill="none" stroke="#FFFFFF" stroke-width="3" stroke-linejoin="round" d="M-344.7,517.3
			c-8.4,0-15.1-6.8-15.1-15.1c0-4,1.6-7.8,4.4-10.7c-0.6-0.1-1.3-0.1-1.9-0.1c-10.3,0-18.6,8.3-18.6,18.6c0,10.3,8.3,18.6,18.6,18.6
			c7.7,0,14.6-4.8,17.4-12C-341.4,517-343,517.3-344.7,517.3z"/>
		<path fill="none" stroke="#FFFFFF" stroke-width="3" stroke-miterlimit="10" d="M-261.8,683.3v-42c0-33.9,27.5-61.3,61.3-61.3
			c33.9,0,61.3,27.5,61.3,61.3v60.3"/>
		<line fill="none" stroke="#FFFFFF" stroke-width="3" stroke-miterlimit="10" x1="-261.8" y1="651.3" x2="-140" y2="651.3"/>
		<line fill="none" stroke="#FFFFFF" stroke-width="3" stroke-miterlimit="10" x1="-233.9" y1="568.2" x2="-222.1" y2="583.4"/>
		<line fill="none" stroke="#FFFFFF" stroke-width="3" stroke-miterlimit="10" x1="-247.7" y1="604.5" x2="-260.1" y2="588.4"/>
		
			<rect x="-253.9" y="556.7" transform="matrix(0.6106 0.792 -0.792 0.6106 358.1507 421.578)" fill="none" stroke="#FFFFFF" stroke-width="3" stroke-miterlimit="10" width="8.5" height="36.5"/>
		<rect x="-244.1" y="662.6" fill="none" stroke="#FFFFFF" stroke-width="3" stroke-miterlimit="10" width="10.3" height="23"/>
		<circle fill="#FFFFFF" cx="-255" cy="496.6" r="2"/>
		<circle fill="#FFFFFF" cx="-179.1" cy="539.9" r="2"/>
		<circle fill="#FFFFFF" cx="-123.1" cy="504.8" r="2"/>
		<circle fill="#FFFFFF" cx="-401.5" cy="506.9" r="2"/>
		<circle fill="#FFFFFF" cx="-367.1" cy="554.9" r="2.1"/>
		<circle fill="#FFFFFF" cx="-322.6" cy="575.8" r="2.1"/>
		<circle fill="#FFFFFF" cx="-112" cy="554.9" r="2.1"/>
		<path fill="none" stroke="#FFFFFF" stroke-width="3" stroke-linejoin="round" d="M-84.4,640.6c-18.1-4.3-36.3-7.5-54.8-9.8"/>
		<line fill="none" stroke="#FFFFFF" stroke-width="3" stroke-miterlimit="10" x1="-163.9" y1="662.6" x2="-163.9" y2="685.6"/>
	</g>
</g>
</svg>
