<svg xmlns="http://www.w3.org/2000/svg" viewBox="0 0 284.94 102.46"><defs><style>.cls-1{fill:none;stroke:#fff;stroke-linejoin:round;stroke-width:3px;}.cls-2{opacity:0.3;}</style></defs><title>chile-community</title><g id="Layer_2" data-name="Layer 2"><g id="copy"><line class="cls-1" x1="265.46" y1="100.96" x2="18.57" y2="100.96"/><rect class="cls-1" x="132.68" y="42.42" width="112.64" height="58.54"/><polyline class="cls-1" points="128.72 42.48 189.96 12.48 250.17 42.48"/><line class="cls-1" x1="157.96" y1="42.03" x2="157.96" y2="28.41"/><line class="cls-1" x1="188.96" y1="42.03" x2="157.96" y2="28.41"/><line class="cls-1" x1="189.45" y1="42.03" x2="189.45" y2="12.91"/><line class="cls-1" x1="220.93" y1="42.03" x2="220.93" y2="27.41"/><line class="cls-1" x1="188.96" y1="42.03" x2="220.93" y2="27.41"/><path class="cls-1" d="M220.22,57.55h.54a13.06,13.06,0,0,1,13.06,13.06V101a0,0,0,0,1,0,0H207.16a0,0,0,0,1,0,0V70.61A13.06,13.06,0,0,1,220.22,57.55Z"/><rect class="cls-1" x="157.96" y="60.81" width="30.59" height="22.53"/><rect class="cls-1" x="74.51" y="42.42" width="57.81" height="58.54"/><line class="cls-1" x1="70.56" y1="42.48" x2="132.46" y2="42.48"/><line class="cls-1" x1="90.79" y1="42.03" x2="90.79" y2="48.33"/><line class="cls-1" x1="117.28" y1="42.03" x2="117.28" y2="48.33"/><rect class="cls-1" x="89.79" y="60.81" width="30.59" height="22.53"/><path class="cls-1" d="M47.85,21V14.85A13.35,13.35,0,0,1,61.19,1.5h0A13.35,13.35,0,0,1,74.54,14.85v86.56"/><circle class="cls-1" cx="47.85" cy="24.83" r="3.24"/><g class="cls-2"><line class="cls-1" x1="54.12" y1="31.18" x2="57.91" y2="34.97"/><line class="cls-1" x1="37.78" y1="14.84" x2="41.57" y2="18.64"/><line class="cls-1" x1="41.57" y1="31.18" x2="37.78" y2="34.97"/><line class="cls-1" x1="57.91" y1="14.84" x2="54.12" y2="18.64"/></g><circle class="cls-1" cx="17.42" cy="59.16" r="4.25"/><path class="cls-1" d="M14,88.05v12.66h6.5V84.23H9.4V73.58a5.82,5.82,0,0,1,5.82-5.82H22.4A7.18,7.18,0,0,0,29,63.4l3.17-7.49"/><circle class="cls-1" cx="49.42" cy="59.16" r="4.25"/><path class="cls-1" d="M57.44,84.23V73.58a5.81,5.81,0,0,0-5.82-5.82h-4.4a5.82,5.82,0,0,0-5.82,5.82V84.23H52.52v16.48H46V88.05"/><line class="cls-1" x1="8.05" y1="67.51" x2="1.26" y2="56.91"/><polyline class="cls-1" points="19.92 84.27 23.42 84.27 23.42 71.77"/><circle class="cls-1" cx="275.42" cy="59.16" r="4.25"/><path class="cls-1" d="M283.44,84.23V73.58a5.81,5.81,0,0,0-5.82-5.82h-4.4a5.82,5.82,0,0,0-5.82,5.82V84.23h11.12v16.48H272V88.05"/></g></g></svg>