<svg id="Layer_1" data-name="Layer 1" xmlns="http://www.w3.org/2000/svg" viewBox="0 0 324.12 148.85"><title>UnstoppableProgress_2</title><circle cx="64.83" cy="86.23" r="1.61" transform="translate(-38.98 115.6) rotate(-68.86)" fill="#fff" stroke="#fff" stroke-miterlimit="10" stroke-width="3"/><path d="M88.1,108.93l-2.5,0a3.26,3.26,0,0,1-3.28-3.24l0-3.19a3.26,3.26,0,0,1,3.24-3.28l2.5,0" fill="none" stroke="#fff" stroke-miterlimit="10" stroke-width="3"/><path d="M75.53,1.56h24.91a10.75,10.75,0,0,1,10.75,10.75V23.76a10.45,10.45,0,0,1-10.45,10.45H75.53A10.45,10.45,0,0,1,65.08,23.76V12A10.45,10.45,0,0,1,75.53,1.56Z" transform="translate(176.18 36.18) rotate(-179.73)" fill="none" stroke="#fff" stroke-linejoin="round" stroke-width="3"/><polyline points="86.99 16.19 79.98 16.19 89.16 28.59 87.82 19.86 92.66 19.86 91.5 7.18 86.32 7.18 86.32 12.86" fill="none" stroke="#fff" stroke-linejoin="round" stroke-width="2"/><path d="M271.21,90.29v23.54a25.78,25.78,0,0,1-25.77,25.78l-124.3,0a32.27,32.27,0,0,1-32.28-32.26V96.82a32.27,32.27,0,0,1,32.26-32.28l124.3,0A25.78,25.78,0,0,1,271.21,90.29Z" fill="none" stroke="#fff" stroke-linejoin="round" stroke-width="3"/><path d="M154.34,64.53a41.85,41.85,0,0,0,0,75.1" fill="none" stroke="#fff" stroke-linejoin="round" stroke-width="3"/><rect x="187.7" y="63.73" width="48.45" height="77.71" rx="12.9" ry="12.9" transform="translate(109.39 314.54) rotate(-90.01)" fill="none" stroke="#fff" stroke-linejoin="round" stroke-width="3"/><line x1="244.35" y1="80.05" x2="256.89" y2="67.51" fill="none" stroke="#fff" stroke-linejoin="round" stroke-width="3"/><line x1="245.44" y1="124.7" x2="256.91" y2="136.16" fill="none" stroke="#fff" stroke-linejoin="round" stroke-width="3"/><line x1="231.46" y1="126.81" x2="231.45" y2="78.36" fill="none" stroke="#fff" stroke-linejoin="round" stroke-width="3"/><line x1="209.92" y1="77.82" x2="209.92" y2="64.53" fill="none" stroke="#fff" stroke-linejoin="round" stroke-width="3"/><line x1="209.94" y1="139.62" x2="209.93" y2="126.32" fill="none" stroke="#fff" stroke-linejoin="round" stroke-width="3"/><polyline points="182.01 78.99 154.34 64.54 154.34 54.49" fill="none" stroke="#fff" stroke-linejoin="round" stroke-width="3"/><polyline points="182.02 126.2 154.36 139.63 154.36 148.85" fill="none" stroke="#fff" stroke-linejoin="round" stroke-width="3"/><path d="M105,68.87A14.63,14.63,0,0,1,91.11,88q-.51,0-1,0" fill="none" stroke="#fff" stroke-linejoin="round" stroke-width="3"/><path d="M90.14,116.29q.5,0,1,0a14.63,14.63,0,0,1,13.92,19.11" fill="none" stroke="#fff" stroke-linejoin="round" stroke-width="3"/><path d="M270.56,119.91a9.55,9.55,0,0,0-9.55,9.55v4.91" fill="none" stroke="#fff" stroke-linejoin="round" stroke-width="3"/><path d="M270.55,84.23A9.55,9.55,0,0,1,261,74.68V69.74" fill="none" stroke="#fff" stroke-linejoin="round" stroke-width="3"/><g opacity="0.3"><path d="M162,57.87c24.37,1.85,62.21,3.47,109.8,3.47h52.33" fill="none" stroke="#fff" stroke-linejoin="round" stroke-width="3"/><path d="M5.49,13.6c17.68,9.61,55.28,27.29,108.42,37.8,0,0,8.78,2.43,32.4,4.89" fill="none" stroke="#fff" stroke-linejoin="round" stroke-width="3"/><path d="M.72,22.38C20.09,32.91,58.27,50.59,112,61.2" fill="none" stroke="#fff" stroke-linejoin="round" stroke-width="3"/><line x1="271.78" y1="71.34" x2="324.12" y2="71.34" fill="none" stroke="#fff" stroke-linejoin="round" stroke-width="3"/><path d="M65.08,17.89H54.32a10.08,10.08,0,0,0-9.89,10.27l.1,35.41a10.08,10.08,0,0,0,10.11,10h0a10.08,10.08,0,0,1,10.11,10l0,10.39a10.08,10.08,0,0,0,10.11,10l6.55,0" fill="none" stroke="#fff" stroke-linejoin="round" stroke-width="2"/></g></svg>