<svg id="Layer_1" data-name="Layer 1" xmlns="http://www.w3.org/2000/svg" viewBox="0 0 304.75 163.91"><title>EnginePower_2</title><polyline points="97.57 1.5 1.5 1.5 1.5 162.41 97.57 162.41" fill="none" stroke="#fff" stroke-linejoin="round" stroke-width="3" opacity="0.3"/><polyline points="173.24 29.72 145.23 40.26 131.94 40.25 142.76 55.5" fill="none" stroke="#fff" stroke-linejoin="round" stroke-width="3"/><path d="M77,33.67,69.06,56.53a4.4,4.4,0,0,0,1.6,4.94l8.12,5.86V71" fill="none" stroke="#fff" stroke-linejoin="round" stroke-width="3"/><path d="M242.66,83.59a5,5,0,0,1,4.54-5l12.24-1.4a6.57,6.57,0,0,1,7.31,6.53h0a6.57,6.57,0,0,1-7.33,6.52L247.18,88.8A5,5,0,0,1,244,87.16" fill="none" stroke="#fff" stroke-linejoin="round" stroke-width="3"/><path d="M182.7,73.08h0c-5.41,6.63-18.15,10.45-26.55,10.44h0c8.4,0,21.13,3.85,26.53,10.5h0" fill="none" stroke="#fff" stroke-linejoin="round" stroke-width="3"/><path d="M304.41,98.76l-45.14,7.61S248.17,109,242.46,109h-5.06c-13.6,0-25.24-7.88-25.24-7.88l-2.71-1.77h12.43a8.7,8.7,0,0,0,8.7-8.69V76.51a8.7,8.7,0,0,0-8.69-8.7l-27.75,0a15.79,15.79,0,0,0,0,31.57h5.61l0,15.75a1.45,1.45,0,0,1-2.35,1.16L194,113.53a4.35,4.35,0,0,1,.88-7.32h0" fill="none" stroke="#fff" stroke-linejoin="round" stroke-width="3"/><path d="M53.77,91v9.29l-2.5,2.59a6.29,6.29,0,0,0-.85,7.63l15.75,25.9A6.24,6.24,0,0,0,69,138.88l13.53,8.67a16.88,16.88,0,0,0,6.63,1.36l111.35,3,5.73-5.89,64.31,3.09,33.8,0" fill="none" stroke="#fff" stroke-linejoin="round" stroke-width="3"/><path d="M115.86,119.17l-6.78-15.32a7,7,0,0,0-5.62-4.1L40.73,88.66a4.58,4.58,0,0,1-3.29-4.38V82.6a4.58,4.58,0,0,1,3.3-4.37l62.75-11a7,7,0,0,0,5.62-4.08L115.91,48" fill="none" stroke="#fff" stroke-linejoin="round" stroke-width="3"/><path d="M304.4,115.16c-29.13,6.91-92.89,21.48-100.85,18.47l-52.4-26.06c-6.7-3.23-14.73-4.25-28.12-5.71l0,25-18.4,0a34,34,0,0,0-7.53.84l-30.91,8.66" fill="none" stroke="#fff" stroke-linejoin="round" stroke-width="3"/><path d="M66.27,30.64l30.89,8.72a34,34,0,0,0,7.53.85l18.41,0-.05,24.94c13.4-1.44,21.43-2.44,28.14-5.66l52.45-26c8-2.93,71.61,11.65,100.76,18.58" fill="none" stroke="#fff" stroke-linejoin="round" stroke-width="3"/><polyline points="142.64 111.46 131.85 126.91 145.15 126.92 173.14 137.52" fill="none" stroke="#fff" stroke-linejoin="round" stroke-width="3"/><path d="M78.75,96.08v3.63l-8.13,5.85A4.4,4.4,0,0,0,69,110.5l8.58,22.68" fill="none" stroke="#fff" stroke-linejoin="round" stroke-width="3"/><path d="M194.94,59.56h0a4.35,4.35,0,0,1-.85-7.32l3.4-2.72a1.45,1.45,0,0,1,2.35,1.17l0,17.07" fill="none" stroke="#fff" stroke-linejoin="round" stroke-width="3"/><path d="M304.4,18.36l-33.67,0-64.32,3-5.71-5.91L89.34,18.15a16.88,16.88,0,0,0-6.64,1.35L69.15,28.15a6.24,6.24,0,0,0-2.88,2.49L50.47,56.51a6.29,6.29,0,0,0,.83,7.63l2.49,2.59v9.2" fill="none" stroke="#fff" stroke-linejoin="round" stroke-width="3"/><path d="M221.7,61.95a35.29,35.29,0,0,1,15.74-3.78h5.06c5.71,0,16.81,2.69,16.81,2.69l45.19,7.26" fill="none" stroke="#fff" stroke-linejoin="round" stroke-width="3"/></svg>