<svg id="Layer_1" data-name="Layer 1" xmlns="http://www.w3.org/2000/svg" viewBox="0 0 339.8 170.09"><title>BatteryPower_2</title><g opacity="0.3"><path d="M109.09,71.7c-3.39-4.57-5.39-6.46-5.39-12.58H116a4.46,4.46,0,0,0,4.46-4.46V53.26A4.46,4.46,0,0,0,116,48.8H91.8a4.46,4.46,0,0,0-4.46,4.46v1.41a4.46,4.46,0,0,0,4.46,4.46h7.12" fill="none" stroke="#fff" stroke-linejoin="round" stroke-width="3"/><path d="M229,71.7c3.39-4.57,5.39-6.46,5.39-12.58H222.06a4.46,4.46,0,0,1-4.46-4.46V53.26a4.46,4.46,0,0,1,4.46-4.46h24.25a4.46,4.46,0,0,1,4.46,4.46v1.41a4.46,4.46,0,0,1-4.46,4.46h-7.12" fill="none" stroke="#fff" stroke-linejoin="round" stroke-width="3"/><path d="M75.82,107.74v-43a8.17,8.17,0,0,0-8.17-8.17h-41a8.17,8.17,0,0,0-8.17,8.17v95.72a8.17,8.17,0,0,0,8.17,8.17h73.47a9.33,9.33,0,0,0,5.79-2l11.91-7.77a9.33,9.33,0,0,1,5.79-2h88.46a9.33,9.33,0,0,1,6.09,2.26l10.95,7.27a9.33,9.33,0,0,0,6.09,2.26h77.13a8.17,8.17,0,0,0,8.17-8.17V60.61a8.17,8.17,0,0,0-8.17-8.17h-41a8.17,8.17,0,0,0-8.17,8.17v46.13" fill="none" stroke="#fff" stroke-linejoin="round" stroke-width="3"/><line x1="266.74" y1="145.86" x2="280.37" y2="145.86" fill="none" stroke="#fff" stroke-linejoin="round" stroke-width="3"/><line x1="119.17" y1="145.86" x2="238.38" y2="145.86" fill="none" stroke="#fff" stroke-linejoin="round" stroke-width="3"/><line x1="98.76" y1="145.86" x2="119.17" y2="145.86" fill="none" stroke="#fff" stroke-linejoin="round" stroke-width="3"/><line x1="56.77" y1="145.86" x2="70.41" y2="145.86" fill="none" stroke="#fff" stroke-linejoin="round" stroke-width="3"/><path d="M57.7,77.24l-12.39,20a64.43,64.43,0,0,0-4.81,9.39" fill="none" stroke="#fff" stroke-linejoin="round" stroke-width="3"/><path d="M279.64,77.24l12.4,20a64.43,64.43,0,0,1,4.81,9.39" fill="none" stroke="#fff" stroke-linejoin="round" stroke-width="3"/><path d="M209.38,70.32c-3-4.28-8.29-19-10.64-26" fill="none" stroke="#fff" stroke-linejoin="round" stroke-width="3"/><path d="M193.9,79.84c0,3.07-2,5.57-4.47,5.57H149.51c-2.47,0-4.47-2.49-4.47-5.57V78.21a3.34,3.34,0,0,0-3.34-3.34h-6A140,140,0,0,0,111.6,77L75.82,83.2" fill="none" stroke="#fff" stroke-linejoin="round" stroke-width="3"/><path d="M263.18,83.23l-36.84-6.33a140,140,0,0,0-23.72-2h-5.36a3.34,3.34,0,0,1-3.34-3.34v-7.3c0-9.67-8.77-12.75-15.66-13.69" fill="none" stroke="#fff" stroke-linejoin="round" stroke-width="3"/><path d="M145,64.23c0-9.52,8.51-12.66,15.34-13.64" fill="none" stroke="#fff" stroke-linejoin="round" stroke-width="3"/><path d="M192.1,27.72c-.85-2.29-1.74-4.55-2.69-6.73l-.12-.3c-4.46-10.52-10.22-19-19.35-19.19-9.13.18-14.89,8.67-19.35,19.19l-.12.3c-1,2.18-1.84,4.44-2.69,6.72" fill="none" stroke="#fff" stroke-linejoin="round" stroke-width="3"/><path d="M150.26,40a15.86,15.86,0,0,1,13,6.78h0a15.85,15.85,0,0,1,1.91,3.67,33.84,33.84,0,0,1,.92,4.5,15.85,15.85,0,0,1-1.62,8l-5.94,12" fill="none" stroke="#fff" stroke-linejoin="round" stroke-width="3"/><path d="M130.16,70.32c3-4.28,8.21-19,10.64-26,.38-1.09,1.56-4.33,1.56-4.33H131.48a3.16,3.16,0,0,1-3.16-3.16h0a3.16,3.16,0,0,1,3.16-3.16h75.3a3.16,3.16,0,0,1,3.16,3.16h0A3.16,3.16,0,0,1,206.79,40H187.91a15.86,15.86,0,0,0-13,6.78h0a15.86,15.86,0,0,0-1.21,16.12l5.94,12" fill="none" stroke="#fff" stroke-linejoin="round" stroke-width="3"/><path d="M90.16,92.95l25.16-3.39c4.89-.66,8,3.11,10.49,7.39,5.34,9.29,21.76,33.4,21.76,33.4A12.17,12.17,0,0,0,157.86,136h22.95a12.17,12.17,0,0,0,10.29-5.67s15.85-23.56,21.76-33.4c2.54-4.23,5.6-8,10.49-7.39l24.5,3.21" fill="none" stroke="#fff" stroke-linejoin="round" stroke-width="3"/><path d="M98.23,108.85a55.13,55.13,0,0,1,23,10.83" fill="none" stroke="#fff" stroke-linejoin="round" stroke-width="3"/><path d="M238.38,108.86a50.84,50.84,0,0,0-20.57,9.71" fill="none" stroke="#fff" stroke-linejoin="round" stroke-width="3"/></g><rect x="237.94" y="106.59" width="28.36" height="49.78" fill="none" stroke="#fff" stroke-linejoin="round" stroke-width="3"/><line x1="266.3" y1="145.87" x2="237.94" y2="145.87" fill="none" stroke="#fff" stroke-linejoin="round" stroke-width="3"/><line x1="250.2" y1="151.39" x2="253.82" y2="151.39" fill="none" stroke="#fff" stroke-linejoin="round" stroke-width="3"/><line x1="237.94" y1="113.88" x2="266.3" y2="113.88" fill="none" stroke="#fff" stroke-linejoin="round" stroke-width="3"/><g opacity="0.3"><line x1="247.2" y1="136.01" x2="257.37" y2="136.01" fill="none" stroke="#fff" stroke-linejoin="round" stroke-width="3"/></g><rect x="280.93" y="106.59" width="28.36" height="49.78" fill="none" stroke="#fff" stroke-linejoin="round" stroke-width="3"/><line x1="309.29" y1="145.87" x2="280.93" y2="145.87" fill="none" stroke="#fff" stroke-linejoin="round" stroke-width="3"/><line x1="293.19" y1="151.39" x2="296.81" y2="151.39" fill="none" stroke="#fff" stroke-linejoin="round" stroke-width="3"/><line x1="280.93" y1="113.88" x2="309.29" y2="113.88" fill="none" stroke="#fff" stroke-linejoin="round" stroke-width="3"/><g opacity="0.3"><line x1="290.18" y1="136.01" x2="300.36" y2="136.01" fill="none" stroke="#fff" stroke-linejoin="round" stroke-width="3"/></g><polyline points="339.5 106.59 323.92 106.59 323.92 156.37 339.8 156.37" fill="none" stroke="#fff" stroke-linejoin="round" stroke-width="3"/><line x1="336.18" y1="151.39" x2="339.8" y2="151.39" fill="none" stroke="#fff" stroke-linejoin="round" stroke-width="3"/><line x1="323.92" y1="113.88" x2="339.5" y2="113.88" fill="none" stroke="#fff" stroke-linejoin="round" stroke-width="3"/><g opacity="0.3"><line x1="333.17" y1="136.01" x2="339.5" y2="136.01" fill="none" stroke="#fff" stroke-linejoin="round" stroke-width="3"/></g><rect x="70.71" y="106.59" width="28.36" height="49.78" fill="none" stroke="#fff" stroke-linejoin="round" stroke-width="3"/><line x1="99.07" y1="145.87" x2="70.71" y2="145.87" fill="none" stroke="#fff" stroke-linejoin="round" stroke-width="3"/><line x1="82.97" y1="151.39" x2="86.59" y2="151.39" fill="none" stroke="#fff" stroke-linejoin="round" stroke-width="3"/><line x1="70.71" y1="113.88" x2="99.07" y2="113.88" fill="none" stroke="#fff" stroke-linejoin="round" stroke-width="3"/><line x1="79.96" y1="136.01" x2="90.14" y2="136.01" fill="none" stroke="#fff" stroke-linejoin="round" stroke-width="3"/><line x1="79.96" y1="130.42" x2="90.14" y2="130.42" fill="none" stroke="#fff" stroke-linejoin="round" stroke-width="3"/><line x1="79.96" y1="124.82" x2="90.14" y2="124.82" fill="none" stroke="#fff" stroke-linejoin="round" stroke-width="3"/><line x1="83.46" y1="123.6" x2="86.64" y2="123.6" fill="none" stroke="#fff" stroke-linejoin="round" stroke-width="3"/><polyline points="0 156.37 15.08 156.37 15.08 106.59 0 106.59" fill="none" stroke="#fff" stroke-linejoin="round" stroke-width="3"/><line x1="15.08" y1="145.87" y2="145.87" fill="none" stroke="#fff" stroke-linejoin="round" stroke-width="3"/><line y1="151.39" x2="2.6" y2="151.39" fill="none" stroke="#fff" stroke-linejoin="round" stroke-width="3"/><line y1="113.88" x2="15.08" y2="113.88" fill="none" stroke="#fff" stroke-linejoin="round" stroke-width="3"/><line y1="136.01" x2="6.16" y2="136.01" fill="none" stroke="#fff" stroke-linejoin="round" stroke-width="3"/><line y1="130.42" x2="6.16" y2="130.42" fill="none" stroke="#fff" stroke-linejoin="round" stroke-width="3"/><line y1="124.82" x2="6.16" y2="124.82" fill="none" stroke="#fff" stroke-linejoin="round" stroke-width="3"/><line y1="123.6" x2="2.66" y2="123.6" fill="none" stroke="#fff" stroke-linejoin="round" stroke-width="3"/><rect x="28.72" y="106.59" width="28.36" height="49.78" fill="none" stroke="#fff" stroke-linejoin="round" stroke-width="3"/><line x1="57.07" y1="145.87" x2="28.72" y2="145.87" fill="none" stroke="#fff" stroke-linejoin="round" stroke-width="3"/><line x1="40.98" y1="151.39" x2="44.6" y2="151.39" fill="none" stroke="#fff" stroke-linejoin="round" stroke-width="3"/><line x1="28.72" y1="113.88" x2="57.07" y2="113.88" fill="none" stroke="#fff" stroke-linejoin="round" stroke-width="3"/><line x1="37.97" y1="136.01" x2="48.15" y2="136.01" fill="none" stroke="#fff" stroke-linejoin="round" stroke-width="3"/><line x1="37.97" y1="130.42" x2="48.15" y2="130.42" fill="none" stroke="#fff" stroke-linejoin="round" stroke-width="3"/><line x1="37.97" y1="124.82" x2="48.15" y2="124.82" fill="none" stroke="#fff" stroke-linejoin="round" stroke-width="3"/><line x1="41.47" y1="123.6" x2="44.65" y2="123.6" fill="none" stroke="#fff" stroke-linejoin="round" stroke-width="3"/><rect x="153.33" y="106.59" width="28.36" height="49.78" fill="none" stroke="#fff" stroke-linejoin="round" stroke-width="3"/><line x1="181.68" y1="145.87" x2="153.33" y2="145.87" fill="none" stroke="#fff" stroke-linejoin="round" stroke-width="3"/><line x1="165.59" y1="151.39" x2="169.21" y2="151.39" fill="none" stroke="#fff" stroke-linejoin="round" stroke-width="3"/><line x1="153.33" y1="113.88" x2="181.68" y2="113.88" fill="none" stroke="#fff" stroke-linejoin="round" stroke-width="3"/><line x1="162.58" y1="136.01" x2="172.76" y2="136.01" fill="none" stroke="#fff" stroke-linejoin="round" stroke-width="3"/><line x1="162.58" y1="130.42" x2="172.76" y2="130.42" fill="none" stroke="#fff" stroke-linejoin="round" stroke-width="3"/><line x1="162.58" y1="124.82" x2="172.76" y2="124.82" fill="none" stroke="#fff" stroke-linejoin="round" stroke-width="3"/><line x1="166.08" y1="123.6" x2="169.26" y2="123.6" fill="none" stroke="#fff" stroke-linejoin="round" stroke-width="3"/><polyline points="216.74 97.82 216.74 156.37 158.37 156.37" fill="none" stroke="#fff" stroke-linejoin="round" stroke-width="3"/><polyline points="158.37 156.37 120.09 156.37 120.09 105.43" fill="none" stroke="#fff" stroke-linejoin="round" stroke-width="3"/><polyline points="221.46 91.62 221.46 86.42 116.21 86.42 116.21 97.82 216.74 97.82 216.74 119.76" fill="none" stroke="#fff" stroke-linejoin="round" stroke-width="3"/><line x1="120.09" y1="105.67" x2="120.09" y2="119.76" fill="none" stroke="#fff" stroke-linejoin="round" stroke-width="3"/><line x1="132.68" y1="119.62" x2="142.23" y2="119.62" fill="none" stroke="#fff" stroke-linejoin="round" stroke-width="3"/><line x1="132.68" y1="138.17" x2="142.23" y2="138.17" fill="none" stroke="#fff" stroke-linejoin="round" stroke-width="3"/><line x1="137.46" y1="114.85" x2="137.46" y2="124.4" fill="none" stroke="#fff" stroke-linejoin="round" stroke-width="3"/><circle cx="201.43" cy="126.92" r="1.68" fill="#fff"/><circle cx="194.1" cy="131.15" r="1.68" fill="#fff"/><circle cx="194.1" cy="122.69" r="1.68" fill="#fff"/></svg>