<svg id="Layer_1" data-name="Layer 1" xmlns="http://www.w3.org/2000/svg" viewBox="0 0 324.12 146.47"><title>UnstoppableProgress_1</title><g opacity="0.3"><path d="M.72,23.12C20.09,33.65,58.27,51.33,112,61.95" fill="none" stroke="#fff" stroke-linejoin="round" stroke-width="3"/><path d="M15.19,30,27.31,1.5C51.58,13.48,90.22,28.25,137.76,36c5.06.58,67.25,7.69,88,7.84,4.21,0,9.14,0,14.53-.05l.86,16.81" fill="none" stroke="#fff" stroke-linejoin="round" stroke-width="3"/><line x1="57.83" y1="47.74" x2="67.42" y2="18.42" fill="none" stroke="#fff" stroke-linejoin="round" stroke-width="3"/><line x1="103.43" y1="59.29" x2="109.58" y2="30.24" fill="none" stroke="#fff" stroke-linejoin="round" stroke-width="3"/><line x1="149.68" y1="59.98" x2="152.31" y2="37.89" fill="none" stroke="#fff" stroke-linejoin="round" stroke-width="3"/><line x1="196.47" y1="61.17" x2="197.58" y2="42.6" fill="none" stroke="#fff" stroke-linejoin="round" stroke-width="3"/><line x1="271.78" y1="72.08" x2="324.12" y2="72.08" fill="none" stroke="#fff" stroke-linejoin="round" stroke-width="3"/></g><path d="M271.85,80.11l4.94-.07a1.09,1.09,0,0,1,1.1,1l1.36,14.88-3.8,0a.68.68,0,0,0-.67.69l0,3.45,8.92.27.07,5.46-8.91.51,0-3.09" fill="none" stroke="#fff" stroke-linejoin="round" stroke-width="3"/><polyline points="148.83 73.17 132.4 79.63 124.56 79.74 131.08 88.64" fill="none" stroke="#fff" stroke-linejoin="round" stroke-width="3"/><path d="M92.11,76.33,87.63,89.88a2.59,2.59,0,0,0,1,2.9l4.84,3.39,0,2.14" fill="none" stroke="#fff" stroke-linejoin="round" stroke-width="3"/><path d="M190.22,104.33a3,3,0,0,1,2.63-3l7.2-.93a3.87,3.87,0,0,1,4.37,3.79h0a3.87,3.87,0,0,1-4.26,3.91l-7.23-.73a3,3,0,0,1-1.92-.94" fill="none" stroke="#fff" stroke-linejoin="round" stroke-width="3"/><path d="M154.78,98.66h0c-3.13,4-10.61,6.32-15.56,6.39h0c5-.07,12.49,2.09,15.73,6h0" fill="none" stroke="#fff" stroke-linejoin="round" stroke-width="3"/><path d="M78.91,110.32l.07,5.48-1.45,1.55a3.71,3.71,0,0,0-.43,4.51L86.61,137a3.68,3.68,0,0,0,1.72,1.45l8.05,5a10,10,0,0,0,3.92.75L166,145l3.33-3.52,37.94,1.27,53.63-.73,7-14.63a2.72,2.72,0,0,0-.29-3L251.52,108.2l-51.31,9.42s-6.52,1.67-9.89,1.71l-3,0c-8,.11-15-4.43-15-4.43l-1.61-1,7.33-.1a5.13,5.13,0,0,0,5.06-5.2l-.06-4.26,0-2.86,0-1.25a5.13,5.13,0,0,0-5.2-5.06l-16.36.22a9.31,9.31,0,0,0,.25,18.61l3.31,0,.11,9.29a.85.85,0,0,1-1.38.7l-2-1.58a2.56,2.56,0,0,1,.46-4.32h0" fill="none" stroke="#fff" stroke-linejoin="round" stroke-width="3"/><path d="M115.77,126.41l-4.13-9a4.11,4.11,0,0,0-3.35-2.37l-37.08-6a2.7,2.7,0,0,1-2-2.55v-1a2.7,2.7,0,0,1,1.91-2.61l36.9-7a4.11,4.11,0,0,0,3.28-2.45l3.88-9" fill="none" stroke="#fff" stroke-linejoin="round" stroke-width="3"/><path d="M268.28,126.49l9.15-.13a1.09,1.09,0,0,0,1.07-1l1-14-3.5,0" fill="none" stroke="#fff" stroke-linejoin="round" stroke-width="3"/><path d="M235.37,120.24s-61.64,16.16-67.78,13.93l-31.12-14.91c-4-1.85-8.72-2.38-16.63-3.12l.2,14.76-10.85.15a20,20,0,0,0-4.43.56L86.61,137" fill="none" stroke="#fff" stroke-linejoin="round" stroke-width="3"/><path d="M260.78,94.18l8.35,2.58.18,13.09s-3.19,1.66-12.19,3.95" fill="none" stroke="#fff" stroke-linejoin="round" stroke-width="3"/><path d="M85.76,74.64l18.29,4.88a20,20,0,0,0,4.45.44l10.86-.15.18,14.71c7.89-1,12.61-1.62,16.54-3.58l30.7-15.76c6.08-2.34,68.14,12,68.14,12" fill="none" stroke="#fff" stroke-linejoin="round" stroke-width="3"/><polyline points="131.49 121.63 125.26 130.83 133.1 130.73 149.69 136.73" fill="none" stroke="#fff" stroke-linejoin="round" stroke-width="3"/><path d="M93.69,113.11l0,2.14L89,118.77a2.59,2.59,0,0,0-.91,2.93L93.32,135" fill="none" stroke="#fff" stroke-linejoin="round" stroke-width="3"/><path d="M161.88,90.58h0a2.56,2.56,0,0,1-.57-4.31l2-1.63a.85.85,0,0,1,1.39.67l.12,10.07" fill="none" stroke="#fff" stroke-linejoin="round" stroke-width="3"/><path d="M177.68,91.76a20.81,20.81,0,0,1,9.25-2.36l3,0c3.37,0,9.93,1.44,9.93,1.44l51.54,7.51,15.69-15.94a2.72,2.72,0,0,0,.21-3l-7.44-14.44-53.63.73-37.89,2.3-3.42-3.43L99.26,67.08a10,10,0,0,0-3.9.85l-7.92,5.21a3.68,3.68,0,0,0-1.68,1.49L76.67,90a3.71,3.71,0,0,0,.56,4.49L78.72,96l.07,5.43" fill="none" stroke="#fff" stroke-linejoin="round" stroke-width="3"/><path d="M227.61,112.78l17.75,7.33a4.79,4.79,0,0,1,2.83,4.3l.11,8.32" fill="none" stroke="#fff" stroke-linejoin="round" stroke-width="3"/><path d="M227.37,94.87l17.54-7.81a4.79,4.79,0,0,0,2.71-4.38l-.11-8.32" fill="none" stroke="#fff" stroke-linejoin="round" stroke-width="3"/></svg>