<svg id="Layer_1" data-name="Layer 1" xmlns="http://www.w3.org/2000/svg" viewBox="0 0 342.51 132.87"><title>BatteryPower_1</title><path d="M142.89,120.26h54.77a2.86,2.86,0,0,1,2.86,2.86v8.24a0,0,0,0,1,0,0H140a0,0,0,0,1,0,0v-8.24A2.86,2.86,0,0,1,142.89,120.26Z" fill="none" stroke="#fff" stroke-linejoin="round" stroke-width="3"/><path d="M163.33,33h13.89a11.06,11.06,0,0,1,11.05,10.77l2,76.53h-40l2-76.53A11.06,11.06,0,0,1,163.33,33Z" fill="none" stroke="#fff" stroke-linejoin="round" stroke-width="3"/><path d="M150.83,63.33h0a8.58,8.58,0,0,0-8.58,8.58v10.9a8.58,8.58,0,0,1-8.58,8.58H119.54" fill="none" stroke="#fff" stroke-linejoin="round" stroke-width="2" opacity="0.3"/><line x1="174.69" y1="104.64" x2="180.16" y2="104.64" fill="none" stroke="#fff" stroke-linejoin="round" stroke-width="3"/><line x1="162.69" y1="104.64" x2="168.16" y2="104.64" fill="none" stroke="#fff" stroke-linejoin="round" stroke-width="3"/><line x1="162.69" y1="97.5" x2="168.16" y2="97.5" fill="none" stroke="#fff" stroke-linejoin="round" stroke-width="3"/><line x1="162.69" y1="90.35" x2="168.16" y2="90.35" fill="none" stroke="#fff" stroke-linejoin="round" stroke-width="3"/><line x1="162.69" y1="83.21" x2="168.16" y2="83.21" fill="none" stroke="#fff" stroke-linejoin="round" stroke-width="3"/><line x1="162.69" y1="76.07" x2="168.16" y2="76.07" fill="none" stroke="#fff" stroke-linejoin="round" stroke-width="3"/><line x1="162.69" y1="54.64" x2="168.16" y2="54.64" fill="none" stroke="#fff" stroke-linejoin="round" stroke-width="3"/><line x1="162.69" y1="61.78" x2="168.16" y2="61.78" fill="none" stroke="#fff" stroke-linejoin="round" stroke-width="3"/><line x1="162.69" y1="68.93" x2="168.16" y2="68.93" fill="none" stroke="#fff" stroke-linejoin="round" stroke-width="3"/><g opacity="0.3"><path d="M284.45,67.67A22.59,22.59,0,0,1,280,54.16H290.2a3.68,3.68,0,0,0,3.68-3.68V49.3a3.68,3.68,0,0,0-3.68-3.68H270.15a3.68,3.68,0,0,0-3.68,3.68v1.17a3.68,3.68,0,0,0,3.68,3.68h7" fill="none" stroke="#fff" stroke-linejoin="round" stroke-width="3"/><path d="M327.32,16.62c3.25-6.45,7.3-11.55,12.74-12.81" fill="none" stroke="#fff" stroke-linejoin="round" stroke-width="3"/><path d="M314.85,49.06c3.38-6,6.31-18.6,10.86-29H279.12v9.72a4.47,4.47,0,0,0,4.47,4.47h33.29" fill="none" stroke="#fff" stroke-linejoin="round" stroke-width="3"/><path d="M227.68,115.38l8.32-21A9.45,9.45,0,0,1,253.41,94l10.05,19.67A12.31,12.31,0,0,0,274.71,121h65.58" fill="none" stroke="#fff" stroke-linejoin="round" stroke-width="3"/><path d="M269.15,115V73.24a6.4,6.4,0,0,0-6.4-6.4H230.64a6.4,6.4,0,0,0-6.4,6.4V123.8a6.4,6.4,0,0,0,6.4,6.4H340.29" fill="none" stroke="#fff" stroke-linejoin="round" stroke-width="3"/><path d="M340.29,38.56C335.46,38.66,325,39.93,325,49V61.89c0,2.29,1.49,4.14,3.33,4.14h11.93" fill="none" stroke="#fff" stroke-linejoin="round" stroke-width="3"/><path d="M321.18,52.64H310.8c-9,0-18,21.3-37.82,21.3h-3.68l8.41.13c43,0,34.51,29.25,51.11,29.25h11.47" fill="none" stroke="#fff" stroke-linejoin="round" stroke-width="3"/></g><path d="M189.74,63.33h0a8.58,8.58,0,0,1,8.58,8.58v10.9a8.58,8.58,0,0,0,8.58,8.58h15.85" fill="none" stroke="#fff" stroke-linejoin="round" stroke-width="2" opacity="0.3"/><line x1="174.69" y1="97.84" x2="180.16" y2="97.84" fill="none" stroke="#fff" stroke-linejoin="round" stroke-width="3"/><line x1="174.69" y1="90.84" x2="180.16" y2="90.84" fill="none" stroke="#fff" stroke-linejoin="round" stroke-width="3"/><line x1="174.69" y1="83.84" x2="180.16" y2="83.84" fill="none" stroke="#fff" stroke-linejoin="round" stroke-width="3"/><g opacity="0.3"><path d="M.29,105.29h10a9.38,9.38,0,0,0,7.93-4.37S30.46,82.67,35,75.09c2-3.26,4.32-6.2,8.09-5.7L62,71.87" fill="none" stroke="#fff" stroke-linejoin="round" stroke-width="3"/><path d="M47.51,55.62c2.61-3.52,4.16-5,4.16-9.7H42.14a3.44,3.44,0,0,1-3.44-3.44V41.4A3.44,3.44,0,0,1,42.14,38H60.84a3.44,3.44,0,0,1,3.44,3.44v1.09a3.44,3.44,0,0,1-3.44,3.44H55.35" fill="none" stroke="#fff" stroke-linejoin="round" stroke-width="3"/><path d="M.29,121.21H34.45A7.19,7.19,0,0,1,39.14,123l8.44,5.61a7.19,7.19,0,0,0,4.69,1.74h59.46A6.3,6.3,0,0,0,118,124V47.06a6.3,6.3,0,0,0-6.3-6.3H80.14a6.3,6.3,0,0,0-6.3,6.3v59.82" fill="none" stroke="#fff" stroke-linejoin="round" stroke-width="3"/><path d="M.29,112.89h90.1a6.13,6.13,0,0,0,6.13-6.13V109" fill="none" stroke="#fff" stroke-linejoin="round" stroke-width="3"/><path d="M79.7,48.86,96.09,75.27a49.67,49.67,0,0,1,7.47,26.2v19.74" fill="none" stroke="#fff" stroke-linejoin="round" stroke-width="3"/><path d="M73.84,83.4H63.36c-12.77,0-22,5.07-31.05,14.11l-4,4" fill="none" stroke="#fff" stroke-linejoin="round" stroke-width="3"/><path d="M32.37,54.55c-2.28-3.3-6.39-14.62-8.2-20.06" fill="none" stroke="#fff" stroke-linejoin="round" stroke-width="3"/><path d="M20.43,61.89c0,2.37-1.54,4.29-3.45,4.29H.29" fill="none" stroke="#fff" stroke-linejoin="round" stroke-width="3"/><path d="M73.84,64.5l-28.4-4.88a107.93,107.93,0,0,0-18.29-1.56H23a2.58,2.58,0,0,1-2.58-2.58V49.86c0-7.45-6.76-9.83-12.07-10.55" fill="none" stroke="#fff" stroke-linejoin="round" stroke-width="3"/><path d="M19,21.71C18.4,20,17.71,18.21,17,16.53l-.09-.23C13.44,8.19,9,1.64,2,1.5a11,11,0,0,0-1.68.16" fill="none" stroke="#fff" stroke-linejoin="round" stroke-width="3"/><path d="M.29,26.28H30.37a2.43,2.43,0,0,1,2.43,2.43h0a2.43,2.43,0,0,1-2.43,2.43H15.81a12.23,12.23,0,0,0-10,5.23h0A12.23,12.23,0,0,0,4.85,48.8l4.58,9.26" fill="none" stroke="#fff" stroke-linejoin="round" stroke-width="3"/></g><circle cx="129.77" cy="91.59" r="1.61" fill="#fff" stroke="#fff" stroke-miterlimit="10" stroke-width="3"/><circle cx="198.28" cy="76.06" r="1.61" fill="#fff" stroke="#fff" stroke-miterlimit="10" stroke-width="3"/></svg>