<svg id="Layer_1" data-name="Layer 1" xmlns="http://www.w3.org/2000/svg" viewBox="0 0 327.24 125.42"><title>EnginePower_1</title><circle cx="256.53" cy="82.49" r="9.18" fill="none" stroke="#fff" stroke-miterlimit="10" stroke-width="3"/><line x1="256.53" y1="73.31" x2="253.04" y2="73.62" fill="none" stroke="#fff" stroke-linecap="round" stroke-miterlimit="10" stroke-width="3"/><line x1="243.06" y1="74.53" x2="199.03" y2="78.51" fill="none" stroke="#fff" stroke-linecap="round" stroke-miterlimit="10" stroke-width="3" stroke-dasharray="6.38 10.03"/><line x1="194.04" y1="78.96" x2="190.56" y2="79.27" fill="none" stroke="#fff" stroke-linecap="round" stroke-miterlimit="10" stroke-width="3"/><line x1="256.53" y1="91.67" x2="253.08" y2="92.3" fill="none" stroke="#fff" stroke-linecap="round" stroke-miterlimit="10" stroke-width="3"/><line x1="242.98" y1="94.14" x2="198.41" y2="102.28" fill="none" stroke="#fff" stroke-linecap="round" stroke-miterlimit="10" stroke-width="3" stroke-dasharray="6.54 10.28"/><line x1="193.35" y1="103.2" x2="189.91" y2="103.83" fill="none" stroke="#fff" stroke-linecap="round" stroke-miterlimit="10" stroke-width="3"/><polyline points="185.71 76.66 188.56 76.66 188.56 107.38 181.03 107.38 181.03 114.27 167.6 114.27 167.6 69.71 181.23 69.71 181.23 99.83" fill="none" stroke="#fff" stroke-miterlimit="10" stroke-width="3"/><line x1="153.76" y1="107.38" x2="167.6" y2="107.38" fill="none" stroke="#fff" stroke-miterlimit="10" stroke-width="3"/><line x1="153.76" y1="76.66" x2="167.6" y2="76.66" fill="none" stroke="#fff" stroke-miterlimit="10" stroke-width="3"/><polyline points="62.8 67.22 57.11 76.66 57.11 116.92 153.76 116.92 153.76 62.79 65.45 62.79 70.54 54.45 153.76 54.45 153.76 58.11" fill="none" stroke="#fff" stroke-miterlimit="10" stroke-width="3"/><polyline points="117.54 29.7 117.54 46.59 123.64 46.59 123.64 29.7 153.76 29.7 153.76 46.59 133.62 46.59" fill="none" stroke="#fff" stroke-miterlimit="10" stroke-width="3"/><line x1="131.17" y1="38.54" x2="138.5" y2="38.54" fill="none" stroke="#fff" stroke-miterlimit="10" stroke-width="3"/><path d="M117.54,41.54h-5.2A12.46,12.46,0,0,0,99.88,54v.93" fill="none" stroke="#fff" stroke-miterlimit="10" stroke-width="3"/><path d="M117.54,35.22h-11.1A18.34,18.34,0,0,0,88.11,53.56v1.37" fill="none" stroke="#fff" stroke-miterlimit="10" stroke-width="3"/><line x1="71.89" y1="77.78" x2="71.89" y2="84.7" fill="none" stroke="#fff" stroke-miterlimit="10" stroke-width="3"/><line x1="68.23" y1="81.24" x2="75.35" y2="81.24" fill="none" stroke="#fff" stroke-miterlimit="10" stroke-width="3"/><line x1="68.23" y1="94.6" x2="75.35" y2="94.6" fill="none" stroke="#fff" stroke-miterlimit="10" stroke-width="3"/><g opacity="0.3"><circle cx="256.39" cy="83.63" r="40.29" fill="none" stroke="#fff" stroke-linejoin="round" stroke-width="3"/><path d="M256.39,56.51a27.12,27.12,0,0,0-27.12,27.12" fill="none" stroke="#fff" stroke-linejoin="round" stroke-width="3"/><path d="M256.39,110.75A27.12,27.12,0,0,0,283.5,83.63" fill="none" stroke="#fff" stroke-linejoin="round" stroke-width="3"/><path d="M303.86,87.58l20-10.66A3.06,3.06,0,0,0,325,72.06l-8.42-10.48a3.06,3.06,0,0,0-3.38-.83l-12.88,4.9" fill="none" stroke="#fff" stroke-linejoin="round" stroke-width="3"/><path d="M1.52,17.44c13.66.79,48.14,7,66.62,9.86" fill="none" stroke="#fff" stroke-linejoin="round" stroke-width="3"/><path d="M1,45.13H39.62l7-10.18h47c16.05,0,67.59,9.89,67.59,9.89" fill="none" stroke="#fff" stroke-linejoin="round" stroke-width="3"/><path d="M181.48,37.06c-5.81-1.69-12.55-3.66-17.5-5.13-10.73-3.19-30.28-6.7-30.28-6.7L95.21,1.5H76l3.27,25.8" fill="none" stroke="#fff" stroke-linejoin="round" stroke-width="3"/><path d="M209.41,116.84h13a47.51,47.51,0,0,1,29.71-80.54l1.85-.25h32.4l-6.1,6.08" fill="none" stroke="#fff" stroke-linejoin="round" stroke-width="3"/><polyline points="1.04 116.84 26.7 116.84 19.05 107.37 1.04 102.06" fill="none" stroke="#fff" stroke-linejoin="round" stroke-width="3"/><polyline points="32.45 110.75 56.68 116.84 56.68 116.84 193.78 116.84 193.78 116.84" fill="none" stroke="#fff" stroke-linejoin="round" stroke-width="3"/><path d="M295.4,35.38h5L316.05,18H255.6a80.7,80.7,0,0,0-29,6.42l-62,28.11s-20.32,9.14-25.46,17.07c-2.53,3.9-1.83,10.57-.2,15.77,4,12.92,36.79,23.88,54.92,31.44h0" fill="none" stroke="#fff" stroke-linejoin="round" stroke-width="3"/><path d="M1,81.6c5.71,4.91,13.35,10.64,19.29,12,18.8,4.29,80.68,9.89,121.18,13.14" fill="none" stroke="#fff" stroke-linejoin="round" stroke-width="3"/><path d="M23.68,87.84,7,71.72a35.54,35.54,0,0,0-6,.76" fill="none" stroke="#fff" stroke-linejoin="round" stroke-width="3"/></g></svg>