<svg xmlns="http://www.w3.org/2000/svg" viewBox="0 0 274.09 135.69">
  <title>circuit_berlin2017</title>
  <g id="Layer_2" data-name="Layer 2">
    <g id="UI">
      <g>
        <path d="M196.69,33.9,160.32,47.6,118.57,63.26c-16.14,6-34.33,12.85-54.09,20.51l-15.11,5.9c-5.13,2-10.39,4-15.62,6.3s-10.47,4.87-15.82,7.42q-2,1-4,1.89l-2,.92c-.23.1,0,0-.09.05l-.25.12c-.15.08-.4.19-.38.21l-.12.1-.22.17a4,4,0,0,0-1.2,1.64,4.47,4.47,0,0,0-.3,2.1,4.53,4.53,0,0,0,.65,2,4.13,4.13,0,0,0,1.52,1.47,5.41,5.41,0,0,0,.56.29l1.09.41,2.17.83,4.35,1.71c2.91,1.15,5.84,2.29,8.82,3.33s6,2,9.05,2.92L56,129.24l.29.09.19.06.59.15.3.08.22,0,.42.07c.29,0,.64,0,1,.08s.66,0,1,0a9.48,9.48,0,0,0,6.8-3.67,10.25,10.25,0,0,0,1.07-1.7l1.07-2.23c2.84-6,5.71-12,8.56-18.11l4.29-9.17.57-1.21.57-1.14.73-1.27.78-1.18A22,22,0,0,1,88.21,86a34,34,0,0,1,9.52-5.34c3.33-1.31,6.66-2.27,10-3.3s6.55-2,9.82-3.14l9.9-3.34c6.62-2.22,13.27-4.45,20-6.57s13.42-4.17,20.09-6.19c.71-.18.38-.09.62-.15l.32-.07.32-.07a5.56,5.56,0,0,1,.59-.06,13.09,13.09,0,0,1,1.34,0c.39,0,.76.12,1.14.19a7.88,7.88,0,0,1,3.91,2.19,8.63,8.63,0,0,1,2.25,8A8.53,8.53,0,0,1,175.73,72c-.26.24-.54.45-.82.67l-.42.32c-.15.11-.2.13-.31.21l-1.12.71-4.46,2.84c-6,3.76-12,7.46-18,11.19s-12,7.45-17.93,11.29-11.81,7.71-17.71,11.56l-8.82,5.78-4.4,2.88-2.12,1.39-.53.38-.33.28a5.91,5.91,0,0,0-.65.7A5.45,5.45,0,0,0,97,125.78a6.28,6.28,0,0,0,1.32,3.64,5.45,5.45,0,0,0,3.15,2,6.08,6.08,0,0,0,1.94.09c.29,0,.76-.1,1.18-.17l1.29-.2a214.52,214.52,0,0,0,39.53-10.39l19.05-6.93c3.13-1.22,6.31-2.38,9.27-3.72,1.5-.67,3-1.26,4.5-2l4.44-2.13c1.49-.68,2.92-1.47,4.37-2.22s2.89-1.49,4.31-2.29l4.21-2.42c.7-.41,1.41-.79,2.09-1.22l2-1.29L203.71,94l3.95-2.71,2-1.35c.65-.46,1.27-.95,1.91-1.42l3.8-2.83a187.32,187.32,0,0,0,26.75-25.36l.75-.84.71-.87,1.41-1.74c.93-1.16,1.88-2.3,2.79-3.47l2.63-3.55c.88-1.18,1.76-2.34,2.56-3.56l2.44-3.6.61-.9.15-.22.23-.33.31-.43L257.92,39c1.65-2.35,3.24-4.72,4.74-7.1s2.93-4.77,4.18-7.17a35.58,35.58,0,0,0,1.62-3.57l.3-.8.28-1a8.54,8.54,0,0,0,.2-.9c.05-.28.13-.55.16-.86a14.41,14.41,0,0,0-.56-7,9.12,9.12,0,0,0-3.92-4.94l-.69-.36c-.13-.06,0,0-.12-.06.23.08-.07,0-.08,0l-.47-.15c-.34-.12-.54-.14-.8-.22s-.53-.11-.8-.16a13.61,13.61,0,0,0-3.33-.17,10.06,10.06,0,0,0-5.75,2.23,10.26,10.26,0,0,0-2,2.32s-.13.2-.05.06l-.11.21-.22.41-.22.41c-.06.13-.08.22-.13.32s-.18.4-.25.63l-.21.7a8,8,0,0,0-.15,2.8,8.15,8.15,0,0,0,.89,2.66,13.62,13.62,0,0,0,4.14,4.38l1.33.87,1.4.78.48.27.22.14.33.24a5.1,5.1,0,0,1,.56.47,5.27,5.27,0,0,1,.47.5,6.35,6.35,0,0,1,1.26,2.39,6.44,6.44,0,0,1-.75,5.13l-1.78,2.85-1.75,2.8-.43.69a7.18,7.18,0,0,1-.63.87,6.68,6.68,0,0,1-.95.94l-.5.37-.54.32a6.75,6.75,0,0,1-4.78.58,6.53,6.53,0,0,1-2.2-1l-.25-.17-.16-.12-.31-.24-.62-.48-4.86-3.75L230.94,29,214.74,16.51l-3.57-2.76-1.71-1.32-.84-.65-.1-.08,0,0-.22-.15-.22-.14-.1-.07h0a.32.32,0,0,1-.13-.05l-.24-.08a1.1,1.1,0,0,0-.25-.05.82.82,0,0,0-.25,0,2.26,2.26,0,0,0-1,.13,2.32,2.32,0,0,0-.85.48,2.17,2.17,0,0,0-.57.72,2.41,2.41,0,0,0-.17.41,1.52,1.52,0,0,0,0,.22l0,.11v.06l0,.1-.24,1.68-.45,3.16L203,23.72,202.64,26l-.09.61,0,.26c0,.08,0,.16-.06.31a9,9,0,0,1-.4,1.33,9.24,9.24,0,0,1-2.4,3.52,9.12,9.12,0,0,1-2.15,1.47c-.26.14-.47.21-.6.27ZM195,29.38s.14,0,.39-.17a4.31,4.31,0,0,0,1-.71,4.42,4.42,0,0,0,1.16-1.69,23.57,23.57,0,0,0,.66-3.77l.78-5.48.45-3.16.24-1.68,0-.11,0-.16.06-.31a5.83,5.83,0,0,1,.15-.63,7.19,7.19,0,0,1,.51-1.23,7.29,7.29,0,0,1,10-3l.2.11.11.07.22.14.22.15.24.17.1.08.83.65L214.08,10l3.57,2.76L233.83,25.3,243,32.42l4.85,3.76.62.48.31.24L249,37l.08.05a1.85,1.85,0,0,0,.65.31,2.07,2.07,0,0,0,1.44-.17l.16-.09.15-.11.21-.2a3.31,3.31,0,0,0,.33-.45l.44-.69,1.76-2.8L255.95,30a1.77,1.77,0,0,0,.21-1.42,1.7,1.7,0,0,0-.33-.64.93.93,0,0,0-.12-.13l-.1-.09v0s-.1-.06-.15-.09l-.19-.11-.09-.05-1.65-.92-1.61-1.05a18.16,18.16,0,0,1-5.54-6A12.75,12.75,0,0,1,245,15.31a12.64,12.64,0,0,1,.26-4.53l.32-1.08c.11-.36.29-.74.44-1.1.08-.18.16-.38.24-.54l.22-.41.22-.41.11-.21c.16-.27.13-.21.21-.33a14.83,14.83,0,0,1,2.93-3.4A14.64,14.64,0,0,1,258.27,0a18.16,18.16,0,0,1,4.46.23c.37.07.73.12,1.12.24s.82.2,1.1.31l.47.15.39.13a2.59,2.59,0,0,1,.33.15l1.06.56A13.43,13.43,0,0,1,270.83,5a14.1,14.1,0,0,1,2.27,4.17,18.9,18.9,0,0,1,.75,9.18c0,.38-.14.78-.22,1.17s-.17.82-.26,1.12l-.28,1c-.07.23-.08.22-.12.34l-.1.27-.2.54a39.85,39.85,0,0,1-1.85,4.06c-1.35,2.58-2.84,5.05-4.4,7.5s-3.19,4.85-4.88,7.26l-1.28,1.8-.33.45-.09.12-.16.23-.63.92-2.51,3.69c-.82,1.25-1.73,2.44-2.63,3.65l-2.71,3.63c-.93,1.19-1.91,2.36-2.87,3.54l-1.45,1.78-.73.89-.76.86a192.58,192.58,0,0,1-27.36,26l-3.88,2.91c-.65.48-1.29,1-2,1.45l-2,1.39-4,2.79L202,100.35l-2.09,1.32c-.7.44-1.42.84-2.13,1.26l-4.3,2.49c-1.45.82-2.93,1.57-4.4,2.36s-2.94,1.59-4.47,2.28l-4.55,2.16c-1.52.73-3.1,1.35-4.66,2-3.13,1.4-6.26,2.52-9.4,3.73l-1.22.46-1.19.43-2.38.85-4.77,1.71-9.6,3.44a224.12,224.12,0,0,1-40.38,10.36l-1.29.2c-.43.06-.82.14-1.4.19a10.22,10.22,0,0,1-3.26-.17A9.6,9.6,0,0,1,95,132a10.38,10.38,0,0,1-2.18-6.05,9.6,9.6,0,0,1,2-6.21A9.92,9.92,0,0,1,96,118.46c.22-.19.46-.4.67-.57l.53-.39L99.46,116l4.39-2.91,8.79-5.83c5.86-3.9,11.76-7.76,17.6-11.72s11.66-8,17.45-12,11.57-8.12,17.38-12.13l4.37-3,1.09-.75a2.38,2.38,0,0,0,.24-.17l.09-.09c.06-.06.14-.11.2-.16a1.94,1.94,0,0,0,.38-.67,2.3,2.3,0,0,0-.05-.88,2.21,2.21,0,0,0-.49-.81,1.3,1.3,0,0,0-.62-.36.49.49,0,0,1-.16,0s0,0,0,0,.08-.06-.07,0l-.32.07-.32.07s-.52.12,0,0c-6.81,2-13.62,3.74-20.39,5.48q-5.08,1.3-10.12,2.65c-3.36.9-6.71,1.82-10,2.82s-6.6,2-9.91,3.08-6.65,2.11-10,3.09-6.59,1.93-9.65,3.1A29.7,29.7,0,0,0,91,89.31a17.53,17.53,0,0,0-3.09,3.31l-.63.95-.55.93-.57,1.13-.52,1.09-4.32,9.16C78.45,112,75.65,118,72.86,124l-1,2.26a14.7,14.7,0,0,1-1.52,2.51,14.16,14.16,0,0,1-4.39,3.84,14.65,14.65,0,0,1-5.56,1.74c-.49.05-1,.05-1.46.07s-1,0-1.48-.09l-.79-.11-.38-.06-.3-.07-.59-.14-.4-.1-.29-.08L36,128.61c-3.07-.85-6.13-1.71-9.2-2.42s-6.16-1.35-9.23-1.95L13,123.33l-2.28-.47-1.13-.24A14.56,14.56,0,0,1,8,122.11a12.31,12.31,0,0,1-5.55-4.23,12.77,12.77,0,0,1-2.4-6.5,13,13,0,0,1,1.25-6.74,12.49,12.49,0,0,1,1.94-2.9,13.1,13.1,0,0,1,2.64-2.22l.73-.43.87-.42a5.8,5.8,0,0,1,.64-.26l.26-.1.43-.15,2.14-.66q2.13-.66,4.27-1.27c5.68-1.65,11.32-3.18,16.75-5s10.68-3.78,15.86-5.67L63,80c19.86-7.4,38-14.39,54-20.61l41.61-16Z" style="fill: #fff"/>
        <path d="M190.41,50.08A7.4,7.4,0,0,1,198,54.37L207.92,76a7.46,7.46,0,0,1-3.54,9.79c-15.14,7.24-58.55,27.54-68.31,31.94-9.23,4.16-13.53,1.95-16.68.33a9.64,9.64,0,0,0-2.94-1.16,7.37,7.37,0,0,0-6.61,2.41,4.46,4.46,0,0,0-.63,4.58c1.88,5,14.47,4.16,34.55-2.24l.76,2.38c-22.46,7.17-35.13,7.42-37.65.75a7,7,0,0,1,1-7,9.94,9.94,0,0,1,8.9-3.33,11.57,11.57,0,0,1,3.74,1.41c3,1.54,6.37,3.28,14.51-.39,9.75-4.4,53.13-24.68,68.26-31.92a5,5,0,0,0,2.35-6.49l-9.93-21.65a4.91,4.91,0,0,0-6.07-2.6l-76,26.09-.81-2.36,76-26.09A7.52,7.52,0,0,1,190.41,50.08Z" style="fill: #fff"/>
      </g>
    </g>
  </g>
</svg>
