<?xml version="1.0" encoding="utf-8"?>
<!-- Generator: Adobe Illustrator 21.1.0, SVG Export Plug-In . SVG Version: 6.00 Build 0)  -->
<svg version="1.1" id="Layer_1" xmlns="http://www.w3.org/2000/svg" xmlns:xlink="http://www.w3.org/1999/xlink" x="0px" y="0px"
	 viewBox="0 0 220.7 149.5" enable-background="new 0 0 220.7 149.5" xml:space="preserve">
<g>
	<circle fill="none" cx="153.1" cy="129.1" r="1.1"/>
	<circle fill="none" cx="153.1" cy="137.5" r="0.4"/>
	<ellipse fill="none" cx="11.9" cy="44.7" rx="5.7" ry="5.7"/>
	<circle fill="none" cx="182.2" cy="112.1" r="2.6"/>
	<circle fill="none" cx="123.1" cy="137.5" r="0.4"/>
	<circle fill="none" cx="123.1" cy="129.1" r="1.1"/>
	<path fill="none" d="M114.2,146.1v-9.3h-7.7c-3.5,0-6.4-2.9-6.4-6.4v-9.1c0-2.3-1.9-4.2-4.2-4.2h-2.8c-0.4,1-1.4,1.7-2.6,1.7
		c-1.2,0-2.2-0.7-2.6-1.7h-5.7v5.8c0,2.1-1.7,3.8-3.8,3.8h-1.8v20.7h37.8C114.3,147,114.2,146.5,114.2,146.1z"/>
	<rect x="49.7" y="54" fill="none" width="1.6" height="5.6"/>
	<path fill="none" d="M117.5,147.2h4.1c0.6,0,1-0.5,1-1v-2.6h-1.2c-1.9,0-3.7-0.8-5-2v4.6C116.4,146.7,116.9,147.2,117.5,147.2z"/>
	<path fill="none" d="M151.6,147.3c-0.2-0.4-0.2-0.8-0.2-1.2v-2.6h-26.5v2.6c0,0.4-0.1,0.8-0.2,1.2H151.6z"/>
	<path fill="none" d="M153.5,146.1c0,0.6,0.5,1,1,1h4.1c0.6,0,1-0.5,1-1v-4.6c-1.3,1.2-3,2-5,2h-1.2V146.1z"/>
	<path fill="none" d="M78.4,124.4c0.9,0,1.6-0.7,1.6-1.6v-11.6c0-0.9-0.7-1.6-1.6-1.6h-1.8v14.7H78.4z"/>
	<circle fill="none" cx="164.1" cy="51.3" r="2.6"/>
	<path fill="none" d="M131.1,86.5c0-0.1,0-0.1,0-0.2v-4.8h-26.7v4.8c0,0.1,0,0.1,0,0.2H131.1z"/>
	<path fill="none" d="M133.3,86.3l6.5,0l0-7.5l-1.4,1.4c-0.8,0.8-1.9,1.3-3.1,1.3h-2V86.3z"/>
	<path fill="none" d="M93.5,86.3V74.8v-0.7v-5.9h-5.9c-1.7,0-3.2,1.3-3.5,2.9c1,0.4,1.6,1.4,1.6,2.6c0,1.2-0.7,2.2-1.8,2.6
		c-0.4,4-3.8,7.2-7.9,7.2c-3.9,0-7-3.2-7-7v-4.7c0-1.8-1.4-3.2-3.2-3.2h-4.1v18h31.8C93.5,86.5,93.5,86.4,93.5,86.3z"/>
	<path fill="none" d="M21.6,62.2c0-5.3-4.3-9.7-9.7-9.7c-5.3,0-9.7,4.4-9.7,9.7c0,5.3,4.3,9.7,9.7,9.7
		C17.2,71.9,21.6,67.6,21.6,62.2z"/>
	<path fill="none" d="M102.2,86.4l0-4.9h-2c-1.1,0-2.3-0.5-3.1-1.3l-1.4-1.4v7.5L102.2,86.4z"/>
	<path fill="none" d="M35.4,71.7c-3.1,0-5.6,2.5-5.6,5.6v0.4c1,0.4,1.7,1.4,1.7,2.6c0,1.2-0.7,2.2-1.7,2.6v3.6h10.3V71.7H35.4z"/>
	<rect x="140.9" y="31.1" fill="#FFFFFF" width="2.2" height="5.5"/>
	<rect x="159.8" y="31.1" fill="#FFFFFF" width="2.2" height="5.5"/>
	<rect x="47.3" y="9.5" fill="#FFFFFF" width="2.2" height="5.5"/>
	<rect x="47.3" y="23.5" fill="#FFFFFF" width="2.2" height="5.5"/>
	<path fill="#FFFFFF" d="M13,2.2h44.4v26.9h2.2v-28c0-0.6-0.5-1.1-1.1-1.1H11.9c-0.6,0-1.1,0.5-1.1,1.1v28H13V2.2z"/>
	<path fill="#FFFFFF" d="M220.3,16.1c-0.2-0.2-0.5-0.3-0.8-0.3h-95.9c-0.6,0-1.1,0.5-1.1,1.1v19.8h2.2V18h93.7l-0.2,69.6h-8.9V58.6
		c0-6.4-5.2-11.6-11.6-11.6c-6.4,0-11.6,5.2-11.6,11.6v27.9h-18.3V74.3h1.4c0.6,0,1.1-0.5,1.1-1.1V62.3h-2.2v9.8h-2v0h-8.1v-8.2
		c0-2.2,1.8-4,4-4h6.3c3,0,5.6-1.8,6.8-4.5l2.8-6.5l-2-0.9l-2.8,6.5c-0.8,1.9-2.7,3.1-4.7,3.1h-6.3c-3.4,0-6.2,2.8-6.2,6.2v9.3
		c0,0.6,0.5,1.1,1.1,1.1h8.6v12.2h-3.5v-10H160v10h-18c0-0.1,0-0.1,0-0.2V74.8v-0.7v-7.4c0-1.7-0.4-3.4-1.3-5l-1.5-2.7l0.1-0.1
		l3.9,0v-2.2l-4.3,0c-0.3,0-0.5,0.1-0.7,0.3l-0.5,0.4c-0.7,0.6-0.9,1.7-0.5,2.6l1.5,2.8c0.7,1.2,1,2.6,1,3.9v7.4l0,0.7
		c0,0.6-0.2,1.1-0.6,1.5l-2.3,2.3c-0.4,0.4-1,0.6-1.5,0.6h-35.1c-0.6,0-1.1-0.2-1.5-0.6l-2.3-2.3c-0.4-0.4-0.6-1-0.6-1.5v-0.7v-7.4
		c0-1.4,0.3-2.7,1-3.9l1.5-2.8c0.5-0.9,0.3-2-0.5-2.6l-0.5-0.4c-0.2-0.2-0.4-0.3-0.7-0.3l-4.3,0V59l3.9,0l0.1,0.1l-1.5,2.7
		c-0.7,1.3-1.1,2.7-1.2,4.2h-6c-2.9,0-5.4,2.2-5.7,5.1c-1,0.4-1.8,1.4-1.8,2.6c0,1.1,0.7,2.1,1.7,2.6c-0.4,2.8-2.8,5-5.7,5
		c-2.7,0-4.8-2.2-4.8-4.8v-4.7c0-3-2.4-5.4-5.4-5.4h-4.1V48.2c0-4.1-3.3-7.4-7.4-7.4h-6.9c-4.1,0-7.4,3.3-7.4,7.4v21.3h-4.7
		c-4.3,0-7.8,3.5-7.8,7.8v0.4c-1,0.4-1.7,1.4-1.7,2.6c0,1.2,0.7,2.2,1.7,2.6v3.6H13V74.1c6-0.6,10.8-5.7,10.8-11.8
		c0-5-3.1-9.3-7.5-11c2.1-1.4,3.5-3.8,3.5-6.6c0-4.4-3.5-7.9-7.9-7.9c-4.4,0-7.9,3.5-7.9,7.9c0,2.7,1.4,5.1,3.5,6.6
		C3.1,53,0,57.2,0,62.2c0,6.2,4.7,11.3,10.8,11.8v12.4H1.1v2.2h40.1c0.6,0,1.1-0.5,1.1-1.1V48.2c0-2.8,2.3-5.2,5.2-5.2h6.9
		c2.8,0,5.2,2.3,5.2,5.2v39.4c0,0.6,0.5,1.1,1.1,1.1h126.7c0.6,0,1.1-0.5,1.1-1.1v-29c0-5.2,4.2-9.4,9.4-9.4s9.4,4.2,9.4,9.4v30
		c0,0.6,0.5,1.1,1.1,1.1h11.1c0.6,0,1.1-0.5,1.1-1.1l0.2-71.8C220.7,16.6,220.5,16.3,220.3,16.1z M6.2,44.7c0-3.1,2.6-5.7,5.7-5.7
		c3.1,0,5.7,2.6,5.7,5.7s-2.6,5.7-5.7,5.7C8.8,50.3,6.2,47.8,6.2,44.7z M2.2,62.2c0-5.3,4.3-9.7,9.7-9.7c5.3,0,9.7,4.4,9.7,9.7
		c0,5.3-4.3,9.7-9.7,9.7C6.5,71.9,2.2,67.6,2.2,62.2z M29.8,86.5v-3.6c1-0.4,1.7-1.4,1.7-2.6c0-1.2-0.7-2.2-1.7-2.6v-0.4
		c0-3.1,2.5-5.6,5.6-5.6h4.7v14.8H29.8z M104.4,81.5h26.7v4.8c0,0.1,0,0.1,0,0.2h-26.7c0-0.1,0-0.1,0-0.2V81.5z M138.3,80.2l1.4-1.4
		l0,7.5l-6.5,0v-4.8h2C136.4,81.5,137.5,81.1,138.3,80.2z M97.1,80.2c0.8,0.8,1.9,1.3,3.1,1.3h2l0,4.9l-6.5,0v-7.5L97.1,80.2z
		 M61.7,68.5h4.1c1.8,0,3.2,1.4,3.2,3.2v4.7c0,3.9,3.2,7,7,7c4.1,0,7.5-3.2,7.9-7.2c1-0.4,1.8-1.4,1.8-2.6c0-1.1-0.7-2.1-1.6-2.6
		c0.3-1.7,1.8-2.9,3.5-2.9h5.9v5.9v0.7v11.5c0,0.1,0,0.1,0,0.2H61.7V68.5z"/>
	<path fill="#FFFFFF" d="M219.4,92.6h-84.9v2.2h83.8l-0.1,31.5h-9.9c-0.6,0-1.1,0.5-1.1,1.1v9h-10c-0.6,0-1.1,0.5-1.1,1.1v9.8h-9.9
		v-10h-2.2v10h-3.5v-12.2h8.6c0.6,0,1.1-0.5,1.1-1.1v-9.3c0-3.4-2.8-6.2-6.2-6.2h-0.8h-2.4c-3,0-5.6,1.8-6.8,4.5l-3.4,7.8l2,0.9
		l3.4-7.8c0.8-1.9,2.7-3.1,4.7-3.1h2.4h0.8c2.2,0,4,1.8,4,4v8.2h-8.6c-0.6,0-1.1,0.5-1.1,1.1v13.3h-16.7c0.2-0.4,0.2-0.8,0.2-1.2
		v-9.8V128c0-2-0.5-3.4-1.4-4.9l-0.5-0.9c0-0.1-0.1-0.1-0.1-0.2l3.8,0c1.7,0,3-1.3,3-3c0-1.3-0.9-2.5-2.1-2.9l-3.3-1
		c-0.9-0.3-1.8-0.1-2.6,0.5c-0.7,0.6-1.2,1.4-1.2,2.3h2.2c0-0.3,0.2-0.5,0.3-0.6c0.2-0.1,0.4-0.2,0.6-0.1l3.3,1
		c0.3,0.1,0.6,0.4,0.6,0.8c0,0.4-0.4,0.8-0.8,0.8l-4.4,0c-0.3,0-0.5,0.1-0.7,0.3l-0.6,0.5c-0.7,0.6-0.8,1.4-0.1,2.5
		c0,0.1,0.1,0.1,0.1,0.2l0.5,0.9c0.7,1.3,1.1,2.3,1.1,3.9v8.3c0,2.7-2.2,5-5,5h-33.4c-2.7,0-5-2.2-5-5V128c0-1.5,0.4-2.6,1.1-3.9
		l0.5-0.9c0-0.1,0.1-0.1,0.1-0.2c0.7-1,0.6-1.8-0.1-2.5l-0.6-0.5c-0.2-0.2-0.4-0.3-0.7-0.3l-4.4,0c-0.4,0-0.8-0.4-0.8-0.8
		c0-0.4,0.2-0.7,0.6-0.8l3.3-1c0.2-0.1,0.4,0,0.6,0.1c0.1,0.1,0.3,0.3,0.3,0.6h2.2c0-0.9-0.4-1.8-1.2-2.3s-1.7-0.7-2.6-0.5l-3.3,1
		c-1.3,0.4-2.1,1.5-2.1,2.9c0,1.7,1.3,3,3,3l3.8,0c0,0.1-0.1,0.1-0.1,0.2l-0.5,0.9c-0.9,1.6-1.4,2.9-1.4,4.9v6.6h-7.7
		c-2.3,0-4.2-1.9-4.2-4.2v-9.1c0-3.5-2.9-6.4-6.4-6.4h-2.8c-0.4-1-1.4-1.7-2.6-1.7c-1.2,0-2.2,0.7-2.6,1.7h-5.7v-3.7
		c0-2.1-1.7-3.8-3.8-3.8h-1.8v-6.7h-2.2v47.7c0,0.6,0.5,1.1,1.1,1.1h103.9h5.7h12.1c0.6,0,1.1-0.5,1.1-1.1v-9.8h10
		c0.6,0,1.1-0.5,1.1-1.1v-9h9.9c0.6,0,1.1-0.5,1.1-1.1l0.1-33.7c0-0.3-0.1-0.6-0.3-0.8C219.9,92.8,219.7,92.6,219.4,92.6z
		 M124.8,143.5h26.5v2.6c0,0.4,0.1,0.8,0.2,1.2h-27c0.2-0.4,0.2-0.8,0.2-1.2V143.5z M159.7,141.5v4.6c0,0.6-0.5,1-1,1h-4.1
		c-0.6,0-1-0.5-1-1v-2.6h1.2C156.7,143.5,158.4,142.7,159.7,141.5z M121.4,143.5h1.2v2.6c0,0.6-0.5,1-1,1h-4.1c-0.6,0-1-0.5-1-1
		v-4.6C117.7,142.7,119.5,143.5,121.4,143.5z M78.4,109.6c0.9,0,1.6,0.7,1.6,1.6v11.6c0,0.9-0.7,1.6-1.6,1.6h-1.8v-14.7H78.4z
		 M76.6,126.6h1.8c2.1,0,3.8-1.7,3.8-3.8v-5.8h5.7c0.4,1,1.4,1.7,2.6,1.7c1.2,0,2.2-0.7,2.6-1.7h2.8c2.3,0,4.2,1.9,4.2,4.2v9.1
		c0,3.5,2.9,6.4,6.4,6.4h7.7v9.3c0,0.4,0.1,0.8,0.2,1.2H76.6V126.6z"/>
	<path fill="#FFFFFF" d="M52.4,51.8h-0.8v-1.4h-2.2v1.4h-0.8c-0.6,0-1.1,0.5-1.1,1.1v7.8c0,0.6,0.5,1.1,1.1,1.1h3.8
		c0.6,0,1.1-0.5,1.1-1.1v-7.8C53.5,52.3,53,51.8,52.4,51.8z M51.3,59.6h-1.6V54h1.6V59.6z"/>
	<rect x="47.9" y="67.1" fill="#FFFFFF" width="5.2" height="2.2"/>
	<rect x="47.9" y="71.7" fill="#FFFFFF" width="5.2" height="2.2"/>
	<rect x="47.9" y="76.3" fill="#FFFFFF" width="5.2" height="2.2"/>
	<path fill="#FFFFFF" d="M107.6,65c-3.4,0-7-1.4-7-1.4l-0.8,2c0.2,0.1,3.9,1.5,7.8,1.5V65z"/>
	<path fill="#FFFFFF" d="M134.8,63.7c0,0-3.6,1.4-7,1.4v2.2c3.9,0,7.6-1.5,7.8-1.5L134.8,63.7z"/>
	<path fill="#FFFFFF" d="M103.9,50.2c0.6-1,1.7-1.7,2.9-1.7h21.9c1.2,0,2.3,0.6,2.9,1.7l3.8,6l1.9-1.2l-3.8-6
		c-1-1.7-2.8-2.7-4.8-2.7h-21.9c-2,0-3.8,1.1-4.8,2.7l-3.8,6l1.9,1.2L103.9,50.2z"/>
	<rect x="106.9" y="75" fill="#FFFFFF" width="21.5" height="2.2"/>
	<path fill="#FFFFFF" d="M164.1,56.1c2.7,0,4.8-2.2,4.8-4.8s-2.2-4.8-4.8-4.8s-4.8,2.2-4.8,4.8S161.4,56.1,164.1,56.1z M164.1,48.7
		c1.4,0,2.6,1.2,2.6,2.6s-1.2,2.6-2.6,2.6s-2.6-1.2-2.6-2.6S162.6,48.7,164.1,48.7z"/>
	
		<rect x="151.8" y="47.8" transform="matrix(0.8421 -0.5393 0.5393 0.8421 -4.5711 90.888)" fill="#FFFFFF" width="2.2" height="11"/>
	<path fill="#FFFFFF" d="M147.4,106.2h-18.6c-2.1,0-4.1,1.1-5.2,3l-3.8,6.4l1.9,1.1l3.8-6.4c0.7-1.2,1.9-1.9,3.3-1.9h18.6
		c1.3,0,2.6,0.7,3.3,1.9l3.7,6.4l1.9-1.1l-3.7-6.4C151.5,107.3,149.5,106.2,147.4,106.2z"/>
	<rect x="129.8" y="136.9" fill="#FFFFFF" width="16.6" height="2.2"/>
	<path fill="#FFFFFF" d="M123.1,134.8c-1.4,0-2.6,1.2-2.6,2.6s1.2,2.6,2.6,2.6s2.6-1.2,2.6-2.6S124.5,134.8,123.1,134.8z
		 M123.1,137.9c-0.2,0-0.4-0.2-0.4-0.4s0.2-0.4,0.4-0.4s0.4,0.2,0.4,0.4S123.3,137.9,123.1,137.9z"/>
	<path fill="#FFFFFF" d="M123.1,132.5c1.8,0,3.3-1.5,3.3-3.3c0-1.8-1.5-3.3-3.3-3.3s-3.3,1.5-3.3,3.3
		C119.7,131,121.2,132.5,123.1,132.5z M123.1,128c0.6,0,1.1,0.5,1.1,1.1c0,0.6-0.5,1.1-1.1,1.1c-0.6,0-1.1-0.5-1.1-1.1
		C121.9,128.5,122.4,128,123.1,128z"/>
	<path fill="#FFFFFF" d="M153.1,134.8c-1.4,0-2.6,1.2-2.6,2.6s1.2,2.6,2.6,2.6s2.6-1.2,2.6-2.6S154.5,134.8,153.1,134.8z
		 M153.1,137.9c-0.2,0-0.4-0.2-0.4-0.4s0.2-0.4,0.4-0.4s0.4,0.2,0.4,0.4S153.3,137.9,153.1,137.9z"/>
	<path fill="#FFFFFF" d="M153.1,125.8c-1.8,0-3.3,1.5-3.3,3.3c0,1.8,1.5,3.3,3.3,3.3s3.3-1.5,3.3-3.3
		C156.4,127.3,154.9,125.8,153.1,125.8z M153.1,130.3c-0.6,0-1.1-0.5-1.1-1.1c0-0.6,0.5-1.1,1.1-1.1s1.1,0.5,1.1,1.1
		C154.2,129.8,153.7,130.3,153.1,130.3z"/>
	<path fill="#FFFFFF" d="M187,112.1c0-2.7-2.2-4.8-4.8-4.8c-2.7,0-4.8,2.2-4.8,4.8s2.2,4.8,4.8,4.8C184.9,116.9,187,114.8,187,112.1
		z M179.6,112.1c0-1.4,1.2-2.6,2.6-2.6s2.6,1.2,2.6,2.6s-1.2,2.6-2.6,2.6S179.6,113.6,179.6,112.1z"/>
</g>
</svg>
