<?xml version="1.0" encoding="utf-8"?>
<!-- Generator: Adobe Illustrator 19.0.0, SVG Export Plug-In . SVG Version: 6.00 Build 0)  -->
<svg version="1.1" id="Layer_1" xmlns="http://www.w3.org/2000/svg" xmlns:xlink="http://www.w3.org/1999/xlink" x="0px" y="0px"
	 viewBox="-423 544.3 336 158.2" enable-background="new -423 544.3 336 158.2" xml:space="preserve">
<title>CardsRome</title>
<g>
	
		<line opacity="0.5" fill="none" stroke="#FFFFFF" stroke-width="3" stroke-linejoin="round" enable-background="new    " x1="-147" y1="552.5" x2="-87" y2="552.5"/>
	
		<line opacity="0.5" fill="none" stroke="#FFFFFF" stroke-width="3" stroke-linejoin="round" enable-background="new    " x1="-244" y1="552.5" x2="-166.5" y2="552.5"/>
	
		<line opacity="0.5" fill="none" stroke="#FFFFFF" stroke-width="3" stroke-linejoin="round" enable-background="new    " x1="-343.8" y1="552.5" x2="-265.1" y2="552.5"/>
	
		<line opacity="0.5" fill="none" stroke="#FFFFFF" stroke-width="3" stroke-linejoin="round" enable-background="new    " x1="-423" y1="552.5" x2="-363.9" y2="552.5"/>
	
		<line opacity="0.5" fill="none" stroke="#FFFFFF" stroke-width="3" stroke-linejoin="round" enable-background="new    " x1="-363.2" y1="560.3" x2="-423" y2="560.3"/>
	
		<line opacity="0.5" fill="none" stroke="#FFFFFF" stroke-width="3" stroke-linejoin="round" enable-background="new    " x1="-266.5" y1="560.3" x2="-342.9" y2="560.3"/>
	
		<line opacity="0.5" fill="none" stroke="#FFFFFF" stroke-width="3" stroke-linejoin="round" enable-background="new    " x1="-166.5" y1="560.3" x2="-244" y2="560.3"/>
	
		<line opacity="0.5" fill="none" stroke="#FFFFFF" stroke-width="3" stroke-linejoin="round" enable-background="new    " x1="-87" y1="560.3" x2="-146.7" y2="560.3"/>
	<line fill="none" stroke="#FFFFFF" stroke-width="3" stroke-linejoin="round" x1="-166.5" y1="561.4" x2="-181.6" y2="588.4"/>
	<line fill="none" stroke="#FFFFFF" stroke-width="3" stroke-linejoin="round" x1="-170.4" y1="593.5" x2="-156.1" y2="567.9"/>
	<path fill="none" stroke="#FFFFFF" stroke-width="3" stroke-linejoin="round" d="M-172.1,591.5c-3.9-4.5-10.7-5-15.2-1.1
		c-4.5,3.9-5,10.7-1.1,15.2c3.9,4.5,10.7,5,15.2,1.1c1.3-1.1,2.3-2.5,2.9-4.1C-168.7,599-169.4,594.6-172.1,591.5"/>
	<circle opacity="0.5" fill="#FFFFFF" enable-background="new    " cx="-180.3" cy="598.7" r="3.4"/>
	<circle fill="none" stroke="#FFFFFF" stroke-width="3" stroke-linejoin="round" cx="-156.8" cy="556.6" r="10.8"/>
	<circle opacity="0.5" fill="#FFFFFF" enable-background="new    " cx="-156.8" cy="556.6" r="3.4"/>
	<line fill="none" stroke="#FFFFFF" stroke-width="3" stroke-linejoin="round" x1="-185.6" y1="606.9" x2="-194.8" y2="620.9"/>
	<line fill="none" stroke="#FFFFFF" stroke-width="3" stroke-linejoin="round" x1="-346.9" y1="565.5" x2="-347" y2="596.4"/>
	<line fill="none" stroke="#FFFFFF" stroke-width="3" stroke-linejoin="round" x1="-359.3" y1="595.4" x2="-359.2" y2="566"/>
	<path fill="none" stroke="#FFFFFF" stroke-width="3" stroke-linejoin="round" d="M-356.8,594.5c5.6-2,11.8,0.9,13.8,6.5
		c2,5.6-0.9,11.8-6.5,13.8c-5.6,2-11.8-0.9-13.8-6.5c-0.6-1.6-0.8-3.3-0.6-5C-363.4,599.3-360.7,595.9-356.8,594.5"/>
	<circle opacity="0.5" fill="#FFFFFF" enable-background="new    " cx="-353.2" cy="604.8" r="3.4"/>
	<circle fill="none" stroke="#FFFFFF" stroke-width="3" stroke-linejoin="round" cx="-353.1" cy="556.6" r="10.8"/>
	<circle opacity="0.5" fill="#FFFFFF" enable-background="new    " cx="-353.1" cy="556.6" r="3.4"/>
	<polyline fill="none" stroke="#FFFFFF" stroke-width="3" stroke-linejoin="round" points="-350.6,614.2 -328.8,635.9 -323.8,650.7 
		-309.8,655 -302.5,647.8 -306.9,633.8 -321.6,628.8 -343.4,607 	"/>
	<line fill="none" stroke="#FFFFFF" stroke-width="3" stroke-linejoin="round" x1="-261.2" y1="565.5" x2="-261.2" y2="596.4"/>
	<line fill="none" stroke="#FFFFFF" stroke-width="3" stroke-linejoin="round" x1="-248.9" y1="595.4" x2="-248.9" y2="566.1"/>
	<path fill="none" stroke="#FFFFFF" stroke-width="3" stroke-linejoin="round" d="M-251.3,594.6c-5.6-2.1-11.8,0.8-13.9,6.4
		c-2.1,5.6,0.8,11.8,6.4,13.9c5.6,2.1,11.8-0.8,13.9-6.4c0.6-1.6,0.8-3.3,0.6-5C-244.8,599.4-247.5,596-251.3,594.6"/>
	<circle opacity="0.5" fill="#FFFFFF" enable-background="new    " cx="-255" cy="604.8" r="3.4"/>
	<circle fill="none" stroke="#FFFFFF" stroke-width="3" stroke-linejoin="round" cx="-255" cy="556.6" r="10.8"/>
	<circle opacity="0.5" fill="#FFFFFF" enable-background="new    " cx="-255" cy="556.6" r="3.4"/>
	<polyline fill="none" stroke="#FFFFFF" stroke-width="3" stroke-linejoin="round" points="-248,613 -252,631.9 -258,631.9 
		-262,613 	"/>
	<path fill="none" stroke="#FFFFFF" stroke-width="3" stroke-linejoin="round" d="M-197.6,633.1h-9.8c-2.8,0-5.1,2.2-5.2,5.1
		l-0.9,39.3h22l-0.9-39.4C-192.5,635.4-194.8,633.2-197.6,633.1z"/>
	<polyline fill="none" stroke="#FFFFFF" stroke-width="3" stroke-linejoin="round" points="-184.8,689.7 -184.8,677.5 -220.2,677.5 
		-220.2,689.7 	"/>
	<polyline fill="none" stroke="#FFFFFF" stroke-width="3" stroke-linejoin="round" points="-330.3,690.3 -330.3,677.5 -352.2,677.5 
		-352.2,690.3 	"/>
	<line fill="none" stroke="#FFFFFF" stroke-width="3" stroke-linejoin="round" x1="-252.1" y1="690.3" x2="-252.1" y2="677.5"/>
	<line fill="none" stroke="#FFFFFF" stroke-width="3" stroke-linejoin="round" x1="-267.6" y1="690.3" x2="-267.6" y2="667.7"/>
	<line fill="none" stroke="#FFFFFF" stroke-width="3" stroke-linejoin="round" x1="-314.4" y1="690.3" x2="-314.4" y2="677.5"/>
	<line fill="none" stroke="#FFFFFF" stroke-width="3" stroke-linejoin="round" x1="-298.8" y1="690.3" x2="-298.8" y2="667.7"/>
	<line fill="none" stroke="#FFFFFF" stroke-width="3" stroke-linejoin="round" x1="-283.6" y1="690.3" x2="-283.6" y2="667.7"/>
	<line fill="none" stroke="#FFFFFF" stroke-width="3" stroke-linejoin="round" x1="-236.1" y1="690.3" x2="-236.1" y2="677.5"/>
	<polyline fill="none" stroke="#FFFFFF" stroke-width="3" stroke-linejoin="round" points="-375.5,702.5 -375.5,690.3 -134.5,690.3 
		-134.5,702.5 	"/>
	<path opacity="0.3" fill="none" stroke="#FFFFFF" stroke-width="3" stroke-linejoin="round" enable-background="new    " d="
		M-192.2,653.1h8.8c4.4,0,7.9,3.6,7.9,7.9l0,0v13.4c0,6.4,5.2,11.7,11.7,11.7h20.5"/>
</g>
</svg>
