<?xml version="1.0" encoding="utf-8"?>
<!-- Generator: Adobe Illustrator 19.0.0, SVG Export Plug-In . SVG Version: 6.00 Build 0)  -->
<svg version="1.1" id="Layer_1" xmlns="http://www.w3.org/2000/svg" xmlns:xlink="http://www.w3.org/1999/xlink" x="0px" y="0px"
	 viewBox="-423 554.3 336 150.1" enable-background="new -423 554.3 336 150.1" xml:space="preserve">
<title>CardsRome</title>
<g>
	<path fill="none" stroke="#FFFFFF" stroke-width="3" stroke-linejoin="round" d="M-177.5,679.9v21c0,1.1-0.9,1.9-1.9,1.9h-11.1
		c-1.1,0-1.9-0.9-1.9-1.9v-10.2"/>
	<path fill="none" stroke="#FFFFFF" stroke-width="3" stroke-linejoin="round" d="M-266.8,652h7.4l0.8,0.7c0.6,0.5,0.8,1.4,0.4,2.1
		l-2.6,4.8c-1.3,2.3-1.9,5-1.9,7.6V681c0,1.5,0.6,2.9,1.6,4l4,4c1.1,1.1,2.5,1.6,4,1.6h65.9c1.5,0,2.9-0.6,4-1.6l4-4
		c1.1-1.1,1.6-2.5,1.6-4v-13.8c0-2.7-0.7-5.3-1.9-7.6l-2.6-4.8c-0.4-0.7-0.2-1.6,0.4-2.1l0.8-0.7h7.4"/>
	<path fill="none" stroke="#FFFFFF" stroke-width="3" stroke-linejoin="round" d="M-262.7,679.9v21c0,1.1,0.9,1.9,1.9,1.9h11.1
		c1.1,0,1.9-0.9,1.9-1.9v-10.2"/>
	<path fill="none" stroke="#FFFFFF" stroke-width="3" stroke-linejoin="round" d="M-187.3,663.6c-4.1,1.5-8.4,2.4-12.7,2.5"/>
	<path fill="none" stroke="#FFFFFF" stroke-width="3" stroke-linejoin="round" d="M-252.9,663.6c4.1,1.5,8.4,2.4,12.7,2.5"/>
	<path fill="none" stroke="#FFFFFF" stroke-width="3" stroke-linejoin="round" d="M-254.9,648.2l6.6-10.4c1.4-2.3,3.9-3.8,6.6-3.8
		h43.2c2.7,0,5.2,1.4,6.6,3.8l6.6,10.4"/>
	<polyline fill="none" stroke="#FFFFFF" stroke-width="3" stroke-linejoin="round" points="-241.4,683.3 -220.1,683.3 -198.8,683.3 
			"/>
	<path fill="none" stroke="#FFFFFF" stroke-width="3" stroke-linejoin="round" d="M-313,654.8h-8.2c-2.4,0-4.3,1.9-4.4,4.2l-0.8,33
		h18.5l-0.8-33C-308.7,656.7-310.6,654.8-313,654.8z"/>
	<rect x="-331.9" y="692" fill="none" stroke="#FFFFFF" stroke-width="3" stroke-linejoin="round" width="29.7" height="10.2"/>
	<polyline fill="none" stroke="#FFFFFF" stroke-width="3" stroke-linejoin="round" points="-317.1,643.2 -317.1,588.4 -423,588.4 	
		"/>
	<polyline fill="none" stroke="#FFFFFF" stroke-width="3" stroke-linejoin="round" points="-382.9,588.4 -369.5,555.8 -397.5,555.8 
		-406.3,579.5 	"/>
	<polyline fill="none" stroke="#FFFFFF" stroke-width="3" stroke-linejoin="round" points="-337.2,588.3 -323.9,555.8 -351.8,555.8 
		-360.6,579.5 	"/>
	<line fill="none" stroke="#FFFFFF" stroke-width="3" stroke-linejoin="round" x1="-334.9" y1="603.8" x2="-334.9" y2="612.5"/>
	<line fill="none" stroke="#FFFFFF" stroke-width="3" stroke-linejoin="round" x1="-334.9" y1="623.8" x2="-334.9" y2="632.5"/>
	<path opacity="0.3" fill="none" stroke="#FFFFFF" stroke-width="3" stroke-linejoin="round" enable-background="new    " d="
		M-308,668.7h3.9c4.2,0,7.7,3.4,7.7,7.7l0,0v6.1c0,6.2,5.1,11.3,11.3,11.3l0,0l0,0c6.2,0,11.3-5.1,11.3-11.3l0,0v-6.2
		c0-3.9,3.2-7.1,7.1-7.1h4.1"/>
	<path opacity="0.3" fill="none" stroke="#FFFFFF" stroke-width="3" stroke-linejoin="round" enable-background="new    " d="
		M-397.2,588.3l0.1,94.7c0,11,8.9,19.9,19.9,19.9h56.7"/>
	<circle fill="#FFFFFF" stroke="#FFFFFF" stroke-miterlimit="10" cx="-397.1" cy="628.2" r="3.1"/>
	<circle fill="#FFFFFF" stroke="#FFFFFF" stroke-miterlimit="10" cx="-296.4" cy="679.3" r="3.1"/>
	<circle fill="none" stroke="#FFFFFF" stroke-width="3" stroke-linejoin="round" cx="-140.3" cy="644.5" r="5.9"/>
	<path fill="none" stroke="#FFFFFF" stroke-width="3" stroke-linejoin="round" d="M-145.1,685v17.7h9.1v-23.1h-15.6v-14.9
		c0-4.5,3.6-8.2,8.1-8.2c0,0,0,0,0,0h10.1c4,0,7.7-2.4,9.2-6.1l4.5-10.5"/>
	<line fill="none" stroke="#FFFFFF" stroke-width="3" stroke-linejoin="round" x1="-153.5" y1="655.1" x2="-163" y2="640.2"/>
	<polyline fill="none" stroke="#FFFFFF" stroke-width="3" stroke-linejoin="round" points="-136.8,679.7 -131.9,679.7 -131.9,662.1 
			"/>
	<line fill="none" stroke="#FFFFFF" stroke-width="3" stroke-linejoin="round" x1="-87" y1="702.8" x2="-423" y2="702.8"/>
</g>
</svg>
