<svg xmlns="http://www.w3.org/2000/svg" viewBox="0 0 136.63 124.81">
  <title>enelx-b2p</title>
  <g id="Layer_2" data-name="Layer 2">
    <g id="copy">
      <g>
        <polyline points="31.8 86.55 31.8 1.21 94.69 1.21 94.69 104.59 90.16 104.59" style="fill: none;stroke: #fff;stroke-linejoin: round;stroke-width: 2.410585105419159px"/>
        <polyline points="94.91 33.27 116.43 33.27 116.43 52.27 135.42 52.27 135.42 104.59 94.91 104.59" style="fill: none;stroke: #fff;stroke-linejoin: round;stroke-width: 2.410585105419159px"/>
        <polyline points="31.59 47.2 1.21 47.2 1.21 104.59 14.44 104.59" style="fill: none;stroke: #fff;stroke-linejoin: round;stroke-width: 2.410585105419159px"/>
        <path d="M19.25,96.05l3.87-3.78A27.62,27.62,0,0,1,42.4,84.43H56.84a11,11,0,0,1,10,6.47A11,11,0,0,0,74,97l9.88,2.71a8.56,8.56,0,0,1,4.72,13.19,6.73,6.73,0,0,1-5.49,2.84H73.47a7.78,7.78,0,0,1-7.89,7.84c-4.36,0-7.9-4.26-7.9-7.84H34.14c0,3.58-3.46,7.9-7.82,7.9a7.77,7.77,0,0,1-7.82-7.9,5.44,5.44,0,0,1-5.44-5.44,28.51,28.51,0,0,1,6.08-14.09Z" style="fill: none;stroke: #fff;stroke-linejoin: round;stroke-width: 2.410585105419159px"/>
        <path d="M50.05,21.73H45a2.33,2.33,0,0,1-2.33-2.33v-5A2.33,2.33,0,0,1,45,12h5a2.32,2.32,0,0,1,2.33,2.32v5a2.33,2.33,0,0,1-2.33,2.33" style="fill: none;stroke: #fff;stroke-linejoin: round;stroke-width: 2.410585105419159px"/>
        <path d="M65.26,21.73H60.2a2.32,2.32,0,0,1-2.32-2.33v-5A2.32,2.32,0,0,1,60.2,12h5.06a2.32,2.32,0,0,1,2.32,2.32v5a2.32,2.32,0,0,1-2.32,2.33" style="fill: none;stroke: #fff;stroke-linejoin: round;stroke-width: 2.410585105419159px"/>
        <path d="M80.46,21.73h-5a2.33,2.33,0,0,1-2.33-2.33v-5A2.32,2.32,0,0,1,75.41,12h5a2.32,2.32,0,0,1,2.33,2.32v5a2.33,2.33,0,0,1-2.33,2.33" style="fill: none;stroke: #fff;stroke-linejoin: round;stroke-width: 2.410585105419159px"/>
        <path d="M50.05,38.2H45a2.33,2.33,0,0,1-2.33-2.32V30.82A2.33,2.33,0,0,1,45,28.5h5a2.32,2.32,0,0,1,2.33,2.32v5.06a2.32,2.32,0,0,1-2.33,2.32" style="fill: none;stroke: #fff;stroke-linejoin: round;stroke-width: 2.410585105419159px"/>
        <path d="M65.26,38.2H60.2a2.32,2.32,0,0,1-2.32-2.32V30.82A2.32,2.32,0,0,1,60.2,28.5h5.06a2.32,2.32,0,0,1,2.32,2.32v5.06a2.32,2.32,0,0,1-2.32,2.32" style="fill: none;stroke: #fff;stroke-linejoin: round;stroke-width: 2.410585105419159px"/>
        <path d="M80.46,38.2h-5a2.32,2.32,0,0,1-2.33-2.32V30.82a2.32,2.32,0,0,1,2.33-2.32h5a2.32,2.32,0,0,1,2.33,2.32v5.06a2.32,2.32,0,0,1-2.33,2.32" style="fill: none;stroke: #fff;stroke-linejoin: round;stroke-width: 2.410585105419159px"/>
        <path d="M50.05,54.67H45a2.33,2.33,0,0,1-2.33-2.32V47.3A2.33,2.33,0,0,1,45,45h5a2.33,2.33,0,0,1,2.33,2.33v5.05a2.32,2.32,0,0,1-2.33,2.32" style="fill: none;stroke: #fff;stroke-linejoin: round;stroke-width: 2.410585105419159px"/>
        <path d="M65.26,54.67H60.2a2.32,2.32,0,0,1-2.32-2.32V47.3A2.32,2.32,0,0,1,60.2,45h5.06a2.32,2.32,0,0,1,2.32,2.33v5.05a2.32,2.32,0,0,1-2.32,2.32" style="fill: none;stroke: #fff;stroke-linejoin: round;stroke-width: 2.410585105419159px"/>
        <path d="M80.46,54.67h-5a2.32,2.32,0,0,1-2.33-2.32V47.3A2.33,2.33,0,0,1,75.41,45h5a2.33,2.33,0,0,1,2.33,2.33v5.05a2.32,2.32,0,0,1-2.33,2.32" style="fill: none;stroke: #fff;stroke-linejoin: round;stroke-width: 2.410585105419159px"/>
        <path d="M50.05,71.15H45a2.34,2.34,0,0,1-2.33-2.33v-5A2.33,2.33,0,0,1,45,61.44h5a2.33,2.33,0,0,1,2.33,2.33v5a2.33,2.33,0,0,1-2.33,2.33" style="fill: none;stroke: #fff;stroke-linejoin: round;stroke-width: 2.410585105419159px"/>
        <path d="M65.26,71.15H60.2a2.33,2.33,0,0,1-2.32-2.33v-5a2.32,2.32,0,0,1,2.32-2.33h5.06a2.32,2.32,0,0,1,2.32,2.33v5a2.33,2.33,0,0,1-2.32,2.33" style="fill: none;stroke: #fff;stroke-linejoin: round;stroke-width: 2.410585105419159px"/>
        <path d="M80.46,71.15h-5a2.33,2.33,0,0,1-2.33-2.33v-5a2.33,2.33,0,0,1,2.33-2.33h5a2.33,2.33,0,0,1,2.33,2.33v5a2.33,2.33,0,0,1-2.33,2.33" style="fill: none;stroke: #fff;stroke-linejoin: round;stroke-width: 2.410585105419159px"/>
      </g>
    </g>
  </g>
</svg>
