<svg xmlns="http://www.w3.org/2000/svg" viewBox="0 0 148.66 130.27">
  <title>enelx-b2c</title>
  <g id="Layer_2" data-name="Layer 2">
    <g id="copy">
      <g>
        <path d="M31,118.59H28.48A27.27,27.27,0,0,1,1.21,91.32V72.9A16.34,16.34,0,0,1,17.55,56.56H42A16.35,16.35,0,0,1,58.31,72.9V91.32A27.27,27.27,0,0,1,31,118.59Z" style="fill: none;stroke: #fff;stroke-linejoin: round;stroke-width: 2.410585105419159px"/>
        <path d="M81.77,73.36a28.7,28.7,0,0,1-17.16,2,28,28,0,0,1-6.55-2.09" style="fill: none;stroke: #fff;stroke-linejoin: round;stroke-width: 2.410585105419159px"/>
        <path d="M44.22,57.18a28.45,28.45,0,0,1-2.81-12.36V28.44a17.11,17.11,0,0,1,17.11-17.1H81.4a17.11,17.11,0,0,1,17.11,17.1V44.82a28.38,28.38,0,0,1-2.85,12.45" style="fill: none;stroke: #fff;stroke-linejoin: round;stroke-width: 2.410585105419159px"/>
        <path d="M1.21,82.4s28.55.08,28.55-25.84" style="fill: none;stroke: #fff;stroke-linejoin: round;stroke-width: 2.410585105419159px"/>
        <path d="M59,82.4s-28.55.08-28.55-25.84" style="fill: none;stroke: #fff;stroke-linejoin: round;stroke-width: 2.410585105419159px"/>
        <path d="M1.21,72.2v56.86H12.77a10.64,10.64,0,0,0,10.64-10.64" style="fill: none;stroke: #fff;stroke-linejoin: round;stroke-width: 2.410585105419159px"/>
        <path d="M58.31,72.2v56.86H46.75a10.64,10.64,0,0,1-10.64-10.64" style="fill: none;stroke: #fff;stroke-linejoin: round;stroke-width: 2.410585105419159px"/>
        <path d="M97.89,37.29h-6.7A5.65,5.65,0,0,1,86.07,34L82.6,26.53l-4.37,7.86a5.66,5.66,0,0,1-4.94,2.9H42" style="fill: none;stroke: #fff;stroke-linejoin: round;stroke-width: 2.410585105419159px"/>
        <path d="M60.86,11.43,58.31,5.86a8,8,0,0,0-14.52,6.65l2.56,5.57" style="fill: none;stroke: #fff;stroke-linejoin: round;stroke-width: 2.410585105419159px"/>
        <path d="M79.07,11.43l2.55-5.57a8,8,0,1,1,14.51,6.65l-2.55,5.57" style="fill: none;stroke: #fff;stroke-linejoin: round;stroke-width: 2.410585105419159px"/>
        <path d="M109.61,127.13h0A28.55,28.55,0,0,1,81.06,98.58V90.19a17.09,17.09,0,0,1,8.65-14.87A9.87,9.87,0,0,1,102,77.59a10,10,0,0,0,15.14,0,9.88,9.88,0,0,1,12.34-2.27,17.1,17.1,0,0,1,8.64,14.87v8.39A28.55,28.55,0,0,1,109.61,127.13Z" style="fill: none;stroke: #fff;stroke-linejoin: round;stroke-width: 2.410585105419159px"/>
        <path d="M138.16,90.06V75.66c0-12.33-12.13-21.43-24.13-18.57a19.13,19.13,0,0,1-8.84,0h0a19.14,19.14,0,0,0-8.81,0,20.4,20.4,0,0,0-9.55,5.27,19.32,19.32,0,0,0-5.06,8.46,18.43,18.43,0,0,0-.71,5.07v14.4" style="fill: none;stroke: #fff;stroke-linejoin: round;stroke-width: 2.410585105419159px"/>
        <path d="M81.39,89.36H78.63a5.7,5.7,0,0,0-5.87,5.72,5.8,5.8,0,0,0,6,5.72h2.65" style="fill: none;stroke: #fff;stroke-linejoin: round;stroke-width: 2.410585105419159px"/>
        <path d="M138.56,100.79h3a5.71,5.71,0,0,0,5.88-5.71,5.8,5.8,0,0,0-6-5.72h-2.92" style="fill: none;stroke: #fff;stroke-linejoin: round;stroke-width: 2.410585105419159px"/>
        <path d="M103.83,95.29a5.93,5.93,0,1,1-5.93-5.93A5.93,5.93,0,0,1,103.83,95.29Z" style="fill: none;stroke: #fff;stroke-linejoin: round;stroke-width: 2.410585105419159px"/>
        <path d="M128,95.29a5.93,5.93,0,1,1-5.92-5.93A5.93,5.93,0,0,1,128,95.29Z" style="fill: none;stroke: #fff;stroke-linejoin: round;stroke-width: 2.410585105419159px"/>
        <path d="M103,97h1.27a8.6,8.6,0,0,1,11.43,0H117" style="fill: none;stroke: #fff;stroke-linejoin: round;stroke-width: 2.410585105419159px"/>
      </g>
    </g>
  </g>
</svg>
