<svg id="Layer_1" data-name="Layer 1" xmlns="http://www.w3.org/2000/svg" xmlns:xlink="http://www.w3.org/1999/xlink" viewBox="0 0 286 198.66"><defs><clipPath id="clip-path"><rect x="15.23" y="1.5" width="92.92" height="108.41" fill="none"/></clipPath></defs><title>school</title><circle cx="265.08" cy="128.12" r="7" fill="none" stroke="#fff" stroke-linejoin="round" stroke-width="3"/><path d="M278.31,169.46V151.9a9.6,9.6,0,0,0-9.6-9.6h-7.25a9.6,9.6,0,0,0-9.6,9.6v17.56H270.2v27.17H259.47V175.77" fill="none" stroke="#fff" stroke-linejoin="round" stroke-width="3"/><line x1="245.38" y1="141.89" x2="234.2" y2="124.42" fill="none" stroke="#fff" stroke-linejoin="round" stroke-width="3"/><rect x="145.32" y="104.91" width="80.23" height="50.57" fill="none" stroke="#fff" stroke-linejoin="round" stroke-width="3"/><line x1="167.25" y1="155.77" x2="160.32" y2="196.66" fill="none" stroke="#fff" stroke-linejoin="round" stroke-width="3"/><line x1="203.63" y1="155.77" x2="210.56" y2="196.66" fill="none" stroke="#fff" stroke-linejoin="round" stroke-width="3"/><polyline points="225.56 105.96 225.56 91.73 145.32 91.73 145.32 97.92" fill="none" stroke="#fff" stroke-linejoin="round" stroke-width="3"/><path d="M191.21,126.78l-3.44.42a17.7,17.7,0,0,0-15.13,14h0a19.92,19.92,0,0,0,27.24-22.79l-.48-2-1.27,1c-2.75,2-9.57,1.9-9.57,1.9h0l-3.44-.16A14.11,14.11,0,0,0,170.59,135h0" fill="none" stroke="#fff" stroke-linejoin="round" stroke-width="3"/><polyline points="47.07 164.82 60.5 164.82 60.5 171.92 47.49 171.92" fill="none" stroke="#fff" stroke-linejoin="round" stroke-width="3"/><polyline points="25.23 171.92 12.02 171.92 12.02 164.82 24.81 164.82" fill="none" stroke="#fff" stroke-linejoin="round" stroke-width="3"/><line x1="12.02" y1="171.92" x2="12.02" y2="196.16" fill="none" stroke="#fff" stroke-linejoin="round" stroke-width="3"/><line x1="60.5" y1="171.92" x2="60.5" y2="196.16" fill="none" stroke="#fff" stroke-linejoin="round" stroke-width="3"/><circle cx="36.25" cy="144.79" r="5.84" fill="none" stroke="#fff" stroke-linejoin="round" stroke-width="3"/><line x1="31.58" y1="195.64" x2="31.58" y2="184.49" fill="none" stroke="#fff" stroke-linejoin="round" stroke-width="3"/><path d="M47.28,179.24V164.61a8,8,0,0,0-8-8h-6a8,8,0,0,0-8,8v14.63H40.52v16.39" fill="none" stroke="#fff" stroke-linejoin="round" stroke-width="3"/><rect x="25.23" y="164.61" width="22.05" height="14.63" fill="none" stroke="#fff" stroke-linejoin="round" stroke-width="3"/><polyline points="111.96 164.82 125.18 164.82 125.18 171.92 112.24 171.92" fill="none" stroke="#fff" stroke-linejoin="round" stroke-width="3"/><polyline points="89.91 171.92 76.7 171.92 76.7 164.82 90.18 164.82" fill="none" stroke="#fff" stroke-linejoin="round" stroke-width="3"/><line x1="76.7" y1="171.92" x2="76.7" y2="196.16" fill="none" stroke="#fff" stroke-linejoin="round" stroke-width="3"/><line x1="125.18" y1="171.92" x2="125.18" y2="196.16" fill="none" stroke="#fff" stroke-linejoin="round" stroke-width="3"/><circle cx="100.93" cy="144.79" r="5.84" fill="none" stroke="#fff" stroke-linejoin="round" stroke-width="3"/><line x1="96.26" y1="195.64" x2="96.26" y2="184.49" fill="none" stroke="#fff" stroke-linejoin="round" stroke-width="3"/><path d="M112,179.24V164.61a8,8,0,0,0-8-8h-6a8,8,0,0,0-8,8v14.63H105.2v16.39" fill="none" stroke="#fff" stroke-linejoin="round" stroke-width="3"/><rect x="89.91" y="164.61" width="22.05" height="14.63" fill="none" stroke="#fff" stroke-linejoin="round" stroke-width="3"/><line y1="197.16" x2="286" y2="197.16" fill="none" stroke="#fff" stroke-linejoin="round" stroke-width="3"/><rect x="15.23" y="1.5" width="92.92" height="108.41" fill="none" stroke="#fff" stroke-linejoin="round" stroke-width="3"/><circle cx="250.08" cy="34.52" r="16.61" fill="none" stroke="#fff" stroke-linejoin="round" stroke-width="3"/><polyline points="250.08 44.84 250.08 34.52 256.02 28.58" fill="none" stroke="#fff" stroke-linejoin="round" stroke-width="3"/><g clip-path="url(#clip-path)"><path id="_Path_" data-name="&lt;Path&gt;" d="M45.19.36h0a2,2,0,0,0,3.37-.65L56-18.93a2,2,0,0,1,1.89-1.28h7a2,2,0,0,0,1.44-.6l5-5a8.29,8.29,0,0,0,0-11.73l-5.19-5.19a2,2,0,0,0-2.89,0l-.21.21a2,2,0,0,1-2.89,0l-4.88-4.88a2,2,0,0,0-1.44-.6H51.08a2,2,0,0,0-2,2v8.76a2,2,0,0,1-3.48,1.44h0a2,2,0,0,0-2.89,0l-.89.89a2,2,0,0,1-2.89,0L30.28-43.5a2,2,0,0,1,0-2.89L36-52.14a2,2,0,0,1,2.89,0l3.75,3.75a2,2,0,0,0,2.89,0l1-1a2,2,0,0,0,.17-2.69l-1.23-1.6a2,2,0,0,1-.42-1.24v-3.48a2,2,0,0,1,2-2h3.55a2,2,0,0,1,2,2v4.13a2,2,0,0,0,.82,1.64l4.72,3.52A2,2,0,0,0,61-49.38l2.09-2.28A5.67,5.67,0,0,0,62.43-60l-11.28-8.9a2,2,0,0,0-1.26-.44H39.2a2,2,0,0,0-2,2v2.63A2,2,0,0,1,33.87-63l-3.29-2.56a2,2,0,0,0-2.21-.19l-5.85,3.13a17.21,17.21,0,0,1-12.77,1.4L-3.54-64.94a2,2,0,0,0-1.55.18l-1,.56A25.87,25.87,0,0,1-24.4-61.52l-12.11-2.71a9.91,9.91,0,0,0-7.71,1.46L-49.84-59a2,2,0,0,0-.3,3.13l3.53,3.53a2,2,0,0,1,.09,2.79L-49-46.67a2,2,0,0,0-.5,1.34v1.13a2,2,0,0,0,2,2h4.6a2,2,0,0,1,1.44,3.48l-.94.94a2,2,0,0,0,1.44,3.48h.48a2,2,0,0,0,1.44-.6l5.55-5.55a12.93,12.93,0,0,1,9.15-3.79h3.49a2,2,0,0,1,1.44.6L-3.58-27.76A2,2,0,0,1-3-26.32v12.15a2,2,0,0,0,.48,1.31L9.84,1.87a2,2,0,0,0,1.56.73h2.75a2,2,0,0,1,.79.16l2.34,1a2,2,0,0,1,1.25,1.88V7.9a2,2,0,0,0,1,1.77L41.11,22.1a2,2,0,0,0,1,.27h5.35a2,2,0,0,1,2,2v2.73A2,2,0,0,1,49,28.52l-2,2.19a2,2,0,0,0-.53,1.37v8.44a2,2,0,0,0,.6,1.44L49,43.91a20.44,20.44,0,0,1,5.23,20L51.58,73.3a2,2,0,0,0-.08.55V91.56a2,2,0,0,0,.35,1.15l3.92,5.76a2,2,0,0,0,1.69.89h2a2,2,0,0,0,1.84-2.92l-1.13-2.38a2,2,0,0,1,0-1.64l2.7-6.67A2,2,0,0,1,63.3,85L88.79,61.84a10.34,10.34,0,0,0,3.39-7.65V48.7a2,2,0,0,1,.6-1.44l3.77-3.77a2,2,0,0,0,.6-1.44V38.32a2,2,0,0,0-1.48-2L80,31.87a2,2,0,0,1-1.48-2V26.46a2,2,0,0,0-2-2H71.1a2,2,0,0,1-1-.25L59,18.11a2,2,0,0,0-1-.25H45.15a2,2,0,0,1-2-2V14.25a2,2,0,0,0-2-2H31.94a2,2,0,0,1-1.65-.83L26.66,6.43a2,2,0,0,1-.11-2.25l3-5a2,2,0,0,1,1.75-1h8.79A7,7,0,0,1,45.19.36Z" fill="none" stroke="#fff" stroke-linejoin="round" stroke-width="3"/></g></svg>