<?xml version="1.0" encoding="utf-8"?>
<!-- Generator: Adobe Illustrator 22.0.1, SVG Export Plug-In . SVG Version: 6.00 Build 0)  -->
<svg version="1.1" id="Layer_1" xmlns="http://www.w3.org/2000/svg" xmlns:xlink="http://www.w3.org/1999/xlink" x="0px" y="0px"
	 viewBox="0 0 186.5 123.3" enable-background="new 0 0 186.5 123.3" xml:space="preserve">
<g>
	<path fill="#FFFFFF" d="M179.8-0.2H6.7c-4.2,0-7,2.3-7,6V97c0,3.8,3.1,6.9,7,6.9h76l-1.9,11.4H54.5c-0.5,0-1,0.5-1,1v6.2
		c0,0.5,0.5,1,1,1h78.2c0.5,0,1-0.5,1-1v-6.2c0-0.5-0.5-1-1-1h-26.9l-1.9-11.4H180c3.8,0,7-3.1,7-6.9V6.7
		C186.7,2.8,183.6-0.2,179.8-0.2z M55.5,121.5v-4.1h76v4.1H55.5z M82.9,115.3l1.9-11.4h16.8l2,11.4H82.9z M184.7,87.3v9.6
		c0,2.7-2.2,4.8-4.9,4.8H6.7c-2.7,0-4.9-2.2-4.9-4.8v-9.6H184.7z M6.7,1.9h85.5V17c-12.8,1-16.6,17.1-20,31.3v0.1
		c-2.8,12-5.4,23.4-12.6,23.4c-6.9,0-10.3-2.2-14-4.6c-3.8-2.5-7.7-5-15.4-5c-8.2,0-12.2,6.1-15.8,11.5l-0.1,0.2
		c-3.4,4.9-6.6,9.6-12.5,10V51.3h1.4v-2.8H1.9V5.7C1.9,2.9,4.4,1.9,6.7,1.9z M9.1,84.1v1.2H7.2C7.9,84.9,8.5,84.5,9.1,84.1z
		 M10.9,82.7c2.2-2.1,4-4.7,5.8-7.3l0.2-0.2c0.2-0.3,0.4-0.6,0.6-0.9v11.1h-6.6C10.9,85.4,10.9,82.7,10.9,82.7z M19.1,71.8
		c1.9-2.5,3.9-4.7,6.6-5.9v19.4h-6.6V71.8z M27.5,65.3c0.9-0.2,1.8-0.4,2.8-0.4c1.4,0,2.6,0.1,3.8,0.3v20h-6.6
		C27.5,85.2,27.5,65.3,27.5,65.3z M35.8,65.5c2.7,0.6,4.8,1.7,6.7,2.8v16.9h-6.7V65.5z M44.1,69.4C44.1,69.4,44.2,69.4,44.1,69.4
		c2.1,1.4,4,2.7,6.6,3.6v12.2h-6.6V69.4z M52.5,73.6c1.9,0.5,4.1,0.9,6.7,0.9v10.7h-6.7V73.6z M60.9,74.5c2.7-0.3,4.8-1.7,6.5-4
		v14.7h-6.5V74.5z M75.7,46.6v1.9h-0.4C75.4,47.8,75.5,47.2,75.7,46.6z M69,67.9c2.3-4.2,3.9-10.1,5.4-16.6h1.2v34H69V67.9z
		 M80.8,48.5h-3.4v-8.6C79,33.7,81,28.2,84,24.5v24V49v36.3h-6.7v-34h3.4V49L80.8,48.5L80.8,48.5z M86.2,49v2.3h6v34h-6.5V49v-0.5
		V22.7c1.8-1.6,3.9-2.6,6.4-2.9v28.7h-5.9V49z M179.8,1.9c2.7,0,4.9,2.2,4.9,4.9v78.5H94.2V1.9H179.8z"/>
	<rect x="47.5" y="48.5" fill="#FFFFFF" width="7.5" height="2.8"/>
	<rect x="8.6" y="48.5" fill="#FFFFFF" width="7.5" height="2.8"/>
	<rect x="21.6" y="48.5" fill="#FFFFFF" width="7.5" height="2.8"/>
	<rect x="34.5" y="48.5" fill="#FFFFFF" width="7.5" height="2.8"/>
	<rect x="60.4" y="48.5" fill="#FFFFFF" width="7.5" height="2.8"/>
	<g>
		<path fill="#FFFFFF" d="M140,40.4c-1.5,0-3.1-0.3-4.5-0.9c-0.4-0.2-0.7-0.7-0.6-1.1c0.9-4.3,4.4-7.6,8.8-8.2l1.8-0.2l0.2,2
			l-1.8,0.2c-3.2,0.4-5.9,2.7-6.9,5.8c3.1,1,6.4,0.4,9-1.7c2.7-2.2,3.9-5.6,3.2-9c-1.8,0.9-4.7,0.9-5.1,0.9l-1.8-0.1
			c-1.9-0.1-3.7,0.7-5,2.1s-1.9,3.3-1.6,5.1l-2,0.3c-0.3-2.4,0.5-4.9,2.1-6.7c1.7-1.8,4.1-2.8,6.5-2.7l1.8,0.1
			c1.2,0,3.5-0.2,4.4-0.8l0.7-0.5c0.3-0.2,0.6-0.3,0.9-0.1c0.3,0.1,0.6,0.4,0.6,0.7l0.2,1c1,4.3-0.5,8.6-3.8,11.4
			C145.3,39.5,142.7,40.4,140,40.4z"/>
	</g>
	<path fill="#FFFFFF" d="M120.5,65.1c0,0.2-0.2,0.2-0.2,0.2h-1.4c-0.3,0-0.6,0.1-0.9,0.4s-0.3,0.7-0.2,0.9c0,0.1,0,0.1,0.1,0.2v0.1
		c0,0.6-0.4,1-0.9,1c-0.6,0-1-0.4-1-1c0-0.2,0-0.2,0-0.2v-0.1c0.2-0.3,0-0.7-0.1-0.9v-0.1c-0.3-0.3-0.5-0.4-0.9-0.4h-4.2
		c-0.3,0-0.6,0.1-0.9,0.4s-0.3,0.7-0.2,0.9c0,0.1,0,0.1,0.1,0.2v0.1c0,0.6-0.4,1-0.9,1c-0.6,0-1-0.4-1-1c0-0.2,0-0.2,0-0.2v-0.1
		c0.2-0.3,0-0.7-0.1-0.9v-0.1c-0.3-0.3-0.5-0.4-0.9-0.4h-1.5c-0.2,0-0.2-0.2-0.2-0.2v-4c0-0.2,0.2-0.2,0.2-0.2h13.1
		c0.2,0,0.6-0.1,0.8-0.4c0.3-0.3,0.3-0.7,0.1-0.9l-1.1-4l-0.1-0.1c-0.2-0.6-0.7-1.9-2.3-1.9h-6.6c-1.2,0-2,0.8-2.3,2.2l-0.7,2.5
		l2.1,0.5l0.7-2.7c0-0.1,0.2-0.6,0.4-0.6h6.6c0,0,0.1,0.1,0.3,0.6l0.7,2.7h-11.8c-1.3,0-2.3,1.1-2.3,2.4v4c0,1.3,1.1,2.4,2.3,2.4
		h0.4c0.2,1.5,1.5,2.7,3,2.7s2.8-1.2,3-2.7h1.9c0.2,1.5,1.5,2.7,3,2.7s2.8-1.2,3-2.7h0.3c1.3,0,2.3-1.1,2.3-2.4v-2.6h-2.1v2.7H120.5
		z"/>
	<path fill="#FFFFFF" d="M133.3,67.5h0.4c0.2,1.5,1.5,2.7,3,2.7s2.8-1.2,3-2.7h1.9c0.2,1.5,1.5,2.7,3,2.7s2.8-1.2,3-2.7h0.3
		c1.3,0,2.3-1.1,2.3-2.3v-2.7h-2.1v2.7c0,0.2-0.2,0.2-0.2,0.2h-1.4c-0.3,0-0.6,0.1-0.9,0.4c-0.3,0.3-0.3,0.7-0.2,0.9
		c0,0.1,0,0.1,0.1,0.2V67c0,0.6-0.4,1-1,1s-1-0.4-1-1c0-0.2,0-0.2,0-0.2v-0.1c0.2-0.3,0-0.7-0.1-0.9v-0.1c-0.3-0.3-0.5-0.4-0.9-0.4
		h-4.2c-0.3,0-0.6,0.1-0.9,0.4c-0.3,0.3-0.3,0.7-0.2,0.9c0,0.1,0,0.1,0.1,0.2v0.1c0,0.6-0.4,1-1,1s-1-0.4-1-1c0-0.2,0-0.2,0-0.2
		v-0.1c0.2-0.3,0-0.7-0.1-0.9v-0.1c-0.3-0.3-0.5-0.4-0.9-0.4h-1.5c-0.2,0-0.2-0.2-0.2-0.2v-4c0-0.2,0.2-0.2,0.2-0.2h13.1
		c0.2,0,0.6-0.1,0.8-0.4c0.3-0.3,0.3-0.7,0.1-0.9l-1.1-4l-0.1-0.1c-0.2-0.6-0.7-1.9-2.3-1.9h-6.6c-1.2,0-2,0.8-2.3,2.2l-0.7,2.5
		l2.1,0.5l0.6-2.6c0-0.1,0.2-0.6,0.4-0.6h6.6c0,0,0.1,0.1,0.3,0.6L145,59h-11.8c-1.3,0-2.4,1.1-2.4,2.3v4
		C131,66.4,131.9,67.5,133.3,67.5z"/>
	<path fill="#FFFFFF" d="M161.4,55.5l-0.7,2.5l2.1,0.5l0.6-2.6c0-0.1,0.2-0.6,0.4-0.6h6.6c0,0,0.1,0.1,0.3,0.6l0.7,2.7h-11.8
		c-1.3,0-2.3,1.1-2.3,2.4v4c0,1.3,1.1,2.4,2.3,2.4h0.4c0.2,1.5,1.5,2.7,3,2.7s2.8-1.2,3-2.7h1.9c0.2,1.5,1.5,2.7,3,2.7
		s2.8-1.2,3-2.7h0.3c1.3,0,2.4-1.1,2.4-2.4v-2.6h-2.1V65c0,0.2-0.2,0.2-0.2,0.2H173c-0.3,0-0.6,0.1-0.9,0.4
		c-0.3,0.3-0.3,0.7-0.2,0.9c0,0.1,0,0.1,0.1,0.2v0.1c0,0.6-0.4,1-1,1s-0.9-0.4-0.9-1c0-0.2,0-0.2,0-0.2v-0.1c0.2-0.3,0-0.7-0.1-0.9
		v-0.1c-0.3-0.3-0.5-0.4-0.9-0.4H165c-0.3,0-0.6,0.1-0.9,0.4c-0.3,0.3-0.3,0.7-0.2,0.9c0,0.1,0,0.1,0.1,0.2v0.1c0,0.6-0.4,1-1,1
		s-0.9-0.4-0.9-1c0-0.2,0-0.2,0-0.2v-0.1c0.2-0.3,0-0.7-0.1-0.9v-0.1c-0.3-0.3-0.5-0.4-0.9-0.4h-1.5c-0.2,0-0.2-0.2-0.2-0.2v-4
		c0-0.2,0.2-0.2,0.2-0.2h13.1c0.2,0,0.6-0.1,0.8-0.4c0.3-0.3,0.3-0.7,0.1-0.9l-1.1-4l-0.1-0.1c-0.2-0.6-0.7-1.9-2.3-1.9h-6.6
		C162.6,53.5,161.7,54.3,161.4,55.5z"/>
	<path fill="#FFFFFF" d="M104.2,14h20.4v23H114v-3.8c0-0.5-0.5-1-1-1h-4.4c-0.5,0-1,0.5-1,1v5.1h2.1v-4h2.3v3.8c0,0.5,0.5,1,1,1
		h12.7c0.5,0,1-0.5,1-1V12.9c0-0.5-0.5-1-1-1h-22.5c-0.5,0-1,0.5-1,1v25.5h2.1L104.2,14L104.2,14z"/>
	<rect x="108.2" y="17.5" fill="#FFFFFF" width="4.9" height="2.1"/>
	<rect x="116" y="17.5" fill="#FFFFFF" width="4.9" height="2.1"/>
	<rect x="108.2" y="22.5" fill="#FFFFFF" width="4.9" height="2.1"/>
	<rect x="116" y="22.5" fill="#FFFFFF" width="4.9" height="2.1"/>
	<rect x="116" y="27.4" fill="#FFFFFF" width="4.9" height="2.1"/>
	<rect x="116" y="32.3" fill="#FFFFFF" width="4.9" height="2.1"/>
	<rect x="108.2" y="27.4" fill="#FFFFFF" width="4.9" height="2.1"/>
	<path opacity="0.3" fill="#FFFFFF" enable-background="new    " d="M74.8,48.7c3.3-14,6.7-28.4,17.6-29.2v29.2H74.8z"/>
	<g>
		<path fill="#FFFFFF" d="M155.5,31.7c1.8,0,2.1,1.2,2.1,2.4c0,0.7,0,2.6-2.2,2.6c-1.5,0-2.1-1.1-2.1-2.5
			C153.3,33.5,153.3,31.7,155.5,31.7z M155.4,35.6c0.4,0,0.8-0.3,0.8-1.5c0-0.5,0-1.4-0.7-1.4c-0.8,0-0.8,1.1-0.8,1.4
			C154.7,35.1,154.9,35.6,155.4,35.6z M161.3,31.6l-4.9,10.2h-1l4.9-10.2C160.3,31.6,161.3,31.6,161.3,31.6z M161.4,36.7
			c1.8,0,2.1,1.2,2.1,2.4c0,0.7,0,2.6-2.2,2.6c-1.5,0-2.1-1.1-2.1-2.5C159.3,38.5,159.3,36.7,161.4,36.7z M161.4,40.6
			c0.4,0,0.8-0.3,0.8-1.5c0-0.5-0.1-1.4-0.7-1.4c-0.8,0-0.8,1-0.8,1.4C160.7,40.2,160.8,40.6,161.4,40.6z"/>
	</g>
</g>
</svg>
