<?xml version="1.0" encoding="utf-8"?>
<!-- Generator: Adobe Illustrator 21.1.0, SVG Export Plug-In . SVG Version: 6.00 Build 0)  -->
<svg version="1.1" id="Layer_1" xmlns="http://www.w3.org/2000/svg" xmlns:xlink="http://www.w3.org/1999/xlink" x="0px" y="0px"
	 viewBox="0 0 175.2 98.8" enable-background="new 0 0 175.2 98.8" xml:space="preserve">
<g>
	<path fill="#FFFFFF" d="M3,14.4h23v20.4H13.9v-4.2c0-0.6-0.5-1.1-1.1-1.1H7.9c-0.6,0-1.1,0.5-1.1,1.1v5.3H9v-4.2h2.7v4.2
		c0,0.6,0.5,1.1,1.1,1.1H27c0.6,0,1.1-0.5,1.1-1.1V13.3c0-0.6-0.5-1.1-1.1-1.1H1.9c-0.6,0-1.1,0.5-1.1,1.1v22.6H3V14.4z"/>
	<rect x="7.9" y="18.4" fill="#FFFFFF" width="4.9" height="2.2"/>
	<rect x="16.6" y="18.4" fill="#FFFFFF" width="4.9" height="2.2"/>
	<rect x="7.9" y="24" fill="#FFFFFF" width="4.9" height="2.2"/>
	<rect x="16.6" y="24" fill="#FFFFFF" width="4.9" height="2.2"/>
	<rect x="16.6" y="29.5" fill="#FFFFFF" width="4.9" height="2.2"/>
	<path fill="#FFFFFF" d="M95.7,76.4C95.7,76.4,95.7,76.4,95.7,76.4l-3.8,0l0,2.2l2.7,0v18.1h-9.2V78.6h1.8c0.6,0,1.1-0.5,1.1-1.1
		v-0.9c0-0.2,0-0.8,0.7-0.8h2.9c-0.1,0-0.2-0.1-0.2-0.2h2.2c0-0.8-0.3-1.2-0.6-1.5c-0.6-0.6-1.3-0.6-1.4-0.5H89
		c-1.1,0-2.8,0.8-2.9,2.8h-1.8c-0.6,0-1.1,0.5-1.1,1.1v20.3c0,0.6,0.5,1.1,1.1,1.1h11.4c0.6,0,1.1-0.5,1.1-1.1V77.5
		c0-0.3-0.1-0.6-0.3-0.8C96.3,76.5,96,76.4,95.7,76.4z"/>
	<path fill="#FFFFFF" d="M171,80.4V76c0-0.6-0.5-1.1-1.1-1.1h-3.5c-0.5,0-0.9,0.3-1,0.7l-1.8-1.3c-0.4-0.3-1-0.3-1.4,0L151.8,83
		c-0.3,0.2-0.4,0.5-0.4,0.8v0.9c0,0.6,0.5,1.1,1.1,1.1h1.5v11.9c0,0.6,0.5,1.1,1.1,1.1h2.6v-2.2h-1.5V84.7c0-0.6-0.5-1.1-1.1-1.1
		h-0.6l8.5-7.1l2.8,2.1c0.3,0.2,0.8,0.3,1.2,0.1c0.4-0.2,0.6-0.6,0.6-1v-0.6h1.3v3.8c0,0.3,0.1,0.6,0.4,0.8l2.2,1.8h-0.6
		c-0.6,0-1.1,0.5-1.1,1.1v11.9h-8.2v-6.5h3v5h2.2v-6.1c0-0.6-0.5-1.1-1.1-1.1h-5.2c-0.6,0-1.1,0.5-1.1,1.1v8.7
		c0,0.6,0.5,1.1,1.1,1.1h10.4c0.6,0,1.1-0.5,1.1-1.1V85.8h1.5c0.6,0,1.1-0.5,1.1-1.1v-0.9c0-0.3-0.1-0.6-0.4-0.8L171,80.4z"/>
	<path fill="#FFFFFF" d="M83.2,14c0.3,0,0.6-0.1,0.8-0.3c0.2-0.2,0.3-0.5,0.3-0.8c-0.1-1.7,0.8-3.3,2.2-4.1c1.5-0.9,3.3-0.9,5,0.1
		c0.8,0.4,1.3,1.2,1.7,2.4c0.2,0.6,0.8,0.9,1.3,0.9c2.3,0,4.1,1.9,4.1,4.2v2.4h2.6v-2.4c0-3.4-2.6-6.3-5.9-6.7
		c-1.2-2.5-3.7-4.1-6.5-4.1c-3.5,0-6.5,2.6-7.1,6c-2.3,0.6-3,2.9-3,4c0,3.3,2.7,4.3,4.2,4.3h2.9c0.1,0,0.2,0,0.3,0h4.4v-2.6h-4.6
		c-0.1,0-0.2,0-0.3,0l-2.6,0c-0.3,0-1.7-0.1-1.7-1.7c0-0.1,0-0.8,0.5-1.2C82.2,14.1,82.6,14,83.2,14z"/>
	<polygon fill="#FFFFFF" points="91.3,23.5 72.2,23.5 72.2,2.6 107.8,2.6 107.8,23.5 93.9,23.5 93.9,26.1 110.4,26.1 110.4,0 
		69.6,0 69.6,26.1 88.7,26.1 88.7,31.9 99,31.9 99,33.7 81,33.7 81,31.9 86.1,31.9 86.1,29.3 78.4,29.3 78.4,36.3 101.6,36.3 
		101.6,29.3 91.3,29.3 	"/>
	<path fill="#FFFFFF" d="M155.4,22.4c1.9-2,4.5-3.2,7.3-3.1l2.6,0.1c0.5,0,5,0,7.4-1.4c1.1,5.1-0.6,10.1-4.6,13.4
		c-3.8,3.2-8.7,4-13.3,2.4c1.3-4.6,5.3-8,10.1-8.6l2.6-0.3l-0.3-2.2l-2.6,0.3c-6,0.8-10.9,5.3-12.2,11.3c-0.1,0.5,0.2,1,0.6,1.2
		c2,0.9,4.2,1.3,6.3,1.3c3.6,0,7.2-1.3,10.2-3.7c4.7-3.9,6.7-9.8,5.3-15.8l-0.4-1.5c-0.1-0.4-0.3-0.7-0.7-0.8
		c-0.3-0.1-0.7-0.1-1,0.2l-0.9,0.7c-1.3,0.9-4.6,1.2-6.4,1.2l-2.6-0.1c-3.4-0.1-6.7,1.3-9,3.8c-2.3,2.5-3.4,5.9-2.9,9.2l2.2-0.3
		C152.7,27.2,153.6,24.4,155.4,22.4z"/>
	<rect x="33.8" y="24.1" opacity="0.4" fill="#FFFFFF" width="26.7" height="2.2"/>
	<rect x="118" y="24.1" opacity="0.4" fill="#FFFFFF" width="24.2" height="2.2"/>
	<rect x="106.2" y="85.4" opacity="0.4" fill="#FFFFFF" width="34.9" height="2.2"/>
	<rect x="88.9" y="45.5" opacity="0.4" fill="#FFFFFF" width="2.2" height="18"/>
	
		<rect x="125" y="38.7" transform="matrix(0.7071 -0.7071 0.7071 0.7071 -2.6596 105.5864)" opacity="0.4" fill="#FFFFFF" width="2.2" height="34.7"/>
	
		<rect x="31.2" y="54.1" transform="matrix(0.7071 -0.7071 0.7071 0.7071 -24.4459 51.3437)" opacity="0.4" fill="#FFFFFF" width="37" height="2.2"/>
	<rect x="13.4" y="41.1" opacity="0.4" fill="#FFFFFF" width="2.2" height="26.8"/>
	<rect x="161.9" y="41.1" opacity="0.4" fill="#FFFFFF" width="2.2" height="26.8"/>
	<rect x="36.9" y="85.4" opacity="0.4" fill="#FFFFFF" width="34.9" height="2.2"/>
	<path fill="#FFFFFF" d="M25.8,82.3v2.2c0.5,0,1,0.4,1,1v6.1c0,0.5-0.4,1-1,1h-2.2c-0.4,0-0.7,0.2-0.9,0.5c-0.2,0.3-0.3,0.7-0.1,1
		c0.1,0.2,0.1,0.4,0.1,0.7c0,1.1-0.9,2-2,2s-2-0.9-2-2c0-0.2,0-0.4,0.1-0.7c0.1-0.3,0.1-0.7-0.1-1s-0.5-0.5-0.9-0.5h-6.4
		c-0.4,0-0.7,0.2-0.9,0.5c-0.2,0.3-0.3,0.7-0.1,1c0.1,0.2,0.1,0.4,0.1,0.7c0,1.1-0.9,2-2,2s-2-0.9-2-2c0-0.2,0-0.4,0.1-0.7
		c0.1-0.3,0.1-0.7-0.1-1c-0.2-0.3-0.5-0.5-0.9-0.5H3.2c-0.5,0-1-0.4-1-1v-6.1c0-0.5,0.4-1,1-1h20.2c0.3,0,0.7-0.2,0.9-0.4
		c0.2-0.3,0.3-0.6,0.2-1l-1.7-6.2c-0.2-0.7-0.9-2.8-3.1-2.8H9.4c-1.5,0-2.6,1.1-3.1,2.9l-0.9,3.5L7.5,81l0.8-3.5
		c0.1-0.3,0.4-1.3,1-1.3h10.2c0.2,0,0.6,0,1,1.3l1.3,4.7H3.2c-1.7,0-3.2,1.4-3.2,3.2v6.1c0,1.7,1.4,3.2,3.2,3.2h1
		c0,2.3,1.9,4.1,4.2,4.1s4.2-1.8,4.2-4.1h3.9c0,2.3,1.9,4.1,4.2,4.1c2.3,0,4.2-1.8,4.2-4.1h0.9c1.7,0,3.2-1.4,3.2-3.2v-6.1
		C28.9,83.7,27.5,82.3,25.8,82.3z"/>
</g>
</svg>
