<?xml version="1.0" encoding="utf-8"?>
<!-- Generator: Adobe Illustrator 21.1.0, SVG Export Plug-In . SVG Version: 6.00 Build 0)  -->
<svg version="1.1" id="Layer_1" xmlns="http://www.w3.org/2000/svg" xmlns:xlink="http://www.w3.org/1999/xlink" x="0px" y="0px"
	 viewBox="0 0 162.2 163.9" enable-background="new 0 0 162.2 163.9" xml:space="preserve">
<g>
	<path fill="#FFFFFF" d="M62.4,84.9c-2.2,0-3.9-1.7-4-3.8H55c-0.1,2.1-1.8,3.8-4,3.8c-2.2,0-3.9-1.7-4-3.8h-0.8c-1.7,0-3-1.4-3-3
		v-5.7c0-1.7,1.4-3,3-3h17.4l-1.2-4.3c-0.4-1.1-0.7-1.1-0.9-1.1h-9.5c-0.5,0-0.8,0.9-0.9,1.1l-0.8,3.3l-2.1-0.5l0.8-3.3
		c0.5-1.7,1.6-2.8,3-2.8h9.5c2.1,0,2.8,2,3,2.7l1.6,5.8c0.1,0.3,0,0.7-0.2,1c-0.2,0.3-0.5,0.4-0.9,0.4H46.1c-0.5,0-0.8,0.4-0.8,0.8
		V78c0,0.5,0.4,0.8,0.8,0.8h2.1c0.4,0,0.7,0.2,0.9,0.5c0.2,0.3,0.3,0.7,0.1,1c-0.1,0.2-0.1,0.4-0.1,0.6c0,1,0.8,1.8,1.8,1.8
		s1.8-0.8,1.8-1.8c0-0.2,0-0.4-0.1-0.6c-0.1-0.3-0.1-0.7,0.1-1c0.2-0.3,0.5-0.5,0.9-0.5h6c0.4,0,0.7,0.2,0.9,0.5
		c0.2,0.3,0.3,0.7,0.1,1c-0.1,0.2-0.1,0.4-0.1,0.6c0,1,0.8,1.8,1.8,1.8s1.8-0.8,1.8-1.8c0-0.2,0-0.4-0.1-0.6c-0.1-0.3-0.1-0.7,0.1-1
		c0.2-0.3,0.5-0.5,0.9-0.5h2c0.5,0,0.8-0.4,0.8-0.8v-5.7c0-0.5-0.4-0.8-0.8-0.8v-2.2c1.7,0,3,1.4,3,3V78c0,1.7-1.4,3-3,3h-0.8
		C66.4,83.2,64.6,84.9,62.4,84.9z"/>
	<path fill="#FFFFFF" d="M19.3,50.5c-2.2,0-3.9-1.7-4-3.9h-3.5c-0.1,2.1-1.8,3.9-4,3.9s-3.9-1.7-4-3.9H3c-1.7,0-3-1.4-3-3v-5.7
		c0-1.7,1.4-3,3-3h17.4l-1.2-4.3c-0.4-1.1-0.7-1.1-0.9-1.1H8.8c-0.5,0-0.8,0.9-0.9,1.1l-0.8,3.3L5,33.3L5.8,30
		c0.5-1.7,1.6-2.8,3-2.8h9.5c2.1,0,2.8,2,3,2.7l1.6,5.8c0.1,0.3,0,0.7-0.2,1c-0.2,0.3-0.5,0.4-0.9,0.4H3c-0.5,0-0.8,0.4-0.8,0.8v5.7
		c0,0.5,0.4,0.8,0.8,0.8h2.1c0.4,0,0.7,0.2,0.9,0.5c0.2,0.3,0.3,0.7,0.1,1c-0.1,0.2-0.1,0.4-0.1,0.6c0,1,0.8,1.8,1.8,1.8
		s1.8-0.8,1.8-1.8c0-0.2,0-0.4-0.1-0.6c-0.1-0.3-0.1-0.7,0.1-1c0.2-0.3,0.5-0.5,0.9-0.5h6c0.4,0,0.7,0.2,0.9,0.5
		c0.2,0.3,0.3,0.7,0.1,1c-0.1,0.2-0.1,0.4-0.1,0.6c0,1,0.8,1.8,1.8,1.8s1.8-0.8,1.8-1.8c0-0.2,0-0.4-0.1-0.6c-0.1-0.3-0.1-0.7,0.1-1
		c0.2-0.3,0.5-0.5,0.9-0.5h2c0.5,0,0.8-0.4,0.8-0.8v-5.7c0-0.5-0.4-0.8-0.8-0.8v-2.2c1.7,0,3,1.4,3,3v5.7c0,1.7-1.4,3-3,3h-0.8
		C23.3,48.8,21.5,50.5,19.3,50.5z"/>
	<path fill="#FFFFFF" d="M29,122.3c-2.2,0-3.9-1.7-4-3.9h-3.5c-0.1,2.1-1.8,3.9-4,3.9s-3.9-1.7-4-3.9h-0.8c-1.7,0-3-1.4-3-3v-5.7
		c0-1.7,1.4-3,3-3h17.4l-1.2-4.3c-0.4-1.1-0.7-1.1-0.9-1.1h-9.5c-0.5,0-0.8,0.9-0.9,1.1l-0.8,3.3l-2.1-0.5l0.8-3.3
		c0.5-1.7,1.6-2.8,3-2.8h9.5c2.1,0,2.8,2,3,2.7l1.6,5.8c0.1,0.3,0,0.7-0.2,1s-0.5,0.4-0.9,0.4H12.7c-0.5,0-0.8,0.4-0.8,0.8v5.7
		c0,0.5,0.4,0.8,0.8,0.8h2.1c0.4,0,0.7,0.2,0.9,0.5s0.3,0.7,0.1,1c-0.1,0.2-0.1,0.4-0.1,0.6c0,1,0.8,1.8,1.8,1.8s1.8-0.8,1.8-1.8
		c0-0.2,0-0.4-0.1-0.6c-0.1-0.3-0.1-0.7,0.1-1c0.2-0.3,0.5-0.5,0.9-0.5h6c0.4,0,0.7,0.2,0.9,0.5c0.2,0.3,0.3,0.7,0.1,1
		c-0.1,0.2-0.1,0.4-0.1,0.6c0,1,0.8,1.8,1.8,1.8s1.8-0.8,1.8-1.8c0-0.2,0-0.4-0.1-0.6c-0.1-0.3-0.1-0.7,0.1-1s0.5-0.5,0.9-0.5h2
		c0.5,0,0.8-0.4,0.8-0.8v-5.7c0-0.5-0.4-0.8-0.8-0.8v-2.2c1.7,0,3,1.4,3,3v5.7c0,1.7-1.4,3-3,3H33C33,120.6,31.2,122.3,29,122.3z"/>
	<path fill="#FFFFFF" d="M96.4,143.6c-2.2,0-3.9-1.7-4-3.8H89c-0.1,2.1-1.8,3.8-4,3.8s-3.9-1.7-4-3.8h-0.8c-1.7,0-3-1.4-3-3V131
		c0-1.7,1.4-3,3-3h17.4l-1.2-4.3c-0.4-1.1-0.7-1.1-0.9-1.1h-9.5c-0.5,0-0.8,0.9-0.9,1.1l-0.8,3.3l-2.1-0.5l0.8-3.3
		c0.5-1.7,1.6-2.8,3-2.8h9.5c2.1,0,2.8,2,3,2.7l1.6,5.8c0.1,0.3,0,0.7-0.2,1s-0.5,0.4-0.9,0.4H80.1c-0.5,0-0.8,0.4-0.8,0.8v5.7
		c0,0.5,0.4,0.8,0.8,0.8h2.1c0.4,0,0.7,0.2,0.9,0.5c0.2,0.3,0.3,0.7,0.1,1c-0.1,0.2-0.1,0.4-0.1,0.6c0,1,0.8,1.8,1.8,1.8
		s1.8-0.8,1.8-1.8c0-0.2,0-0.4-0.1-0.6c-0.1-0.3-0.1-0.7,0.1-1c0.2-0.3,0.5-0.5,0.9-0.5h6c0.4,0,0.7,0.2,0.9,0.5
		c0.2,0.3,0.3,0.7,0.1,1c-0.1,0.2-0.1,0.4-0.1,0.6c0,1,0.8,1.8,1.8,1.8s1.8-0.8,1.8-1.8c0-0.2,0-0.4-0.1-0.6c-0.1-0.3-0.1-0.7,0.1-1
		c0.2-0.3,0.5-0.5,0.9-0.5h2c0.5,0,0.8-0.4,0.8-0.8V131c0-0.5-0.4-0.8-0.8-0.8V128c1.7,0,3,1.4,3,3v5.7c0,1.7-1.4,3-3,3h-0.8
		C100.3,141.9,98.6,143.6,96.4,143.6z"/>
	<path fill="#FFFFFF" d="M90.3,35.8c-2.2,0-3.9-1.7-4-3.9h-3.5c-0.1,2.1-1.8,3.9-4,3.9s-3.9-1.7-4-3.9h-0.8c-1.7,0-3-1.4-3-3v-5.7
		c0-1.7,1.4-3,3-3h17.4l-1.2-4.3c-0.4-1.1-0.7-1.1-0.9-1.1h-9.5c-0.5,0-0.8,0.9-0.9,1.1l-0.8,3.3L76,18.6l0.8-3.3
		c0.5-1.7,1.6-2.8,3-2.8h9.5c2.1,0,2.8,2,3,2.7l1.6,5.8c0.1,0.3,0,0.7-0.2,1c-0.2,0.3-0.5,0.4-0.9,0.4H73.9c-0.5,0-0.8,0.4-0.8,0.8
		v5.7c0,0.5,0.4,0.8,0.8,0.8H76c0.4,0,0.7,0.2,0.9,0.5c0.2,0.3,0.3,0.7,0.1,1C77,31.4,77,31.6,77,31.8c0,1,0.8,1.8,1.8,1.8
		s1.8-0.8,1.8-1.8c0-0.2,0-0.4-0.1-0.6c-0.1-0.3-0.1-0.7,0.1-1c0.2-0.3,0.5-0.5,0.9-0.5h6c0.4,0,0.7,0.2,0.9,0.5
		c0.2,0.3,0.3,0.7,0.1,1c-0.1,0.2-0.1,0.4-0.1,0.6c0,1,0.8,1.8,1.8,1.8s1.8-0.8,1.8-1.8c0-0.2,0-0.4-0.1-0.6c-0.1-0.3-0.1-0.7,0.1-1
		c0.2-0.3,0.5-0.5,0.9-0.5h2c0.5,0,0.8-0.4,0.8-0.8v-5.7c0-0.5-0.4-0.8-0.8-0.8v-2.2c1.7,0,3,1.4,3,3v5.7c0,1.7-1.4,3-3,3h-0.8
		C94.2,34.1,92.4,35.8,90.3,35.8z"/>
	<path fill="#FFFFFF" d="M123,84.9c-2.2,0-3.9-1.7-4-3.8h-3.5c-0.1,2.1-1.8,3.8-4,3.8s-3.9-1.7-4-3.8h-0.8c-1.7,0-3-1.4-3-3v-5.7
		c0-1.7,1.4-3,3-3h17.4l-1.2-4.3c-0.4-1.1-0.7-1.1-0.9-1.1h-9.5c-0.5,0-0.8,0.9-0.9,1.1l-0.8,3.3l-2.1-0.5l0.8-3.3
		c0.5-1.7,1.6-2.8,3-2.8h9.5c2.1,0,2.8,2,3,2.7l1.6,5.8c0.1,0.3,0,0.7-0.2,1c-0.2,0.3-0.5,0.4-0.9,0.4h-18.8c-0.5,0-0.8,0.4-0.8,0.8
		V78c0,0.5,0.4,0.8,0.8,0.8h2.1c0.4,0,0.7,0.2,0.9,0.5c0.2,0.3,0.3,0.7,0.1,1c-0.1,0.2-0.1,0.4-0.1,0.6c0,1,0.8,1.8,1.8,1.8
		s1.8-0.8,1.8-1.8c0-0.2,0-0.4-0.1-0.6c-0.1-0.3-0.1-0.7,0.1-1c0.2-0.3,0.5-0.5,0.9-0.5h6c0.4,0,0.7,0.2,0.9,0.5
		c0.2,0.3,0.3,0.7,0.1,1c-0.1,0.2-0.1,0.4-0.1,0.6c0,1,0.8,1.8,1.8,1.8s1.8-0.8,1.8-1.8c0-0.2,0-0.4-0.1-0.6c-0.1-0.3-0.1-0.7,0.1-1
		c0.2-0.3,0.5-0.5,0.9-0.5h2c0.5,0,0.8-0.4,0.8-0.8v-5.7c0-0.5-0.4-0.8-0.8-0.8v-2.2c1.7,0,3,1.4,3,3V78c0,1.7-1.4,3-3,3H127
		C127,83.2,125.2,84.9,123,84.9z"/>
	<path fill="#FFFFFF" d="M154.4,140.3c-2.2,0-3.9-1.7-4-3.9H147c-0.1,2.1-1.8,3.9-4,3.9c-2.2,0-3.9-1.7-4-3.9h-0.8c-1.7,0-3-1.4-3-3
		v-5.7c0-1.7,1.4-3,3-3h17.4l-1.2-4.3c-0.4-1.1-0.7-1.1-0.9-1.1h-9.5c-0.5,0-0.8,0.9-0.9,1.1l-0.8,3.3l-2.1-0.5l0.8-3.3
		c0.5-1.7,1.6-2.8,3-2.8h9.5c2.1,0,2.8,2,3,2.7l1.6,5.8c0.1,0.3,0,0.7-0.2,1s-0.5,0.4-0.9,0.4h-18.8c-0.5,0-0.8,0.4-0.8,0.8v5.7
		c0,0.5,0.4,0.8,0.8,0.8h2.1c0.4,0,0.7,0.2,0.9,0.5s0.3,0.7,0.1,1c-0.1,0.2-0.1,0.4-0.1,0.6c0,1,0.8,1.8,1.8,1.8s1.8-0.8,1.8-1.8
		c0-0.2,0-0.4-0.1-0.6c-0.1-0.3-0.1-0.7,0.1-1s0.5-0.5,0.9-0.5h6c0.4,0,0.7,0.2,0.9,0.5s0.3,0.7,0.1,1c-0.1,0.2-0.1,0.4-0.1,0.6
		c0,1,0.8,1.8,1.8,1.8s1.8-0.8,1.8-1.8c0-0.2,0-0.4-0.1-0.6c-0.1-0.3-0.1-0.7,0.1-1s0.5-0.5,0.9-0.5h2c0.5,0,0.8-0.4,0.8-0.8v-5.7
		c0-0.5-0.4-0.8-0.8-0.8v-2.2c1.7,0,3,1.4,3,3v5.7c0,1.7-1.4,3-3,3h-0.8C158.3,138.6,156.6,140.3,154.4,140.3z"/>
	<g opacity="0.5">
		<path fill="#FFFFFF" d="M112,163.9c-0.3,0-0.5-0.1-0.7-0.3c-0.9-0.8-3.1-1.5-5-2.2c-1.4-0.5-2.8-1-3.8-1.5c-1.8-1-3.7-1.7-5.6-2.4
			c-1.4-0.5-2.9-1.1-4.5-1.8c-1-0.5-2.2-0.9-3.5-1.4c-5-2-10.7-4.2-11.3-8.1c-0.3-2.1,0.8-4.1,3.4-6.3c0.2-0.2,0.5-0.3,0.8-0.2
			c0.3,0,0.6,0.2,0.7,0.4c1,1.3,1.2,1.2,2.4,0.5c0.9-0.6,2.1-1.4,3.9-1.3c1.3,0,2.7,0.6,4,1.1c1.2,0.5,2.5,1,3.6,1.1c0,0,0,0,0,0
			c0.7,0,4.6-1.1,7.8-1.9c12-3.3,13.3-3.4,14-2.2c0.2,0.3,0.2,0.7,0.1,1c0,0.1-1,2.1-1.8,3.3c-2.7,4.1-3.4,6.8-2.9,11.1
			c0.1,1,0.4,1.5,0.7,2.1c0.4,0.8,0.8,1.6,0.7,3.1c-0.1,0.8-0.5,1.6-0.9,2.4c-0.4,0.8-0.9,1.7-0.9,2.5c0,0.4-0.3,0.8-0.6,1
			C112.3,163.9,112.1,163.9,112,163.9z M81.7,142.3c-1.4,1.3-2,2.5-1.9,3.6c0.4,2.6,5.9,4.8,10,6.4c1.3,0.5,2.5,1,3.6,1.5
			c1.5,0.7,2.9,1.2,4.3,1.8c1.9,0.7,3.9,1.5,5.9,2.5c0.8,0.4,2.1,0.9,3.4,1.3c1.5,0.5,3,1.1,4.2,1.7c0.2-0.6,0.5-1.2,0.8-1.8
			c0.3-0.6,0.6-1.2,0.7-1.6c0.1-0.8-0.1-1.2-0.4-1.8c-0.3-0.7-0.8-1.5-0.9-2.9c-0.5-4.8,0.3-8.1,3.3-12.5c0.3-0.4,0.6-1,0.9-1.5
			c-2.4,0.4-7.5,1.8-10.7,2.7c-5.3,1.5-7.6,2.1-8.5,2c-1.5-0.1-2.9-0.7-4.3-1.2c-1.2-0.5-2.3-1-3.2-1c-1.1,0-1.9,0.5-2.6,1
			C85,143.1,83.6,144,81.7,142.3z M116.8,138.8L116.8,138.8L116.8,138.8z"/>
		<path fill="#FFFFFF" d="M125.9,143.4c-0.1,0-0.3,0-0.4,0c-1.8-0.3-2.9-2.5-3.5-4.2c-0.1-0.3-0.1-0.6,0-0.9l0.6-1.3
			c0-0.1,0.1-0.1,0.1-0.2c2.6-3.6,5.4-7.3,5.5-10.6c0.1-1.6-2-5.2-3.4-7.6c-0.6-1-1.1-1.9-1.4-2.6c-1.6-3.3-2-3.5-3.9-4.3
			c-0.5-0.2-1.2-0.5-2-0.9c-0.4-0.2-0.8-0.3-1.2-0.5c-1.4-0.6-3.1-1.3-4.1-2.5c-0.8-0.9-0.5-2-0.3-2.7c0.1-0.2,0.2-0.6,0.1-0.7
			c-1.1-1-2.1-1.1-3.2-1.1c-1,0-2.1-0.1-3.2-0.9c-0.5-0.4-0.6-1.1-0.2-1.5c0.4-0.5,1.1-0.6,1.5-0.2c0.5,0.4,1.1,0.4,2,0.5
			c1.3,0.1,2.9,0.1,4.6,1.9c0.9,0.9,0.6,2.1,0.4,2.8c-0.1,0.2-0.2,0.6-0.1,0.7c0.7,0.8,2.1,1.3,3.3,1.9c0.5,0.2,0.9,0.4,1.3,0.6
			c0.7,0.4,1.3,0.6,1.9,0.8c2.4,1,3.2,1.5,5,5.4c0.3,0.6,0.8,1.5,1.3,2.4c2.1,3.7,3.7,6.8,3.6,8.8c-0.1,4-3,8-5.9,11.8l-0.4,0.7
			c0.9,2.1,1.5,2.3,1.6,2.4c0.7,0.1,2.3-1.8,3.4-3.2c0.3-0.3,0.5-0.6,0.8-1c1.8-2.1,1.9-3,2-4.1c0.1-0.9,0.3-2.1,1.3-4
			c0.8-1.4,2-2.1,2.9-2.7c0.6-0.4,1.1-0.7,1.4-1.1c0.8-1,1.7-1.1,2.2-1.1c0.1,0,0.1,0,0.2,0c0-0.1,0.1-0.2,0.2-0.6
			c0.3-1.4-1.3-4.3-2.7-5.7c-1-1-1.8-1.2-2.6-1.4c-1.7-0.5-2.8-1-3.3-4.5c-0.3-2.4,2.1-7.4,3.4-8.7c3-3.1,9.9-2.5,13.8,0.2
			c0.4,0.3,0.9,0.8,1.9,1.9c0.9,1,3.2,3.7,4.2,4c0.1-0.3,0.2-1.2-0.1-3.5c-1.1-7.2-16.7-12.1-25.1-14.8c-1.8-0.6-3.3-1-4.5-1.5
			c-0.6-0.2-0.9-0.8-0.7-1.4c0.2-0.6,0.8-0.9,1.4-0.7c1.1,0.4,2.6,0.9,4.4,1.4c9.5,3,25.4,7.9,26.6,16.5c0.5,3.5,0.2,5.3-1.1,5.9
			c-1.8,0.8-4-1.4-6.9-4.6c-0.5-0.6-1.2-1.4-1.4-1.5c-3.4-2.3-9-2.5-11-0.4c-1,1-3,5.4-2.8,6.9c0.3,2.3,0.7,2.4,1.7,2.7
			c0.9,0.2,2.1,0.6,3.5,1.9c1.7,1.6,3.9,5.2,3.4,7.8c-0.4,1.8-1.2,2.2-2.3,2.4c-0.4,0-0.5,0.1-0.8,0.4c-0.6,0.7-1.3,1.1-1.9,1.5
			c-0.8,0.5-1.6,1-2.1,1.9c-0.9,1.5-1,2.3-1.1,3.2c-0.2,1.3-0.3,2.6-2.5,5.2c-0.3,0.3-0.5,0.6-0.8,0.9
			C129.3,141.5,127.7,143.4,125.9,143.4z"/>
		<path fill="#FFFFFF" d="M37.1,130.1c-1,0-2.1-0.7-3.5-2.5c-2.5-3.1-1.3-6.3-0.3-8.9c0.4-1.2,0.8-2.3,0.9-3.2
			c0.2-2.3-0.8-5-1.8-7.7c-1.2-3.2-2.4-6.5-2-9.8c0-0.4,0.3-0.7,0.6-0.8s0.7-0.1,1,0c3.2,1.9,5.2,0.2,7.4-1.8
			c1.6-1.4,3.2-2.8,5.2-2.6c1.6,0.2,3,1.3,4.6,3.5c0.2,0.2,0.2,0.5,0.2,0.7c0,0.2,0,0.3-0.1,0.5c-0.3,0.8,0.3,2.4,0.8,3.7
			c0.5,1.4,1,2.8,1.1,4c0,1.5-0.2,3.2-0.5,4.7c-0.2,1.4-0.5,2.9-0.5,4.3l0,0.2c-0.1,7.3-1,11.1-2.8,12.2c-1,0.6-2.1,0.1-3.1-0.4
			c-0.2-0.1-0.5-0.2-0.7-0.3c-0.5,0.3-1.4,1.1-1.8,1.4c-0.1,0.2-0.3,0.4-0.6,0.5c-0.7,0.3-1.3,0.7-1.8,1.1
			C38.6,129.7,37.9,130.1,37.1,130.1z M32.5,99.9c0.1,2.3,1,4.8,1.9,7.2c1.1,2.9,2.2,5.8,2,8.7c-0.1,1.3-0.6,2.6-1,3.8
			c-0.9,2.5-1.7,4.6,0,6.7c1.6,2,1.8,1.9,2.8,1.1c0.5-0.4,1.2-0.9,2.1-1.3c0.5-0.6,1.5-1.3,2.6-2c0.8-0.5,1.7-0.1,2.6,0.3
			c0.3,0.1,0.9,0.4,1.1,0.4c0.4-0.4,1.6-2.1,1.7-10.3l0-0.2c0-1.6,0.3-3.1,0.5-4.7c0.2-1.6,0.5-3,0.4-4.4c0-0.9-0.5-2.1-0.9-3.3
			c-0.6-1.6-1.2-3.3-0.9-4.8c-1-1.4-2-2.1-2.8-2.2c-1.1-0.1-2.2,0.9-3.5,2C38.9,98.8,36.3,101.2,32.5,99.9z"/>
		<path fill="#FFFFFF" d="M105.8,103.2c-0.2,0-0.5-0.1-0.7-0.2c-0.5-0.4-0.6-1.1-0.2-1.5c0.3-0.5,0.5-0.8,0.6-0.9
			c-0.3-0.1-0.9-0.1-1.3-0.1c-1.1,0-2-0.1-2.6-0.7c-0.8-0.9-1.4-1.9-2-2.9c-0.8-1.4-1.5-2.7-2.8-3.4c-1.8-0.9-3.4-0.9-5-0.9
			c-2.4,0-5,0-8.2-2.5c-2.1-1.7-4.1-3.8-6-5.9c-0.8-0.9-1.6-1.7-2.3-2.5c-1.7-1.7-3.4-2.7-5.2-3.8c-1.3-0.8-2.6-1.6-4-2.7
			c-0.8-0.7-2.6-3.1-5.7-7.9c-0.2-0.4-0.4-0.5-0.7-0.7c-0.4-0.3-0.9-0.7-1.3-1.6c-0.8-1.5-1.1-3.3-1.5-5.1c-0.3-1.4-0.5-2.9-1-4
			c-1.7-4-6.9-9.3-12.3-10.6c-2.9-0.7-5.4-0.3-7.4,1.4c-0.8,0.7-1.5,1.6-2.2,2.5c-1.4,1.9-3,4-6.1,4.3c-2.2,0.2-3.4,0.2-3.9-0.7
			c-0.5-0.9,0.1-1.7,0.7-2.4c0.7-0.9,1.2-1.6,1-2.4c-0.4-0.1-1.4-0.2-1.9-0.2c-1.1,0-1.9,0-2.5-0.4c-3-2.1-3.4-2.6-3.7-4.6
			c-0.1-0.5-0.1-1.1-0.4-1.9c-0.3-1.2,0.3-2.2,0.7-2.9c0.3-0.6,0.6-0.9,0.6-1.3c-0.2-0.2-0.7-0.5-1.1-0.7c-1.1-0.6-2.1-1.3-2-2.4
			c0.5-3.1,1.9-3.5,3.1-3.7c0.6-0.1,0.6-0.1,0.8-0.8c0.2-1-0.1-1.6-0.4-2.5c-0.4-0.8-0.8-1.8-0.7-3.2c0.1-0.6-0.1-0.8-0.4-1.1
			c-0.3-0.3-0.7-0.7-0.6-1.4c0.1-0.8,0.7-1.4,1.7-2.3c0.4-0.3,1-0.4,3.4-0.6c0.8-0.1,1.9-0.2,2.3-0.2l0.9-0.6c0.3-0.2,0.7-0.2,1-0.1
			c1.2,0.5,2.2,0.6,2.8,0.3c1-0.4,1.5-1.8,2.1-3.1c0.8-2,1.8-4.7,4.9-3.9c0.4,0.1,0.8,0.5,0.8,0.9c0.3,0.7,3.6,2.5,4.5,2.4
			c0.3-0.1,0.8-0.8,1.2-1.3c0.5-0.7,1.1-1.5,1.9-1.9c1.3-0.8,2.4-0.6,3.2,0.5c0.3,0.1,0.6,0.4,0.7,0.8c0.1,0.7,0.4,0.9,0.4,1
			c0.1,0,0.4,0,1-0.4c0.1,0,0.1-0.1,0.2-0.1c2.4-1,2.8-1.8,2.8-2c0-0.2,0-0.4,0.1-0.5c0.4-1.1,0.9-1.7,1.7-1.9
			c0.4-0.1,1.1-0.2,1.8,0.4c0.1,0,0.1,0.1,0.2,0.1c0.1,0,0.3-0.1,0.5-0.2c-0.2-1.3-0.4-3.3,0.9-4.1c1.5-1,2.8,0,3.6,0.5
			c0.3,0.3,0.8,0.6,1,0.5c0.9-0.2,2.2-1,3.5-1.7c3.5-2,7.9-4.4,11.6-2.4c0.6,0.4,1.1,1.2,1.7,2.4c0.6,1.2,1.5,2.9,2.4,3.4
			C82.4,6.9,84.9,7,86.6,7c4.1,0.1,7.6,0.2,8.3,2.2c0.5,1.5-0.8,2.5-1.7,3.1c-0.4,0.3-0.9,0.6-1.1,0.9c0,0,0.1,0,0.1,0
			c0.6,0,2.1,0.2,2.1,1.7c0,0.7,0,1.3,0,1.8c0,1.2,0,2.1,0.3,4c0.1,0.6-0.3,1.2-0.9,1.3c-0.2,0-0.5,0-0.7-0.1
			c-0.3,0-1.2,0.1-3.5,0.7c-1.1,0.3-9.1,4.7-10.1,6c-0.2,0.8,0.4,1.5,1.4,2.6c0.8,0.9,1.7,1.9,1.6,3.1c-0.1,2-1.7,2.9-2.5,3.3
			c-0.4,5.6,2.4,8.8,7.2,12.3l1.6,1.1c5,3.7,7.4,5.3,10.2,12.2c2.7,6.5,5.2,10.6,10.8,13.8c3.1,1.8,5.2,2.2,8.7,2.4
			c0.6,0,1.5-0.2,2.4-0.4c2-0.5,4.4-1.1,6,1c0.7,1,0.1,2.3-0.8,3.9c-0.4,0.7-1.2,2.2-1.1,2.8c0.1,0,0.4,0.1,1.1,0
			c0.6-0.1,1.2,0.3,1.2,0.9c0.1,0.6-0.3,1.2-0.9,1.2c-0.6,0.1-2.3,0.3-3.2-0.9c-1-1.3,0-3.2,1-5.1c0.3-0.5,0.7-1.3,0.8-1.7
			c-0.7-0.6-1.8-0.4-3.6,0c-1,0.2-2.1,0.5-3,0.4c-3.7-0.3-6.2-0.8-9.7-2.7c-6.1-3.5-8.9-8.1-11.7-14.9c-2.6-6.3-4.5-7.7-9.5-11.3
			c-0.5-0.4-1-0.7-1.6-1.2c-5.4-4-8.7-7.9-8-14.8c0.1-0.7,0.6-1,1.1-1.2c0.9-0.4,1.3-0.7,1.3-1.4c0-0.4-0.6-1-1.1-1.6
			c-1-1.1-2.4-2.7-1.8-4.8c0.6-2.1,11.6-7.4,11.7-7.4c1.5-0.4,2.5-0.6,3.3-0.7c-0.1-1.2-0.2-2.1-0.2-3c0-0.4,0-0.8,0-1.3
			c0,0-0.1,0-0.1,0c-0.6,0-1.3-0.1-1.9-0.7c-0.2-0.3-0.5-0.7-0.4-1.4c0.1-1.4,1.2-2.2,2.1-2.8c0.3-0.2,0.7-0.5,0.9-0.7
			c-0.7-0.5-4.2-0.6-6.2-0.7c-3-0.1-4.9-0.2-5.9-0.8c-1.4-0.9-2.4-2.8-3.1-4.3c-0.3-0.6-0.7-1.4-0.9-1.5c-2.5-1.4-6.3,0.7-9.3,2.4
			c-1.5,0.9-2.9,1.6-4,1.9c-1.2,0.3-2.1-0.4-2.8-0.9c-0.8-0.6-0.9-0.6-1.1-0.5c0,0.1-0.1,0.6,0.1,2.2c0,0.2,0.1,0.4,0.1,0.5
			c0,0.2,0,0.3,0,0.5c-0.1,0.2-0.2,0.5-0.5,0.6c0,0,0,0,0,0c-0.1,0-0.1,0.1-0.2,0.1l0,0c-1.7,0.8-2.8,1.1-3.5,0.5
			c-0.1,2.1-3,3.4-4.1,3.8c-1.1,0.7-2.1,0.9-2.9,0.5c-0.7-0.3-1.3-1-1.6-2c-0.2-0.2-0.3-0.4-0.4-0.5c0,0,0,0,0-0.1
			c-0.1,0-0.2,0.1-0.3,0.1c-0.4,0.2-0.8,0.8-1.2,1.3c-0.7,0.9-1.3,1.8-2.3,2.1c-1.6,0.5-4.6-1.3-4.9-1.5c-1.2-0.7-1.8-1.4-2.1-1.8
			c-0.7,0-1.1,0.7-1.9,2.7c-0.7,1.7-1.4,3.6-3.2,4.4c-1.1,0.5-2.4,0.4-4-0.1l-0.6,0.4c-0.1,0.1-0.2,0.1-0.3,0.1
			c-0.5,0.2-1.4,0.2-3,0.4c-0.8,0.1-1.9,0.2-2.4,0.2c-0.3,0.2-0.5,0.4-0.6,0.5c0.4,0.4,1,1.2,0.8,2.6c-0.1,0.8,0.2,1.4,0.5,2.1
			c0.4,0.9,1,2.1,0.6,3.9c-0.5,2.2-1.9,2.4-2.6,2.5c-0.6,0.1-0.9,0.1-1.1,1.5c0.2,0.2,0.6,0.4,0.9,0.6c1,0.6,2,1.2,2.1,2.2
			c0.1,1.2-0.4,2.1-0.9,2.9c-0.3,0.6-0.6,0.9-0.5,1.3c0.2,1,0.3,1.7,0.4,2.2c0.2,1.2,0.2,1.3,2.7,3c0.1,0,0.8,0,1.3,0
			c1.6,0,3.4,0.1,3.9,1.4c0.7,1.8-0.3,3.4-1,4.4c0.3,0,0.6,0,1.1-0.1c2.2-0.2,3.3-1.7,4.5-3.4c0.7-1,1.5-2.1,2.6-2.9
			c2.5-2.1,5.7-2.7,9.3-1.8c6.2,1.6,11.9,7.3,13.8,11.9c0.6,1.3,0.9,2.9,1.1,4.4c0.3,1.6,0.6,3.3,1.2,4.5c0.3,0.5,0.4,0.6,0.7,0.8
			c0.3,0.3,0.7,0.6,1.2,1.2c3.8,5.8,4.9,7.1,5.3,7.4c1.2,1,2.5,1.7,3.7,2.5c1.8,1.1,3.7,2.2,5.6,4.2c0.8,0.8,1.6,1.7,2.4,2.5
			c1.8,2,3.8,4.1,5.8,5.6c2.5,2,4.5,2,6.8,2c1.9,0,3.8,0,6,1.1c1.9,0.9,2.9,2.7,3.8,4.3c0.5,0.9,1,1.7,1.6,2.4
			c0.2,0.1,0.8,0.1,1.2,0.1c1.2,0,2.7,0.1,3.3,1.3c0.5,1.1-0.2,2.3-0.9,3.3C106.4,103,106.1,103.2,105.8,103.2z M92.5,21.2
			c0,0.1,0,0.2,0.1,0.3C92.6,21.4,92.5,21.3,92.5,21.2z M20,20.3L20,20.3L20,20.3z"/>
	</g>
</g>
</svg>
