<svg id="Layer_1" data-name="Layer 1" xmlns="http://www.w3.org/2000/svg" viewBox="0 0 340 225"><title>CardsRome</title><circle cx="171.32" cy="151.26" r="1.75" fill="#fff" stroke="#fff" stroke-miterlimit="10" stroke-width="3"/><polyline points="192.24 100.71 192.24 78.15 277.24 78.15 277.24 192.93 192.24 192.93 192.24 110.36" fill="none" stroke="#fff" stroke-linejoin="round" stroke-width="3"/><circle cx="199.18" cy="205.77" r="4.82" fill="none" stroke="#fff" stroke-linejoin="round" stroke-width="3"/><circle cx="271.15" cy="205.77" r="4.82" fill="none" stroke="#fff" stroke-linejoin="round" stroke-width="3"/><line x1="218.88" y1="110.36" x2="218.88" y2="192.93" fill="none" stroke="#fff" stroke-linejoin="round" stroke-width="3"/><line x1="218.88" y1="79.56" x2="218.88" y2="100.72" fill="none" stroke="#fff" stroke-linejoin="round" stroke-width="3"/><polyline points="229.26 100.72 229.26 96.52 243.19 96.52 243.19 114.2 229.26 114.2 229.26 110.36" fill="none" stroke="#fff" stroke-linejoin="round" stroke-width="3"/><g opacity="0.3"><path d="M0,183.63H10.88a10.19,10.19,0,0,0,8.61-4.74s13.27-19.82,18.21-28.06c2.13-3.54,4.69-6.74,8.78-6.19L67,147.33" fill="none" stroke="#fff" stroke-linejoin="round" stroke-width="3"/><path d="M51.29,128.28c2.84-3.82,4.52-5.41,4.52-10.53H45.46A3.73,3.73,0,0,1,41.73,114v-1.18a3.73,3.73,0,0,1,3.73-3.73h20.3a3.73,3.73,0,0,1,3.73,3.73V114a3.73,3.73,0,0,1-3.73,3.73h-6" fill="none" stroke="#fff" stroke-linejoin="round" stroke-width="3"/><path d="M0,200.93H37.1a7.81,7.81,0,0,1,5.1,1.89l9.17,6.09a7.81,7.81,0,0,0,5.1,1.89h64.58a6.84,6.84,0,0,0,6.84-6.84V120.39a6.84,6.84,0,0,0-6.84-6.84H86.73a6.84,6.84,0,0,0-6.84,6.84v65" fill="none" stroke="#fff" stroke-linejoin="round" stroke-width="3"/><path d="M0,191.89H97.86a6.65,6.65,0,0,0,6.65-6.65" fill="none" stroke="#fff" stroke-linejoin="round" stroke-width="3"/><path d="M86.25,122.34,104.06,151a54,54,0,0,1,8.11,28.45v21.44" fill="none" stroke="#fff" stroke-linejoin="round" stroke-width="3"/><path d="M79.89,159.85H68.51c-13.87,0-23.92,5.51-33.73,15.32l-4.38,4.38" fill="none" stroke="#fff" stroke-linejoin="round" stroke-width="3"/><path d="M34.84,128.52c-2.48-3.59-6.95-15.88-8.91-21.79" fill="none" stroke="#fff" stroke-linejoin="round" stroke-width="3"/><path d="M21.88,136.5c0,2.57-1.68,4.66-3.74,4.66H0" fill="none" stroke="#fff" stroke-linejoin="round" stroke-width="3"/><path d="M79.89,139.33,49,134a117.23,117.23,0,0,0-19.86-1.69H24.69a2.8,2.8,0,0,1-2.8-2.8v-6.11c0-8.09-7.35-10.68-13.11-11.46" fill="none" stroke="#fff" stroke-linejoin="round" stroke-width="3"/><path d="M20.38,90c-.71-1.91-1.46-3.81-2.25-5.63l-.1-.25C14.29,75.35,7.64,68.45,0,68.3" fill="none" stroke="#fff" stroke-linejoin="round" stroke-width="3"/><path d="M0,95H32.67a2.64,2.64,0,0,1,2.64,2.64v1.4a2.64,2.64,0,0,1-2.64,2.64H16.86A13.28,13.28,0,0,0,6,107.38H6a13.28,13.28,0,0,0-1,13.5l5,10.06" fill="none" stroke="#fff" stroke-linejoin="round" stroke-width="3"/><path d="M130,177h26a15.47,15.47,0,0,0,15.47-15.47V120.83a15.47,15.47,0,0,1,15.47-15.47h49.06" fill="none" stroke="#fff" stroke-linejoin="round" stroke-width="3"/></g><line y1="219.23" x2="311.54" y2="219.23" fill="none" stroke="#fff" stroke-linejoin="round" stroke-width="3"/></svg>