<?xml version="1.0" encoding="utf-8"?>
<!-- Generator: Adobe Illustrator 22.1.0, SVG Export Plug-In . SVG Version: 6.00 Build 0)  -->
<svg version="1.1" id="Layer_1" xmlns="http://www.w3.org/2000/svg" xmlns:xlink="http://www.w3.org/1999/xlink" x="0px" y="0px"
	viewBox="0 0 231.7 132.9" enable-background="new 0 0 231.7 132.9" xml:space="preserve">
<g>
	<path fill="#FFFFFF" d="M128.8,116.8c-1.5,0-2.8,1.3-2.8,2.8s1.3,2.8,2.8,2.8s2.8-1.3,2.8-2.8S130.3,116.8,128.8,116.8z
		 M128.8,120.2c-0.3,0-0.6-0.3-0.6-0.6s0.3-0.6,0.6-0.6s0.6,0.3,0.6,0.6S129.1,120.2,128.8,120.2z"/>
	<rect x="85.1" y="38.4" fill="#FFFFFF" width="2.2" height="6.4"/>
	<rect x="85.1" y="53" fill="#FFFFFF" width="2.2" height="6.4"/>
	<rect x="69.5" y="38.4" fill="#FFFFFF" width="2.2" height="6.4"/>
	<rect x="69.5" y="53" fill="#FFFFFF" width="2.2" height="6.4"/>
	<rect x="201.6" y="29.8" fill="#FFFFFF" width="2.2" height="6.4"/>
	<rect x="201.6" y="44.5" fill="#FFFFFF" width="2.2" height="6.4"/>
	<rect x="186.1" y="29.8" fill="#FFFFFF" width="2.2" height="6.4"/>
	<rect x="201.6" y="15.2" fill="#FFFFFF" width="2.2" height="6.4"/>
	<rect x="186.1" y="15.2" fill="#FFFFFF" width="2.2" height="6.4"/>
	<rect x="186.1" y="44.5" fill="#FFFFFF" width="2.2" height="6.4"/>
	<rect x="53.1" y="38.4" fill="#FFFFFF" width="2.2" height="6.4"/>
	<rect x="53.1" y="53" fill="#FFFFFF" width="2.2" height="6.4"/>
	<path opacity="0.3" fill="#FFFFFF" enable-background="new    " d="M36,107.9c-7.4,0-13.5-6-13.5-13.5v-41
		c-0.3,0.1-0.7,0.2-1.1,0.2s-0.8-0.1-1.1-0.2v41c0,8.6,7,15.7,15.7,15.7h17.1v-2.2H36z"/>
	<path opacity="0.3" fill="#FFFFFF" enable-background="new    " d="M22.5,47.1V26.2h-2.2v20.9c0.4-0.1,0.7-0.2,1.1-0.2
		C21.8,46.9,22.1,46.9,22.5,47.1z"/>
	<rect x="20.2" y="24.9" fill="#FFFFFF" width="2.2" height="1.2"/>
	<rect x="20.2" y="24.9" opacity="0.3" fill="#FFFFFF" enable-background="new    " width="2.2" height="1.2"/>
	<path fill="#FFFFFF" d="M22.5,53.4c1.3-0.5,2.3-1.7,2.3-3.2s-1-2.7-2.3-3.2c-0.3-0.1-0.7-0.2-1.1-0.2s-0.8,0.1-1.1,0.2
		C19,47.5,18,48.8,18,50.2c0,1.5,0.9,2.7,2.3,3.2c0.3,0.1,0.7,0.2,1.1,0.2C21.8,53.6,22.1,53.5,22.5,53.4z"/>
	<path fill="#FFFFFF" d="M231.7,1h-59.1c-0.6,0-1.1,0.5-1.1,1.1v69.6h-68.8V25c0-0.6-0.5-1.1-1.1-1.1H73l9.2-22.4
		c0.1-0.3,0.1-0.7-0.1-1S81.5,0,81.1,0H60.7c-0.5,0-0.9,0.3-1,0.7l-6.5,17.4l2.1,0.8l6.2-16.7h18.1l-8.9,21.7H39.4l9.2-22.4
		c0.1-0.3,0.1-0.7-0.1-1S48,0,47.6,0H27.1c-0.5,0-0.9,0.3-1,0.7l-6.5,17.4l2.1,0.8l6.2-16.7H46l-8.9,21.7H0v2.2h20.2v-1.2h2.2v1.2
		h78.1v45.5H54.2c-0.6,0-1.1,0.5-1.1,1.1v35.1v2.2v21.8c0,0.6,0.5,1.1,1.1,1.1h102.1h6.3h15.5c0.6,0,1.1-0.5,1.1-1.1v-11h11.3
		c0.6,0,1.1-0.5,1.1-1.1v-10.2h11.2c0.6,0,1.1-0.5,1.1-1.1V74.9h14.3v-2.2h-15.4c-0.6,0-1.1,0.5-1.1,1.1v33.5h-11.2
		c-0.6,0-1.1,0.5-1.1,1.1v10.2h-11.3c-0.6,0-1.1,0.5-1.1,1.1v11h-13.3v-11.2h-2.2v11.2h-4.1v-13.9h9.8c0.6,0,1.1-0.5,1.1-1.1v-10.4
		c0-3.7-3-6.8-6.8-6.8h-0.9h-2.7c-3.2,0-6.2,1.9-7.4,4.9l-3.8,8.7l2,0.9l3.8-8.7c0.9-2.2,3-3.6,5.4-3.6h2.7h0.9
		c2.5,0,4.6,2.1,4.6,4.6v9.3h-9.8c-0.6,0-1.1,0.5-1.1,1.1v15h-17c0.2-0.4,0.3-0.9,0.3-1.5v-10.9V109c0-2.2-0.6-3.7-1.5-5.5l-0.6-1
		c-0.1-0.1-0.2-0.3-0.2-0.4h4.5c1.8,0,3.2-1.4,3.2-3.2c0-1.4-0.9-2.7-2.3-3.1l-3.7-1.1c-1-0.3-2-0.1-2.8,0.5s-1.3,1.5-1.3,2.5h2.2
		c0-0.3,0.1-0.6,0.4-0.7c0.2-0.2,0.5-0.2,0.8-0.1L141,98c0.4,0.1,0.7,0.5,0.7,1c0,0.6-0.5,1-1,1h-4.9c-0.3,0-0.5,0.1-0.7,0.3
		l-0.7,0.6c-0.8,0.6-0.8,1.5-0.1,2.6c0.1,0.1,0.1,0.2,0.2,0.2l0.6,1c0.8,1.5,1.3,2.6,1.3,4.4v9.3c0,3.1-2.5,5.7-5.7,5.7H93.4
		c-3.1,0-5.7-2.5-5.7-5.7v-9.3c0-1.7,0.5-2.9,1.3-4.4l0.6-1c0-0.1,0.1-0.2,0.2-0.2c0.7-1.1,0.7-1.9-0.1-2.6l-0.7-0.6
		c-0.2-0.2-0.4-0.3-0.7-0.3h-4.9c-0.6,0-1-0.5-1-1s0.3-0.8,0.7-1l3.7-1.1c0.3-0.1,0.6,0,0.8,0.1c0.2,0.2,0.4,0.4,0.4,0.7h2.2
		c0-1-0.5-1.9-1.3-2.5s-1.8-0.8-2.8-0.5l-3.7,1.1c-1.4,0.4-2.3,1.6-2.3,3.1c0,1.8,1.4,3.2,3.2,3.2h4.5l0,0c-0.1,0.1-0.2,0.3-0.2,0.4
		l-0.6,1c-0.9,1.7-1.5,3.2-1.5,5.5v7.5h-5.8c-2.7,0-4.8-2.2-4.8-4.8v-10.2c0-2.4-1.2-4.6-3.1-5.8v-0.1c0-1.7-1.4-3-3-3
		c-1.3,0-2.4,0.8-2.8,1.9h-4.6v-4.2c0-2.2-1.8-4.1-4.1-4.1h-2.1V73.9h117.4c0.6,0,1.1-0.5,1.1-1.1V3.2h58L231.7,1L231.7,1z
		 M96.8,130.7c0.2-0.4,0.3-0.9,0.3-1.5v-3.1h29.8v3.1c0,0.5,0.1,1,0.3,1.5H96.8z M136.3,123.8v5.5c0,0.7-0.6,1.3-1.3,1.3h-4.6
		c-0.7,0-1.3-0.6-1.3-1.3v-3.1h1.5C132.9,126.2,134.9,125.3,136.3,123.8z M93.4,126.2h1.5v3.1c0,0.7-0.6,1.3-1.3,1.3H89
		c-0.7,0-1.3-0.6-1.3-1.3v-5.5C89.1,125.3,91.2,126.2,93.4,126.2z M66,96.7c0.4,1.1,1.5,1.9,2.8,1.9c0.8,0,1.5-0.3,2.1-0.8
		c1.1,0.9,1.8,2.2,1.8,3.7v10.2c0,3.9,3.2,7,7,7h5.8v10.5c0,0.5,0.1,1,0.3,1.5H55.3v-23.4h2.1c2.2,0,4.1-1.8,4.1-4.1v-6.6H66V96.7z
		 M57.4,88.4c1,0,1.9,0.8,1.9,1.9v13c0,1-0.8,1.9-1.9,1.9h-2.1V88.4H57.4z"/>
	<path fill="#FFFFFF" d="M126.2,89.1l4.1,7.2l1.9-1.1L128,88c-1.2-2-3.4-3.2-5.7-3.2h-20.7c-2.3,0-4.5,1.2-5.7,3.2l-4.2,7.2l1.9,1.1
		l4.2-7.2c0.8-1.3,2.2-2.2,3.8-2.2h20.7C123.9,87,125.4,87.8,126.2,89.1z"/>
	<rect x="102.7" y="119.1" fill="#FFFFFF" width="18.6" height="2.2"/>
	<path fill="#FFFFFF" d="M95.2,116.8c-1.5,0-2.8,1.3-2.8,2.8s1.3,2.8,2.8,2.8s2.8-1.3,2.8-2.8S96.8,116.8,95.2,116.8z M95.2,120.2
		c-0.3,0-0.6-0.3-0.6-0.6s0.3-0.6,0.6-0.6c0.3,0,0.6,0.3,0.6,0.6S95.6,120.2,95.2,120.2z"/>
	<path fill="#FFFFFF" d="M95.2,106.7c-2,0-3.6,1.6-3.6,3.6s1.6,3.6,3.6,3.6s3.6-1.6,3.6-3.6S97.2,106.7,95.2,106.7z M95.2,111.7
		c-0.8,0-1.4-0.6-1.4-1.4s0.6-1.4,1.4-1.4s1.4,0.6,1.4,1.4S96,111.7,95.2,111.7z"/>
	<path fill="#FFFFFF" d="M128.8,106.7c-2,0-3.6,1.6-3.6,3.6s1.6,3.6,3.6,3.6s3.6-1.6,3.6-3.6S130.8,106.7,128.8,106.7z M128.8,111.7
		c-0.8,0-1.4-0.6-1.4-1.4s0.6-1.4,1.4-1.4s1.4,0.6,1.4,1.4S129.5,111.7,128.8,111.7z"/>
	<path fill="#FFFFFF" d="M154,91.3c0,2.9,2.4,5.2,5.2,5.2s5.2-2.4,5.2-5.2s-2.4-5.2-5.2-5.2S154,88.4,154,91.3z M162.3,91.3
		c0,1.7-1.4,3-3,3s-3-1.4-3-3c0-1.7,1.4-3,3-3S162.3,89.6,162.3,91.3z"/>
</g>
</svg>
