<?xml version="1.0" encoding="utf-8"?>
<!-- Generator: Adobe Illustrator 19.0.0, SVG Export Plug-In . SVG Version: 6.00 Build 0)  -->
<svg version="1.1" id="Livello_1" xmlns="http://www.w3.org/2000/svg" xmlns:xlink="http://www.w3.org/1999/xlink" x="0px" y="0px"
	 viewBox="-838.1 969.8 337.8 219.2" enable-background="new -838.1 969.8 337.8 219.2" xml:space="preserve">
<title>santiago-green</title>
<g id="Layer_2">
	<g id="copy">
		<g>
			<g>
				<g>
					<path fill="none" stroke="#FFFFFF" stroke-width="3" stroke-linejoin="round" d="M-641.9,1073.2c2.9,1.7,6.5,0.7,8.2-2.2
						c1.2-2,1.1-4.6-0.3-6.5c-2-2.8-5.9-3.3-8.6-1.3c-0.6,0.5-1.2,1-1.6,1.7l-0.1,0.2c-1.6,2.6-5,3.5-7.6,1.9l0,0L-641.9,1073.2z"/>
					<path fill="none" stroke="#FFFFFF" stroke-width="3" stroke-linejoin="round" d="M-630,1062.2l-2.9-2l-0.1-1.2
						c0-1.9-1.5-3.4-3.4-3.4c-1.9,0-3.4,1.5-3.4,3.4c0,1.5,1,2.9,2.5,3.3"/>
					
						<line fill="none" stroke="#FFFFFF" stroke-width="3" stroke-linejoin="round" x1="-639.7" y1="1074.3" x2="-639.7" y2="1078.8"/>
					
						<line fill="none" stroke="#FFFFFF" stroke-width="3" stroke-linejoin="round" x1="-639.5" y1="1175.6" x2="-639.5" y2="1187.4"/>
					<path fill="none" stroke="#FFFFFF" stroke-width="3" stroke-linejoin="round" d="M-646.2,1113.2c9,3.7,19.2-0.6,22.9-9.6
						c3.7-9-0.6-19.2-9.6-22.9c-9-3.7-19.2,0.6-22.9,9.6c-0.9,2.1-1.3,4.4-1.3,6.6c0,0.6,0,1.1,0.1,1.6
						C-656.4,1105.1-652.2,1110.8-646.2,1113.2z"/>
					<path fill="none" stroke="#FFFFFF" stroke-width="3" stroke-linejoin="round" d="M-613.7,1158.8v20.2"/>
					
						<line fill="none" stroke="#FFFFFF" stroke-width="3" stroke-linejoin="round" x1="-546.3" y1="1175.4" x2="-546.3" y2="1187.3"/>
					<circle fill="none" stroke="#FFFFFF" stroke-width="3" stroke-linejoin="round" cx="-546.3" cy="1104.2" r="15.9"/>
					<circle fill="none" stroke="#FFFFFF" stroke-width="3" stroke-linejoin="round" cx="-546.3" cy="1147.8" r="27.7"/>
					<path fill="none" stroke="#FFFFFF" stroke-width="3" stroke-linejoin="round" d="M-838,1120.1c5.3,0.3,10.7-2.2,13.9-6.9
						c4.9-7.3,3-17.1-4.2-22.1c-2.9-2-6.3-2.9-9.7-2.8"/>
					<path fill="none" stroke="#FFFFFF" stroke-width="3" stroke-linejoin="round" d="M-831.3,1187.3h-5v-11.9
						c12,0.3,23.2-7.2,27-19.2c4.7-14.6-5-30.1-19.6-34.8c-3-1-6.1-1.4-9.1-1.3"/>
					<path fill="none" stroke="#FFFFFF" stroke-width="3" stroke-linejoin="round" d="M-500.8,1058h-45.5v31.3"/>
					<path fill="none" stroke="#FFFFFF" stroke-width="3" stroke-linejoin="round" d="M-568.2,1164.6c0,7.3,0,14.9,0,22.6h-103.1"/>
					<path fill="none" stroke="#FFFFFF" stroke-width="3" stroke-linecap="round" stroke-linejoin="round" d="M-613.6,1130.9
						c0.9-108.8,5.8-133.6,5.8-133.6h4.7l0.2,17.6h5.9v-17.6h12.2v17.6h5.8l0.2-17.6h4.7c0,0,4.4,24.8,5.6,133.4"/>
					<path fill="none" stroke="#FFFFFF" stroke-width="3" stroke-linejoin="round" d="M-500.3,1187.3h-59"/>
					<path fill="none" stroke="#FFFFFF" stroke-width="3" stroke-linejoin="round" d="M-694.3,1120.5v-33.6h-4.9v-18.8h-2
						c2.8-2.8-0.7-7.6-0.3-7.3h2.3v-5.5h-10.4v5.5h2.3c0.3-0.3-3.2,4.5-0.3,7.4h-1.9v18.8h-4.8v33.5"/>
					<path fill="none" stroke="#FFFFFF" stroke-width="3" stroke-linejoin="round" d="M-767.9,1187.5h9.4v-29.1
						c0.2-5.1,4.6-9.1,9.7-8.8c4.8,0.2,8.6,4,8.8,8.8v28.9 M-807.7,1187.5h8.1v-29.1c0.2-5.1,4.6-9.1,9.7-8.8c4.8,0.2,8.6,4,8.8,8.8
						v29.1h7.5v-41.9 M-820.6,1171v16.6h7.8l0.1-24.2 M-683.1,1187.3h5.4v-59.8h-47v-16.3h-4.6v-2c0-8.5-6.2-16.8-14.5-18.4v-2.2
						c0-1.3-0.5-2.5-1.4-3.5l-1.6-1.1c-2.6-1.2-5.7-0.2-6.9,2.4c-0.3,0.7-0.5,1.5-0.5,2.3v1.9c-8.5,1.5-14.9,9.8-14.9,18.5v2h-4.5
						v16.3H-819 M-724.3,1146.9v40.4h7v-28.9c0.2-5.1,4.4-9.1,9.5-8.9c4.9,0.2,8.8,4.1,8.9,8.9v28.9h11.2v-43 M-778.8,1141.4
						l11.8-8.8l5.5-4.1l5.7-4.2c3.7-2.8,8.8-2.8,12.6,0l5.7,4.2l5.5,4.1l11.8,8.8"/>
					<path fill="none" stroke="#FFFFFF" stroke-width="3" stroke-linejoin="round" d="M-783.9,1120.5v-33.6h-4.8v-18.8h-2
						c2.8-2.8-0.7-7.6-0.3-7.3h2.3v-5.5h-10.4v5.5h2.2c0.3-0.3-3.2,4.5-0.3,7.4h-1.9v18.8h-4.8v33.5"/>
					<circle fill="none" stroke="#FFFFFF" stroke-width="3" stroke-linejoin="round" cx="-640.3" cy="1144.8" r="30"/>
				</g>
			</g>
		</g>
	</g>
</g>
</svg>
