<svg xmlns="http://www.w3.org/2000/svg" viewBox="0 0 136.2 153.97"><defs><style>.cls-1{fill:none;stroke:#fff;stroke-linecap:round;stroke-linejoin:round;stroke-width:3.52px;}</style></defs><title>santiago-e-bus</title><g id="Layer_2" data-name="Layer 2"><g id="artwork"><path class="cls-1" d="M35.43,1.76H95.26a24.62,24.62,0,0,1,24.62,24.62v124.4"/><polyline class="cls-1" points="35.64 7.28 82.77 18.53 35.64 26.97 82.77 38.93"/><line class="cls-1" x1="1.76" y1="152.22" x2="134.44" y2="152.22"/><rect class="cls-1" x="16.76" y="39.76" width="87" height="101" rx="11.65" ry="11.65"/><rect class="cls-1" x="81.26" y="124.76" width="15" height="7"/><rect class="cls-1" x="24.26" y="124.76" width="15" height="7"/><line class="cls-1" x1="46.76" y1="131.76" x2="73.76" y2="131.76"/><path class="cls-1" d="M16.76,92.76l5.08,5.08a6.56,6.56,0,0,0,4.64,1.92H94a6.56,6.56,0,0,0,4.64-1.92l5.08-5.08"/><polyline class="cls-1" points="34.26 141.76 34.26 149.76 22.26 149.76 22.26 139.76"/><polyline class="cls-1" points="86.26 141.76 86.26 149.76 98.26 149.76 98.26 140.76"/><line class="cls-1" x1="17.76" y1="53.76" x2="51.76" y2="53.76"/><line class="cls-1" x1="69.76" y1="53.76" x2="102.76" y2="53.76"/><rect class="cls-1" x="51.76" y="49.76" width="17" height="7"/><path class="cls-1" d="M14.89,74.76a6.12,6.12,0,0,0-6.13,6.13v5.74a6.13,6.13,0,0,0,6.13,6.13"/><path class="cls-1" d="M105.63,92.76a6.14,6.14,0,0,0,6.13-6.13V80.89a6.13,6.13,0,0,0-6.13-6.13"/><path class="cls-1" d="M93.76,99.76a11,11,0,0,0-22,0"/></g></g></svg>