<?xml version="1.0" encoding="utf-8"?>
<!-- Generator: Adobe Illustrator 19.0.0, SVG Export Plug-In . SVG Version: 6.00 Build 0)  -->
<svg version="1.1" id="Livello_1" xmlns="http://www.w3.org/2000/svg" xmlns:xlink="http://www.w3.org/1999/xlink" x="0px" y="0px"
	 viewBox="-417.3 485.8 338 225" enable-background="new -417.3 485.8 338 225" xml:space="preserve">
<title>santiago-green</title>
<g id="Layer_2">
	<g id="copy">
		<g>
			<defs>
				<rect id="SVGID_1_" x="-417.3" y="453.3" width="338" height="262"/>
			</defs>
			<clipPath id="SVGID_2_">
				<use xlink:href="#SVGID_1_"  overflow="visible"/>
			</clipPath>
			<g clip-path="url(#SVGID_2_)">
				<path fill="none" stroke="#FFFFFF" stroke-width="3" stroke-linejoin="round" d="M-215.9,589.7c2.9,1.7,6.5,0.7,8.2-2.2
					c1.2-2,1.1-4.6-0.3-6.5c-2-2.8-5.9-3.3-8.6-1.3c-0.6,0.5-1.2,1-1.6,1.7l-0.1,0.2c-1.6,2.6-5,3.5-7.6,1.9l0,0L-215.9,589.7z"/>
				<path fill="none" stroke="#FFFFFF" stroke-width="3" stroke-linejoin="round" d="M-204,578.7l-2.9-2l-0.1-1.2
					c0-1.9-1.5-3.4-3.4-3.4c-1.9,0-3.4,1.5-3.4,3.4c0,1.5,1,2.9,2.5,3.3"/>
				<line fill="none" stroke="#FFFFFF" stroke-width="3" stroke-linejoin="round" x1="-213.7" y1="590.8" x2="-213.7" y2="595.3"/>
				<line fill="none" stroke="#FFFFFF" stroke-width="3" stroke-linejoin="round" x1="-213.5" y1="692.1" x2="-213.5" y2="703.9"/>
				<path fill="none" stroke="#FFFFFF" stroke-width="3" stroke-linejoin="round" d="M-220.2,629.7c9,3.7,19.2-0.6,22.9-9.6
					c3.7-9-0.6-19.2-9.6-22.9c-9-3.7-19.2,0.6-22.9,9.6c-0.9,2.1-1.3,4.4-1.3,6.6c0,0.6,0,1.1,0.1,1.6
					C-230.4,621.6-226.2,627.2-220.2,629.7z"/>
				<path fill="none" stroke="#FFFFFF" stroke-width="3" stroke-linejoin="round" d="M-187.7,676.3v19.2"/>
				<line fill="none" stroke="#FFFFFF" stroke-width="3" stroke-linejoin="round" x1="-120.3" y1="691.9" x2="-120.3" y2="703.8"/>
				<line fill="none" stroke="#FFFFFF" stroke-width="3" stroke-linejoin="round" x1="-413.3" y1="691.9" x2="-413.3" y2="703.8"/>
				<circle fill="none" stroke="#FFFFFF" stroke-width="3" stroke-linejoin="round" cx="-120.3" cy="620.7" r="15.9"/>
				<circle fill="none" stroke="#FFFFFF" stroke-width="3" stroke-linejoin="round" cx="-120.3" cy="664.2" r="27.7"/>
				<path fill="none" stroke="#FFFFFF" stroke-width="3" stroke-linejoin="round" d="M-420.2,633.8c7.3,4.9,17.1,3,22.1-4.2
					c4.9-7.3,3-17.1-4.2-22.1c-5.2-3.6-12.1-3.7-17.4-0.3"/>
				<path fill="none" stroke="#FFFFFF" stroke-width="3" stroke-linejoin="round" d="M-419.8,690.6c14.6,4.7,30.1-3.3,34.8-17.9
					c4.7-14.6-3.3-30.1-17.9-34.8c-5.5-1.8-11.4-1.8-17,0"/>
				<path fill="none" stroke="#FFFFFF" stroke-width="3" stroke-linejoin="round" d="M-72.8,574.5h-47.5v31.3"/>
				<path fill="none" stroke="#FFFFFF" stroke-width="3" stroke-linecap="round" stroke-linejoin="round" d="M-142.2,681.1
					c0,7.3,0,14.9,0,22.6h-103.1"/>
				<path fill="none" stroke="#FFFFFF" stroke-width="3" stroke-linecap="round" stroke-linejoin="round" d="M-187.6,647.4
					c0.9-108.8,5.8-159.6,5.8-159.6h4.7l0.2,17.6h5.9v-17.6h12.2v17.6h5.8l0.2-17.6h4.7c0,0,4.4,50.8,5.6,159.4"/>
				<path fill="none" stroke="#FFFFFF" stroke-width="3" stroke-linecap="round" stroke-linejoin="round" d="M-74.3,703.8h-59"/>
				<path fill="none" stroke="#FFFFFF" stroke-width="3" stroke-linejoin="round" d="M-268.3,637v-33.6h-4.9v-18.8h-2
					c2.8-2.8-0.7-7.6-0.3-7.3h2.3v-5.5h-10.4v5.5h2.3c0.3-0.3-3.2,4.5-0.3,7.4h-1.9v18.8h-4.8V637"/>
				<path fill="none" stroke="#FFFFFF" stroke-width="3" stroke-linejoin="round" d="M-341.9,704h9.4v-29.1c0.2-5.1,4.6-9.1,9.7-8.8
					c4.8,0.2,8.6,4,8.8,8.8v28.9 M-381.7,704h8.1v-29.1c0.2-5.1,4.6-9.1,9.7-8.8c4.8,0.2,8.6,4,8.8,8.8V704h7.5v-41.9 M-394.6,686.4
					V704h7.8l0.1-26.3 M-257.1,703.8h5.4V644h-47v-16.3h-4.6v-2c0-8.5-6.2-16.8-14.5-18.4v-2.2c0-1.3-0.5-2.5-1.4-3.5l-1.6-1.1
					c-2.6-1.2-5.7-0.2-6.9,2.4c-0.3,0.7-0.5,1.5-0.5,2.3v1.9c-8.5,1.5-14.9,9.8-14.9,18.5v2h-4.5v16.3H-393 M-298.3,663.4v40.4h7
					v-28.9c0.2-5.1,4.4-9.1,9.5-8.9c4.9,0.2,8.8,4.1,8.9,8.9v28.9h11.2v-43 M-352.8,657.9l11.8-8.8l5.5-4.1l5.7-4.2
					c3.7-2.8,8.8-2.8,12.6,0l5.7,4.2l5.5,4.1l11.8,8.8"/>
				<path fill="none" stroke="#FFFFFF" stroke-width="3" stroke-linejoin="round" d="M-357.9,637v-33.6h-4.8v-18.8h-2
					c2.8-2.8-0.7-7.6-0.3-7.3h2.3v-5.5h-10.4v5.5h2.2c0.3-0.3-3.2,4.5-0.3,7.4h-1.9v18.8h-4.8V637"/>
				<circle fill="none" stroke="#FFFFFF" stroke-width="3" stroke-linejoin="round" cx="-214.3" cy="661.3" r="30"/>
				
					<line fill="none" stroke="#FFFFFF" stroke-width="3" stroke-linecap="round" stroke-linejoin="round" x1="-419.3" y1="703.9" x2="-400.3" y2="703.8"/>
			</g>
		</g>
	</g>
</g>
</svg>
