<?xml version="1.0" encoding="utf-8"?>
<!-- Generator: Adobe Illustrator 21.1.0, SVG Export Plug-In . SVG Version: 6.00 Build 0)  -->
<svg version="1.1" id="Layer_1" xmlns="http://www.w3.org/2000/svg" xmlns:xlink="http://www.w3.org/1999/xlink" x="0px" y="0px"
	 viewBox="0 0 264.9 140" enable-background="new 0 0 264.9 140" xml:space="preserve">
<g>
	<path fill="none" d="M41.2,39.9c5.5-2.9,15.6-5.4,22-5.4H78c0.3,0,0.5-0.3,0.5-0.6v-1.1c0-0.3-0.2-0.6-0.5-0.6H63.2
		c-6.4,0-16.5-2.5-22-5.4c-1.5-0.8-2.4-1.7-3.2-2.5c-2-1.9-3.7-3.6-15.1-3.6v2.2c0,1.3-1.1,2.4-2.4,2.4h-8.1c-0.1,0-0.1,0-0.2,0
		v16.3c0.1,0,0.1,0,0.2,0h8.1c1.3,0,2.4,1.1,2.4,2.4V46C34.3,45.9,36,44.3,38,42.4C38.8,41.6,39.7,40.7,41.2,39.9z M19.7,33.6
		c0-4,18-5.2,18.2-5.2c2.7,0,5,2.3,5,5.2s-2.2,5.2-5,5.2C37.8,38.8,19.7,37.6,19.7,33.6z"/>
	<path fill="none" d="M38,30.5c-2.5,0-13.5,1.6-15.8,3c2.2,1.4,13.3,3,15.8,3c1.5,0,2.8-1.4,2.8-3S39.5,30.5,38,30.5z"/>
	<polygon fill="none" points="170.2,44.8 176.4,44.8 176.4,44.8 176.4,42.4 170.1,42.4 	"/>
	<path fill="none" d="M20.5,43.6h-8.1c-0.1,0-0.2,0.1-0.2,0.2v2.9c0,0.2,0.1,0.3,0.3,0.3h8c0.2,0,0.3-0.1,0.3-0.3v-2.9
		C20.7,43.7,20.6,43.6,20.5,43.6z"/>
	<rect x="6.4" y="25.2" fill="none" width="3.6" height="16.5"/>
	<path fill="none" d="M186.2,24c0-1.1-0.7-2.1-1.7-2.4l-1.8-0.5c0.8,2,1,4.4,1.1,8.8h2.5V24z"/>
	<path fill="none" d="M176.4,21.9C176.4,21.8,176.4,21.8,176.4,21.9l-6.3-0.1l0,2.4l6.3,0L176.4,21.9z"/>
	<path fill="none" d="M182.7,45.5l1.8-0.5c1-0.3,1.7-1.3,1.7-2.4v-5.9h-2.5C183.7,41,183.4,43.7,182.7,45.5z"/>
	<path fill="none" d="M155.7,43.9l2.1-0.3c2.1-0.3,3.7-2.3,3.7-4.6v-0.3c-2.1,0.6-4,1.2-5.8,1.9V43.9z"/>
	<path fill="none" d="M45.2,43.9l2.1-0.3c2.1-0.3,3.7-2.3,3.7-4.6v-0.3c-2.1,0.6-4,1.2-5.8,1.9V43.9z"/>
	<path fill="none" d="M65.9,21.9C65.9,21.8,65.9,21.8,65.9,21.9l-6.3-0.1l0,2.4l6.3,0L65.9,21.9z"/>
	<path fill="none" d="M161.5,27.7c0-2.3-1.6-4.3-3.7-4.6l-2.1-0.3v3.4c1.8,0.7,3.7,1.4,5.8,1.9V27.7z"/>
	<polygon fill="none" points="59.7,44.8 65.9,44.8 65.9,44.8 65.9,42.4 59.6,42.4 	"/>
	<path fill="none" d="M12.4,23h8.1c0.1,0,0.2-0.1,0.2-0.2v-2.9c0-0.2-0.1-0.3-0.3-0.3h-8c-0.2,0-0.3,0.1-0.3,0.3v2.9
		C12.2,22.9,12.3,23,12.4,23z"/>
	<path fill="none" d="M51,27.7c0-2.3-1.6-4.3-3.7-4.6l-2.1-0.3v3.4C47,26.8,49,27.5,51,28V27.7z"/>
	<path fill="none" d="M72.2,45.5L74,45c1-0.3,1.7-1.3,1.7-2.4v-5.9h-2.5C73.1,41,72.8,43.7,72.2,45.5z"/>
	<path fill="none" d="M75.7,24c0-1.1-0.7-2.1-1.7-2.4l-1.8-0.5c0.8,2,1.1,4.4,1.1,8.8h2.5V24z"/>
	<path fill="none" d="M243.2,33.6c2.2,1.4,13.3,3,15.8,3c1.5,0,2.8-1.4,2.8-3s-1.2-3-2.8-3C256.5,30.5,245.5,32.1,243.2,33.6z"/>
	<path fill="none" d="M233.2,46.8c0,0.2,0.1,0.3,0.3,0.3h8c0.2,0,0.3-0.1,0.3-0.3v-2.9c0-0.1-0.1-0.2-0.2-0.2h-8.1
		c-0.1,0-0.2,0.1-0.2,0.2V46.8z"/>
	<path fill="none" d="M241.5,19.6h-8c-0.2,0-0.3,0.1-0.3,0.3v2.9c0,0.1,0.1,0.2,0.2,0.2h8.1c0.1,0,0.2-0.1,0.2-0.2v-2.9
		C241.8,19.7,241.6,19.6,241.5,19.6z"/>
	<path fill="none" d="M122.9,23h8.1c0.1,0,0.2-0.1,0.2-0.2v-2.9c0-0.2-0.1-0.3-0.3-0.3h-8c-0.2,0-0.3,0.1-0.3,0.3v2.9
		C122.7,22.9,122.8,23,122.9,23z"/>
	<path fill="none" d="M151.7,39.9c5.5-2.9,15.6-5.4,22-5.4h14.7c0.3,0,0.5-0.3,0.5-0.6v-1.1c0-0.3-0.2-0.6-0.5-0.6h-14.7
		c-6.4,0-16.5-2.5-22-5.4c-1.5-0.8-2.4-1.7-3.2-2.5c-2-1.9-3.7-3.6-15.1-3.6v2.2c0,1.3-1.1,2.4-2.4,2.4h-8.1c-0.1,0-0.1,0-0.2,0
		v16.3c0.1,0,0.1,0,0.2,0h8.1c1.3,0,2.4,1.1,2.4,2.4V46c11.4-0.1,13.1-1.7,15.1-3.6C149.3,41.6,150.2,40.7,151.7,39.9z M130.4,33.6
		c0-4,18-5.2,18.2-5.2c2.7,0,5,2.3,5,5.2s-2.2,5.2-5,5.2C148.5,38.8,130.4,37.6,130.4,33.6z"/>
	<rect x="227.4" y="25.2" fill="none" width="3.6" height="16.5"/>
	<rect x="116.9" y="25.2" fill="none" width="3.6" height="16.5"/>
	<path fill="none" d="M131.1,43.6h-8.1c-0.1,0-0.2,0.1-0.2,0.2v2.9c0,0.2,0.1,0.3,0.3,0.3h8c0.2,0,0.3-0.1,0.3-0.3v-2.9
		C131.2,43.7,131.2,43.6,131.1,43.6z"/>
	<path fill="none" d="M151.4,33.6c0-1.7-1.2-3-2.8-3c-2.5,0-13.5,1.6-15.8,3c2.2,1.4,13.3,3,15.8,3
		C150.2,36.6,151.4,35.2,151.4,33.6z"/>
	<path fill="#FFFFFF" d="M153.6,33.6c0-2.9-2.2-5.2-5-5.2c-0.2,0-18.2,1.2-18.2,5.2c0,4,18,5.2,18.2,5.2
		C151.4,38.8,153.6,36.4,153.6,33.6z M148.7,30.5c1.5,0,2.8,1.4,2.8,3s-1.2,3-2.8,3c-2.5,0-13.5-1.6-15.8-3
		C135.1,32.1,146.2,30.5,148.7,30.5z"/>
	<path fill="#FFFFFF" d="M260.6,22.7c-2.2-2.2-4.4-4.2-17.1-4.3c-0.5-0.6-1.2-1-2-1h-8c-1.4,0-2.5,1.1-2.5,2.5v2.9
		c0,0.1,0,0.1,0,0.2h-4.7c-0.6,0-1.1,0.5-1.1,1.1v18.7c0,0.6,0.5,1.1,1.1,1.1h4.7v2.9c0,1.4,1.1,2.5,2.5,2.5h8c0.8,0,1.5-0.4,2-1
		c1.2,0,2.4,0,3.4-0.1v6h-23.8v2.2h8v10.3h2.2V56.4h13.7v5.3c0,3.6-3,6.6-6.6,6.6h-3.5c-2.5,0-4.5,2-4.5,4.5c0,2.5,2,4.5,4.5,4.5
		h4.6c-0.1-0.3-0.2-0.6-0.2-0.9c0-0.5,0.1-0.9,0.3-1.3h-4.8c-1.2,0-2.3-1-2.3-2.3c0-1.2,1-2.3,2.3-2.3h3.5c4.8,0,8.8-3.9,8.8-8.8
		v-5.3h15.8v-2.2h-15.8v-6.1h-0.5c8.2-0.5,10-2.3,11.9-4.1c0.8-0.7,1.5-1.4,2.7-2.1c0.5-0.3,1-0.5,1.6-0.8v-2.4
		c-0.9,0.4-1.8,0.8-2.6,1.2c-1.5,0.8-2.4,1.7-3.2,2.5c-2,1.9-3.7,3.6-15.1,3.6v-2.2c0-1.3-1.1-2.4-2.4-2.4h-8.1c-0.1,0-0.1,0-0.2,0
		V25.2c0.1,0,0.1,0,0.2,0h8.1c1.3,0,2.4-1.1,2.4-2.4v-2.2c11.4,0.1,13.1,1.7,15.1,3.6c0.8,0.8,1.7,1.7,3.2,2.5
		c0.8,0.4,1.7,0.8,2.6,1.2v-2.4c-0.6-0.3-1.1-0.5-1.6-0.8C262.1,24.1,261.3,23.4,260.6,22.7z M227.4,41.7V25.2h3.6v16.5H227.4z
		 M233.4,43.6h8.1c0.1,0,0.2,0.1,0.2,0.2v2.9c0,0.2-0.1,0.3-0.3,0.3h-8c-0.2,0-0.3-0.1-0.3-0.3v-2.9
		C233.2,43.7,233.3,43.6,233.4,43.6z M241.8,22.8c0,0.1-0.1,0.2-0.2,0.2h-8.1c-0.1,0-0.2-0.1-0.2-0.2v-2.9c0-0.2,0.1-0.3,0.3-0.3h8
		c0.2,0,0.3,0.1,0.3,0.3V22.8z"/>
	<path fill="#FFFFFF" d="M240.8,33.6c0,4,18,5.2,18.2,5.2c2.7,0,5-2.3,5-5.2s-2.2-5.2-5-5.2C258.8,28.3,240.8,29.5,240.8,33.6z
		 M261.8,33.6c0,1.7-1.2,3-2.8,3c-2.5,0-13.5-1.6-15.8-3c2.2-1.4,13.3-3,15.8-3C260.5,30.5,261.8,31.9,261.8,33.6z"/>
	<path fill="#FFFFFF" d="M42.9,33.6c0-2.9-2.2-5.2-5-5.2c-0.2,0-18.2,1.2-18.2,5.2c0,4,18,5.2,18.2,5.2
		C40.7,38.8,42.9,36.4,42.9,33.6z M38,36.6c-2.5,0-13.5-1.6-15.8-3c2.2-1.4,13.3-3,15.8-3c1.5,0,2.8,1.4,2.8,3S39.5,36.6,38,36.6z"
		/>
	<path fill="#FFFFFF" d="M86.9,89.4H51.3V78.6c0-4.7-3.8-8.6-8.6-8.6h-8c-1,0-1.9-0.2-2.7-0.6c-0.2,0.8-0.7,1.4-1.4,1.8
		c1.2,0.7,2.6,1.1,4.1,1.1h8c3.5,0,6.4,2.8,6.4,6.4v10.8H0v2.2h85.8V140H88V90.5C88,89.9,87.5,89.4,86.9,89.4z"/>
	<path fill="#FFFFFF" d="M197.4,89.4h-25.2V76.5c0-5.2-4.2-9.4-9.4-9.4h-5.6c0.1,0.3,0.2,0.7,0.2,1.1c0,0.4-0.1,0.8-0.2,1.1h5.6
		c4,0,7.2,3.2,7.2,7.2v12.9h-61.5c-0.6,0-1.1,0.5-1.1,1.1V140h2.2V91.6h86.7V140h2.2V90.5C198.5,89.9,198,89.4,197.4,89.4z"/>
	<path fill="#FFFFFF" d="M28.8,65.9c-0.3-0.7-0.4-1.5-0.4-2.2v-7.3h55.9v-2.2H28.4V48c7.5-0.6,9.3-2.3,11.1-4
		c0.8-0.7,1.5-1.4,2.7-2.1c0.2-0.1,0.5-0.3,0.8-0.4v3c0,0.5,0.2,1,0.6,1.3c0.3,0.3,0.7,0.4,1.1,0.4c0.1,0,0.2,0,0.2,0l2.7-0.4
		c3.2-0.5,5.6-3.4,5.6-6.8V38c2.7-0.6,5.5-1.1,7.9-1.3v3.4h-1.6c-1.2,0-2.1,1-2.1,2.2v2.4c0,1.2,1,2.3,2.2,2.3h6.3
		c1.2,0,2.2-1,2.2-2.3v-2.4c0-1.2-0.9-2.2-2.1-2.2h-2.6v-3.5H71c0,4-0.3,6.5-0.9,8c-0.3,0.8-0.1,1.7,0.5,2.3c0.4,0.4,1,0.7,1.6,0.7
		c0.2,0,0.4,0,0.6-0.1l1.8-0.5c1.9-0.5,3.3-2.4,3.3-4.5v-5.9H78c1.4,0,2.6-1.1,2.7-2.6h0v-0.3v-1.1c0-1.6-1.2-2.8-2.7-2.8h-0.1V24
		c0-2.1-1.4-4-3.3-4.5L72.7,19c-0.8-0.2-1.6,0-2.1,0.6c-0.6,0.6-0.8,1.5-0.5,2.3c0.6,1.6,0.8,3.9,0.9,8h-7.6v-3.5H66
		c1.2,0,2.1-1,2.1-2.2v-2.4c0-1.2-1-2.3-2.2-2.3h-6.3c-1.2,0-2.2,1-2.2,2.3v2.4c0,1.2,0.9,2.2,2.1,2.2h1.6v3.4
		c-2.4-0.2-5.2-0.6-7.9-1.3v-0.9c0-3.4-2.4-6.3-5.6-6.8l-2.7-0.4c-0.5-0.1-0.9,0.1-1.3,0.4c-0.4,0.3-0.6,0.8-0.6,1.3v3
		c-0.3-0.1-0.5-0.3-0.8-0.4c-1.2-0.7-2-1.4-2.7-2.1c-2.2-2.2-4.4-4.2-17.1-4.3c-0.5-0.6-1.2-1-2-1h-8c-1.4,0-2.5,1.1-2.5,2.5v2.9
		c0,0.1,0,0.1,0,0.2H5.3c-0.6,0-1.1,0.5-1.1,1.1v18.7c0,0.6,0.5,1.1,1.1,1.1H10v2.9c0,1.4,1.1,2.5,2.5,2.5h8c0.8,0,1.5-0.4,2-1
		c1.4,0,2.6,0,3.8-0.1v6H2.1v2.2h8v10.3h2.2V56.4h14v7.3c0,1.3,0.3,2.4,0.8,3.5C27.4,66.6,28.1,66.1,28.8,65.9z M65.9,42.4v2.4
		l0,0.1l-6.3-0.1l-0.1-2.4L65.9,42.4z M59.7,24.3l0-2.4l6.2,0c0,0,0,0,0,0.1l0.1,2.4L59.7,24.3z M51,38.9c0,2.3-1.6,4.3-3.7,4.6
		l-2.1,0.3v-3.4c1.8-0.7,3.7-1.4,5.8-1.9V38.9z M75.7,42.6c0,1.1-0.7,2.1-1.7,2.4l-1.8,0.5c0.6-1.8,1-4.4,1-8.8h2.5V42.6z
		 M72.1,21.1l1.8,0.5c1,0.3,1.7,1.3,1.7,2.4v5.9h-2.5C73.2,25.5,72.9,23.1,72.1,21.1z M45.2,22.8l2.1,0.3c2.1,0.3,3.7,2.3,3.7,4.6
		V28c-2.1-0.6-4-1.2-5.8-1.9V22.8z M12.2,19.9c0-0.2,0.1-0.3,0.3-0.3h8c0.2,0,0.3,0.1,0.3,0.3v2.9c0,0.1-0.1,0.2-0.2,0.2h-8.1
		c-0.1,0-0.2-0.1-0.2-0.2V19.9z M6.4,41.7V25.2H10v16.5H6.4z M20.7,46.8c0,0.2-0.1,0.3-0.3,0.3h-8c-0.2,0-0.3-0.1-0.3-0.3v-2.9
		c0-0.1,0.1-0.2,0.2-0.2h8.1c0.1,0,0.2,0.1,0.2,0.2V46.8z M22.9,46v-2.2c0-1.3-1.1-2.4-2.4-2.4h-8.1c-0.1,0-0.1,0-0.2,0V25.2
		c0.1,0,0.1,0,0.2,0h8.1c1.3,0,2.4-1.1,2.4-2.4v-2.2C34.3,20.7,36,22.3,38,24.2c0.8,0.8,1.7,1.7,3.2,2.5c5.5,2.9,15.6,5.4,22,5.4H78
		c0.3,0,0.5,0.3,0.5,0.6v1.1c0,0.3-0.2,0.6-0.5,0.6H63.2c-6.4,0-16.5,2.5-22,5.4c-1.5,0.8-2.4,1.7-3.2,2.5
		C36,44.3,34.3,45.9,22.9,46z"/>
	<path fill="#FFFFFF" d="M151.9,67h-5.1c-4,0-7.2-3.2-7.2-7.2v-3.5h55.2v-2.2h-55.2v-6.1h-1.2c8-0.6,9.8-2.3,11.6-4.1
		c0.8-0.7,1.5-1.4,2.7-2.1c0.2-0.1,0.5-0.3,0.8-0.4v3c0,0.5,0.2,1,0.6,1.3c0.3,0.3,0.7,0.4,1.1,0.4c0.1,0,0.2,0,0.2,0l2.7-0.4
		c3.2-0.5,5.6-3.4,5.6-6.8V38c2.8-0.7,5.7-1.1,8.2-1.3v3.4h-1.8c-1.2,0-2.1,1-2.1,2.2v2.4c0,1.2,1,2.3,2.2,2.3h6.3
		c1.2,0,2.2-1,2.2-2.3v-2.4c0-1.2-0.9-2.2-2.1-2.2h-2.4v-3.5h7.4c0,4-0.3,6.5-0.9,8c-0.3,0.8-0.1,1.7,0.5,2.3c0.4,0.4,1,0.7,1.6,0.7
		c0.2,0,0.4,0,0.6-0.1l1.8-0.5c1.9-0.5,3.3-2.4,3.3-4.5v-5.9h0.1c1.4,0,2.6-1.1,2.7-2.6h0v-0.3v-1.1c0-1.6-1.2-2.8-2.7-2.8h-0.1V24
		c0-2.1-1.4-4-3.3-4.5l-1.8-0.5c-0.8-0.2-1.6,0-2.1,0.6c-0.6,0.6-0.8,1.5-0.5,2.3c0.6,1.6,0.8,3.9,0.9,8h-7.4v-3.5h2.4
		c1.2,0,2.1-1,2.1-2.2v-2.4c0-1.2-1-2.3-2.2-2.3h-6.3c-1.2,0-2.2,1-2.2,2.3v2.4c0,1.2,0.9,2.2,2.1,2.2h1.8v3.4
		c-2.5-0.2-5.3-0.6-8.2-1.3v-0.9c0-3.4-2.4-6.3-5.6-6.8l-2.7-0.4c-0.5-0.1-1,0.1-1.3,0.4c-0.4,0.3-0.6,0.8-0.6,1.3v3
		c-0.3-0.1-0.5-0.3-0.8-0.4c-1.2-0.7-2-1.4-2.7-2.1c-2.2-2.2-4.4-4.2-17.1-4.3c-0.5-0.6-1.2-1-2-1h-8c-1.4,0-2.5,1.1-2.5,2.5v2.9
		c0,0.1,0,0.1,0,0.2h-4.7c-0.6,0-1.1,0.5-1.1,1.1v18.7c0,0.6,0.5,1.1,1.1,1.1h4.7v2.9c0,1.4,1.1,2.5,2.5,2.5h8c0.8,0,1.5-0.4,2-1
		c1.6,0,3.1,0,4.4-0.1v6h-24.8v2.2h8v10.3h2.2V56.4h14.7v3.5c0,5.2,4.2,9.4,9.4,9.4h5.1c-0.1-0.3-0.2-0.7-0.2-1.1
		C151.7,67.7,151.8,67.4,151.9,67z M176.4,42.4v2.4l0,0.1l-6.3-0.1l-0.1-2.4L176.4,42.4z M170.2,24.3l0-2.4l6.2,0c0,0,0,0,0,0.1
		l0.1,2.4L170.2,24.3z M161.5,38.9c0,2.3-1.6,4.3-3.7,4.6l-2.1,0.3v-3.4c1.8-0.7,3.7-1.4,5.8-1.9V38.9z M186.2,42.6
		c0,1.1-0.7,2.1-1.7,2.4l-1.8,0.5c0.6-1.8,0.9-4.4,1-8.8h2.5V42.6z M182.6,21.1l1.8,0.5c1,0.3,1.7,1.3,1.7,2.4v5.9h-2.5
		C183.7,25.5,183.4,23.1,182.6,21.1z M155.7,22.8l2.1,0.3c2.1,0.3,3.7,2.3,3.7,4.6V28c-2.1-0.6-4-1.2-5.8-1.9V22.8z M122.7,19.9
		c0-0.2,0.1-0.3,0.3-0.3h8c0.2,0,0.3,0.1,0.3,0.3v2.9c0,0.1-0.1,0.2-0.2,0.2h-8.1c-0.1,0-0.2-0.1-0.2-0.2V19.9z M116.9,41.7V25.2
		h3.6v16.5H116.9z M131.2,46.8c0,0.2-0.1,0.3-0.3,0.3h-8c-0.2,0-0.3-0.1-0.3-0.3v-2.9c0-0.1,0.1-0.2,0.2-0.2h8.1
		c0.1,0,0.2,0.1,0.2,0.2V46.8z M133.4,46v-2.2c0-1.3-1.1-2.4-2.4-2.4h-8.1c-0.1,0-0.1,0-0.2,0V25.2c0.1,0,0.1,0,0.2,0h8.1
		c1.3,0,2.4-1.1,2.4-2.4v-2.2c11.4,0.1,13.1,1.7,15.1,3.6c0.8,0.8,1.7,1.7,3.2,2.5c5.5,2.9,15.6,5.4,22,5.4h14.7
		c0.3,0,0.5,0.3,0.5,0.6v1.1c0,0.3-0.2,0.6-0.5,0.6h-14.7c-6.4,0-16.5,2.5-22,5.4c-1.5,0.8-2.4,1.7-3.2,2.5
		C146.5,44.3,144.8,45.9,133.4,46z"/>
	<path fill="#FFFFFF" d="M246.7,77.2h2.9c2.7,0,4.8,2.1,4.9,4.7v7.5H219c-0.6,0-1.1,0.5-1.1,1.1V140h2.2V91.6h44.8v-2.2h-8.1v-7.6
		c-0.1-3.8-3.3-6.8-7.1-6.8h-3.1c0.2,0.4,0.3,0.8,0.3,1.3C246.9,76.6,246.8,76.9,246.7,77.2z"/>
	<path fill="#FFFFFF" d="M157.1,67c-0.4-1-1.4-1.7-2.6-1.7c-1.2,0-2.2,0.7-2.6,1.7c-0.1,0.3-0.2,0.7-0.2,1.1c0,0.4,0.1,0.8,0.2,1.1
		c0.4,1,1.4,1.7,2.6,1.7c1.2,0,2.1-0.7,2.6-1.7c0.1-0.3,0.2-0.7,0.2-1.1C157.3,67.7,157.3,67.4,157.1,67z"/>
	<path fill="#FFFFFF" d="M241.4,77.2c0.4,1.1,1.4,1.9,2.7,1.9s2.3-0.8,2.7-1.9c0.1-0.3,0.2-0.6,0.2-0.9c0-0.5-0.1-0.9-0.3-1.3
		c-0.5-0.9-1.4-1.5-2.5-1.5s-2,0.6-2.5,1.5c-0.2,0.4-0.3,0.8-0.3,1.3C241.2,76.6,241.3,76.9,241.4,77.2z"/>
	<path fill="#FFFFFF" d="M32.1,69.4c0.1-0.2,0.1-0.5,0.1-0.7c0-1.6-1.3-2.8-2.8-2.8c-0.2,0-0.4,0-0.5,0.1c-0.8,0.1-1.4,0.6-1.9,1.3
		c-0.3,0.4-0.4,0.9-0.4,1.5c0,1.6,1.3,2.8,2.8,2.8c0.5,0,0.9-0.1,1.3-0.3C31.3,70.8,31.9,70.2,32.1,69.4z"/>
	<polygon fill="#FFFFFF" points="84.3,10.3 12.2,10.3 12.2,0 10,0 10,10.3 2.1,10.3 2.1,12.5 84.3,12.5 	"/>
	<polygon fill="#FFFFFF" points="194.8,10.3 122.7,10.3 122.7,0 120.5,0 120.5,10.3 112.6,10.3 112.6,12.5 194.8,12.5 	"/>
	<polygon fill="#FFFFFF" points="233.2,10.3 233.2,0 231,0 231,10.3 223.1,10.3 223.1,12.5 264.9,12.5 264.9,10.3 	"/>
</g>
</svg>
