<svg id="Layer_1" data-name="Layer 1" xmlns="http://www.w3.org/2000/svg" viewBox="0 0 340 225"><title>CardsRome</title><circle cx="111.17" cy="108.66" r="4.53" fill="none" stroke="#fff" stroke-linejoin="round" stroke-width="3"/><path d="M114.48,135.38H102.62V124a6.21,6.21,0,0,1,6.21-6.21h7.65a7.62,7.62,0,0,0,7-4.64l3.38-8" fill="none" stroke="#fff" stroke-linejoin="round" stroke-width="3"/><polyline points="107.54 139.45 107.54 152.94 114.47 152.94 114.47 136.69" fill="none" stroke="#fff" stroke-linejoin="round" stroke-width="3"/><line x1="101.18" y1="117.56" x2="93.95" y2="106.26" fill="none" stroke="#fff" stroke-linejoin="round" stroke-width="3"/><polyline points="113.83 135.42 117.56 135.42 117.56 122.1" fill="none" stroke="#fff" stroke-linejoin="round" stroke-width="3"/><g opacity="0.5"><path d="M48.83,152.37l.11-47.16s-.24-5.6,1.8-7.77a7.9,7.9,0,0,1,11.51,10.83h0a9.72,9.72,0,0,1,12,15.24" fill="none" stroke="#fff" stroke-miterlimit="10" stroke-width="3"/><path d="M71.11,145.15a5.14,5.14,0,1,0-1.28-8.77h0a6.32,6.32,0,1,0-11.18-4v20" fill="none" stroke="#fff" stroke-miterlimit="10" stroke-width="3"/><path d="M26.78,131.42a5.14,5.14,0,1,1,1.28-8.77h0a6.32,6.32,0,1,1,11.18-4V152" fill="none" stroke="#fff" stroke-miterlimit="10" stroke-width="3"/></g><line x1="48.81" y1="176.89" x2="48.81" y2="151.17" fill="none" stroke="#fff" stroke-miterlimit="10" stroke-width="3"/><path d="M54.11,187.49a5.3,5.3,0,0,1-5.3-5.3h0" fill="none" stroke="#fff" stroke-miterlimit="10" stroke-width="3"/><line x1="134.36" y1="187.49" x2="59.59" y2="187.49" fill="none" stroke="#fff" stroke-miterlimit="10" stroke-width="3"/><path d="M144.92,182.19a5.3,5.3,0,0,1-5.3,5.3h0" fill="none" stroke="#fff" stroke-miterlimit="10" stroke-width="3"/><line x1="144.92" y1="143.36" x2="144.92" y2="177.55" fill="none" stroke="#fff" stroke-miterlimit="10" stroke-width="3"/><path d="M150.22,133.42a5.3,5.3,0,0,0-5.3,5.3h0" fill="none" stroke="#fff" stroke-miterlimit="10" stroke-width="3"/><line x1="172.91" y1="133.42" x2="156.15" y2="133.42" fill="none" stroke="#fff" stroke-miterlimit="10" stroke-width="3"/><polyline points="270.25 80.91 270.25 152.51 254.06 152.51 254.06 71.64 279.07 71.64 279.07 56.74 245.23 56.74 245.23 66.11" fill="none" stroke="#fff" stroke-miterlimit="10" stroke-width="3"/><polyline points="241.31 151.93 241.31 98.93 172.91 98.93 172.91 151.93" fill="none" stroke="#fff" stroke-miterlimit="10" stroke-width="3"/><path d="M2.55,197.45s66,18.55,130.89,9.68,88.44-12.1,140.33-8.07,63.68,10.49,63.68,10.49" fill="none" stroke="#fff" stroke-miterlimit="10" stroke-width="3" opacity="0.5" style="isolation:isolate"/><line x1="2.8" y1="152.64" x2="337.2" y2="152.64" fill="none" stroke="#fff" stroke-miterlimit="10" stroke-width="3"/><line x1="241.31" y1="111.94" x2="179.97" y2="111.94" fill="none" stroke="#fff" stroke-miterlimit="10" stroke-width="3"/><g id="_Group_" data-name=" Group " opacity="0.5"><path d="M300.92,35.81a4.66,4.66,0,0,1-4.4,4.9h-16.4a8.44,8.44,0,0,0-8.44,8.44h0" fill="none" stroke="#fff" stroke-miterlimit="10" stroke-width="3"/><path d="M280.39,19.37a4.66,4.66,0,0,1-4.4,4.9h-8.55A8.44,8.44,0,0,0,259,32.71h0v5.85" fill="none" stroke="#fff" stroke-miterlimit="10" stroke-width="3"/></g><path id="_Path_" data-name=" Path " d="M29.21,70.42a152.57,152.57,0,0,0-21.64,18" fill="none" stroke="#fff" stroke-linejoin="round" stroke-width="3"/><path id="_Path_2" data-name=" Path 2" d="M159,52.34A145.28,145.28,0,0,0,40.76,63.26" fill="none" stroke="#fff" stroke-linejoin="round" stroke-width="3"/><path id="_Path_3" data-name=" Path 3" d="M213.8,86.77a144.57,144.57,0,0,0-39-27.88" fill="none" stroke="#fff" stroke-linejoin="round" stroke-width="3"/><path id="_Path_4" data-name=" Path 4" d="M309,86.49a152.46,152.46,0,0,0-22.7,18.71" fill="none" stroke="#fff" stroke-linejoin="round" stroke-width="3"/><path id="_Path_5" data-name=" Path 5" d="M337.2,71.63a147.92,147.92,0,0,0-14.89,6.88" fill="none" stroke="#fff" stroke-linejoin="round" stroke-width="3"/><circle cx="86.04" cy="25.48" r="10.94" fill="none" stroke="#fff" stroke-linejoin="round" stroke-width="3"/><line x1="86.04" y1="36.42" x2="86.04" y2="54.03" fill="none" stroke="#fff" stroke-linejoin="round" stroke-width="3"/><circle cx="167.81" cy="54.03" r="7.91" fill="none" stroke="#fff" stroke-linejoin="round" stroke-width="3"/><line x1="167.81" y1="61.94" x2="167.81" y2="74.67" fill="none" stroke="#fff" stroke-linejoin="round" stroke-width="3"/><circle cx="32.97" cy="63.46" r="7.91" fill="none" stroke="#fff" stroke-linejoin="round" stroke-width="3"/><line x1="32.97" y1="71.37" x2="32.97" y2="84.11" fill="none" stroke="#fff" stroke-linejoin="round" stroke-width="3"/><circle cx="316.92" cy="84.28" r="7.91" fill="none" stroke="#fff" stroke-linejoin="round" stroke-width="3"/><line x1="316.92" y1="92.19" x2="316.92" y2="104.92" fill="none" stroke="#fff" stroke-linejoin="round" stroke-width="3"/></svg>