<svg xmlns="http://www.w3.org/2000/svg" viewBox="0 0 342.07 156.56"><title>WindOfChange</title><g id="artwork"><g id="_Group_" data-name="&lt;Group&gt;"><line id="_Path_" data-name="&lt;Path&gt;" x1="296.05" y1="43.23" x2="296.05" y2="137.87" fill="none" stroke="#fff" stroke-linejoin="round" stroke-width="3"/><path id="_Path_2" data-name="&lt;Path&gt;" d="M290.55,35.45a5.5,5.5,0,1,0,11,0V7a5.5,5.5,0,1,0-11,0Z" fill="none" stroke="#fff" stroke-linejoin="round" stroke-width="3"/><path id="_Path_3" data-name="&lt;Path&gt;" d="M318.69,53.54a5.5,5.5,0,1,0,5.13-9.73L298.65,30.55a5.5,5.5,0,1,0-5.13,9.73Z" fill="none" stroke="#fff" stroke-linejoin="round" stroke-width="3"/><path id="_Path_4" data-name="&lt;Path&gt;" d="M273.46,53.55a5.5,5.5,0,0,1-5.13-9.73l25.18-13.26a5.5,5.5,0,1,1,5.13,9.73Z" fill="none" stroke="#fff" stroke-linejoin="round" stroke-width="3"/></g><g id="_Group_2" data-name="&lt;Group&gt;"><line id="_Path_5" data-name="&lt;Path&gt;" x1="213.7" y1="49.47" x2="213.7" y2="112.96" fill="none" stroke="#fff" stroke-linejoin="round" stroke-width="3"/><path id="_Path_6" data-name="&lt;Path&gt;" d="M209.31,43.26a4.39,4.39,0,1,0,8.77,0V20.57a4.39,4.39,0,1,0-8.77,0Z" fill="none" stroke="#fff" stroke-linejoin="round" stroke-width="3"/><path id="_Path_7" data-name="&lt;Path&gt;" d="M231.76,57.69a4.39,4.39,0,1,0,4.09-7.76L215.77,39.35a4.39,4.39,0,1,0-4.09,7.76Z" fill="none" stroke="#fff" stroke-linejoin="round" stroke-width="3"/><path id="_Path_8" data-name="&lt;Path&gt;" d="M195.68,57.7a4.39,4.39,0,0,1-4.09-7.76l20.08-10.58a4.39,4.39,0,1,1,4.09,7.76Z" fill="none" stroke="#fff" stroke-linejoin="round" stroke-width="3"/></g><g opacity="0.3"><g id="_Group_3" data-name="&lt;Group&gt;"><path id="_Path_9" data-name="&lt;Path&gt;" d="M258.82,1.8a3.56,3.56,0,1,0,0,7.12H267" fill="none" stroke="#fff" stroke-linejoin="round" stroke-width="3"/><path id="_Path_10" data-name="&lt;Path&gt;" d="M280.79,17.44H268a3.56,3.56,0,0,0,0,7.12" fill="none" stroke="#fff" stroke-linejoin="round" stroke-width="3"/><line id="_Path_11" data-name="&lt;Path&gt;" x1="281.08" y1="9.02" x2="273.51" y2="9.02" fill="none" stroke="#fff" stroke-linejoin="round" stroke-width="3"/></g><g id="_Group_4" data-name="&lt;Group&gt;"><path id="_Path_12" data-name="&lt;Path&gt;" d="M57,17.19H44.45a3.56,3.56,0,0,1,0-7.12" fill="none" stroke="#fff" stroke-linejoin="round" stroke-width="3"/><line id="_Path_13" data-name="&lt;Path&gt;" x1="57.03" y1="25.61" x2="48.35" y2="25.61" fill="none" stroke="#fff" stroke-linejoin="round" stroke-width="3"/></g></g><g id="_Group_5" data-name="&lt;Group&gt;"><line id="_Path_14" data-name="&lt;Path&gt;" x1="134.38" y1="49.41" x2="134.38" y2="92.25" fill="none" stroke="#fff" stroke-linejoin="round" stroke-width="3"/><path id="_Path_15" data-name="&lt;Path&gt;" d="M131.42,45.23a3,3,0,1,0,5.92,0V29.92a3,3,0,1,0-5.92,0Z" fill="none" stroke="#fff" stroke-linejoin="round" stroke-width="3"/><path id="_Path_16" data-name="&lt;Path&gt;" d="M146.57,55a3,3,0,1,0,2.76-5.24l-13.55-7.13A3,3,0,1,0,133,47.83Z" fill="none" stroke="#fff" stroke-linejoin="round" stroke-width="3"/><path id="_Path_17" data-name="&lt;Path&gt;" d="M122.22,55a3,3,0,0,1-2.76-5.24L133,42.59a3,3,0,1,1,2.76,5.24Z" fill="none" stroke="#fff" stroke-linejoin="round" stroke-width="3"/></g><g id="_Group_6" data-name="&lt;Group&gt;"><line id="_Path_18" data-name="&lt;Path&gt;" x1="69.18" y1="36.3" x2="69.18" y2="79.14" fill="none" stroke="#fff" stroke-linejoin="round" stroke-width="3"/><path id="_Path_19" data-name="&lt;Path&gt;" d="M66.22,32.11a3,3,0,1,0,5.92,0V16.8a3,3,0,1,0-5.92,0Z" fill="none" stroke="#fff" stroke-linejoin="round" stroke-width="3"/><path id="_Path_20" data-name="&lt;Path&gt;" d="M81.37,41.84a3,3,0,1,0,2.76-5.24L70.58,29.47a3,3,0,1,0-2.76,5.24Z" fill="none" stroke="#fff" stroke-linejoin="round" stroke-width="3"/><path id="_Path_21" data-name="&lt;Path&gt;" d="M57,41.85a3,3,0,0,1-2.76-5.24l13.55-7.14a3,3,0,1,1,2.76,5.24Z" fill="none" stroke="#fff" stroke-linejoin="round" stroke-width="3"/></g><circle cx="263.32" cy="88.64" r="3.72" fill="none" stroke="#fff" stroke-linejoin="round" stroke-width="3"/><path d="M276.24,85.8l-2.78,6.56a6.27,6.27,0,0,1-5.77,3.82h-6.29a5.1,5.1,0,0,0-5.1,5.1v9.37h12.29v-11" fill="none" stroke="#fff" stroke-linejoin="round" stroke-width="3"/><polyline points="260.34 113.97 260.34 125.06 266.04 125.06 266.04 111.7" fill="none" stroke="#fff" stroke-linejoin="round" stroke-width="3"/><line x1="255.1" y1="95.96" x2="249.16" y2="86.67" fill="none" stroke="#fff" stroke-linejoin="round" stroke-width="3"/><circle cx="97.54" cy="82.17" r="8.36" fill="none" stroke="#fff" stroke-linejoin="round" stroke-width="3"/><line x1="97.54" y1="90.53" x2="97.54" y2="103.99" fill="none" stroke="#fff" stroke-linejoin="round" stroke-width="3"/><circle cx="182.18" cy="87.33" r="11.04" fill="none" stroke="#fff" stroke-linejoin="round" stroke-width="3"/><line x1="182.18" y1="98.36" x2="182.18" y2="116.14" fill="none" stroke="#fff" stroke-linejoin="round" stroke-width="3"/><circle cx="34.62" cy="71.04" r="6.04" fill="none" stroke="#fff" stroke-linejoin="round" stroke-width="3"/><line x1="34.62" y1="77.09" x2="34.62" y2="86.82" fill="none" stroke="#fff" stroke-linejoin="round" stroke-width="3"/><path d="M267.64,108.48a131.79,131.79,0,0,1,73.24,47.15" fill="none" stroke="#fff" stroke-linejoin="round" stroke-width="3"/><path d="M140.34,147.12A131.38,131.38,0,0,1,237,104.9a132.9,132.9,0,0,1,18.12,1.24" fill="none" stroke="#fff" stroke-linejoin="round" stroke-width="3"/><path d="M105.73,82.37a131.52,131.52,0,0,1,67.67,37.49" fill="none" stroke="#fff" stroke-linejoin="round" stroke-width="3"/><path d="M.89,104.89A131.14,131.14,0,0,1,78.57,79.56q5.51,0,10.9.44" fill="none" stroke="#fff" stroke-linejoin="round" stroke-width="3"/></g></svg>