<svg xmlns="http://www.w3.org/2000/svg" xmlns:xlink="http://www.w3.org/1999/xlink" viewBox="0 0 299.19 249.04">
  <defs>
    <clipPath id="clip-path">
      <rect width="299.19" height="249.04" style="fill: none"/>
    </clipPath>
  </defs>
  <title>illustration_solar25km</title>
  <g id="Layer_1" data-name="Layer 1">
    <g style="clip-path: url(#clip-path)">
      <g style="opacity: 0.30000000000000004">
        <path d="M299.19,194.48H265.41a7.94,7.94,0,0,1-6.82-12l4.59-7.82" style="fill: none;stroke: #fff;stroke-linejoin: round;stroke-width: 3px"/>
        <path d="M0,0,11.11,16.89V63.22a6.21,6.21,0,0,0,1.08,3.5l38.2,56a6.21,6.21,0,0,0,5.13,2.71h0a6.21,6.21,0,0,0,5.13-9.72L24.25,62.53A6.21,6.21,0,0,1,23.17,59V44.84a7.94,7.94,0,0,1,7.94-7.94h0a7.94,7.94,0,0,1,7.94,7.94V57.47a6.21,6.21,0,0,0,1.25,3.74l51.41,68.2a30.67,30.67,0,0,1,6.18,18.46h0A30.67,30.67,0,0,0,114.22,175l37.44,19.8a92.14,92.14,0,0,0,43.08,10.69h14.07a6.21,6.21,0,0,1,4.1,1.55l7.21,6.34h.13l.82.86a28.59,28.59,0,0,0,20.73,8.9h19.66a28.47,28.47,0,0,1,20.11,8.32L299.19,249" style="fill: none;stroke: #fff;stroke-linejoin: round;stroke-width: 3px"/>
        <path d="M263.18,174.7l11.59-22.88a6.21,6.21,0,0,0-5.54-9h-8.82A30,30,0,0,0,234.3,158L228,169.07a6.21,6.21,0,0,1-5.4,3.15H197A22.49,22.49,0,0,1,174.6,149.8l-.51-11,.29-13.65V102.6A44.52,44.52,0,0,1,218.9,58.08h12.8a65,65,0,0,0,31.51-8.15L300.1,27.09" style="fill: none;stroke: #fff;stroke-linejoin: round;stroke-width: 3px"/>
      </g>
    </g>
    <rect x="102.71" y="69.56" width="2" height="2" style="fill: #fff"/>
    <g>
      <path d="M143.49,43.95V42c2.51-2.26,9.93-9.26,9.93-12.72,0-2.26-1.79-3.43-3.88-3.43a3.7,3.7,0,0,0-3.91,3.85h-2c0-3.4,2.57-5.52,5.91-5.52,3.1,0,5.77,1.65,5.77,5,0,4.52-6.72,10.18-9.71,13.05h10v1.67Z" style="fill: #fff"/>
      <path d="M159.6,24.64h10.63v1.67h-8.9L161,33.21l.06.06a5.5,5.5,0,0,1,4.24-2c3.63,0,5.88,3,5.88,6.44,0,3.71-2.37,6.69-6.19,6.69-3.26,0-6.14-1.51-6.25-5.16h2c.11,2.31,1.9,3.49,4.1,3.49,3,0,4.43-2.31,4.43-5.1s-1.42-4.69-4.32-4.69A3.86,3.86,0,0,0,161,35.83h-1.87Z" style="fill: #fff"/>
    </g>
    <line x1="135.51" y1="38.95" x2="104.56" y2="69.9" style="fill: none;stroke: #fff;stroke-linejoin: round;opacity: 0.30000000000000004"/>
    <g>
      <path d="M177,39.93l3.16-2.67h1l-3.31,2.82,3.57,3.71h-1L177,40.26V43.8h-.78V34.4H177Z" style="fill: #fff"/>
      <path d="M183.15,38.23l0,0a2.25,2.25,0,0,1,2-1.18,2.15,2.15,0,0,1,2.12,1.43,2.71,2.71,0,0,1,2.25-1.43,2.3,2.3,0,0,1,2.3,2.64V43.8h-.78V39.58a1.62,1.62,0,0,0-1.72-1.8c-1.29,0-1.87,1.08-1.87,2.25V43.8h-.78V39.58a1.62,1.62,0,0,0-1.72-1.8c-1.29,0-1.87,1.08-1.87,2.25V43.8h-.78V38.74c0-.51,0-1-.07-1.47h.81Z" style="fill: #fff"/>
    </g>
    <path d="M194.79,39.19l1.45-1.42a8,8,0,0,0,.86-1,1.57,1.57,0,0,0,.41-1,.83.83,0,0,0-.89-.9.86.86,0,0,0-.9,1h-.84a1.56,1.56,0,0,1,.51-1.22,1.82,1.82,0,0,1,1.2-.4,1.55,1.55,0,0,1,1.71,1.61c0,.35,0,.62-.62,1.38-.16.2-.86.93-1,1.09l-1,.92h2.63v.63h-3.52Z" style="fill: #fff"/>
  </g>
  <g id="mexico">
    <path d="M91.71,129.4,40.31,61.21a6.21,6.21,0,0,1-1.25-3.74V44.84a7.94,7.94,0,0,0-7.94-7.94h0a7.94,7.94,0,0,0-7.94,7.94V59a6.21,6.21,0,0,0,1.08,3.51l36.39,53.2a6.21,6.21,0,0,1-5.13,9.72h0a6.21,6.21,0,0,1-5.13-2.71l-38.2-56a6.21,6.21,0,0,1-1.08-3.5V16.89H26.87A43.56,43.56,0,0,1,57,29h0A50.74,50.74,0,0,0,92.08,43.07h0a69.53,69.53,0,0,1,52.6,24.05l22,22.74a28.27,28.27,0,0,1,7.94,19.65" style="fill: none;stroke: #fff;stroke-linejoin: round;stroke-width: 3px"/>
    <path d="M174.6,109.51V149.8A22.49,22.49,0,0,0,197,172.22h25.6a6.21,6.21,0,0,0,5.4-3.15L234.3,158a30,30,0,0,1,26.11-15.21h8.82a6.21,6.21,0,0,1,5.54,9L263.18,174.7a6.21,6.21,0,0,1-5.54,3.4h-3.52a6.21,6.21,0,0,0-5.27,2.92l-19.37,31a6.21,6.21,0,0,1-9.37,1.37L212.91,207a6.21,6.21,0,0,0-4.1-1.55H194.74a92.14,92.14,0,0,1-43.08-10.69L114.22,175a30.67,30.67,0,0,1-16.33-27.11h0a30.67,30.67,0,0,0-6.18-18.46" style="fill: none;stroke: #fff;stroke-linejoin: round;stroke-width: 3px"/>
  </g>
</svg>
