<svg id="Layer_1" data-name="Layer 1" xmlns="http://www.w3.org/2000/svg" xmlns:xlink="http://www.w3.org/1999/xlink" viewBox="0 0 299.19 249.04">
  <defs>
    <clipPath id="clip-path">
      <rect width="299.19" height="249.04" style="fill: none"/>
    </clipPath>
  </defs>
  <title>illustration_microgrid_Artboard 1</title>
  <g id="Layer_1-2" data-name="Layer 1">
    <g style="clip-path: url(#clip-path)">
      <g style="opacity: 0.30000001192092896">
        <path d="M299.19,194.48H265.41a7.94,7.94,0,0,1-6.82-12l4.59-7.82" style="fill: none;stroke: #fff;stroke-linejoin: round;stroke-width: 3px"/>
        <path d="M0,0,11.11,16.89V63.22a6.21,6.21,0,0,0,1.08,3.5l38.2,56a6.21,6.21,0,0,0,5.13,2.71h0a6.21,6.21,0,0,0,5.13-9.72L24.25,62.53A6.21,6.21,0,0,1,23.17,59V44.84a7.94,7.94,0,0,1,7.94-7.94h0A7.94,7.94,0,0,1,39,44.84V57.47a6.21,6.21,0,0,0,1.25,3.74l51.41,68.2a30.67,30.67,0,0,1,6.18,18.46h0A30.67,30.67,0,0,0,114.22,175l37.44,19.8a92.14,92.14,0,0,0,43.08,10.69h14.07a6.21,6.21,0,0,1,4.1,1.55l7.21,6.34h.13l.82.86a28.59,28.59,0,0,0,20.73,8.9h19.66a28.47,28.47,0,0,1,20.11,8.32L299.19,249" style="fill: none;stroke: #fff;stroke-linejoin: round;stroke-width: 3px"/>
        <path d="M263.18,174.7l11.59-22.88a6.21,6.21,0,0,0-5.54-9h-8.82A30,30,0,0,0,234.3,158L228,169.07a6.21,6.21,0,0,1-5.4,3.15H197a22.49,22.49,0,0,1-22.4-22.42l-.51-11,.29-13.65V102.6A44.52,44.52,0,0,1,218.9,58.08h12.8a65,65,0,0,0,31.51-8.15L300.1,27.09" style="fill: none;stroke: #fff;stroke-linejoin: round;stroke-width: 3px"/>
      </g>
    </g>
  </g>
  <g id="mexico">
    <path d="M91.71,129.4,40.31,61.21a6.21,6.21,0,0,1-1.25-3.74V44.84a7.94,7.94,0,0,0-7.94-7.94h0a7.94,7.94,0,0,0-7.94,7.94V59a6.21,6.21,0,0,0,1.08,3.51l36.39,53.2a6.21,6.21,0,0,1-5.13,9.72h0a6.21,6.21,0,0,1-5.13-2.71l-38.2-56a6.21,6.21,0,0,1-1.08-3.5V16.89H26.87A43.56,43.56,0,0,1,57,29h0A50.74,50.74,0,0,0,92.08,43.07h0a69.53,69.53,0,0,1,52.6,24l22,22.74a28.27,28.27,0,0,1,7.94,19.65" style="fill: none;stroke: #fff;stroke-linejoin: round;stroke-width: 3px"/>
    <path d="M174.6,109.51V149.8A22.49,22.49,0,0,0,197,172.22h25.6a6.21,6.21,0,0,0,5.4-3.15L234.3,158a30,30,0,0,1,26.11-15.21h8.82a6.21,6.21,0,0,1,5.54,9L263.18,174.7a6.21,6.21,0,0,1-5.54,3.4h-3.52a6.21,6.21,0,0,0-5.27,2.92l-19.37,31a6.21,6.21,0,0,1-9.37,1.37l-7.2-6.39a6.21,6.21,0,0,0-4.1-1.55H194.74a92.14,92.14,0,0,1-43.08-10.69L114.22,175a30.67,30.67,0,0,1-16.33-27.11h0a30.67,30.67,0,0,0-6.18-18.46" style="fill: none;stroke: #fff;stroke-linejoin: round;stroke-width: 3px"/>
  </g>
  <path d="M145.85,127.7a7.56,7.56,0,1,1,2-1.66l4.43,2.51,9-1.18-6.58-6.23,6.58-6.23-9-1.18,1.66-8.91-8,4.33-3.9-8.18-3.9,8.18-8-4.33,1.66,8.91-9,1.18,6.58,6.23-6.58,6.23,9,1.18-1.66,8.91,8-4.33,3.9,8.18,3.9-8.18,8,4.33-1.3-5.56" style="fill: none;stroke: #fff;stroke-linejoin: round;stroke-width: 3px"/>
</svg>
