<?xml version="1.0" encoding="utf-8"?>
<!-- Generator: Adobe Illustrator 21.0.2, SVG Export Plug-In . SVG Version: 6.00 Build 0)  -->
<svg version="1.1" id="Layer_1" xmlns="http://www.w3.org/2000/svg" xmlns:xlink="http://www.w3.org/1999/xlink" x="0px" y="0px"
	 viewBox="0 0 300 226.9" style="enable-background:new 0 0 300 226.9;" xml:space="preserve">
<style type="text/css">
	.st0{clip-path:url(#SVGID_2_);}
	.st1{opacity:0.3;}
	.st2{fill:none;stroke:#FFFFFF;stroke-width:3.3963;stroke-linejoin:round;stroke-miterlimit:10;}
	.st3{fill:none;}
	.st4{opacity:0.5;}
	.st5{fill:none;stroke:#FFFFFF;stroke-width:3.0734;stroke-linejoin:round;stroke-miterlimit:10;}
	.st6{opacity:0.3;fill:none;stroke:#FFFFFF;stroke-width:9;stroke-linejoin:round;stroke-miterlimit:10;}
	.st7{opacity:0.5;fill:none;stroke:#FFFFFF;stroke-width:9;stroke-linejoin:round;stroke-miterlimit:10;}
</style>
<g id="car">
	<title>illustration_fastcharge</title>
	<g>
		<g>
			<defs>
				<rect id="SVGID_1_" x="-19.5" y="-14.5" width="339.6" height="241.8"/>
			</defs>
			<clipPath id="SVGID_2_">
				<use xlink:href="#SVGID_1_"  style="overflow:visible;"/>
			</clipPath>
			<g class="st0">
				<g class="st1">
					<path class="st2" d="M64.3,220.1v33.6c0,2.2,1.8,4,4,4h14.2c2.2,0,4-1.8,4-4v-11.2"/>
					<path class="st2" d="M230.3,159.4c1.1,0,1.9-0.9,1.9-1.9v-8c0-1.3,1.3-2.2,2.5-1.9l13.5,4.1c2.3,0.7,3.8,2.8,3.8,5.1l0,0
						c0,3-2.4,5.4-5.4,5.4h-8.8h-3.6l-1.7,1.4c-1.3,1.1-1.6,2.9-0.8,4.4l5.4,9.9c2.7,4.9,4,10.3,4,15.9v28.6c0,3.1-1.2,6.1-3.4,8.2
						l-8.4,8.4c-2.2,2.2-5.2,3.4-8.2,3.4H84.3c-3.1,0-6.1-1.2-8.2-3.4l-8.4-8.4c-2.2-2.2-3.4-5.2-3.4-8.2v-28.6c0-5.5,1.4-11,4-15.9
						l5.4-9.9c0.8-1.5,0.5-3.3-0.8-4.4l-1.7-1.4h-3.6h-8.8c-3,0-5.4-2.4-5.4-5.4l0,0c0-2.4,1.6-4.5,3.8-5.1l13.5-4.1
						c1.2-0.4,2.5,0.6,2.5,1.9v8c0,1.1,0.9,1.9,1.9,1.9"/>
					<path class="st2" d="M241.2,220.1v33.6c0,2.2-1.8,4-4,4H223c-2.2,0-4-1.8-4-4v-11.2"/>
					<path class="st2" d="M82.6,182.2l11.1,6.4c3.4,2,7.3,3,11.2,2.8l47.9,0.6l47.9-0.4c3.9-0.1,7.8-1.3,11.1-3.5l10.7-7"/>
					<path class="st2" d="M197,194.7L197,194.7c0,3.4,2.8,6.2,6.2,6.2h21.2c5.6,0,10.1-4.5,10.1-10.1v-2.3c0-3.1-1.2-6-3.4-8.2
						l-3.4-3.4l-0.7-17.5l-15.7-26.6c-2.9-4.9-8.1-7.9-13.8-7.9h-44.8h-44.8c-5.7,0-10.9,3-13.8,7.9l-15.7,26.6l-0.7,17.4l-3.4,3.4
						c-2.2,2.2-3.4,5.1-3.4,8.2v2.3c0,5.6,4.5,10.1,10.1,10.1h21.2c3.4,0,6.2-2.8,6.2-6.2l0,0"/>
					<polyline class="st2" points="197,217.2 152.7,217.2 108.5,217.2 					"/>
					<path class="st2" d="M211.8,146.9l-7.8-12.8c-1.3-2.2-3.6-3.6-6.2-3.6h-45.1h-45.1c-2.6,0-4.9,1.4-6.2,3.6l-10.1,17.8
						c-2.2,3.8,0.4,8.7,4.9,8.9l49.5,2.6c4.7,0.3,9.5,0.3,14.2,0l49.5-2.6c4.4-0.2,7-5,4.9-8.9"/>
				</g>
			</g>
		</g>
	</g>
</g>
<g id="lancette">
	<g id="electric">
		<line class="st2" x1="145.1" y1="81" x2="111.7" y2="101.2"/>
		
			<ellipse transform="matrix(0.9605 -0.2782 0.2782 0.9605 -15.7442 44.8923)" class="st2" cx="150.3" cy="77.9" rx="5.8" ry="5.8"/>
		
			<ellipse transform="matrix(0.9605 -0.2782 0.2782 0.9605 -15.7442 44.8923)" class="st3" cx="150.3" cy="77.9" rx="87.9" ry="87.9"/>
	</g>
	<g id="heat" class="st4">
		<line class="st2" x1="145.1" y1="81" x2="111.7" y2="101.2"/>
		
			<ellipse transform="matrix(0.9605 -0.2782 0.2782 0.9605 -15.7442 44.8923)" class="st2" cx="150.3" cy="77.9" rx="5.8" ry="5.8"/>
		
			<ellipse transform="matrix(0.9605 -0.2782 0.2782 0.9605 -15.7442 44.8923)" class="st3" cx="150.3" cy="77.9" rx="87.9" ry="87.9"/>
	</g>
</g>
<g>
	<path class="st5" d="M150.3,16.9c-33.7,0-61,27.3-61,61c0,13.8,4.6,26.5,12.3,36.7H199c7.7-10.2,12.3-22.9,12.3-36.7
		C211.3,44.2,184,16.9,150.3,16.9z"/>
</g>
<line class="st5" x1="108.8" y1="32.8" x2="114.3" y2="38.6"/>
<line class="st5" x1="90.3" y1="68" x2="97.5" y2="69.4"/>
<line class="st5" x1="98" y1="109.4" x2="104.4" y2="105.6"/>
<path class="st6" d="M111.2,35.3c-9.4,8.6-16,20.2-18.1,33.3c-0.5,3-0.8,6.2-0.8,9.4c0,10.9,3,21.2,8.3,29.9"/>
<path class="st7" d="M111.2,35.3c-9.4,8.6-16,20.2-18.1,33.3"/>
</svg>
