<?xml version="1.0" encoding="utf-8"?>
<!-- Generator: Adobe Illustrator 19.0.0, SVG Export Plug-In . SVG Version: 6.00 Build 0)  -->
<svg version="1.1" id="icons_expanded" xmlns="http://www.w3.org/2000/svg" xmlns:xlink="http://www.w3.org/1999/xlink" x="0px"
	 y="0px" viewBox="180 -180 1200 1200" style="enable-background:new 180 -180 1200 1200;" xml:space="preserve">
<style type="text/css">
	.st0{fill:url(#XMLID_5_);}
</style>
<title>battery</title>
<linearGradient id="XMLID_5_" gradientUnits="userSpaceOnUse" x1="1026.1753" y1="761.1304" x2="868.0795" y2="76.3265">
	<stop  offset="0" style="stop-color:#5EB45C"/>
	<stop  offset="1" style="stop-color:#43B9E6"/>
</linearGradient>
<path id="XMLID_4_" class="st0" d="M793,740.8c-7.2,0-13-5.8-13-13V157.5c0-7.2,5.8-13,13-13h67.6V131c0-26.5,11.5-47.1,32.3-58.1
	c9.7-5,20.6-7.8,31.5-8.1h81.4c0.2,0,0.4,0,0.7,0c3.8,0,17.2,0.8,27.3,10.5c4.2,4,9.1,10.8,10.6,21.6h-26.7c-0.5-1.1-1.1-2-1.8-2.7
	c-3.3-3.2-9-3.3-9.1-3.3h-82.5h-0.2c-7,0.4-13.9,2.4-20,5.7l-0.1,0.1c-11.6,6.6-17.3,17.9-17.3,34.4v26.5c0,7.2-5.8,13-13,13h-67.6
	V715h293.3V170.5H1013l-0.1-26h99.4c7.2,0,13,5.8,13,13v570.4c0,7.2-5.8,13-13,13H793V740.8z M908.7,452.4c-1.8,4,0.2,9.2,3.4,9.2
	h36.7l-18.8,119l65-150.3c1.7-4-0.2-9.1-3.5-9.1h-35l16.9-115.1L908.7,452.4z"/>
</svg>
