<svg id="icons_expanded" data-name="icons expanded" xmlns="http://www.w3.org/2000/svg" xmlns:xlink="http://www.w3.org/1999/xlink" viewBox="0 0 1200 1200"><defs><linearGradient id="linear-gradient" x1="782.87" y1="172.06" x2="593.15" y2="993.83" gradientTransform="matrix(1, 0, 0, -1, 0, 1200)" gradientUnits="userSpaceOnUse"><stop offset="0" stop-color="#5eb45c"/><stop offset="1" stop-color="#43b9e6"/></linearGradient></defs><title>battery</title><path id="_Compound_Path_" data-name="&lt;Compound Path&gt;" d="M503.06,1003.54a15.57,15.57,0,0,1-15.6-15.6V303.58a15.57,15.57,0,0,1,15.6-15.6h81.12v-16.2c0-31.8,13.8-56.52,38.76-69.72a88.32,88.32,0,0,1,37.8-9.72h98.52c4.56,0,20.64,1,32.76,12.6,5,4.8,10.92,13,12.72,25.92h-32a10.91,10.91,0,0,0-2.16-3.24c-4-3.84-10.8-4-10.92-4H660.38a57.67,57.67,0,0,0-24,6.84l-.12.12c-13.92,7.92-20.76,21.48-20.76,41.28v31.8a15.57,15.57,0,0,1-15.6,15.6H518.78V972.58h352V319.18H767.06l-.12-31.2H886.22a15.57,15.57,0,0,1,15.6,15.6V988.06a15.57,15.57,0,0,1-15.6,15.6H503.06ZM641.9,657.46c-2.16,4.8.24,11,4.08,11h44L667.46,811.3l78-180.36c2-4.8-.24-10.92-4.2-10.92h-42L719.54,481.9Z" fill="url(#linear-gradient)"/></svg>