<?xml version="1.0" encoding="utf-8"?>
<!-- Generator: Adobe Illustrator 21.0.0, SVG Export Plug-In . SVG Version: 6.00 Build 0)  -->
<svg version="1.1" id="icons_expanded" xmlns="http://www.w3.org/2000/svg" xmlns:xlink="http://www.w3.org/1999/xlink" x="0px"
	 y="0px" viewBox="0 0 1200 1200" style="enable-background:new 0 0 1200 1200;" xml:space="preserve">
<style type="text/css">
	.st0{fill:url(#_Compound_Path__1_);}
</style>
<linearGradient id="_Compound_Path__1_" gradientUnits="userSpaceOnUse" x1="782.8728" y1="851.9395" x2="593.1535" y2="30.1725" gradientTransform="matrix(1 0 0 1 0 176)">
	<stop  offset="0" style="stop-color:#5EB45C"/>
	<stop  offset="1" style="stop-color:#43B9E6"/>
</linearGradient>
<path id="_Compound_Path_" class="st0" d="M503.1,1003.5c-8.6,0-15.6-6.9-15.6-15.5c0,0,0,0,0-0.1V303.6c0-8.6,6.9-15.6,15.5-15.6
	c0,0,0,0,0.1,0h81.1v-16.2c0-31.8,13.8-56.5,38.8-69.7c11.7-6,24.6-9.3,37.8-9.7h98.5c4.6,0,20.6,1,32.8,12.6
	c5,4.8,10.9,13,12.7,25.9h-32c-0.5-1.2-1.3-2.3-2.2-3.2c-4-3.8-10.8-4-10.9-4h-99.3c-8.4,0.5-16.6,2.8-24,6.8l-0.1,0.1
	c-13.9,7.9-20.8,21.5-20.8,41.3v31.8c0,8.6-6.9,15.6-15.5,15.6c0,0,0,0-0.1,0h-81.1v653.3h352V319.2H767.1l-0.1-31.2h119.3
	c8.6,0,15.6,6.9,15.6,15.5c0,0,0,0,0,0.1v684.5c0,8.6-6.9,15.6-15.5,15.6c0,0,0,0-0.1,0H503.1V1003.5z M641.9,657.5
	c-2.2,4.8,0.2,11,4.1,11h44l-22.5,142.8l78-180.4c2-4.8-0.2-10.9-4.2-10.9h-42l20.3-138.1L641.9,657.5z"/>
</svg>
