<?xml version="1.0" encoding="utf-8"?>
<!-- Generator: Adobe Illustrator 19.0.0, SVG Export Plug-In . SVG Version: 6.00 Build 0)  -->
<svg version="1.1" id="icons_expanded" xmlns="http://www.w3.org/2000/svg" xmlns:xlink="http://www.w3.org/1999/xlink" x="0px"
	 y="0px" viewBox="0 -200 1200 1200" style="enable-background:new 0 -200 1200 1200;" xml:space="preserve">
<style type="text/css">
	.st0{fill:url(#SVGID_1_);}
	.st1{fill:url(#SVGID_2_);}
</style>
<title>battery</title>
<linearGradient id="SVGID_1_" gradientUnits="userSpaceOnUse" x1="846.1754" y1="941.1017" x2="688.0795" y2="256.2978">
	<stop  offset="0" style="stop-color:#55BE5A"/>
	<stop  offset="1" style="stop-color:#41B9E6"/>
</linearGradient>
<path class="st0" d="M613,920.8c-7.2,0-13-5.8-13-13V337.5c0-7.2,5.8-13,13-13h67.6V311c0-26.5,11.5-47.1,32.3-58.1
	c9.7-5,20.6-7.8,31.5-8.1h81.4c0.2,0,0.4,0,0.7,0c3.8,0,17.2,0.8,27.3,10.5c4.2,4,9.1,10.8,10.6,21.6h-26.7c-0.5-1.1-1.1-2-1.8-2.7
	c-3.3-3.2-9-3.3-9.1-3.3h-82.5h-0.2c-7,0.4-13.9,2.4-20,5.7l-0.1,0.1c-11.6,6.6-17.3,17.9-17.3,34.4v26.5c0,7.2-5.8,13-13,13h-67.6
	V895h293.3V350.5l-86.4,0.3l-0.1-26l99.4-0.3c7.2,0,13,5.8,13,13v570.4c0,7.2-5.8,13-13,13H613V920.8z"/>
<linearGradient id="SVGID_2_" gradientUnits="userSpaceOnUse" x1="802.2208" y1="871.6313" x2="740.4519" y2="604.0746">
	<stop  offset="0" style="stop-color:#55BE5A"/>
	<stop  offset="1" style="stop-color:#41B9E6"/>
</linearGradient>
<rect x="667.8" y="620.8" class="st1" width="207" height="234"/>
</svg>
