<svg id="Layer_1" data-name="Layer 1" xmlns="http://www.w3.org/2000/svg" xmlns:xlink="http://www.w3.org/1999/xlink" viewBox="0 0 840 840">
  <defs>
    <linearGradient id="linear-gradient" x1="470.47" y1="800.22" x2="361.23" y2="180.7" gradientUnits="userSpaceOnUse">
      <stop offset="0" stop-color="#ed2d24"/>
      <stop offset="0.54" stop-color="#f05e2a"/>
      <stop offset="1" stop-color="#ec0c6e" stop-opacity="0.5"/>
    </linearGradient>
  </defs>
  <title>battery</title>
  <path d="M575.86,251.55a28.87,28.87,0,0,0-20.57-8.46l-99.76.31.18,58,70.67-.22V726.79H313.62V301.09H353a29,29,0,0,0,29-29V249.64c0-10.39,3.7-12.52,5.48-13.54a22.63,22.63,0,0,1,8.92-2.58h61.83v2.56h58v-9.5c0-18.93-8.14-30.69-15-37.21-13.81-13.2-31.28-14-36.48-13.86H395.93a80,80,0,0,0-35,9c-22.07,11.59-35,32.25-36.78,58.62H284.61a29,29,0,0,0-29,29v483.7a29,29,0,0,0,29,29H555.39a29,29,0,0,0,29-29V272.09A29.2,29.2,0,0,0,575.86,251.55Z" style="fill: url(#linear-gradient)"/>
</svg>
