<?xml version="1.0" encoding="utf-8"?>
<!-- Generator: Adobe Illustrator 22.0.1, SVG Export Plug-In . SVG Version: 6.00 Build 0)  -->
<svg version="1.1" id="icons_expanded" xmlns="http://www.w3.org/2000/svg" xmlns:xlink="http://www.w3.org/1999/xlink" x="0px"
	 y="0px" viewBox="0 0 1200 1200" style="enable-background:new 0 0 1200 1200;" xml:space="preserve">
<style type="text/css">
	.st0{fill:url(#SVGID_1_);}
</style>
<title>circuit</title>
<g>
	
		<linearGradient id="SVGID_1_" gradientUnits="userSpaceOnUse" x1="646.514" y1="1002.7832" x2="646.514" y2="221.0687" gradientTransform="matrix(0.9882 -0.1532 0.1367 0.8818 -101.7239 250.6295)">
		<stop  offset="0" style="stop-color:#55BE5A"/>
		<stop  offset="1" style="stop-color:#008C5A"/>
	</linearGradient>
	<path class="st0" d="M633.8,1041.8c-8.2,0-16.2-3.5-22.2-10.1c-9.9-10.9-10.8-26.3-2.1-38.3l1-1.4l124.4-99.5
		c12.9-10.3,18-27.1,13.1-42.8c-4.5-14.3-17.9-23.8-33.4-23.6H525.6c-0.1,0-0.2,0-0.4,0c-14.4,0-27.7-6.4-36.6-17.7
		c-8.7-11.2-11.7-25.5-8.2-39.3l23-89.8c3.6-14-4.5-28-18.4-32L105.1,539.3c-10-2.8-17-12.1-17-22.5v-75.8c0-7.4,3.4-14.3,9.4-18.7
		c5.9-4.5,13.4-5.8,20.6-3.8l789.1,228.4c17.5,5.1,29.8,21.4,29.8,39.6v72.2c0,7.8,3.4,15.4,9.1,20.4c5.7,4.9,13.2,6.8,21.8,5.6
		l122.7-19c25.8-4,50,13.7,54,39.5c4,25.8-13.7,50-39.5,54l-122.6,19l-130.1,23.9c-30.2,6.4-58.8,20-82.7,39.4l-118.1,94.8l-1.9,1.1
		C644.5,1040.3,639.1,1041.8,633.8,1041.8z M629.1,1009.2c-1.2,2.5,0.1,4.6,1,5.6c1.1,1.2,3.4,2.9,6.7,1l0.4-0.2L753.8,922
		c27-21.9,59.3-37.2,93.4-44.4l0.3-0.1l130.8-24.1l122.7-19c12.2-1.9,20.5-13.3,18.6-25.5c-1.9-12.2-13.3-20.5-25.5-18.6l-122.9,19
		c-15.8,2.3-30.6-1.8-41.8-11.5c-11.1-9.6-17.7-24.3-17.7-39.3v-72.2c0-7.2-4.8-13.6-11.7-15.6L113.1,443v72.5l379,107.8
		c13,3.7,23.8,12.2,30.5,23.8c6.7,11.7,8.6,25.3,5.2,38.4l-23,89.8c-1.6,6.4-0.3,12.7,3.6,17.7c4,5.2,10.2,8.1,17,8.1
		c0.1,0,0.1,0,0.2,0h188.9c0.2,0,0.3,0,0.5,0c26.3,0,49.2,16.5,56.9,41.2c8,25.6-0.3,53-21.3,69.8L629.1,1009.2z"/>
</g>
</svg>
