<?xml version="1.0" encoding="utf-8"?>
<!-- Generator: Adobe Illustrator 21.0.0, SVG Export Plug-In . SVG Version: 6.00 Build 0)  -->
<svg version="1.1" id="Layer_1" xmlns="http://www.w3.org/2000/svg" xmlns:xlink="http://www.w3.org/1999/xlink" x="0px" y="0px"
	 viewBox="0 0 1200 1200" style="enable-background:new 0 0 1200 1200;" xml:space="preserve">
<style type="text/css">
	.st0{fill:url(#SVGID_1_);}
	.st1{fill:url(#SVGID_2_);}
</style>
<g>
	<linearGradient id="SVGID_1_" gradientUnits="userSpaceOnUse" x1="83.6102" y1="731.2392" x2="1118.7211" y2="731.2392">
		<stop  offset="0" style="stop-color:#E61400"/>
		<stop  offset="1" style="stop-color:#FF4687"/>
	</linearGradient>
	<path class="st0" d="M1106.7,499.4c-13.7-18.2-32.7-27.7-49.8-27.4c-28.5,0.8-44,19-46.9,21.3l0,0l-298,300.6l-2.3,2.7
		c0,0-0.4,0.5-1.6,2c-1.2,1.5-3,3.8-5.4,6.5c-4.8,5.5-12,12.9-20.7,20.1c-17.6,14.7-41.3,27.8-65.3,27.6c-16-0.1-33.3-5-53.7-21.1
		l-81.9-83.3l0,0c-0.3-0.3-1.4-1.6-2.5-2.9c4.3-4.9,6.9-11.4,7-18.6c0-0.3,0-0.6,0-1l0-0.8l-2-29.7c-0.3-4.3-1.8-8.3-4.3-11.8
		l-61.8-84.3c-9.4-12.8-24.2-19.8-39-19.7c-9.3,0-18.8,2.7-27,8.2l0,0L98,756.1l0,0c-9.2,6-14.5,16.1-14.4,26.6
		c0,4.6,1,9.3,3.1,13.6l0,0c5.4,11.4,16.8,18.1,28.6,18.1c3.5,0,7.1-0.6,10.6-1.8l209.9-47.7l4.7-1.6c0.5-0.2,0.9-0.3,1.4-0.3
		c1.1,0,2.1,0.5,2.8,1.5l27,41.5l0,0c2.5,3.9,5.4,7.5,8.6,10.9l0.2,0.2l134.8,137.4l0,0c7.2,7.5,16,13.4,25.6,17.3l6.3,1.5
		l162.9,15.6c4,1.2,8.2,1.8,12.3,1.8c10.9,0,21.6-4.1,29.7-11.9l0,0l0.1-0.1l0,0c8.7-8.4,13.2-19.7,13.2-30.9
		c0-7.9-2.2-15.9-6.6-22.8l338-339.5c2.9-3,7.1-7.9,12-16.6c4.7-8.5,9.7-20,9.8-34.6C1118.8,522.9,1115.2,510.1,1106.7,499.4z
		 M452.3,754.6L452.3,754.6L452.3,754.6C452.3,754.6,452.3,754.6,452.3,754.6z M721.1,949L721.1,949L721.1,949L721.1,949z
		 M749.5,913.7L749.5,913.7L749.5,913.7L749.5,913.7z M1065,553.4C1065,553.4,1065,553.5,1065,553.4L717.4,902.6
		c-5.8,5.8-8.8,13.7-8.8,21.3c0,7.2,2.6,14.5,7.7,20.2l-161.1-15.4c-2.8-1.5-5.4-3.4-7.6-5.7l-0.2-0.2L412.8,785.6
		c-1.3-1.3-2.4-2.7-3.4-4.2l0,0l-27-41.5c-9.2-14.1-24.6-22-40.5-21.9c-6.1,0-12.2,1.2-18.1,3.5l-140.2,31.9l192.7-128.1l0.2-0.1
		c0.6-0.4,1.2-0.6,1.8-0.6c1.1,0,2,0.4,2.7,1.3l58,79l0.7,9.7c-7.7,5.1-12.7,13.7-12.7,23.6c0,3,0.5,6.1,1.5,9.1l1.6,3.6l5.4,9.9
		c2.1,4.9,4.2,7.4,6.3,10.5c2.5,3.4,4.9,6.1,7.3,8.6l0,0l82.8,84.3l1.8,1.7c27.3,22.4,56.3,32.1,82.9,31.9c40-0.2,72-19.9,94-37.9
		c18.7-15.5,30.6-30.5,34.4-35.4l297-299.5l0,0c0.5-1.2,10.4-8.7,15-8c2.5,0.3,5.9-0.1,14.3,10c2.2,3,2.4,4.5,2.5,7
		C1074.3,539.6,1067.4,551.2,1065,553.4z"/>
	<linearGradient id="SVGID_2_" gradientUnits="userSpaceOnUse" x1="717.423" y1="902.5807" x2="717.4255" y2="902.5807">
		<stop  offset="0" style="stop-color:#E61400"/>
		<stop  offset="1" style="stop-color:#FF4687"/>
	</linearGradient>
	<polygon class="st1" points="717.4,902.6 717.4,902.6 717.4,902.6 	"/>
</g>
</svg>
