<?xml version="1.0" encoding="utf-8"?>
<!-- Generator: Adobe Illustrator 19.0.0, SVG Export Plug-In . SVG Version: 6.00 Build 0)  -->
<svg version="1.1" id="icons_expanded" xmlns="http://www.w3.org/2000/svg" xmlns:xlink="http://www.w3.org/1999/xlink" x="0px"
	 y="0px" viewBox="0 -200 1200 1200" style="enable-background:new 0 -200 1200 1200;" xml:space="preserve">
<style type="text/css">
	.st0{fill:url(#SVGID_1_);}
</style>
<title>circuit</title>
<linearGradient id="SVGID_1_" gradientUnits="userSpaceOnUse" x1="660.2747" y1="7.4971" x2="582.6677" y2="447.668" gradientTransform="matrix(1 0 0 -1 0 800)">
	<stop  offset="0" style="stop-color:#55BE5A"/>
	<stop  offset="1" style="stop-color:#008C5A"/>
</linearGradient>
<path class="st0" d="M722.5,781c-3.3,0-6.6-0.5-9.8-1.5l-0.7-0.2l-163.9-15.7c-1.2-0.1-2.5-0.4-3.6-0.9c-8.5-3.4-16.1-8.5-22.4-15.1
	L387.2,610.3c-2.9-3-5.4-6.2-7.6-9.5l-27-41.5c-2.4-3.6-6.4-5.8-10.7-5.8c-1.9,0-3.8,0.4-5.6,1.3c-0.8,0.4-1.7,0.7-2.7,0.9
	l-210.4,47.8l-0.4,0.1c-2.4,0.9-5,1.3-7.6,1.3c-9.3,0-17.7-5.9-20.9-14.6c-3.5-9.7,0.3-20.8,9-26.3l253.1-168.3
	c6.5-4.5,14-6.8,21.8-6.8c12.3,0,24,5.9,31.3,15.9l61.9,84.3c1.5,2,2.3,4.3,2.5,6.8l2,29.5v0.6l0,0.1c0.2,5.2-1.9,10.4-5.6,14
	l-4.3,4.2l3.5,4.9c1.4,1.9,2.9,3.8,4.6,5.6l82.4,83.9l0.3,0.3c19.5,15.7,39,23.3,59.5,23.3c3.5,0,7.2-0.2,10.8-0.7
	c51-6.6,89.3-58.4,90.3-59.7l-0.2,0.2c0.4-0.5,0.8-1.1,1.3-1.5l142-143.1l18.5,18.3L737.8,618.1l-0.3,0.4
	c-7.7,10.1-49,61.1-106.6,68.8c-4.7,0.6-9.6,0.9-14.4,0.9c-26.7,0-52.5-10-76.8-29.8c-0.4-0.3-0.7-0.6-1.1-1l-82.8-84.2
	c-2.3-2.4-9-9.9-11.9-16.6l-0.1-0.3l-5.5-10c-0.4-0.7-0.7-1.4-0.9-2.1c-2.9-8.4,0.7-17.8,8.4-22.2l3.8-2.2l-1.2-18.3l-59.6-81.3
	c-2.4-3.3-6.2-5.2-10.3-5.2c-2.6,0-5.1,0.8-7.2,2.2l-0.2,0.1L167,552.9l5.4,12.7l154.3-35.1l0.5-0.2c4.7-1.9,9.6-2.9,14.6-2.9
	c13.2,0,25.4,6.6,32.6,17.6l27,41.5c1.3,2,2.8,3.9,4.4,5.6l134.9,137.4c3.1,3.3,6.7,5.9,10.7,7.9l1.2,0.6l163.6,15.6
	c1.2,0.1,2.5,0.4,3.6,0.9l0.1,0c0.8,0.3,1.7,0.5,2.6,0.5c1.8,0,3.6-0.7,5-1.9l0.2-0.2l0.2-0.2c2.8-2.9,2.8-7.4,0-10.3l-4-4.1
	c-7.8-8.2-7.7-21,0.3-29l347.6-349.2l0.2-0.2c4-4.7,7-10,9.2-15.7l0-0.1c4.3-11.9,0.6-18.8-2.6-22.9c-6.7-8.7-13.7-13.3-20.7-13.7
	c-0.4,0-0.7,0-1.1,0c-8.1,0-16.6,5.6-21.7,10.8L921.3,433.1l-18.5-18.3l113.9-114.9c5.5-5.6,20.5-18.5,40.1-18.5
	c0.9,0,1.8,0,2.8,0.1c10.2,0.6,25.3,5.2,39.6,23.7c22.9,29.4,0.6,63.6-9,73.3L746.6,723.7l3.4,4.8c9.5,13.5,7.7,31.7-4.1,43.1
	l-0.2,0.1C739.4,777.7,731.2,781,722.5,781L722.5,781z"/>
</svg>
