<?xml version="1.0" encoding="utf-8"?>
<!-- Generator: Adobe Illustrator 22.0.1, SVG Export Plug-In . SVG Version: 6.00 Build 0)  -->
<svg version="1.1" id="icons_expanded" xmlns="http://www.w3.org/2000/svg" xmlns:xlink="http://www.w3.org/1999/xlink" x="0px"
	 y="0px" viewBox="0 0 1200 1200" style="enable-background:new 0 0 1200 1200;" xml:space="preserve">
<style type="text/css">
	.st0{fill:url(#SVGID_1_);}
</style>
<title>paddock_demand</title>
<linearGradient id="SVGID_1_" gradientUnits="userSpaceOnUse" x1="731.7704" y1="2398.6262" x2="589.6096" y2="1592.402" gradientTransform="matrix(1 0 0 1 0 -1392)">
	<stop  offset="0" style="stop-color:#5EB45C"/>
	<stop  offset="1" style="stop-color:#43B9E6"/>
</linearGradient>
<path class="st0" d="M746.3,1003.7c-4.7-0.2-9-2.5-11.9-6.2L402.3,552.4c-5.1-6.9-3.7-16.7,3.1-21.8c2.7-2,6-3.1,9.4-3.1h254.8v31.2
	H446l274.3,367.6l-43.7-240.7c-1.5-8.4,4-16.6,12.5-18.1c0,0,0.1,0,0.1,0c0.9-0.1,1.8-0.2,2.8-0.2h176.8l-56.2-443.4H653.2
	l24.6,210.5l-31,3.6l-26.6-227.9c-0.4-4.1,0.7-8.2,3.2-11.5c2.6-3.2,6.3-5.3,10.4-5.8c0.6-0.1,1.2-0.1,1.8-0.1h190.6
	c7.9,0,14.5,5.9,15.5,13.7l60,474.5c0.5,4.1-0.6,8.2-3.1,11.5c-2.5,3.3-6.2,5.4-10.3,5.9c-0.6,0.1-1.3,0.1-1.9,0.1H710.5l51.7,287.2
	c1.5,8.5-4.1,16.6-12.6,18.1c0,0,0,0,0,0c-0.9,0.1-1.8,0.2-2.8,0.2L746.3,1003.7L746.3,1003.7z"/>
</svg>
