<?xml version="1.0" encoding="utf-8"?>
<!-- Generator: Adobe Illustrator 21.0.2, SVG Export Plug-In . SVG Version: 6.00 Build 0)  -->
<svg version="1.1" id="icons_expanded" xmlns="http://www.w3.org/2000/svg" xmlns:xlink="http://www.w3.org/1999/xlink" x="0px"
	 y="0px" viewBox="0 0 1200 1200" style="enable-background:new 0 0 1200 1200;" xml:space="preserve">
<style type="text/css">
	.st0{fill:url(#SVGID_1_);}
</style>
<title>energycar</title>
<linearGradient id="SVGID_1_" gradientUnits="userSpaceOnUse" x1="665.9117" y1="150.1765" x2="580.1871" y2="636.3339" gradientTransform="matrix(1 0 0 -1 0 1200)">
	<stop  offset="0" style="stop-color:#0555FA"/>
	<stop  offset="1" style="stop-color:#41B9E6"/>
</linearGradient>
<path class="st0" d="M853.2,997.5c-14.6,0-27.2-9.9-30.5-24.1l-1.2-5.2l-5.4-0.1c-175.9-4.7-248.5-73.6-256.2-81.4l-0.1-0.1
	l-0.1-0.1c-50.6-46-97.1-62.2-177.5-62.2h-168v91.4c0,14.4,9.7,26.9,23.6,30.6l17.8,4.7l-6.6,25.1l-17.8-4.7
	c-25.3-6.7-42.9-29.6-42.9-55.7v-90.9l-6.5-0.9c-17.1-1.7-30.2-15.3-31.2-32.4l-0.1-0.9l0.1-0.7c1-17.1,14.1-30.8,31.2-32.4l6.3-0.6
	v-74.4c0-26.1,17.7-49,42.9-55.7l17.8-4.7l6.6,25.1l-17.8,4.7c-13.9,3.7-23.6,16.2-23.6,30.6v74.9h158.1v-60.5h-27.3
	c-14.6,0-26.6-12-26.6-26.6v-29.7c0-15.2,12.4-27.5,27.6-27.6h83.8c15.2,0,27.5,12.4,27.5,27.6v29.7c0,14.7-11.9,26.6-26.6,26.6
	h-32.4v60.2l7.3-0.3c65.3-3,108.5-20.3,154-61.7l0.2-0.1l0.1-0.2c7.9-8.1,82.4-79,264.7-81.6h3.1l2-2.3c6-6.7,14.6-10.5,23.6-10.5
	h106.7c17.4,0,31.5,13.8,31.5,30.8v39.7h77.8v256h-77.8v39.8c0,17-14.1,30.8-31.5,30.8L853.2,997.5L853.2,997.5z M848,971.5h117.3
	v-44.6H848V971.5z M578.3,868.2l0.2,0.2c1.9,2,20,19.7,58.8,37.2c33.7,15.2,91.8,33.8,177.4,36.4l7.2,0.2v-11.7
	c0-16.3,13.6-29.6,30.2-29.6h190.8v-204H852.2c-16.7,0-30.2-13.3-30.2-29.6v-28.2l-7.2,0.2c-47.4,1.5-116.6,9-177.4,36.4
	c-38.9,17.5-56.9,35.2-58.9,37.2l-0.1,0.1l-0.4,0.5l-0.3,0.2l-0.1,0.1c-55.5,50.6-108.5,69.5-195.5,69.5H186.4
	c-0.6-0.1-1.2-0.2-1.8-0.2c-1.8,0-3.6,0.7-5,1.9c-3.2,2.8-3.5,7.6-0.7,10.7c1.4,1.7,3.5,2.6,5.7,2.6c0.6,0,1.2-0.1,1.8-0.2H382
	c87,0,140,18.8,195.5,69.5l0.4,0.3L578.3,868.2z M848,670.9h117.3v-44.6H848V670.9z M344.4,670.9h86.9V639h-86.9V670.9z
	 M345.9,984.8c-15.2,0-27.5-12.4-27.5-27.6v-29.7c0-14.6,11.9-26.6,26.6-26.6h27.3v-61.4h26v61.4h32.5c14.6,0,26.6,11.9,26.6,26.6
	v29.7c0,15.2-12.4,27.5-27.6,27.5h-9.6l0,0L345.9,984.8L345.9,984.8L345.9,984.8z M344.4,958.8h86.9v-31.9h-86.9V958.8z
	 M705.1,851.2c-30.5,0-55.4-24.9-55.3-55.4c0-30.5,24.8-55.3,55.3-55.3c15.8,0,88.6,7.8,139.9,19.5c16.8,3.9,29.4,7.7,38.6,11.6
	c9.7,4.1,22.6,11.1,22.6,24.3c0,7.3-4,13.6-12.3,19c-7.7,5.1-17.2,8.1-22.8,9.9c-15,4.8-35.5,9.5-60.9,13.9
	C765.8,846.3,718.4,851.2,705.1,851.2L705.1,851.2z M705.1,766.5c-7.8,0-15.2,3.1-20.8,8.6c-5.5,5.6-8.6,12.9-8.6,20.8
	c0,16.2,13.2,29.3,29.3,29.3c8.5,0,47.6-3.6,88.9-10.3c24.5-3.9,44.8-8.1,60.2-12.4l24.6-6.8l-24.6-6.7c-4.7-1.3-9.8-2.6-15-3.8
	C789.2,773.9,718.4,766.5,705.1,766.5L705.1,766.5z"/>
</svg>
