<svg id="Layer_1" data-name="Layer 1" xmlns="http://www.w3.org/2000/svg" xmlns:xlink="http://www.w3.org/1999/xlink" viewBox="0 0 840 840">
  <defs>
    <linearGradient id="linear-gradient" x1="299.27" y1="691.28" x2="492.84" y2="356.01" gradientUnits="userSpaceOnUse">
      <stop offset="0" stop-color="#00c0e8"/>
      <stop offset="0.59" stop-color="#6cc071"/>
      <stop offset="0.6" stop-color="#71c16e" stop-opacity="0.96"/>
      <stop offset="0.75" stop-color="#9bd056" stop-opacity="0.63"/>
      <stop offset="0.83" stop-color="#acd54d" stop-opacity="0.5"/>
      <stop offset="0.89" stop-color="#ccdf3b" stop-opacity="0.34"/>
      <stop offset="0.96" stop-color="#efea28" stop-opacity="0.17"/>
      <stop offset="1" stop-color="#fcee21" stop-opacity="0.1"/>
    </linearGradient>
  </defs>
  <title>fe_car</title>
  <path d="M518.43,680.86A76.07,76.07,0,0,1,445,625.49H375.3a76.32,76.32,0,0,1-146.84,0H199.75a45.11,45.11,0,0,1-32-13.5L98.83,543.08a45.1,45.1,0,0,1-13.51-32V389.26c0-24,20.28-44.29,44.29-44.29h91.05c24,0,44.29,20.28,44.29,44.29v9.82l66.44-66.44a45.11,45.11,0,0,1,32-13.51h32c24,0,44.29,20.28,44.29,44.29v82.44a4,4,0,0,0,2.49,2.47h68.89a2.49,2.49,0,0,0,2.47-2.47c0-13.23,5.9-22.62,10.33-28.54q.47-.63,1-1.22a44.51,44.51,0,0,1,62.62-4.51L740,541.94q.62.53,1.2,1.11c9,9,13.5,19.32,13.5,30.78a46.52,46.52,0,0,1-42.39,46.66q-.94.09-1.89.09H621.79V578.76h87.29a4.66,4.66,0,0,0,3.77-4.71,9.71,9.71,0,0,0-.79-1L560.22,443.29l-.18-.16a2.48,2.48,0,0,0-3.35.13,7.37,7.37,0,0,0-1.35,2.6,44.34,44.34,0,0,1-44.29,44.29H442.15c-24,0-44.29-20.28-44.29-44.29V363.42a4,4,0,0,0-2.49-2.47h-32a3.75,3.75,0,0,0-2.44,1.26L258.83,464.33a20.91,20.91,0,0,1-35.69-14.78V389.26a4,4,0,0,0-2.49-2.47h-91a4,4,0,0,0-2.47,2.49V511.07a3.74,3.74,0,0,0,1.26,2.44l68.91,68.91a3.75,3.75,0,0,0,2.44,1.26h46.76a20.91,20.91,0,0,1,20.91,20.91,34.46,34.46,0,1,0,68.93,0,20.91,20.91,0,0,1,20.91-20.91H463.06A20.91,20.91,0,0,1,484,604.59a34.46,34.46,0,1,0,68.93,0h41.81a76,76,0,0,1-76.28,76.28Z" style="fill: url(#linear-gradient)"/>
</svg>
