<?xml version="1.0" encoding="utf-8"?>
<!-- Generator: Adobe Illustrator 22.0.1, SVG Export Plug-In . SVG Version: 6.00 Build 0)  -->
<svg version="1.1" id="Layer_1" xmlns="http://www.w3.org/2000/svg" xmlns:xlink="http://www.w3.org/1999/xlink" x="0px" y="0px"
	 viewBox="0 0 840 840" style="enable-background:new 0 0 840 840;" xml:space="preserve">
<style type="text/css">
	.st0{fill:url(#SVGID_1_);}
</style>
<g>
	<linearGradient id="SVGID_1_" gradientUnits="userSpaceOnUse" x1="417.8287" y1="747.2666" x2="417.8287" y2="339.4855">
		<stop  offset="0" style="stop-color:#008C5A"/>
		<stop  offset="1" style="stop-color:#55BE5A"/>
	</linearGradient>
	<path class="st0" d="M346.9,747.3c-40.5,0-81.1-8.4-119.5-24.8c-5.5-2.3-8.5-8.2-7.3-14c23.2-113,115.7-198.7,230.1-213.2l49.9-6.1
		c6.9-0.8,13.1,4,13.9,10.9c0.8,6.9-4,13.1-10.9,13.9l-49.9,6.1c-100.3,12.7-182,85.8-206.4,183.3c46.6,18,96.2,23.2,144.1,15.2
		c48.2-8.1,93.9-29.2,132.1-61.1c38.2-31.9,67.2-73.2,83.7-119.2c17.6-49,20.5-102.6,8.5-155l-2.4-9.9l-3.2,2.4c0,0-0.1,0.1-0.1,0.1
		c-18.3,13.4-48.7,22.5-90.4,27.1c-30.2,3.3-55,3-56,2.9c-0.1,0-0.3,0-0.4,0l-49.8-2.3c-56.7-2-111.2,20.8-149.5,62.7
		c-38,41.6-55.7,97.5-48.5,153.3c0.9,6.8-4,13.1-10.8,14c-6.9,0.9-13.1-4-14-10.8c-8.1-63.1,11.9-126.3,54.8-173.3
		c43.3-47.4,104.8-73.2,169-70.9c0,0,0.1,0,0.1,0l49.7,2.3c26.5,0.4,101.2-3.4,131-25.2l18.3-13.8c3.4-2.5,7.8-3.2,11.7-1.8
		c4,1.4,6.9,4.7,7.9,8.8l6.9,28.4c0,0.1,0,0.1,0,0.2c13.1,57.2,9.9,115.7-9.3,169.1c-18,50.2-49.5,95.2-91.2,130
		c-41.6,34.8-91.4,57.8-144,66.6C379.2,745.9,363.1,747.3,346.9,747.3z"/>
</g>
</svg>
