<?xml version="1.0" encoding="utf-8"?>
<!-- Generator: Adobe Illustrator 19.0.0, SVG Export Plug-In . SVG Version: 6.00 Build 0)  -->
<svg version="1.1" id="icons_expanded" xmlns="http://www.w3.org/2000/svg" xmlns:xlink="http://www.w3.org/1999/xlink" x="0px"
	 y="0px" viewBox="0 -200 1200 1200" style="enable-background:new 0 -200 1200 1200;" xml:space="preserve">
<style type="text/css">
	.st0{fill:url(#SVGID_1_);}
</style>
<title>meter_data</title>
<linearGradient id="SVGID_1_" gradientUnits="userSpaceOnUse" x1="680.4672" y1="930.5309" x2="493.7383" y2="-128.4814" gradientTransform="matrix(1 0 0 -1 0 800)">
	<stop  offset="0" style="stop-color:#0555FA"/>
	<stop  offset="1" style="stop-color:#41B9E6"/>
</linearGradient>
<path class="st0" d="M402.8,909.7c-97,0-175.8-78.9-175.8-175.8V459.2c-0.1-47.8-39-86.8-86.8-86.9H0c-24.5,0-44.5-20-44.5-44.5
	c0-24.5,20-44.5,44.5-44.5h140.1c97,0,175.9,78.9,175.9,175.9v274.7c0,47.9,39,86.9,86.9,86.9s86.9-39,86.9-86.9V45.4
	c0-97,78.9-175.9,175.9-175.9c97,0,175.9,78.9,175.9,175.9v429.1c0.3,24,9.8,46.5,26.8,63.4c17,16.8,39.6,26.1,63.5,26.1
	c0.3,0,0.7,0,1,0c23.8-0.3,46.1-9.7,62.9-26.5s26.2-39.1,26.5-62.9l0-52.6c0-78.7,64-142.7,142.7-142.7h35.1
	c24.5,0,44.5,20,44.5,44.5s-20,44.5-44.5,44.5h-35.2c-29.6,0-53.7,24.1-53.7,53.7v52.5c0,98.9-80.5,179.4-179.4,179.4
	c-98.9,0-179.4-80.5-179.4-179.4V45.4c0.3-23.1-8.5-45-24.8-61.6c-16.2-16.6-37.9-25.9-61.1-26.1c-0.3,0-0.7,0-1,0
	c-23,0-44.7,8.9-61,25.1c-16.4,16.2-25.5,37.8-25.8,60.8c0,0.6,0,1.3,0,1.9l0,688.4C578.7,830.8,499.8,909.7,402.8,909.7z"/>
</svg>
