<svg id="Layer_1" data-name="Layer 1" xmlns="http://www.w3.org/2000/svg" xmlns:xlink="http://www.w3.org/1999/xlink" viewBox="0 0 1200 1200"><defs><linearGradient id="linear-gradient" y1="564.97" x2="1200" y2="564.97" gradientUnits="userSpaceOnUse"><stop offset="0" stop-color="#40b9e6"/><stop offset="1" stop-color="#3259a6"/></linearGradient></defs><title>meter2c</title><path d="M1200,540.44H1065.93a59.51,59.51,0,1,0-111.44,40.62c-15.16,17.51-39.4,48.34-81.22,102.71-14.1,18.34-28.58,37.15-41.53,53.69A59.28,59.28,0,0,0,767,725.89L631,233.31a59.52,59.52,0,1,0-74,2.47l-194.15,648a58.31,58.31,0,0,0-25.75.17L189.38,574.6a59.51,59.51,0,1,0-96.64-60.45H0v31.53H92.74A59.25,59.25,0,0,0,161,588.44L309.3,898.89A59.55,59.55,0,1,0,382.57,892l9.87,3L586.51,247.22c2,.2,4,.3,6,.3a59.44,59.44,0,0,0,9.5-.83L739.92,746.16l2.79-.77A59.59,59.59,0,1,0,848.66,767c14.88-18.82,32.53-41.76,49.61-64,25.19-32.75,57.08-74.22,76.8-97.57A59.45,59.45,0,0,0,1065.93,572H1200ZM122.09,529.92a28,28,0,1,1,28,28A28.06,28.06,0,0,1,122.09,529.92ZM350.31,970a28,28,0,1,1,28-28A28.06,28.06,0,0,1,350.31,970ZM581.75,213.85A28.06,28.06,0,1,1,592.52,216,28,28,0,0,1,581.75,213.85Zm209,594.7a28,28,0,1,1,28-28A28.06,28.06,0,0,1,790.7,808.55Zm217.85-224.32a28,28,0,0,1-23.67-13.17s-3.26-4-4.13-12.58c-.06-.76-.23-1.5-.23-2.28a28,28,0,1,1,28,28Z" fill="url(#linear-gradient)"/></svg>