<svg id="Layer_1" data-name="Layer 1" xmlns="http://www.w3.org/2000/svg" xmlns:xlink="http://www.w3.org/1999/xlink" viewBox="0 0 1200 1200"><defs><linearGradient id="linear-gradient" y1="564.97" x2="1200" y2="564.97" gradientUnits="userSpaceOnUse"><stop offset="0" stop-color="#40b9e6"/><stop offset="1" stop-color="#3259a6"/></linearGradient></defs><title>meter2b</title><path d="M1046.15,540.44l-213,198.31A59.36,59.36,0,0,0,767,725.89L631,233.31a59.52,59.52,0,1,0-74,2.47l-194.15,648a58.08,58.08,0,0,0-26.46.35l-179.21-370H0v31.53H139.3L308.78,899.37a59.57,59.57,0,1,0,82.52-.51l1.14-3.92L586.51,247.22c2,.2,4,.3,6,.3a59.44,59.44,0,0,0,9.5-.83L739.92,746.16l2.79-.77a59.58,59.58,0,1,0,106,21.89L1058.56,572H1200V540.44ZM350.31,970a28,28,0,1,1,28-28A28.06,28.06,0,0,1,350.31,970ZM581.75,213.85A28.06,28.06,0,1,1,592.52,216,28,28,0,0,1,581.75,213.85Zm209,594.7a28,28,0,1,1,28-28A28.06,28.06,0,0,1,790.7,808.55Z" fill="url(#linear-gradient)"/></svg>