<?xml version="1.0" encoding="utf-8"?>
<!-- Generator: Adobe Illustrator 19.0.0, SVG Export Plug-In . SVG Version: 6.00 Build 0)  -->
<svg version="1.1" id="icons_expanded" xmlns="http://www.w3.org/2000/svg" xmlns:xlink="http://www.w3.org/1999/xlink" x="0px"
	 y="0px" viewBox="0 -200 1200 1200" style="enable-background:new 0 -200 1200 1200;" xml:space="preserve">
<style type="text/css">
	.st0{fill:url(#SVGID_1_);}
</style>
<title>meter</title>
<linearGradient id="SVGID_1_" gradientUnits="userSpaceOnUse" x1="866.101" y1="-80.0651" x2="717.5294" y2="515.8346" gradientTransform="matrix(1 0 0 -1 0 800)">
	<stop  offset="0" style="stop-color:#41B9E6"/>
	<stop  offset="1" style="stop-color:#0555FA"/>
</linearGradient>
<path class="st0" d="M603.5,851.2c-7.2,0-13-5.8-13-13V516.1c0-7.2,5.8-13,13-13h39.8c27.7,0,50.3,22.6,50.4,50.4v78.1
	c0,13.4,10.9,24.3,24.4,24.3c13.4,0,24.3-10.9,24.4-24.3V435.8c0-13.5,5.2-26.1,14.7-35.6s22.1-14.8,35.6-14.8
	c27.8,0,50.4,22.6,50.4,50.3l0,122.3c0.3,13.7,11.7,24.8,25.3,24.8c0.2,0,0.4,0,0.6,0c13.6-0.3,24.4-11.2,24.8-24.8l0-43
	c0-7.2,5.8-13,13-13h14.7v26h-1.7v29.9c-0.4,27.9-23.4,50.6-51.3,50.6l-0.7,0c-13.5-0.2-26.1-5.5-35.6-15
	c-9.5-9.5-14.9-22.2-15-35.6l0-122c0-6.5-2.5-12.6-7.1-17.2c-4.6-4.6-10.7-7.1-17.2-7.2c-13.4,0-24.4,10.9-24.4,24.3v195.9
	c0,27.7-22.6,50.3-50.4,50.3c-27.8,0-50.3-22.6-50.4-50.3v-78.1c0-13.4-10.9-24.3-24.4-24.4h-26.9v296.2h350.7V339H616.5v112.2h-26
	V326c0-7.2,5.8-13,13-13h376.7c7.2,0,13,5.8,13,13v512.2c0,7.2-5.8,13-13,13H603.5z M699.4,774v-26h56.3l0,26H699.4z"/>
</svg>
