<svg id="Layer_1" data-name="Layer 1" xmlns="http://www.w3.org/2000/svg" xmlns:xlink="http://www.w3.org/1999/xlink" viewBox="0 0 1200 1200"><defs><linearGradient id="linear-gradient" x1="236.85" y1="600" x2="991.37" y2="600" gradientUnits="userSpaceOnUse"><stop offset="0" stop-color="#40b9e6"/><stop offset="1" stop-color="#3259a6"/></linearGradient></defs><title>meter2</title><path d="M962.61,740.26c-5.56-238.67-108.92-403.6-255.23-403.6-53.07,0-95.83,26.45-128.71,62.21-25.84-16.38-53.43-25-81.9-25a142.12,142.12,0,0,0-41.66,6.35c-17-17.82-36.64-28.73-58.47-28.73-77.46,0-128.3,129.49-131.17,331.57a44,44,0,1,0,31.07.1c0-.07,0-.15,0-.22,22.73-132,80.5-231.73,149.1-265.51,24.16,34.44,43.32,90.1,48.19,147.15a44,44,0,1,0,34.11.07c5.62-28.1,24.35-79.65,56.1-123,21.46,19,41.39,45,59,77.44,38.23,70.58,60.59,162.9,63.89,262.19-16.37,6.2-28,21.56-28,39.52,0,23.42,19.75,42.47,44,42.47s44-19.05,44-42.47c0-18.31-12.09-33.9-29-39.86-3.39-104.32-27.07-201.76-67.64-276.66-19.51-36-42-65-66.5-86.54,27.35-29,61.87-50.07,103.54-50.07,60.44,0,116,36.1,156.46,101.66,41.92,67.94,65.19,161.34,67.72,271-16.49,6.14-28.23,21.56-28.23,39.6,0,23.42,19.75,42.47,44,42.47s44-19.05,44-42.47C991.37,761.82,979.37,746.27,962.61,740.26ZM310.72,529c18.5-96.54,52.34-146.38,85.92-146.38,9.13,0,18.36,4,27.32,11C379.43,418.37,340.19,465.43,310.72,529Zm203.95-25.73c-8.59-35-21.81-69.09-38.9-96.1a107.72,107.72,0,0,1,21-2.16c21.25,0,42.1,6.26,62,18.16C539.8,449,525.12,477.36,514.67,503.25Z" fill="url(#linear-gradient)"/></svg>