<svg id="icons_expanded" data-name="icons expanded" xmlns="http://www.w3.org/2000/svg" xmlns:xlink="http://www.w3.org/1999/xlink" viewBox="0 0 1200 1200"><defs><linearGradient id="linear-gradient" x1="803.83" y1="994.64" x2="625.55" y2="279.58" gradientTransform="translate(0 -40)" gradientUnits="userSpaceOnUse"><stop offset="0" stop-color="#41b9e6"/><stop offset="1" stop-color="#0555fa"/></linearGradient></defs><title>meter</title><path d="M488.67,920a15.57,15.57,0,0,1-15.6-15.6V517.91a15.57,15.57,0,0,1,15.6-15.6h47.76a60.69,60.69,0,0,1,60.48,60.48v93.72a29.28,29.28,0,0,0,58.56,0v-235a60.43,60.43,0,0,1,60.36-60.48,60.51,60.51,0,0,1,60.48,60.36V568.19a30.59,30.59,0,0,0,30.36,29.76h.72a30.47,30.47,0,0,0,29.76-29.76v-51.6a15.57,15.57,0,0,1,15.6-15.6h17.64v31.2h-2v35.88a61.83,61.83,0,0,1-61.56,60.72H806a61.47,61.47,0,0,1-60.72-60.72V421.67A29,29,0,0,0,736.71,401a29.19,29.19,0,0,0-49.92,20.52V656.63a60.48,60.48,0,0,1-121,0V562.91a29.4,29.4,0,0,0-29.28-29.28H504.27V889.07H925.11V305.39H504.27V440h-31.2V289.79a15.57,15.57,0,0,1,15.6-15.6h452a15.57,15.57,0,0,1,15.6,15.6V904.43a15.57,15.57,0,0,1-15.6,15.6Zm115.08-92.64v-31.2h67.56v31.2Z" fill="url(#linear-gradient)"/></svg>