<?xml version="1.0" encoding="utf-8"?>
<!-- Generator: Adobe Illustrator 21.0.2, SVG Export Plug-In . SVG Version: 6.00 Build 0)  -->
<svg version="1.1" id="icons_expanded" xmlns="http://www.w3.org/2000/svg" xmlns:xlink="http://www.w3.org/1999/xlink" x="0px"
	 y="0px" viewBox="0 0 1200 1200" style="enable-background:new 0 0 1200 1200;" xml:space="preserve">
<style type="text/css">
	.st0{fill:url(#SVGID_1_);}
</style>
<title>meter_data</title>
<g>
	
		<linearGradient id="SVGID_1_" gradientUnits="userSpaceOnUse" x1="445.6252" y1="1004.0721" x2="621.9802" y2="345.9063" gradientTransform="matrix(-1 0 0 1 1147.9844 0)">
		<stop  offset="0" style="stop-color:#FF4687"/>
		<stop  offset="1" style="stop-color:#FF5A0F"/>
	</linearGradient>
	<path class="st0" d="M998,921.6c50.5,0,91.5-41,91.5-91.5V597c0-32.3,26.2-58.5,58.5-58.5h92v-33h-92c-50.5,0-91.5,41-91.5,91.5
		v233.1c0,32.3-26.2,58.5-58.5,58.5s-58.5-26.2-58.5-58.5V371c0-50.5-41-91.5-91.5-91.5s-91.5,41-91.5,91.5v232
		c0,32.3-26.2,58.5-58.5,58.5s-58.5-26.2-58.5-58.5c0-50.5-41-91.5-91.5-91.5s-91.5,41-91.5,91.5v122c0,32.3-26.2,58.5-58.5,58.5
		s-58.5-26.2-58.5-58.5V521.9c0-50.5-41-91.5-91.5-91.5s-91.5,41-91.5,91.5V607c0,32.3-26.2,58.5-58.5,58.5S39.5,639.3,39.5,607v-4
		c0-50.5-41-91.5-91.5-91.5h-40v33h40c32.3,0,58.5,26.2,58.5,58.5v4c0,50.5,41,91.5,91.5,91.5s91.5-41,91.5-91.5v-85.1
		c0-32.3,26.2-58.5,58.5-58.5s58.5,26.2,58.5,58.5V725c0,50.5,41,91.5,91.5,91.5s91.5-41,91.5-91.5V603c0-32.3,26.2-58.5,58.5-58.5
		s58.5,26.2,58.5,58.5c0,50.5,41,91.5,91.5,91.5s91.5-41,91.5-91.5V371c0-32.3,26.2-58.5,58.5-58.5s58.5,26.2,58.5,58.5v459.1
		C906.5,880.6,947.5,921.6,998,921.6z"/>
</g>
</svg>
