<?xml version="1.0" encoding="utf-8"?>
<!-- Generator: Adobe Illustrator 21.0.2, SVG Export Plug-In . SVG Version: 6.00 Build 0)  -->
<svg version="1.1" id="icons_expanded" xmlns="http://www.w3.org/2000/svg" xmlns:xlink="http://www.w3.org/1999/xlink" x="0px"
	 y="0px" viewBox="0 0 1200 1200" style="enable-background:new 0 0 1200 1200;" xml:space="preserve">
<style type="text/css">
	.st0{fill:url(#SVGID_1_);}
</style>
<title>meter</title>
<linearGradient id="SVGID_1_" gradientUnits="userSpaceOnUse" x1="803.8135" y1="205.3608" x2="625.5334" y2="920.421" gradientTransform="matrix(1 0 0 -1 0 1160)">
	<stop  offset="0" style="stop-color:#FF4687"/>
	<stop  offset="1" style="stop-color:#FF5A0F"/>
</linearGradient>
<path class="st0" d="M488.7,920c-8.6,0-15.6-6.9-15.6-15.5c0,0,0,0,0-0.1V517.9c0-8.6,6.9-15.6,15.5-15.6c0,0,0,0,0.1,0h47.8
	c33.4,0.1,60.4,27.1,60.5,60.5v93.7c0,16.2,13.1,29.3,29.3,29.3c16.2,0,29.3-13.1,29.3-29.3v-235c0-33.4,27-60.4,60.4-60.5
	c33.3,0,60.4,27,60.5,60.4v146.8c0.4,16.5,13.9,29.6,30.4,29.8h0.7c16.3-0.4,29.4-13.5,29.8-29.8v-51.6c0-8.6,6.9-15.6,15.5-15.6
	c0,0,0,0,0.1,0h17.6v31.2h-2v35.9c-0.6,33.6-27.9,60.6-61.6,60.7H806c-33.4-0.4-60.3-27.4-60.7-60.7V421.7c0-7.8-3.1-15.2-8.6-20.7
	c-11.3-11.4-29.8-11.5-41.3-0.2c-5.5,5.5-8.6,12.9-8.6,20.7v235.1c0,33.4-27.1,60.5-60.5,60.5s-60.5-27.1-60.5-60.5v-93.7
	c-0.1-16.1-13.1-29.2-29.3-29.3h-32.2v355.4h420.8V305.4H504.3V440h-31.2V289.8c0-8.6,6.9-15.6,15.5-15.6c0,0,0,0,0.1,0h452
	c8.6,0,15.6,6.9,15.6,15.5c0,0,0,0,0,0.1v614.6c0,8.6-6.9,15.6-15.5,15.6c0,0,0,0-0.1,0L488.7,920z M603.8,827.4v-31.2h67.6v31.2
	H603.8z"/>
</svg>
