<svg id="icons_expanded" data-name="icons expanded" xmlns="http://www.w3.org/2000/svg" xmlns:xlink="http://www.w3.org/1999/xlink" viewBox="0 0 1200 1200"><defs><linearGradient id="linear-gradient" x1="731.76" y1="193.38" x2="589.6" y2="999.6" gradientTransform="matrix(1, 0, 0, -1, 0, 1200)" gradientUnits="userSpaceOnUse"><stop offset="0" stop-color="#41b9e6"/><stop offset="1" stop-color="#ff4687"/></linearGradient></defs><title>paddock_demand</title><path d="M746.31,1003.71a16.06,16.06,0,0,1-11.88-6.24L402.27,552.39a15.66,15.66,0,0,1,3.12-21.84,15.41,15.41,0,0,1,9.36-3.12H669.51v31.2H445.95L720.27,926.19,676.59,685.47a15.55,15.55,0,0,1,12.6-18.12,21.43,21.43,0,0,1,2.76-.24H868.71l-56.16-443.4H653.19l24.6,210.48-31,3.6L620.19,209.91a16.06,16.06,0,0,1,3.24-11.52,15.54,15.54,0,0,1,10.44-5.76,9.08,9.08,0,0,1,1.8-.12H826.23a15.66,15.66,0,0,1,15.48,13.68l60,474.48a15.83,15.83,0,0,1-3.12,11.52,15.43,15.43,0,0,1-10.32,5.88,10.32,10.32,0,0,1-1.92.12H710.55l51.72,287.16a15.59,15.59,0,0,1-12.6,18.12,21.43,21.43,0,0,1-2.76.24h-.6Z" fill="url(#linear-gradient)"/></svg>