<?xml version="1.0" encoding="utf-8"?>
<!-- Generator: Adobe Illustrator 19.0.0, SVG Export Plug-In . SVG Version: 6.00 Build 0)  -->
<svg version="1.1" id="icons_expanded" xmlns="http://www.w3.org/2000/svg" xmlns:xlink="http://www.w3.org/1999/xlink" x="0px"
	 y="0px" viewBox="0 -200 1200 1200" style="enable-background:new 0 -200 1200 1200;" xml:space="preserve">
<style type="text/css">
	.st0{fill:url(#SVGID_1_);}
</style>
<title>paddock_demand</title>
<linearGradient id="SVGID_1_" gradientUnits="userSpaceOnUse" x1="817.4771" y1="925.533" x2="699.009" y2="253.6811">
	<stop  offset="0" style="stop-color:#41B9E6"/>
	<stop  offset="1" style="stop-color:#FF4687"/>
</linearGradient>
<path class="st0" d="M829.6,923.1c-3.9-0.2-7.5-2.1-9.9-5.2L542.9,547c-4.3-5.7-3.1-13.9,2.6-18.2c2.2-1.7,5-2.6,7.8-2.6h212.3v26
	H579.3l228.6,306.3l-36.4-200.6c-1.3-7.1,3.4-13.8,10.5-15.1c0.8-0.1,1.5-0.2,2.3-0.2h147.3l-46.8-369.5H752l20.5,175.4l-25.8,3
	l-22.2-189.9c-0.4-3.4,0.6-6.8,2.7-9.6c2.2-2.7,5.2-4.4,8.7-4.8c0.5-0.1,1-0.1,1.5-0.1h158.8c6.5,0,12.1,4.9,12.9,11.4l50,395.4
	c0.4,3.4-0.5,6.9-2.6,9.6s-5.2,4.5-8.6,4.9c-0.5,0.1-1.1,0.1-1.6,0.1H799.8l43.1,239.3c0.6,3.4-0.1,6.9-2.1,9.7
	c-2,2.9-5,4.8-8.4,5.4c-0.8,0.1-1.5,0.2-2.3,0.2H829.6z"/>
</svg>
