<?xml version="1.0" encoding="utf-8"?>
<!-- Generator: Adobe Illustrator 22.0.1, SVG Export Plug-In . SVG Version: 6.00 Build 0)  -->
<svg version="1.1" id="Layer_1" xmlns="http://www.w3.org/2000/svg" xmlns:xlink="http://www.w3.org/1999/xlink" x="0px" y="0px"
	 viewBox="0 0 840 840" style="enable-background:new 0 0 840 840;" xml:space="preserve">
<style type="text/css">
	.st0{fill:url(#SVGID_1_);}
</style>
<linearGradient id="SVGID_1_" gradientUnits="userSpaceOnUse" x1="430.4116" y1="750.3506" x2="430.4116" y2="322.834">
	<stop  offset="0" style="stop-color:#36BAE2"/>
	<stop  offset="1" style="stop-color:#F6498A"/>
</linearGradient>
<path class="st0" d="M641.7,327.9c-2.4-3.2-6.1-5-10-5H467.3c-5.5,0-10.4,3.6-12,8.9l-8.1,27.2H298.1c-5.5,0-10.4,3.6-12,8.9
	l-69,232.8c-1.1,3.8-0.4,7.9,2,11c2.4,3.2,6.1,5,10,5h159c5.5,0,10.4-3.6,12-8.9l8.1-27.2h110.8v-25H415.5L469,375
	c0.3-1.1,0.5-2.3,0.5-3.4l7-23.8H615l-64.2,216.7l0,0l-52.9,178.7l24,7.1l121.9-411.5l0,0C644.8,335.1,644.1,331,641.7,327.9z
	 M245.8,591.7L307.4,384h132.4l-53.5,180.6c-0.3,1.1-0.5,2.3-0.5,3.4l-7,23.8H245.8z"/>
</svg>
