<svg id="Layer_1" data-name="Layer 1" xmlns="http://www.w3.org/2000/svg" xmlns:xlink="http://www.w3.org/1999/xlink" viewBox="0 0 840 840">
  <defs>
    <linearGradient id="linear-gradient" x1="414.22" y1="785.67" x2="414.22" y2="282.44" gradientUnits="userSpaceOnUse">
      <stop offset="0" stop-color="#ed2d24"/>
      <stop offset="1" stop-color="#f05e2a"/>
    </linearGradient>
  </defs>
  <title>solar</title>
  <path d="M414.23,785.67a19.47,19.47,0,0,1-17.58-11.1l-36-75.61-73.56,40a19.47,19.47,0,0,1-28.44-20.67L273.95,636l-83-10.88A19.47,19.47,0,0,1,180,591.65l60.78-57.59L180,476.45A19.47,19.47,0,0,1,190.91,443l83-10.86L258.63,349.8a19.47,19.47,0,0,1,28.45-20.67l73.56,40,36-75.6a19.47,19.47,0,0,1,17.58-11.1h0a19.47,19.47,0,0,1,17.58,11.1l36,75.6,73.56-40A19.47,19.47,0,0,1,569.8,349.8l-15.3,82.34,83,10.86a19.47,19.47,0,0,1,10.87,33.44l-60.77,57.61,60.77,57.59a19.47,19.47,0,0,1-10.86,33.44L534.14,638.64A19.47,19.47,0,0,1,522,636.27l-51-28.88a19.47,19.47,0,0,1-5.23-29.55,66.66,66.66,0,0,0,14.57-29.73,67.6,67.6,0,1,0-32.47,44.61l19.38,33.78a106.46,106.46,0,1,1,41.19-42.66l27.06,15.34,56.38-7.39-46-43.6a19.47,19.47,0,0,1,0-28.26l46-43.61-62.84-8.22a19.47,19.47,0,0,1-16.62-22.86L524,382.88l-55.7,30.29a19.47,19.47,0,0,1-26.88-8.74l-27.24-57.23L387,404.44a19.47,19.47,0,0,1-26.88,8.73L304.4,382.89,316,445.23a19.47,19.47,0,0,1-16.62,22.87l-62.85,8.22,46,43.61a19.47,19.47,0,0,1,0,28.27l-46,43.59L299.38,600A19.47,19.47,0,0,1,316,622.89L304.4,685.22l55.69-30.28A19.47,19.47,0,0,1,387,663.68l27.26,57.23,27.24-57.23a19.47,19.47,0,0,1,26.88-8.74L521.8,684l-5.07-21.67,37.92-8.88,15,64A19.47,19.47,0,0,1,541.36,739L467.8,699l-36,75.6A19.47,19.47,0,0,1,414.23,785.67Z" style="fill: url(#linear-gradient)"/>
</svg>
