<?xml version="1.0" encoding="utf-8"?>
<!-- Generator: Adobe Illustrator 19.0.0, SVG Export Plug-In . SVG Version: 6.00 Build 0)  -->
<svg version="1.1" id="icons_expanded" xmlns="http://www.w3.org/2000/svg" xmlns:xlink="http://www.w3.org/1999/xlink" x="0px"
	 y="0px" viewBox="0 -200 1200 1200" style="enable-background:new 0 -200 1200 1200;" xml:space="preserve">
<style type="text/css">
	.st0{fill:url(#SVGID_1_);}
</style>
<title>solar</title>
<linearGradient id="SVGID_1_" gradientUnits="userSpaceOnUse" x1="816.3883" y1="900.5925" x2="701.2343" y2="247.5043">
	<stop  offset="0" style="stop-color:#FF5A0F"/>
	<stop  offset="1" style="stop-color:#E61400"/>
</linearGradient>
<path class="st0" d="M758.8,910.6c-5,0-9.6-2.9-11.7-7.4l-56.6-118.8l-115.6,62.9c-1.9,1-4,1.6-6.2,1.6c-4.8,0-9.2-2.6-11.4-6.8
	c-1.4-2.6-1.9-5.7-1.4-8.6L580,704.1L449.5,687c-7.1-0.9-12.1-7.5-11.2-14.6c0.4-3,1.8-5.7,3.9-7.8l95.5-90.5l-95.5-90.6
	c-2.5-2.4-4-5.6-4.1-9.1s1.2-6.8,3.6-9.3c2-2.2,4.8-3.6,7.8-3.9l130.4-17.1l-24-129.4c-1.3-7,3.4-13.9,10.4-15.2
	c0.8-0.1,1.6-0.2,2.4-0.2c2.2,0,4.3,0.5,6.2,1.6l115.6,62.9L747.1,245c2.1-4.5,6.8-7.4,11.7-7.4c1.9,0,3.8,0.4,5.6,1.3
	c2.7,1.3,4.9,3.5,6.1,6.1l56.6,118.8l115.6-62.9c1.9-1.1,4-1.6,6.2-1.6c4.8,0,9.2,2.6,11.4,6.8c1.4,2.6,1.9,5.7,1.4,8.6l-24,129.4
	l130.5,17.1c7.1,0.9,12.1,7.5,11.2,14.6c-0.4,3-1.8,5.7-4,7.8l-95.5,90.6l95.5,90.5c2.5,2.4,4,5.6,4.1,9.1s-1.2,6.8-3.6,9.3
	c-2,2.2-4.8,3.6-7.8,3.9L924,705.9c-0.6,0.1-1.1,0.1-1.7,0.1c-2.2,0-4.5-0.6-6.4-1.7l-71-40.3c-6.2-3.5-8.4-11.5-4.9-17.7
	c0.4-0.7,0.9-1.4,1.4-2c38.8-45.6,33.2-114.2-12.4-153c-19.6-16.7-44.6-25.9-70.3-25.9c-31.9,0-62.1,13.9-82.7,38.2
	c-18.8,22.1-27.8,50.2-25.5,79c2.3,28.9,15.8,55.1,37.9,73.9c19.6,16.7,44.6,25.9,70.3,25.9c16.5,0,32.9-3.8,47.7-11.1l13,22.6
	c-18.8,9.5-39.6,14.5-60.7,14.5c-9.4,0-18.8-1-27.9-2.9c-35.1-7.4-65.2-28.1-84.8-58.3s-26.3-66-18.8-101.1
	c6.6-30,23.5-57.2,47.6-76.3c23.7-18.9,53.4-29.3,83.5-29.3c9.7,0,19.4,1.1,29,3.2c34.7,7.6,64.5,28.2,83.8,58s26.1,65.4,19,100.2
	c-3,14.3-8.4,27.9-15.8,40.6l-3.6,6.1l54.2,30.7l112.7-14.8l-85.7-81.2c-5.2-4.9-5.4-13.2-0.5-18.4c0.2-0.2,0.3-0.3,0.5-0.5
	l85.7-81.2l-116.9-15.1c-7.1-0.9-12.1-7.5-11.2-14.6c0-0.2,0.1-0.5,0.1-0.7l21.6-116.1l-103.7,56.4c-1.9,1-4,1.6-6.2,1.6
	c-4.8,0-9.2-2.6-11.4-6.8c-0.1-0.2-0.2-0.4-0.3-0.6l-50.8-106.6L708,387.3c-2.1,4.5-6.8,7.4-11.8,7.4c-1.9,0-3.8-0.4-5.6-1.3
	c-0.2-0.1-0.4-0.2-0.6-0.3l-103.7-56.4L608,452.8c0.6,3.4-0.1,6.9-2.1,9.7c-2,2.8-4.9,4.8-8.3,5.4c-0.2,0-0.5,0.1-0.7,0.1
	l-117.1,15.3l85.7,81.2c5.2,4.9,5.4,13.2,0.5,18.4c-0.2,0.2-0.3,0.3-0.5,0.5l-85.7,81.2l117,15.4c3.4,0.5,6.5,2.2,8.6,5
	s3,6.2,2.6,9.6c0,0.2-0.1,0.5-0.1,0.7l-21.6,116L690,754.9c1.9-1,4-1.6,6.2-1.6c4.8,0,9.2,2.6,11.4,6.8c0.1,0.2,0.2,0.4,0.3,0.6
	l50.8,106.6l50.8-106.6c2.1-4.5,6.8-7.4,11.8-7.4c1.9,0,3.8,0.4,5.6,1.3c0.2,0.1,0.4,0.2,0.6,0.3l102.2,55.6L917,756.4l25.3-5.9
	l19.3,82.3c0.8,3.4,0.2,6.9-1.6,9.8c-1.8,2.9-4.7,5-8.1,5.8c-1,0.2-2,0.3-3,0.3c-2.2,0-4.3-0.5-6.2-1.6l-115.6-62.9L770.5,903
	C768.4,907.7,763.8,910.6,758.8,910.6L758.8,910.6z"/>
</svg>
