<svg id="icons_expanded" xmlns="http://www.w3.org/2000/svg" xmlns:xlink="http://www.w3.org/1999/xlink" viewBox="0 0 1200 1200">
  <defs>
    <linearGradient id="linear-gradient" x1="850.61" y1="1072.42" x2="733.01" y2="405.46" gradientUnits="userSpaceOnUse">
      <stop offset="0" stop-color="#ff5a0f"/>
      <stop offset="1" stop-color="#e61400"/>
    </linearGradient>
  </defs>
  <title>solar</title>
  <path d="M791.81,1082.48a20,20,0,0,1-18.06-11.4L720.34,958.91,611.2,1018.26A20,20,0,0,1,582,997L604.7,874.89,481.51,858.75a20,20,0,0,1-11.16-34.35l90.17-85.46-90.18-85.47a20,20,0,0,1,11.16-34.35L604.7,603,582,480.85a20,20,0,0,1,29.22-21.23L720.34,519l53.42-112.17a20,20,0,0,1,36.11,0L863.29,519l109.14-59.35a20,20,0,0,1,29.22,21.23L978.93,603l123.19,16.14a20,20,0,0,1,11.16,34.35l-90.18,85.47,90.18,85.46a20,20,0,0,1-11.16,34.35L958,877.63a20,20,0,0,1-12.46-2.43l-71-40.26a20,20,0,0,1-5.37-30.36A101.52,101.52,0,1,0,842.3,826.9l19.92,34.68a141.18,141.18,0,0,1-99.75,15.7c-76.28-16.18-125.18-91.4-109-167.67a141.42,141.42,0,0,1,276.68,58.67A142,142,0,0,1,913.48,811l46,26.05,95.83-12.55-75-71.08a20,20,0,0,1,0-29l75-71.09L952.81,639.92a20,20,0,0,1-17.07-23.49l18.89-101.6L863.86,564.2a20,20,0,0,1-27.61-9l-44.43-93.3-44.43,93.3a20,20,0,0,1-27.61,9L629,514.83l18.9,101.6a20,20,0,0,1-17.07,23.49L528.35,653.34l75,71.09a20,20,0,0,1,0,29l-75,71.08L630.82,838a20,20,0,0,1,17.07,23.49L629,963.06l90.78-49.37a20,20,0,0,1,27.61,9l44.43,93.3,44.43-93.3a20,20,0,0,1,27.61-9l88.47,48.11-10.71-45.7L980.56,907l20.89,89.15a20,20,0,0,1-29,22.13L863.29,958.91l-53.42,112.17A20,20,0,0,1,791.81,1082.48Z" style="fill: url(#linear-gradient)"/>
</svg>
