<svg id="icons_expanded" data-name="icons expanded" xmlns="http://www.w3.org/2000/svg" xmlns:xlink="http://www.w3.org/1999/xlink" viewBox="0 0 1200 1200"><defs><linearGradient id="linear-gradient" x1="644.12" y1="209.81" x2="505.94" y2="993.52" gradientTransform="matrix(1, 0, 0, -1, 0, 1200)" gradientUnits="userSpaceOnUse"><stop offset="0" stop-color="#ff5a0f"/><stop offset="1" stop-color="#e61400"/></linearGradient></defs><title>solar</title><path d="M575,1002.15a15.52,15.52,0,0,1-14-8.88L493,850.71,354.29,926.19a16,16,0,0,1-7.44,1.92,15.38,15.38,0,0,1-13.68-8.16,16.22,16.22,0,0,1-1.68-10.32l28.92-155.28-156.6-20.52a15.66,15.66,0,0,1-13.44-17.52,16.25,16.25,0,0,1,4.68-9.36l114.6-108.6L195.05,489.63a15.69,15.69,0,0,1-4.92-10.92,15.38,15.38,0,0,1,4.32-11.16,14.65,14.65,0,0,1,9.36-4.68l156.48-20.52-28.8-155.28A15.74,15.74,0,0,1,344,268.83a23.3,23.3,0,0,1,2.88-.24,14.64,14.64,0,0,1,7.44,1.92L493,346l67.92-142.56a15.66,15.66,0,0,1,14-8.88,14.9,14.9,0,0,1,6.72,1.56,15.48,15.48,0,0,1,7.32,7.32L656.93,346l138.72-75.48a14.64,14.64,0,0,1,7.44-1.92,15.38,15.38,0,0,1,13.68,8.16,16.22,16.22,0,0,1,1.68,10.32l-28.8,155.28,156.6,20.52a15.62,15.62,0,0,1,8.64,26.88L840.29,598.47l114.6,108.6A15.69,15.69,0,0,1,959.81,718a15.38,15.38,0,0,1-4.32,11.16,14.65,14.65,0,0,1-9.36,4.68L773.21,756.51a11.64,11.64,0,0,1-2,.12,15.64,15.64,0,0,1-7.68-2l-85.2-48.36A15.67,15.67,0,0,1,672.41,685a17.15,17.15,0,0,1,1.68-2.4c46.56-54.72,39.84-137-14.88-183.6a130.23,130.23,0,1,0-27.12,216l15.6,27.12a161.58,161.58,0,0,1-72.84,17.4A164.28,164.28,0,0,1,541.37,756,161.43,161.43,0,0,1,417.05,564.75,160.85,160.85,0,0,1,609.17,441.87,161.29,161.29,0,0,1,732.53,631.71a163.25,163.25,0,0,1-19,48.72l-4.32,7.32,65,36.84,135.24-17.76L806.69,609.39a15.69,15.69,0,0,1-.6-22.08l.6-.6,102.84-97.44L769.25,471.15a15.66,15.66,0,0,1-13.44-17.52c0-.24.12-.6.12-.84l25.92-139.32L657.41,381.15a16,16,0,0,1-7.44,1.92,15.38,15.38,0,0,1-13.68-8.16l-.36-.72L575,246.27,514,374.19a15.7,15.7,0,0,1-14.16,8.88,14.9,14.9,0,0,1-6.72-1.56l-.72-.36L368,313.47l26,139.32a15.37,15.37,0,0,1-2.52,11.64,15.63,15.63,0,0,1-10,6.48c-.24,0-.6.12-.84.12L240.17,489.39,343,586.83a15.69,15.69,0,0,1,.6,22.08l-.6.6L240.17,706.95l140.4,18.48a15.58,15.58,0,0,1,10.32,6A16,16,0,0,1,394,742.95c0,.24-.12.6-.12.84L368,883l124.44-67.68a16,16,0,0,1,7.44-1.92,15.38,15.38,0,0,1,13.68,8.16l.36.72,61,127.92,61-127.92A15.7,15.7,0,0,1,650,813.39a14.9,14.9,0,0,1,6.72,1.56l.72.36L780.05,882l-15.24-64.92L795.17,810l23.16,98.76a15.55,15.55,0,0,1-11.64,18.72,18.31,18.31,0,0,1-3.6.36,14.64,14.64,0,0,1-7.44-1.92L656.93,850.47,589,993a15.34,15.34,0,0,1-14,9.12Z" fill="url(#linear-gradient)"/></svg>