<svg xmlns="http://www.w3.org/2000/svg" xmlns:xlink="http://www.w3.org/1999/xlink" viewBox="0 0 301.57 240">
  <defs>
    <clipPath id="clip-path" transform="translate(0 -23)">
      <polygon points="11.74 0 286.92 0 286.42 137.33 266.92 137 266.92 60.5 172.08 60.5 172.39 108.15 116.42 109 115.94 167.07 66.47 167.01 66.92 225.8 11.74 225.8 11.74 0" style="fill: none"/>
    </clipPath>
  </defs>
  <title>illustration_solarmexico</title>
  <g id="Layer_2" data-name="Layer 2">
    <g id="Layer_1-2" data-name="Layer 1">
      <line x1="287.42" y1="202.55" x2="13.52" y2="202.55" style="fill: none;stroke: #fff;stroke-linejoin: round;stroke-width: 3px"/>
      <g>
        <rect x="154.63" y="144.01" width="112.64" height="58.54" style="fill: none;stroke: #fff;stroke-linejoin: round;stroke-width: 3px"/>
        <line x1="150.67" y1="144.07" x2="272.12" y2="144.07" style="fill: none;stroke: #fff;stroke-linejoin: round;stroke-width: 3px"/>
        <g>
          <line x1="179.91" y1="143.62" x2="179.91" y2="149.92" style="fill: none;stroke: #fff;stroke-linejoin: round;stroke-width: 3px"/>
          <line x1="211.4" y1="143.62" x2="211.4" y2="149.92" style="fill: none;stroke: #fff;stroke-linejoin: round;stroke-width: 3px"/>
          <line x1="242.88" y1="143.62" x2="242.88" y2="149.92" style="fill: none;stroke: #fff;stroke-linejoin: round;stroke-width: 3px"/>
        </g>
        <path d="M242.17,159.14h.54a13.06,13.06,0,0,1,13.06,13.06v30.34a0,0,0,0,1,0,0H229.11a0,0,0,0,1,0,0V172.21a13.06,13.06,0,0,1,13.06-13.06Z" style="fill: none;stroke: #fff;stroke-linejoin: round;stroke-width: 3px"/>
        <rect x="179.91" y="162.4" width="30.59" height="22.53" style="fill: none;stroke: #fff;stroke-linejoin: round;stroke-width: 3px"/>
      </g>
      <g>
        <rect x="115.95" y="85.54" width="112.64" height="58.54" style="fill: none;stroke: #fff;stroke-linejoin: round;stroke-width: 3px"/>
        <line x1="111.99" y1="85.54" x2="233.44" y2="85.54" style="fill: none;stroke: #fff;stroke-linejoin: round;stroke-width: 3px"/>
        <g>
          <line x1="141.23" y1="85.15" x2="141.23" y2="91.45" style="fill: none;stroke: #fff;stroke-linejoin: round;stroke-width: 3px"/>
          <line x1="172.71" y1="85.15" x2="172.71" y2="91.45" style="fill: none;stroke: #fff;stroke-linejoin: round;stroke-width: 3px"/>
          <line x1="204.2" y1="85.15" x2="204.2" y2="91.45" style="fill: none;stroke: #fff;stroke-linejoin: round;stroke-width: 3px"/>
        </g>
        <path d="M203.49,100.67H204a13.06,13.06,0,0,1,13.06,13.06v30.34a0,0,0,0,1,0,0H190.43a0,0,0,0,1,0,0V113.73A13.06,13.06,0,0,1,203.49,100.67Z" style="fill: none;stroke: #fff;stroke-linejoin: round;stroke-width: 3px"/>
        <rect x="141.23" y="103.93" width="30.59" height="22.53" style="fill: none;stroke: #fff;stroke-linejoin: round;stroke-width: 3px"/>
      </g>
      <g>
        <rect x="66.47" y="144.01" width="87.81" height="58.54" style="fill: none;stroke: #fff;stroke-linejoin: round;stroke-width: 3px"/>
        <line x1="62.51" y1="144.07" x2="183.96" y2="144.07" style="fill: none;stroke: #fff;stroke-linejoin: round;stroke-width: 3px"/>
        <g>
          <line x1="91.75" y1="143.62" x2="91.75" y2="149.92" style="fill: none;stroke: #fff;stroke-linejoin: round;stroke-width: 3px"/>
          <line x1="123.23" y1="143.62" x2="123.23" y2="149.92" style="fill: none;stroke: #fff;stroke-linejoin: round;stroke-width: 3px"/>
          <line x1="154.72" y1="143.62" x2="154.72" y2="149.92" style="fill: none;stroke: #fff;stroke-linejoin: round;stroke-width: 3px"/>
        </g>
        <path d="M154.28,225.55H140.95V195.47a13.33,13.33,0,0,1,13.33-13.33h0" transform="translate(0 -23)" style="fill: none;stroke: #fff;stroke-linejoin: round;stroke-width: 3px"/>
        <rect x="91.75" y="162.4" width="30.59" height="22.53" style="fill: none;stroke: #fff;stroke-linejoin: round;stroke-width: 3px"/>
      </g>
      <g>
        <polyline points="287.04 114.33 228.4 114.33 228.4 144.07" style="fill: none;stroke: #fff;stroke-linejoin: round;stroke-width: 3px"/>
        <line x1="228.4" y1="114.39" x2="287.42" y2="114.39" style="fill: none;stroke: #fff;stroke-linejoin: round;stroke-width: 3px"/>
        <g>
          <line x1="253.68" y1="113.94" x2="253.68" y2="120.23" style="fill: none;stroke: #fff;stroke-linejoin: round;stroke-width: 3px"/>
          <line x1="285.17" y1="113.94" x2="285.17" y2="120.23" style="fill: none;stroke: #fff;stroke-linejoin: round;stroke-width: 3px"/>
        </g>
        <polyline points="287.42 132.72 253.68 132.72 253.68 143.63" style="fill: none;stroke: #fff;stroke-linejoin: round;stroke-width: 3px"/>
      </g>
      <g>
        <path d="M50.41,194v7.54a9.74,9.74,0,0,1-9.74,9.74h0" transform="translate(0 -23)" style="fill: none;stroke: #fff;stroke-linejoin: round;stroke-width: 3px"/>
        <line x1="39.67" y1="164.32" x2="39.67" y2="203" style="fill: none;stroke: #fff;stroke-linejoin: round;stroke-width: 3px"/>
        <path d="M40,216.89h0a8.48,8.48,0,0,1-8.48-8.48v-5.65" transform="translate(0 -23)" style="fill: none;stroke: #fff;stroke-linejoin: round;stroke-width: 3px"/>
      </g>
      <polyline points="266.92 114 266.92 37.5 171.92 37.5 171.92 85" style="fill: none;stroke: #fff;stroke-linejoin: round;stroke-width: 3px"/>
      <polyline points="115.94 126.46 104.42 126.46 104.42 113" style="fill: none;stroke: #fff;stroke-linejoin: round;stroke-width: 3px"/>
      <g>
        <line x1="192.93" y1="37.5" x2="192.93" y2="43.8" style="fill: none;stroke: #fff;stroke-linejoin: round;stroke-width: 3px"/>
        <line x1="245.9" y1="37.5" x2="245.9" y2="43.8" style="fill: none;stroke: #fff;stroke-linejoin: round;stroke-width: 3px"/>
      </g>
      <path d="M192.93,108.85v-2.47A26.49,26.49,0,0,1,219.42,79.9h0a26.49,26.49,0,0,1,26.49,26.49v31.42" transform="translate(0 -23)" style="fill: none;stroke: #fff;stroke-linejoin: round;stroke-width: 3px"/>
      <line x1="218.92" y1="57" x2="218.92" y2="86" style="fill: none;stroke: #fff;stroke-linejoin: round;stroke-width: 3px"/>
      <line x1="274.42" y1="37.5" x2="164.42" y2="37.5" style="fill: none;stroke: #fff;stroke-linejoin: round;stroke-width: 3px"/>
      <path d="M103.8,72.55V66.44a13.35,13.35,0,0,1,13.35-13.35h0a13.35,13.35,0,0,1,13.35,13.35v41.71" transform="translate(0 -23)" style="fill: none;stroke: #fff;stroke-linejoin: round;stroke-width: 3px"/>
      <circle cx="103.8" cy="53.42" r="3.24" style="fill: none;stroke: #fff;stroke-linejoin: round;stroke-width: 3px"/>
      <g style="opacity: 0.30000000000000004">
        <line x1="153.47" y1="117.19" x2="158.22" y2="112.44" style="fill: none;stroke: #fff;stroke-linejoin: round;stroke-width: 3px"/>
        <line x1="164.42" y1="112.82" x2="150.73" y2="126.51" style="fill: none;stroke: #fff;stroke-linejoin: round;stroke-width: 3px"/>
      </g>
      <g style="opacity: 0.30000000000000004">
        <line x1="102.47" y1="168.19" x2="107.22" y2="163.44" style="fill: none;stroke: #fff;stroke-linejoin: round;stroke-width: 3px"/>
        <line x1="113.42" y1="163.82" x2="99.73" y2="177.51" style="fill: none;stroke: #fff;stroke-linejoin: round;stroke-width: 3px"/>
      </g>
      <g style="opacity: 0.30000000000000004">
        <line x1="199.47" y1="175.19" x2="204.22" y2="170.44" style="fill: none;stroke: #fff;stroke-linejoin: round;stroke-width: 3px"/>
        <line x1="210.42" y1="170.82" x2="196.73" y2="184.51" style="fill: none;stroke: #fff;stroke-linejoin: round;stroke-width: 3px"/>
      </g>
    </g>
    <g id="daynight">
      <g id="Layer_2-2" data-name="Layer 2">
        <g id="Layer_4" data-name="Layer 4">
          <g style="clip-path: url(#clip-path)">
            <g id="sky">
              <circle cx="150.78" cy="173.78" r="150.78" transform="translate(-78.72 134.52) rotate(-45)" style="fill: none"/>
              <circle id="sun" cx="60.95" cy="93.38" r="14.51" transform="translate(-48.17 47.45) rotate(-45)" style="fill: none;stroke: #fff;stroke-linejoin: round;stroke-width: 3.7788760662078857px"/>
              <g id="sun_rays" data-name="sun rays">
                <circle cx="60.95" cy="93.38" r="30.24" transform="translate(-48.17 47.45) rotate(-45)" style="fill: none"/>
                <line x1="79.84" y1="89.26" x2="73.8" y2="83.22" style="fill: none;stroke: #fff;stroke-linecap: round;stroke-linejoin: round;stroke-width: 3.7788760662078857px"/>
                <line x1="42.07" y1="51.49" x2="48.11" y2="57.54" style="fill: none;stroke: #fff;stroke-linecap: round;stroke-linejoin: round;stroke-width: 3.7788760662078857px"/>
                <line x1="42.07" y1="89.26" x2="48.11" y2="83.22" style="fill: none;stroke: #fff;stroke-linecap: round;stroke-linejoin: round;stroke-width: 3.7788760662078857px"/>
                <line x1="80.17" y1="51.16" x2="73.79" y2="57.54" style="fill: none;stroke: #fff;stroke-linecap: round;stroke-linejoin: round;stroke-width: 3.7788760662078857px"/>
                <line x1="60.95" y1="43.59" x2="60.95" y2="52.22" style="fill: none;stroke: #fff;stroke-linecap: round;stroke-linejoin: round;stroke-width: 3.7788760662078857px"/>
                <line x1="60.95" y1="97.08" x2="60.95" y2="88.61" style="fill: none;stroke: #fff;stroke-linecap: round;stroke-linejoin: round;stroke-width: 3.7788760662078857px"/>
                <line x1="34.24" y1="70.38" x2="42.79" y2="70.38" style="fill: none;stroke: #fff;stroke-linecap: round;stroke-linejoin: round;stroke-width: 3.7788760662078857px"/>
                <line x1="87.47" y1="70.38" x2="79.11" y2="70.38" style="fill: none;stroke: #fff;stroke-linecap: round;stroke-linejoin: round;stroke-width: 3.7788760662078857px"/>
              </g>
              <path id="moon" d="M243.85,270.1a11.27,11.27,0,0,1,1-16.85,14.52,14.52,0,1,0,11.05,19.41A11.31,11.31,0,0,1,243.85,270.1Z" transform="translate(0 -23)" style="fill: none;stroke: #fff;stroke-linejoin: round;stroke-width: 3.7788760662078857px"/>
            </g>
          </g>
        </g>
      </g>
    </g>
    <g id="light">
      <rect x="142.73" y="105.07" width="27.32" height="20.01" style="fill: #fff"/>
      <g>
        <line x1="110.07" y1="59.77" x2="113.86" y2="63.56" style="fill: none;stroke: #fff;stroke-linejoin: round;stroke-width: 3px"/>
        <line x1="93.73" y1="43.44" x2="97.53" y2="47.23" style="fill: none;stroke: #fff;stroke-linejoin: round;stroke-width: 3px"/>
        <line x1="97.53" y1="59.77" x2="93.73" y2="63.56" style="fill: none;stroke: #fff;stroke-linejoin: round;stroke-width: 3px"/>
        <line x1="113.86" y1="43.44" x2="110.07" y2="47.23" style="fill: none;stroke: #fff;stroke-linejoin: round;stroke-width: 3px"/>
      </g>
      <rect x="93.24" y="163.49" width="27.32" height="20.01" style="fill: #fff"/>
      <rect x="181.41" y="163.49" width="27.32" height="20.01" style="fill: #fff"/>
      <rect x="84.25" y="33.47" width="39.95" height="39.95" rx="19.98" ry="19.98" style="fill: #fff"/>
    </g>
  </g>
</svg>
