<svg id="Layer_1" data-name="Layer 1" xmlns="http://www.w3.org/2000/svg" viewBox="0 0 144.57 80.23"><title>computer</title><path id="_Path_" data-name="&lt;Path&gt;" d="M56.55,102.63h43.3a3.52,3.52,0,0,0,3.51-3.53V38.41a3.52,3.52,0,0,0-3.51-3.52H6.23a3.53,3.53,0,0,0-3.52,3.52V90.1h7V41.94H96.33V95.58H2.71V99.1a3.53,3.53,0,0,0,3.52,3.53H49.52v5.43h-9.6v7H65.75v-7h-9.2Z" transform="translate(-2.71 -34.89)" fill="#461e7d"/><path id="_Path_2" data-name="&lt;Path&gt;" d="M143.77,46H116.16a3.53,3.53,0,0,0-3.52,3.53v53.06h7V53.09h20.59v55H77.09v7h66.68a3.53,3.53,0,0,0,3.52-3.52v-62A3.53,3.53,0,0,0,143.77,46Z" transform="translate(-2.71 -34.89)" fill="#461e7d"/><rect id="_Rectangle_" data-name="&lt;Rectangle&gt;" x="123.71" y="23.22" width="7.03" height="14.19" fill="#461e7d"/></svg>