<?xml version="1.0" encoding="utf-8"?>
<!-- Generator: Adobe Illustrator 18.1.1, SVG Export Plug-In . SVG Version: 6.00 Build 0)  -->
<svg version="1.1" id="Layer_1" xmlns="http://www.w3.org/2000/svg" xmlns:xlink="http://www.w3.org/1999/xlink" x="0px" y="0px"
	 viewBox="0 0 980 316.7" enable-background="new 0 0 980 316.7" xml:space="preserve">
<g id="storage">
	<path fill="none" stroke="#FFFFFF" stroke-width="4" stroke-linejoin="round" d="M592.9,274l6.9,0v37.1H579v-37.1h5.2v-1.7
		c0-3.5,3.3-3.5,3.3-3.5h5.3c0,0,1.7-0.1,1.7,1.7"/>
	<text transform="matrix(1 0 0 1 466.2031 302.3683)" fill="#FFFFFF" font-family="'UniversLTStd-Light'" font-size="28">Storage</text>
</g>
<g id="yourHome">
	<polyline fill="none" stroke="#FFFFFF" stroke-width="4" stroke-linejoin="round" points="688.4,193.7 688.4,173.7 671.2,173.7 
		671.2,202.3 705.5,202.3 705.5,159.4 714.1,159.4 714.1,156.5 702.7,146.9 702.7,130.7 691.2,130.7 691.2,136.4 679.8,127.9 
		645.4,156.5 645.4,159.4 654,159.4 654,202.3 662.6,202.3 	"/>
	<text transform="matrix(1 0 0 1 750.3209 179.5876)" fill="#FFFFFF" font-family="'UniversLTStd-Light'" font-size="28">Your Home</text>
</g>
<g id="theGrid">
	<polyline id="icoBolt" fill="none" stroke="#FFFFFF" stroke-width="4" stroke-linejoin="round" points="293.4,148.4 290.4,122.8 
		311.1,122.8 317.6,174.2 296.5,174.2 302.5,207.4 266.5,159.1 295,159.1 	"/>
	<text transform="matrix(1 0 0 1 121.1714 179.588)" fill="#FFFFFF" font-family="'UniversLTStd-Light'" font-size="28">The grid</text>
</g>
<g id="arrowStoH">
	<defs>
		<filter id="Adobe_OpacityMaskFilter" filterUnits="userSpaceOnUse" x="619" y="232.9" width="64" height="64">
			<feColorMatrix  type="matrix" values="1 0 0 0 0  0 1 0 0 0  0 0 1 0 0  0 0 0 1 0"/>
		</filter>
	</defs>
	<mask maskUnits="userSpaceOnUse" x="619" y="232.9" width="64" height="64" id="SVGID_1_">
		<g filter="url(#Adobe_OpacityMaskFilter)">
			
				<linearGradient id="SVGID_2_" gradientUnits="userSpaceOnUse" x1="587.3245" y1="257.5616" x2="688.4509" y2="257.5616" gradientTransform="matrix(0.7071 -0.7071 2.018 2.018 -318.3276 199.9861)">
				<stop  offset="2.774235e-02" style="stop-color:#000000"/>
				<stop  offset="0.1955" style="stop-color:#FFFFFF"/>
				<stop  offset="0.7884" style="stop-color:#FFFFFF"/>
				<stop  offset="0.9603" style="stop-color:#000000"/>
			</linearGradient>
			<polygon fill="url(#SVGID_2_)" points="713.4,258.1 641.9,329.6 591.5,279.2 663,207.7 			"/>
		</g>
	</mask>
	
		<path mask="url(#SVGID_1_)" fill="none" stroke="#FFFFFF" stroke-width="4.5" stroke-linecap="round" stroke-linejoin="round" stroke-miterlimit="10" stroke-dasharray="0,13" d="
		M680.7,235.1c0,32.8-26.6,59.5-59.5,59.5"/>
</g>
<g id="arrowGtoH">
	<defs>
		<filter id="Adobe_OpacityMaskFilter_1_" filterUnits="userSpaceOnUse" x="359.5" y="169.5" width="239" height="5">
			<feColorMatrix  type="matrix" values="1 0 0 0 0  0 1 0 0 0  0 0 1 0 0  0 0 0 1 0"/>
		</filter>
	</defs>
	<mask maskUnits="userSpaceOnUse" x="359.5" y="169.5" width="239" height="5" id="SVGID_3_">
		<g filter="url(#Adobe_OpacityMaskFilter_1_)">
			<linearGradient id="SVGID_4_" gradientUnits="userSpaceOnUse" x1="361.5463" y1="170.3138" x2="599.7967" y2="170.3138">
				<stop  offset="0" style="stop-color:#000000"/>
				<stop  offset="0.1589" style="stop-color:#FFFFFF"/>
				<stop  offset="0.8374" style="stop-color:#FFFFFF"/>
				<stop  offset="1" style="stop-color:#000000"/>
			</linearGradient>
			<rect x="361.5" y="157.8" fill="url(#SVGID_4_)" width="238.3" height="25"/>
		</g>
	</mask>
	
		<line mask="url(#SVGID_3_)" fill="none" stroke="#FFFFFF" stroke-width="5" stroke-linecap="round" stroke-linejoin="round" stroke-miterlimit="10" stroke-dasharray="0,13" x1="362" y1="172" x2="596" y2="172"/>
</g>
<g id="alert">
	<g>
		<linearGradient id="SVGID_5_" gradientUnits="userSpaceOnUse" x1="295.9476" y1="51.6667" x2="295.9476" y2="22.8899">
			<stop  offset="0" style="stop-color:#FFFFFF"/>
			<stop  offset="1" style="stop-color:#F2F2F2"/>
		</linearGradient>
		<circle fill="url(#SVGID_5_)" cx="295.9" cy="37.3" r="14.4"/>
		<g>
			<rect x="341.4" y="7.5" fill="none" width="391.8" height="86.5"/>
			<text transform="matrix(1 0 0 1 341.3667 17.4962)"><tspan x="0" y="0" fill="#FFFFFF" font-family="'UniversLTStd'" font-size="12">Simultaneous overload of this kind over a whole block of houses </tspan><tspan x="0" y="16.8" fill="#FFFFFF" font-family="'UniversLTStd'" font-size="12">might stress the grid to the point of causing a blackout. Connect to </tspan><tspan x="0" y="33.6" fill="#FFFFFF" font-family="'UniversLTStd'" font-size="12">our intelligent storage to see how we make sure you have all the </tspan><tspan x="0" y="50.4" fill="#FFFFFF" font-family="'UniversLTStd'" font-size="12">energy you need.</tspan></text>
		</g>
		<linearGradient id="SVGID_6_" gradientUnits="userSpaceOnUse" x1="289.0013" y1="36.2783" x2="302.894" y2="36.2783">
			<stop  offset="0" style="stop-color:#0555F9"/>
			<stop  offset="2.981752e-02" style="stop-color:#1252F1"/>
			<stop  offset="0.1851" style="stop-color:#4F44CC"/>
			<stop  offset="0.3392" style="stop-color:#8438AC"/>
			<stop  offset="0.4885" style="stop-color:#AF2E92"/>
			<stop  offset="0.632" style="stop-color:#D0267D"/>
			<stop  offset="0.7682" style="stop-color:#E8206F"/>
			<stop  offset="0.8942" style="stop-color:#F71D66"/>
			<stop  offset="1" style="stop-color:#FC1C63"/>
		</linearGradient>
		<path fill="url(#SVGID_6_)" d="M300.9,42.6H291c-0.7,0-1.4-0.4-1.7-1c-0.4-0.6-0.4-1.4,0-2l5-8.6c0.4-0.6,1-1,1.7-1
			c0.7,0,1.4,0.4,1.7,1l5,8.6c0.4,0.6,0.4,1.4,0,2C302.3,42.2,301.6,42.6,300.9,42.6z M295.9,31.7c-0.1,0-0.2,0-0.3,0.2l-5,8.6
			c-0.1,0.1,0,0.3,0,0.3c0,0.1,0.1,0.2,0.3,0.2h9.9c0.2,0,0.3-0.1,0.3-0.2c0-0.1,0.1-0.2,0-0.3l-5-8.6
			C296.2,31.7,296,31.7,295.9,31.7z"/>
	</g>
</g>
</svg>
