<?xml version="1.0" encoding="utf-8"?>
<!-- Generator: Adobe Illustrator 18.1.1, SVG Export Plug-In . SVG Version: 6.00 Build 0)  -->
<svg version="1.1" id="Layer_1" xmlns="http://www.w3.org/2000/svg" xmlns:xlink="http://www.w3.org/1999/xlink" x="0px" y="0px"
	 viewBox="0 0 980 250" enable-background="new 0 0 980 250" xml:space="preserve">
<g id="storage">
	<path fill="none" stroke="#FFFFFF" stroke-width="4" stroke-linejoin="round" d="M496.3,21.2l13.1,0v69.9h-39.2V21.1h9.9v-3.2
		c0-6.5,6.2-6.5,6.2-6.5h10c0,0,3.2-0.1,3.2,3.2"/>
	<text transform="matrix(1 0 0 1 442.5665 131.1957)" fill="#FFFFFF" font-family="'UniversLTStd-Light'" font-size="28">Storage</text>
</g>
<g id="yourHome">
	<polyline fill="none" stroke="#FFFFFF" stroke-width="4" stroke-linejoin="round" points="729.4,226.5 729.4,206.4 712.2,206.4 
		712.2,235.1 746.5,235.1 746.5,192.1 755.1,192.1 755.1,189.3 743.7,179.7 743.7,163.5 732.2,163.5 732.2,169.2 720.8,160.6 
		686.4,189.3 686.4,192.1 695,192.1 695,235.1 703.6,235.1 	"/>
	<text transform="matrix(1 0 0 1 789.7686 216.3129)" fill="#FFFFFF" font-family="'UniversLTStd-Light'" font-size="28">Your Home</text>
</g>
<g id="theGrid">
	<polyline id="icoBolt" fill="none" stroke="#FFFFFF" stroke-width="4" stroke-linejoin="round" points="249.4,181.2 246.4,155.6 
		267.1,155.6 273.6,207 252.5,207 258.5,240.1 222.5,191.9 251,191.9 	"/>
	<text transform="matrix(1 0 0 1 97.7686 212.3129)" fill="#FFFFFF" font-family="'UniversLTStd-Light'" font-size="28">The grid</text>
</g>
<g id="arrowGtoH">
	<g>
		<polyline id="XMLID_37_" fill="none" stroke="#FFFFFF" stroke-width="3" stroke-miterlimit="10" points="636.9,204.3 645,212.3 
			637,220.3 		"/>
	</g>
	<defs>
		<filter id="Adobe_OpacityMaskFilter" filterUnits="userSpaceOnUse" x="312.6" y="210.3" width="327.7" height="4">
			<feColorMatrix  type="matrix" values="1 0 0 0 0  0 1 0 0 0  0 0 1 0 0  0 0 0 1 0"/>
		</filter>
	</defs>
	<mask maskUnits="userSpaceOnUse" x="312.6" y="210.3" width="327.7" height="4" id="SVGID_1_">
		<g filter="url(#Adobe_OpacityMaskFilter)">
			<linearGradient id="SVGID_2_" gradientUnits="userSpaceOnUse" x1="309.8057" y1="212.0729" x2="636.8989" y2="212.0729">
				<stop  offset="0" style="stop-color:#000000"/>
				<stop  offset="0.2109" style="stop-color:#FFFFFF"/>
				<stop  offset="0.9452" style="stop-color:#FFFFFF"/>
				<stop  offset="1" style="stop-color:#000000"/>
			</linearGradient>
			<rect x="309.8" y="197.8" fill="url(#SVGID_2_)" width="327.1" height="28.5"/>
		</g>
	</mask>
	
		<line mask="url(#SVGID_1_)" fill="none" stroke="#FFFFFF" stroke-width="4" stroke-linecap="round" stroke-linejoin="round" stroke-miterlimit="10" stroke-dasharray="0,7.712" x1="314.6" y1="212.3" x2="638.3" y2="212.3"/>
</g>
<g id="arrowGtoS">
	<g>
		<polyline id="XMLID_9_" fill="none" stroke="#FFFFFF" stroke-width="3" stroke-miterlimit="10" points="400.7,43.8 408.8,51.8 
			400.9,59.8 		"/>
	</g>
	<defs>
		<filter id="Adobe_OpacityMaskFilter_1_" filterUnits="userSpaceOnUse" x="257.9" y="50.3" width="145.1" height="71">
			<feColorMatrix  type="matrix" values="1 0 0 0 0  0 1 0 0 0  0 0 1 0 0  0 0 0 1 0"/>
		</filter>
	</defs>
	<mask maskUnits="userSpaceOnUse" x="257.9" y="50.3" width="145.1" height="71" id="SVGID_3_">
		<g filter="url(#Adobe_OpacityMaskFilter_1_)">
			
				<linearGradient id="SVGID_4_" gradientUnits="userSpaceOnUse" x1="248.8789" y1="82.6259" x2="405.6216" y2="82.6259" gradientTransform="matrix(0.9475 -0.4655 0.4409 0.8975 -19.2533 160.797)">
				<stop  offset="0" style="stop-color:#000000"/>
				<stop  offset="0.2109" style="stop-color:#FFFFFF"/>
				<stop  offset="0.9452" style="stop-color:#FFFFFF"/>
				<stop  offset="1" style="stop-color:#000000"/>
			</linearGradient>
			<polygon fill="url(#SVGID_4_)" points="429.7,103.4 281.1,176.4 224.8,61.8 373.4,-11.1 			"/>
		</g>
	</mask>
	
		<path mask="url(#SVGID_3_)" fill="none" stroke="#FFFFFF" stroke-width="4" stroke-linecap="round" stroke-linejoin="round" stroke-miterlimit="10" stroke-dasharray="0,7.712" d="
		M259.9,119.3c0-37,29.9-67,66.9-67H401"/>
</g>
<g id="arrowStoH">
	<g>
		<polyline id="XMLID_31_" fill="none" stroke="#FFFFFF" stroke-width="3" stroke-miterlimit="10" points="728.9,119.7 720.9,127.8 
			712.8,119.9 		"/>
	</g>
	<defs>
		<filter id="Adobe_OpacityMaskFilter_2_" filterUnits="userSpaceOnUse" x="578" y="50.3" width="144.9" height="71">
			<feColorMatrix  type="matrix" values="1 0 0 0 0  0 1 0 0 0  0 0 1 0 0  0 0 0 1 0"/>
		</filter>
	</defs>
	<mask maskUnits="userSpaceOnUse" x="578" y="50.3" width="144.9" height="71" id="SVGID_5_">
		<g filter="url(#Adobe_OpacityMaskFilter_2_)">
			
				<linearGradient id="SVGID_6_" gradientUnits="userSpaceOnUse" x1="524.4592" y1="221.5551" x2="681.2019" y2="221.5551" gradientTransform="matrix(0.9642 0.4299 -0.4072 0.9133 161.2365 -380.8891)">
				<stop  offset="0" style="stop-color:#000000"/>
				<stop  offset="0.2109" style="stop-color:#FFFFFF"/>
				<stop  offset="0.9452" style="stop-color:#FFFFFF"/>
				<stop  offset="1" style="stop-color:#000000"/>
			</linearGradient>
			<polygon fill="url(#SVGID_6_)" points="701.8,172.6 550.7,105.2 602.7,-11.4 753.8,56 			"/>
		</g>
	</mask>
	
		<path mask="url(#SVGID_5_)" fill="none" stroke="#FFFFFF" stroke-width="4" stroke-linecap="round" stroke-linejoin="round" stroke-miterlimit="10" stroke-dasharray="0,7.712" d="
		M720.9,119.3c0-37-30.1-67-67.1-67H580"/>
</g>
</svg>
