<svg id="Layer_1" data-name="Layer 1" xmlns="http://www.w3.org/2000/svg" viewBox="0 0 145 36.47"><title>enelx_logo</title><rect x="131.45" y="12.62" width="15.46" height="4.33" transform="translate(29.13 102.51) rotate(-45)" fill="#461e7d"/><rect x="116.55" y="27.53" width="15.46" height="4.33" transform="translate(14.22 96.33) rotate(-45)" fill="#461e7d"/><rect x="137.02" y="21.96" width="4.33" height="15.46" transform="translate(18.59 106.87) rotate(-45)" fill="#461e7d"/><rect x="122.11" y="7.06" width="4.33" height="15.46" transform="translate(24.76 91.97) rotate(-45)" fill="#461e7d"/><path d="M89.66,20.36A14,14,0,1,0,87,31.26l-3.3-2.54a9.75,9.75,0,1,1,1.75-8.36H75.1v4.16H89.66Z" transform="translate(-1.18 -0.24)" fill="#461e7d"/><path d="M28.89,20.36a14,14,0,1,0-2.7,10.9l-3.31-2.54a9.75,9.75,0,1,1,1.76-8.36H14.32v4.16H28.89Z" transform="translate(-1.18 -0.24)" fill="#461e7d"/><path d="M98,27.32V.24H93.82V27.32c0,4.39,2.05,7,5.6,9.37l2.38-3.41c-2.43-1.66-3.81-3-3.81-6" transform="translate(-1.18 -0.24)" fill="#461e7d"/><path d="M58,20.35A11.51,11.51,0,0,0,46.48,8.83a13.12,13.12,0,0,0-9.27,3.8V10H33.05V24.52h4.16V21.08C37.84,17.74,40.8,13,46.47,13a7.35,7.35,0,0,1,7.41,7.36V36.29H58Z" transform="translate(-1.18 -0.24)" fill="#461e7d"/></svg>