<svg id="Layer_2" data-name="Layer 2" xmlns="http://www.w3.org/2000/svg" viewBox="0 0 508.62 368.19"><title>grid_diagram(1)</title><polyline points="177.59 47.15 177.59 33.15 165.69 33.15 165.69 53.15 189.59 53.15 189.59 23.25 195.59 23.25 195.59 21.25 187.59 14.55 187.59 3.25 179.59 3.25 179.59 7.25 171.69 1.25 147.69 21.25 147.69 23.25 153.69 23.25 153.69 53.15 159.69 53.15" fill="none" stroke="#706f6b" stroke-linejoin="round" stroke-width="2.5"/><text transform="translate(210.07 36.75) scale(1.02 1)" font-size="22" fill="#706f6b" font-family="UniversLTStd-Bold, Univers LT Std" font-weight="700" style="isolation:isolate">Building</text><g id="grid"><polyline points="18.59 257.75 16.79 242.05 29.39 242.05 33.39 273.65 20.49 273.65 24.19 293.95 2.09 264.35 19.59 264.35" fill="none" stroke="#706f6b" stroke-linejoin="round" stroke-width="2.5"/><g style="isolation:isolate"><text transform="translate(0 332.69) scale(1.02 1)" font-size="22" fill="#706f6b" font-family="UniversLTStd-Bold, Univers LT Std" font-weight="700" style="isolation:isolate">G</text><text transform="translate(17.46 332.69) scale(1.02 1)" font-size="22" fill="#706f6b" font-family="UniversLTStd-Bold, Univers LT Std" font-weight="700" letter-spacing="-0.04em" style="isolation:isolate">r</text><text transform="translate(25.29 332.69) scale(1.02 1)" font-size="22" fill="#706f6b" font-family="UniversLTStd-Bold, Univers LT Std" font-weight="700" style="isolation:isolate">id</text></g></g><g id="storage"><g id="storageOUT"><g style="isolation:isolate"><text transform="translate(378.94 332.69) scale(1.02 1)" font-size="22" fill="#20b767" font-family="UniversLTStd-Bold, Univers LT Std" font-weight="700" style="isolation:isolate">S</text><text transform="translate(393.9 332.69) scale(1.02 1)" font-size="22" fill="#20b767" font-family="UniversLTStd-Bold, Univers LT Std" font-weight="700" letter-spacing="-0.02em" style="isolation:isolate">t</text><text transform="translate(402.19 332.69) scale(1.02 1)" font-size="22" fill="#20b767" font-family="UniversLTStd-Bold, Univers LT Std" font-weight="700" style="isolation:isolate">o</text><text transform="translate(415.9 332.69) scale(1.02 1)" font-size="22" fill="#20b767" font-family="UniversLTStd-Bold, Univers LT Std" font-weight="700" letter-spacing="-0.02em" style="isolation:isolate">r</text><text transform="translate(424.18 332.69) scale(1.02 1)" font-size="22" fill="#20b767" font-family="UniversLTStd-Bold, Univers LT Std" font-weight="700" style="isolation:isolate">a</text><text transform="translate(436.65 332.69) scale(1.02 1)" font-size="22" fill="#20b767" font-family="UniversLTStd-Bold, Univers LT Std" font-weight="700" letter-spacing="-0.02em" style="isolation:isolate">g</text><text transform="translate(449.92 332.69) scale(1.02 1)" font-size="22" fill="#20b767" font-family="UniversLTStd-Bold, Univers LT Std" font-weight="700" style="isolation:isolate">e</text></g><text transform="translate(378.94 362.69) scale(1.02 1)" font-size="22" fill="#20b767" font-family="UniversLTStd, Univers LT Std" style="isolation:isolate">Energy OUT</text><path d="M426.59,281.55V294h-25.7V248.1h6.5v-3a4.08,4.08,0,0,1,3.84-4.29h6.83a2,2,0,0,1,2.1,1.89v.41" transform="translate(0)" fill="none" stroke="#706f6b" stroke-linejoin="round" stroke-width="2.5"/><polyline points="417.99 248.05 426.59 247.95 426.59 261.25" fill="none" stroke="#706f6b" stroke-linejoin="round" stroke-width="2.5"/><polyline points="434.19 264.35 441.19 271.45 434.19 278.45" fill="none" stroke="#706f6b" stroke-linejoin="round" stroke-width="2.5"/><line x1="441.19" y1="271.45" x2="412.69" y2="271.45" fill="none" stroke="#706f6b" stroke-linejoin="round" stroke-width="2.5"/></g><g id="storageOFF"><g style="isolation:isolate"><text transform="translate(378.94 332.69) scale(1.02 1)" font-size="22" fill="#c6c6c6" font-family="UniversLTStd-Bold, Univers LT Std" font-weight="700" style="isolation:isolate">S</text><text transform="translate(393.9 332.69) scale(1.02 1)" font-size="22" fill="#c6c6c6" font-family="UniversLTStd-Bold, Univers LT Std" font-weight="700" letter-spacing="-0.02em" style="isolation:isolate">t</text><text transform="translate(402.19 332.69) scale(1.02 1)" font-size="22" fill="#c6c6c6" font-family="UniversLTStd-Bold, Univers LT Std" font-weight="700" style="isolation:isolate">o</text><text transform="translate(415.9 332.69) scale(1.02 1)" font-size="22" fill="#c6c6c6" font-family="UniversLTStd-Bold, Univers LT Std" font-weight="700" letter-spacing="-0.02em" style="isolation:isolate">r</text><text transform="translate(424.18 332.69) scale(1.02 1)" font-size="22" fill="#c6c6c6" font-family="UniversLTStd-Bold, Univers LT Std" font-weight="700" style="isolation:isolate">a</text><text transform="translate(436.65 332.69) scale(1.02 1)" font-size="22" fill="#c6c6c6" font-family="UniversLTStd-Bold, Univers LT Std" font-weight="700" letter-spacing="-0.02em" style="isolation:isolate">g</text><text transform="translate(449.92 332.69) scale(1.02 1)" font-size="22" fill="#c6c6c6" font-family="UniversLTStd-Bold, Univers LT Std" font-weight="700" style="isolation:isolate">e</text></g><text transform="translate(378.94 362.69) scale(1.02 1)" font-size="22" fill="#c6c6c6" font-family="UniversLTStd, Univers LT Std" style="isolation:isolate">OFF</text><path d="M426.59,261.25v32.6h-25.7V248h6.5v-3a4.08,4.08,0,0,1,3.84-4.29h6.83a2,2,0,0,1,2.1,1.89v.4" transform="translate(0)" fill="none" stroke="#c6c6c6" stroke-linejoin="round" stroke-width="2.5"/><polyline points="417.99 248.05 426.59 247.95 426.59 261.25" fill="none" stroke="#c6c6c6" stroke-linejoin="round" stroke-width="2.5"/></g><g id="storageIN"><g style="isolation:isolate"><text transform="translate(378.94 332.69) scale(1.02 1)" font-size="22" fill="#20b767" font-family="UniversLTStd-Bold, Univers LT Std" font-weight="700" style="isolation:isolate">S</text><text transform="translate(393.9 332.69) scale(1.02 1)" font-size="22" fill="#20b767" font-family="UniversLTStd-Bold, Univers LT Std" font-weight="700" letter-spacing="-0.02em" style="isolation:isolate">t</text><text transform="translate(402.19 332.69) scale(1.02 1)" font-size="22" fill="#20b767" font-family="UniversLTStd-Bold, Univers LT Std" font-weight="700" style="isolation:isolate">o</text><text transform="translate(415.9 332.69) scale(1.02 1)" font-size="22" fill="#20b767" font-family="UniversLTStd-Bold, Univers LT Std" font-weight="700" letter-spacing="-0.02em" style="isolation:isolate">r</text><text transform="translate(424.18 332.69) scale(1.02 1)" font-size="22" fill="#20b767" font-family="UniversLTStd-Bold, Univers LT Std" font-weight="700" style="isolation:isolate">a</text><text transform="translate(436.65 332.69) scale(1.02 1)" font-size="22" fill="#20b767" font-family="UniversLTStd-Bold, Univers LT Std" font-weight="700" letter-spacing="-0.02em" style="isolation:isolate">g</text><text transform="translate(449.92 332.69) scale(1.02 1)" font-size="22" fill="#20b767" font-family="UniversLTStd-Bold, Univers LT Std" font-weight="700" style="isolation:isolate">e</text></g><text transform="translate(378.94 362.69) scale(1.02 1)" font-size="22" fill="#20b767" font-family="UniversLTStd, Univers LT Std" style="isolation:isolate">Energy IN</text><path d="M400.89,281.55V294h25.7V248.1h-6.53v-3a4.08,4.08,0,0,0-3.84-4.29h-6.86a2,2,0,0,0-2.1,1.89v.41" transform="translate(0)" fill="none" stroke="#706f6b" stroke-linejoin="round" stroke-width="2.5"/><polyline points="409.49 248.05 400.89 247.95 400.89 261.25" fill="none" stroke="#706f6b" stroke-linejoin="round" stroke-width="2.5"/><polyline points="407.79 278.45 414.89 271.45 407.79 264.35" fill="none" stroke="#706f6b" stroke-linejoin="round" stroke-width="2.5"/><line x1="386.29" y1="271.45" x2="414.89" y2="271.45" fill="none" stroke="#706f6b" stroke-linejoin="round" stroke-width="2.5"/></g></g><g id="copy_storage" data-name="copy storage"><g id="copy_storageOUT" data-name="copy storageOUT"><text transform="translate(113.78 86.69)" font-size="22.17" fill="#706f6b" font-family="UniversLTStd-Light, Univers LT Std" style="isolation:isolate"><tspan letter-spacing="-0.02em">T</tspan><tspan x="11.88" y="0">he Energy Storage is</tspan><tspan x="24.41" y="26.6">supplying energy</tspan><tspan x="13.53" y="53.21">to </tspan><tspan x="39.41" y="53.21" letter-spacing="-0.02em">y</tspan><tspan x="50.05" y="53.21" letter-spacing="0em">our house hold,</tspan><tspan x="-10.49" y="79.81">sh</tspan><tspan x="12.92" y="79.81" letter-spacing="-0.02em">a</tspan><tspan x="23.57" y="79.81">ving a peak demand.</tspan></text><text style="isolation:isolate"></text></g><g id="copy_storageOFF" data-name="copy storageOFF"><rect x="53.12" y="71.08" width="337.94" height="49.48" fill="none"/><text transform="translate(117.17 87.12)" font-size="22.17" fill="#706f6b" font-family="UniversLTStd-Light, Univers LT Std" style="isolation:isolate"><tspan letter-spacing="-0.02em">T</tspan><tspan x="11.88" y="0">he Energy Storage is</tspan><tspan x="11" y="26.6">cu</tspan><tspan x="34.41" y="26.6" letter-spacing="-0.01em">r</tspan><tspan x="41.57" y="26.6">rently not part of</tspan><tspan x="35.52" y="53.21">the simulation.</tspan></text><text style="isolation:isolate"></text></g><g id="warning_storageOFF" data-name="warning storageOFF"><rect x="66.66" y="224.15" width="310.75" height="52.51" fill="none"/><text transform="translate(111.66 235.14)" font-size="15.17" fill="#ff006e" font-family="UniversLTStd-Light, Univers LT Std" letter-spacing="-0.13em" style="isolation:isolate">Y</text><text transform="translate(111.45 235.14)" font-size="15.17" fill="#ff006e" font-family="UniversLTStd-Light, Univers LT Std" style="isolation:isolate"><tspan letter-spacing="-0.13em">Y</tspan><tspan x="7.22" y="0">our energy demand is too high!</tspan><tspan x="-8.87" y="18.2" letter-spacing="-0.01em">O</tspan><tspan x="2.71" y="18.2" letter-spacing="-0.02em">v</tspan><tspan x="9.99" y="18.2">erloads of this kind </tspan><tspan x="141.5" y="18.2" letter-spacing="-0.02em">ov</tspan><tspan x="156.91" y="18.2">er a whole</tspan><tspan x="22.14" y="36.41">blo</tspan><tspan x="42.38" y="36.41" letter-spacing="-0.05em">c</tspan><tspan x="49.2" y="36.41" letter-spacing="0em">kmight stress the grid</tspan><tspan x="23.97" y="54.61">to the point of a bla</tspan><tspan x="154.64" y="54.61" letter-spacing="-0.05em">c</tspan><tspan x="161.47" y="54.61" letter-spacing="-0.02em">k</tspan><tspan x="168.75" y="54.61">out.</tspan></text><path d="M157.21,203.38l-.7-.35,7.93-13.65a2.72,2.72,0,0,1,2.34-1.29,2.86,2.86,0,0,1,2.33,1.29L177.06,203a3,3,0,0,1,.35,1.28,2.64,2.64,0,0,1-2.59,2.69H159a2.71,2.71,0,0,1-2.68-2.69,2.31,2.31,0,0,1,.35-1.28l.58.35.7.35a1,1,0,0,0-.12.47,1,1,0,0,0,1,1.05H174.6a1,1,0,0,0,1.05-.95v-.1a.77.77,0,0,0-.12-.47l-7.94-13.65a1.6,1.6,0,0,0-.93-.59,1,1,0,0,0-.93.59l-7.94,13.65Z" transform="translate(0)" fill="#ff0f5d"/><text transform="translate(164.34 203.14)" font-size="12.73" fill="#ff0f5d" font-family="UniversLTStd-Bold, Univers LT Std" font-weight="700" style="isolation:isolate">!</text><text transform="translate(193.06 206.9) scale(1.02 1)" font-size="18.67" fill="#ff006e" font-family="UniversLTStd-Bold, Univers LT Std" font-weight="700" letter-spacing="-0.07em" style="isolation:isolate">W</text><text transform="translate(210.68 206.9) scale(1.02 1)" font-size="18.67" fill="#ff006e" font-family="UniversLTStd-Bold, Univers LT Std" font-weight="700" style="isolation:isolate">ARNING</text></g><g id="copy_storageIN" data-name="copy storageIN"><rect x="53.12" y="71.08" width="337.94" height="76.9" fill="none"/><text transform="translate(82.01 87.12)" font-size="22.17" fill="#706f6b" font-family="UniversLTStd-Light, Univers LT Std" style="isolation:isolate"><tspan letter-spacing="-0.04em">T</tspan><tspan x="11.44" y="0">he Storage is n</tspan><tspan x="159.29" y="0" letter-spacing="-0.02em">o</tspan><tspan x="171.17" y="0">w </tspan><tspan x="195.8" y="0" letter-spacing="-0.05em">c</tspan><tspan x="205.78" y="0" letter-spacing="0em">hargin</tspan><tspan x="266.15" y="0" letter-spacing="0.02em">g</tspan><tspan x="278.92" y="0">,</tspan><tspan x="-5.92" y="26.6">receiving energy from the grid</tspan><tspan x="19.78" y="53.21">while the demand is l</tspan><tspan x="230.46" y="53.21" letter-spacing="-0.02em">o</tspan><tspan x="242.34" y="53.21" letter-spacing="-0.08em">w</tspan><tspan x="259.14" y="53.21" letter-spacing="0em">.</tspan></text><text style="isolation:isolate"></text><text style="isolation:isolate"></text></g></g><path id="arrow_GtoB" d="M118.79,32H85c-38.8,0-60.2,28.4-60.2,67.2v123" transform="translate(0)" fill="none" stroke="#706f6b" stroke-linecap="round" stroke-linejoin="round" stroke-width="3.03" stroke-dasharray="0 11.38"/><path id="arrow_StoB" d="M324.06,32h28.6c38.8,0,60.2,21.4,60.2,60.2V218.8" transform="translate(0)" fill="none" stroke="#706f6b" stroke-linecap="round" stroke-linejoin="round" stroke-width="3.03" stroke-dasharray="0 11.38"/></svg>
