<svg id="Layer_2" data-name="Layer 2" xmlns="http://www.w3.org/2000/svg" viewBox="0 0 508.62 368.19"><title>grid_diagram(1)</title><polyline points="187.59 47.15 187.59 33.15 175.69 33.15 175.69 53.15 199.59 53.15 199.59 23.25 205.59 23.25 205.59 21.25 197.59 14.55 197.59 3.25 189.59 3.25 189.59 7.25 181.69 1.25 157.69 21.25 157.69 23.25 163.69 23.25 163.69 53.15 169.69 53.15" fill="none" stroke="#706f6b" stroke-linejoin="round" stroke-width="2.5"/><text transform="translate(220.07 36.75) scale(1.02 1)" font-size="22" fill="#706f6b" font-family="UniversLTStd-Bold, Univers LT Std" font-weight="700" style="isolation:isolate">Building</text><g id="grid"><polyline points="28.59 257.75 26.79 242.05 39.39 242.05 43.39 273.65 30.49 273.65 34.19 293.95 12.09 264.35 29.59 264.35" fill="none" stroke="#706f6b" stroke-linejoin="round" stroke-width="2.5"/><g style="isolation:isolate"><text transform="translate(9 332.69) scale(1.02 1)" font-size="22" fill="#706f6b" font-family="UniversLTStd-Bold, Univers LT Std" font-weight="700" style="isolation:isolate">G</text><text transform="translate(26.46 332.69) scale(1.02 1)" font-size="22" fill="#706f6b" font-family="UniversLTStd-Bold, Univers LT Std" font-weight="700" letter-spacing="-0.04em" style="isolation:isolate">r</text><text transform="translate(34.29 332.69) scale(1.02 1)" font-size="22" fill="#706f6b" font-family="UniversLTStd-Bold, Univers LT Std" font-weight="700" style="isolation:isolate">id</text></g></g><g id="storage"><g id="storageOUT"><g style="isolation:isolate"><text transform="translate(388.94 332.69) scale(1.02 1)" font-size="22" fill="#20b767" font-family="UniversLTStd-Bold, Univers LT Std" font-weight="700" style="isolation:isolate">S</text><text transform="translate(403.9 332.69) scale(1.02 1)" font-size="22" fill="#20b767" font-family="UniversLTStd-Bold, Univers LT Std" font-weight="700" letter-spacing="-0.02em" style="isolation:isolate">t</text><text transform="translate(412.19 332.69) scale(1.02 1)" font-size="22" fill="#20b767" font-family="UniversLTStd-Bold, Univers LT Std" font-weight="700" style="isolation:isolate">o</text><text transform="translate(425.89 332.69) scale(1.02 1)" font-size="22" fill="#20b767" font-family="UniversLTStd-Bold, Univers LT Std" font-weight="700" letter-spacing="-0.02em" style="isolation:isolate">r</text><text transform="translate(434.18 332.69) scale(1.02 1)" font-size="22" fill="#20b767" font-family="UniversLTStd-Bold, Univers LT Std" font-weight="700" style="isolation:isolate">a</text><text transform="translate(446.65 332.69) scale(1.02 1)" font-size="22" fill="#20b767" font-family="UniversLTStd-Bold, Univers LT Std" font-weight="700" letter-spacing="-0.02em" style="isolation:isolate">g</text><text transform="translate(459.92 332.69) scale(1.02 1)" font-size="22" fill="#20b767" font-family="UniversLTStd-Bold, Univers LT Std" font-weight="700" style="isolation:isolate">e</text></g><text transform="translate(366.94 362.69) scale(1.02 1)" font-size="22" fill="#20b767" font-family="UniversLTStd, Univers LT Std" style="isolation:isolate">Energy OUT</text><path d="M436.59,281.55V294h-25.7V248.1h6.5v-3a4.08,4.08,0,0,1,3.84-4.29h6.83a2,2,0,0,1,2.1,1.89v.41" fill="none" stroke="#706f6b" stroke-linejoin="round" stroke-width="2.5"/><polyline points="427.99 248.05 436.59 247.95 436.59 261.25" fill="none" stroke="#706f6b" stroke-linejoin="round" stroke-width="2.5"/><polyline points="444.19 264.35 451.19 271.45 444.19 278.45" fill="none" stroke="#706f6b" stroke-linejoin="round" stroke-width="2.5"/><line x1="451.19" y1="271.45" x2="422.69" y2="271.45" fill="none" stroke="#706f6b" stroke-linejoin="round" stroke-width="2.5"/></g><g id="storageOFF"><g style="isolation:isolate"><text transform="translate(382.94 332.69) scale(1.02 1)" font-size="22" fill="#c6c6c6" font-family="UniversLTStd-Bold, Univers LT Std" font-weight="700" style="isolation:isolate">S</text><text transform="translate(397.9 332.69) scale(1.02 1)" font-size="22" fill="#c6c6c6" font-family="UniversLTStd-Bold, Univers LT Std" font-weight="700" letter-spacing="-0.02em" style="isolation:isolate">t</text><text transform="translate(406.19 332.69) scale(1.02 1)" font-size="22" fill="#c6c6c6" font-family="UniversLTStd-Bold, Univers LT Std" font-weight="700" style="isolation:isolate">o</text><text transform="translate(419.89 332.69) scale(1.02 1)" font-size="22" fill="#c6c6c6" font-family="UniversLTStd-Bold, Univers LT Std" font-weight="700" letter-spacing="-0.02em" style="isolation:isolate">r</text><text transform="translate(428.18 332.69) scale(1.02 1)" font-size="22" fill="#c6c6c6" font-family="UniversLTStd-Bold, Univers LT Std" font-weight="700" style="isolation:isolate">a</text><text transform="translate(440.65 332.69) scale(1.02 1)" font-size="22" fill="#c6c6c6" font-family="UniversLTStd-Bold, Univers LT Std" font-weight="700" letter-spacing="-0.02em" style="isolation:isolate">g</text><text transform="translate(453.92 332.69) scale(1.02 1)" font-size="22" fill="#c6c6c6" font-family="UniversLTStd-Bold, Univers LT Std" font-weight="700" style="isolation:isolate">e</text></g><text transform="translate(401.94 362.69) scale(1.02 1)" font-size="22" fill="#c6c6c6" font-family="UniversLTStd, Univers LT Std" style="isolation:isolate">OFF</text><path d="M436.59,261.25v32.6h-25.7V248h6.5v-3a4.08,4.08,0,0,1,3.84-4.29h6.83a2,2,0,0,1,2.1,1.89v.4" fill="none" stroke="#c6c6c6" stroke-linejoin="round" stroke-width="2.5"/><polyline points="427.99 248.05 436.59 247.95 436.59 261.25" fill="none" stroke="#c6c6c6" stroke-linejoin="round" stroke-width="2.5"/></g><g id="storageIN"><g style="isolation:isolate"><text transform="translate(382.94 332.69) scale(1.02 1)" font-size="22" fill="#20b767" font-family="UniversLTStd-Bold, Univers LT Std" font-weight="700" style="isolation:isolate">S</text><text transform="translate(397.9 332.69) scale(1.02 1)" font-size="22" fill="#20b767" font-family="UniversLTStd-Bold, Univers LT Std" font-weight="700" letter-spacing="-0.02em" style="isolation:isolate">t</text><text transform="translate(406.19 332.69) scale(1.02 1)" font-size="22" fill="#20b767" font-family="UniversLTStd-Bold, Univers LT Std" font-weight="700" style="isolation:isolate">o</text><text transform="translate(419.89 332.69) scale(1.02 1)" font-size="22" fill="#20b767" font-family="UniversLTStd-Bold, Univers LT Std" font-weight="700" letter-spacing="-0.02em" style="isolation:isolate">r</text><text transform="translate(428.18 332.69) scale(1.02 1)" font-size="22" fill="#20b767" font-family="UniversLTStd-Bold, Univers LT Std" font-weight="700" style="isolation:isolate">a</text><text transform="translate(440.65 332.69) scale(1.02 1)" font-size="22" fill="#20b767" font-family="UniversLTStd-Bold, Univers LT Std" font-weight="700" letter-spacing="-0.02em" style="isolation:isolate">g</text><text transform="translate(453.92 332.69) scale(1.02 1)" font-size="22" fill="#20b767" font-family="UniversLTStd-Bold, Univers LT Std" font-weight="700" style="isolation:isolate">e</text></g><text transform="translate(373.94 362.69) scale(1.02 1)" font-size="22" fill="#20b767" font-family="UniversLTStd, Univers LT Std" style="isolation:isolate">Energy IN</text><path d="M410.89,281.55V294h25.7V248.1h-6.53v-3a4.08,4.08,0,0,0-3.84-4.29h-6.86a2,2,0,0,0-2.1,1.89v.41" fill="none" stroke="#706f6b" stroke-linejoin="round" stroke-width="2.5"/><polyline points="419.49 248.05 410.89 247.95 410.89 261.25" fill="none" stroke="#706f6b" stroke-linejoin="round" stroke-width="2.5"/><polyline points="417.79 278.45 424.89 271.45 417.79 264.35" fill="none" stroke="#706f6b" stroke-linejoin="round" stroke-width="2.5"/><line x1="396.29" y1="271.45" x2="424.89" y2="271.45" fill="none" stroke="#706f6b" stroke-linejoin="round" stroke-width="2.5"/></g></g><g id="copy_storage" data-name="copy storage"><g id="copy_storageOUT" data-name="copy storageOUT"><rect x="63.12" y="81.08" width="337.94" height="76.9" fill="none"/><text transform="translate(68.77 97.12)" font-size="22.17" fill="#706f6b" font-family="UniversLTStd-Light, Univers LT Std" letter-spacing="-0.02em" style="isolation:isolate">T</text><text transform="translate(80.65 97.12)" font-size="22.17" fill="#706f6b" font-family="UniversLTStd-Light, Univers LT Std" style="isolation:isolate">he Energy Storage is supplying</text><text transform="translate(99.35 123.73)" font-size="22.17" fill="#706f6b" font-family="UniversLTStd-Light, Univers LT Std" style="isolation:isolate">energy to</text><text transform="translate(199.16 123.73)" font-size="22.17" fill="#706f6b" font-family="UniversLTStd-Light, Univers LT Std" letter-spacing="-0.02em" style="isolation:isolate">y</text><text transform="translate(209.81 123.73)" font-size="22.17" fill="#706f6b" font-family="UniversLTStd-Light, Univers LT Std" style="isolation:isolate">our household,</text><text transform="translate(109.73 150.33)" font-size="22.17" fill="#706f6b" font-family="UniversLTStd-Light, Univers LT Std" style="isolation:isolate">sh</text><text transform="translate(133.14 150.33)" font-size="22.17" fill="#706f6b" font-family="UniversLTStd-Light, Univers LT Std" letter-spacing="-0.02em" style="isolation:isolate">a</text><text transform="translate(143.78 150.33)" font-size="22.17" fill="#706f6b" font-family="UniversLTStd-Light, Univers LT Std" style="isolation:isolate">ving a peak demand.</text></g><g id="copy_storageOFF" data-name="copy storageOFF"><rect x="63.12" y="71.08" width="337.94" height="49.48" fill="none"/><text transform="translate(126.17 97.12)" font-size="22.17" fill="#706f6b" font-family="UniversLTStd-Light, Univers LT Std" style="isolation:isolate"><tspan letter-spacing="-0.02em">T</tspan><tspan x="11.88" y="0">he Energy Storage is</tspan><tspan x="-21.77" y="26.6">not part of the simulation. </tspan></text></g><g id="warning_storageOFF" data-name="warning storageOFF"><text transform="translate(128.59 208.14)" font-size="18" fill="#ff006e" font-family="UniversLTStd-Light, Univers LT Std" style="isolation:isolate">Blo<tspan x="26.01" y="0" letter-spacing="-0.05em">c</tspan><tspan x="34.11" y="0">k-wide </tspan><tspan x="92.12" y="0" letter-spacing="-0.02em">ov</tspan><tspan x="110.41" y="0" letter-spacing="0em">erloads of this</tspan><tspan x="9.69" y="24">kind might stress the grid</tspan><tspan x="26.32" y="48">and cause a bla</tspan><tspan x="149.36" y="48" letter-spacing="-0.05em">c</tspan><tspan x="157.46" y="48" letter-spacing="-0.02em">k</tspan><tspan x="166.1" y="48">out.</tspan></text><path d="M165.21,174.38l-.7-.35,7.93-13.65a2.72,2.72,0,0,1,2.34-1.29,2.86,2.86,0,0,1,2.33,1.29L185.06,174a3,3,0,0,1,.35,1.28,2.64,2.64,0,0,1-2.59,2.69H167a2.71,2.71,0,0,1-2.68-2.69,2.31,2.31,0,0,1,.35-1.28l.58.35.7.35a1,1,0,0,0-.12.47,1,1,0,0,0,1,1.05H182.6a1,1,0,0,0,1.05-.95v-.1a.77.77,0,0,0-.12-.47l-7.94-13.65a1.6,1.6,0,0,0-.93-.59,1,1,0,0,0-.93.59l-7.94,13.65Z" fill="#ff0f5d"/><text transform="translate(172.34 174.14)" font-size="12.73" fill="#ff0f5d" font-family="UniversLTStd-Bold, Univers LT Std" font-weight="700" style="isolation:isolate">!</text><text transform="translate(197.68 176.9) scale(1.02 1)" font-size="20" fill="#ff006e" font-family="UniversLTStd-Bold, Univers LT Std" font-weight="700" style="isolation:isolate"><tspan letter-spacing="-0.08em">W</tspan><tspan x="18.5" y="0">ARNING</tspan></text></g><g id="copy_storageIN" data-name="copy storageIN"><rect x="63.12" y="81.08" width="337.94" height="76.9" fill="none"/><text transform="translate(88.55 97.12)" font-size="22.17" fill="#706f6b" font-family="UniversLTStd-Light, Univers LT Std" letter-spacing="-0.02em" style="isolation:isolate">T</text><text transform="translate(100.43 97.12)" font-size="22.17" fill="#706f6b" font-family="UniversLTStd-Light, Univers LT Std" style="isolation:isolate">he Storage is n</text><text transform="translate(248.29 97.12)" font-size="22.17" fill="#706f6b" font-family="UniversLTStd-Light, Univers LT Std" letter-spacing="-0.02em" style="isolation:isolate">o</text><text transform="translate(260.18 97.12)" font-size="22.17" fill="#706f6b" font-family="UniversLTStd-Light, Univers LT Std" style="isolation:isolate">w</text><text transform="translate(284.82 97.12)" font-size="22.17" fill="#706f6b" font-family="UniversLTStd-Light, Univers LT Std" letter-spacing="-0.05em" style="isolation:isolate">c</text><text transform="translate(294.79 97.12)" font-size="22.17" fill="#706f6b" font-family="UniversLTStd-Light, Univers LT Std" style="isolation:isolate">hargin</text><text transform="translate(355.16 97.12)" font-size="22.17" fill="#706f6b" font-family="UniversLTStd-Light, Univers LT Std" letter-spacing="0.02em" style="isolation:isolate">g</text><g style="isolation:isolate"><text transform="translate(367.94 97.12)" font-size="22.17" fill="#706f6b" font-family="UniversLTStd-Light, Univers LT Std" style="isolation:isolate"><tspan xml:space="preserve">,  </tspan></text></g><text transform="translate(80.97 123.73)" font-size="22.17" fill="#706f6b" font-family="UniversLTStd-Light, Univers LT Std" style="isolation:isolate">receiving energy</text><text transform="translate(249.82 123.73)" font-size="22.17" fill="#706f6b" font-family="UniversLTStd-Light, Univers LT Std" style="isolation:isolate">from the grid</text><text transform="translate(103.14 150.33)" font-size="22.17" fill="#706f6b" font-family="UniversLTStd-Light, Univers LT Std" style="isolation:isolate">while the demand is l</text><text transform="translate(313.84 150.33)" font-size="22.17" fill="#706f6b" font-family="UniversLTStd-Light, Univers LT Std" letter-spacing="-0.02em" style="isolation:isolate">o</text><text transform="translate(325.72 150.33)" font-size="22.17" fill="#706f6b" font-family="UniversLTStd-Light, Univers LT Std" letter-spacing="-0.07em" style="isolation:isolate">w</text><text transform="translate(342.52 150.33)" font-size="22.17" fill="#706f6b" font-family="UniversLTStd-Light, Univers LT Std" style="isolation:isolate">.</text></g></g><path id="arrow1" d="M128.79,32H95c-38.8,0-60.2,28.4-60.2,67.2v123" fill="none" stroke="#706f6b" stroke-linecap="round" stroke-linejoin="round" stroke-width="3.03" stroke-dasharray="0 11.38"/><path id="arrow2" d="M334.06,32h28.6c38.8,0,60.2,21.4,60.2,60.2V218.8" fill="none" stroke="#706f6b" stroke-linecap="round" stroke-linejoin="round" stroke-width="3.03" stroke-dasharray="0 11.38"/></svg>