<svg id="Layer_2" data-name="Layer 2" xmlns="http://www.w3.org/2000/svg" viewBox="0 0 486.61 367.11"><title>grid_diagram</title><polyline points="177.74 47.15 177.74 33.15 165.84 33.15 165.84 53.15 189.74 53.15 189.74 23.25 195.74 23.25 195.74 21.25 187.74 14.55 187.74 3.25 179.74 3.25 179.74 7.25 171.84 1.25 147.84 21.25 147.84 23.25 153.84 23.25 153.84 53.15 159.84 53.15" fill="none" stroke="#706f6b" stroke-linejoin="round" stroke-width="2.5"/><g style="isolation:isolate"><path d="M221.6,20.86h6.06a8.12,8.12,0,0,1,4,.75A4,4,0,0,1,233.47,25a3.14,3.14,0,0,1-.94,2.38,4.41,4.41,0,0,1-1.84,1.07v.05a3.82,3.82,0,0,1,3.43,3.87,4.08,4.08,0,0,1-2.38,3.74,10.53,10.53,0,0,1-4.08.64H221.6Zm3.32,6.47h2.42c1,0,2.79,0,2.79-2s-1.71-2-2.85-2h-2.36Zm0,6.87h2.36c1.59,0,3.39,0,3.39-2.14s-2.09-2.26-3.75-2.26h-2Z" transform="translate(-9.85)" fill="#706f6b"/><path d="M239.75,25.64v6.62c0,1,0,2.44,1.77,2.44,2.14,0,2.14-1.56,2.14-3.45V25.64h3.41V33c0,2.39.07,2.68.07,3a7.72,7.72,0,0,0,.09.81H244l-.11-1.47A3.74,3.74,0,0,1,240.54,37a4.34,4.34,0,0,1-3.41-1.5,5,5,0,0,1-.75-3V25.64Z" transform="translate(-9.85)" fill="#706f6b"/><path d="M250.09,20.86h3.55V23.7h-3.55Zm.12,4.76h3.32V36.75h-3.32Z" transform="translate(-9.85)" fill="#706f6b"/><path d="M256.45,20.84h3.32V36.75h-3.32Z" transform="translate(-9.85)" fill="#706f6b"/><path d="M270.18,20.86h3.34V35c0,.66.05,1.38.09,1.8h-3.36l-.09-1.61A3,3,0,0,1,269,36.4a4,4,0,0,1-2.2.57c-3,0-4.82-2-4.82-5.52,0-3.68,2-6,5-6A3.66,3.66,0,0,1,270.18,27Zm-2.54,14a2.39,2.39,0,0,0,2.11-1.26,5.69,5.69,0,0,0,.54-2.61c0-2.18-1-3.37-2.47-3.37-2.22,0-2.47,2.62-2.47,3.74C265.35,33.21,266,34.86,267.64,34.86Z" transform="translate(-9.85)" fill="#706f6b"/><path d="M276.28,20.86h3.55V23.7h-3.55Zm.11,4.76h3.33V36.75h-3.33Z" transform="translate(-9.85)" fill="#706f6b"/><path d="M282.68,27.62c0-.05,0-1.26-.07-2h3.19l.09,1.68a3.92,3.92,0,0,1,3.68-1.94A3.46,3.46,0,0,1,293,27.42a9.2,9.2,0,0,1,.31,3.32v6H290V29.84a2.6,2.6,0,0,0-.18-1.21,1.74,1.74,0,0,0-1.62-.95,2.07,2.07,0,0,0-1.72.86,3,3,0,0,0-.41,1.7v6.51h-3.34Z" transform="translate(-9.85)" fill="#706f6b"/><path d="M307.1,25.68a24.29,24.29,0,0,0-.16,2.75v8.21c0,4.09-3.48,4.49-5.66,4.49-1.61,0-4.78-.2-5-3.57h3.19c0,.33.2,1.54,2,1.54a1.94,1.94,0,0,0,2.07-1.45,12,12,0,0,0,.15-2.64,3.57,3.57,0,0,1-3.05,1.52c-3.25,0-4.78-2.77-4.78-5.46s1.59-5.5,4.85-5.5a3.43,3.43,0,0,1,3.16,1.59l.12-1.48Zm-5.71,8.63c2.34,0,2.34-2.69,2.34-3.17,0-1.26-.25-3.39-2.27-3.39-1.26,0-2.29.95-2.29,3.32C299.17,31.62,299.17,34.31,301.39,34.31Z" transform="translate(-9.85)" fill="#706f6b"/></g><g id="grid"><polyline points="18.74 257.75 16.94 242.05 29.54 242.05 33.54 273.65 20.64 273.65 24.34 293.95 2.24 264.35 19.74 264.35" fill="none" stroke="#706f6b" stroke-linejoin="round" stroke-width="2.5"/><g style="isolation:isolate"><path d="M21.44,321.67a3.09,3.09,0,0,0-.45-1.61,3.14,3.14,0,0,0-2.72-1.23c-3.95,0-4.74,3.61-4.74,6.05a6.34,6.34,0,0,0,1.35,4.27,4.69,4.69,0,0,0,3.82,1.36,8.06,8.06,0,0,0,2.65-.31v-3.34H18.2v-2.64h6.62v7.94a17,17,0,0,1-5.92.88c-3.71,0-5.61-.88-6.89-2.11A8.16,8.16,0,0,1,9.85,325c0-5.63,3.59-8.65,8.51-8.65a7.39,7.39,0,0,1,5.52,2,4.77,4.77,0,0,1,1.17,3.33Z" transform="translate(-9.85)" fill="#706f6b"/></g><g style="isolation:isolate"><path d="M27.92,324.31c0-.53-.09-2.14-.16-2.77h3.12l.07,2.13c.43-.95,1.17-2.29,3.86-2.16v2.93c-3.37-.31-3.57,1.39-3.57,2.77v5.48H27.92Z" transform="translate(-9.85)" fill="#706f6b"/></g><g style="isolation:isolate"><path d="M35.64,316.8h3.54v2.84H35.64Zm.11,4.76h3.32v11.13H35.75Z" transform="translate(-9.85)" fill="#706f6b"/><path d="M49.48,316.8h3.35v14.09a17.33,17.33,0,0,0,.09,1.8H49.55l-.09-1.61a3,3,0,0,1-1.14,1.26,4,4,0,0,1-2.2.57c-3,0-4.83-2.05-4.83-5.52,0-3.68,2-6,5-6a3.65,3.65,0,0,1,3.18,1.52ZM47,330.8a2.4,2.4,0,0,0,2.11-1.26,5.83,5.83,0,0,0,.54-2.61c0-2.18-1-3.37-2.47-3.37-2.22,0-2.47,2.62-2.47,3.74C44.66,329.15,45.29,330.8,47,330.8Z" transform="translate(-9.85)" fill="#706f6b"/></g></g><g id="storage"><g id="storageOUT"><g style="isolation:isolate"><path d="M393.27,327.61a2.62,2.62,0,0,0,2.94,3c1.89,0,3.08-.88,3.08-2.22s-1-1.65-3.08-2.13c-3.86-.95-6-2.07-6-4.82s1.91-4.93,6.42-4.93a6.12,6.12,0,0,1,4.89,1.87,4.48,4.48,0,0,1,.93,2.95h-3.35a2.38,2.38,0,0,0-2.63-2.42c-1.61,0-2.67.85-2.67,2.15,0,1.48,1.19,1.74,3.53,2.31,2.8.66,5.56,1.41,5.56,4.51,0,2.86-2.42,5.17-6.91,5.17-6.22,0-6.26-3.91-6.28-5.45Z" transform="translate(-9.85)" fill="#20b767"/></g><g style="isolation:isolate"><path d="M412,332.54a10.84,10.84,0,0,1-2.59.35c-3.34,0-3.34-2.07-3.34-3v-6.1h-2.18v-2.16h2.18v-2.17l3.3-1.19v3.36h2.69v2.16H409.4v5c0,1,0,1.65,1.5,1.65a7.69,7.69,0,0,0,1.13-.07Z" transform="translate(-9.85)" fill="#20b767"/></g><g style="isolation:isolate"><path d="M419,321.31c4.11,0,5.88,2.73,5.88,5.84s-1.84,5.94-5.95,5.94c-3.23,0-5.79-2-5.79-5.86C413.13,324.55,414.52,321.31,419,321.31Zm.05,9.51c1.46,0,2.44-.86,2.44-3.81,0-1.47-.29-3.52-2.49-3.52-2.42,0-2.45,2.75-2.45,3.77C416.54,329.74,417.4,330.82,419,330.82Z" transform="translate(-9.85)" fill="#20b767"/></g><g style="isolation:isolate"><path d="M427.35,324.31c0-.53-.09-2.14-.16-2.77h3.12l.07,2.13c.43-.95,1.17-2.29,3.86-2.16v2.93c-3.37-.31-3.57,1.39-3.57,2.77v5.48h-3.32Z" transform="translate(-9.85)" fill="#20b767"/></g><g style="isolation:isolate"><path d="M442.44,332.69a8.9,8.9,0,0,1-.11-1.52,4.45,4.45,0,0,1-6.22.9,3.42,3.42,0,0,1-1-2.44,3.69,3.69,0,0,1,2.4-3.45,12,12,0,0,1,4.49-.62,4.35,4.35,0,0,0-.15-1.47,1.55,1.55,0,0,0-1.48-.93,1.51,1.51,0,0,0-1.26.62,1.62,1.62,0,0,0-.25,1h-3.25a3.08,3.08,0,0,1,1.28-2.62,6,6,0,0,1,3.43-.9,5.5,5.5,0,0,1,4,1.43,4.35,4.35,0,0,1,.79,2.73l0,4.46a13.28,13.28,0,0,0,.27,2.82Zm-4.09-3.43a1.55,1.55,0,0,0,1.62,1.58,1.85,1.85,0,0,0,1.41-.64,4,4,0,0,0,.63-2.75C439.88,327.28,438.35,327.94,438.35,329.26Z" transform="translate(-9.85)" fill="#20b767"/></g><g style="isolation:isolate"><path d="M458.86,321.62a24.29,24.29,0,0,0-.16,2.75v8.21c0,4.09-3.48,4.49-5.65,4.49-1.62,0-4.78-.2-5-3.57h3.19c.05.33.2,1.54,2,1.54a1.93,1.93,0,0,0,2.06-1.45,11.07,11.07,0,0,0,.16-2.64,3.59,3.59,0,0,1-3.05,1.52c-3.26,0-4.78-2.77-4.78-5.46s1.59-5.5,4.84-5.5a3.45,3.45,0,0,1,3.17,1.59l.11-1.48Zm-5.7,8.63c2.33,0,2.33-2.69,2.33-3.17,0-1.25-.24-3.39-2.26-3.39-1.26,0-2.29.95-2.29,3.32C450.94,327.56,450.94,330.25,453.16,330.25Z" transform="translate(-9.85)" fill="#20b767"/></g><g style="isolation:isolate"><path d="M464.05,328c0,.73,0,3,2.31,3a1.86,1.86,0,0,0,2-1.54h3a3.72,3.72,0,0,1-1.08,2.42,5.57,5.57,0,0,1-4,1.3,5.72,5.72,0,0,1-4-1.39,6,6,0,0,1-1.46-4.33,6,6,0,0,1,2.36-5.26,5.76,5.76,0,0,1,3.19-.92,4.89,4.89,0,0,1,4.58,2.68,8.19,8.19,0,0,1,.67,4.07Zm4.22-2c0-.5,0-2.48-2-2.48-1.45,0-2.06,1.19-2.13,2.48Z" transform="translate(-9.85)" fill="#20b767"/></g><g style="isolation:isolate"><path d="M368.65,346.8h10.16v1.87h-7.92v4.95h7.54v1.85h-7.54v5.28H379v1.94H368.65Z" transform="translate(-9.85)" fill="#20b767"/><path d="M382.69,352.92l0-1.28h2.11l0,1.79a3.69,3.69,0,0,1,3.62-2c1,0,4.08.38,4.08,3.77v7.5h-2.15v-7a2.45,2.45,0,0,0-.61-1.89,2.91,2.91,0,0,0-2-.75,3,3,0,0,0-2.94,3.3v6.36h-2.11Z" transform="translate(-9.85)" fill="#20b767"/><path d="M397.62,357.54c-.05,2.29.92,4,3.23,4a2.43,2.43,0,0,0,2.65-2.28h2.11a3.72,3.72,0,0,1-1,2.31,4.9,4.9,0,0,1-3.88,1.47c-3.55,0-5.23-2.16-5.23-5.65,0-2.18.45-4,2.22-5.2a5.48,5.48,0,0,1,3.08-.81c5.05,0,4.93,4.38,4.89,6.18Zm5.94-1.45c0-1.06-.18-3.26-2.78-3.26a3,3,0,0,0-3.07,3.26Z" transform="translate(-9.85)" fill="#20b767"/><path d="M408.93,353.89c0-.75-.05-1.52-.12-2.25H411l0,2.14a3,3,0,0,1,2.69-2.18,6.82,6.82,0,0,1,1.46,0v2a1.83,1.83,0,0,0-.4-.09,5.35,5.35,0,0,0-.61,0c-2.49,0-3.07,1.45-3.07,3.35v5.87h-2.13Z" transform="translate(-9.85)" fill="#20b767"/><path d="M419.56,363.55c.09,1.23.63,2.16,2.63,2.16,2.94,0,3-2.1,3-5.09-.89,1.83-3,1.87-3.7,1.87a4.41,4.41,0,0,1-3.46-1.36,6.14,6.14,0,0,1-1.28-4.07c0-3.74,2.25-5.57,5-5.57a4,4,0,0,1,3.55,1.67l0-1.52h2l0,2,0,6.91c0,2.66-.09,3.74-.53,4.57-.95,1.76-3.15,2-4.7,2-4.51,0-4.64-2.07-4.73-3.56Zm4.92-3.7c.45-.57.76-1.16.76-3.17a3.63,3.63,0,0,0-.87-2.75,3.4,3.4,0,0,0-2.43-1c-2.67,0-3,2.65-3,4.05,0,1.7.52,3.94,3.1,3.94A2.87,2.87,0,0,0,424.48,359.85Z" transform="translate(-9.85)" fill="#20b767"/><path d="M436.33,362.76l-1.62,4.11h-2.18l1.71-4.22-4.69-11h2.38l3.52,8.72,3.59-8.72h2.29Z" transform="translate(-9.85)" fill="#20b767"/><path d="M451.41,348.52a7.29,7.29,0,0,1,5.4-2.13c4.49,0,7.32,2.81,7.32,8.2,0,4.23-1.73,8.47-7.5,8.47-5.52,0-7.31-3.85-7.31-8.2A9.16,9.16,0,0,1,451.41,348.52Zm1.7,11.22a5.17,5.17,0,0,0,7.18,0c1.33-1.58,1.46-4.09,1.46-5.17,0-3.61-1.21-6.34-4.91-6.34-4.11,0-5.17,3.24-5.17,6.5A7.91,7.91,0,0,0,453.11,359.74Z" transform="translate(-9.85)" fill="#20b767"/><path d="M469.78,346.8v9.84a4.44,4.44,0,0,0,.72,2.86,4.49,4.49,0,0,0,3.71,1.56c4.37,0,4.37-3.36,4.37-4.51V346.8h2.18v9.8a6.33,6.33,0,0,1-1.33,4.22,6.69,6.69,0,0,1-5.22,2.2c-1.53,0-4.22-.42-5.73-2.53-.49-.7-.94-1.63-.94-4V346.8Z" transform="translate(-9.85)" fill="#20b767"/><path d="M488.81,362.69v-14h-5.43V346.8h13.09v1.87H491v14Z" transform="translate(-9.85)" fill="#20b767"/></g><path d="M436.59,281.55V294h-25.7V248.1h6.5v-3a4.08,4.08,0,0,1,3.84-4.29h6.83a2,2,0,0,1,2.1,1.89v.41" transform="translate(-9.85)" fill="none" stroke="#706f6b" stroke-linejoin="round" stroke-width="2.5"/><polyline points="418.14 248.05 426.74 247.95 426.74 261.25" fill="none" stroke="#706f6b" stroke-linejoin="round" stroke-width="2.5"/><polyline points="434.34 264.35 441.34 271.45 434.34 278.45" fill="none" stroke="#706f6b" stroke-linejoin="round" stroke-width="2.5"/><line x1="441.34" y1="271.45" x2="412.84" y2="271.45" fill="none" stroke="#706f6b" stroke-linejoin="round" stroke-width="2.5"/></g><g id="storageOFF"><g style="isolation:isolate"><path d="M387.27,327.61a2.62,2.62,0,0,0,2.94,3c1.89,0,3.08-.88,3.08-2.22s-1-1.65-3.08-2.13c-3.86-.95-6-2.07-6-4.82s1.91-4.93,6.42-4.93a6.12,6.12,0,0,1,4.89,1.87,4.48,4.48,0,0,1,.93,2.95h-3.35a2.38,2.38,0,0,0-2.63-2.42c-1.61,0-2.67.85-2.67,2.15,0,1.48,1.19,1.74,3.53,2.31,2.8.66,5.56,1.41,5.56,4.51,0,2.86-2.42,5.17-6.91,5.17-6.22,0-6.26-3.91-6.28-5.45Z" transform="translate(-9.85)" fill="#c6c6c6"/></g><g style="isolation:isolate"><path d="M406,332.54a10.84,10.84,0,0,1-2.59.35c-3.34,0-3.34-2.07-3.34-3v-6.1h-2.18v-2.16h2.18v-2.17l3.3-1.19v3.36h2.69v2.16H403.4v5c0,1,0,1.65,1.5,1.65a7.69,7.69,0,0,0,1.13-.07Z" transform="translate(-9.85)" fill="#c6c6c6"/></g><g style="isolation:isolate"><path d="M413,321.31c4.11,0,5.88,2.73,5.88,5.84s-1.84,5.94-5.95,5.94c-3.23,0-5.79-2-5.79-5.86C407.13,324.55,408.52,321.31,413,321.31Zm.05,9.51c1.46,0,2.44-.86,2.44-3.81,0-1.47-.29-3.52-2.49-3.52-2.42,0-2.45,2.75-2.45,3.77C410.54,329.74,411.4,330.82,413,330.82Z" transform="translate(-9.85)" fill="#c6c6c6"/></g><g style="isolation:isolate"><path d="M421.35,324.31c0-.53-.09-2.14-.16-2.77h3.12l.07,2.13c.43-.95,1.17-2.29,3.86-2.16v2.93c-3.37-.31-3.57,1.39-3.57,2.77v5.48h-3.32Z" transform="translate(-9.85)" fill="#c6c6c6"/></g><g style="isolation:isolate"><path d="M436.44,332.69a8.9,8.9,0,0,1-.11-1.52,4.45,4.45,0,0,1-6.22.9,3.42,3.42,0,0,1-1-2.44,3.69,3.69,0,0,1,2.4-3.45,12,12,0,0,1,4.49-.62,4.35,4.35,0,0,0-.15-1.47,1.55,1.55,0,0,0-1.48-.93,1.51,1.51,0,0,0-1.26.62,1.62,1.62,0,0,0-.25,1h-3.25a3.08,3.08,0,0,1,1.28-2.62,6,6,0,0,1,3.43-.9,5.5,5.5,0,0,1,4,1.43,4.35,4.35,0,0,1,.79,2.73l0,4.46a13.28,13.28,0,0,0,.27,2.82Zm-4.09-3.43a1.55,1.55,0,0,0,1.62,1.58,1.85,1.85,0,0,0,1.41-.64,4,4,0,0,0,.63-2.75C433.88,327.28,432.35,327.94,432.35,329.26Z" transform="translate(-9.85)" fill="#c6c6c6"/></g><g style="isolation:isolate"><path d="M452.86,321.62a24.29,24.29,0,0,0-.16,2.75v8.21c0,4.09-3.48,4.49-5.65,4.49-1.62,0-4.78-.2-5-3.57h3.19c.05.33.2,1.54,2,1.54a1.93,1.93,0,0,0,2.06-1.45,11.07,11.07,0,0,0,.16-2.64,3.59,3.59,0,0,1-3.05,1.52c-3.26,0-4.78-2.77-4.78-5.46s1.59-5.5,4.84-5.5a3.45,3.45,0,0,1,3.17,1.59l.11-1.48Zm-5.7,8.63c2.33,0,2.33-2.69,2.33-3.17,0-1.25-.24-3.39-2.26-3.39-1.26,0-2.29.95-2.29,3.32C444.94,327.56,444.94,330.25,447.16,330.25Z" transform="translate(-9.85)" fill="#c6c6c6"/></g><g style="isolation:isolate"><path d="M458.05,328c0,.73,0,3,2.31,3a1.86,1.86,0,0,0,2-1.54h3a3.72,3.72,0,0,1-1.08,2.42,5.57,5.57,0,0,1-4,1.3,5.72,5.72,0,0,1-4-1.39,6,6,0,0,1-1.46-4.33,6,6,0,0,1,2.36-5.26,5.76,5.76,0,0,1,3.19-.92,4.89,4.89,0,0,1,4.58,2.68,8.19,8.19,0,0,1,.67,4.07Zm4.22-2c0-.5,0-2.48-2-2.48-1.45,0-2.06,1.19-2.13,2.48Z" transform="translate(-9.85)" fill="#c6c6c6"/></g><g style="isolation:isolate"><path d="M405.35,348.52a7.32,7.32,0,0,1,5.41-2.13c4.49,0,7.32,2.81,7.32,8.2,0,4.23-1.73,8.47-7.5,8.47-5.52,0-7.32-3.85-7.32-8.2A9.21,9.21,0,0,1,405.35,348.52Zm1.71,11.22a5.17,5.17,0,0,0,7.18,0c1.33-1.58,1.46-4.09,1.46-5.17,0-3.61-1.21-6.34-4.92-6.34-4.1,0-5.16,3.24-5.16,6.5A7.91,7.91,0,0,0,407.06,359.74Z" transform="translate(-9.85)" fill="#c6c6c6"/><path d="M421.53,346.8h9.65v1.87h-7.36v4.95h6.94v1.85h-6.94v7.22h-2.29Z" transform="translate(-9.85)" fill="#c6c6c6"/><path d="M434,346.8h9.65v1.87H436.3v4.95h6.93v1.85H436.3v7.22H434Z" transform="translate(-9.85)" fill="#c6c6c6"/></g><path d="M436.59,261.25v32.6h-25.7V248h6.5v-3a4.08,4.08,0,0,1,3.84-4.29h6.83a2,2,0,0,1,2.1,1.89v.4" transform="translate(-9.85)" fill="none" stroke="#c6c6c6" stroke-linejoin="round" stroke-width="2.5"/><polyline points="418.14 248.05 426.74 247.95 426.74 261.25" fill="none" stroke="#c6c6c6" stroke-linejoin="round" stroke-width="2.5"/></g><g id="storageIN"><g style="isolation:isolate"><path d="M387.27,327.61a2.62,2.62,0,0,0,2.94,3c1.89,0,3.08-.88,3.08-2.22s-1-1.65-3.08-2.13c-3.86-.95-6-2.07-6-4.82s1.91-4.93,6.42-4.93a6.12,6.12,0,0,1,4.89,1.87,4.48,4.48,0,0,1,.93,2.95h-3.35a2.38,2.38,0,0,0-2.63-2.42c-1.61,0-2.67.85-2.67,2.15,0,1.48,1.19,1.74,3.53,2.31,2.8.66,5.56,1.41,5.56,4.51,0,2.86-2.42,5.17-6.91,5.17-6.22,0-6.26-3.91-6.28-5.45Z" transform="translate(-9.85)" fill="#20b767"/></g><g style="isolation:isolate"><path d="M406,332.54a10.84,10.84,0,0,1-2.59.35c-3.34,0-3.34-2.07-3.34-3v-6.1h-2.18v-2.16h2.18v-2.17l3.3-1.19v3.36h2.69v2.16H403.4v5c0,1,0,1.65,1.5,1.65a7.69,7.69,0,0,0,1.13-.07Z" transform="translate(-9.85)" fill="#20b767"/></g><g style="isolation:isolate"><path d="M413,321.31c4.11,0,5.88,2.73,5.88,5.84s-1.84,5.94-5.95,5.94c-3.23,0-5.79-2-5.79-5.86C407.13,324.55,408.52,321.31,413,321.31Zm.05,9.51c1.46,0,2.44-.86,2.44-3.81,0-1.47-.29-3.52-2.49-3.52-2.42,0-2.45,2.75-2.45,3.77C410.54,329.74,411.4,330.82,413,330.82Z" transform="translate(-9.85)" fill="#20b767"/></g><g style="isolation:isolate"><path d="M421.35,324.31c0-.53-.09-2.14-.16-2.77h3.12l.07,2.13c.43-.95,1.17-2.29,3.86-2.16v2.93c-3.37-.31-3.57,1.39-3.57,2.77v5.48h-3.32Z" transform="translate(-9.85)" fill="#20b767"/></g><g style="isolation:isolate"><path d="M436.44,332.69a8.9,8.9,0,0,1-.11-1.52,4.45,4.45,0,0,1-6.22.9,3.42,3.42,0,0,1-1-2.44,3.69,3.69,0,0,1,2.4-3.45,12,12,0,0,1,4.49-.62,4.35,4.35,0,0,0-.15-1.47,1.55,1.55,0,0,0-1.48-.93,1.51,1.51,0,0,0-1.26.62,1.62,1.62,0,0,0-.25,1h-3.25a3.08,3.08,0,0,1,1.28-2.62,6,6,0,0,1,3.43-.9,5.5,5.5,0,0,1,4,1.43,4.35,4.35,0,0,1,.79,2.73l0,4.46a13.28,13.28,0,0,0,.27,2.82Zm-4.09-3.43a1.55,1.55,0,0,0,1.62,1.58,1.85,1.85,0,0,0,1.41-.64,4,4,0,0,0,.63-2.75C433.88,327.28,432.35,327.94,432.35,329.26Z" transform="translate(-9.85)" fill="#20b767"/></g><g style="isolation:isolate"><path d="M452.86,321.62a24.29,24.29,0,0,0-.16,2.75v8.21c0,4.09-3.48,4.49-5.65,4.49-1.62,0-4.78-.2-5-3.57h3.19c.05.33.2,1.54,2,1.54a1.93,1.93,0,0,0,2.06-1.45,11.07,11.07,0,0,0,.16-2.64,3.59,3.59,0,0,1-3.05,1.52c-3.26,0-4.78-2.77-4.78-5.46s1.59-5.5,4.84-5.5a3.45,3.45,0,0,1,3.17,1.59l.11-1.48Zm-5.7,8.63c2.33,0,2.33-2.69,2.33-3.17,0-1.25-.24-3.39-2.26-3.39-1.26,0-2.29.95-2.29,3.32C444.94,327.56,444.94,330.25,447.16,330.25Z" transform="translate(-9.85)" fill="#20b767"/></g><g style="isolation:isolate"><path d="M458.05,328c0,.73,0,3,2.31,3a1.86,1.86,0,0,0,2-1.54h3a3.72,3.72,0,0,1-1.08,2.42,5.57,5.57,0,0,1-4,1.3,5.72,5.72,0,0,1-4-1.39,6,6,0,0,1-1.46-4.33,6,6,0,0,1,2.36-5.26,5.76,5.76,0,0,1,3.19-.92,4.89,4.89,0,0,1,4.58,2.68,8.19,8.19,0,0,1,.67,4.07Zm4.22-2c0-.5,0-2.48-2-2.48-1.45,0-2.06,1.19-2.13,2.48Z" transform="translate(-9.85)" fill="#20b767"/></g><g style="isolation:isolate"><path d="M375.65,346.8h10.16v1.87h-7.92v4.95h7.54v1.85h-7.54v5.28H386v1.94H375.65Z" transform="translate(-9.85)" fill="#20b767"/><path d="M389.69,352.92l0-1.28h2.11l0,1.79a3.69,3.69,0,0,1,3.62-2c1,0,4.08.38,4.08,3.77v7.5h-2.15v-7a2.45,2.45,0,0,0-.61-1.89,2.91,2.91,0,0,0-2-.75,3,3,0,0,0-2.94,3.3v6.36h-2.11Z" transform="translate(-9.85)" fill="#20b767"/><path d="M404.62,357.54c-.05,2.29.92,4,3.23,4a2.43,2.43,0,0,0,2.65-2.28h2.11a3.72,3.72,0,0,1-1,2.31,4.9,4.9,0,0,1-3.88,1.47c-3.55,0-5.23-2.16-5.23-5.65,0-2.18.45-4,2.22-5.2a5.48,5.48,0,0,1,3.08-.81c5.05,0,4.93,4.38,4.89,6.18Zm5.94-1.45c0-1.06-.18-3.26-2.78-3.26a3,3,0,0,0-3.07,3.26Z" transform="translate(-9.85)" fill="#20b767"/><path d="M415.93,353.89c0-.75-.05-1.52-.12-2.25H418l0,2.14a3,3,0,0,1,2.69-2.18,6.82,6.82,0,0,1,1.46,0v2a1.83,1.83,0,0,0-.4-.09,5.35,5.35,0,0,0-.61,0c-2.49,0-3.07,1.45-3.07,3.35v5.87h-2.13Z" transform="translate(-9.85)" fill="#20b767"/><path d="M426.56,363.55c.09,1.23.63,2.16,2.63,2.16,2.94,0,3-2.1,3-5.09-.89,1.83-3,1.87-3.7,1.87a4.41,4.41,0,0,1-3.46-1.36,6.14,6.14,0,0,1-1.28-4.07c0-3.74,2.25-5.57,5-5.57a4,4,0,0,1,3.55,1.67l0-1.52h2l0,2,0,6.91c0,2.66-.09,3.74-.53,4.57-.95,1.76-3.15,2-4.7,2-4.51,0-4.64-2.07-4.73-3.56Zm4.92-3.7c.45-.57.76-1.16.76-3.17a3.63,3.63,0,0,0-.87-2.75,3.4,3.4,0,0,0-2.43-1c-2.67,0-3,2.65-3,4.05,0,1.7.52,3.94,3.1,3.94A2.87,2.87,0,0,0,431.48,359.85Z" transform="translate(-9.85)" fill="#20b767"/><path d="M443.33,362.76l-1.62,4.11h-2.18l1.71-4.22-4.69-11h2.38l3.52,8.72,3.59-8.72h2.29Z" transform="translate(-9.85)" fill="#20b767"/><path d="M457,346.8h2.24v15.89H457Z" transform="translate(-9.85)" fill="#20b767"/><path d="M463.36,346.8h3.12l8,13.14V346.8h2.07v15.89h-2.88l-8.23-13.49v13.49h-2.05Z" transform="translate(-9.85)" fill="#20b767"/></g><path d="M410.89,281.55V294h25.7V248.1h-6.53v-3a4.08,4.08,0,0,0-3.84-4.29h-6.86a2,2,0,0,0-2.1,1.89v.41" transform="translate(-9.85)" fill="none" stroke="#706f6b" stroke-linejoin="round" stroke-width="2.5"/><polyline points="409.64 248.05 401.04 247.95 401.04 261.25" fill="none" stroke="#706f6b" stroke-linejoin="round" stroke-width="2.5"/><polyline points="407.94 278.45 415.04 271.45 407.94 264.35" fill="none" stroke="#706f6b" stroke-linejoin="round" stroke-width="2.5"/><line x1="386.44" y1="271.45" x2="415.04" y2="271.45" fill="none" stroke="#706f6b" stroke-linejoin="round" stroke-width="2.5"/></g></g><g id="copy_storage" data-name="copy storage"><g id="copy_storageOUT" data-name="copy storageOUT"><rect x="53.27" y="81.08" width="337.94" height="76.9" fill="none"/><text transform="translate(58.92 97.12)" font-size="22.17" fill="#706f6b" font-family="UniversLTStd-Light, Univers LT Std" letter-spacing="-0.02em" style="isolation:isolate">T</text><text transform="translate(70.8 97.12)" font-size="22.17" fill="#706f6b" font-family="UniversLTStd-Light, Univers LT Std" style="isolation:isolate">he Energy Storage is supplying</text><text transform="translate(89.5 123.73)" font-size="22.17" fill="#706f6b" font-family="UniversLTStd-Light, Univers LT Std" style="isolation:isolate">energy to</text><text transform="translate(189.31 123.73)" font-size="22.17" fill="#706f6b" font-family="UniversLTStd-Light, Univers LT Std" letter-spacing="-0.02em" style="isolation:isolate">y</text><text transform="translate(199.96 123.73)" font-size="22.17" fill="#706f6b" font-family="UniversLTStd-Light, Univers LT Std" style="isolation:isolate">our household,</text><text transform="translate(99.88 150.33)" font-size="22.17" fill="#706f6b" font-family="UniversLTStd-Light, Univers LT Std" style="isolation:isolate">sh</text><text transform="translate(123.29 150.33)" font-size="22.17" fill="#706f6b" font-family="UniversLTStd-Light, Univers LT Std" letter-spacing="-0.02em" style="isolation:isolate">a</text><text transform="translate(133.93 150.33)" font-size="22.17" fill="#706f6b" font-family="UniversLTStd-Light, Univers LT Std" style="isolation:isolate">ving a peak demand.</text></g><g id="copy_storageOFF" data-name="copy storageOFF"><rect x="53.27" y="71.08" width="337.94" height="49.48" fill="none"/><g style="isolation:isolate"><text transform="translate(116.32 97.12)" font-size="22.17" fill="#706f6b" font-family="UniversLTStd-Light, Univers LT Std" letter-spacing="-0.02em" style="isolation:isolate">T</text><text transform="translate(128.2 97.12)" font-size="22.17" fill="#706f6b" font-family="UniversLTStd-Light, Univers LT Std" style="isolation:isolate">he Energy Storage is</text><text transform="translate(94.55 123.72)" font-size="22.17" fill="#706f6b" font-family="UniversLTStd-Light, Univers LT Std" style="isolation:isolate">not part of the simulation.</text></g></g><g id="warning_storageOFF" data-name="warning storageOFF"><g style="isolation:isolate"><text transform="translate(118.74 208.14)" font-size="18" fill="#ff006e" font-family="UniversLTStd-Light, Univers LT Std" style="isolation:isolate">Blo</text><text transform="translate(144.75 208.14)" font-size="18" fill="#ff006e" font-family="UniversLTStd-Light, Univers LT Std" letter-spacing="-0.05em" style="isolation:isolate">c</text><text transform="translate(152.85 208.14)" font-size="18" fill="#ff006e" font-family="UniversLTStd-Light, Univers LT Std" style="isolation:isolate">k-wide </text><text transform="translate(210.86 208.14)" font-size="18" fill="#ff006e" font-family="UniversLTStd-Light, Univers LT Std" letter-spacing="-0.04em" style="isolation:isolate">o<tspan x="9.31" y="0" letter-spacing="-0.02em">v</tspan></text><text transform="translate(229.15 208.14)" font-size="18" fill="#ff006e" font-family="UniversLTStd-Light, Univers LT Std" style="isolation:isolate">erloads of this</text><text transform="translate(128.43 232.14)" font-size="18" fill="#ff006e" font-family="UniversLTStd-Light, Univers LT Std" style="isolation:isolate">kind might stress the grid</text><text transform="translate(145.06 256.14)" font-size="18" fill="#ff006e" font-family="UniversLTStd-Light, Univers LT Std" style="isolation:isolate">and cause a bla</text><text transform="translate(268.1 256.14)" font-size="18" fill="#ff006e" font-family="UniversLTStd-Light, Univers LT Std" letter-spacing="-0.05em" style="isolation:isolate">c</text><text transform="translate(276.2 256.14)" font-size="18" fill="#ff006e" font-family="UniversLTStd-Light, Univers LT Std" letter-spacing="-0.02em" style="isolation:isolate">k</text><text transform="translate(284.84 256.14)" font-size="18" fill="#ff006e" font-family="UniversLTStd-Light, Univers LT Std" style="isolation:isolate">out.</text></g><path d="M165.21,174.38l-.7-.35,7.93-13.65a2.72,2.72,0,0,1,2.34-1.29,2.86,2.86,0,0,1,2.33,1.29L185.06,174a3,3,0,0,1,.35,1.28,2.64,2.64,0,0,1-2.59,2.69H167a2.71,2.71,0,0,1-2.68-2.69,2.31,2.31,0,0,1,.35-1.28l.58.35.7.35a1,1,0,0,0-.12.47,1,1,0,0,0,.95,1.05H182.6a1,1,0,0,0,1.05-.95h0v-.1a.77.77,0,0,0-.12-.47l-7.94-13.65a1.6,1.6,0,0,0-.93-.59,1,1,0,0,0-.93.59l-7.94,13.65Z" transform="translate(-9.85)" fill="#ff0f5d"/><text transform="translate(162.49 174.14)" font-size="12.73" fill="#ff0f5d" font-family="UniversLTStd-Bold, Univers LT Std" font-weight="700" style="isolation:isolate">!</text><g style="isolation:isolate"><g style="isolation:isolate"><path d="M201.25,162.5l2.29,10.82,2.87-10.82H210l2.59,10.82L215,162.5h3l-3.76,14.44h-3.5l-2.68-11-2.87,11h-3.59L198,162.5Z" transform="translate(-9.85)" fill="#ff006e"/></g><g style="isolation:isolate"><path d="M225.73,162.44l5.12,14.46h-3.18l-1.06-3.12h-5.84l-1.1,3.12h-3L222,162.44Zm.08,9-2-6.16-2.18,6.16Z" transform="translate(-9.85)" fill="#ff006e"/><path d="M232.5,162.44h5.65c1.64,0,3.29,0,4.47,1a3.6,3.6,0,0,1-1.79,6.32c2.22.2,2.38,1.44,2.65,3.32a26.93,26.93,0,0,0,.45,2.8,2.44,2.44,0,0,0,.45,1h-3.49c-.15-.8-.59-4.46-.8-5-.28-.82-1.06-.82-1.59-.82h-2.77v5.84H232.5Zm3.12,6.32h2.55a2.66,2.66,0,0,0,1.62-.4,2,2,0,0,0,.81-1.68,1.81,1.81,0,0,0-.77-1.62,3.54,3.54,0,0,0-2.08-.34h-2.13Z" transform="translate(-9.85)" fill="#ff006e"/><path d="M246.35,162.44h4.57l5.53,11.38V162.44h2.94V176.9H255l-5.71-12v12h-3Z" transform="translate(-9.85)" fill="#ff006e"/><path d="M262,162.4h3.16v14.5H262Z" transform="translate(-9.85)" fill="#ff006e"/><path d="M267.9,162.44h4.57L278,173.82V162.44h2.93V176.9h-4.34l-5.71-12v12h-3Z" transform="translate(-9.85)" fill="#ff006e"/><path d="M293.6,166.88a2.67,2.67,0,0,0-.41-1.46,2.84,2.84,0,0,0-2.47-1.12c-3.59,0-4.3,3.28-4.3,5.5a5.76,5.76,0,0,0,1.22,3.88,4.27,4.27,0,0,0,3.47,1.24,7.32,7.32,0,0,0,2.41-.28v-3h-2.86v-2.4h6v7.22a15.48,15.48,0,0,1-5.38.8c-3.37,0-5.1-.8-6.27-1.92a7.43,7.43,0,0,1-2-5.4c0-5.12,3.27-7.86,7.74-7.86a6.71,6.71,0,0,1,5,1.82,4.35,4.35,0,0,1,1.07,3Z" transform="translate(-9.85)" fill="#ff006e"/></g></g></g><g id="copy_storageIN" data-name="copy storageIN"><rect x="53.27" y="81.08" width="337.94" height="76.9" fill="none"/><text transform="translate(78.7 97.12)" font-size="22.17" fill="#706f6b" font-family="UniversLTStd-Light, Univers LT Std" letter-spacing="-0.02em" style="isolation:isolate">T</text><text transform="translate(90.58 97.12)" font-size="22.17" fill="#706f6b" font-family="UniversLTStd-Light, Univers LT Std" style="isolation:isolate">he Storage is n</text><text transform="translate(238.44 97.12)" font-size="22.17" fill="#706f6b" font-family="UniversLTStd-Light, Univers LT Std" letter-spacing="-0.02em" style="isolation:isolate">o</text><text transform="translate(250.33 97.12)" font-size="22.17" fill="#706f6b" font-family="UniversLTStd-Light, Univers LT Std" style="isolation:isolate">w</text><text transform="translate(274.97 97.12)" font-size="22.17" fill="#706f6b" font-family="UniversLTStd-Light, Univers LT Std" letter-spacing="-0.05em" style="isolation:isolate">c</text><text transform="translate(284.94 97.12)" font-size="22.17" fill="#706f6b" font-family="UniversLTStd-Light, Univers LT Std" style="isolation:isolate">hargin</text><text transform="translate(345.31 97.12)" font-size="22.17" fill="#706f6b" font-family="UniversLTStd-Light, Univers LT Std" letter-spacing="0.02em" style="isolation:isolate">g</text><g style="isolation:isolate"><text transform="translate(358.09 97.12)" font-size="22.17" fill="#706f6b" font-family="UniversLTStd-Light, Univers LT Std" style="isolation:isolate"><tspan xml:space="preserve">,  </tspan></text></g><text transform="translate(71.12 123.73)" font-size="22.17" fill="#706f6b" font-family="UniversLTStd-Light, Univers LT Std" style="isolation:isolate">receiving energy</text><text transform="translate(239.97 123.73)" font-size="22.17" fill="#706f6b" font-family="UniversLTStd-Light, Univers LT Std" style="isolation:isolate">from the grid</text><text transform="translate(93.29 150.33)" font-size="22.17" fill="#706f6b" font-family="UniversLTStd-Light, Univers LT Std" style="isolation:isolate">while the demand is l</text><text transform="translate(303.99 150.33)" font-size="22.17" fill="#706f6b" font-family="UniversLTStd-Light, Univers LT Std" letter-spacing="-0.02em" style="isolation:isolate">o</text><text transform="translate(315.87 150.33)" font-size="22.17" fill="#706f6b" font-family="UniversLTStd-Light, Univers LT Std" letter-spacing="-0.07em" style="isolation:isolate">w</text><text transform="translate(332.67 150.33)" font-size="22.17" fill="#706f6b" font-family="UniversLTStd-Light, Univers LT Std" style="isolation:isolate">.</text></g></g><path id="arrow_GtoB" d="M128.79,32H95C56.2,32,34.8,60.4,34.8,99.2v123" transform="translate(-9.85)" fill="none" stroke="#706f6b" stroke-linecap="round" stroke-linejoin="round" stroke-width="3.03" stroke-dasharray="0 11.38"/><path id="arrow_StoB" d="M334.06,32h28.6c38.8,0,60.2,21.4,60.2,60.2V218.8" transform="translate(-9.85)" fill="none" stroke="#706f6b" stroke-linecap="round" stroke-linejoin="round" stroke-width="3.03" stroke-dasharray="0 11.38"/></svg>
