<?xml version="1.0" encoding="utf-8"?>
<!-- Generator: Adobe Illustrator 21.1.0, SVG Export Plug-In . SVG Version: 6.00 Build 0)  -->
<svg version="1.1" id="Layer_2" xmlns="http://www.w3.org/2000/svg" xmlns:xlink="http://www.w3.org/1999/xlink" x="0px" y="0px"
	 viewBox="0 0 980.1 353.3" enable-background="new 0 0 980.1 353.3" xml:space="preserve">
<g id="building">
	<polyline fill="none" stroke="#706F6B" stroke-width="2.5" stroke-linejoin="round" points="496,96.4 496,82.4 484.1,82.4
		484.1,102.4 508,102.4 508,72.5 514,72.5 514,70.5 506,63.8 506,52.5 498,52.5 498,56.5 490.1,50.5 466.1,70.5 466.1,72.5
		472.1,72.5 472.1,102.4 478.1,102.4 	"/>
	<g>
		<text transform="matrix(1.016 0 0 1 452.4406 139.9965)" fill="#706F6B" font-family="'UniversLTStd-Bold'" font-size="19px">Building</text>
	</g>
</g>
<g id="grid">
	<polyline fill="none" stroke="#706F6B" stroke-width="2.5" stroke-linejoin="round" points="128,198 126.2,182.3 138.8,182.3
		142.8,213.9 129.9,213.9 133.6,234.2 111.5,204.6 129,204.6 	"/>
	<g>
		<text transform="matrix(1.016 0 0 1 107.4681 272.9384)" fill="#706F6B" font-family="'UniversLTStd-Bold'" font-size="19px">Grid</text>
	</g>
</g>
<g id="storage">
	<g id="storageOUT">
		<g>
			<text transform="matrix(1.016 0 0 1 807.3487 272.9389)"><tspan x="0" y="0" fill="#20B767" font-family="'UniversLTStd-Bold'" font-size="19px">Storage </tspan><tspan x="0" y="26" fill="#20B767" font-family="'UniversLTStd'" font-size="19px">Energy OUT</tspan></text>
		</g>
		<g>
			<g>
				<path fill="none" stroke="#706F6B" stroke-width="2.5" stroke-linejoin="round" d="M855,221.8v12.4h-25.7v-45.9h6.5v-3
					c0-4.3,4.1-4.3,4.1-4.3h6.6c0,0,2.1-0.1,2.1,2.1v0.2"/>
				<polyline fill="none" stroke="#706F6B" stroke-width="2.5" stroke-linejoin="round" points="846.4,188.3 855,188.2 855,201.5
									"/>
				<polyline fill="none" stroke="#706F6B" stroke-width="2.5" stroke-linejoin="round" points="862.6,204.6 869.6,211.7
					862.6,218.7 				"/>
				<line fill="none" stroke="#706F6B" stroke-width="2.5" stroke-linejoin="round" x1="869.6" y1="211.7" x2="841.1" y2="211.7"/>
			</g>
		</g>
	</g>
	<g id="storageOFF">
		<g>
			<text transform="matrix(1.016 0 0 1 807.3486 272.9389)"><tspan x="0" y="0" fill="#C6C6C6" font-family="'UniversLTStd-Bold'" font-size="19px">Storage </tspan><tspan x="0" y="26" fill="#C6C6C6" font-family="'UniversLTStd'" font-size="19px">OFF</tspan></text>
		</g>
		<g>
			<g>
				<path fill="none" stroke="#C6C6C6" stroke-width="2.5" stroke-linejoin="round" d="M855,201.5v32.6h-25.7v-45.9h6.5v-3
					c0-4.3,4.1-4.3,4.1-4.3h6.6c0,0,2.1-0.1,2.1,2.1v0.2"/>
				<polyline fill="none" stroke="#C6C6C6" stroke-width="2.5" stroke-linejoin="round" points="846.4,188.3 855,188.2 855,201.5
									"/>
			</g>
		</g>
	</g>
	<g id="storageIN">
		<g>
			<text transform="matrix(1.016 0 0 1 807.3486 272.9389)"><tspan x="0" y="0" fill="#20B767" font-family="'UniversLTStd-Bold'" font-size="19px">Storage </tspan><tspan x="0" y="26" fill="#20B767" font-family="'UniversLTStd'" font-size="19px">Energy IN</tspan></text>
		</g>
		<g>
			<g>
				<path fill="none" stroke="#706F6B" stroke-width="2.5" stroke-linejoin="round" d="M829.3,221.8v12.4H855v-45.9h-6.5v-3
					c0-4.3-4.1-4.3-4.1-4.3h-6.6c0,0-2.1-0.1-2.1,2.1v0.2"/>
				<polyline fill="none" stroke="#706F6B" stroke-width="2.5" stroke-linejoin="round" points="837.9,188.3 829.3,188.2
					829.3,201.5 				"/>
				<polyline fill="none" stroke="#706F6B" stroke-width="2.5" stroke-linejoin="round" points="836.2,218.7 843.3,211.7
					836.2,204.6 				"/>
				<line fill="none" stroke="#706F6B" stroke-width="2.5" stroke-linejoin="round" x1="814.7" y1="211.7" x2="843.3" y2="211.7"/>
			</g>
		</g>
	</g>
</g>
<g id="copy_storage">
	<g id="copy_storageOUT">
		<rect x="345.3" y="176" fill="none" width="289.6" height="65.9"/>
		<text transform="matrix(1 0 0 1 350.0926 189.7524)"><tspan x="0" y="0" fill="#706F6B" font-family="'UniversLTStd-Light'" font-size="19px">The Energy Storage is supplying </tspan><tspan x="26.2" y="22.8" fill="#706F6B" font-family="'UniversLTStd-Light'" font-size="19px">energy to your household, </tspan><tspan x="35.1" y="45.6" fill="#706F6B" font-family="'UniversLTStd-Light'" font-size="19px">shaving a peak demand.</tspan></text>
	</g>
	<g id="copy_storageOFF">
		<rect x="345.3" y="176" fill="none" width="289.6" height="42.4"/>
		<text transform="matrix(1 0 0 1 353.2751 189.7522)"><tspan x="0" y="0" fill="#706F6B" font-family="'UniversLTStd-Light'" font-size="19px">The Energy Storage is currently </tspan><tspan x="24.3" y="22.8" fill="#706F6B" font-family="'UniversLTStd-Light'" font-size="19px">not part of the simulation.</tspan></text>
	</g>
	<g id="warning_storageOFF">
		<g>
			<rect x="356.9" y="272.9" fill="none" width="266.3" height="45"/>
			<text transform="matrix(1 0 0 1 395.4035 282.3241)"><tspan x="0" y="0" fill="#FF006E" font-family="'UniversLTStd-Light'" font-size="13px">Your energy demand is too high!</tspan><tspan x="-38.5" y="15.6" fill="#FF006E" font-family="'UniversLTStd-Light'" font-size="13px">Overloads</tspan><tspan x="20" y="15.6" fill="#FF006E" font-family="'UniversLTStd-Light'" font-size="13px"> </tspan><tspan x="23" y="15.6" fill="#FF006E" font-family="'UniversLTStd-Light'" font-size="13px">of</tspan><tspan x="34.5" y="15.6" fill="#FF006E" font-family="'UniversLTStd-Light'" font-size="13px"> </tspan><tspan x="37.5" y="15.6" fill="#FF006E" font-family="'UniversLTStd-Light'" font-size="13px">this</tspan><tspan x="58.4" y="15.6" fill="#FF006E" font-family="'UniversLTStd-Light'" font-size="13px"> </tspan><tspan x="61.4" y="15.6" fill="#FF006E" font-family="'UniversLTStd-Light'" font-size="13px">kind</tspan><tspan x="85.2" y="15.6" fill="#FF006E" font-family="'UniversLTStd-Light'" font-size="13px"> </tspan><tspan x="88.2" y="15.6" fill="#FF006E" font-family="'UniversLTStd-Light'" font-size="13px">over</tspan><tspan x="113.5" y="15.6" fill="#FF006E" font-family="'UniversLTStd-Light'" font-size="13px"> </tspan><tspan x="116.4" y="15.6" fill="#FF006E" font-family="'UniversLTStd-Light'" font-size="13px">a</tspan><tspan x="122.9" y="15.6" fill="#FF006E" font-family="'UniversLTStd-Light'" font-size="13px"> </tspan><tspan x="125.9" y="15.6" fill="#FF006E" font-family="'UniversLTStd-Light'" font-size="13px">whole</tspan><tspan x="161.3" y="15.6" fill="#FF006E" font-family="'UniversLTStd-Light'" font-size="13px"> </tspan><tspan x="164.2" y="15.6" fill="#FF006E" font-family="'UniversLTStd-Light'" font-size="13px">blockmight </tspan><tspan x="-38.5" y="31.2" fill="#FF006E" font-family="'UniversLTStd-Light'" font-size="13px">stress</tspan><tspan x="-3.1" y="31.2" fill="#FF006E" font-family="'UniversLTStd-Light'" font-size="13px" letter-spacing="4"> </tspan><tspan x="4.5" y="31.2" fill="#FF006E" font-family="'UniversLTStd-Light'" font-size="13px">the</tspan><tspan x="23.3" y="31.2" fill="#FF006E" font-family="'UniversLTStd-Light'" font-size="13px" letter-spacing="4"> </tspan><tspan x="31" y="31.2" fill="#FF006E" font-family="'UniversLTStd-Light'" font-size="13px">grid</tspan><tspan x="52.6" y="31.2" fill="#FF006E" font-family="'UniversLTStd-Light'" font-size="13px" letter-spacing="4"> </tspan><tspan x="60.3" y="31.2" fill="#FF006E" font-family="'UniversLTStd-Light'" font-size="13px">to</tspan><tspan x="71.8" y="31.2" fill="#FF006E" font-family="'UniversLTStd-Light'" font-size="13px" letter-spacing="4"> </tspan><tspan x="79.5" y="31.2" fill="#FF006E" font-family="'UniversLTStd-Light'" font-size="13px">the</tspan><tspan x="98.3" y="31.2" fill="#FF006E" font-family="'UniversLTStd-Light'" font-size="13px" letter-spacing="4"> </tspan><tspan x="105.9" y="31.2" fill="#FF006E" font-family="'UniversLTStd-Light'" font-size="13px">point</tspan><tspan x="134.8" y="31.2" fill="#FF006E" font-family="'UniversLTStd-Light'" font-size="13px" letter-spacing="4"> </tspan><tspan x="142.4" y="31.2" fill="#FF006E" font-family="'UniversLTStd-Light'" font-size="13px">of</tspan><tspan x="154" y="31.2" fill="#FF006E" font-family="'UniversLTStd-Light'" font-size="13px" letter-spacing="4"> </tspan><tspan x="161.6" y="31.2" fill="#FF006E" font-family="'UniversLTStd-Light'" font-size="13px">a</tspan><tspan x="168.1" y="31.2" fill="#FF006E" font-family="'UniversLTStd-Light'" font-size="13px" letter-spacing="4"> </tspan><tspan x="175.8" y="31.2" fill="#FF006E" font-family="'UniversLTStd-Light'" font-size="13px">blackout. </tspan></text>
		</g>
		<g>
			<g>
				<path fill="#FF0F5D" d="M434.5,255.1l-0.6-0.3l6.8-11.7c0.4-0.7,1.2-1.1,2-1.1c0.8,0,1.5,0.4,2,1.1l6.8,11.7
					c0.2,0.4,0.3,0.8,0.3,1.1c0,1.2-0.9,2.3-2.3,2.3h-13.5c-1.3,0-2.3-1.1-2.3-2.3c0-0.4,0.1-0.8,0.3-1.1L434.5,255.1l0.6,0.3
					c-0.1,0.2-0.1,0.3-0.1,0.4c0,0.5,0.4,0.9,0.9,0.9h13.5c0.5,0,0.9-0.4,0.9-0.9c0-0.1,0-0.3-0.1-0.4l-6.8-11.7
					c-0.2-0.3-0.5-0.4-0.8-0.5c-0.3,0-0.6,0.1-0.8,0.5l-6.8,11.7L434.5,255.1z"/>
			</g>
			<text transform="matrix(1 0 0 1 440.5621 254.8917)" fill="#FF0F5D" font-family="'UniversLTStd-Bold'" font-size="10.9081px">!</text>
			<text transform="matrix(1.016 0 0 1 465.17 258.1209)" fill="#FF006E" font-family="'UniversLTStd-Bold'" font-size="16px">WARNING</text>
		</g>
	</g>
	<g id="copy_storageIN">
		<rect x="345.3" y="176" fill="none" width="289.6" height="65.9"/>
		<text transform="matrix(1 0 0 1 367.0406 189.7522)"><tspan x="0" y="0" fill="#706F6B" font-family="'UniversLTStd-Light'" font-size="19px">The Storage is now charging,  </tspan><tspan x="-6.5" y="22.8" fill="#706F6B" font-family="'UniversLTStd-Light'" font-size="19px">receiving energy </tspan><tspan x="138.2" y="22.8" fill="#706F6B" font-family="'UniversLTStd-Light'" font-size="19px">from the grid </tspan><tspan x="12.5" y="45.6" fill="#706F6B" font-family="'UniversLTStd-Light'" font-size="19px">while the demand is low.</tspan></text>
	</g>
</g>
<path id="arrow_StoB" fill="none" stroke="#706F6B" stroke-width="3.0341" stroke-linecap="round" stroke-linejoin="round" stroke-miterlimit="10" stroke-dasharray="0,11.3778" d="
	M532.1,82.2h143.4h95.6c38.8,0,70.2,31.4,70.2,70.2"/>
<path id="arrow_GtoB" fill="none" stroke="#706F6B" stroke-width="3.0341" stroke-linecap="round" stroke-linejoin="round" stroke-miterlimit="10" stroke-dasharray="0,11.3778" d="
	M442.3,82.2H302.2h-92.8c-38.8,0-70.2,31.4-70.2,70.2"/>
</svg>
