<?xml version="1.0" encoding="utf-8"?>
<!-- Generator: Adobe Illustrator 21.1.0, SVG Export Plug-In . SVG Version: 6.00 Build 0)  -->
<svg version="1.1" id="Layer_1" xmlns="http://www.w3.org/2000/svg" xmlns:xlink="http://www.w3.org/1999/xlink" x="0px" y="0px"
	 viewBox="0 0 69.9 48.4" enable-background="new 0 0 69.9 48.4" xml:space="preserve">
<g>
	<path fill="#706F6B" d="M67.7,48.4H2.2c-0.8,0-1.5-0.4-1.9-1s-0.5-1.4-0.1-2.1L5,35.1C9.8,25,20.2,18.4,31.4,18.4h34.1V9.3
		c0-2.7-2.2-4.9-4.9-4.9H31.1V0h29.5c5.1,0,9.3,4.2,9.3,9.3v11.4c0,1.2-1,2.2-2.2,2.2H31.4C21.8,22.8,13.1,28.4,9,37l-3.3,7h59.8
		V26.8h4.4v19.4C69.9,47.4,68.9,48.4,67.7,48.4z"/>
	<circle fill="#706F6B" cx="48.8" cy="33.1" r="2.5"/>
	<circle fill="#706F6B" cx="38.7" cy="33.1" r="2.5"/>
	<circle fill="#706F6B" cx="28.5" cy="33.1" r="2.5"/>
	<rect x="36.3" y="11.6" fill="#706F6B" width="15" height="4.4"/>
</g>
</svg>
