<?xml version="1.0" encoding="utf-8"?>
<!-- Generator: Adobe Illustrator 18.1.1, SVG Export Plug-In . SVG Version: 6.00 Build 0)  -->
<svg version="1.1" id="Layer_7" xmlns="http://www.w3.org/2000/svg" xmlns:xlink="http://www.w3.org/1999/xlink" x="0px" y="0px"
	 viewBox="0 0 60 60" enable-background="new 0 0 60 60" xml:space="preserve">
<g id="XMLID_11_">
	<path id="XMLID_17_" fill="#0555F9" d="M52,14.6c0-0.8-0.6-1.4-1.4-1.4H13.4V16h21.2v23.6h2.8V16h11.7v25.6h0v0h-3.9h-2.8H17.9
		h-2.8h-4.3v0l0,0l0-28.5H9.4c-0.8,0-1.4,0.6-1.4,1.4v23.7h0V43c0,0.8,0.6,1.4,1.4,1.4h5.7v2.4h3.2v-2.4H42v2.4h3.2v-2.4h5.3
		c0.8,0,1.4-0.6,1.4-1.4v-1.4h0V14.6z"/>
	<rect id="XMLID_16_" x="40.7" y="30" fill="#0555F9" width="5.6" height="2.8"/>
	<rect id="XMLID_15_" x="40.7" y="35.3" fill="#0555F9" width="5.6" height="2.8"/>
	<circle id="XMLID_14_" fill="#0555F9" cx="43.5" cy="21.4" r="2.7"/>
	
		<rect id="XMLID_13_" x="14.2" y="21.9" transform="matrix(0.7071 -0.7071 0.7071 0.7071 -11.0579 19.9934)" fill="#0555F9" width="8.9" height="2.8"/>
	
		<rect id="XMLID_12_" x="12.4" y="26.6" transform="matrix(-0.7071 0.7071 -0.7071 -0.7071 56.3269 32.6047)" fill="#0555F9" width="17.9" height="2.8"/>
</g>
</svg>
