<?xml version="1.0" encoding="utf-8"?>
<!-- Generator: Adobe Illustrator 18.1.1, SVG Export Plug-In . SVG Version: 6.00 Build 0)  -->
<svg version="1.1" id="Layer_7" xmlns="http://www.w3.org/2000/svg" xmlns:xlink="http://www.w3.org/1999/xlink" x="0px" y="0px"
	 viewBox="0 0 60 60" enable-background="new 0 0 60 60" xml:space="preserve">
<g>
	<path id="XMLID_1_" fill="#0555F9" d="M53.4,22H42.8v-6c0-0.4-0.2-0.8-0.5-1l-7.8-7c-0.3-0.2-0.6-0.4-0.9-0.4H19.8
		c-0.8,0-1.4,0.6-1.4,1.4v10.8h2.8v-9.4h11.9l6.9,6.2V22H6.6c-0.8,0-1.4,0.6-1.4,1.4v19.2c0,0.8,0.6,1.4,1.4,1.4h8.2v7
		c0,0.8,0.6,1.4,1.4,1.4h27.6c0.8,0,1.4-0.6,1.4-1.4V35.4c0-0.8-0.6-1.4-1.4-1.4h-23v2.8h21.6v12.8H17.6l0-15.6h-1.4
		c-0.8,0-1.4,0.6-1.4,1.4v5.8H8V24.8H52v16.4h-4V44h5.4c0.8,0,1.4-0.6,1.4-1.4V23.4C54.9,22.6,54.2,22,53.4,22z"/>
</g>
</svg>
