<?xml version="1.0" encoding="utf-8"?>
<!-- Generator: Adobe Illustrator 22.1.0, SVG Export Plug-In . SVG Version: 6.00 Build 0)  -->
<svg version="1.1" id="Layer_1" xmlns="http://www.w3.org/2000/svg" xmlns:xlink="http://www.w3.org/1999/xlink" x="0px" y="0px"
	 viewBox="0 0 68 60" enable-background="new 0 0 68 60" xml:space="preserve">
<g id="car">
	<path fill="#706F6B" d="M10.2,26.3v4c4.2-0.1,8.3-0.9,12.2-2.4L21,24.2C17.5,25.4,13.9,26.2,10.2,26.3z"/>
	<path fill="#706F6B" d="M17.9,6.4l4.1,6.4l3.4-2.1l-4-6.4c-1.6-2.7-4.6-4.4-7.8-4.4H0v4h13.6C15.3,3.9,17,4.8,17.9,6.4z"/>
	<rect y="37.3" fill="#706F6B" width="13.3" height="4"/>
	<path fill="#706F6B" d="M65.9,15.6h-1.6v-6h-4v6h-3.6v-6h-4v6h-1.6c-1.1,0-2,0.9-2,2v6.7c0,4.1,3.3,7.4,7.4,7.5v14.8
		c0,2.1-1.7,3.8-3.8,3.8s-3.8-1.7-3.8-3.8c0,0,0,0,0,0v-2.8c0-3.6-2.9-6.5-6.5-6.5h-7.8v-6c0-2.7-0.7-5.4-2-7.9l-2.1-3.9h7.3v-4
		h-8.2c-0.5,0-0.9,0.2-1.3,0.5l-0.7,0.6c-1.3,1.1-1.6,2.9-0.8,4.4l2.3,4.3c1,1.8,1.5,3.9,1.5,5.9v10.3c0,0.1,0,0.2,0,0.3
		c-0.2,0.2-0.3,0.3-0.5,0.5l-0.4,0.4L26,46.5c-0.6,0.6-1.4,0.9-2.2,0.9H0v4h18.1v5c0,2.1,1.7,3.7,3.7,3.7h9c2.1,0,3.7-1.7,3.7-3.7
		V41.3h7.8c1.4,0,2.5,1.1,2.5,2.5v2.8c0,4.3,3.5,7.8,7.8,7.8c4.3,0,7.8-3.5,7.8-7.8c0,0,0,0,0,0V29.8c0-1.1-0.9-2-2-2h-1.8
		c-1.9,0-3.5-1.6-3.5-3.5v-4.7h10.7v4.7c0,0.8-0.3,1.6-0.8,2.2l3.1,2.5c1.1-1.3,1.7-3,1.7-4.7v-6.7C67.9,16.4,67,15.6,65.9,15.6z
		 M22.1,56.1v-4.7h1.7c1.9,0,3.7-0.7,5-2.1l1.7-1.7v8.5L22.1,56.1z"/>
</g>
</svg>
