<?xml version="1.0" encoding="utf-8"?>
<!-- Generator: Adobe Illustrator 18.1.1, SVG Export Plug-In . SVG Version: 6.00 Build 0)  -->
<svg version="1.1" id="Layer_7" xmlns="http://www.w3.org/2000/svg" xmlns:xlink="http://www.w3.org/1999/xlink" x="0px" y="0px"
	 viewBox="0 0 60 60" enable-background="new 0 0 60 60" xml:space="preserve">
<path id="XMLID_2_" fill="#0555F9" d="M28.8,51h-8.6c-0.7,0-1.2-0.5-1.4-1.1l-3.9-17.1C10.1,31,7,26.5,7,21.3C7,14.5,12.5,9,19.3,9
	c1.4,0,2.8,0.2,4.2,0.7l16.2,5.1l-0.8,2.7l-16.1-5.1c0,0-0.1,0-0.1,0l-0.1,0c0,0,0,0,0,0c-1-0.4-2.1-0.6-3.2-0.6
	c-5.2,0-9.5,4.2-9.5,9.5c0,4.2,2.7,7.8,6.6,9c0.5,0.1,0.9,0.5,1,1l3.9,16.8H27l-3.9-16.8c-0.1-0.4,0-0.9,0.3-1.2
	c0.3-0.3,0.7-0.5,1.1-0.5c3.8,0,6.7-1.2,9.5-2.4c2.4-1,4.8-2,7.8-2.3v-6.9c0-0.2,0-0.4,0.1-0.6c1.5-3.4,5.6-6,9.7-6
	c0.8,0,1.4,0.6,1.4,1.4v16.8c0,0.8-0.6,1.4-1.4,1.4c-1.9,0-4-0.6-5.8-1.7l1.5-2.4c0.9,0.6,1.9,1,2.9,1.2V14.5
	c-2.3,0.5-4.6,2-5.6,3.9l0,7.9c0,0.8-0.6,1.4-1.4,1.4c-3,0-5.5,1-8.1,2.1c-2.5,1-5.3,2.2-8.9,2.5l3.9,16.9c0.1,0.4,0,0.9-0.3,1.2
	C29.6,50.8,29.2,51,28.8,51z"/>
</svg>
