<svg id="Layer_1" data-name="Layer 1" xmlns="http://www.w3.org/2000/svg" viewBox="0 0 148 148"><title>info</title><path d="M75,118.87a8.23,8.23,0,0,1-8.19-8.19V80.55a8.19,8.19,0,0,1,16.38,0v30.13A8.23,8.23,0,0,1,75,118.87Z" transform="translate(-1 -1)" fill="#ff006e"/><circle cx="74" cy="48.1" r="12.42" fill="#ff006e"/><path d="M75,149a74,74,0,1,1,74-74A74.22,74.22,0,0,1,75,149ZM75,17.65a57.62,57.62,0,1,0,57.61,57.61A57.75,57.75,0,0,0,75,17.65Z" transform="translate(-1 -1)" fill="#ff006e"/></svg>