<?xml version="1.0" encoding="utf-8"?>
<!-- Generator: Adobe Illustrator 18.1.1, SVG Export Plug-In . SVG Version: 6.00 Build 0)  -->
<svg version="1.1" id="Layer_1" xmlns="http://www.w3.org/2000/svg" xmlns:xlink="http://www.w3.org/1999/xlink" x="0px" y="0px"
	 viewBox="0 0 1030 40" enable-background="new 0 0 1030 40" xml:space="preserve">
<g>
	<path fill="none" stroke="#FFFFFF" stroke-width="1.7563" stroke-linejoin="round" d="M37,9.3l4.6,0v24.6H27.8V9.3h3.5V8.1
		c0-2.3,2.2-2.3,2.2-2.3H37c0,0,1.1-0.1,1.1,1.1"/>
	<text transform="matrix(1 0 0 1 53.7891 30.3224)" fill="#FFFFFF" font-family="'UniversLTStd-Light'" font-size="28">Storage</text>
</g>
<g>
	<polyline fill="none" stroke="#FFFFFF" stroke-width="1.7563" stroke-linejoin="round" points="562.7,29 562.7,21.9 556.7,21.9 
		556.7,32 568.8,32 568.8,16.9 571.8,16.9 571.8,15.9 567.7,12.5 567.7,6.8 563.7,6.8 563.7,8.9 559.7,5.8 547.6,15.9 547.6,16.9 
		550.6,16.9 550.6,32 553.7,32 	"/>
	<text transform="matrix(1 0 0 1 582.3887 30.3221)" fill="#FFFFFF" font-family="'UniversLTStd-Light'" font-size="28">Your home</text>
</g>
</svg>
