<?xml version="1.0" encoding="utf-8"?>
<!-- Generator: Adobe Illustrator 18.1.1, SVG Export Plug-In . SVG Version: 6.00 Build 0)  -->
<svg version="1.1" id="Layer_7" xmlns="http://www.w3.org/2000/svg" xmlns:xlink="http://www.w3.org/1999/xlink" x="0px" y="0px"
	 viewBox="0 0 50 50.1" enable-background="new 0 0 50 50.1" xml:space="preserve">
<g>
	<path fill="#55BD5A" d="M0,2.4l2.8,4.4C2.9,7,3.3,6.9,3.3,6.6L2.9,2.4c0-0.1,0.1-0.3,0.2-0.3h1.9c0.2,0,0.3-0.2,0.2-0.3L4.9,0H0
		V2.4z"/>
	
		<line fill="none" stroke="#55BD5A" stroke-width="0" stroke-linecap="round" stroke-linejoin="round" x1="1" y1="50.1" x2="0" y2="50.1"/>
	<path fill="#55BD5A" d="M3.9,46.1c0-0.1-0.1-0.2-0.2-0.2l-2.9,0c-0.2,0-0.3,0.1-0.2,0.3l0.7,3.6c0,0.2-0.1,0.3-0.2,0.3h3.9
		L3.9,46.1z"/>
	
		<line fill="none" stroke="#55BD5A" stroke-width="0" stroke-linecap="round" stroke-linejoin="round" x1="48.5" y1="50.1" x2="50" y2="50.1"/>
	<polygon fill="#55BD5A" points="49.5,1.6 50,2.3 50,0 48.5,0 	"/>
	<path fill="#55BD5A" d="M27.9,19.7c0-0.1-0.1-0.2-0.2-0.2l-2.9,0c-0.2,0-0.3,0.1-0.2,0.3l0.7,3.6c0,0.2-0.1,0.3-0.2,0.3h-2.5l1,1.6
		l3.3,5.2c0.1,0.2,0.5,0.1,0.5-0.2l-0.3-4.2c0-0.1,0.1-0.3,0.2-0.3h1.9c0.2,0,0.3-0.2,0.2-0.3L27.9,19.7z"/>
</g>
</svg>
