<svg id="Layer_1" data-name="Layer 1" xmlns="http://www.w3.org/2000/svg" viewBox="0 0 168.67 168.67"><title>rotate</title><path id="_Path_" data-name="&lt;Path&gt;" d="M44.19,20.86a4.18,4.18,0,0,1,4.18-4.17h4.18v127h63.57V25H59V16.69H120.3a4.18,4.18,0,0,1,4.18,4.17v127A4.18,4.18,0,0,1,120.3,152H48.37a4.18,4.18,0,0,1-4.18-4.17V20.86Z" fill="#fff"/><rect id="_Path_2" data-name="&lt;Path&gt;" x="71.43" y="33.79" width="25.81" height="8.33" fill="#fff"/><circle cx="84.3" cy="129.69" r="7" fill="#fff"/><path d="M155.46,113.86l-9.27,2.93a67.07,67.07,0,0,0,8.74-33.46c0-14.3-4.34-28.07-12.21-38.79l-.15-.2-5.26,3.86.15.21c7.06,9.6,10.94,22,10.94,34.92a60.8,60.8,0,0,1-7.23,29.1l-2.27-7.17-5.4,1.7,4.83,15.29a2.83,2.83,0,0,0,1.39,1.66,2.88,2.88,0,0,0,1.31.32,2.92,2.92,0,0,0,.86-.14l15.28-4.83Z" fill="#fff"/><path d="M20.26,85.34a60.69,60.69,0,0,1,7.24-29.1l2.27,7.17,5.4-1.71L30.34,46.42a2.84,2.84,0,0,0-3.56-1.85L11.5,49.4l1.71,5.41,9.27-2.94a67.08,67.08,0,0,0-8.74,33.47c0,14.3,4.33,28.07,12.21,38.79l.15.2,5.26-3.87-.15-.2C24.15,110.66,20.26,98.25,20.26,85.34Z" fill="#fff"/></svg>