<?xml version="1.0" encoding="utf-8"?>
<!-- Generator: Adobe Illustrator 21.1.0, SVG Export Plug-In . SVG Version: 6.00 Build 0)  -->
<svg version="1.1" id="Layer_2" xmlns="http://www.w3.org/2000/svg" xmlns:xlink="http://www.w3.org/1999/xlink" x="0px" y="0px"
	 viewBox="0 0 128 107" enable-background="new 0 0 128 107" xml:space="preserve">
<g id="plug">
	<g>
		<g>
			<radialGradient id="SVGID_1_" cx="63.8726" cy="51.9917" r="55.9721" gradientUnits="userSpaceOnUse">
				<stop  offset="0.4195" style="stop-color:#FFFFFF"/>
				<stop  offset="0.8341" style="stop-color:#FDFDFD"/>
				<stop  offset="0.9833" style="stop-color:#F6F6F6"/>
				<stop  offset="1" style="stop-color:#F5F5F5"/>
			</radialGradient>
			<path fill="url(#SVGID_1_)" d="M32.7,102c-3.1,0-6-1.1-8.4-3.1C10.5,87.2,2.5,70.1,2.5,52s8-35.2,21.8-46.9
				c2.4-2,5.3-3.1,8.4-3.1H95c3.1,0,6,1.1,8.4,3.1c13.9,11.7,21.8,28.8,21.8,46.9s-8,35.2-21.8,46.9c-2.4,2-5.3,3.1-8.4,3.1H32.7z"
				/>
			<path fill="#C6C6C6" d="M95,2.5c3,0,5.8,1.1,8.1,3c13.2,11.2,21.6,27.9,21.6,46.5s-8.4,35.4-21.6,46.5c-2.3,1.9-5.1,3-8.1,3H32.7
				c-3,0-5.8-1.1-8.1-3C11.4,87.4,3,70.7,3,52s8.4-35.4,21.6-46.5c2.3-1.9,5.1-3,8.1-3H95 M95,1.5H32.7c-3.2,0-6.3,1.1-8.7,3.2
				C10,16.5,2,33.7,2,52s8,35.5,22,47.3c2.4,2.1,5.5,3.2,8.7,3.2H95c3.2,0,6.3-1.1,8.7-3.2c14-11.8,22-29,22-47.3s-8-35.5-22-47.3
				C101.3,2.6,98.2,1.5,95,1.5L95,1.5z"/>
		</g>
	</g>
</g>
</svg>
