<?xml version="1.0" encoding="utf-8"?>
<!-- Generator: Adobe Illustrator 21.1.0, SVG Export Plug-In . SVG Version: 6.00 Build 0)  -->
<svg version="1.1" id="Layer_2" xmlns="http://www.w3.org/2000/svg" xmlns:xlink="http://www.w3.org/1999/xlink" x="0px" y="0px"
	 viewBox="0 0 128 107" enable-background="new 0 0 128 107" xml:space="preserve">
<path id="shadow" fill="#C6C6C6" d="M124.7,57c0-20.4-10-38.4-25.5-49.5H28.5C13,18.5,3,36.6,3,57s10,38.4,25.5,49.5h70.8
	C114.7,95.4,124.7,77.4,124.7,57z"/>
<g id="token">
	<g>
		<g>
			<radialGradient id="SVGID_1_" cx="63.8726" cy="51.9917" r="56.4176" gradientUnits="userSpaceOnUse">
				<stop  offset="0.4195" style="stop-color:#FFFFFF"/>
				<stop  offset="0.7879" style="stop-color:#FDFDFD"/>
				<stop  offset="0.9205" style="stop-color:#F6F6F6"/>
				<stop  offset="1" style="stop-color:#EDEDED"/>
			</radialGradient>
			<path fill="url(#SVGID_1_)" d="M32.7,102.4c-3.2,0-6.2-1.1-8.7-3.2c-14-11.8-22-29-22-47.3s8-35.5,22-47.3
				c2.4-2.1,5.5-3.2,8.7-3.2H95c3.2,0,6.2,1.1,8.7,3.2c14,11.8,22,29,22,47.3s-8,35.5-22,47.3c-2.4,2.1-5.5,3.2-8.7,3.2H32.7z"/>
			<path fill="#C6C6C6" d="M95,2.5c3,0,5.8,1.1,8.1,3c13.2,11.2,21.6,27.9,21.6,46.5s-8.4,35.4-21.6,46.5c-2.3,1.9-5.1,3-8.1,3H32.7
				c-3,0-5.8-1.1-8.1-3C11.4,87.4,3,70.7,3,52s8.4-35.4,21.6-46.5c2.3-1.9,5.1-3,8.1-3H95 M95,0.6H32.7c-3.4,0-6.7,1.2-9.3,3.4
				C9.2,16,1.1,33.5,1.1,52s8.1,36,22.3,48c2.6,2.2,5.9,3.4,9.3,3.4H95c3.4,0,6.7-1.2,9.3-3.4c14.2-12,22.3-29.5,22.3-48
				s-8.1-36-22.3-48C101.7,1.8,98.4,0.6,95,0.6L95,0.6z"/>
		</g>
		<g>
			<path fill="#FFFFFF" d="M32.7,102.5c-3.2,0-6.3-1.1-8.7-3.2C10,87.5,2,70.3,2,52s8-35.5,22-47.3c2.4-2.1,5.5-3.2,8.7-3.2H95
				c3.2,0,6.3,1.1,8.7,3.2c14,11.8,22,29,22,47.3s-8,35.5-22,47.3c-2.4,2.1-5.5,3.2-8.7,3.2H32.7z"/>
			<path fill="#C6C6C6" d="M95,2.5c3,0,5.8,1.1,8.1,3c13.2,11.2,21.6,27.9,21.6,46.5s-8.4,35.4-21.6,46.5c-2.3,1.9-5.1,3-8.1,3H32.7
				c-3,0-5.8-1.1-8.1-3C11.4,87.4,3,70.7,3,52s8.4-35.4,21.6-46.5c2.3-1.9,5.1-3,8.1-3H95 M95,0.5H32.7c-3.4,0-6.7,1.2-9.4,3.4
				C9.1,15.9,1,33.4,1,52s8.1,36.1,22.4,48.1c2.6,2.2,5.9,3.4,9.4,3.4H95c3.4,0,6.7-1.2,9.4-3.4c14.2-12,22.4-29.5,22.4-48.1
				s-8.1-36.1-22.4-48.1C101.8,1.7,98.4,0.5,95,0.5L95,0.5z"/>
		</g>
	</g>
</g>
<g id="glow" display="none">
	<radialGradient id="SVGID_2_" cx="63.8726" cy="51.9917" r="55.4748" gradientUnits="userSpaceOnUse">
		<stop  offset="0.4195" style="stop-color:#FDFDFE"/>
		<stop  offset="0.7643" style="stop-color:#FCFBFD"/>
		<stop  offset="0.8883" style="stop-color:#F6F4F9"/>
		<stop  offset="0.9766" style="stop-color:#EDE9F2"/>
		<stop  offset="1" style="stop-color:#E9E4EF"/>
	</radialGradient>
	<path display="inline" fill="url(#SVGID_2_)" d="M124.7,52c0-18.7-8.4-35.4-21.6-46.5c-2.3-1.9-5.1-3-8.1-3H32.7
		c-3,0-5.8,1.1-8.1,3C11.4,16.6,3,33.3,3,52s8.4,35.4,21.6,46.5c2.3,1.9,5.1,3,8.1,3H95c3,0,5.8-1.1,8.1-3
		C116.3,87.4,124.7,70.7,124.7,52z"/>
</g>
<g id="icon">
	<path id="XMLID_17_" fill="#706F6B" d="M53.5,67.5h24.4c1.1,0,2-0.9,2-2v-34c0-1.1-0.9-2-2-2H25.2c-1.1,0-2,0.9-2,2v29h4v-27h48.7
		v30.1l-52.7,0v2c0,1.1,0.9,2,2,2h24.4v3h-5.4v4h14.5v-4h-5.2V67.5z"/>
	<path id="XMLID_15_" fill="#706F6B" d="M102.6,35.7H87c-1.1,0-2,0.9-2,2v29.8h4V39.7h11.6v30.8H65v4h37.5c1.1,0,2-0.9,2-2V37.7
		C104.5,36.6,103.7,35.7,102.6,35.7z"/>
	<rect id="XMLID_6_" x="92.8" y="42.5" fill="#706F6B" width="4" height="8"/>
</g>
</svg>
