<?xml version="1.0" encoding="utf-8"?>
<!-- Generator: Adobe Illustrator 21.1.0, SVG Export Plug-In . SVG Version: 6.00 Build 0)  -->
<svg version="1.1" id="Layer_2_1_" xmlns="http://www.w3.org/2000/svg" xmlns:xlink="http://www.w3.org/1999/xlink" x="0px" y="0px"
	 viewBox="0 0 128 107" enable-background="new 0 0 128 107" xml:space="preserve">
<path id="shadow" fill="#C6C6C6" d="M124.7,57c0-20.4-10-38.4-25.5-49.5H28.5C13,18.5,3,36.6,3,57s10,38.4,25.5,49.5h70.8
	C114.7,95.4,124.7,77.4,124.7,57z"/>
<g id="token">
	<g>
		<g>
			
				<radialGradient id="SVGID_1_" cx="63.85" cy="-564.2501" r="56.4609" gradientTransform="matrix(1 0 0 -1 0 -512.3501)" gradientUnits="userSpaceOnUse">
				<stop  offset="0.4195" style="stop-color:#FFFFFF"/>
				<stop  offset="0.7879" style="stop-color:#FDFDFD"/>
				<stop  offset="0.9205" style="stop-color:#F6F6F6"/>
				<stop  offset="1" style="stop-color:#EDEDED"/>
			</radialGradient>
			<path fill="url(#SVGID_1_)" d="M32.7,102.4c-3.2,0-6.2-1.1-8.7-3.2C10,87.4,2,70.2,2,51.9s8-35.5,22-47.3
				c2.4-2.1,5.5-3.2,8.7-3.2H95c3.2,0,6.2,1.1,8.7,3.2c14,11.8,22,29,22,47.3s-8,35.5-22,47.3c-2.4,2.1-5.5,3.2-8.7,3.2
				C95,102.4,32.7,102.4,32.7,102.4z"/>
			<path fill="#C6C6C6" d="M95,2.5c3,0,5.8,1.1,8.1,3c13.2,11.2,21.6,27.9,21.6,46.5s-8.4,35.4-21.6,46.5c-2.3,1.9-5.1,3-8.1,3H32.7
				c-3,0-5.8-1.1-8.1-3C11.4,87.4,3,70.7,3,52s8.4-35.4,21.6-46.5c2.3-1.9,5.1-3,8.1-3H95 M95,0.6H32.7c-3.4,0-6.7,1.2-9.3,3.4
				C9.2,16,1.1,33.5,1.1,52s8.1,36,22.3,48c2.6,2.2,5.9,3.4,9.3,3.4H95c3.4,0,6.7-1.2,9.3-3.4c14.2-12,22.3-29.5,22.3-48
				s-8.1-36-22.3-48C101.7,1.8,98.4,0.6,95,0.6L95,0.6z"/>
		</g>
		<g>
			<path fill="#FFFFFF" d="M32.7,102.5c-3.2,0-6.3-1.1-8.7-3.2C10,87.5,2,70.3,2,52s8-35.5,22-47.3c2.4-2.1,5.5-3.2,8.7-3.2H95
				c3.2,0,6.3,1.1,8.7,3.2c14,11.8,22,29,22,47.3s-8,35.5-22,47.3c-2.4,2.1-5.5,3.2-8.7,3.2H32.7z"/>
			<path fill="#C6C6C6" d="M95,2.5c3,0,5.8,1.1,8.1,3c13.2,11.2,21.6,27.9,21.6,46.5s-8.4,35.4-21.6,46.5c-2.3,1.9-5.1,3-8.1,3H32.7
				c-3,0-5.8-1.1-8.1-3C11.4,87.4,3,70.7,3,52s8.4-35.4,21.6-46.5c2.3-1.9,5.1-3,8.1-3H95 M95,0.5H32.7c-3.4,0-6.7,1.2-9.4,3.4
				C9.1,15.9,1,33.4,1,52s8.1,36.1,22.4,48.1c2.6,2.2,5.9,3.4,9.4,3.4H95c3.4,0,6.7-1.2,9.4-3.4c14.2-12,22.4-29.5,22.4-48.1
				s-8.1-36.1-22.4-48.1C101.8,1.7,98.4,0.5,95,0.5L95,0.5z"/>
		</g>
	</g>
</g>
<g id="glow">
	
		<radialGradient id="SVGID_2_" cx="63.85" cy="-564.3501" r="55.4661" gradientTransform="matrix(1 0 0 -1 0 -512.3501)" gradientUnits="userSpaceOnUse">
		<stop  offset="0.4195" style="stop-color:#FDFDFE"/>
		<stop  offset="0.7643" style="stop-color:#FCFBFD"/>
		<stop  offset="0.8883" style="stop-color:#F6F4F9"/>
		<stop  offset="0.9766" style="stop-color:#EDE9F2"/>
		<stop  offset="1" style="stop-color:#E9E4EF"/>
	</radialGradient>
	<path fill="url(#SVGID_2_)" d="M124.7,52c0-18.7-8.4-35.4-21.6-46.5c-2.3-1.9-5.1-3-8.1-3H32.7c-3,0-5.8,1.1-8.1,3
		C11.4,16.6,3,33.3,3,52s8.4,35.4,21.6,46.5c2.3,1.9,5.1,3,8.1,3H95c3,0,5.8-1.1,8.1-3C116.3,87.4,124.7,70.7,124.7,52z"/>
</g>
<g id="icon_working" display="none">
	<g id="XMLID_162_" display="inline">
		<path id="XMLID_239_" fill="#5D5D5D" d="M54.1,68.4h22.6c1.2,0,2.1-0.9,2.1-2.1v-33c0-1.2-0.9-2.1-2.1-2.1H27.1
			c-1.2,0-2.1,0.9-2.1,2.1v27.6h4.2V35.4h45.4v28.8H25v2.1c0,1.2,0.9,2.1,2.1,2.1h22.6v3.3H44v4.2h15.5v-4.2H54L54.1,68.4L54.1,68.4
			L54.1,68.4z"/>
		<path id="XMLID_240_" fill="#5D5D5D" d="M100.9,36.7H86.5c-1.2,0-2.1,0.9-2.1,2.1v29.5h4.2V40.9h10.2v30.6H64.2v4.2H101
			c1.2,0,2.1-0.9,2.1-2.1V38.8C103,37.8,102.1,36.7,100.9,36.7z"/>
		<rect id="XMLID_241_" x="91.6" y="44" fill="#5D5D5D" width="4.2" height="8.4"/>
	</g>
</g>
<g id="icon_ironing" display="none">
	<g display="inline">
		<path fill="#5D5D5D" d="M96.8,77.7H31.3c-0.8,0-1.5-0.4-1.9-1s-0.5-1.4-0.1-2.1l4.8-10.2c4.8-10.1,15.2-16.7,26.4-16.7h34.1v-9.1
			c0-2.7-2.2-4.9-4.9-4.9H60.2v-4.4h29.5c5.1,0,9.3,4.2,9.3,9.3V50c0,1.2-1,2.2-2.2,2.2H60.5c-9.6-0.1-18.3,5.5-22.4,14.1l-3.3,7
			h59.8V56.1H99v19.4C99,76.7,98,77.7,96.8,77.7z"/>
		<circle fill="#5D5D5D" cx="77.9" cy="62.5" r="2.5"/>
		<circle fill="#5D5D5D" cx="67.8" cy="62.5" r="2.5"/>
		<circle fill="#5D5D5D" cx="57.6" cy="62.5" r="2.5"/>
		<rect x="65.4" y="41" fill="#5D5D5D" width="15" height="4.4"/>
	</g>
</g>
<g id="icon_heating" display="none">
	<g id="XMLID_11_" display="inline">
		<path id="XMLID_17_" fill="#5D5D5D" d="M97,30.5c0-1.2-0.9-2.1-2.1-2.1H39.1v4.2h31.8V68h4.2V32.6h17.5V71l0,0l0,0h-5.9h-4.2H45.7
			h-4.2h-6.4l0,0l0,0V28.2H33c-1.2,0-2.1,0.9-2.1,2.1v35.5l0,0V73c0,1.2,0.9,2.1,2.1,2.1h8.5v3.6h4.8v-3.6h35.5v3.6h4.8v-3.6h8
			c1.2,0,2.1-0.9,2.1-2.1v-2.1l0,0V30.5H97z"/>
		<rect id="XMLID_16_" x="80" y="53.6" fill="#5D5D5D" width="8.4" height="4.2"/>
		<rect id="XMLID_15_" x="80" y="61.6" fill="#5D5D5D" width="8.4" height="4.2"/>
		<circle id="XMLID_14_" fill="#5D5D5D" cx="84.2" cy="40.7" r="4.1"/>
		
			<rect id="XMLID_13_" x="40.3" y="41.4" transform="matrix(0.7071 -0.7071 0.7071 0.7071 -16.9913 45.9279)" fill="#5D5D5D" width="13.3" height="4.2"/>
		
			<rect id="XMLID_12_" x="37.7" y="48.4" transform="matrix(0.7071 -0.7071 0.7071 0.7071 -20.7349 50.9139)" fill="#5D5D5D" width="26.8" height="4.2"/>
	</g>
</g>
<g id="icon_drying" display="none">
	<path id="XMLID_4_" display="inline" fill="#5D5D5D" d="M62.2,85H49.3c-1,0-1.8-0.8-2.1-1.7l-5.9-25.6c-7.2-2.7-11.9-9.5-11.9-17.2
		c0-10.2,8.2-18.5,18.5-18.5c2.1,0,4.2,0.3,6.3,1l24.3,7.7l-1.2,4L53.2,27H53h-0.1l0,0c-1.5-0.6-3.1-0.9-4.8-0.9
		c-7.8,0-14.2,6.3-14.2,14.2c0,6.3,4,11.7,9.9,13.5c0.8,0.1,1.4,0.8,1.5,1.5l5.9,25.2h8.4l-5.9-25.2c-0.1-0.6,0-1.4,0.5-1.8
		c0.4-0.5,1-0.8,1.6-0.8c5.7,0,10-1.8,14.2-3.6c3.6-1.5,7.2-3,11.7-3.5V35.5c0-0.3,0-0.6,0.1-0.9c2.2-5.1,8.4-9,14.5-9
		c1.2,0,2.1,0.9,2.1,2.1v25.2c0,1.2-0.9,2.1-2.1,2.1c-2.9,0-6-0.9-8.7-2.5l2.2-3.6c1.3,0.9,2.8,1.5,4.3,1.8V30.3
		c-3.4,0.8-6.9,3-8.4,5.8V48c0,1.2-0.9,2.1-2.1,2.1c-4.5,0-8.2,1.5-12.1,3.2c-3.8,1.5-7.9,3.3-13.4,3.8L64,82.4
		c0.1,0.6,0,1.4-0.4,1.8C63.4,84.7,62.8,85,62.2,85z"/>
</g>
<g id="icon_cooling" display="none">
	<g display="inline">
		<path id="XMLID_9_" fill="#5D5D5D" d="M79.9,37.8c0-2.2,1.8-4,4.1-4s4,1.8,4,4s-1.8,4-4,4C81.9,41.8,79.9,40,79.9,37.8z"/>
		<path id="XMLID_8_" fill="#5D5D5D" d="M31.1,57.5v-30c0-1.2,0.9-2.1,2.1-2.1h61.5c1.2,0,2.1,0.9,2.1,2.1v30c0,1.2-0.9,2.1-2.1,2.1
			h-9.8v-4.2h7.5V29.8H35.3V46h54v4.2h-54v5.2h17.5v4.2H33.2C32,59.5,31.1,58.6,31.1,57.5z"/>
		<path id="XMLID_7_" fill="#5D5D5D" d="M62,81.5l-2.7-3.3l3.4-2.8c0.2-0.3,0.2-0.6,0.2-0.9l-4.4-10.3c0,0,0,0,0-0.2
			c-0.6-1.8-0.3-3.8,0.9-5.1c0-0.2,0.1-0.2,0.3-0.3l3.8-3.2l2.7,3.2l-3.5,3c-0.3,0.3-0.3,0.8-0.1,1l4.2,10.3c0,0,0,0,0,0.2
			c0.6,1.8,0.3,3.8-0.9,5.1c-0.2,0.2-0.2,0.2-0.3,0.3L62,81.5z"/>
		<path id="XMLID_6_" fill="#5D5D5D" d="M74.4,81.5l-2.7-3.3l3.5-2.8c0.1-0.3,0.1-0.6,0.1-0.9l-4.2-10.3c0,0,0,0,0-0.2
			c-0.6-1.8-0.3-3.8,0.9-5.1c0-0.2,0.1-0.2,0.3-0.3l3.8-3.2l2.7,3.2l-3.5,3c-0.1,0.3-0.1,0.6-0.1,0.9l4.2,10.4c0,0,0,0,0,0.1
			c0.6,1.8,0.3,3.8-0.9,5.1c-0.1,0.1-0.1,0.1-0.3,0.3L74.4,81.5z"/>
		<polygon id="XMLID_5_" fill="#5D5D5D" points="35.4,69.7 37.6,66.1 42,68.8 42,63.6 46.3,63.6 46.3,68.8 50.6,66.1 52.9,69.7 
			48.1,72.6 52.9,75.6 50.6,79.2 46.3,76.5 46.3,81.7 42,81.7 42,76.5 37.6,79.2 35.4,75.6 40.1,72.6 		"/>
	</g>
</g>
<g id="icon_brewing" display="none">
	<g display="inline">
		<polyline fill="none" stroke="#5D5D5D" stroke-width="4.212" stroke-linejoin="round" stroke-miterlimit="10" points="86.4,82.3 
			39.3,82.3 39.3,43.1 75.9,43.1 81.9,24.8 39.3,24.8 39.3,37.4 		"/>
		<path fill="none" stroke="#5D5D5D" stroke-width="4.212" stroke-linejoin="round" stroke-miterlimit="10" d="M54.2,51.1l-5.1,8.1
			c-1.7,2.5-2.4,5.4-2.4,8.4v7.2h34.4v-7c0-3-0.9-6-2.7-8.5L73,51.2h7.8l4.9,6.6c2,2.5,3,5.7,3,8.8l0,0"/>
	</g>
</g>
<g id="icon_printing" display="none">
	<g display="inline">
		<path id="XMLID_10_" fill="#5D5D5D" d="M99.1,41.5H83.2v-9c0-0.6-0.3-1.2-0.8-1.5L70.7,20.5c-0.4-0.3-0.9-0.6-1.4-0.6H48.6
			c-1.2,0-2.1,0.9-2.1,2.1v16.2h4.2V24.1h17.9L79,33.4v8.1H28.9c-1.2,0-2.1,0.9-2.1,2.1v28.9c0,1.2,0.9,2.1,2.1,2.1h12.3v10.5
			c0,1.2,0.9,2.1,2.1,2.1h41.4c1.2,0,2.1-0.9,2.1-2.1V61.7c0-1.2-0.9-2.1-2.1-2.1H50.2v4.2h32.4V83H45.4V59.5h-2.1
			c-1.2,0-2.1,0.9-2.1,2.1v8.7H31V45.7h66v24.6h-6v4.2h8.1c1.2,0,2.1-0.9,2.1-2.1V43.6C101.3,42.5,100.3,41.5,99.1,41.5z"/>
	</g>
</g>
<g id="icon_EV_charging" display="none">
	<circle display="inline" fill="#5D5D5D" cx="53.5" cy="55.9" r="3.7"/>
	<rect x="26.8" y="64" display="inline" fill="#5D5D5D" width="17.3" height="4"/>
	<path display="inline" fill="#5D5D5D" d="M101.5,37.2h-2v-6.7h-4v6.7h-4.3v-6.7h-4v6.7h-1.8c-1.1,0-2,0.9-2,2v7.6
		c0,4.4,3.6,8,8,8.1l0.1,0v14.4c0,2.4-2,4.4-4.4,4.4s-4.4-2-4.4-4.4v-4.4c0-3.8-3.2-6.9-7.1-6.9h-8.4v-3c0-3-0.7-5.9-2.2-8.5
		L64.3,45l1.4-2.2c0.5-0.7,1.1-1.1,1.9-1.1H75v-4h-7.4c-2.1,0-4.2,1.1-5.3,2.8l-0.2,0.7l-9.3-16.6c-1.8-2.9-4.9-4.7-8.2-4.7H26.8v4
		h17.8c1.9,0,3.8,1.1,4.8,2.7L60,45.4l1.7,2.9c1.1,2.1,1.7,4.4,1.7,6.5v28.2h-9.5v-5.5h1.1c2,0,3.8-0.7,5.2-2.2l-2.8-2.8
		c-0.7,0.6-1.5,1-2.4,1H26.8v4h22.9v5.6c0,2.2,1.8,3.9,3.9,3.9h9.8c2.2,0,3.9-1.8,3.9-3.9V62h8.4c1.7,0,3,1.4,3,3v4.4
		c0,4.6,3.8,8.4,8.4,8.4s8.4-3.8,8.4-8.4V53c0-1.1-0.9-2-2-2h-2c-2.2,0-4.1-1.8-4.1-4.1v-5.6h12.2v5.6c0,0.9-0.3,1.7-0.8,2.5
		l3.1,2.6c1.1-1.4,1.7-3.1,1.7-4.9v-7.6C103.6,38.1,102.7,37.2,101.5,37.2z"/>
</g>
</svg>
