<svg id="ombra_ambientale" data-name="ombra ambientale" xmlns="http://www.w3.org/2000/svg" xmlns:xlink="http://www.w3.org/1999/xlink" viewBox="0 0 481 301">
  <defs>
    <style>
      .battery-phone-cls-1 {
        opacity: 0.4;
      }

      .battery-phone-cls-2 {
        fill: url(#radial-gradient);
      }

      .battery-phone-cls-3 {
        fill: #33aae4;
      }

      .battery-phone-cls-3, .battery-phone-cls-4 {
        stroke: #fff;
        stroke-linejoin: round;
        stroke-width: 4px;
      }

      .battery-phone-cls-4 {
        fill: none;
      }
    </style>
    <radialGradient id="radial-gradient" cx="57.87" cy="9666.92" fy="9653.770841582338" r="35.87" gradientTransform="translate(-31.86 -1814.66) scale(1.23 0.22)" gradientUnits="userSpaceOnUse">
      <stop offset="0" stop-opacity="0.5"/>
      <stop offset="1" stop-color="#41b9e6" stop-opacity="0"/>
    </radialGradient>
  </defs>
  <title>illustration</title>
  <g class="battery-phone-cls-1">
    <path class="battery-phone-cls-2" d="M78.45,271.36c0,4.68-12.71,8.48-39.33,8.48S-0.21,276-.21,271.36s12.71-8.48,39.33-8.48S78.45,266.67,78.45,271.36Z"/>
  </g>
  <g>
    <rect class="battery-phone-cls-3" x="7.21" y="189.68" width="45.68" height="76.67"/>
    <line class="battery-phone-cls-4" x1="52.89" y1="250.19" x2="7.21" y2="250.19"/>
    <line class="battery-phone-cls-4" x1="25.83" y1="258.69" x2="33.91" y2="258.69"/>
    <line class="battery-phone-cls-4" x1="7.21" y1="200.92" x2="52.89" y2="200.92"/>
  </g>
  <path class="battery-phone-cls-4" d="M196.7,158.22a19.5,19.5,0,0,0-19.5,19.5V260.5a5.86,5.86,0,0,1-5.86,5.86H60A8.27,8.27,0,0,1,53.39,263"/>
</svg>
