<svg id="Layer_6" data-name="Layer 6" xmlns="http://www.w3.org/2000/svg" viewBox="0 0 1024 415">
  <title>illustration_battery_carnormal</title>
  <g style="opacity: 0.30000000000000004">
    <path d="M640.32,290.79V337a5.51,5.51,0,0,0,5.51,5.51h19.52a5.51,5.51,0,0,0,5.51-5.51V321.55" style="fill: none;stroke: #fff;stroke-linejoin: round;stroke-width: 2.92390041532478px"/>
    <path d="M868.55,207.31a2.66,2.66,0,0,0,2.66-2.66V193.72a2.66,2.66,0,0,1,3.43-2.55l18.6,5.59a7.38,7.38,0,0,1,5.26,7.07h0a7.38,7.38,0,0,1-7.38,7.38H879l-5,0-2.32,2a4.85,4.85,0,0,0-1.11,6L878,232.86a45.53,45.53,0,0,1,5.56,21.8V294a16,16,0,0,1-4.7,11.34l-11.52,11.52a16,16,0,0,1-11.34,4.7H667.88a16,16,0,0,1-11.34-4.7L645,305.33a16,16,0,0,1-4.7-11.34V254.66a45.53,45.53,0,0,1,5.56-21.8l7.42-13.61a4.85,4.85,0,0,0-1.11-6l-2.32-2-5,0H632.76a7.38,7.38,0,0,1-7.38-7.38h0a7.38,7.38,0,0,1,5.26-7.07l18.6-5.59a2.66,2.66,0,0,1,3.43,2.55v10.93a2.66,2.66,0,0,0,2.66,2.66" style="fill: none;stroke: #fff;stroke-linejoin: round;stroke-width: 2.92390041532478px"/>
    <path d="M883.56,290.79V337a5.51,5.51,0,0,1-5.51,5.51H858.53A5.51,5.51,0,0,1,853,337V321.55" style="fill: none;stroke: #fff;stroke-linejoin: round;stroke-width: 2.92390041532478px"/>
    <path d="M665.7,235.9l15,9.29A29.13,29.13,0,0,0,696,249.55h131.8a29.13,29.13,0,0,0,15.33-4.36l14.94-9.25" style="fill: none;stroke: #fff;stroke-linejoin: round;stroke-width: 2.92390041532478px"/>
    <path d="M822.75,255.84h0a8.59,8.59,0,0,0,8.59,8.59h29.18a14,14,0,0,0,14-14v-3.21A16,16,0,0,0,869.78,236l-4.71-4.71-1-23.94L842.5,170.7a22,22,0,0,0-18.92-10.81H700.3a22,22,0,0,0-18.92,10.81l-21.57,36.62-1,23.94L654.1,236a16,16,0,0,0-4.68,11.31v3.21a14,14,0,0,0,14,14h29.18a8.59,8.59,0,0,0,8.59-8.59h0" style="fill: none;stroke: #fff;stroke-linejoin: round;stroke-width: 2.92390041532478px"/>
    <polyline points="822.75 300.63 761.94 300.63 701.13 300.63" style="fill: none;stroke: #fff;stroke-linejoin: round;stroke-width: 2.92390041532478px"/>
    <path d="M844.67,192.77l-12.23-20.18a9.78,9.78,0,0,0-8.49-4.93h-124a9.78,9.78,0,0,0-8.49,4.93l-14,24.51a8.18,8.18,0,0,0,6.67,12.23L752.18,213a182.68,182.68,0,0,0,19.52,0l68.07-3.64a8.18,8.18,0,0,0,6.67-12.23" style="fill: none;stroke: #fff;stroke-linejoin: round;stroke-width: 2.92390041532478px"/>
  </g>
</svg>
