<svg id="Layer_1" data-name="Layer 1" xmlns="http://www.w3.org/2000/svg" viewBox="0 0 1024 415">
  <title>illustration_battery_carfront</title>
  <g style="opacity: 0.30000000000000004">
    <path d="M736.32,261.55A41.08,41.08,0,0,0,744.43,237H725.85a6.7,6.7,0,0,1-6.7-6.7v-2.12a6.7,6.7,0,0,1,6.7-6.7h36.46a6.7,6.7,0,0,1,6.7,6.7v2.12a6.7,6.7,0,0,1-6.7,6.7H749.65" style="fill: none;stroke: #fff;stroke-linejoin: round;stroke-width: 4px"/>
    <path d="M524.88,261.55A41.08,41.08,0,0,1,516.77,237h18.57a6.7,6.7,0,0,0,6.7-6.7v-2.12a6.7,6.7,0,0,0-6.7-6.7H498.88a6.7,6.7,0,0,0-6.7,6.7v2.12a6.7,6.7,0,0,0,6.7,6.7h12.66" style="fill: none;stroke: #fff;stroke-linejoin: round;stroke-width: 4px"/>
    <path d="M658.37,168.72c-6.75-13.41-15.41-23.59-27.56-23.83v0h-0.43v0c-19.8.39-29.31,26.16-37.44,50.3" style="fill: none;stroke: #fff;stroke-linejoin: round;stroke-width: 4px"/>
    <path d="M681,227.71c-6.15-11-11.47-33.83-19.74-52.75H746v17.67a8.12,8.12,0,0,1-8.12,8.12H677.36" style="fill: none;stroke: #fff;stroke-linejoin: round;stroke-width: 4px"/>
    <path d="M592.67,175H515.19v17.67a8.12,8.12,0,0,0,8.12,8.12h67.11c-3.61,10.87-6.8,20.79-10.26,27" style="fill: none;stroke: #fff;stroke-linejoin: round;stroke-width: 4px"/>
    <path d="M839.54,348.31l-15.13-38.2c-5.6-14.14-25.45-14.56-31.65-.68L774.47,345.2A22.39,22.39,0,0,1,754,358.46H507.36a22.39,22.39,0,0,1-20.44-13.26l-18.28-35.77c-6.2-13.88-26.05-13.46-31.65.68l-15.13,38.2" style="fill: none;stroke: #fff;stroke-linejoin: round;stroke-width: 4px"/>
    <path d="M764.13,347.64v-76A11.64,11.64,0,0,1,775.77,260h58.38a11.64,11.64,0,0,1,11.64,11.64v91.93a11.64,11.64,0,0,1-11.64,11.64H427.24a11.64,11.64,0,0,1-11.64-11.64V271.68A11.64,11.64,0,0,1,427.24,260h58.38a11.64,11.64,0,0,1,11.64,11.64v76" style="fill: none;stroke: #fff;stroke-linejoin: round;stroke-width: 4px"/>
    <path d="M598.67,227.62c0-20.58,29.43-19.09,31.93-18.92,2.5-.16,31.93-1.66,31.93,18.92V251c0,4.16-2.71,7.53-6,7.53H604.72c-3.34,0-6-3.37-6-7.53v-14.3a2.52,2.52,0,0,0-2.52-2.52H572.79C556.45,234.23,540.12,273,504,273h-7.7" style="fill: none;stroke: #fff;stroke-linejoin: round;stroke-width: 4px"/>
    <path d="M669.53,234.23h18.88c16.33,0,32.67,38.73,68.77,38.73h6.7l-15.3.24c-78.23,0-62.75,53.19-92.94,53.19h-50.1c-28,0-16.67-45.92-77.68-52.43" style="fill: none;stroke: #fff;stroke-linejoin: round;stroke-width: 4px"/>
  </g>
</svg>
