<?xml version="1.0" encoding="utf-8"?>
<!-- Generator: Adobe Illustrator 18.1.1, SVG Export Plug-In . SVG Version: 6.00 Build 0)  -->
<svg version="1.1" xmlns="http://www.w3.org/2000/svg" xmlns:xlink="http://www.w3.org/1999/xlink" x="0px" y="0px"
	 viewBox="0 0 340 260" enable-background="new 0 0 340 260" xml:space="preserve">
<g id="bg">
	<g>
		<g>
			<g opacity="0.3">
				<path fill="none" stroke="#FFFFFF" stroke-width="3" stroke-linejoin="round" stroke-miterlimit="10" d="M243.2,188.9v33.7
					c0,2.2,1.8,4,4,4h14.3c2.2,0,4-1.8,4-4v-11.2"/>
				<path fill="none" stroke="#FFFFFF" stroke-width="3" stroke-linejoin="round" stroke-miterlimit="10" d="M340,211.3h-76.7
					c-3.1,0-6.1-1.2-8.3-3.4l-8.4-8.4c-2.2-2.2-3.4-5.2-3.4-8.3v-28.7c0-5.6,1.4-11,4.1-15.9l5.4-9.9c0.8-1.5,0.5-3.3-0.8-4.4
					l-1.7-1.4l-3.6,0h-8.8c-3,0-5.4-2.4-5.4-5.4v0c0-2.4,1.6-4.5,3.8-5.2l13.6-4.1c1.2-0.4,2.5,0.6,2.5,1.9v8c0,1.1,0.9,1.9,1.9,1.9
					"/>
				<path fill="none" stroke="#FFFFFF" stroke-width="3" stroke-linejoin="round" stroke-miterlimit="10" d="M261.6,150.9l11.1,6.5
					c3.4,2,7.3,3,11.3,2.9l56,0.6"/>
				<path fill="none" stroke="#FFFFFF" stroke-width="3" stroke-linejoin="round" stroke-miterlimit="10" d="M340,93.3h-53.1
					c-5.7,0-10.9,3-13.8,7.9l-15.7,26.7l-0.7,17.5l-3.4,3.4c-2.2,2.2-3.4,5.2-3.4,8.3v2.3c0,5.6,4.6,10.2,10.2,10.2h21.3
					c3.5,0,6.3-2.8,6.3-6.3l0,0"/>
				
					<line fill="none" stroke="#FFFFFF" stroke-width="3" stroke-linejoin="round" stroke-miterlimit="10" x1="340" y1="196.1" x2="287.5" y2="196.1"/>
				<path fill="none" stroke="#FFFFFF" stroke-width="3" stroke-linejoin="round" stroke-miterlimit="10" d="M340,99h-53.3
					c-2.6,0-4.9,1.4-6.2,3.6l-10.2,17.9c-2.2,3.9,0.4,8.7,4.9,8.9l49.7,2.7c4.7,0.3,10.4,0.3,15.2,0"/>
			</g>
			<g>
				<g opacity="0.3">
					<g>
						<path fill="none" stroke="#FFFFFF" stroke-width="3" stroke-linejoin="round" stroke-miterlimit="10" d="M59.8,163.2
							c2.8-3.8,4.5-8.5,4.5-13.5h0H54c-2,0-3.7-1.6-3.7-3.7v-1.2c0-2,1.6-3.7,3.7-3.7h20.1c2,0,3.7,1.6,3.7,3.7v1.2
							c0,2-1.6,3.7-3.7,3.7h-7"/>
					</g>
					<path fill="none" stroke="#FFFFFF" stroke-width="3" stroke-linejoin="round" stroke-miterlimit="10" d="M16.9,112.1
						C13.2,104.7,6.7,99.1,0,99v0c0,0,0,0,0,0c0,0,0,0,0,0v0"/>
					<path fill="none" stroke="#FFFFFF" stroke-width="3" stroke-linejoin="round" stroke-miterlimit="10" d="M29.4,144.5
						c-3.4-6-6.3-18.6-10.9-29l46.6,0v9.7c0,2.5-2,4.5-4.5,4.5H27.3"/>
					<path fill="none" stroke="#FFFFFF" stroke-width="3" stroke-linejoin="round" stroke-miterlimit="10" d="M0,225.7"/>
					<path fill="none" stroke="#FFFFFF" stroke-width="3" stroke-linejoin="round" stroke-miterlimit="10" d="M116.5,210.9l-8.3-21
						c-3.1-7.8-14-8-17.4-0.4l-10.1,19.7c-2,4.4-6.4,7.3-11.2,7.3H0"/>
					<path fill="none" stroke="#FFFFFF" stroke-width="3" stroke-linejoin="round" stroke-miterlimit="10" d="M0,210.5"/>
					<path fill="none" stroke="#FFFFFF" stroke-width="3" stroke-linejoin="round" stroke-miterlimit="10" d="M75.1,210.5v-41.8
						c0-3.5,2.9-6.4,6.4-6.4h32.1c3.5,0,6.4,2.9,6.4,6.4V194v25.3c0,3.5-2.9,6.4-6.4,6.4H0"/>
					<path fill="none" stroke="#FFFFFF" stroke-width="3" stroke-linejoin="round" stroke-miterlimit="10" d="M0,134.1
						c1.4-0.1,19.2-0.9,19.2,10.4v12.9c0,2.3-1.5,4.1-3.3,4.1H0l0,0"/>
					<path fill="none" stroke="#FFFFFF" stroke-width="3" stroke-linejoin="round" stroke-miterlimit="10" d="M23,148.1h10.4
						c9,0,18,21.3,37.8,21.3h3.7l-8.4,0.1c-43,0-34.5,29.3-51.1,29.3c-8,0-7.4,0-15.4,0"/>
				</g>
			</g>
		</g>
		<path fill="none" stroke="#FFFFFF" stroke-width="3" stroke-linejoin="round" stroke-miterlimit="10" d="M202.3,215.7h-54.8
			c-1.6,0-2.9,1.3-2.9,2.9v8.2h60.5v-8.2C205.2,217,203.9,215.7,202.3,215.7z"/>
		<path fill="none" stroke="#FFFFFF" stroke-width="3" stroke-linejoin="round" stroke-miterlimit="10" d="M168,128.4h13.9
			c6,0,10.9,4.8,11.1,10.8l2,76.5h-40l2-76.5C157.1,133.2,162,128.4,168,128.4z"/>
	</g>
	<path opacity="0.3" fill="none" stroke="#FFFFFF" stroke-width="2" stroke-linejoin="round" stroke-miterlimit="10" d="
		M193.4,158.8L193.4,158.8c4.7,0,8.6,3.8,8.6,8.6v10.9c0,4.7,3.8,8.6,8.6,8.6h32.6"/>
	<path opacity="0.3" fill="none" stroke="#FFFFFF" stroke-width="2" stroke-linejoin="round" stroke-miterlimit="10" d="
		M154.5,158.8L154.5,158.8c-4.7,0-8.6,3.8-8.6,8.6v10.9c0,4.7-3.8,8.6-8.6,8.6H121"/>
	
		<line fill="none" stroke="#FFFFFF" stroke-width="3" stroke-linejoin="round" stroke-miterlimit="10" x1="179.3" y1="200.1" x2="184.8" y2="200.1"/>
	<g>
		
			<line fill="none" stroke="#FFFFFF" stroke-width="3" stroke-linejoin="round" stroke-miterlimit="10" x1="167.3" y1="200.1" x2="172.8" y2="200.1"/>
		
			<line fill="none" stroke="#FFFFFF" stroke-width="3" stroke-linejoin="round" stroke-miterlimit="10" x1="167.3" y1="193" x2="172.8" y2="193"/>
		
			<line fill="none" stroke="#FFFFFF" stroke-width="3" stroke-linejoin="round" stroke-miterlimit="10" x1="167.3" y1="185.8" x2="172.8" y2="185.8"/>
		
			<line fill="none" stroke="#FFFFFF" stroke-width="3" stroke-linejoin="round" stroke-miterlimit="10" x1="167.3" y1="178.7" x2="172.8" y2="178.7"/>
		
			<line fill="none" stroke="#FFFFFF" stroke-width="3" stroke-linejoin="round" stroke-miterlimit="10" x1="167.3" y1="171.6" x2="172.8" y2="171.6"/>
		
			<line fill="none" stroke="#FFFFFF" stroke-width="3" stroke-linejoin="round" stroke-miterlimit="10" x1="167.3" y1="150.1" x2="172.8" y2="150.1"/>
		
			<line fill="none" stroke="#FFFFFF" stroke-width="3" stroke-linejoin="round" stroke-miterlimit="10" x1="167.3" y1="157.3" x2="172.8" y2="157.3"/>
		
			<line fill="none" stroke="#FFFFFF" stroke-width="3" stroke-linejoin="round" stroke-miterlimit="10" x1="167.3" y1="164.4" x2="172.8" y2="164.4"/>
	</g>
</g>
<g id="UI">
</g>
</svg>
