<svg id="Layer_1" data-name="Layer 1" xmlns="http://www.w3.org/2000/svg" viewBox="0 0 642.9 297.8">
  <title>Artboard 1</title>
  <path d="M148,142.43,299.76,82.88a3.66,3.66,0,0,1,4.33,1.3L305.34,86a4.42,4.42,0,0,0,2.25,1.66l35.49,11.45a7.34,7.34,0,0,0,4,.15l7-.92a6.54,6.54,0,0,1,7.41,3.45l9.75,21.68a2,2,0,0,0,2.39,1.09c3.94-1.2,13.94-3,18.42,7.16,4.55,10.36-3.23,18.28-6.41,21a2.81,2.81,0,0,0-1,2.64l3.07,17.07a7.73,7.73,0,0,1,0,2.67l-2,11.51-1.4,17.38c-.1,1.26-.9,3.29-2.07,3.77L223.08,271a4.63,4.63,0,0,1-6-2.46l-12.57-29a3,3,0,0,0-2.92-1.84c-6.39.27-25.36.5-31.15-10.78a34.16,34.16,0,0,1-2.55-23.37,2.62,2.62,0,0,1,2.95-2L185,203.79a3.38,3.38,0,0,0,3.66-4.57l-17-43.11-23.66-8.45A2.79,2.79,0,0,1,148,142.43Z" style="fill: none;stroke: #b2b2b2;stroke-miterlimit: 10;stroke-width: 6px"/>
  <path d="M393.72,143.55s.71-9.29,9.52-12.69S481.16,101,481.16,101s5.88-3,2.7-6.55-6,2.12-6,2.12-.24,2-4.7,3.64-74.75,28.68-74.75,28.68a9.55,9.55,0,0,1-8-.71" style="fill: none;stroke: #b2b2b2;stroke-linecap: round;stroke-linejoin: round;stroke-width: 3px"/>
</svg>
