<?xml version="1.0" encoding="utf-8"?>
<!-- Generator: Adobe Illustrator 19.0.0, SVG Export Plug-In . SVG Version: 6.00 Build 0)  -->
<svg version="1.1" id="Livello_1" xmlns="http://www.w3.org/2000/svg" xmlns:xlink="http://www.w3.org/1999/xlink" x="0px" y="0px"
	 viewBox="-588 588.5 14.2 14" enable-background="new -588 588.5 14.2 14" xml:space="preserve">
<title>av-data</title>
<g id="Layer_2">
	<g id="graphic">
		<path fill="#666666" d="M-578.7,600c-0.1-0.1-0.4-0.2-0.5,0c0,0,0,0,0,0l-1.3,1.3v-4.4c0-0.2-0.1-0.4-0.3-0.4s-0.4,0.1-0.4,0.3
			c0,0,0,0.1,0,0.1v4.4l-1.3-1.3c-0.1-0.1-0.4-0.2-0.5,0c0,0,0,0,0,0c-0.1,0.1-0.2,0.4,0,0.5c0,0,0,0,0,0l1.9,1.9
			c0.1,0.1,0.2,0.1,0.3,0.1c0.1,0,0.2,0,0.3-0.1l1.9-1.9C-578.5,600.4-578.5,600.1-578.7,600C-578.7,600-578.7,600-578.7,600z"/>
		<path fill="#666666" d="M-576.7,592.4c-0.2-2.3-2.3-4-4.6-3.8c-2.2,0.2-3.8,2-3.8,4.2c0,0.2,0,0.4,0,0.6h-0.1
			c-1.5,0-2.8,1.2-2.8,2.8c0,1.5,1.2,2.8,2.8,2.8h2.4c0.2,0,0.4-0.2,0.3-0.4c0-0.2-0.2-0.3-0.3-0.3h-2.4c-1.1,0-2-0.9-2-2s0.9-2,2-2
			c0.2,0,0.4,0,0.5,0.1c0.1,0,0.3,0,0.4-0.1c0.1-0.1,0.1-0.2,0.1-0.4c-0.1-0.3-0.1-0.6-0.1-0.9c-0.1-1.9,1.4-3.5,3.3-3.7
			c1.9-0.1,3.5,1.4,3.7,3.3c0,0.1,0,0.2,0,0.4c0,0.2,0.2,0.4,0.4,0.4c1.4,0.1,2.4,1.3,2.3,2.7c-0.1,1.2-1.1,2.2-2.3,2.3h-1.9
			c-0.2,0-0.4,0.2-0.3,0.4c0,0.2,0.2,0.3,0.3,0.3h2c1.8,0,3.2-1.5,3.2-3.3C-573.8,594-575,592.6-576.7,592.4L-576.7,592.4z"/>
	</g>
</g>
</svg>
