<svg xmlns="http://www.w3.org/2000/svg" viewBox="0 0 14.25 14.02"><defs><style>.cls-1{fill:#fff;}</style></defs><title>av-data</title><g id="Layer_2" data-name="Layer 2"><g id="graphic"><path class="cls-1" d="M9.32,11.44a.36.36,0,0,0-.54,0L7.51,12.7V8.34a.39.39,0,1,0-.77,0V12.7L5.47,11.44a.36.36,0,0,0-.54,0,.38.38,0,0,0,0,.54l1.92,1.93a.43.43,0,0,0,.27.11.43.43,0,0,0,.28-.11L9.32,12A.38.38,0,0,0,9.32,11.44Z"/><path class="cls-1" d="M11.35,3.87a4.24,4.24,0,0,0-8.46.37,3.86,3.86,0,0,0,0,.58H2.79a2.79,2.79,0,0,0,0,5.58H5.2a.39.39,0,0,0,0-.77H2.79a2,2,0,0,1,0-4,1.93,1.93,0,0,1,.53.07.38.38,0,0,0,.38-.1.4.4,0,0,0,.09-.38,3.38,3.38,0,0,1-.13-.94,3.47,3.47,0,1,1,6.93,0,.39.39,0,0,0,.39.38,2.51,2.51,0,0,1,0,5H9.05a.39.39,0,0,0,0,.77H11a3.28,3.28,0,0,0,.37-6.53Z"/></g></g></svg>