<?xml version="1.0" encoding="utf-8"?>
<!-- Generator: Adobe Illustrator 19.0.0, SVG Export Plug-In . SVG Version: 6.00 Build 0)  -->
<svg version="1.1" id="car" xmlns="http://www.w3.org/2000/svg" xmlns:xlink="http://www.w3.org/1999/xlink" x="0px" y="0px"
	 viewBox="-91 340.7 412.4 161.2" enable-background="new -91 340.7 412.4 161.2" xml:space="preserve">
<g id="car_ill">
	<path fill="none" stroke="#FFFFFF" stroke-width="4" stroke-linejoin="round" d="M254.1,374.4c0,0-0.1,0.7-23,0.7s-23-0.7-23-0.7
		c-1.7,0-3.1-1.4-3.1-3.1c0,0,0,0,0,0v-14.9c0-1.7,1.4-3.1,3.1-3.1c0,0,0,0,0,0c0,0,0-0.7,23-0.7s23,0.7,23,0.7
		c1.7,0,3.1,1.4,3.1,3.1v14.9C257.2,373,255.8,374.4,254.1,374.4C254.1,374.4,254.1,374.4,254.1,374.4z"/>
	<path fill="none" stroke="#FFFFFF" stroke-width="4" stroke-linejoin="round" d="M-44,369.4v1.4c0,1.8,1.4,3.2,3.2,3.2
		c0,0,0.1,0.8,24,0.8s24-0.8,24-0.8c1.8,0,3.3-1.4,3.3-3.2c0,0,0-0.1,0-0.1v-17c0-1.8-1.4-3.2-3.2-3.2l0,0c0,0,0-0.8-24-0.8
		s-24,0.8-24,0.8c-1.8,0-3.2,1.4-3.2,3.2v1.4"/>
	<path fill="none" stroke="#FFFFFF" stroke-width="4" stroke-linejoin="round" d="M265.1,354l32.6,8.6c1.4,0.4,2.1,1.8,1.8,3.1
		c-0.2,0.9-0.9,1.5-1.8,1.8l-7,1.9c-7,1.9-14.1,3.1-21.4,3.5l-4.8,0.3c-1.3,0.1-2.3-0.9-2.4-2.2c0,0,0-0.1,0-0.1v-14.7
		c0-1.3,1-2.3,2.3-2.3C264.7,353.9,264.9,353.9,265.1,354z"/>
	<line fill="none" stroke="#FFFFFF" stroke-width="4" stroke-linejoin="round" x1="297.8" y1="367.5" x2="297.8" y2="412.8"/>
	<line fill="none" stroke="#FFFFFF" stroke-width="4" stroke-linejoin="round" x1="278.6" y1="390.1" x2="278.6" y2="412.5"/>
	<polyline fill="none" stroke="#FFFFFF" stroke-width="4" stroke-linejoin="round" points="269.4,373.1 269.4,390.1 282,390.1 
		282,371.4 	"/>
	<path fill="none" stroke="#FFFFFF" stroke-width="4" stroke-linejoin="round" d="M119.2,392.8l-3.8-24.5c-0.2-1.4,0.7-2.6,2.1-2.8
		c0.1,0,0.3,0,0.4,0h15.3c4.5,0,8.5,2.8,10,7.1l9.3,26.7"/>
	<path fill="none" stroke="#FFFFFF" stroke-width="4" stroke-linejoin="round" d="M159.2,395.9L159.2,395.9c2.5-1.1,3.6-4,2.5-6.5
		c-0.3-0.7-0.8-1.3-1.3-1.8l-3.7-3.2c-0.7-0.6-1.7-0.5-2.3,0.2c-0.2,0.3-0.4,0.7-0.4,1v13.8"/>
	<path fill="none" stroke="#FFFFFF" stroke-width="4" stroke-linejoin="round" d="M159.2,446.8L159.2,446.8c2.5,1.1,3.6,4,2.5,6.5
		c-0.3,0.7-0.8,1.3-1.3,1.8l-3.7,3.2c-0.7,0.6-1.7,0.5-2.3-0.2c-0.2-0.3-0.4-0.7-0.4-1v-13.8"/>
	<polyline fill="none" stroke="#FFFFFF" stroke-width="4" stroke-linejoin="round" points="-80.6,421.1 -80.6,414.8 -70.2,414.3 	
		"/>
	<path fill="none" stroke="#FFFFFF" stroke-width="4" stroke-linejoin="round" d="M116.3,391.6c-19.8-4.9-40.1-7.4-60.5-7.5
		c-15,0-33.4,7.7-43.7,13.6s-24.5,16.5-48.4,16.5"/>
	<path fill="none" stroke="#FFFFFF" stroke-width="4" stroke-linejoin="round" d="M-43.6,369.4l-19.9-2c-1.1-0.1-2-1.1-2-2.2v-5.9
		c0-1.1,0.9-2.1,2-2.2l19.9-2c1.2-0.1,2.3,0.8,2.4,2c0,0,0,0.1,0,0.1v9.9c0,1.2-1,2.2-2.2,2.2C-43.5,369.4-43.6,369.4-43.6,369.4z"
		/>
	<path fill="none" stroke="#FFFFFF" stroke-width="4" stroke-linejoin="round" d="M92.3,421.2c0,3.5-2.8,6.3-6.3,6.3l0,0
		c-3.5,0-13.4-2.8-13.4-6.3c0-3.5,10-6.3,13.4-6.3C89.5,414.9,92.3,417.7,92.3,421.2L92.3,421.2z"/>
	<path fill="none" stroke="#FFFFFF" stroke-width="4" stroke-linejoin="round" d="M-59.4,377.9c0-5,4.1-9.1,9.1-9.1l0,0"/>
	<path fill="none" stroke="#FFFFFF" stroke-width="4" stroke-linejoin="round" d="M-44,379.5c5.1,13.2,7.9,27.3,8.1,41.5v0.7
		c-0.2,14.2-2.9,28.2-8.1,41.5"/>
	<path fill="none" stroke="#FFFFFF" stroke-width="4" stroke-linejoin="round" d="M17.2,489.4c42.9,0,48.4-4.2,66.1-8.8
		c10.4-2.7,19.5-9,22.2-19.5c1.3-5.2,5.5-9.1,10.7-10.1c60.8-14.1,123.1-21.2,185.5-21.2h11c3.6,0,6.6-2.9,6.6-6.6v-3.8
		c0-3.6-2.9-6.6-6.6-6.6h-11c-62.4,0-124.7-7.1-185.5-21.2c-5.2-1-9.4-4.9-10.7-10.1c-2.7-10.4-11.8-16.8-22.2-19.5
		c-17.8-4.6-23.2-8.8-66.1-8.8"/>
	<path fill="none" stroke="#FFFFFF" stroke-width="4" stroke-linejoin="round" d="M254.1,468.3c0,0-0.1-0.7-23-0.7s-23,0.7-23,0.7
		c-1.7,0-3.1,1.4-3.1,3.1v14.9c0,1.7,1.4,3.1,3.1,3.1c0,0,0,0.7,23,0.7s23-0.7,23-0.7c1.7,0,3.1-1.4,3.1-3.1v-14.9
		C257.2,469.6,255.8,468.3,254.1,468.3z"/>
	<path fill="none" stroke="#FFFFFF" stroke-width="4" stroke-linejoin="round" d="M-44,473.3v-1.4c0-1.8,1.4-3.2,3.2-3.2
		c0,0,0.1-0.8,24-0.8s24,0.8,24,0.8c1.8,0,3.2,1.4,3.2,3.2v17c0,1.8-1.4,3.2-3.2,3.2c0,0,0,0.8-24,0.8s-24-0.8-24-0.8
		c-1.8,0-3.2-1.4-3.2-3.2v-1.4"/>
	<path fill="none" stroke="#FFFFFF" stroke-width="4" stroke-linejoin="round" d="M233.1,467.5l7.3-23.1c1.7-5.2,5.1-9.7,9.6-12.8
		l0.4-0.2"/>
	<path fill="none" stroke="#FFFFFF" stroke-width="4" stroke-linejoin="round" d="M222.4,467.6l-11.9-21.2
		c-2.4-4.3-6.2-7.8-10.7-9.9"/>
	<line fill="none" stroke="#FFFFFF" stroke-width="4" stroke-linejoin="round" x1="231.1" y1="467.5" x2="231.1" y2="432.8"/>
	<path fill="none" stroke="#FFFFFF" stroke-width="4" stroke-linejoin="round" d="M233.1,374.7l7.3,23.1c1.7,5.2,5.1,9.7,9.6,12.8
		l0.4,0.2"/>
	<path fill="none" stroke="#FFFFFF" stroke-width="4" stroke-linejoin="round" d="M222.4,374.6l-11.9,21.2
		c-2.4,4.3-6.2,7.8-10.7,9.9"/>
	<line fill="none" stroke="#FFFFFF" stroke-width="4" stroke-linejoin="round" x1="231.1" y1="374.7" x2="231.1" y2="409.4"/>
	<path fill="none" stroke="#FFFFFF" stroke-width="4" stroke-linejoin="round" d="M265.1,488.7l32.6-8.6c1.4-0.4,2.1-1.8,1.8-3.1
		c-0.2-0.9-0.9-1.5-1.8-1.8l-7-1.9c-7-1.9-14.1-3.1-21.4-3.5l-4.8-0.3c-1.3-0.1-2.3,0.9-2.4,2.2c0,0,0,0.1,0,0.1v14.7
		c0,1.3,1,2.3,2.3,2.3C264.7,488.7,264.9,488.7,265.1,488.7z"/>
	<line fill="none" stroke="#FFFFFF" stroke-width="4" stroke-linejoin="round" x1="297.8" y1="475.2" x2="297.8" y2="429.8"/>
	<line fill="none" stroke="#FFFFFF" stroke-width="4" stroke-linejoin="round" x1="278.6" y1="452.5" x2="278.6" y2="430.1"/>
	<polyline fill="none" stroke="#FFFFFF" stroke-width="4" stroke-linejoin="round" points="269.4,469.5 269.4,452.5 282,452.5 
		282,471.2 	"/>
	<path fill="none" stroke="#FFFFFF" stroke-width="4" stroke-linejoin="round" d="M119.2,449.9l-3.8,24.4c-0.2,1.4,0.7,2.6,2.1,2.8
		c0.1,0,0.3,0,0.4,0h15.3c4.5,0,8.5-2.8,10-7.1l9.3-26.6"/>
	<polygon fill="none" stroke="#FFFFFF" stroke-width="4" stroke-linejoin="round" points="-70.2,378 -70.2,421.5 -70.2,428.3 
		-70.2,464.7 -49.8,464.7 -49.8,428.3 -49.8,421.5 -49.8,378 	"/>
	<polyline fill="none" stroke="#FFFFFF" stroke-width="4" stroke-linejoin="round" points="-80.6,421 -80.6,427.4 -70.2,427.9 	"/>
	<path fill="none" stroke="#FFFFFF" stroke-width="4" stroke-linejoin="round" d="M116.3,451c-19.8,4.9-40.1,7.4-60.5,7.4
		c-15,0-33.4-7.7-43.7-13.6s-24.5-16.5-48.4-16.5"/>
	<path fill="none" stroke="#FFFFFF" stroke-width="4" stroke-linejoin="round" d="M12.2,421.6L12.2,421.6c0,2,1.2,3.9,3,4.7
		c9.6,4.3,40.6,17.2,70,17.2c35.4,0,58.3-5.2,58.3-5.2l-2.6-1.9c-2.1-1.5-4.7-2.4-7.3-2.4h-26.3c-3.8,0-7-3.2-6.9-7v-11.3
		c0-3.8,3.1-6.9,6.9-7h26.4c2.6,0,5.2-0.9,7.3-2.4l2.6-1.9c0,0-22.9-5.2-58.3-5.2c-29.4,0-60.4,12.8-70,17.1c-1.8,0.8-3,2.7-3,4.7
		L12.2,421.6L12.2,421.6z"/>
	<path fill="none" stroke="#FFFFFF" stroke-width="4" stroke-linejoin="round" d="M143.5,438.2l14-2.1c3.6-0.5,6.3-3.7,6.3-7.3v-15
		c0-3.7-2.7-6.8-6.3-7.3l-14-2.1"/>
	<path fill="none" stroke="#FFFFFF" stroke-width="4" stroke-linejoin="round" d="M-43.6,473.3l-19.9,2c-1.1,0.1-2,1.1-2,2.2v5.8
		c0,1.1,0.9,2.1,2,2.2l19.9,2c1.2,0.1,2.3-0.8,2.4-2c0-0.1,0-0.1,0-0.2v-9.9C-41.3,474.2-42.3,473.2-43.6,473.3
		C-43.6,473.3-43.6,473.3-43.6,473.3z"/>
	<path fill="none" stroke="#FFFFFF" stroke-width="4" stroke-linejoin="round" d="M-59.4,464.7c0,5,4.1,9.1,9.1,9.1h0"/>
</g>
</svg>
