<svg version="1.1" id="Layer_1" xmlns="http://www.w3.org/2000/svg" xmlns:xlink="http://www.w3.org/1999/xlink" x="0px" y="0px"
     viewBox="0 0 110 300" enable-background="new 0 0 110 300" xml:space="preserve">          <title>car</title>
            <g id="car">

  <path fill="none" stroke="#666666" stroke-width="2" stroke-linejoin="round" stroke-miterlimit="10" d="M92.2,274.6"/>
  <path fill="none" stroke="#666666" stroke-width="2" stroke-linejoin="round" stroke-miterlimit="10" d="M64.9,275.3L64.9,275.3
      c8.6,0,17.1-2.1,24.6-6.2l1.4-0.7l0.3-0.3c-0.1-0.9-0.1-1.9-0.2-2.8l-0.2-3.6c0-1,0.7-1.8,1.7-1.8l11.1,0c1.1,0,2,1.1,1.7,2.2
      l-6.5,24.6c-0.5,1.9-3.2,1.9-3.7,0l-34.2-0.1"/>
  <path fill="none" stroke="#666666" stroke-width="2" stroke-linejoin="round" stroke-miterlimit="10" d="M44.4,275.2L44.4,275.2
      c-8.6,0-17.1-2.2-24.6-6.3l-1.3-0.7l-0.3-0.3c0.1-0.9,0.2-1.9,0.2-2.8l0.2-3.6c0-1-0.7-1.8-1.7-1.8l-11.1,0c-1.1,0-2,1.1-1.7,2.1
      l6.4,24.6c0.5,1.9,3.2,1.9,3.7,0l34.2,0.1"/>
  <path fill="none" stroke="#666666" stroke-width="2" stroke-linejoin="round" stroke-miterlimit="10" d="M86.6,28.7
      c-8.2,3.2-17.1,5.2-26.3,5.8l0,0c0,18.1,7.9,28.8,12.4,36.6c4.4,7.7,10.2,21.6,10.2,32.9c0,25.3-5.7,45.6-5.7,45.6"/>
  <path fill="none" stroke="#666666" stroke-width="2" stroke-linejoin="round" stroke-miterlimit="10" d="M86.2,238.3l-13.9,3.3
      c-4,1.2-7.4,3.8-9.6,7.3l-0.2,0.3"/>
  <path fill="none" stroke="#666666" stroke-width="2" stroke-linejoin="round" stroke-miterlimit="10" d="M103.1,69.8l-10,0
      c-1.3,0-2.4-1.1-2.4-2.4c0,0-0.6-0.1-0.5-18.1s0.6-18.1,0.6-18.1c0-1.3,1.1-2.4,2.4-2.4l1,0l10.8,0l1,0c1.3,0,2.4,1.1,2.4,2.4
      c0,0,0.6,0,0.5,18.1c0,18.1-0.6,18.1-0.6,18.1c0,1.3-1.1,2.4-2.4,2.4c0,0,0.3,2.9,0.3,5c-0.1,32.4-3.3,36.5-6.7,49.9
      c-2.1,7.9-6.8,14.7-14.7,16.7h0c-3.9,1-6.9,4.1-7.6,8.1c-4.7,20.3-8.4,40.7-11.1,61.3l0,0c1.6,3.4,4.5,6.2,7.8,8.1l15.6,11
      c0.1-12.7,0.5-12.7,0.5-12.7c0-1.3,1-2.3,2.3-2.3l11.3,0c1.3,0,2.3,1,2.3,2.3c0,0,0.5,0,0.5,17.4s-0.6,17.4-0.6,17.4
      c0,1.3-1,2.3-2.3,2.3l-11.3,0c-1.3,0-2.3-1-2.3-2.3c0,0-0.5-0.1-0.5-17.4l-23.2,0"/>
  <path fill="none" stroke="#666666" stroke-width="2" stroke-linejoin="round" stroke-miterlimit="10" d="M23,238.2l13.9,3.3
      c3.9,1.3,7.7,3.9,10,7.4l0,0.2c0.9,13.4,1.3,26.9,1.2,40.4l0,4.5c0,2.7,2.2,5,5,5l1.3,0l0.2,0l1.3,0c2.7,0,5-2.2,5-5l0-4.5
      c0-24.6,1.6-49.1,4.5-73.5"/>
  <path fill="none" stroke="#666666" stroke-width="2" stroke-linejoin="round" stroke-miterlimit="10" d="M39.5,216
      c-1.2,1.2-2.6,2.2-4.1,3l-15.7,10.9c-0.1-12.7-0.5-12.7-0.5-12.7c0-1.3-1-2.3-2.3-2.3l-11.3,0c-1.3,0-2.3,1-2.3,2.3
      c0,0-0.5,0-0.6,17.4s0.5,17.4,0.5,17.4c0,1.3,1,2.3,2.3,2.3l11.3,0c1.3,0,2.3-1,2.3-2.3c0,0,0.5-0.1,0.6-17.4l23.2,0
      c0,0,2.9,0.1,2.9,0c-2.5-28.6-7-57-13.4-85c-0.8-3.9-3.7-7.1-7.6-8.1h0c-7.9-2.1-12.6-8.9-14.6-16.8c-3.4-13.4-6.6-17.5-6.6-49.9"/>
  <path fill="none" stroke="#666666" stroke-width="2" stroke-linejoin="round" stroke-miterlimit="10" d="M43.2,210.9"/>
  <path fill="none" stroke="#666666" stroke-width="2" stroke-linejoin="round" stroke-miterlimit="10" d="M30,151.7l-15.2-2.9
      c-1.1-0.2-2.2,0.7-2.2,1.9l0,11.6c0,3.4,2.1,6.4,5.3,7.5l20.1,7.1l-10.2,0c-1,0-1.6,1.2-0.9,2l2.4,2.8c1.8,2.1,5.1,1.6,6.2-0.9v0"/>
  <path fill="none" stroke="#666666" stroke-width="2" stroke-linejoin="round" stroke-miterlimit="10" d="M79.6,151.8l15.2-2.8
      c1.1-0.2,2.2,0.7,2.2,1.9l0,11.6c0,3.4-2.2,6.4-5.4,7.5l-20.1,7l10.2,0.1c1,0,1.6,1.2,0.9,2l-2.4,2.8c-1.8,2.1-5.1,1.6-6.2-0.9l0,0"
      />
  <polyline fill="none" stroke="#666666" stroke-width="2" stroke-linejoin="round" stroke-miterlimit="10" points="47.1,8.8
      22.4,8.8 22.3,24.1 49.7,24.2 54.9,24.2 87.7,24.3 87.7,21.2 "/>
  <path fill="none" stroke="#666666" stroke-width="2" stroke-linejoin="round" stroke-miterlimit="10" d="M94.6,23.9
      c0-3.8-3.1-6.9-6.9-6.9l0-8.1L60.4,8.8L60,1l-9.5,0l-0.4,7.8l6.9,0"/>
  <path fill="none" stroke="#666666" stroke-width="2" stroke-linejoin="round" stroke-miterlimit="10" d="M32.4,149.5
      c0,0-5.6-20.3-5.5-45.6c0-11.3,5.9-25.2,10.3-32.9s12.5-18.4,12.5-36.5l0,0c-9.2-0.7-18-2.7-26.3-5.9"/>
  <path fill="none" stroke="#666666" stroke-width="2" stroke-linejoin="round" stroke-miterlimit="10" d="M52.2,130.6
      c-1.2-0.9-2.1-2.3-2-3.9c0-2.6,2.1-10.1,4.7-10.1c2.6,0,4.7,7.5,4.7,10.1c0,2.6-2.1,4.7-4.7,4.7"/>
  <path fill="none" stroke="#666666" stroke-width="2" stroke-linejoin="round" stroke-miterlimit="10" d="M42.4,173.5l1.1,7.1
      c0.4,2.7,2.7,4.8,5.5,4.8l5.6,0l0.3,0l5.6,0c2.8,0,5.1-2,5.5-4.8l1.6-10.6l-1.4-2c-1.2-1.6-1.8-3.5-1.8-5.5l0-19.9
      c0-2.9-2.3-5.2-5.2-5.3l-1.3,0l-2.9,0l-4.4,0c-2.9,0-5.2,2.3-5.3,5.2l0,19.9c0,2-0.6,3.9-1.8,5.5l-1.4,2c0,0-3.9-17.3-3.9-44
      c0-22.2,9.8-45.5,13-52.8c0.6-1.4,2-2.3,3.6-2.3h0l0.4,0h0c1.5,0,2.9,0.9,3.5,2.3c3.3,7.3,12.9,30.7,12.8,52.9
      c0,18.7-2,32.8-3.2,39.5"/>
  <path fill="none" stroke="#666666" stroke-width="2" stroke-linejoin="round" stroke-miterlimit="10" d="M18.3,18.2
      c-1.8,1.2-2.9,3.3-2.9,5.6l0.1,4.7l1.4,0c1.3,0,2.4,1.1,2.4,2.4c0,0,0.6,0.1,0.5,18.1s-0.6,18.1-0.6,18.1c0,1.3-1.1,2.4-2.4,2.4
      L4,69.7c-1.3,0-2.4-1.1-2.4-2.4c0,0-0.6,0-0.5-18.1s0.6-18.1,0.6-18.1c0-1.3,1.1-2.4,2.4-2.4l8.3,0"/>
</svg>
