<?xml version="1.0" encoding="utf-8"?>
<!-- Generator: Adobe Illustrator 18.1.1, SVG Export Plug-In . SVG Version: 6.00 Build 0)  -->
<svg version="1.1" id="Layer_1" xmlns="http://www.w3.org/2000/svg" xmlns:xlink="http://www.w3.org/1999/xlink" x="0px" y="0px"
	 viewBox="0 0 275 136" enable-background="new 0 0 275 136" xml:space="preserve">
<g>
	<g>
		
			<line fill="none" stroke="#666666" stroke-width="3" stroke-linejoin="round" stroke-miterlimit="10" x1="273.9" y1="133.6" x2="0" y2="133.6"/>
		<path fill="none" stroke="#666666" stroke-width="3" stroke-linejoin="round" stroke-miterlimit="10" d="M34.4,134V22.6
			c0-11.6-9.4-21.1-21.1-21.1H8.4v84h25.5"/>
		<path fill="none" stroke="#666666" stroke-width="3" stroke-linejoin="round" stroke-miterlimit="10" d="M80.4,96.7l1.3-5.4
			c0.4-1.6,1.4-3.2,3.2-3.2h15.6c1.7,0,2.6,1.3,3.2,3.2l2.6,9.4H75.4c-1.7,0-3.2,1.4-3.2,3.2v9.4c0,1.7,1.4,3.2,3.2,3.2h3.4
			c-0.2,0.5-0.3,1-0.3,1.6c0,2.6,2.1,4.7,4.7,4.7c2.6,0,4.7-2.1,4.7-4.7c0-0.5-0.1-1.1-0.3-1.6h9.8c-0.2,0.5-0.3,1-0.3,1.6
			c0,2.6,2.1,4.7,4.7,4.7c2.6,0,4.7-2.1,4.7-4.7c0-0.5-0.1-1.1-0.3-1.6h3.3c1.7,0,3.2-1.4,3.2-3.2v-9.4c0-1.7-1.4-3.2-3.2-3.2"/>
		<g>
			
				<rect x="58.1" y="25.5" fill="none" stroke="#666666" stroke-width="3" stroke-linejoin="round" stroke-miterlimit="10" width="183.5" height="98.1"/>
			
				<line fill="none" stroke="#666666" stroke-width="3" stroke-linejoin="round" stroke-miterlimit="10" x1="57.9" y1="63.5" x2="241.9" y2="63.5"/>
			<g>
				
					<line fill="none" stroke="#666666" stroke-width="3" stroke-linejoin="round" stroke-miterlimit="10" x1="157.4" y1="64" x2="157.4" y2="124"/>
				
					<line fill="none" stroke="#666666" stroke-width="3" stroke-linejoin="round" stroke-miterlimit="10" x1="143.4" y1="64" x2="143.4" y2="124"/>
			</g>
			<g>
				
					<line fill="none" stroke="#666666" stroke-width="3" stroke-linejoin="round" stroke-miterlimit="10" x1="241.4" y1="64" x2="241.4" y2="124"/>
				
					<line fill="none" stroke="#666666" stroke-width="3" stroke-linejoin="round" stroke-miterlimit="10" x1="227.4" y1="64" x2="227.4" y2="124"/>
			</g>
			<g>
				
					<line fill="none" stroke="#666666" stroke-width="3" stroke-linejoin="round" stroke-miterlimit="10" x1="72.4" y1="64" x2="72.4" y2="124"/>
				
					<line fill="none" stroke="#666666" stroke-width="3" stroke-linejoin="round" stroke-miterlimit="10" x1="58.4" y1="64" x2="58.4" y2="124"/>
			</g>
			
				<rect x="51.4" y="123.6" fill="none" stroke="#666666" stroke-width="3" stroke-linejoin="round" stroke-miterlimit="10" width="197" height="9.9"/>
		</g>
		<g>
			
				<circle fill="none" stroke="#666666" stroke-width="3" stroke-linejoin="round" stroke-miterlimit="10" cx="207" cy="86.3" r="3.8"/>
			<path fill="none" stroke="#666666" stroke-width="3" stroke-linejoin="round" stroke-miterlimit="10" d="M199.8,108.8v-9.6
				c0-2.9,2.3-5.2,5.2-5.2h4c2.9,0,5.2,2.3,5.2,5.2v9.6h-10v14.8h5.8v-11.4"/>
		</g>
		<g>
			
				<circle fill="none" stroke="#666666" stroke-width="3" stroke-linejoin="round" stroke-miterlimit="10" cx="165" cy="86.3" r="3.8"/>
			<path fill="none" stroke="#666666" stroke-width="3" stroke-linejoin="round" stroke-miterlimit="10" d="M172.3,108.8v-9.6
				c0-2.9-2.3-5.2-5.2-5.2h-4c-2.9,0-5.2,2.3-5.2,5.2v9.6h10v14.8H162v-11.4"/>
		</g>
		<g>
			
				<circle fill="none" stroke="#666666" stroke-width="3" stroke-linejoin="round" stroke-miterlimit="10" cx="127" cy="86.3" r="3.8"/>
			<path fill="none" stroke="#666666" stroke-width="3" stroke-linejoin="round" stroke-miterlimit="10" d="M134.3,108.8v-9.6
				c0-2.9-2.3-5.2-5.2-5.2h-4c-2.9,0-5.2,2.3-5.2,5.2v9.6h10v14.8H124v-11.4"/>
		</g>
		<path fill="none" stroke="#666666" stroke-width="3" stroke-linejoin="round" stroke-miterlimit="10" d="M189.3,105.6h1.2
			c1.8,0,3.2,1.4,3.2,3.2v14.8h-7.6v-14.8C186.1,107,187.5,105.6,189.3,105.6z"/>
	</g>
	<g opacity="0.5">
		<g>
			<linearGradient id="SVGID_1_" gradientUnits="userSpaceOnUse" x1="217.7581" y1="51.8202" x2="220.7723" y2="48.4984">
				<stop  offset="8.141706e-03" style="stop-color:#000000"/>
				<stop  offset="0.3" style="stop-color:#000000"/>
				<stop  offset="1" style="stop-color:#000000;stop-opacity:0"/>
			</linearGradient>
			<path fill="url(#SVGID_1_)" d="M220.6,48.4c-0.7,0.9-1.7,1.4-2.9,1.4v1.5c1.7,0,3.1-0.8,4.1-2L220.6,48.4z"/>
		</g>
		<g>
			<linearGradient id="SVGID_2_" gradientUnits="userSpaceOnUse" x1="195.4009" y1="51.8202" x2="198.4152" y2="48.4984">
				<stop  offset="6.878931e-03" style="stop-color:#000000"/>
				<stop  offset="0.3" style="stop-color:#000000"/>
				<stop  offset="1" style="stop-color:#000000;stop-opacity:0"/>
			</linearGradient>
			<path fill="url(#SVGID_2_)" d="M198.3,48.4c-0.7,0.9-1.7,1.4-2.9,1.4v1.5c1.7,0,3.1-0.8,4.1-2L198.3,48.4z"/>
		</g>
		<linearGradient id="SVGID_3_" gradientUnits="userSpaceOnUse" x1="225.0161" y1="48.5557" x2="226.9168" y2="50.4564">
			<stop  offset="1.026926e-02" style="stop-color:#000000"/>
			<stop  offset="1" style="stop-color:#000000;stop-opacity:0"/>
		</linearGradient>
		<path fill="url(#SVGID_3_)" d="M225.9,47.9c0,1.1,0.5,1.6,1.4,2.2l-0.9,1.3c-1.3-0.9-2.1-1.8-2.1-3.5H225.9z"/>
		<linearGradient id="SVGID_4_" gradientUnits="userSpaceOnUse" x1="208.8577" y1="42.8462" x2="209.7519" y2="46.0399">
			<stop  offset="1.148648e-02" style="stop-color:#000000"/>
			<stop  offset="1" style="stop-color:#000000;stop-opacity:0"/>
		</linearGradient>
		<path fill="url(#SVGID_4_)" d="M211.2,45.8h-1.5l0-0.5c0-1.5-1.2-2.7-2.7-2.7v-1.5c2.3,0,4.2,1.9,4.2,4.2V45.8z"/>
		<linearGradient id="SVGID_5_" gradientUnits="userSpaceOnUse" x1="210.3499" y1="45.0421" x2="210.4279" y2="45.8362">
			<stop  offset="0" style="stop-color:#E94986"/>
			<stop  offset="1" style="stop-color:#E94986;stop-opacity:0"/>
		</linearGradient>
		<line fill="url(#SVGID_5_)" x1="211.2" y1="45.8" x2="209.7" y2="45.8"/>
		<rect x="209.7" y="45.8" width="1.5" height="5.4"/>
		<path d="M217.8,41.1c-2.8,0-5.1,2.3-5.1,5.1s2.3,5.1,5.1,5.1c0,0,0,0,0,0v-1.5c0,0,0,0,0,0c-2,0-3.6-1.6-3.6-3.6s1.6-3.6,3.6-3.6
			c1.7,0,3.1,1.2,3.5,2.7l-3.8,0v1.5h5.4v-1.5C222.4,42.9,220.3,41.1,217.8,41.1z"/>
		<path d="M195.4,41.1c-2.8,0-5.1,2.3-5.1,5.1s2.3,5.1,5.1,5.1c0,0,0,0,0,0v-1.5c0,0,0,0,0,0c-2,0-3.6-1.6-3.6-3.6s1.6-3.6,3.6-3.6
			c1.7,0,3.1,1.2,3.5,2.7l-3.8,0v1.5h5.4v-1.5C200,42.9,197.9,41.1,195.4,41.1z"/>
		<polygon points="225.9,47.9 225.9,37.9 224.4,37.9 224.4,47.9 224.4,47.9 225.9,47.9 		"/>
		<path d="M206.9,41.1c-1.3,0-2.5,0.5-3.4,1.4v-1H202v5.4h1.5v-1.3c0.2-1.2,1.3-3,3.4-3c0,0,0,0,0.1,0L206.9,41.1
			C207,41.1,207,41.1,206.9,41.1z"/>
	</g>
</g>
</svg>
