<?xml version="1.0" encoding="utf-8"?>
<!-- Generator: Adobe Illustrator 18.1.1, SVG Export Plug-In . SVG Version: 6.00 Build 0)  -->
<svg version="1.1" id="Layer_1" xmlns="http://www.w3.org/2000/svg" xmlns:xlink="http://www.w3.org/1999/xlink" x="0px" y="0px"
	 viewBox="0 0 536.1 121.3" enable-background="new 0 0 536.1 121.3" xml:space="preserve">
<g>
	<path opacity="0.3" fill="none" stroke="#666666" stroke-width="3" stroke-linejoin="round" stroke-miterlimit="10" d="M423.9,74.4
		L423.9,74.4c4.1,0,7.4,3.3,7.4,7.4v11.7c0,5.6,4.6,10.2,10.2,10.2l0,0c5.6,0,10.2-4.6,10.2-10.2V63.2c0-4.1,3.3-7.4,7.4-7.4h0.5"/>
	<g>
		
			<line fill="none" stroke="#666666" stroke-width="3" stroke-linejoin="round" stroke-miterlimit="10" x1="481.1" y1="101.7" x2="488.6" y2="101.7"/>
		
			<line fill="none" stroke="#666666" stroke-width="3" stroke-linejoin="round" stroke-miterlimit="10" x1="481.1" y1="96.1" x2="488.6" y2="96.1"/>
		
			<line fill="none" stroke="#666666" stroke-width="3" stroke-linejoin="round" stroke-miterlimit="10" x1="481.1" y1="90.5" x2="488.6" y2="90.5"/>
		
			<line fill="none" stroke="#666666" stroke-width="3" stroke-linejoin="round" stroke-miterlimit="10" x1="481.1" y1="84.9" x2="488.6" y2="84.9"/>
		
			<line fill="none" stroke="#666666" stroke-width="3" stroke-linejoin="round" stroke-miterlimit="10" x1="481.1" y1="79.3" x2="488.6" y2="79.3"/>
		
			<line fill="none" stroke="#666666" stroke-width="3" stroke-linejoin="round" stroke-miterlimit="10" x1="481.1" y1="73.8" x2="488.6" y2="73.8"/>
	</g>
	
		<circle fill-rule="evenodd" clip-rule="evenodd" fill="none" stroke="#666666" stroke-width="3" stroke-linejoin="round" stroke-miterlimit="10" cx="451.7" cy="69.5" r="1.6"/>
	<g>
		<g>
			<path fill="none" stroke="#666666" stroke-width="3" stroke-linejoin="round" stroke-miterlimit="10" d="M362.2,70.7
				c2.2-2.9,3.4-6.5,3.4-10.4h0h-7.9c-1.6,0-2.8-1.3-2.8-2.8v-0.9c0-1.6,1.3-2.8,2.8-2.8h15.5c1.6,0,2.8,1.3,2.8,2.8v0.9
				c0,1.6-1.3,2.8-2.8,2.8h-5.4"/>
			<path fill="none" stroke="#666666" stroke-width="3" stroke-linejoin="round" stroke-miterlimit="10" d="M272.3,70.7
				c-2.2-2.9-3.4-6.5-3.4-10.4h0h7.9c1.6,0,2.8-1.3,2.8-2.8v-0.9c0-1.6-1.3-2.8-2.8-2.8h-15.5c-1.6,0-2.8,1.3-2.8,2.8v0.9
				c0,1.6,1.3,2.8,2.8,2.8h5.4"/>
		</g>
		<path fill="none" stroke="#666666" stroke-width="3" stroke-linejoin="round" stroke-miterlimit="10" d="M329,31.2
			c-2.9-5.7-6.5-10-11.7-10.1v0c0,0-0.1,0-0.1,0c0,0-0.1,0-0.1,0v0c-8.4,0.2-12.5,11.1-15.9,21.4"/>
		<path fill="none" stroke="#666666" stroke-width="3" stroke-linejoin="round" stroke-miterlimit="10" d="M338.7,56.3
			c-2.6-4.7-4.9-14.4-8.4-22.4l36,0v7.5c0,1.9-1.5,3.5-3.5,3.5h-25.7"/>
		<path fill="none" stroke="#666666" stroke-width="3" stroke-linejoin="round" stroke-miterlimit="10" d="M301.1,33.9h-32.9v7.5
			c0,1.9,1.5,3.5,3.5,3.5h28.3l0.2,0c-1.5,4.6-2.9,8.8-4.4,11.5"/>
		<path fill="none" stroke="#666666" stroke-width="3" stroke-linejoin="round" stroke-miterlimit="10" d="M317.3,119"/>
		<path fill="none" stroke="#666666" stroke-width="3" stroke-linejoin="round" stroke-miterlimit="10" d="M406,107.5l-6.4-16.2
			c-2.4-6-10.8-6.2-13.4-0.3l-7.8,15.2c-1.5,3.4-4.9,5.6-8.7,5.6H264.9c-3.8,0-7.2-2.2-8.7-5.6L248.4,91c-2.6-5.9-11.1-5.7-13.4,0.3
			l-6.4,16.2"/>
		<path fill="none" stroke="#666666" stroke-width="3" stroke-linejoin="round" stroke-miterlimit="10" d="M374,107.3V75
			c0-2.7,2.2-4.9,4.9-4.9h24.8c2.7,0,4.9,2.2,4.9,4.9v19.5V114c0,2.7-2.2,4.9-4.9,4.9H230.8c-2.7,0-4.9-2.2-4.9-4.9V94.5V75
			c0-2.7,2.2-4.9,4.9-4.9h24.8c2.7,0,4.9,2.2,4.9,4.9v32.3"/>
		<path fill="none" stroke="#666666" stroke-width="3" stroke-linejoin="round" stroke-miterlimit="10" d="M303.7,56.3
			c0-8.7,12.5-8.1,13.6-8c1.1-0.1,13.6-0.7,13.6,8v9.9c0,1.8-1.2,3.2-2.6,3.2h-10.9h-0.1h-10.9c-1.4,0-2.6-1.4-2.6-3.2v-6.1
			c0-0.6-0.5-1.1-1.1-1.1h-9.9c-6.9,0-13.9,16.5-29.2,16.5h-3.3"/>
		<path fill="none" stroke="#666666" stroke-width="3" stroke-linejoin="round" stroke-miterlimit="10" d="M333.8,59.1h8
			c6.9,0,13.9,16.5,29.2,16.5h2.8l-6.5,0.1c-33.2,0-26.7,22.6-39.5,22.6c-6.2,0-15.1,0-21.3,0c-11.9,0-7.1-19.5-33-22.3"/>
	</g>
	<g opacity="0.3">
		<g>
			<path fill="none" stroke="#666666" stroke-width="3" stroke-linejoin="round" stroke-miterlimit="10" d="M137.8,70.7
				c2.2-2.9,3.4-6.5,3.4-10.4h0h-7.9c-1.6,0-2.8-1.3-2.8-2.8v-0.9c0-1.6,1.3-2.8,2.8-2.8h15.5c1.6,0,2.8,1.3,2.8,2.8v0.9
				c0,1.6-1.3,2.8-2.8,2.8h-5.4"/>
			<path fill="none" stroke="#666666" stroke-width="3" stroke-linejoin="round" stroke-miterlimit="10" d="M47.9,70.7
				c-2.2-2.9-3.4-6.5-3.4-10.4h0h7.9c1.6,0,2.8-1.3,2.8-2.8v-0.9c0-1.6-1.3-2.8-2.8-2.8H36.9c-1.6,0-2.8,1.3-2.8,2.8v0.9
				c0,1.6,1.3,2.8,2.8,2.8h5.4"/>
		</g>
		<path fill="none" stroke="#666666" stroke-width="3" stroke-linejoin="round" stroke-miterlimit="10" d="M104.7,31.2
			c-2.9-5.7-6.5-10-11.7-10.1v0c0,0-0.1,0-0.1,0c0,0-0.1,0-0.1,0v0c-8.4,0.2-12.5,11.1-15.9,21.4"/>
		<path fill="none" stroke="#666666" stroke-width="3" stroke-linejoin="round" stroke-miterlimit="10" d="M114.3,56.3
			c-2.6-4.7-4.9-14.4-8.4-22.4l36,0v7.5c0,1.9-1.5,3.5-3.5,3.5h-25.7"/>
		<path fill="none" stroke="#666666" stroke-width="3" stroke-linejoin="round" stroke-miterlimit="10" d="M76.7,33.9H43.8v7.5
			c0,1.9,1.5,3.5,3.5,3.5h28.3l0.2,0c-1.5,4.6-2.9,8.8-4.4,11.5"/>
		<path fill="none" stroke="#666666" stroke-width="3" stroke-linejoin="round" stroke-miterlimit="10" d="M92.9,119"/>
		<path fill="none" stroke="#666666" stroke-width="3" stroke-linejoin="round" stroke-miterlimit="10" d="M181.6,107.5l-6.4-16.2
			c-2.4-6-10.8-6.2-13.4-0.3l-7.8,15.2c-1.5,3.4-4.9,5.6-8.7,5.6H40.5c-3.8,0-7.2-2.2-8.7-5.6L24,91c-2.6-5.9-11.1-5.7-13.4,0.3
			l-6.4,16.2"/>
		<path fill="none" stroke="#666666" stroke-width="3" stroke-linejoin="round" stroke-miterlimit="10" d="M149.6,107.3V75
			c0-2.7,2.2-4.9,4.9-4.9h24.8c2.7,0,4.9,2.2,4.9,4.9v19.5V114c0,2.7-2.2,4.9-4.9,4.9H6.4c-2.7,0-4.9-2.2-4.9-4.9V94.5V75
			c0-2.7,2.2-4.9,4.9-4.9h24.8c2.7,0,4.9,2.2,4.9,4.9v32.3"/>
		<path fill="none" stroke="#666666" stroke-width="3" stroke-linejoin="round" stroke-miterlimit="10" d="M79.3,56.3
			c0-8.7,12.5-8.1,13.6-8c1.1-0.1,13.6-0.7,13.6,8v9.9c0,1.8-1.2,3.2-2.6,3.2H92.9h-0.1H81.9c-1.4,0-2.6-1.4-2.6-3.2v-6.1
			c0-0.6-0.5-1.1-1.1-1.1h-9.9c-6.9,0-13.9,16.5-29.2,16.5h-3.3"/>
		<path fill="none" stroke="#666666" stroke-width="3" stroke-linejoin="round" stroke-miterlimit="10" d="M109.4,59.1h8
			c6.9,0,13.9,16.5,29.2,16.5h2.8l-6.5,0.1c-33.2,0-26.7,22.6-39.5,22.6c-6.2,0-15.1,0-21.3,0c-11.9,0-7.1-19.5-33-22.3"/>
	</g>
	<path fill="none" stroke="#666666" stroke-width="3" stroke-linejoin="round" stroke-miterlimit="10" d="M195.7,119.4h16.1V45.8
		L317.9,1.5L424,45.8v73.3h35.1h0.5V19.8c0-6.3,5.1-11.4,11.4-11.4h28c6.3,0,11.4,5.1,11.4,11.4v100.1h25.8"/>
	<g>
		<path fill="none" stroke="#666666" stroke-width="3" stroke-linejoin="round" stroke-miterlimit="10" d="M487.4,27.4l5.1,0v27.5
			h-15.4V27.4h3.9v-1.3c0-2.6,2.4-2.6,2.4-2.6h3.9c0,0,1.3-0.1,1.3,1.3"/>
	</g>
</g>
</svg>
