<?xml version="1.0" encoding="utf-8"?>
<!-- Generator: Adobe Illustrator 18.1.1, SVG Export Plug-In . SVG Version: 6.00 Build 0)  -->
<svg version="1.1" id="Layer_1" xmlns="http://www.w3.org/2000/svg" xmlns:xlink="http://www.w3.org/1999/xlink" x="0px" y="0px"
	 viewBox="0 0 466.6 281.9" enable-background="new 0 0 466.6 281.9" xml:space="preserve">
<g>
	<g opacity="0.5">
		
			<rect id="XMLID_193_" x="55.5" y="134.1" transform="matrix(0.8999 -0.4362 0.4362 0.8999 -52.5616 48.3496)" fill="#FFFFFF" width="47" height="9.1"/>
		
			<rect id="XMLID_192_" x="66.3" y="152" transform="matrix(0.8999 -0.4362 0.4362 0.8999 -59.3119 54.8596)" fill="#FFFFFF" width="47" height="9.1"/>
		<polygon id="XMLID_119_" fill="#FFFFFF" points="294.8,52.3 273.1,0 129.1,59.6 134.3,72.3 156.2,63.2 172.7,102.9 		"/>
		
			<rect id="XMLID_48_" x="138.7" y="83.7" transform="matrix(0.9134 -0.4071 0.4071 0.9134 -25.4114 65.8616)" fill="#FFFFFF" width="6.7" height="17.8"/>
		
			<rect id="XMLID_47_" x="148.2" y="105.6" transform="matrix(0.9134 -0.4071 0.4071 0.9134 -33.4721 71.5967)" fill="#FFFFFF" width="6.7" height="17.8"/>
		
			<rect id="XMLID_46_" x="217.9" y="138.3" transform="matrix(0.8524 -0.5229 0.5229 0.8524 -34.3636 192.916)" fill="#FFFFFF" width="213.3" height="38"/>
		
			<rect id="XMLID_45_" x="256.3" y="204.7" transform="matrix(0.8524 -0.5229 0.5229 0.8524 -65.9801 186.374)" fill="#FFFFFF" width="81.6" height="10.8"/>
		
			<rect id="XMLID_44_" x="333.5" y="156.6" transform="matrix(0.8524 -0.5229 0.5229 0.8524 -29.43 219.647)" fill="#FFFFFF" width="81.6" height="10.8"/>
		
			<rect id="XMLID_42_" x="20.2" y="173.6" transform="matrix(-0.8551 0.5184 -0.5184 -0.8551 174.7838 348.3446)" fill="#FFFFFF" width="37" height="50"/>
	</g>
	<g opacity="0.3">
		<path id="XMLID_197_" fill="none" stroke="#000000" stroke-width="5.5266" stroke-miterlimit="10" d="M5.7,127.9l83.3-27.4
			c1.3-0.4,2.6-1,3.8-1.6l15.6-8.4c0.9-0.5,1.8-0.9,2.7-1.3l25.5-9.8c6-2.3,12.6,0.6,15.1,6.4l18.7,44.2c0.2,0.5,0.3,1,0.2,1.6
			l-2.4,11.9c-0.3,1.7-2.1,2.6-3.7,1.9l0,0c-1.9-0.8-3.9,0.7-3.7,2.7l1.5,5.4c0.2,1.8,1.9,5.4,2.8,6.9l32.2,53
			c36.8,55.7,84.4,22.5,91.8,16.9c0.7-0.6,1.5-1.1,2.3-1.6L454,127.7c3-1.9,7.1-0.9,8.9,2.2l0.1,0.1c1.8,3,0.8,6.8-2.1,8.7
			L268.7,257.9c-1.6,1-2.2,3.2-1.2,4.8l1.4,2.3c2.6,4.4,1.1,10.2-3.3,12.8l0,0c-3.2,1.9-7.1,1.7-10.1-0.4l-55.7-41.6
			c-2.7-1.9-5-4.4-6.7-7.3l-49.3-83.6c-0.8-1.3-1.4-2.6-1.9-4l-7.7-21.4c-2-5.6-7.8-8.8-13.6-7.6L7.9,136c-2.3,0.5-4.5-1-5-3.2l0,0
			C2.4,130.7,3.6,128.6,5.7,127.9z"/>
		<path id="XMLID_194_" fill="none" stroke="#000000" stroke-width="2.7633" stroke-miterlimit="10" d="M75.1,121.6
			c0,0,31.3-4.7,39.3,5.1c1.9,2.4,1.1,5.9-1.6,7.2l-50.6,24.4c-5,2.4-6.8,8.5-4,13.3l0,0c2.5,4.2,7.7,5.8,12.1,3.8l51.1-23.9
			c4-1.9,8.4-2.6,12.8-2.1l13.1,1.5"/>
	</g>
</g>
</svg>
