<?xml version="1.0" encoding="utf-8"?>
<!-- Generator: Adobe Illustrator 18.1.1, SVG Export Plug-In . SVG Version: 6.00 Build 0)  -->
<svg version="1.1" xmlns="http://www.w3.org/2000/svg" xmlns:xlink="http://www.w3.org/1999/xlink" x="0px" y="0px"
	 viewBox="0 0 185 95" enable-background="new 0 0 185 95" xml:space="preserve">
<symbol  id="New_Symbol_2" viewBox="-16.4 -5.9 37.4 11.9">
	<text transform="matrix(1 0 0 -1 -4.3003 -3.1904)" fill="#FF0F5D" font-family="'UniversLTStd-Light'" font-size="11">LIVE</text>
	<path fill="#FF0F5D" d="M-9.4,0.6c0-1.9-1.6-3.5-3.5-3.5s-3.5,1.6-3.5,3.5s1.6,3.5,3.5,3.5S-9.4,2.5-9.4,0.6z"/>
</symbol>
<symbol  id="plus_-_b" viewBox="-19.8 -18.9 39 39">
	<g>
		<g>
			
				<image overflow="visible" opacity="0.3" width="39" height="39" xlink:href="37907407CCEB204B.png"  transform="matrix(1 0 0 -1 -19.8232 20.0541)">
			</image>
			<g>
				<path fill="#FFFFFF" d="M-0.1,15.8c-8.3,0-15-6.7-15-15s6.7-15,15-15s15,6.7,15,15S8.2,15.8-0.1,15.8z"/>
			</g>
		</g>
		<line fill="none" stroke="#0555F9" stroke-width="1.7647" stroke-miterlimit="10" x1="-5.4" y1="-4" x2="-5.4" y2="3"/>
		<line fill="none" stroke="#0555F9" stroke-width="1.7647" stroke-miterlimit="10" x1="5.2" y1="-4" x2="5.2" y2="1.2"/>
		<line fill="none" stroke="#0555F9" stroke-width="1.7647" stroke-miterlimit="10" x1="1.7" y1="-4" x2="1.7" y2="8.3"/>
		<line fill="none" stroke="#0555F9" stroke-width="1.7647" stroke-miterlimit="10" x1="-1.8" y1="-4" x2="-1.8" y2="5.7"/>
	</g>
</symbol>
<g id="bg" display="none">
	<g id="header" display="inline">
	</g>
</g>
<g id="icon_grids">
</g>
<g id="graphic">
	<g id="New_Symbol">
	</g>
	<g id="numero">
	</g>
	<g>
		<g>
			<g>
				<polyline fill="none" stroke="#666666" stroke-width="3" stroke-linejoin="round" points="3.4,91.8 18.2,91.8 6.6,56.7 
					34.4,56.7 45.6,91.8 27.2,91.8 				"/>
				<polyline fill="none" stroke="#666666" stroke-width="3" stroke-linejoin="round" points="43,91.8 57.8,91.8 46.4,56.7 74,56.7 
					85.2,91.8 66.8,91.8 				"/>
				<polyline fill="none" stroke="#666666" stroke-width="3" stroke-linejoin="round" points="82.8,91.8 97.5,91.8 86,56.7 
					113.7,56.7 124.9,91.8 106.5,91.8 				"/>
			</g>
		</g>
		<g>
			<path fill="none" stroke="#666666" stroke-width="3" stroke-linejoin="round" d="M162.2,35.7c-2,1.1-4.4,1.6-6.8,1.1
				c-5.2-1.1-8.6-6.3-7.5-11.5c1.1-5.2,6.3-8.6,11.5-7.5c5.2,1.1,8.6,6.3,7.5,11.5c-0.3,1.6-1.1,3.1-2.1,4.3l5.7,3.2l11.5-1.5
				l-8.4-8l8.4-8l-11.5-1.5l2.1-11.4L162.4,12l-5-10.5l-5,10.5l-10.2-5.5l2.1,11.4l-11.5,1.5l8.4,8l-8.4,8l11.5,1.5l-2.1,11.4
				l10.2-5.5l5,10.5l5-10.5l10.2,5.5l-1.7-7.1"/>
		</g>
	</g>
</g>
<g id="_x33_dnav">
</g>
<g id="guide" display="none">
</g>
</svg>
