<?xml version="1.0" encoding="utf-8"?>
<!-- Generator: Adobe Illustrator 18.1.1, SVG Export Plug-In . SVG Version: 6.00 Build 0)  -->
<svg version="1.1" xmlns="http://www.w3.org/2000/svg" xmlns:xlink="http://www.w3.org/1999/xlink" x="0px" y="0px"
	 viewBox="0 0 58 84" enable-background="new 0 0 58 84" xml:space="preserve">
<symbol  id="New_Symbol_2" viewBox="-16.4 -5.9 37.4 11.9">
	<text transform="matrix(1 0 0 -1 -4.3003 -3.1904)" fill="#FF0F5D" font-family="'UniversLTStd-Light'" font-size="11">LIVE</text>
	<path fill="#FF0F5D" d="M-9.4,0.6c0-1.9-1.6-3.5-3.5-3.5s-3.5,1.6-3.5,3.5s1.6,3.5,3.5,3.5S-9.4,2.5-9.4,0.6z"/>
</symbol>
<symbol  id="plus_-_b" viewBox="-19.8 -18.9 39 39">
	<g>
		<g>
			
				<image overflow="visible" opacity="0.3" width="39" height="39" xlink:href="30CEA6A022616653.png"  transform="matrix(1 0 0 -1 -19.8232 20.0541)">
			</image>
			<g>
				<path fill="#FFFFFF" d="M-0.1,15.8c-8.3,0-15-6.7-15-15s6.7-15,15-15s15,6.7,15,15S8.2,15.8-0.1,15.8z"/>
			</g>
		</g>
		<line fill="none" stroke="#0555F9" stroke-width="1.7647" stroke-miterlimit="10" x1="-5.4" y1="-4" x2="-5.4" y2="3"/>
		<line fill="none" stroke="#0555F9" stroke-width="1.7647" stroke-miterlimit="10" x1="5.2" y1="-4" x2="5.2" y2="1.2"/>
		<line fill="none" stroke="#0555F9" stroke-width="1.7647" stroke-miterlimit="10" x1="1.7" y1="-4" x2="1.7" y2="8.3"/>
		<line fill="none" stroke="#0555F9" stroke-width="1.7647" stroke-miterlimit="10" x1="-1.8" y1="-4" x2="-1.8" y2="5.7"/>
	</g>
</symbol>
<g id="bg" display="none">
	<g id="header" display="inline">
	</g>
</g>
<g id="icon_grids">
</g>
<g id="graphic">
	<g id="New_Symbol">
	</g>
	<g id="numero">
	</g>
	<g>
		<path fill="none" stroke="#666666" stroke-width="3" stroke-miterlimit="10" d="M52.9,2.3H5.1c-1.6,0-3,1.3-3,3v73.4
			c0,1.6,1.3,3,3,3h47.9c1.6,0,3-1.3,3-3V5.3C55.9,3.7,54.6,2.3,52.9,2.3z"/>
		<g>
			<path fill="none" stroke="#666666" stroke-width="3" stroke-miterlimit="10" d="M2.1,29h3.4c1.6,0,2.9-1.3,2.9-2.9v-8.9
				c0-1.6,1.3-2.9,2.9-2.9h0.1c1.6,0,2.9,1.3,2.9,2.9v22.2c0,1.6,1.3,2.9,2.9,2.9h0.1c1.6,0,2.9-1.3,2.9-2.9V29v-0.8
				c0-1.6,1.3-2.9,2.9-2.9h0.1c1.6,0,2.9,1.3,2.9,2.9v1.5c0,1.6,1.3,2.9,2.9,2.9h0c1.6,0,2.9-1.3,2.9-2.9v-8.2"/>
			<path fill="none" stroke="#666666" stroke-width="3" stroke-miterlimit="10" d="M55.7,31.9c0,1.6-1.3,2.9-2.9,2.9h-0.1
				c-1.6,0-2.9-1.3-2.9-2.9v-4.5c0-1.6-1.3-2.9-2.9-2.9h-0.1c-1.6,0-2.9,1.3-2.9,2.9v0v11.1c0,1.6-1.3,2.9-2.9,2.9h-0.1
				c-1.6,0-2.9-1.3-2.9-2.9V21.5c0-1.6-1.3-2.9-2.9-2.9h0c-1.6,0-2.9,1.3-2.9,2.9v8.2"/>
		</g>
		<circle fill="none" stroke="#666666" stroke-width="3" stroke-miterlimit="10" cx="28" cy="65.8" r="1.4"/>
		<path fill="none" stroke="#666666" stroke-width="3" stroke-miterlimit="10" d="M16.8,72.5h11.4c3.7,0,6.7-3,6.7-6.7v0
			c0-3.7-3-6.7-6.7-6.7H16.8c-3.7,0-6.7,3-6.7,6.7v0C10.1,69.5,13.1,72.5,16.8,72.5z"/>
	</g>
</g>
<g id="_x33_dnav">
</g>
<g id="guide" display="none">
</g>
</svg>
