<?xml version="1.0" encoding="utf-8"?>
<!-- Generator: Adobe Illustrator 22.0.1, SVG Export Plug-In . SVG Version: 6.00 Build 0)  -->
<svg version="1.1" id="Layer_1" xmlns="http://www.w3.org/2000/svg" xmlns:xlink="http://www.w3.org/1999/xlink" x="0px" y="0px"
	 viewBox="0 0 326.2 121.3" style="enable-background:new 0 0 326.2 121.3;" xml:space="preserve">
<style type="text/css">
	.st0{opacity:0.3;fill:none;stroke:#666666;stroke-width:3;stroke-linejoin:round;stroke-miterlimit:10;enable-background:new    ;}
	.st1{fill:none;stroke:#666666;stroke-width:3;stroke-linejoin:round;stroke-miterlimit:10;}
	.st2{fill:#666666;}
</style>
<g>
	<path class="st0" d="M214,74.4L214,74.4c4.1,0,7.4,3.3,7.4,7.4v11.7c0,5.6,4.6,10.2,10.2,10.2l0,0c5.6,0,10.2-4.6,10.2-10.2V63.2
		c0-4.1,3.3-7.4,7.4-7.4h0.5"/>
	<g>
		<line class="st1" x1="271.2" y1="101.7" x2="278.7" y2="101.7"/>
		<line class="st1" x1="271.2" y1="96.1" x2="278.7" y2="96.1"/>
		<line class="st1" x1="271.2" y1="90.5" x2="278.7" y2="90.5"/>
		<line class="st1" x1="271.2" y1="84.9" x2="278.7" y2="84.9"/>
		<line class="st1" x1="271.2" y1="79.3" x2="278.7" y2="79.3"/>
		<line class="st1" x1="271.2" y1="73.8" x2="278.7" y2="73.8"/>
	</g>
	<circle class="st1" cx="241.8" cy="69.5" r="1.6"/>
	<g>
		<g>
			<path class="st1" d="M152.3,70.7c2.2-2.9,3.4-6.5,3.4-10.4l0,0h-7.9c-1.6,0-2.8-1.3-2.8-2.8v-0.9c0-1.6,1.3-2.8,2.8-2.8h15.5
				c1.6,0,2.8,1.3,2.8,2.8v0.9c0,1.6-1.3,2.8-2.8,2.8h-5.4"/>
			<path class="st1" d="M62.4,70.7c-2.2-2.9-3.4-6.5-3.4-10.4l0,0h7.9c1.6,0,2.8-1.3,2.8-2.8v-0.9c0-1.6-1.3-2.8-2.8-2.8H51.4
				c-1.6,0-2.8,1.3-2.8,2.8v0.9c0,1.6,1.3,2.8,2.8,2.8h5.4"/>
		</g>
		<path class="st1" d="M119.1,31.2c-2.9-5.7-6.5-10-11.7-10.1l0,0h-0.1h-0.1l0,0c-8.4,0.2-12.5,11.1-15.9,21.4"/>
		<path class="st1" d="M128.8,56.3c-2.6-4.7-4.9-14.4-8.4-22.4h36v7.5c0,1.9-1.5,3.5-3.5,3.5h-25.7"/>
		<path class="st1" d="M91.2,33.9H58.3v7.5c0,1.9,1.5,3.5,3.5,3.5h28.3h0.2c-1.5,4.6-2.9,8.8-4.4,11.5"/>
		<path class="st1" d="M107.4,119"/>
		<path class="st1" d="M196.1,107.5l-6.4-16.2c-2.4-6-10.8-6.2-13.4-0.3l-7.8,15.2c-1.5,3.4-4.9,5.6-8.7,5.6H55
			c-3.8,0-7.2-2.2-8.7-5.6L38.5,91c-2.6-5.9-11.1-5.7-13.4,0.3l-6.4,16.2"/>
		<path class="st1" d="M164.1,107.3V75c0-2.7,2.2-4.9,4.9-4.9h24.8c2.7,0,4.9,2.2,4.9,4.9v19.5V114c0,2.7-2.2,4.9-4.9,4.9H20.9
			c-2.7,0-4.9-2.2-4.9-4.9V94.5V75c0-2.7,2.2-4.9,4.9-4.9h24.8c2.7,0,4.9,2.2,4.9,4.9v32.3"/>
		<path class="st1" d="M93.8,56.3c0-8.7,12.5-8.1,13.6-8c1.1-0.1,13.6-0.7,13.6,8v9.9c0,1.8-1.2,3.2-2.6,3.2h-10.9h-0.1H96.5
			c-1.4,0-2.6-1.4-2.6-3.2v-6.1c0-0.6-0.5-1.1-1.1-1.1h-9.9C76,59,69,75.5,53.7,75.5h-3.3"/>
		<path class="st1" d="M123.9,59.1h8c6.9,0,13.9,16.5,29.2,16.5h2.8l-6.5,0.1c-33.2,0-26.7,22.6-39.5,22.6c-6.2,0-15.1,0-21.3,0
			c-11.9,0-7.1-19.5-33-22.3"/>
	</g>
	<path class="st1" d="M1.9,119.4V45.8L108,1.5l106.1,44.3v73.3h35.1h0.5V19.8c0-6.3,5.1-11.4,11.4-11.4h28c6.3,0,11.4,5.1,11.4,11.4
		v100.1h25.8"/>
	<path class="st2" d="M282.9,22.1c-0.1-0.6-0.6-1-1.1-1h-7.8l-0.1,0c-0.3,0-0.6,0.2-0.8,0.4c-0.2,0.2-0.3,0.5-0.2,0.8l1.2,9.9
		l2.3-0.3l-1-8.6h5.6l2.2,17.2h-6.7c-0.1,0-0.1,0-0.2,0c-0.3,0.1-0.6,0.2-0.7,0.5c-0.2,0.3-0.2,0.6-0.2,0.9l1.4,7.8l-9.4-12.6h8.7
		v-2.3h-11c-0.2,0-0.5,0.1-0.7,0.2c-0.5,0.4-0.6,1.1-0.2,1.6L277.6,55c0.2,0.2,0.5,0.4,0.8,0.4l0.1,0c0.1,0,0.1,0,0.2,0
		c0.6-0.1,1-0.7,0.9-1.3l-2-11.2h6.6l0.1,0c0.3,0,0.6-0.2,0.8-0.4c0.2-0.2,0.3-0.5,0.2-0.8L282.9,22.1z"/>
</g>
</svg>
