<?xml version="1.0" encoding="utf-8"?>
<!-- Generator: Adobe Illustrator 18.1.1, SVG Export Plug-In . SVG Version: 6.00 Build 0)  -->
<svg version="1.1" xmlns="http://www.w3.org/2000/svg" xmlns:xlink="http://www.w3.org/1999/xlink" x="0px" y="0px"
	 viewBox="0 0 350 180" enable-background="new 0 0 350 180" xml:space="preserve">
<symbol  id="New_Symbol_2" viewBox="-16.4 -5.9 37.4 11.9">
	<text transform="matrix(1 0 0 -1 -4.3003 -3.1904)" fill="#FF0F5D" font-family="'UniversLTStd-Light'" font-size="11">LIVE</text>
	<path fill="#FF0F5D" d="M-9.4,0.6c0-1.9-1.6-3.5-3.5-3.5s-3.5,1.6-3.5,3.5s1.6,3.5,3.5,3.5S-9.4,2.5-9.4,0.6z"/>
</symbol>
<symbol  id="plus_-_b" viewBox="-19.8 -18.9 39 39">
	<g>
		<g>
			
				<image overflow="visible" opacity="0.3" width="39" height="39" xlink:href="6CEA409E9FCEEC31.png"  transform="matrix(1 0 0 -1 -19.8232 20.0541)">
			</image>
			<g>
				<path fill="#FFFFFF" d="M-0.1,15.8c-8.3,0-15-6.7-15-15s6.7-15,15-15s15,6.7,15,15S8.2,15.8-0.1,15.8z"/>
			</g>
		</g>
		<line fill="none" stroke="#0555F9" stroke-width="1.7647" stroke-miterlimit="10" x1="-5.4" y1="-4" x2="-5.4" y2="3"/>
		<line fill="none" stroke="#0555F9" stroke-width="1.7647" stroke-miterlimit="10" x1="5.2" y1="-4" x2="5.2" y2="1.2"/>
		<line fill="none" stroke="#0555F9" stroke-width="1.7647" stroke-miterlimit="10" x1="1.7" y1="-4" x2="1.7" y2="8.3"/>
		<line fill="none" stroke="#0555F9" stroke-width="1.7647" stroke-miterlimit="10" x1="-1.8" y1="-4" x2="-1.8" y2="5.7"/>
	</g>
</symbol>
<g id="bg" display="none">
	<g id="header" display="inline">
	</g>
</g>
<g id="icon_grids">
</g>
<g id="graphic">
	<g id="New_Symbol">
	</g>
	<g id="numero">
	</g>
	<g>
		<g>
			<g>
				<g>
					<path fill="none" stroke="#666666" stroke-width="2.1407" stroke-linejoin="round" d="M236,12.1l4.7,0v25.2h-14.1V12.1h3.6
						v-1.2c0-2.4,2.2-2.4,2.2-2.4h3.6c0,0,1.2-0.1,1.2,1.2"/>
				</g>
			</g>
			<g>
				<polyline fill="none" stroke="#666666" stroke-width="2.1407" stroke-linejoin="round" points="1,30.3 8.4,30.3 2.6,12.6 
					16.6,12.6 22.2,30.3 13,30.3 				"/>
				<line fill="none" stroke="#666666" stroke-width="2.1407" stroke-linejoin="round" x1="26.9" y1="6.5" x2="23.1" y2="10.2"/>
				<line fill="none" stroke="#666666" stroke-width="2.1407" stroke-linejoin="round" x1="31.4" y1="2" x2="29.7" y2="3.6"/>
				<line fill="none" stroke="#666666" stroke-width="2.1407" stroke-linejoin="round" x1="37.4" y1="8.8" x2="33.6" y2="12.6"/>
				<line fill="none" stroke="#666666" stroke-width="2.1407" stroke-linejoin="round" x1="35.5" y1="4.1" x2="23.1" y2="16.4"/>
			</g>
			<g>
				<circle fill="none" stroke="#666666" stroke-width="2.1407" stroke-linejoin="round" cx="232.2" cy="165.3" r="12.7"/>
				<g>
					<path fill="#666666" d="M232.1,164.8c-1,0-1.8,0.7-1.7,1.7c0,0.8,0.7,1.5,1.5,1.5c1,0,1.8-0.7,1.7-1.7
						C233.6,165.5,233,164.8,232.1,164.8z"/>
					<path fill="none" stroke="#666666" stroke-width="2.1407" stroke-linejoin="round" d="M244.1,165.3c-0.1-1.4-0.4-2.7-0.9-3.9
						h-22.4c-0.6,1.4-0.9,2.9-0.9,4.5c0.1,0,0.1,0,0.2,0c4.9,0.3,9,4.3,9.2,9.2c0,0.9,0,1.7-0.2,2.5c0.7,0.2,1.5,0.3,2.3,0.3
						c1.3,0.1,2.5-0.1,3.7-0.4c-0.2-0.8-0.2-1.6-0.2-2.5c0.3-4.9,4.3-9,9.2-9.2h0.1C244.1,165.7,244.1,165.5,244.1,165.3z"/>
				</g>
			</g>
			<polyline id="XMLID_112_" fill="none" stroke="#666666" stroke-width="1.6056" stroke-miterlimit="10" points="239.1,130.5 
				233.7,135.9 228.4,130.5 			"/>
			<g>
				<polyline id="XMLID_111_" fill="none" stroke="#666666" stroke-width="1.6056" stroke-miterlimit="10" points="193.8,163 
					199.2,168.4 193.9,173.7 				"/>
			</g>
			<g>
				<polyline id="XMLID_110_" fill="none" stroke="#666666" stroke-width="1.6056" stroke-miterlimit="10" points="203.8,20 
					209.2,25.3 203.9,30.7 				"/>
			</g>
			<g>
				<text transform="matrix(1.0217 0 0 1 42.1818 28.4886)" fill="#666666" font-family="'UniversLTStd-Light'" font-size="14">Solar panel</text>
			</g>
			<g>
				<text transform="matrix(1.0217 0 0 1 258.358 173.3146)" fill="#666666" font-family="'UniversLTStd-Light'" font-size="14">Gaming Arena</text>
			</g>
			<g>
				<text transform="matrix(1.0217 0 0 1 258.2922 28.4886)" fill="#666666" font-family="'UniversLTStd-Light'" font-size="14">Storage</text>
			</g>
			
				<line fill="none" stroke="#666666" stroke-width="2.2716" stroke-linecap="round" stroke-linejoin="round" stroke-miterlimit="10" stroke-dasharray="0,10" x1="233.7" y1="123.2" x2="233.7" y2="47.9"/>
			
				<path fill="none" stroke="#666666" stroke-width="2.0582" stroke-linecap="round" stroke-linejoin="round" stroke-miterlimit="10" stroke-dasharray="0,5.1454" d="
				M73.4,49.7c0,65.5,53.1,118.6,118.6,118.6"/>
		</g>
		
			<line fill="none" stroke="#666666" stroke-width="2.0582" stroke-linecap="round" stroke-linejoin="round" stroke-miterlimit="10" stroke-dasharray="0,5.1454" x1="126.2" y1="25.4" x2="200.8" y2="25.4"/>
	</g>
</g>
<g id="_x33_dnav">
</g>
<g id="guide" display="none">
</g>
</svg>
