<?xml version="1.0" encoding="utf-8"?>
<!-- Generator: Adobe Illustrator 18.1.1, SVG Export Plug-In . SVG Version: 6.00 Build 0)  -->
<svg version="1.1" id="Layer_1" xmlns="http://www.w3.org/2000/svg" xmlns:xlink="http://www.w3.org/1999/xlink" x="0px" y="0px"
	 viewBox="0 0 495.8 156.7" enable-background="new 0 0 495.8 156.7" xml:space="preserve">
<g>
	<g>
		<path fill="#666666" d="M437.5,51.9c-0.5-2.8-3-5-6-5c-3.3,0-6.1,2.7-6.1,6.1s2.7,6.1,6.1,6.1c2,0,3.7-0.9,4.8-2.4l-1.4-1.1
			c-0.8,1-2,1.7-3.4,1.7c-2.3,0-4.3-1.9-4.3-4.3s1.9-4.3,4.3-4.3c2,0,3.7,1.4,4.1,3.2h-4.5v1.8h6.3V51.9z"/>
		<path fill="#666666" d="M411.1,51.9c-0.5-2.8-3-5-6-5c-3.3,0-6.1,2.7-6.1,6.1s2.7,6.1,6.1,6.1c2,0,3.7-0.9,4.8-2.4l-1.4-1.1
			c-0.8,1-2,1.7-3.4,1.7c-2.3,0-4.3-1.9-4.3-4.3s1.9-4.3,4.3-4.3c2,0,3.7,1.4,4.1,3.2h-4.5v1.8h6.3V51.9z"/>
		<path fill="#666666" d="M441.1,54.9V43.2h-1.8v11.8c0,1.9,0.9,3.1,2.4,4.1l1-1.5C441.7,56.8,441.1,56.2,441.1,54.9z"/>
		<path fill="#666666" d="M423.8,51.9c0-2.8-2.3-5-5-5c-1.6,0-3,0.6-4,1.7v-1.2h-1.8v6.3h1.8v-1.5c0.3-1.5,1.6-3.5,4-3.5
			c1.8,0,3.2,1.4,3.2,3.2v6.9h1.8V51.9z"/>
	</g>
	<g>
		
			<circle fill="none" stroke="#666666" stroke-width="3" stroke-linejoin="round" stroke-miterlimit="10" cx="29.7" cy="46.9" r="15.2"/>
		
			<line fill="none" stroke="#666666" stroke-width="3" stroke-linejoin="round" stroke-miterlimit="10" x1="29.7" y1="76.6" x2="29.7" y2="68.2"/>
		
			<line fill="none" stroke="#666666" stroke-width="3" stroke-linejoin="round" stroke-miterlimit="10" x1="29.7" y1="25.6" x2="29.7" y2="17.2"/>
		
			<line fill="none" stroke="#666666" stroke-width="3" stroke-linejoin="round" stroke-miterlimit="10" x1="0" y1="46.9" x2="8.4" y2="46.9"/>
		
			<line fill="none" stroke="#666666" stroke-width="3" stroke-linejoin="round" stroke-miterlimit="10" x1="51" y1="46.9" x2="59.3" y2="46.9"/>
		
			<line fill="none" stroke="#666666" stroke-width="3" stroke-linejoin="round" stroke-miterlimit="10" x1="8.7" y1="67.9" x2="14.6" y2="62"/>
		
			<line fill="none" stroke="#666666" stroke-width="3" stroke-linejoin="round" stroke-miterlimit="10" x1="44.7" y1="31.8" x2="50.6" y2="25.9"/>
		
			<line fill="none" stroke="#666666" stroke-width="3" stroke-linejoin="round" stroke-miterlimit="10" x1="8.7" y1="25.9" x2="14.6" y2="31.8"/>
		
			<line fill="none" stroke="#666666" stroke-width="3" stroke-linejoin="round" stroke-miterlimit="10" x1="44.7" y1="62" x2="50.6" y2="67.9"/>
	</g>
	<g>
		<g>
			
				<line fill="none" stroke="#666666" stroke-width="3" stroke-linejoin="round" stroke-miterlimit="10" x1="495.8" y1="155.2" x2="176.9" y2="155.2"/>
			<path fill="none" stroke="#666666" stroke-width="3" stroke-linejoin="round" stroke-miterlimit="10" d="M216.9,155.7V26.1
				c0-13.6-11-24.6-24.6-24.6h-5.7v97.8h29.7"/>
			<path fill="none" stroke="#666666" stroke-width="3" stroke-linejoin="round" stroke-miterlimit="10" d="M270.5,112.3l1.5-6.3
				c0.5-1.9,1.7-3.7,3.7-3.7h18.1c2,0,3,1.5,3.7,3.7l3,10.9h-35.9c-2,0-3.7,1.7-3.7,3.7v10.9c0,2,1.7,3.7,3.7,3.7h4
				c-0.2,0.6-0.3,1.2-0.3,1.8c0,3.1,2.5,5.5,5.5,5.5c3.1,0,5.5-2.5,5.5-5.5c0-0.6-0.1-1.2-0.3-1.8h11.4c-0.2,0.6-0.3,1.2-0.3,1.8
				c0,3.1,2.5,5.5,5.5,5.5c3.1,0,5.5-2.5,5.5-5.5c0-0.6-0.1-1.2-0.3-1.8h3.9c2,0,3.7-1.7,3.7-3.7v-10.9c0-2-1.7-3.7-3.7-3.7"/>
			<g>
				
					<rect x="244.5" y="29.4" fill="none" stroke="#666666" stroke-width="3" stroke-linejoin="round" stroke-miterlimit="10" width="213.6" height="114.2"/>
				
					<line fill="none" stroke="#666666" stroke-width="3" stroke-linejoin="round" stroke-miterlimit="10" x1="244.3" y1="73.4" x2="458.3" y2="73.4"/>
				<g>
					
						<line fill="none" stroke="#666666" stroke-width="3" stroke-linejoin="round" stroke-miterlimit="10" x1="359.8" y1="73.9" x2="359.8" y2="143.9"/>
					
						<line fill="none" stroke="#666666" stroke-width="3" stroke-linejoin="round" stroke-miterlimit="10" x1="343.8" y1="73.9" x2="343.8" y2="143.9"/>
				</g>
				<g>
					
						<line fill="none" stroke="#666666" stroke-width="3" stroke-linejoin="round" stroke-miterlimit="10" x1="457.8" y1="73.9" x2="457.8" y2="143.9"/>
					
						<line fill="none" stroke="#666666" stroke-width="3" stroke-linejoin="round" stroke-miterlimit="10" x1="441.8" y1="73.9" x2="441.8" y2="143.9"/>
				</g>
				<g>
					
						<line fill="none" stroke="#666666" stroke-width="3" stroke-linejoin="round" stroke-miterlimit="10" x1="260.8" y1="73.9" x2="260.8" y2="143.9"/>
					
						<line fill="none" stroke="#666666" stroke-width="3" stroke-linejoin="round" stroke-miterlimit="10" x1="244.8" y1="73.9" x2="244.8" y2="143.9"/>
				</g>
				
					<rect x="236.8" y="143.7" fill="none" stroke="#666666" stroke-width="3" stroke-linejoin="round" stroke-miterlimit="10" width="229.3" height="11.6"/>
			</g>
			<g>
				
					<circle fill="none" stroke="#666666" stroke-width="3" stroke-linejoin="round" stroke-miterlimit="10" cx="417.9" cy="100.2" r="4.4"/>
				<path fill="none" stroke="#666666" stroke-width="3" stroke-linejoin="round" stroke-miterlimit="10" d="M409.5,126.4v-11.1
					c0-3.4,2.7-6.1,6.1-6.1h4.6c3.4,0,6.1,2.7,6.1,6.1v11.1h-11.6v17.2h6.8v-13.2"/>
			</g>
			<g>
				
					<circle fill="none" stroke="#666666" stroke-width="3" stroke-linejoin="round" stroke-miterlimit="10" cx="369" cy="100.2" r="4.4"/>
				<path fill="none" stroke="#666666" stroke-width="3" stroke-linejoin="round" stroke-miterlimit="10" d="M377.4,126.4v-11.1
					c0-3.4-2.7-6.1-6.1-6.1h-4.6c-3.4,0-6.1,2.7-6.1,6.1v11.1h11.6v17.2h-6.8v-13.2"/>
			</g>
			<g>
				
					<circle fill="none" stroke="#666666" stroke-width="3" stroke-linejoin="round" stroke-miterlimit="10" cx="324.8" cy="100.2" r="4.4"/>
				<path fill="none" stroke="#666666" stroke-width="3" stroke-linejoin="round" stroke-miterlimit="10" d="M333.2,126.4v-11.1
					c0-3.4-2.7-6.1-6.1-6.1h-4.6c-3.4,0-6.1,2.7-6.1,6.1v11.1H328v17.2h-6.8v-13.2"/>
			</g>
			<path fill="none" stroke="#666666" stroke-width="3" stroke-linejoin="round" stroke-miterlimit="10" d="M396.8,122.7h2.4
				c1.8,0,3.2,1.4,3.2,3.2v17.7h-8.9v-17.7C393.5,124.1,395,122.7,396.8,122.7z"/>
		</g>
	</g>
	<g>
		<g>
			<polyline fill="none" stroke="#666666" stroke-width="3" stroke-linejoin="round" stroke-miterlimit="10" points="158.2,154.7 
				140.6,154.7 154.4,113 121.4,113 108,154.7 129.9,154.7 			"/>
			<polyline fill="none" stroke="#666666" stroke-width="3" stroke-linejoin="round" stroke-miterlimit="10" points="111.1,154.7 
				93.5,154.7 107.1,113 74.2,113 60.9,154.7 82.8,154.7 			"/>
			<polyline fill="none" stroke="#666666" stroke-width="3" stroke-linejoin="round" stroke-miterlimit="10" points="63.7,154.7 
				46.2,154.7 59.9,113 26.9,113 13.6,154.7 35.5,154.7 			"/>
		</g>
	</g>
</g>
</svg>
