<?xml version="1.0" encoding="utf-8"?>
<!-- Generator: Adobe Illustrator 18.1.1, SVG Export Plug-In . SVG Version: 6.00 Build 0)  -->
<svg version="1.1" xmlns="http://www.w3.org/2000/svg" xmlns:xlink="http://www.w3.org/1999/xlink" x="0px" y="0px"
	 viewBox="0 0 26 28" enable-background="new 0 0 26 28" xml:space="preserve">
<symbol  id="New_Symbol_2" viewBox="-16.4 -5.9 37.4 11.9">
	<text transform="matrix(1 0 0 -1 -4.3003 -3.1904)" fill="#FF0F5D" font-family="'UniversLTStd-Light'" font-size="11">LIVE</text>
	<path fill="#FF0F5D" d="M-9.4,0.6c0-1.9-1.6-3.5-3.5-3.5s-3.5,1.6-3.5,3.5s1.6,3.5,3.5,3.5S-9.4,2.5-9.4,0.6z"/>
</symbol>
<symbol  id="plus_-_b" viewBox="-19.8 -18.9 39 39">
	<g>
		<g>
			
				<image overflow="visible" opacity="0.3" width="39" height="39" xlink:href="F3BD4AD5EE2B0BD3.png"  transform="matrix(1 0 0 -1 -19.8232 20.0541)">
			</image>
			<g>
				<path fill="#FFFFFF" d="M-0.1,15.8c-8.3,0-15-6.7-15-15s6.7-15,15-15s15,6.7,15,15S8.2,15.8-0.1,15.8z"/>
			</g>
		</g>
		<line fill="none" stroke="#0555F9" stroke-width="1.7647" stroke-miterlimit="10" x1="-5.4" y1="-4" x2="-5.4" y2="3"/>
		<line fill="none" stroke="#0555F9" stroke-width="1.7647" stroke-miterlimit="10" x1="5.2" y1="-4" x2="5.2" y2="1.2"/>
		<line fill="none" stroke="#0555F9" stroke-width="1.7647" stroke-miterlimit="10" x1="1.7" y1="-4" x2="1.7" y2="8.3"/>
		<line fill="none" stroke="#0555F9" stroke-width="1.7647" stroke-miterlimit="10" x1="-1.8" y1="-4" x2="-1.8" y2="5.7"/>
	</g>
</symbol>
<g id="bg">
	<g id="header">
	</g>
</g>
<g id="icon_grids">
</g>
<g id="graphic">
	<g id="New_Symbol">
	</g>
	<g id="numero">
	</g>
	<polyline fill="none" stroke="#666666" stroke-width="2" stroke-linejoin="round" stroke-miterlimit="10" points="16,24 16,17 
		10,17 10,27 22,27 22,12 25,12 25,11 21,7.7 21,2 17,2 17,4 13,1 1,11 1,12 4,12 4,27 7,27 	"/>
</g>
<g id="_x33_dnav">
</g>
<g id="guide" display="none">
</g>
</svg>
