<?xml version="1.0" encoding="utf-8"?>
<!-- Generator: Adobe Illustrator 18.1.1, SVG Export Plug-In . SVG Version: 6.00 Build 0)  -->
<svg version="1.1" id="Layer_1" xmlns="http://www.w3.org/2000/svg" xmlns:xlink="http://www.w3.org/1999/xlink" x="0px" y="0px"
	 viewBox="0 0 365.8 243.9" enable-background="new 0 0 365.8 243.9" xml:space="preserve">
<g>
	<defs>
		<rect id="SVGID_1_" x="0" y="0" width="365.8" height="243.9"/>
	</defs>
	<clipPath id="SVGID_2_">
		<use xlink:href="#SVGID_1_"  overflow="visible"/>
	</clipPath>
	<g clip-path="url(#SVGID_2_)">
		<g>
			<path fill="none" stroke="#666666" stroke-width="3" stroke-linejoin="round" stroke-miterlimit="10" d="M29.9,122.8"/>
			<path fill="none" stroke="#666666" stroke-width="3" stroke-linejoin="round" stroke-miterlimit="10" d="M29.5,96.9l-0.1,0
				c0,8.2,2,16.3,5.9,23.5l0.7,1.3l0.3,0.3c0.9-0.1,1.8-0.1,2.7-0.2l3.4-0.2c0.9,0,1.7,0.7,1.7,1.7v10.6c0,1.1-0.9,1.9-2,1.6
				l-23.3-6.2c-1.8-0.5-1.8-3,0.2-3.5V93.1"/>
			<path fill="none" stroke="#666666" stroke-width="3" stroke-linejoin="round" stroke-miterlimit="10" d="M29.5,77.2l-0.1,0
				c0-8.2,2-16.3,5.9-23.5l0.7-1.3l0.3-0.3c0.9,0.1,1.8,0.1,2.7,0.2l3.4,0.2c0.9,0,1.7-0.7,1.7-1.7V40.2c0-1.1-0.9-1.9-2-1.6
				l-23.3,6.2c-1.8,0.5-1.8,3,0.2,3.5v32.8"/>
			<path fill="none" stroke="#666666" stroke-width="3" stroke-linejoin="round" stroke-miterlimit="10" d="M264.7,117
				c-3.1-7.9-5-16.3-5.6-25.1l0,0c-17.3,0-27.5,7.6-34.9,11.9c-7.4,4.3-20.6,9.8-31.4,9.8c-24.2,0-43.5-5.4-43.5-5.4"/>
			<g>
				<path fill="none" stroke="#666666" stroke-width="3" stroke-linejoin="round" stroke-miterlimit="10" d="M64.6,117l-3.1-13.2
					c-1.2-3.8-3.6-7-6.9-9.2l-0.3-0.2"/>
				<path fill="none" stroke="#666666" stroke-width="3" stroke-linejoin="round" stroke-miterlimit="10" d="M225.1,133.1v-9.9
					c0-1.3,1.2-2.3,2.5-2.3c0,0,0.2-0.5,17.4-0.5s17.5,0.5,17.5,0.5c1.3,0,2.5,1,2.5,2.3v1v10.3v1c0,1.3-1.2,2.3-2.5,2.3
					c0,0-0.1,0.5-17.4,0.5s-17.4-0.5-17.4-0.5c-1.3,0-2.4-1-2.4-2.3c0,0-2.8,0.3-4.8,0.3c-30.9,0-34.8-3-47.6-6.3
					c-7.5-1.9-14.1-6.5-16-14l0,0c-1-3.7-4-6.6-7.7-7.3c-19.3-4.5-38.9-7.5-58.6-10.5h0c-3.2,2-5.9,4.4-7.7,7.5l-10.4,15
					c12.1,0.1,12.2,0.5,12.2,0.5c1.2,0,2.3,1,2.3,2.2v10.8c0,1.2-1.1,2.2-2.3,2.2c0,0,0,0.5-16.6,0.5s-16.7-0.5-16.7-0.5
					c-1.2,0-2.4-1-2.4-2.2v-10.8c0-1.2,1.1-2.2,2.3-2.2c0,0,0.7-0.5,16.7-0.5v-22"/>
			</g>
			<g>
				<path fill="none" stroke="#666666" stroke-width="3" stroke-linejoin="round" stroke-miterlimit="10" d="M64.6,56.7l-3.1,13.2
					c-1.2,3.8-3.7,7.4-7,9.5l-0.2,0c-12.8,0.8-25.7,1.2-38.6,1.2h-4.3c-2.6,0-4.3,2.2-4.3,4.8v1.3v0.2v1.3c0,2.6,1.7,4.4,4.3,4.4
					h4.3c23.5,0,46.9,1.5,70.2,4.3"/>
				<path fill="none" stroke="#666666" stroke-width="3" stroke-linejoin="round" stroke-miterlimit="10" d="M85.8,72.4
					c-1.1-1.2-2.1-2.5-2.9-3.9L72.5,53.5C84.6,53.4,84.7,53,84.7,53c1.2,0,2.3-1,2.3-2.2V40c0-1.2-1.1-2.2-2.3-2.2
					c0,0,0-0.5-16.6-0.5s-16.7,0.5-16.7,0.5c-1.2,0-2.4,1-2.4,2.2v10.8c0,1.2,1.1,2.2,2.3,2.2c0,0,0.7,0.5,16.7,0.5v22.2
					c0,0-0.1,2.7,0,2.7c27.3-2.4,54.4-6.8,81.1-13c3.8-0.7,6.8-3.6,7.7-7.3l0,0c1.9-7.5,8.5-12.1,16-14c12.8-3.3,16.7-6.3,47.6-6.3"
					/>
				<path fill="none" stroke="#666666" stroke-width="3" stroke-linejoin="round" stroke-miterlimit="10" d="M90.7,75.9"/>
			</g>
			<g>
				<path fill="none" stroke="#666666" stroke-width="3" stroke-linejoin="round" stroke-miterlimit="10" d="M147.2,63.2l2.7-14.5
					c0.2-1.1-0.7-2.1-1.8-2.1h-11c-3.2,0-6.1,2-7.2,5.1l-6.7,19.2l0-9.7c0-1-1.2-1.5-1.9-0.9l-2.7,2.3c-2,1.7-1.5,4.9,0.8,5.9l0,0"
					/>
			</g>
			<g>
				<path fill="none" stroke="#666666" stroke-width="3" stroke-linejoin="round" stroke-miterlimit="10" d="M147.2,110.6l2.7,14.3
					c0.2,1.1-0.7,1.8-1.8,1.8h-11c-3.2,0-6.1-1.8-7.2-4.8l-6.7-19.1l0,9.8c0,1-1.2,1.6-1.9,0.9l-2.7-2.3c-2-1.7-1.5-4.8,0.8-5.9l0,0
					"/>
			</g>
			<polyline fill="none" stroke="#666666" stroke-width="3" stroke-linejoin="round" stroke-miterlimit="10" points="284.1,79.1 
				284.1,55.6 269.1,55.6 269.1,81.8 269.1,86.7 269.1,117.6 271.6,117.6 			"/>
			<path fill="none" stroke="#666666" stroke-width="3" stroke-linejoin="round" stroke-miterlimit="10" d="M269.5,124.7
				c3.6,0,6.3-3,6.3-7h8.3V91.9l7-0.3v-9.1l-7-0.3v7"/>
			<path fill="none" stroke="#666666" stroke-width="3" stroke-linejoin="round" stroke-miterlimit="10" d="M149.2,65.5
				c0,0,19.4-5.4,43.5-5.4c10.8,0,24.1,5.5,31.4,9.8c7.4,4.3,17.6,11.9,34.9,11.9l0,0c0.6-8.8,2.6-17.2,5.6-25.1"/>
			<path fill="none" stroke="#666666" stroke-width="3" stroke-linejoin="round" stroke-miterlimit="10" d="M167.3,84.4
				c0.8-1.2,2.2-2,3.7-2c2.5,0,9.7,2,9.7,4.5s-7.2,4.5-9.7,4.5s-4.5-2-4.5-4.5"/>
			<path fill="none" stroke="#666666" stroke-width="3" stroke-linejoin="round" stroke-miterlimit="10" d="M126.3,75.1l-6.7,1.1
				c-2.6,0.4-4.5,2.6-4.5,5.3v5.3V87v5.3c0,2.6,1.9,4.9,4.5,5.3l10.1,1.5l1.9-1.5c1.5-1.1,3.4-1.9,5.2-1.9h19c2.8,0,5.3-2,5.3-4.7
				v-1.2v-2.8v-4.2c0-2.8-2.5-5.1-5.3-5.1h-19c-1.9,0-3.7-0.5-5.2-1.7l-1.9-1.3c0,0,16.5-3.8,42-3.8c21.2,0,43.5,9.2,50.4,12.4
				c1.3,0.6,2.1,1.9,2.1,3.4l-0.1,0v0.4h0.1c0,1.5-0.8,2.8-2.1,3.4c-6.9,3.1-29.2,12.3-50.4,12.3c-17.9,0-31.3-1.9-37.7-3"/>
			<path fill="none" stroke="#666666" stroke-width="3" stroke-linejoin="round" stroke-miterlimit="10" d="M274.7,51.8
				c-1.2-1.7-3.1-2.8-5.3-2.8l-4.4,0.1v1.3c0,1.3-1.2,2.3-2.5,2.3c0,0-0.2,0.5-17.4,0.5s-17.5-0.5-17.5-0.5c-1.3,0-2.6-1-2.6-2.3
				V38.2c0-1.3,1.2-2.3,2.5-2.3c0,0,0.1-0.5,17.4-0.5s17.5,0.5,17.5,0.5c1.3,0,2.5,1,2.5,2.3v8"/>
		</g>
		<g opacity="0.3">
			<g>
				
					<circle fill="none" stroke="#666666" stroke-width="3" stroke-linejoin="round" stroke-miterlimit="10" cx="98.6" cy="200.6" r="18.8"/>
				
					<circle fill="none" stroke="#666666" stroke-width="3" stroke-linejoin="round" stroke-miterlimit="10" cx="98.6" cy="200.6" r="7.1"/>
				<g>
					<g>
						
							<circle fill="none" stroke="#666666" stroke-width="3" stroke-linejoin="round" stroke-miterlimit="10" cx="100.4" cy="197.8" r="0.2"/>
						
							<circle fill="none" stroke="#666666" stroke-width="3" stroke-linejoin="round" stroke-miterlimit="10" cx="96.7" cy="203.5" r="0.2"/>
					</g>
				</g>
				<g>
					<g>
						
							<circle fill="none" stroke="#666666" stroke-width="3" stroke-linejoin="round" stroke-miterlimit="10" cx="101.4" cy="202.5" r="0.2"/>
						
							<circle fill="none" stroke="#666666" stroke-width="3" stroke-linejoin="round" stroke-miterlimit="10" cx="95.7" cy="198.8" r="0.2"/>
					</g>
				</g>
			</g>
		</g>
		<g opacity="0.3">
			<path fill="none" stroke="#666666" stroke-width="3" stroke-linejoin="round" stroke-miterlimit="10" d="M239.3,211L239.3,211
				c-5.8,5.8-10.1,13-12.4,20.9l-0.4,1.4l0,0.5c0.7,0.6,1.4,1.2,2,1.8l2.6,2.3c0.7,0.6,0.7,1.7,0.1,2.4l-7.5,7.5
				c-0.8,0.8-2,0.6-2.6-0.3l-12.2-21c-0.9-1.6,0.9-3.4,2.5-2.5l23.1-23.1"/>
			<path fill="none" stroke="#666666" stroke-width="3" stroke-linejoin="round" stroke-miterlimit="10" d="M253.1,197.1
				L253.1,197.1c5.8-5.8,13-10.1,20.9-12.4l1.4-0.4l0.5,0c0.6,0.7,1.2,1.4,1.8,2l2.3,2.6c0.6,0.7,1.7,0.7,2.4,0.1l7.5-7.5
				c0.8-0.8,0.6-2-0.3-2.6l-21-12.2c-1.6-0.9-3.4,0.9-2.5,2.5l-23.1,23.1"/>
			<g>
				<path fill="none" stroke="#666666" stroke-width="3" stroke-linejoin="round" stroke-miterlimit="10" d="M292.6,207.6l-11.6,7.1
					c-3.5,1.8-7.8,2.6-11.7,1.8l-0.1-0.1c-9.7-8.5-19.1-17.3-28.2-26.4l-3.1-3.1c-1.9-1.9-4.9-1.9-6.7,0l-0.9,0.9l-0.1,0.1l-0.9,0.9
					c-1.9,1.9-1.9,4.9,0,6.7l3.1,3.1c16.6,16.6,32.2,34.2,46.7,52.6"/>
				<path fill="none" stroke="#666666" stroke-width="3" stroke-linejoin="round" stroke-miterlimit="10" d="M296.5,233.7
					c0-1.6,0.3-3.3,0.7-4.8l3.2-17.9c8.6,8.5,9,8.2,9,8.2c0.9,0.9,2.3,0.9,3.1,0l7.6-7.6c0.9-0.9,0.9-2.3,0-3.1
					c0,0,0.4-0.4-11.3-12.1s-12.1-11.3-12.1-11.3c-0.9-0.9-2.3-0.9-3.1,0l-7.6,7.6c-0.9,0.9-0.9,2.3,0,3.1c0,0-0.3,0.4,11.3,12.1
					l-15.7,15.7c0,0-2,1.9-1.9,1.9c11.4,9.5,23.1,18.6,35.1,27.2"/>
				<path fill="none" stroke="#666666" stroke-width="3" stroke-linejoin="round" stroke-miterlimit="10" d="M297.4,239.7"/>
			</g>
		</g>
		<g opacity="0.3">
			
				<line fill="none" stroke="#666666" stroke-width="3" stroke-linejoin="round" stroke-miterlimit="10" x1="170.6" y1="164.6" x2="176.6" y2="164.6"/>
			
				<line fill="none" stroke="#666666" stroke-width="3" stroke-linejoin="round" stroke-miterlimit="10" x1="170.6" y1="171.1" x2="176.6" y2="171.1"/>
			
				<line fill="none" stroke="#666666" stroke-width="3" stroke-linejoin="round" stroke-miterlimit="10" x1="170.6" y1="177.6" x2="176.6" y2="177.6"/>
		</g>
		<g>
			<path fill="none" stroke="#666666" stroke-width="3" stroke-linejoin="round" stroke-miterlimit="10" d="M196.1,155.7
				c0-2.8-2.3-5-5-5h-22.9c-2.8,0-5,2.3-5,5v22.9c0,2.8,2.3,5,5,5H191c2.8,0,5-2.3,5-5V155.7z"/>
		</g>
		<path opacity="0.3" fill="none" stroke="#666666" stroke-width="3" stroke-linejoin="round" stroke-miterlimit="10" d="
			M195.6,166.6h4.4c4.4,0,8.1-3.7,8.1-8.2v-34.3"/>
		
			<circle opacity="0.3" fill="none" stroke="#666666" stroke-width="3" stroke-linejoin="round" stroke-miterlimit="10" stroke-dasharray="1.2449,2.3653" cx="149.2" cy="243" r="28"/>
	</g>
</g>
</svg>
