<?xml version="1.0" encoding="utf-8"?>
<!-- Generator: Adobe Illustrator 19.0.0, SVG Export Plug-In . SVG Version: 6.00 Build 0)  -->
<svg version="1.1" id="Layer_1" xmlns="http://www.w3.org/2000/svg" xmlns:xlink="http://www.w3.org/1999/xlink" x="0px" y="0px"
	 viewBox="-451.1 649.1 277.6 165.6" enable-background="new -451.1 649.1 277.6 165.6" xml:space="preserve">
<symbol  id="New_Symbol_43" viewBox="-70.3 -52.5 140.6 105">
	<g>
		<path id="XMLID_25_" opacity="0.15" fill="#1D3A57" enable-background="new    " d="M17.8-9.9c-2.4,1.4-6.2,1.4-8.5,0
			c-0.3-0.2-0.6-0.4-0.8-0.6c-5.6,2-12.9,1.7-18.1-0.7c-2.9,0.9-6.5,0.6-9-0.8c-3-1.7-3-4.5,0-6.3c1-0.6,2.2-1,3.5-1.2
			c0.5-1.8,2-3.6,4.4-5.1c2.9-1.7,6.6-2.5,10.3-2.6c0-0.9,0.6-1.8,1.8-2.5c2.4-1.4,6.2-1.4,8.5,0c2.2,1.2,2.3,3.2,0.5,4.6
			c0.3,0.2,0.6,0.3,0.9,0.5c4.1,2.4,5.4,5.8,3.9,8.8c0.9,0.2,1.8,0.4,2.5,0.9C20.2-13.5,20.2-11.3,17.8-9.9z"/>
		<g id="XMLID_23_">
			<path id="XMLID_24_" fill="#5C453B" d="M1.2,34.5h-1.5c-0.4,0-0.8-0.3-0.8-0.8v-50.1c0-0.8,0.7-1.5,1.5-1.5l0,0
				c0.8,0,1.5,0.7,1.5,1.5v50.1C1.9,34.2,1.6,34.5,1.2,34.5z"/>
		</g>
		
			<line id="XMLID_22_" fill="none" stroke="#5C453B" stroke-width="1.6752" stroke-linecap="round" stroke-linejoin="round" stroke-miterlimit="10" x1="7.4" y1="13" x2="1.1" y2="9.8"/>
		
			<line id="XMLID_21_" fill="none" stroke="#5C453B" stroke-width="1.6752" stroke-linecap="round" stroke-linejoin="round" stroke-miterlimit="10" x1="6.8" y1="27.9" x2="0.6" y2="24.7"/>
		
			<line id="XMLID_20_" fill="none" stroke="#5C453B" stroke-width="1.6752" stroke-linecap="round" stroke-linejoin="round" stroke-miterlimit="10" x1="7.4" y1="-0.1" x2="1.1" y2="-3.3"/>
		
			<line id="XMLID_19_" fill="none" stroke="#5C453B" stroke-width="1.6752" stroke-linecap="round" stroke-linejoin="round" stroke-miterlimit="10" x1="-6.6" y1="31" x2="-0.1" y2="28.3"/>
		
			<line id="XMLID_18_" fill="none" stroke="#5C453B" stroke-width="1.6752" stroke-linecap="round" stroke-linejoin="round" stroke-miterlimit="10" x1="-6.6" y1="14.3" x2="-0.1" y2="11.7"/>
		
			<line id="XMLID_17_" fill="none" stroke="#5C453B" stroke-width="1.6752" stroke-linecap="round" stroke-linejoin="round" stroke-miterlimit="10" x1="-6.6" y1="4.9" x2="-0.1" y2="2.2"/>
		<path id="XMLID_16_" fill="#008C5A" d="M-10.8,1.6c2.7,0,4.9,2.2,4.9,4.9s-2.2,4.9-4.9,4.9s-4.9-2.2-4.9-4.9S-13.5,1.6-10.8,1.6z"
			/>
		
			<linearGradient id="XMLID_28_" gradientUnits="userSpaceOnUse" x1="34864.2578" y1="-41418.625" x2="34864.2578" y2="-41408.8672" gradientTransform="matrix(-1 0 0 -1 34853.4609 -41407.2656)">
			<stop  offset="0" style="stop-color:#55BE5A;stop-opacity:0"/>
			<stop  offset="0.9753" style="stop-color:#312783;stop-opacity:0.9645"/>
		</linearGradient>
		<path id="XMLID_15_" opacity="0.3" fill="url(#XMLID_28_)" enable-background="new    " d="M-10.8,1.6c2.7,0,4.9,2.2,4.9,4.9
			s-2.2,4.9-4.9,4.9s-4.9-2.2-4.9-4.9S-13.5,1.6-10.8,1.6z"/>
		<path id="XMLID_14_" fill="#008C5A" d="M12.1,23.3c4,0,7.3,3.3,7.3,7.3s-3.3,7.3-7.3,7.3s-7.3-3.3-7.3-7.3S8.1,23.3,12.1,23.3z"/>
		
			<linearGradient id="XMLID_29_" gradientUnits="userSpaceOnUse" x1="34841.3594" y1="-41445.125" x2="34841.3594" y2="-41430.5508" gradientTransform="matrix(-1 0 0 -1 34853.4609 -41407.2656)">
			<stop  offset="0" style="stop-color:#55BE5A;stop-opacity:0"/>
			<stop  offset="0.9753" style="stop-color:#312783;stop-opacity:0.9645"/>
		</linearGradient>
		<path id="XMLID_13_" opacity="0.3" fill="url(#XMLID_29_)" enable-background="new    " d="M12.1,23.3c4,0,7.3,3.3,7.3,7.3
			s-3.3,7.3-7.3,7.3s-7.3-3.3-7.3-7.3S8.1,23.3,12.1,23.3z"/>
		<path id="XMLID_12_" fill="#008C5A" d="M14.6,9.2c4.9,0,8.8,3.9,8.8,8.8s-3.9,8.8-8.8,8.8S5.8,22.9,5.8,18S9.7,9.2,14.6,9.2z"/>
		
			<linearGradient id="XMLID_30_" gradientUnits="userSpaceOnUse" x1="34968.5742" y1="-41471.2031" x2="34968.5742" y2="-41453.6016" gradientTransform="matrix(-1 0 0 -1 34983.1758 -41444.4297)">
			<stop  offset="0" style="stop-color:#55BE5A;stop-opacity:0"/>
			<stop  offset="0.9753" style="stop-color:#312783;stop-opacity:0.9645"/>
		</linearGradient>
		<path id="XMLID_11_" opacity="0.3" fill="url(#XMLID_30_)" enable-background="new    " d="M14.6,9.2c4.9,0,8.8,3.9,8.8,8.8
			s-3.9,8.8-8.8,8.8S5.8,22.9,5.8,18S9.7,9.2,14.6,9.2z"/>
		<path id="XMLID_10_" fill="#55BE5A" d="M10.6-2.8c2.7,0,4.9,2.2,4.9,4.9S13.3,7,10.6,7S5.7,4.8,5.7,2.1S7.9-2.8,10.6-2.8z"/>
		
			<linearGradient id="XMLID_31_" gradientUnits="userSpaceOnUse" x1="34842.8594" y1="-41414.1992" x2="34842.8594" y2="-41404.4414" gradientTransform="matrix(-1 0 0 -1 34853.4609 -41407.2656)">
			<stop  offset="0" style="stop-color:#55BE5A;stop-opacity:0"/>
			<stop  offset="0.9753" style="stop-color:#312783;stop-opacity:0.9645"/>
		</linearGradient>
		<path id="XMLID_9_" opacity="0.3" fill="url(#XMLID_31_)" enable-background="new    " d="M10.6-2.8c2.7,0,4.9,2.2,4.9,4.9
			S13.3,7,10.6,7S5.7,4.8,5.7,2.1S7.9-2.8,10.6-2.8z"/>
		<path id="XMLID_8_" fill="#008C5A" d="M-12.2,24.4c4.4,0,7.9,3.5,7.9,7.9s-3.5,7.9-7.9,7.9s-7.9-3.5-7.9-7.9S-16.6,24.4-12.2,24.4
			z"/>
		
			<linearGradient id="XMLID_32_" gradientUnits="userSpaceOnUse" x1="34995.375" y1="-41484.5312" x2="34995.375" y2="-41468.8242" gradientTransform="matrix(-1 0 0 -1 34983.1758 -41444.4297)">
			<stop  offset="0" style="stop-color:#55BE5A;stop-opacity:0"/>
			<stop  offset="0.9753" style="stop-color:#312783;stop-opacity:0.9645"/>
		</linearGradient>
		<path id="XMLID_7_" opacity="0.3" fill="url(#XMLID_32_)" enable-background="new    " d="M-12.2,24.4c4.4,0,7.9,3.5,7.9,7.9
			s-3.5,7.9-7.9,7.9s-7.9-3.5-7.9-7.9S-16.6,24.4-12.2,24.4z"/>
		<path id="XMLID_6_" fill="#008C5A" d="M-13.1,9.2c4.9,0,8.8,3.9,8.8,8.8s-3.9,8.8-8.8,8.8s-8.8-3.9-8.8-8.8S-18,9.2-13.1,9.2z"/>
		
			<linearGradient id="XMLID_33_" gradientUnits="userSpaceOnUse" x1="34996.2773" y1="-41471.2461" x2="34996.2773" y2="-41453.6445" gradientTransform="matrix(-1 0 0 -1 34983.1758 -41444.4297)">
			<stop  offset="0" style="stop-color:#55BE5A;stop-opacity:0"/>
			<stop  offset="0.9753" style="stop-color:#312783;stop-opacity:0.9645"/>
		</linearGradient>
		<path id="XMLID_5_" opacity="0.3" fill="url(#XMLID_33_)" enable-background="new    " d="M-13.1,9.2c4.9,0,8.8,3.9,8.8,8.8
			s-3.9,8.8-8.8,8.8s-8.8-3.9-8.8-8.8S-18,9.2-13.1,9.2z"/>
		<path id="XMLID_4_" fill="#008C5A" d="M0.4,15c6.2,0,11.2,5,11.2,11.2s-5,11.2-11.2,11.2s-11.2-5-11.2-11.2S-5.8,15,0.4,15z"/>
		
			<linearGradient id="XMLID_34_" gradientUnits="userSpaceOnUse" x1="34982.7773" y1="-41481.8555" x2="34982.7773" y2="-41459.3672" gradientTransform="matrix(-1 0 0 -1 34983.1758 -41444.4297)">
			<stop  offset="0" style="stop-color:#55BE5A;stop-opacity:0"/>
			<stop  offset="0.9753" style="stop-color:#312783;stop-opacity:0.9645"/>
		</linearGradient>
		<path id="XMLID_3_" opacity="0.3" fill="url(#XMLID_34_)" enable-background="new    " d="M0.4,15c6.2,0,11.2,5,11.2,11.2
			s-5,11.2-11.2,11.2s-11.2-5-11.2-11.2S-5.8,15,0.4,15z"/>
		<path id="XMLID_2_" fill="#55BE5A" d="M0.4,32.3c5.6,0,10.1,4.5,10.1,10.1S6,52.5,0.4,52.5S-9.7,48-9.7,42.4S-5.2,32.3,0.4,32.3z"
			/>
		
			<linearGradient id="XMLID_35_" gradientUnits="userSpaceOnUse" x1="34982.7773" y1="-41496.9258" x2="34982.7773" y2="-41476.6875" gradientTransform="matrix(-1 0 0 -1 34983.1758 -41444.4297)">
			<stop  offset="0" style="stop-color:#55BE5A;stop-opacity:0"/>
			<stop  offset="0.9753" style="stop-color:#312783;stop-opacity:0.9645"/>
		</linearGradient>
		<path id="XMLID_1_" opacity="0.3" fill="url(#XMLID_35_)" enable-background="new    " d="M0.4,32.3c5.6,0,10.1,4.5,10.1,10.1
			S6,52.5,0.4,52.5S-9.7,48-9.7,42.4S-5.2,32.3,0.4,32.3z"/>
	</g>
	<g>
		<g>
			<path opacity="0.15" fill="#1D3A57" enable-background="new    " d="M-30.6-2.2c-2.5,1.5-2.5,3.8,0,5.3s6.6,1.5,9.2,0
				s2.5-3.8,0-5.3S-28.1-3.6-30.6-2.2z"/>
			<g>
				<path fill="#5C453B" d="M-27,16.3h2.1V1.5c0-0.5-0.4-0.9-0.9-0.9h-0.3C-26.6,0.6-27,1-27,1.5C-27,1.5-27,16.3-27,16.3z"/>
			</g>
			<path fill="#008C5A" d="M-32.7,15.9c0,3.7,3,14.7,6.7,14.7s6.7-11,6.7-14.7s-3-6.7-6.7-6.7S-32.7,12.2-32.7,15.9z"/>
			
				<linearGradient id="SVGID_1_" gradientUnits="userSpaceOnUse" x1="31338.5605" y1="30.5943" x2="31338.5605" y2="9.2389" gradientTransform="matrix(-1 0 0 1 31312.5605 0)">
				<stop  offset="0" style="stop-color:#55BE5A;stop-opacity:0"/>
				<stop  offset="0.9753" style="stop-color:#312783;stop-opacity:0.9645"/>
			</linearGradient>
			<path opacity="0.3" fill="url(#SVGID_1_)" enable-background="new    " d="M-32.7,15.9c0,3.7,3,14.7,6.7,14.7s6.7-11,6.7-14.7
				s-3-6.7-6.7-6.7S-32.7,12.2-32.7,15.9z"/>
			
				<line fill="none" stroke="#5C453B" stroke-width="0.8" stroke-linecap="round" stroke-linejoin="round" stroke-miterlimit="10" x1="-22.9" y1="8.6" x2="-26.4" y2="5.1"/>
		</g>
	</g>
	<g>
		<g>
			<path opacity="0.15" fill="#1D3A57" enable-background="new    " d="M21.4-2.2c-2.5,1.5-2.5,3.8,0,5.3s6.6,1.5,9.2,0
				s2.5-3.8,0-5.3S23.9-3.6,21.4-2.2z"/>
			<g>
				<path fill="#5C453B" d="M25,16.3h2.1V1.5c0-0.5-0.4-0.9-0.9-0.9h-0.3C25.4,0.6,25,1,25,1.5C25,1.5,25,16.3,25,16.3z"/>
			</g>
			<path fill="#008C5A" d="M19.3,15.9c0,3.7,3,14.7,6.7,14.7s6.7-11,6.7-14.7s-3-6.7-6.7-6.7S19.3,12.2,19.3,15.9z"/>
			
				<linearGradient id="SVGID_2_" gradientUnits="userSpaceOnUse" x1="31286.5605" y1="30.5943" x2="31286.5605" y2="9.2389" gradientTransform="matrix(-1 0 0 1 31312.5605 0)">
				<stop  offset="0" style="stop-color:#55BE5A;stop-opacity:0"/>
				<stop  offset="0.9753" style="stop-color:#312783;stop-opacity:0.9645"/>
			</linearGradient>
			<path opacity="0.3" fill="url(#SVGID_2_)" enable-background="new    " d="M19.3,15.9c0,3.7,3,14.7,6.7,14.7s6.7-11,6.7-14.7
				s-3-6.7-6.7-6.7S19.3,12.2,19.3,15.9z"/>
			
				<line fill="none" stroke="#5C453B" stroke-width="0.8" stroke-linecap="round" stroke-linejoin="round" stroke-miterlimit="10" x1="29.1" y1="8.6" x2="25.6" y2="5.1"/>
		</g>
	</g>
	<g>
		<g>
			<path opacity="0.15" fill="#1D3A57" enable-background="new    " d="M21.4-33.2c-2.5,1.5-2.5,3.8,0,5.3c2.5,1.5,6.6,1.5,9.2,0
				c2.5-1.5,2.5-3.8,0-5.3C28-34.6,23.9-34.6,21.4-33.2z"/>
			<g>
				<path fill="#5C453B" d="M25-14.7h2.1v-14.8c0-0.5-0.4-0.9-0.9-0.9h-0.3c-0.5,0-0.9,0.4-0.9,0.9C25-29.5,25-14.7,25-14.7z"/>
			</g>
			<path fill="#008C5A" d="M19.3-15.1c0,3.7,3,14.7,6.7,14.7s6.7-11,6.7-14.7s-3-6.7-6.7-6.7S19.3-18.8,19.3-15.1z"/>
			
				<linearGradient id="SVGID_3_" gradientUnits="userSpaceOnUse" x1="31286.5605" y1="-0.4057" x2="31286.5605" y2="-21.7611" gradientTransform="matrix(-1 0 0 1 31312.5605 0)">
				<stop  offset="0" style="stop-color:#55BE5A;stop-opacity:0"/>
				<stop  offset="0.9753" style="stop-color:#312783;stop-opacity:0.9645"/>
			</linearGradient>
			<path opacity="0.3" fill="url(#SVGID_3_)" enable-background="new    " d="M19.3-15.1c0,3.7,3,14.7,6.7,14.7s6.7-11,6.7-14.7
				s-3-6.7-6.7-6.7S19.3-18.8,19.3-15.1z"/>
			
				<line fill="none" stroke="#5C453B" stroke-width="0.8" stroke-linecap="round" stroke-linejoin="round" stroke-miterlimit="10" x1="29.1" y1="-22.4" x2="25.6" y2="-25.9"/>
		</g>
	</g>
	<g>
		<g>
			<path opacity="0.15" fill="#1D3A57" enable-background="new    " d="M-30.6-33.2c-2.5,1.5-2.5,3.8,0,5.3c2.5,1.5,6.6,1.5,9.2,0
				c2.5-1.5,2.5-3.8,0-5.3C-24-34.6-28.1-34.6-30.6-33.2z"/>
			<g>
				<path fill="#5C453B" d="M-27-14.7h2.1v-14.8c0-0.5-0.4-0.9-0.9-0.9h-0.3c-0.5,0-0.9,0.4-0.9,0.9C-27-29.5-27-14.7-27-14.7z"/>
			</g>
			<path fill="#008C5A" d="M-32.7-15.1c0,3.7,3,14.7,6.7,14.7s6.7-11,6.7-14.7s-3-6.7-6.7-6.7S-32.7-18.8-32.7-15.1z"/>
			
				<linearGradient id="SVGID_4_" gradientUnits="userSpaceOnUse" x1="31338.5605" y1="-0.4057" x2="31338.5605" y2="-21.7611" gradientTransform="matrix(-1 0 0 1 31312.5605 0)">
				<stop  offset="0" style="stop-color:#55BE5A;stop-opacity:0"/>
				<stop  offset="0.9753" style="stop-color:#312783;stop-opacity:0.9645"/>
			</linearGradient>
			<path opacity="0.3" fill="url(#SVGID_4_)" enable-background="new    " d="M-32.7-15.1c0,3.7,3,14.7,6.7,14.7s6.7-11,6.7-14.7
				s-3-6.7-6.7-6.7S-32.7-18.8-32.7-15.1z"/>
			
				<line fill="none" stroke="#5C453B" stroke-width="0.8" stroke-linecap="round" stroke-linejoin="round" stroke-miterlimit="10" x1="-22.9" y1="-22.4" x2="-26.4" y2="-25.9"/>
		</g>
	</g>
	<g>
		<path fill="#008C5A" d="M62-2.8c4.6,0,8.3,3.7,8.3,8.3s-3.7,8.3-8.3,8.3s-8.3-3.7-8.3-8.3S57.4-2.8,62-2.8z"/>
		<linearGradient id="SVGID_5_" gradientUnits="userSpaceOnUse" x1="62.0001" y1="13.7943" x2="62.0001" y2="-2.8999">
			<stop  offset="0" style="stop-color:#55BE5A;stop-opacity:0"/>
			<stop  offset="0.9753" style="stop-color:#312783;stop-opacity:0.9645"/>
		</linearGradient>
		<path opacity="0.3" fill="url(#SVGID_5_)" enable-background="new    " d="M62-2.8c4.6,0,8.3,3.7,8.3,8.3s-3.7,8.3-8.3,8.3
			s-8.3-3.7-8.3-8.3S57.4-2.8,62-2.8z"/>
		<path fill="#008C5A" d="M62,6.2c4.6,0,8.3,3.7,8.3,8.3s-3.7,8.3-8.3,8.3s-8.3-3.7-8.3-8.3S57.4,6.2,62,6.2z"/>
		<linearGradient id="SVGID_6_" gradientUnits="userSpaceOnUse" x1="62.0001" y1="22.7943" x2="62.0001" y2="6.1001">
			<stop  offset="0" style="stop-color:#55BE5A;stop-opacity:0"/>
			<stop  offset="0.9753" style="stop-color:#312783;stop-opacity:0.9645"/>
		</linearGradient>
		<path opacity="0.3" fill="url(#SVGID_6_)" enable-background="new    " d="M62,6.2c4.6,0,8.3,3.7,8.3,8.3s-3.7,8.3-8.3,8.3
			s-8.3-3.7-8.3-8.3S57.4,6.2,62,6.2z"/>
		<path fill="#008C5A" d="M42-2.8c4.6,0,8.3,3.7,8.3,8.3s-3.7,8.3-8.3,8.3s-8.3-3.7-8.3-8.3S37.4-2.8,42-2.8z"/>
		<linearGradient id="SVGID_7_" gradientUnits="userSpaceOnUse" x1="42.0001" y1="13.7943" x2="42.0001" y2="-2.8999">
			<stop  offset="0" style="stop-color:#55BE5A;stop-opacity:0"/>
			<stop  offset="0.9753" style="stop-color:#312783;stop-opacity:0.9645"/>
		</linearGradient>
		<path opacity="0.3" fill="url(#SVGID_7_)" enable-background="new    " d="M42-2.8c4.6,0,8.3,3.7,8.3,8.3s-3.7,8.3-8.3,8.3
			s-8.3-3.7-8.3-8.3S37.4-2.8,42-2.8z"/>
		<path fill="#008C5A" d="M42,6.2c4.6,0,8.3,3.7,8.3,8.3s-3.7,8.3-8.3,8.3s-8.3-3.7-8.3-8.3S37.4,6.2,42,6.2z"/>
		<linearGradient id="SVGID_8_" gradientUnits="userSpaceOnUse" x1="42.0001" y1="22.7943" x2="42.0001" y2="6.1001">
			<stop  offset="0" style="stop-color:#55BE5A;stop-opacity:0"/>
			<stop  offset="0.9753" style="stop-color:#312783;stop-opacity:0.9645"/>
		</linearGradient>
		<path opacity="0.3" fill="url(#SVGID_8_)" enable-background="new    " d="M42,6.2c4.6,0,8.3,3.7,8.3,8.3s-3.7,8.3-8.3,8.3
			s-8.3-3.7-8.3-8.3S37.4,6.2,42,6.2z"/>
		<path fill="#55BE5A" d="M45,19.1c3.2,0,5.8,2.6,5.8,5.8s-2.6,5.8-5.8,5.8s-5.8-2.6-5.8-5.8S41.8,19.1,45,19.1z"/>
		<linearGradient id="SVGID_9_" gradientUnits="userSpaceOnUse" x1="45.0001" y1="30.6943" x2="45.0001" y2="19.0083">
			<stop  offset="0" style="stop-color:#55BE5A;stop-opacity:0"/>
			<stop  offset="0.9753" style="stop-color:#312783;stop-opacity:0.9645"/>
		</linearGradient>
		<path opacity="0.3" fill="url(#SVGID_9_)" enable-background="new    " d="M45,19.1c3.2,0,5.8,2.6,5.8,5.8s-2.6,5.8-5.8,5.8
			s-5.8-2.6-5.8-5.8S41.8,19.1,45,19.1z"/>
		<path opacity="0.15" fill="#1D3A57" enable-background="new    " d="M57.8-21.1c3.2,1.8,3.1,4.8,0,6.6c-3.2,1.8-8.3,1.8-11.5,0
			s-3.1-4.8,0-6.6S54.6-23,57.8-21.1z"/>
		<path fill="#55BE5A" d="M59,19.1c3.2,0,5.8,2.6,5.8,5.8s-2.6,5.8-5.8,5.8s-5.8-2.6-5.8-5.8S55.8,19.1,59,19.1z"/>
		<linearGradient id="SVGID_10_" gradientUnits="userSpaceOnUse" x1="59.0001" y1="30.6943" x2="59.0001" y2="19.0083">
			<stop  offset="0" style="stop-color:#55BE5A;stop-opacity:0"/>
			<stop  offset="0.9753" style="stop-color:#312783;stop-opacity:0.9645"/>
		</linearGradient>
		<path opacity="0.3" fill="url(#SVGID_10_)" enable-background="new    " d="M59,19.1c3.2,0,5.8,2.6,5.8,5.8s-2.6,5.8-5.8,5.8
			s-5.8-2.6-5.8-5.8S55.8,19.1,59,19.1z"/>
		
			<line fill="none" stroke="#5C453B" stroke-linecap="round" stroke-linejoin="round" stroke-miterlimit="10" x1="48.2" y1="-7.7" x2="52.6" y2="-12.1"/>
		<g>
			<path fill="#5C453B" d="M53.4,1.9h-2.6v-18.4c0-0.6,0.5-1.1,1.1-1.1h0.3c0.6,0,1.1,0.5,1.1,1.1V1.9H53.4z"/>
		</g>
		<path fill="#008C5A" d="M52-6.8c4.6,0,8.3,3.7,8.3,8.3S56.6,9.8,52,9.8s-8.3-3.7-8.3-8.3S47.4-6.8,52-6.8z"/>
		<linearGradient id="SVGID_11_" gradientUnits="userSpaceOnUse" x1="52.0001" y1="9.7943" x2="52.0001" y2="-6.8999">
			<stop  offset="0" style="stop-color:#55BE5A;stop-opacity:0"/>
			<stop  offset="0.9753" style="stop-color:#312783;stop-opacity:0.9645"/>
		</linearGradient>
		<path opacity="0.3" fill="url(#SVGID_11_)" enable-background="new    " d="M52-6.8c4.6,0,8.3,3.7,8.3,8.3S56.6,9.8,52,9.8
			s-8.3-3.7-8.3-8.3S47.4-6.8,52-6.8z"/>
		<path fill="#008C5A" d="M52,2.2c4.6,0,8.3,3.7,8.3,8.3s-3.7,8.3-8.3,8.3s-8.3-3.7-8.3-8.3S47.4,2.2,52,2.2z"/>
		<linearGradient id="SVGID_12_" gradientUnits="userSpaceOnUse" x1="52.0001" y1="18.7943" x2="52.0001" y2="2.1001">
			<stop  offset="0" style="stop-color:#55BE5A;stop-opacity:0"/>
			<stop  offset="0.9753" style="stop-color:#312783;stop-opacity:0.9645"/>
		</linearGradient>
		<path opacity="0.3" fill="url(#SVGID_12_)" enable-background="new    " d="M52,2.2c4.6,0,8.3,3.7,8.3,8.3s-3.7,8.3-8.3,8.3
			s-8.3-3.7-8.3-8.3S47.4,2.2,52,2.2z"/>
		<path fill="#55BE5A" d="M52,16.3c3.2,0,5.8,2.6,5.8,5.8s-2.6,5.8-5.8,5.8s-5.8-2.6-5.8-5.8S48.8,16.3,52,16.3z"/>
		<linearGradient id="SVGID_13_" gradientUnits="userSpaceOnUse" x1="52.0001" y1="27.8943" x2="52.0001" y2="16.2083">
			<stop  offset="0" style="stop-color:#55BE5A;stop-opacity:0"/>
			<stop  offset="0.9753" style="stop-color:#312783;stop-opacity:0.9645"/>
		</linearGradient>
		<path opacity="0.3" fill="url(#SVGID_13_)" enable-background="new    " d="M52,16.3c3.2,0,5.8,2.6,5.8,5.8s-2.6,5.8-5.8,5.8
			s-5.8-2.6-5.8-5.8S48.8,16.3,52,16.3z"/>
		<path fill="#55BE5A" d="M52,25.3c3.2,0,5.8,2.6,5.8,5.8s-2.6,5.8-5.8,5.8s-5.8-2.6-5.8-5.8S48.8,25.3,52,25.3z"/>
		<linearGradient id="SVGID_14_" gradientUnits="userSpaceOnUse" x1="52.0001" y1="36.8943" x2="52.0001" y2="25.2083">
			<stop  offset="0" style="stop-color:#55BE5A;stop-opacity:0"/>
			<stop  offset="0.9753" style="stop-color:#312783;stop-opacity:0.9645"/>
		</linearGradient>
		<path opacity="0.3" fill="url(#SVGID_14_)" enable-background="new    " d="M52,25.3c3.2,0,5.8,2.6,5.8,5.8s-2.6,5.8-5.8,5.8
			s-5.8-2.6-5.8-5.8S48.8,25.3,52,25.3z"/>
	</g>
	<g>
		<path fill="#008C5A" d="M-42-2.8c4.6,0,8.3,3.7,8.3,8.3s-3.7,8.3-8.3,8.3s-8.3-3.7-8.3-8.3S-46.6-2.8-42-2.8z"/>
		<linearGradient id="SVGID_15_" gradientUnits="userSpaceOnUse" x1="-41.9999" y1="13.7943" x2="-41.9999" y2="-2.8999">
			<stop  offset="0" style="stop-color:#55BE5A;stop-opacity:0"/>
			<stop  offset="0.9753" style="stop-color:#312783;stop-opacity:0.9645"/>
		</linearGradient>
		<path opacity="0.3" fill="url(#SVGID_15_)" enable-background="new    " d="M-42-2.8c4.6,0,8.3,3.7,8.3,8.3s-3.7,8.3-8.3,8.3
			s-8.3-3.7-8.3-8.3S-46.6-2.8-42-2.8z"/>
		<path fill="#008C5A" d="M-42,6.2c4.6,0,8.3,3.7,8.3,8.3s-3.7,8.3-8.3,8.3s-8.3-3.7-8.3-8.3S-46.6,6.2-42,6.2z"/>
		<linearGradient id="SVGID_16_" gradientUnits="userSpaceOnUse" x1="-41.9999" y1="22.7943" x2="-41.9999" y2="6.1001">
			<stop  offset="0" style="stop-color:#55BE5A;stop-opacity:0"/>
			<stop  offset="0.9753" style="stop-color:#312783;stop-opacity:0.9645"/>
		</linearGradient>
		<path opacity="0.3" fill="url(#SVGID_16_)" enable-background="new    " d="M-42,6.2c4.6,0,8.3,3.7,8.3,8.3s-3.7,8.3-8.3,8.3
			s-8.3-3.7-8.3-8.3S-46.6,6.2-42,6.2z"/>
		<path fill="#008C5A" d="M-62-2.8c4.6,0,8.3,3.7,8.3,8.3s-3.7,8.3-8.3,8.3s-8.3-3.7-8.3-8.3S-66.6-2.8-62-2.8z"/>
		<linearGradient id="SVGID_17_" gradientUnits="userSpaceOnUse" x1="-61.9999" y1="13.7943" x2="-61.9999" y2="-2.8999">
			<stop  offset="0" style="stop-color:#55BE5A;stop-opacity:0"/>
			<stop  offset="0.9753" style="stop-color:#312783;stop-opacity:0.9645"/>
		</linearGradient>
		<path opacity="0.3" fill="url(#SVGID_17_)" enable-background="new    " d="M-62-2.8c4.6,0,8.3,3.7,8.3,8.3s-3.7,8.3-8.3,8.3
			s-8.3-3.7-8.3-8.3S-66.6-2.8-62-2.8z"/>
		<path fill="#008C5A" d="M-62,6.2c4.6,0,8.3,3.7,8.3,8.3s-3.7,8.3-8.3,8.3s-8.3-3.7-8.3-8.3S-66.6,6.2-62,6.2z"/>
		<linearGradient id="SVGID_18_" gradientUnits="userSpaceOnUse" x1="-61.9999" y1="22.7943" x2="-61.9999" y2="6.1001">
			<stop  offset="0" style="stop-color:#55BE5A;stop-opacity:0"/>
			<stop  offset="0.9753" style="stop-color:#312783;stop-opacity:0.9645"/>
		</linearGradient>
		<path opacity="0.3" fill="url(#SVGID_18_)" enable-background="new    " d="M-62,6.2c4.6,0,8.3,3.7,8.3,8.3s-3.7,8.3-8.3,8.3
			s-8.3-3.7-8.3-8.3S-66.6,6.2-62,6.2z"/>
		<path fill="#55BE5A" d="M-59,19.1c3.2,0,5.8,2.6,5.8,5.8s-2.6,5.8-5.8,5.8s-5.8-2.6-5.8-5.8S-62.2,19.1-59,19.1z"/>
		<linearGradient id="SVGID_19_" gradientUnits="userSpaceOnUse" x1="-58.9999" y1="30.6943" x2="-58.9999" y2="19.0083">
			<stop  offset="0" style="stop-color:#55BE5A;stop-opacity:0"/>
			<stop  offset="0.9753" style="stop-color:#312783;stop-opacity:0.9645"/>
		</linearGradient>
		<path opacity="0.3" fill="url(#SVGID_19_)" enable-background="new    " d="M-59,19.1c3.2,0,5.8,2.6,5.8,5.8s-2.6,5.8-5.8,5.8
			s-5.8-2.6-5.8-5.8S-62.2,19.1-59,19.1z"/>
		<path opacity="0.15" fill="#1D3A57" enable-background="new    " d="M-46.2-21.1c3.2,1.8,3.1,4.8,0,6.6c-3.2,1.8-8.3,1.8-11.5,0
			s-3.1-4.8,0-6.6S-49.4-23-46.2-21.1z"/>
		<path fill="#55BE5A" d="M-45,19.1c3.2,0,5.8,2.6,5.8,5.8s-2.6,5.8-5.8,5.8s-5.8-2.6-5.8-5.8S-48.2,19.1-45,19.1z"/>
		<linearGradient id="SVGID_20_" gradientUnits="userSpaceOnUse" x1="-44.9999" y1="30.6943" x2="-44.9999" y2="19.0083">
			<stop  offset="0" style="stop-color:#55BE5A;stop-opacity:0"/>
			<stop  offset="0.9753" style="stop-color:#312783;stop-opacity:0.9645"/>
		</linearGradient>
		<path opacity="0.3" fill="url(#SVGID_20_)" enable-background="new    " d="M-45,19.1c3.2,0,5.8,2.6,5.8,5.8s-2.6,5.8-5.8,5.8
			s-5.8-2.6-5.8-5.8S-48.2,19.1-45,19.1z"/>
		
			<line fill="none" stroke="#5C453B" stroke-linecap="round" stroke-linejoin="round" stroke-miterlimit="10" x1="-55.8" y1="-7.7" x2="-51.4" y2="-12.1"/>
		<g>
			<path fill="#5C453B" d="M-50.6,1.9h-2.6v-18.4c0-0.6,0.5-1.1,1.1-1.1h0.3c0.6,0,1.1,0.5,1.1,1.1V1.9H-50.6z"/>
		</g>
		<path fill="#008C5A" d="M-52-6.8c4.6,0,8.3,3.7,8.3,8.3s-3.7,8.3-8.3,8.3s-8.3-3.7-8.3-8.3S-56.6-6.8-52-6.8z"/>
		<linearGradient id="SVGID_21_" gradientUnits="userSpaceOnUse" x1="-51.9999" y1="9.7943" x2="-51.9999" y2="-6.8999">
			<stop  offset="0" style="stop-color:#55BE5A;stop-opacity:0"/>
			<stop  offset="0.9753" style="stop-color:#312783;stop-opacity:0.9645"/>
		</linearGradient>
		<path opacity="0.3" fill="url(#SVGID_21_)" enable-background="new    " d="M-52-6.8c4.6,0,8.3,3.7,8.3,8.3s-3.7,8.3-8.3,8.3
			s-8.3-3.7-8.3-8.3S-56.6-6.8-52-6.8z"/>
		<path fill="#008C5A" d="M-52,2.2c4.6,0,8.3,3.7,8.3,8.3s-3.7,8.3-8.3,8.3s-8.3-3.7-8.3-8.3S-56.6,2.2-52,2.2z"/>
		<linearGradient id="SVGID_22_" gradientUnits="userSpaceOnUse" x1="-51.9999" y1="18.7943" x2="-51.9999" y2="2.1001">
			<stop  offset="0" style="stop-color:#55BE5A;stop-opacity:0"/>
			<stop  offset="0.9753" style="stop-color:#312783;stop-opacity:0.9645"/>
		</linearGradient>
		<path opacity="0.3" fill="url(#SVGID_22_)" enable-background="new    " d="M-52,2.2c4.6,0,8.3,3.7,8.3,8.3s-3.7,8.3-8.3,8.3
			s-8.3-3.7-8.3-8.3S-56.6,2.2-52,2.2z"/>
		<path fill="#55BE5A" d="M-52,16.3c3.2,0,5.8,2.6,5.8,5.8s-2.6,5.8-5.8,5.8s-5.8-2.6-5.8-5.8S-55.2,16.3-52,16.3z"/>
		<linearGradient id="SVGID_23_" gradientUnits="userSpaceOnUse" x1="-51.9999" y1="27.8943" x2="-51.9999" y2="16.2083">
			<stop  offset="0" style="stop-color:#55BE5A;stop-opacity:0"/>
			<stop  offset="0.9753" style="stop-color:#312783;stop-opacity:0.9645"/>
		</linearGradient>
		<path opacity="0.3" fill="url(#SVGID_23_)" enable-background="new    " d="M-52,16.3c3.2,0,5.8,2.6,5.8,5.8s-2.6,5.8-5.8,5.8
			s-5.8-2.6-5.8-5.8S-55.2,16.3-52,16.3z"/>
		<path fill="#55BE5A" d="M-52,25.3c3.2,0,5.8,2.6,5.8,5.8s-2.6,5.8-5.8,5.8s-5.8-2.6-5.8-5.8S-55.2,25.3-52,25.3z"/>
		<linearGradient id="SVGID_24_" gradientUnits="userSpaceOnUse" x1="-51.9999" y1="36.8943" x2="-51.9999" y2="25.2083">
			<stop  offset="0" style="stop-color:#55BE5A;stop-opacity:0"/>
			<stop  offset="0.9753" style="stop-color:#312783;stop-opacity:0.9645"/>
		</linearGradient>
		<path opacity="0.3" fill="url(#SVGID_24_)" enable-background="new    " d="M-52,25.3c3.2,0,5.8,2.6,5.8,5.8s-2.6,5.8-5.8,5.8
			s-5.8-2.6-5.8-5.8S-55.2,25.3-52,25.3z"/>
	</g>
	<g>
		<path fill="#008C5A" d="M10-32.8c4.6,0,8.3,3.7,8.3,8.3s-3.7,8.3-8.3,8.3s-8.3-3.7-8.3-8.3S5.4-32.8,10-32.8z"/>
		<linearGradient id="SVGID_25_" gradientUnits="userSpaceOnUse" x1="10.0001" y1="-16.2057" x2="10.0001" y2="-32.8999">
			<stop  offset="0" style="stop-color:#55BE5A;stop-opacity:0"/>
			<stop  offset="0.9753" style="stop-color:#312783;stop-opacity:0.9645"/>
		</linearGradient>
		<path opacity="0.3" fill="url(#SVGID_25_)" enable-background="new    " d="M10-32.8c4.6,0,8.3,3.7,8.3,8.3s-3.7,8.3-8.3,8.3
			s-8.3-3.7-8.3-8.3S5.4-32.8,10-32.8z"/>
		<path fill="#008C5A" d="M10-23.8c4.6,0,8.3,3.7,8.3,8.3S14.6-7.2,10-7.2s-8.3-3.7-8.3-8.3S5.4-23.8,10-23.8z"/>
		<linearGradient id="SVGID_26_" gradientUnits="userSpaceOnUse" x1="10.0001" y1="-7.2057" x2="10.0001" y2="-23.8999">
			<stop  offset="0" style="stop-color:#55BE5A;stop-opacity:0"/>
			<stop  offset="0.9753" style="stop-color:#312783;stop-opacity:0.9645"/>
		</linearGradient>
		<path opacity="0.3" fill="url(#SVGID_26_)" enable-background="new    " d="M10-23.8c4.6,0,8.3,3.7,8.3,8.3S14.6-7.2,10-7.2
			s-8.3-3.7-8.3-8.3S5.4-23.8,10-23.8z"/>
		<path fill="#008C5A" d="M-10-32.8c4.6,0,8.3,3.7,8.3,8.3s-3.7,8.3-8.3,8.3s-8.3-3.7-8.3-8.3S-14.6-32.8-10-32.8z"/>
		<linearGradient id="SVGID_27_" gradientUnits="userSpaceOnUse" x1="-9.9999" y1="-16.2057" x2="-9.9999" y2="-32.8999">
			<stop  offset="0" style="stop-color:#55BE5A;stop-opacity:0"/>
			<stop  offset="0.9753" style="stop-color:#312783;stop-opacity:0.9645"/>
		</linearGradient>
		<path opacity="0.3" fill="url(#SVGID_27_)" enable-background="new    " d="M-10-32.8c4.6,0,8.3,3.7,8.3,8.3s-3.7,8.3-8.3,8.3
			s-8.3-3.7-8.3-8.3S-14.6-32.8-10-32.8z"/>
		<path fill="#008C5A" d="M-10-23.8c4.6,0,8.3,3.7,8.3,8.3S-5.4-7.2-10-7.2s-8.3-3.7-8.3-8.3S-14.6-23.8-10-23.8z"/>
		<linearGradient id="SVGID_28_" gradientUnits="userSpaceOnUse" x1="-9.9999" y1="-7.2057" x2="-9.9999" y2="-23.8999">
			<stop  offset="0" style="stop-color:#55BE5A;stop-opacity:0"/>
			<stop  offset="0.9753" style="stop-color:#312783;stop-opacity:0.9645"/>
		</linearGradient>
		<path opacity="0.3" fill="url(#SVGID_28_)" enable-background="new    " d="M-10-23.8c4.6,0,8.3,3.7,8.3,8.3S-5.4-7.2-10-7.2
			s-8.3-3.7-8.3-8.3S-14.6-23.8-10-23.8z"/>
		<path fill="#55BE5A" d="M-7-10.9c3.2,0,5.8,2.6,5.8,5.8S-3.8,0.7-7,0.7s-5.8-2.6-5.8-5.8S-10.2-10.9-7-10.9z"/>
		<linearGradient id="SVGID_29_" gradientUnits="userSpaceOnUse" x1="-6.9999" y1="0.6943" x2="-6.9999" y2="-10.9917">
			<stop  offset="0" style="stop-color:#55BE5A;stop-opacity:0"/>
			<stop  offset="0.9753" style="stop-color:#312783;stop-opacity:0.9645"/>
		</linearGradient>
		<path opacity="0.3" fill="url(#SVGID_29_)" enable-background="new    " d="M-7-10.9c3.2,0,5.8,2.6,5.8,5.8S-3.8,0.7-7,0.7
			s-5.8-2.6-5.8-5.8S-10.2-10.9-7-10.9z"/>
		<path opacity="0.15" fill="#1D3A57" enable-background="new    " d="M5.8-51.1c3.2,1.8,3.1,4.8,0,6.6c-3.2,1.8-8.3,1.8-11.5,0
			s-3.1-4.8,0-6.6S2.6-53,5.8-51.1z"/>
		<path fill="#55BE5A" d="M7-10.9c3.2,0,5.8,2.6,5.8,5.8S10.2,0.7,7,0.7S1.2-1.9,1.2-5.1S3.8-10.9,7-10.9z"/>
		<linearGradient id="SVGID_30_" gradientUnits="userSpaceOnUse" x1="7.0001" y1="0.6943" x2="7.0001" y2="-10.9917">
			<stop  offset="0" style="stop-color:#55BE5A;stop-opacity:0"/>
			<stop  offset="0.9753" style="stop-color:#312783;stop-opacity:0.9645"/>
		</linearGradient>
		<path opacity="0.3" fill="url(#SVGID_30_)" enable-background="new    " d="M7-10.9c3.2,0,5.8,2.6,5.8,5.8S10.2,0.7,7,0.7
			S1.2-1.9,1.2-5.1S3.8-10.9,7-10.9z"/>
		
			<line fill="none" stroke="#5C453B" stroke-linecap="round" stroke-linejoin="round" stroke-miterlimit="10" x1="-3.8" y1="-37.7" x2="0.6" y2="-42.1"/>
		<g>
			<path fill="#5C453B" d="M1.4-28.1h-2.6v-18.4c0-0.6,0.5-1.1,1.1-1.1h0.3c0.6,0,1.1,0.5,1.1,1.1L1.4-28.1L1.4-28.1z"/>
		</g>
		<path fill="#008C5A" d="M0-36.8c4.6,0,8.3,3.7,8.3,8.3S4.6-20.2,0-20.2s-8.3-3.7-8.3-8.3S-4.6-36.8,0-36.8z"/>
		<linearGradient id="SVGID_31_" gradientUnits="userSpaceOnUse" x1="9.727441e-05" y1="-20.2057" x2="9.727516e-05" y2="-36.8999">
			<stop  offset="0" style="stop-color:#55BE5A;stop-opacity:0"/>
			<stop  offset="0.9753" style="stop-color:#312783;stop-opacity:0.9645"/>
		</linearGradient>
		<path opacity="0.3" fill="url(#SVGID_31_)" enable-background="new    " d="M0-36.8c4.6,0,8.3,3.7,8.3,8.3S4.6-20.2,0-20.2
			s-8.3-3.7-8.3-8.3S-4.6-36.8,0-36.8z"/>
		<path fill="#008C5A" d="M0-27.8c4.6,0,8.3,3.7,8.3,8.3S4.6-11.2,0-11.2s-8.3-3.7-8.3-8.3S-4.6-27.8,0-27.8z"/>
		<linearGradient id="SVGID_32_" gradientUnits="userSpaceOnUse" x1="9.727441e-05" y1="-11.2057" x2="9.727516e-05" y2="-27.8999">
			<stop  offset="0" style="stop-color:#55BE5A;stop-opacity:0"/>
			<stop  offset="0.9753" style="stop-color:#312783;stop-opacity:0.9645"/>
		</linearGradient>
		<path opacity="0.3" fill="url(#SVGID_32_)" enable-background="new    " d="M0-27.8c4.6,0,8.3,3.7,8.3,8.3S4.6-11.2,0-11.2
			s-8.3-3.7-8.3-8.3S-4.6-27.8,0-27.8z"/>
		<path fill="#55BE5A" d="M0-13.7c3.2,0,5.8,2.6,5.8,5.8S3.2-2.1,0-2.1s-5.8-2.6-5.8-5.8S-3.2-13.7,0-13.7z"/>
		<linearGradient id="SVGID_33_" gradientUnits="userSpaceOnUse" x1="9.775136e-05" y1="-2.1057" x2="9.775188e-05" y2="-13.7917">
			<stop  offset="0" style="stop-color:#55BE5A;stop-opacity:0"/>
			<stop  offset="0.9753" style="stop-color:#312783;stop-opacity:0.9645"/>
		</linearGradient>
		<path opacity="0.3" fill="url(#SVGID_33_)" enable-background="new    " d="M0-13.7c3.2,0,5.8,2.6,5.8,5.8S3.2-2.1,0-2.1
			s-5.8-2.6-5.8-5.8S-3.2-13.7,0-13.7z"/>
		<path fill="#55BE5A" d="M0-4.7c3.2,0,5.8,2.6,5.8,5.8S3.2,6.9,0,6.9s-5.8-2.6-5.8-5.8S-3.2-4.7,0-4.7z"/>
		<linearGradient id="SVGID_34_" gradientUnits="userSpaceOnUse" x1="9.775136e-05" y1="6.8943" x2="9.775188e-05" y2="-4.7916">
			<stop  offset="0" style="stop-color:#55BE5A;stop-opacity:0"/>
			<stop  offset="0.9753" style="stop-color:#312783;stop-opacity:0.9645"/>
		</linearGradient>
		<path opacity="0.3" fill="url(#SVGID_34_)" enable-background="new    " d="M0-4.7c3.2,0,5.8,2.6,5.8,5.8S3.2,6.9,0,6.9
			s-5.8-2.6-5.8-5.8S-3.2-4.7,0-4.7z"/>
	</g>
</symbol>
<g>
	<g>
		<defs>
			<rect id="SVGID_35_" x="-451.1" y="378.2" width="434.5" height="436.5"/>
		</defs>
		<clipPath id="SVGID_36_">
			<use xlink:href="#SVGID_35_"  overflow="visible"/>
		</clipPath>
		<g clip-path="url(#SVGID_36_)">
			<path fill="#D0D5DB" d="M-313.4,906.2l-254-146.9l121.9-70.3c15.4-8.9,38.6-9.8,51.9-2.2l229.9,133L-313.4,906.2z"/>
			
				<use xlink:href="#New_Symbol_43"  width="140.6" height="105" id="XMLID_26_" x="-70.3" y="-52.5" transform="matrix(2.4932 0 0 -2.4932 -358.7133 780.016)" overflow="visible"/>
		</g>
	</g>
</g>
</svg>
