<?xml version="1.0" encoding="utf-8"?>
<!-- Generator: Adobe Illustrator 18.1.1, SVG Export Plug-In . SVG Version: 6.00 Build 0)  -->
<svg version="1.1" id="Layer_1" xmlns="http://www.w3.org/2000/svg" xmlns:xlink="http://www.w3.org/1999/xlink" x="0px" y="0px"
	 viewBox="0 0 126 45" enable-background="new 0 0 126 45" xml:space="preserve">
<linearGradient id="gradient_1_" gradientUnits="userSpaceOnUse" x1="0" y1="11.1315" x2="94.0493" y2="11.1315">
	<stop  offset="0" style="stop-color:#0555F9;stop-opacity:0"/>
	<stop  offset="1" style="stop-color:#FFFFFF"/>
</linearGradient>
<path id="gradient" opacity="0.5" fill="url(#gradient_1_)" d="M84,21.1H10c-5.5,0-10-4.5-10-10s4.5-10,10-10h74c5.5,0,10,4.5,10,10
	S89.6,21.1,84,21.1z"/>
<path id="hand" fill="#0555F9" stroke="#FFFFFF" stroke-width="2.3207" stroke-miterlimit="10" d="M96.7,31L79.3,13.6
	c-1.9-1.9-1.9-5,0-7l0,0c1.9-1.9,5-1.9,7,0l9.2,9.2l7.9-7.9c2.9-2.9,7.6-2.9,10.5,0l0,0c0.8,0.8,1.9,1.9,3,2.9
	c1.9,1.9,3.6,4,4.9,6.3l0.7,1.2c3.9,6.7,2.8,15.1-2.7,20.5l0,0c-4.6,4.6-11.5,6.2-17.7,4c0,0-8.8-4.6-9.9-5.8l-4.6-4.6
	c-2.4-2.4-2.4-6.3,0-8.7"/>
</svg>
