<?xml version="1.0" encoding="utf-8"?>
<!-- Generator: Adobe Illustrator 18.1.1, SVG Export Plug-In . SVG Version: 6.00 Build 0)  -->
<svg version="1.1" id="Layer_1" xmlns="http://www.w3.org/2000/svg" xmlns:xlink="http://www.w3.org/1999/xlink" x="0px" y="0px"
	 viewBox="0 0 56 45" enable-background="new 0 0 56 45" xml:space="preserve">
<g>
	<path fill="none" stroke="#666666" stroke-width="3.0025" stroke-linejoin="round" stroke-miterlimit="10" d="M38.1,35.7
		c5.7-1.7,9.9-7,9.9-13.2c0-7.6-6.2-13.8-13.8-13.8s-13.8,6.2-13.8,13.8s6.2,13.8,13.8,13.8v6.1c11,0,19.9-8.9,19.9-19.9
		S45.1,2.6,34.2,2.6s-19.9,8.9-19.9,19.9c0,9.4,6.5,17.3,15.3,19.4v0.5h-7.7C10.9,42.4,2,33.5,2,22.5C2,12.3,9.6,4,19.4,2.7"/>
	
		<line fill="none" stroke="#666666" stroke-width="3.0025" stroke-linejoin="round" stroke-miterlimit="10" x1="40.3" y1="22.5" x2="34.2" y2="22.5"/>
</g>
</svg>
