<?xml version="1.0" encoding="utf-8"?>
<!-- Generator: Adobe Illustrator 18.1.1, SVG Export Plug-In . SVG Version: 6.00 Build 0)  -->
<svg version="1.1" id="Layer_1" xmlns="http://www.w3.org/2000/svg" xmlns:xlink="http://www.w3.org/1999/xlink" x="0px" y="0px"
	 viewBox="0 0 42 42" enable-background="new 0 0 42 42" xml:space="preserve">
<path fill="none" stroke="#666666" stroke-width="3" stroke-linejoin="round" stroke-miterlimit="10" d="M21.1,16.5
	c0.7,0,1.5,0.2,2.2,0.6c2.2,1.2,2.9,4,1.6,6.1s-4,2.9-6.1,1.6s-2.9-4-1.6-6.1L8.9,14l0-8.4c1.5-1.1,3.1-2.1,4.7-2.7L21,7.1l7.3-4.2
	c0.8,0.3,1.7,0.7,2.5,1.2c0.8,0.5,1.6,1,2.3,1.5l0,8.4l7.2,4.2c0.3,1.8,0.3,3.6,0,5.5L33.1,28l0,8.4c-1.5,1.1-3.1,2.1-4.7,2.7
	L21,34.9l-7.3,4.2c-0.8-0.3-1.7-0.7-2.5-1.2c-0.8-0.5-1.6-1-2.3-1.5l0-8.4l-7.2-4.2c-0.3-1.8-0.3-3.6,0-5.5l3.2-1.9"/>
</svg>
