<?xml version="1.0" encoding="utf-8"?>
<!-- Generator: Adobe Illustrator 18.1.1, SVG Export Plug-In . SVG Version: 6.00 Build 0)  -->
<svg version="1.1" id="Layer_1" xmlns="http://www.w3.org/2000/svg" xmlns:xlink="http://www.w3.org/1999/xlink" x="0px" y="0px"
	 viewBox="0 0 720 200" enable-background="new 0 0 720 200" xml:space="preserve">
<g id="traccia">
	
		<circle fill="none" stroke="#666666" stroke-width="4" stroke-linejoin="round" stroke-miterlimit="10" cx="577.3" cy="116.5" r="44.3"/>
	
		<circle fill="none" stroke="#666666" stroke-width="4" stroke-linejoin="round" stroke-miterlimit="10" cx="173.1" cy="118.6" r="42.2"/>
	<path fill="none" stroke="#666666" stroke-width="4" stroke-linejoin="round" stroke-miterlimit="10" d="M665.5,120.9h19.1v-16
		h-27.2V88.6L669,69.4V50.1l-17.5-4.1h-40v26.2c13.2,10.2,21.8,26.3,21.8,44.3c0,5.1-0.7,10-1.9,14.7l26-10.4v-7.6"/>
	<path fill="none" stroke="#666666" stroke-width="4" stroke-linejoin="round" stroke-miterlimit="10" d="M521.4,116.5
		c0,12.9,4.3,24.7,11.7,34.2l-18.5,6.3H257.9h-39.6l24.7-8.2c0,0-3-12.1-17.7-20l0,0c0.6-3.3,1-6.7,1-10.2c0-15.9-7-30.2-18.2-40
		l0,0c30.4,0.2,56.9,1.2,72.7,2.1"/>
	<path fill="none" stroke="#666666" stroke-width="4" stroke-linejoin="round" stroke-miterlimit="10" d="M64.6,113.5v-7.4
		c-12.2,0-36.7-6.4-32.6-8.2c25.4-10.1,64.2-15.2,104.3-17.6l0,0h0c-10,9.7-16.3,23.2-16.3,38.3c0,10.3,2.9,19.9,8,28H58.2l0.2-0.9
		c4-22.7,17.4-41.7,35.7-53.2"/>
	<path fill="none" stroke="#666666" stroke-width="4" stroke-linejoin="round" stroke-miterlimit="10" d="M314.5,100.4
		c0,3.2,2.6,5.8,5.8,5.8c3.2,0,37.5-2.6,37.5-5.8c0-3.2-34.3-5.8-37.5-5.8C317.1,94.6,314.5,97.2,314.5,100.4z"/>
	<path fill="none" stroke="#666666" stroke-width="4" stroke-linejoin="round" stroke-miterlimit="10" d="M510.5,136.4l-12.2,2.2
		c-9,1.6-18,2.4-27.2,2.4h-75.1c-5.5,0-9.9-4.4-9.9-9.9v-20.4c0-5.5,4.4-9.9,9.9-9.9h73.3h15.1"/>
	<path fill="none" stroke="#666666" stroke-width="4" stroke-linejoin="round" stroke-miterlimit="10" d="M496.5,88.6
		c-23.3-6.2-80.1-16.4-98-16.4c0,0-26.2,0-41.9,0c-15.8,0-19.3,9.4-39.7,9.4s-20.4,0-20.4,0s-0.5,0-1.5-0.1c-1.7-0.1-3-1.5-3-3.2
		v-9.6h8.4"/>
	<path fill="none" stroke="#666666" stroke-width="4" stroke-linejoin="round" stroke-miterlimit="10" d="M403.8,66.4V54.8L398.6,28
		h22.7c0,0,19.8,14,36.1,26.8c36.1,7.6,64,22.1,64,22.1h16.5c-6.6,6.6-11.5,14.7-14.2,23.9c-0.4,1.4-0.7,2.7-1,4.1
		c0,0-17.4-4.1-38.1-4.1"/>
</g>
</svg>
