<?xml version="1.0" encoding="utf-8"?>
<!-- Generator: Adobe Illustrator 19.0.0, SVG Export Plug-In . SVG Version: 6.00 Build 0)  -->
<svg version="1.1" id="Livello_1" xmlns="http://www.w3.org/2000/svg" xmlns:xlink="http://www.w3.org/1999/xlink" x="0px" y="0px"
	 viewBox="-551 567.5 56 56" style="enable-background:new -551 567.5 56 56;" xml:space="preserve">
<style type="text/css">
	.st0{fill:none;stroke:#657786;stroke-miterlimit:10;}
	.st1{fill:#FFFFFF;}
</style>
<g transform="translate(8 8)">
	<path class="st0" d="M-531,562.7c-13.7,0-24.9,11.2-24.9,24.9c0,13.7,11.2,24.9,24.9,24.9s24.9-11.2,24.9-24.9
		C-506.1,573.8-517.3,562.7-531,562.7z"/>
	<path class="st1" d="M-531,604.1c-1.7,0-3.1-1.4-3.1-3.1v-11.4c0-1.7,1.4-3.1,3.1-3.1s3.1,1.4,3.1,3.1V601
		C-527.9,602.7-529.3,604.1-531,604.1z"/>
	<circle class="st1" cx="-531" cy="577.7" r="4.7"/>
	<path class="st1" d="M-531,615.5c-15.4,0-28-12.6-28-28s12.6-28,28-28s28,12.6,28,28S-515.6,615.5-531,615.5z M-531,565.8
		c-12,0-21.8,9.8-21.8,21.8s9.8,21.8,21.8,21.8c12,0,21.8-9.8,21.8-21.8S-519,565.8-531,565.8z"/>
</g>
</svg>
