<?xml version="1.0" encoding="utf-8"?>
<!-- Generator: Adobe Illustrator 18.1.1, SVG Export Plug-In . SVG Version: 6.00 Build 0)  -->
<svg version="1.1" id="Layer_1" xmlns="http://www.w3.org/2000/svg" xmlns:xlink="http://www.w3.org/1999/xlink" x="0px" y="0px"
	 viewBox="0 0 50 50" enable-background="new 0 0 50 50" xml:space="preserve">
<path fill="none" stroke="#FFFFFF" stroke-width="3" stroke-linejoin="round" stroke-miterlimit="10" d="M41.4,32.5h4.8
	c1.6,0,2.4-2,1.1-3.1l-11.1-9.5c-1.1-1-2.9-0.2-2.9,1.4c0,1-0.8,1.7-1.8,1.7l-4.9,0c-1,0-1.7-0.8-1.7-1.7v-6c0-1-0.8-1.7-1.7-1.7
	h-2.3c-0.5,0-0.9,0.2-1.2,0.5l-7.4,7.4v-2.8c0-1-0.8-1.7-1.7-1.7H3.8c-1,0-1.7,0.8-1.7,1.7v7.2c0,0.5,0.2,0.9,0.5,1.2l5,5
	c0.3,0.3-0.1,0.5,0.4,0.5h4.2c0,2.2,1.8,4.1,4.1,4.1s4.1-1.8,4.1-4.1H28c0,2.2,1.8,4.1,4.1,4.1s4.1-1.8,4.1-4.1"/>
</svg>
