<?xml version="1.0" encoding="utf-8"?>
<!-- Generator: Adobe Illustrator 18.1.1, SVG Export Plug-In . SVG Version: 6.00 Build 0)  -->
<svg version="1.1" id="Layer_1" xmlns="http://www.w3.org/2000/svg" xmlns:xlink="http://www.w3.org/1999/xlink" x="0px" y="0px"
	 viewBox="0 0 54 156" enable-background="new 0 0 54 156" xml:space="preserve">
<path id="navBg" opacity="0.8" fill="#252524" d="M27,156L27,156C12,156,0,144,0,129L0,27C0,12.1,12,0,27,0h0c14.9,0,27,12.1,27,27
	v102C54,144,41.9,156,27,156z"/>
<circle id="navSelected" opacity="0.2" fill="#FFFFFF" cx="27" cy="27.5" r="21"/>
<g id="stage-3">
	<circle id="navSelected_5_" opacity="0" fill="#FFFFFF" cx="27.1" cy="129" r="25.6"/>
	<g>
		<path fill="none" stroke="#FFFFFF" stroke-width="1.4983" stroke-linejoin="round" stroke-miterlimit="10" d="M33.3,139.7
			l-0.1-0.2v-2.9c0-0.3-0.1-0.6-0.3-0.8l-1.1-1.1c-0.2-0.2-0.5-0.3-0.8-0.3h-1.3c-0.9,0-1.7-0.3-2.3-0.9h0c-1.3-1.3-1.3-3.3,0-4.5
			l0.2-0.2c0.6-0.6,1.4-0.9,2.3-0.9h2.7c0.3,0,0.6-0.1,0.8-0.3l1.1-1.1c0.4-0.4,0.4-1.1,0-1.6l-1.4-1.4c-0.4-0.4-1.1-0.4-1.6,0
			l-0.6,0.6c-0.4,0.4-1.1,0.4-1.6,0l0,0c-0.4-0.4-0.4-1.1,0-1.6l3.9-4.1c4.3,2.2,7.3,6.8,7.3,12c0,4.4-2.1,8.3-5.3,10.7
			c-2.3,1.7-5.1,2.8-8.2,2.8c-2.4,0-4.7-0.6-6.7-1.8c0,0-1.8-1.1-2.6-1.9"/>
		<path fill="none" stroke="#FFFFFF" stroke-width="1.4983" stroke-linejoin="round" stroke-miterlimit="10" d="M30.1,117.1
			c-1-0.2-2-0.4-3.1-0.4c-3.3,0-6.3,1.2-8.7,3.2c-2.9,2.5-4.8,6.2-4.8,10.3c0,3.9,1.6,7.3,4.2,9.8v-2.6c0-0.8,0.3-1.6,0.9-2.2h0
			c0.8-0.8,1.2-1.8,1.2-2.8v0c0-1.3-0.7-2.6-1.8-3.3l-2-1.3l4.3-5.1l0,0c0-0.5-0.2-1.1-0.6-1.5l-0.2-0.3"/>
	</g>
</g>
<g id="stage-2">
	<circle id="navSelected_2_" opacity="0" fill="#FFFFFF" cx="27" cy="78.5" r="25.6"/>
	<g>
		<polyline fill="none" stroke="#FFFFFF" stroke-width="1.4983" stroke-linejoin="round" stroke-miterlimit="10" points="31.3,92.4 
			36.5,69.9 27.8,69.9 27,73.3 19.2,73.3 16.6,83.7 24.4,83.7 25.2,80.2 31.3,80.2 		"/>
		
			<line fill="none" stroke="#FFFFFF" stroke-width="1.4983" stroke-linejoin="round" stroke-miterlimit="10" x1="27" y1="73.3" x2="25.2" y2="80.2"/>
	</g>
</g>
<g id="stage-1">
	<circle id="navSelected_1_" opacity="0" fill="#FFFFFF" cx="27" cy="27.1" r="25.6"/>
	<path fill="none" stroke="#FFFFFF" stroke-width="1.4983" stroke-linejoin="round" stroke-miterlimit="10" d="M36.6,33.2h4.2
		c1.1,0,1.5-1.3,0.7-2L34.3,25c-0.7-0.6-1.9-0.1-1.9,0.9c0,0.6-0.6,1.1-1.2,1.1H28c-0.6,0-1.1-0.5-1.1-1.1v-3.9
		c0-0.6-0.5-1.1-1.1-1.1h-1.5c-0.3,0-0.6,0.1-0.8,0.3l-4.9,4.9V23c0-0.6-0.5-1.1-1.1-1.1h-4.3c-0.6,0-1.1,0.5-1.1,1.1v5.8
		c0,0.3,0.1,0.6,0.3,0.8l3.3,3.3c0.2,0.2,0.5,0.3,0.8,0.3h2.2c0,1.5,1.2,2.7,2.7,2.7c1.5,0,2.7-1.2,2.7-2.7h5c0,1.5,1.2,2.7,2.7,2.7
		c1.5,0,2.7-1.2,2.7-2.7"/>
</g>
</svg>
