<?xml version="1.0" encoding="UTF-8" standalone="no"?>
<svg width="53px" height="53px" viewBox="0 0 53 53" version="1.1" xmlns="http://www.w3.org/2000/svg" xmlns:xlink="http://www.w3.org/1999/xlink">
    <!-- Generator: Sketch 48.2 (47327) - http://www.bohemiancoding.com/sketch -->
    <title>icon/grid</title>
    <desc>Created with Sketch.</desc>
    <defs>
        <polygon id="path-1" points="0.3513 0.019 9.351 0.019 9.351 9.019 0.3513 9.019"></polygon>
    </defs>
    <g id="Symbols" stroke="none" stroke-width="1" fill="none" fill-rule="evenodd">
        <g id="icon/grid">
            <path d="M26.413,0.9277 C12.054,0.9277 0.413,12.5687 0.413,26.9277 C0.413,41.2867 12.054,52.9277 26.413,52.9277 C40.772,52.9277 52.413,41.2867 52.413,26.9277 C52.413,12.5687 40.772,0.9277 26.413,0.9277" id="Fill-2" fill="#FFFFFF"></path>
            <g id="Page-1" transform="translate(12.000000, 12.000000)">
                <path d="M25.321,15.5798 C25.321,21.7358 20.331,26.7258 14.175,26.7258 C8.02,26.7258 3.03,21.7358 3.03,15.5798 C3.03,9.4248 8.02,4.4338 14.175,4.4338 C20.331,4.4338 25.321,9.4248 25.321,15.5798 Z" id="Stroke-1" stroke="#0000FF" stroke-width="2.028" stroke-linejoin="round"></path>
                <path d="M14.1755,8.0002 C12.2455,8.0002 10.6755,6.4302 10.6755,4.5002 C10.6755,2.5702 12.2455,1.0002 14.1755,1.0002 C16.1055,1.0002 17.6755,2.5702 17.6755,4.5002 C17.6755,6.4302 16.1055,8.0002 14.1755,8.0002" id="Fill-3" fill="#0000FF"></path>
                <path d="M14.1755,-0.0003 C11.6945,-0.0003 9.6755,2.0187 9.6755,4.4997 C9.6755,6.9807 11.6945,8.9997 14.1755,8.9997 C16.6565,8.9997 18.6755,6.9807 18.6755,4.4997 C18.6755,2.0187 16.6565,-0.0003 14.1755,-0.0003 M14.1755,1.9997 C15.5565,1.9997 16.6755,3.1197 16.6755,4.4997 C16.6755,5.8807 15.5565,6.9997 14.1755,6.9997 C12.7955,6.9997 11.6755,5.8807 11.6755,4.4997 C11.6755,3.1197 12.7955,1.9997 14.1755,1.9997" id="Fill-5" fill="#FFFFFF"></path>
                <path d="M23.8513,24.7585 C21.9213,24.7585 20.3513,23.1885 20.3513,21.2585 C20.3513,19.3285 21.9213,17.7585 23.8513,17.7585 C25.7813,17.7585 27.3513,19.3285 27.3513,21.2585 C27.3513,23.1885 25.7813,24.7585 23.8513,24.7585" id="Fill-7" fill="#0000FF"></path>
                <g id="Group-11" transform="translate(19.000000, 16.739500)">
                    <mask id="mask-2" fill="white">
                        <use xlink:href="#path-1"></use>
                    </mask>
                    <g id="Clip-10"></g>
                    <path d="M4.8513,0.019 C2.3703,0.019 0.3513,2.038 0.3513,4.519 C0.3513,7 2.3703,9.019 4.8513,9.019 C7.3323,9.019 9.3513,7 9.3513,4.519 C9.3513,2.038 7.3323,0.019 4.8513,0.019 M4.8513,2.019 C6.2313,2.019 7.3513,3.139 7.3513,4.519 C7.3513,5.9 6.2313,7.019 4.8513,7.019 C3.4703,7.019 2.3513,5.9 2.3513,4.519 C2.3513,3.139 3.4703,2.019 4.8513,2.019" id="Fill-9" fill="#FFFFFF" mask="url(#mask-2)"></path>
                </g>
                <path d="M4.4998,24.8244 C2.5698,24.8244 0.9998,23.2544 0.9998,21.3244 C0.9998,19.3944 2.5698,17.8244 4.4998,17.8244 C6.4298,17.8244 7.9998,19.3944 7.9998,21.3244 C7.9998,23.2544 6.4298,24.8244 4.4998,24.8244" id="Fill-12" fill="#0000FF"></path>
                <path d="M4.5002,16.824 C2.0192,16.824 0.0002,18.843 0.0002,21.324 C0.0002,23.805 2.0192,25.824 4.5002,25.824 C6.9812,25.824 9.0002,23.805 9.0002,21.324 C9.0002,18.843 6.9812,16.824 4.5002,16.824 M4.5002,18.824 C5.8802,18.824 7.0002,19.944 7.0002,21.324 C7.0002,22.705 5.8802,23.824 4.5002,23.824 C3.1192,23.824 2.0002,22.705 2.0002,21.324 C2.0002,19.944 3.1192,18.824 4.5002,18.824" id="Fill-14" fill="#FFFFFF"></path>
            </g>
        </g>
    </g>
</svg>