<?xml version="1.0" encoding="UTF-8" standalone="no"?>
<svg width="53px" height="53px" viewBox="0 0 53 53" version="1.1" xmlns="http://www.w3.org/2000/svg" xmlns:xlink="http://www.w3.org/1999/xlink">
    <!-- Generator: Sketch 48.2 (47327) - http://www.bohemiancoding.com/sketch -->
    <title>icon/data</title>
    <desc>Created with Sketch.</desc>
    <defs></defs>
    <g id="Symbols" stroke="none" stroke-width="1" fill="none" fill-rule="evenodd">
        <g id="icon/data">
            <path d="M26.413,0.9277 C12.054,0.9277 0.413,12.5687 0.413,26.9277 C0.413,41.2867 12.054,52.9277 26.413,52.9277 C40.772,52.9277 52.413,41.2867 52.413,26.9277 C52.413,12.5687 40.772,0.9277 26.413,0.9277" id="Fill-2" fill="#FFFFFF"></path>
            <path d="M11.6196,27.4379 L16.7426,27.4379 C17.8576,27.4379 18.7616,26.5339 18.7616,25.4189 L18.7616,16.1939 C18.7616,15.0789 19.6656,14.1749 20.7806,14.1749 L20.8236,14.1749 C21.9386,14.1749 22.8426,15.0789 22.8426,16.1939 L22.8426,37.6619 C22.8426,38.7769 23.7456,39.6809 24.8606,39.6809 L24.9046,39.6809 C26.0196,39.6809 26.9226,38.7769 26.9226,37.6619 L26.9226,27.4379 L26.9226,23.3349 C26.9226,22.2199 27.8266,21.3159 28.9426,21.3159 L29.0286,21.3159 C30.1436,21.3159 31.0466,22.2199 31.0466,23.3349 L31.0466,31.5399 C31.0466,32.6549 31.9506,33.5589 33.0666,33.5589 C34.1816,33.5589 35.0846,32.6549 35.0846,31.5399 L35.0846,29.4569 C35.0846,28.3419 35.9886,27.4379 37.1036,27.4379 L41.2066,27.4379" id="Stroke-4" stroke="#0000FF" stroke-width="2"></path>
        </g>
    </g>
</svg>