<?xml version="1.0" encoding="UTF-8" standalone="no"?>
<svg width="53px" height="53px" viewBox="0 0 53 53" version="1.1" xmlns="http://www.w3.org/2000/svg" xmlns:xlink="http://www.w3.org/1999/xlink">
    <!-- Generator: Sketch 48.2 (47327) - http://www.bohemiancoding.com/sketch -->
    <title>icon/meter</title>
    <desc>Created with Sketch.</desc>
    <defs></defs>
    <g id="Symbols" stroke="none" stroke-width="1" fill="none" fill-rule="evenodd">
        <g id="icon/meter">
            <path d="M26.413,0.9277 C12.054,0.9277 0.413,12.5687 0.413,26.9277 C0.413,41.2867 12.054,52.9277 26.413,52.9277 C40.772,52.9277 52.413,41.2867 52.413,26.9277 C52.413,12.5687 40.772,0.9277 26.413,0.9277" id="Fill-2" fill="#FFFFFF"></path>
            <g id="Page-1" transform="translate(16.000000, 12.000000)" stroke="#0000FF" stroke-linejoin="round" stroke-width="2">
                <path d="M0.0001,7.5192 L0.0001,0.0002 L21.4241,0.0002 L21.4241,29.1342 L0.0001,29.1342 L0.0001,10.8102 L2.2671,10.8102 C3.4401,10.8102 4.3911,11.7612 4.3911,12.9352 L4.3911,17.3782 C4.3911,18.5522 5.3431,19.5032 6.5161,19.5032 C7.6891,19.5032 8.6411,18.5522 8.6411,17.3782 L8.6411,6.2422 C8.6411,5.0692 9.5921,4.1172 10.7661,4.1172 C11.9391,4.1172 12.8911,5.0692 12.8911,6.2422 L12.8911,13.1852 C12.8911,14.3892 13.8681,15.3662 15.0731,15.3662 C16.2781,15.3662 17.2541,14.3892 17.2541,13.1852 L17.2541,10.7462 L18.2031,10.7462" id="Stroke-1"></path>
                <path d="M5.2203,24.568 L9.2203,24.568" id="Stroke-3"></path>
            </g>
        </g>
    </g>
</svg>