<svg id="Layer_1" data-name="Layer 1" xmlns="http://www.w3.org/2000/svg" viewBox="0 0 1116 123.05">
  <title>powering_change</title>
  <g id="_Group_" data-name="&lt;Group&gt;">
    <path id="_Path_" data-name="&lt;Path&gt;" d="M195.87,93.81h4l18.87-44.07,18.87,44.07h4L261.38,57c3.45-6.51,4.38-13.42,4.38-21.93V24.45H255.13V35.08c0,7.58-.4,12-3.72,17.94L239.92,73.59l-12.17-30A43.9,43.9,0,0,1,224,24.45H213.41a43.88,43.88,0,0,1-3.72,19.13l-12.16,30L186,53c-3.32-6-3.72-10.36-3.72-17.94V24.45H171.68V35.08c0,8.51.93,15.41,4.38,21.93Z" style="fill: #fff"/>
    <path id="_Compound_Path_" data-name="&lt;Compound Path&gt;" d="M120.86,94.08A35.35,35.35,0,1,0,85.65,58.73,35.22,35.22,0,0,0,120.86,94.08Zm0-60.06A24.72,24.72,0,1,1,96.28,58.73,24.73,24.73,0,0,1,120.86,34Z" style="fill: #fff"/>
    <polygon id="_Path_2" data-name="&lt;Path&gt;" points="417.8 61.66 417.8 61.66 417.8 24.45 407.17 24.45 407.17 61.66 407.16 61.66 407.16 93.02 417.8 93.02 417.8 61.66" style="fill: #fff"/>
    <polygon id="_Path_3" data-name="&lt;Path&gt;" points="417.8 7.26 417.8 7.26 417.8 1.31 407.17 1.31 407.17 7.26 407.16 7.26 407.16 12.28 417.8 12.28 417.8 7.26" style="fill: #fff"/>
    <path id="_Path_4" data-name="&lt;Path&gt;" d="M317.23,94.08c11.43,0,22.06-5.85,27.77-14l-8.5-6.25a24.43,24.43,0,0,1-19.27,9.57,24.72,24.72,0,1,1,24.18-31.09H315V63h37.21V52.35c-2.92-16.61-15.55-29-34.95-29a35.35,35.35,0,0,0,0,70.69Z" style="fill: #fff"/>
    <path id="_Path_5" data-name="&lt;Path&gt;" d="M1081.05,94.08c11.43,0,22.06-5.85,27.77-14l-8.5-6.25a24.43,24.43,0,0,1-19.27,9.57,24.72,24.72,0,1,1,24.18-31.09h-26.44V63H1116V52.35c-2.92-16.61-15.55-29-34.95-29a35.35,35.35,0,0,0,0,70.69Z" style="fill: #fff"/>
    <path id="_Path_6" data-name="&lt;Path&gt;" d="M683,94.08c11.43,0,22.06-5.85,27.77-14l-8.5-6.25A24.42,24.42,0,0,1,683,83.45,24.72,24.72,0,0,1,683,34c5.32,0,9.3.93,12.62,3.72l8.11,7,7-8.11-8.11-7c-5.18-4-10.5-6.25-19.67-6.25a35.35,35.35,0,0,0,0,70.69Z" style="fill: #fff"/>
    <path id="_Path_7" data-name="&lt;Path&gt;" d="M0,117.47H10.63V61.66h0v-4A24.84,24.84,0,0,1,35.21,34a24.72,24.72,0,0,1,0,49.43A25.55,25.55,0,0,1,21.53,79.2L15.41,88a36.24,36.24,0,0,0,19.8,6.11A35.35,35.35,0,1,0,10.63,33.42v-9H0V61.66H0Z" style="fill: #fff"/>
    <path id="_Path_8" data-name="&lt;Path&gt;" d="M836.17,94.08A36.23,36.23,0,0,0,856,88l-6.11-8.77a25.55,25.55,0,0,1-13.69,4.25,24.72,24.72,0,0,1,0-49.43,25.27,25.27,0,0,1,24.58,20.46v1.33h0V93h10.63V24.45H860.75v9a34.93,34.93,0,0,0-24.58-10,35.35,35.35,0,0,0,0,70.69Z" style="fill: #fff"/>
    <path id="_Path_9" data-name="&lt;Path&gt;" d="M545.59,94.08A36.24,36.24,0,0,0,565.39,88l-6.11-8.77a25.55,25.55,0,0,1-13.69,4.25,24.72,24.72,0,1,1,24.58-25.81v4h0V87.17c0,14.88-7.31,25.25-22.59,25.25-9.3,0-16.08-5.05-21.26-12.49l-8.9,6.64c5.31,9.43,17,16.48,30.16,16.48,19.93,0,33.22-14.88,33.22-35.88V24.45H570.18v9a35.28,35.28,0,1,0-24.58,60.66Z" style="fill: #fff"/>
    <path id="_Path_10" data-name="&lt;Path&gt;" d="M995.72,94.08a36.24,36.24,0,0,0,19.8-6.11l-6.11-8.77a25.55,25.55,0,0,1-13.69,4.25,24.72,24.72,0,1,1,24.58-25.81v4h0V87.17c0,14.88-7.31,25.25-22.59,25.25-9.3,0-16.08-5.05-21.26-12.49l-8.9,6.64c5.31,9.43,17,16.48,30.16,16.48,19.93,0,33.22-14.88,33.22-35.88V24.45H1020.3v9a35.28,35.28,0,1,0-24.58,60.66Z" style="fill: #fff"/>
    <path id="_Path_11" data-name="&lt;Path&gt;" d="M735,53.15C737,42.52,745.4,34,756.69,34A17.64,17.64,0,0,1,774.5,51.82v4h0V93h10.63V51.82a28,28,0,0,0-28.44-28.44c-8.77,0-17.41,4.25-21.66,10.1v-9h0V0H724.4V24.45h0V61.66H735Z" style="fill: #fff"/>
    <path id="_Path_12" data-name="&lt;Path&gt;" d="M444,53.15C446,42.52,454.34,34,465.64,34a17.64,17.64,0,0,1,17.81,17.81v4h0V93h10.63V51.82a28,28,0,0,0-28.43-28.44c-8.77,0-17.41,4.25-21.66,10.1v-9H433.35V61.66H444Z" style="fill: #fff"/>
    <path id="_Path_13" data-name="&lt;Path&gt;" d="M895.5,53.15c2-10.63,10.37-19.13,21.66-19.13A17.64,17.64,0,0,1,935,51.82v4h0V93h10.63V51.82a28,28,0,0,0-28.43-28.44c-8.77,0-17.41,4.25-21.66,10.1v-9H884.87V61.66H895.5Z" style="fill: #fff"/>
    <path id="_Path_14" data-name="&lt;Path&gt;" d="M377.86,93V50.23c0-10.76,6-16.21,15.82-16.21V23.39a26.16,26.16,0,0,0-15.82,5.2V24.45H367.23V55.81h0V93h10.63Z" style="fill: #fff"/>
  </g>
</svg>
