<?xml version="1.0" encoding="utf-8"?>
<!-- Generator: Adobe Illustrator 21.1.0, SVG Export Plug-In . SVG Version: 6.00 Build 0)  -->
<svg version="1.1" id="Layer_1" xmlns="http://www.w3.org/2000/svg" xmlns:xlink="http://www.w3.org/1999/xlink" x="0px" y="0px"
	 width="530.5px" height="227.6px" viewBox="0 0 530.5 227.6" enable-background="new 0 0 530.5 227.6" xml:space="preserve">
<g>
	<path fill="#FFFFFF" d="M122.5,83.6V11.4h18.1c13.9-0.3,29.5,3.2,29.5,20.4c0,17.2-15.6,20.7-29.5,20.4H129v31.4H122.5z M129,46.2
		h15.8c9.7,0,18.3-3.1,18.3-14.4c0-11.3-8.6-14.4-18.3-14.4H129V46.2z"/>
	<path fill="#FFFFFF" d="M219.3,58.5c0,13.2-7.4,26.6-23.4,26.6s-23.4-13.4-23.4-26.6s7.4-26.6,23.4-26.6S219.3,45.3,219.3,58.5z
		 M195.9,37.4c-12.1,0-16.9,11.8-16.9,21.1s4.8,21.1,16.9,21.1s16.9-11.8,16.9-21.1S208,37.4,195.9,37.4z"/>
	<path fill="#FFFFFF" d="M244.9,75.7h0.2l15.2-42.3h7.1l14.8,41.9h0.2l14.5-41.9h6.6l-18.7,50.2h-5.7l-15.4-43.3h-0.2l-15.7,43.3
		h-6.1l-18.4-50.2h6.6L244.9,75.7z"/>
	<path fill="#FFFFFF" d="M314.5,59.9c0.2,10.7,5.1,19.7,17.4,19.7c7.1,0,13-5.1,14.5-12h6.3c-3.1,12-10.6,17.5-22.7,17.5
		c-15,0-22-12.9-22-26.6c0-13.6,7.5-26.6,22.4-26.6c16.8,0,22.9,12.3,22.9,28H314.5z M346.8,54.4c-0.7-9.7-5.9-17-16.3-17
		c-9.8,0-15,8.2-15.8,17H346.8z"/>
	<path fill="#FFFFFF" d="M372.6,83.6h-6V44.7c0.1-3.9-0.3-7.9-0.5-11.3h6.2l0.3,7.4h0.2c1.8-5.1,6.3-8.7,11.3-8.9c2-0.1,4,0,6,0.1
		v5.8c-1.2-0.1-2.5-0.4-3.7-0.4c-8.9,0-13.6,6.4-13.8,16V83.6z"/>
	<path fill="#FFFFFF" d="M406.5,18.9h-7v-7.5h7V18.9z M406,33.4v50.2h-6V33.4H406z"/>
	<path fill="#FFFFFF" d="M428.1,83.6h-6V44.7c0-3.9-0.3-7.9-0.5-11.3h6.2l0.3,7.4l0.2,0.2c3.5-6.2,9.2-9.1,15.7-9.1
		c16.4,0,17.7,14.5,17.7,20.3v31.4h-6V51.2c0-8.7-5-13.8-13.2-13.8c-9.9,0-14.4,8.3-14.4,17.3V83.6z"/>
	<path fill="#FFFFFF" d="M512.6,33.4h6.2c-0.2,3.4-0.5,7.4-0.5,11.3v30.1c0,10,0.5,20.5-10.6,25.7c-4,1.9-6.7,2.3-11.4,2.3
		c-9.1,0-19.9-3.1-19.9-13.5h6.5c0.7,6,7.8,8,14.2,8c7.8,0,15-5.5,15.2-13.9V74h-0.2c-2.9,5.9-9.8,9.4-16.3,9.4
		c-15.1,0-21.6-11.5-21.6-25.3c0-13.6,6.1-26.2,21.4-26.2c7.3,0,12.5,3.5,16.5,9.3l0.2-0.4L512.6,33.4z M496.2,37.4
		c-10.9,0-15.5,11-15.5,20.2c0,9.2,4.7,20.3,15.7,20.3c11.5,0,15.9-10.7,15.9-20.5C512.3,47.8,507,37.4,496.2,37.4z"/>
	<path fill="#FFFFFF" d="M152.2,162.3c-0.5-7.7-5.4-11.4-13.7-11.4c-9.2,0-14.9,9.6-14.9,21c0,11.5,5.7,21.2,14.9,21.2
		c7.8,0,13.2-4.8,13.7-11.7h6.5c-1.6,11.5-8.2,17.2-19.6,17.2c-15,0-22-12.9-22-26.6c0-13.6,7.5-26.6,22.4-26.6
		c10.3,0,18.7,6.2,19.2,16.9H152.2z"/>
	<path fill="#FFFFFF" d="M171.5,154.5h0.2c3.5-6.2,9.2-9.1,15.7-9.1c16.4,0,17.7,14.5,17.7,20.3v31.4h-6v-32.4
		c0-8.7-5-13.8-13.2-13.8c-9.9,0-14.4,8.3-14.4,17.3v28.9h-6v-72.2h6V154.5z"/>
	<path fill="#FFFFFF" d="M249.5,161.7c-0.6-8.2-4.8-10.8-11.9-10.8c-6.3,0-11.5,1.9-12.3,8.7h-6.4c1.5-10.3,9.2-14.2,18.8-14.2
		c11.1,0,18,5.1,17.8,16.6v23.8c-0.1,3.9,0.3,7.9,0.5,11.3h-6.2l-0.2-7.4h-0.2l-0.3,0.7c-2.2,4.2-8.9,8.2-15.7,8.2
		c-9.3,0-16.7-5.7-16.7-15.5c0-6.8,4.1-12,10.1-14.5c6.7-2.9,15.4-1.9,22.7-2.3V161.7z M234.5,193.1c13.1,0,15.6-10.8,15-21.3
		c-8.5,0.3-26.3-1.3-26.3,11.3C223.2,189.9,228.4,193.1,234.5,193.1z"/>
	<path fill="#FFFFFF" d="M277.1,197.1h-6v-38.9c0-3.9-0.3-7.9-0.5-11.3h6.2l0.3,7.4l0.2,0.2c3.5-6.2,9.2-9.1,15.7-9.1
		c16.4,0,17.7,14.5,17.7,20.3v31.4h-6v-32.4c0-8.7-5-13.8-13.2-13.8c-9.9,0-14.4,8.3-14.4,17.3V197.1z"/>
	<path fill="#FFFFFF" d="M361.6,146.9h6.2c-0.2,3.4-0.5,7.4-0.5,11.3v30.1c0,10,0.5,20.5-10.6,25.7c-4,1.9-6.7,2.3-11.4,2.3
		c-9.1,0-19.9-3.1-19.9-13.5h6.5c0.7,6,7.8,8,14.2,8c7.8,0,15-5.5,15.2-13.9v-9.4h-0.2c-2.9,5.9-9.8,9.4-16.3,9.4
		c-15.1,0-21.6-11.5-21.6-25.3c0-13.6,6.1-26.2,21.4-26.2c7.3,0,12.5,3.5,16.5,9.3l0.2-0.4L361.6,146.9z M345.2,150.9
		c-10.9,0-15.5,11-15.5,20.2c0,9.2,4.7,20.3,15.7,20.3c11.5,0,15.9-10.7,15.9-20.5C361.3,161.3,356,150.9,345.2,150.9z"/>
	<path fill="#FFFFFF" d="M385.8,173.4c0.2,10.7,5.1,19.7,17.4,19.7c7.1,0,13-5.1,14.5-12h6.3c-3.1,12-10.6,17.5-22.7,17.5
		c-15,0-22-12.9-22-26.6c0-13.6,7.5-26.6,22.4-26.6c16.8,0,22.9,12.3,22.9,28H385.8z M418.1,167.9c-0.7-9.7-5.9-17-16.3-17
		c-9.8,0-15,8.2-15.8,17H418.1z"/>
</g>
<rect x="10.9" y="11.3" fill="#FFFFFF" width="59.3" height="205"/>
</svg>
