<?xml version="1.0" encoding="utf-8"?>
<!-- Generator: Adobe Illustrator 21.1.0, SVG Export Plug-In . SVG Version: 6.00 Build 0)  -->
<svg version="1.1" id="Layer_1" xmlns="http://www.w3.org/2000/svg" xmlns:xlink="http://www.w3.org/1999/xlink" x="0px" y="0px"
	 width="49.4px" height="49.4px" viewBox="0 0 49.4 49.4" enable-background="new 0 0 49.4 49.4" xml:space="preserve">
<circle fill="#FFFFFF" cx="24.7" cy="24.7" r="24.7"/>
<g>
	<path fill="#298C74" d="M27.6,9.6c-0.2-0.1-0.5-0.1-0.7,0s-0.4,0.3-0.5,0.5c-0.1,0.2-0.1,0.5,0,0.7c0.1,0.2,0.3,0.4,0.5,0.5
		c0.1,0,0.2,0.1,0.3,0.1c3.5,0.7,6.6,2.7,8.6,5.6s2.8,6.5,2.1,10.1c-0.9,4.7-4.1,8.5-8.6,10.2l1.1-1.6c0.3-0.4,0.2-1-0.3-1.3
		c-0.4-0.3-1-0.2-1.3,0.3l-2.5,3.8l-0.1,0.1l0,0c-0.1,0.1-0.1,0.2-0.1,0.4c0,0.3,0.2,0.5,0.4,0.7l0,0l0.1,0c0,0,0,0,0,0l4.3,1.7
		c0.1,0,0.2,0.1,0.4,0.1c0.4,0,0.7-0.2,0.9-0.6c0.2-0.5,0-1-0.5-1.2l-1.6-0.6c6-2.2,9.9-7.9,9.9-14.3v0C40.1,17.3,34.8,11,27.6,9.6z
		"/>
	<path fill="#298C74" d="M22.8,9.8L22.8,9.8L22.8,9.8C22.7,9.7,22.7,9.7,22.8,9.8L18.3,8c-0.5-0.2-1,0-1.2,0.5s0,1,0.5,1.2l1.6,0.6
		C11.7,13.2,7.6,21.4,10,29.2c1.7,5.5,6.2,9.6,11.9,10.6H22c0,0,0,0,0,0c0.5,0,0.9-0.4,0.9-0.9c0-0.5-0.3-0.9-0.8-1
		c-7.3-1.4-12.1-8.4-10.8-15.7c0.9-4.7,4.1-8.5,8.6-10.2l-1.1,1.6c-0.1,0.2-0.2,0.5-0.1,0.7c0.1,0.2,0.2,0.5,0.4,0.6
		c0.2,0.1,0.5,0.2,0.7,0.1c0.2-0.1,0.5-0.2,0.6-0.4L23,11l0-0.1c0-0.1,0.1-0.1,0.1-0.2l0,0l0,0c0-0.1,0-0.1,0-0.2
		C23.2,10.2,23,9.9,22.8,9.8z"/>
</g>
</svg>
