<?xml version="1.0" encoding="utf-8"?>
<!-- Generator: Adobe Illustrator 18.1.1, SVG Export Plug-In . SVG Version: 6.00 Build 0)  -->
<svg version="1.1" id="Layer_1" xmlns="http://www.w3.org/2000/svg" xmlns:xlink="http://www.w3.org/1999/xlink" x="0px" y="0px"
	 viewBox="0 0 242.2 157.8" enable-background="new 0 0 242.2 157.8" xml:space="preserve">
<g>
	<g>
		<g opacity="0.3">
			<defs>
				<path id="SVGID_1_" opacity="0.3" d="M123.6,109.5H1.7c19,0,19-28.1,38-28.1s19,12.4,38,12.4c22.9,0,14.3-70.9,47.4-70.9
					L123.6,109.5z"/>
			</defs>
			<clipPath id="SVGID_2_">
				<use xlink:href="#SVGID_1_"  overflow="visible"/>
			</clipPath>
			<g clip-path="url(#SVGID_2_)">
				
					<line fill="none" stroke="#FFFFFF" stroke-width="1.5" stroke-linejoin="round" stroke-miterlimit="10" x1="1.3" y1="109.5" x2="1.3" y2="19.1"/>
				
					<line fill="none" stroke="#FFFFFF" stroke-width="1.5" stroke-linejoin="round" stroke-miterlimit="10" x1="12.2" y1="109.5" x2="12.2" y2="19.1"/>
				
					<line fill="none" stroke="#FFFFFF" stroke-width="1.5" stroke-linejoin="round" stroke-miterlimit="10" x1="23" y1="109.5" x2="23" y2="19.1"/>
				
					<line fill="none" stroke="#FFFFFF" stroke-width="1.5" stroke-linejoin="round" stroke-miterlimit="10" x1="33.8" y1="109.5" x2="33.8" y2="19.1"/>
				
					<line fill="none" stroke="#FFFFFF" stroke-width="1.5" stroke-linejoin="round" stroke-miterlimit="10" x1="44.6" y1="109.5" x2="44.6" y2="19.1"/>
				
					<line fill="none" stroke="#FFFFFF" stroke-width="1.5" stroke-linejoin="round" stroke-miterlimit="10" x1="55.5" y1="109.5" x2="55.5" y2="19.1"/>
				
					<line fill="none" stroke="#FFFFFF" stroke-width="1.5" stroke-linejoin="round" stroke-miterlimit="10" x1="66.3" y1="109.5" x2="66.3" y2="19.1"/>
				
					<line fill="none" stroke="#FFFFFF" stroke-width="1.5" stroke-linejoin="round" stroke-miterlimit="10" x1="77.1" y1="109.5" x2="77.1" y2="19.1"/>
				
					<line fill="none" stroke="#FFFFFF" stroke-width="1.5" stroke-linejoin="round" stroke-miterlimit="10" x1="87.9" y1="109.5" x2="87.9" y2="19.1"/>
				
					<line fill="none" stroke="#FFFFFF" stroke-width="1.5" stroke-linejoin="round" stroke-miterlimit="10" x1="98.8" y1="109.5" x2="98.8" y2="19.1"/>
				
					<line fill="none" stroke="#FFFFFF" stroke-width="1.5" stroke-linejoin="round" stroke-miterlimit="10" x1="109.6" y1="109.5" x2="109.6" y2="19.1"/>
				
					<line fill="none" stroke="#FFFFFF" stroke-width="1.5" stroke-linejoin="round" stroke-miterlimit="10" x1="120.4" y1="109.5" x2="120.4" y2="19.1"/>
				
					<line fill="none" stroke="#FFFFFF" stroke-width="1.5" stroke-linejoin="round" stroke-miterlimit="10" x1="131.2" y1="109.5" x2="131.2" y2="19.1"/>
				
					<line fill="none" stroke="#FFFFFF" stroke-width="1.5" stroke-linejoin="round" stroke-miterlimit="10" x1="142.1" y1="109.5" x2="142.1" y2="19.1"/>
				
					<line fill="none" stroke="#FFFFFF" stroke-width="1.5" stroke-linejoin="round" stroke-miterlimit="10" x1="152.9" y1="109.5" x2="152.9" y2="19.1"/>
				
					<line fill="none" stroke="#FFFFFF" stroke-width="1.5" stroke-linejoin="round" stroke-miterlimit="10" x1="163.7" y1="109.5" x2="163.7" y2="19.1"/>
				
					<line fill="none" stroke="#FFFFFF" stroke-width="1.5" stroke-linejoin="round" stroke-miterlimit="10" x1="174.5" y1="109.5" x2="174.5" y2="19.1"/>
				
					<line fill="none" stroke="#FFFFFF" stroke-width="1.5" stroke-linejoin="round" stroke-miterlimit="10" x1="185.4" y1="122.5" x2="185.4" y2="19.1"/>
				
					<line fill="none" stroke="#FFFFFF" stroke-width="1.5" stroke-linejoin="round" stroke-miterlimit="10" x1="196.2" y1="122.5" x2="196.2" y2="19.1"/>
				
					<line fill="none" stroke="#FFFFFF" stroke-width="1.5" stroke-linejoin="round" stroke-miterlimit="10" x1="207" y1="122.5" x2="207" y2="19.1"/>
				
					<line fill="none" stroke="#FFFFFF" stroke-width="1.5" stroke-linejoin="round" stroke-miterlimit="10" x1="217.8" y1="122.5" x2="217.8" y2="19.1"/>
				
					<line fill="none" stroke="#FFFFFF" stroke-width="1.5" stroke-linejoin="round" stroke-miterlimit="10" x1="228.7" y1="122.5" x2="228.7" y2="19.1"/>
			</g>
		</g>
		<g>
			<g>
				<path fill="none" stroke="#FFFFFF" stroke-width="3" stroke-linejoin="round" stroke-miterlimit="10" d="M1.7,109.5
					c19,0,19-28.1,38-28.1s19,12.4,38,12.4c22.9,0,13.1-70.9,43.6-70.9"/>
			</g>
			
				<line fill="none" stroke="#FFFFFF" stroke-width="3" stroke-linejoin="round" stroke-miterlimit="10" stroke-dasharray="9,7.712" x1="121.3" y1="63.7" x2="1.5" y2="63.7"/>
			<path opacity="0.3" fill="#FFFFFF" d="M115.7,22.9c-9.3,0-15.5,20.2-19.7,40.8h24.4V23.4C119,23.1,117.4,22.9,115.7,22.9z"/>
		</g>
	</g>
	<path fill="none" stroke="#FFFFFF" stroke-width="3" stroke-linejoin="round" stroke-miterlimit="10" d="M233.1,130.8H9.1
		c-4.2,0-7.6-3.4-7.6-7.6V9.1c0-4.2,3.4-7.6,7.6-7.6h224.1c4.2,0,7.6,3.4,7.6,7.6v114.2C240.7,127.4,237.3,130.8,233.1,130.8z"/>
	<g opacity="0.3">
		<defs>
			<path id="SVGID_3_" opacity="0.3" d="M233.1,1.5h-112v109.3h119.6V9.1C240.7,4.9,237.3,1.5,233.1,1.5z"/>
		</defs>
		<clipPath id="SVGID_4_">
			<use xlink:href="#SVGID_3_"  overflow="visible"/>
		</clipPath>
		<g clip-path="url(#SVGID_4_)">
			<g>
				
					<line fill="none" stroke="#FFFFFF" stroke-width="3" stroke-linejoin="round" stroke-miterlimit="10" x1="154.4" y1="-54.2" x2="100.2" y2="108.8"/>
				
					<line fill="none" stroke="#FFFFFF" stroke-width="3" stroke-linejoin="round" stroke-miterlimit="10" x1="172" y1="-48.3" x2="117.7" y2="114.6"/>
				
					<line fill="none" stroke="#FFFFFF" stroke-width="3" stroke-linejoin="round" stroke-miterlimit="10" x1="189.5" y1="-42.5" x2="135.2" y2="120.4"/>
				
					<line fill="none" stroke="#FFFFFF" stroke-width="3" stroke-linejoin="round" stroke-miterlimit="10" x1="207" y1="-36.7" x2="152.8" y2="126.3"/>
				
					<line fill="none" stroke="#FFFFFF" stroke-width="3" stroke-linejoin="round" stroke-miterlimit="10" x1="242.1" y1="-25" x2="187.8" y2="138"/>
				
					<line fill="none" stroke="#FFFFFF" stroke-width="3" stroke-linejoin="round" stroke-miterlimit="10" x1="277.2" y1="-13.3" x2="222.9" y2="149.6"/>
				
					<line fill="none" stroke="#FFFFFF" stroke-width="3" stroke-linejoin="round" stroke-miterlimit="10" x1="259.6" y1="-19.2" x2="205.4" y2="143.8"/>
				
					<line fill="none" stroke="#FFFFFF" stroke-width="3" stroke-linejoin="round" stroke-miterlimit="10" x1="224.6" y1="-30.8" x2="170.3" y2="132.1"/>
			</g>
			
				<line fill="none" stroke="#FFFFFF" stroke-width="3" stroke-linejoin="round" stroke-miterlimit="10" x1="129.3" y1="-19.8" x2="275.1" y2="28.8"/>
			
				<line fill="none" stroke="#FFFFFF" stroke-width="3" stroke-linejoin="round" stroke-miterlimit="10" x1="110.5" y1="36.7" x2="256.3" y2="85.2"/>
			
				<line fill="none" stroke="#FFFFFF" stroke-width="3" stroke-linejoin="round" stroke-miterlimit="10" x1="92.5" y1="90.7" x2="238.3" y2="139.2"/>
		</g>
	</g>
	
		<line fill="none" stroke="#FFFFFF" stroke-width="3" stroke-linejoin="round" stroke-miterlimit="10" x1="240.7" y1="110.8" x2="1.5" y2="110.8"/>
	
		<line fill="none" stroke="#FFFFFF" stroke-width="3" stroke-linejoin="round" stroke-miterlimit="10" x1="121.1" y1="1.5" x2="121.1" y2="110.8"/>
	
		<rect x="71" y="148.3" fill="none" stroke="#FFFFFF" stroke-width="3" stroke-linejoin="round" stroke-miterlimit="10" width="101.1" height="8"/>
	<polygon fill="none" stroke="#FFFFFF" stroke-width="3" stroke-linejoin="round" stroke-miterlimit="10" points="136.1,148.3 
		106.1,148.3 109.1,130.8 133.1,130.8 	"/>
	<g>
		<circle fill="#FFFFFF" cx="194.2" cy="30.3" r="2.2"/>
		<circle fill="#FFFFFF" cx="183.1" cy="54" r="2.2"/>
		<circle fill="#FFFFFF" cx="200.4" cy="60.3" r="2.2"/>
		<circle fill="#FFFFFF" cx="202.5" cy="54" r="2.2"/>
		<circle fill="#FFFFFF" cx="204.7" cy="47.6" r="2.2"/>
		<circle fill="#FFFFFF" cx="163.6" cy="75.1" r="2.2"/>
		<circle fill="#FFFFFF" cx="162.5" cy="21.7" r="2.2"/>
		<circle fill="#FFFFFF" cx="139.9" cy="29.3" r="2.2"/>
		<circle fill="#FFFFFF" cx="176.9" cy="37" r="2.2"/>
		<g>
			<circle opacity="0.3" fill="#FFFFFF" cx="172.1" cy="51.1" r="5.4"/>
			<circle fill="#FFFFFF" cx="172.1" cy="51.1" r="2.2"/>
		</g>
		<g>
			<circle opacity="0.3" fill="#FFFFFF" cx="165.8" cy="58.1" r="5.4"/>
			<circle fill="#FFFFFF" cx="165.8" cy="58.1" r="2.2"/>
		</g>
		<g>
			<circle opacity="0.3" fill="#FFFFFF" cx="167.1" cy="41.1" r="5.4"/>
			<circle fill="#FFFFFF" cx="167.1" cy="41.1" r="2.2"/>
		</g>
		<g>
			<circle opacity="0.3" fill="#FFFFFF" cx="188.5" cy="40.1" r="5.4"/>
			<circle fill="#FFFFFF" cx="188.5" cy="40.1" r="2.2"/>
		</g>
		<g>
			<circle opacity="0.3" fill="#FFFFFF" cx="173.7" cy="46.5" r="5.4"/>
			<circle fill="#FFFFFF" cx="173.7" cy="46.5" r="2.2"/>
		</g>
		<circle fill="#FFFFFF" cx="164.7" cy="48.9" r="2.2"/>
		<circle fill="#FFFFFF" cx="174.7" cy="45.4" r="2.2"/>
		<circle fill="#FFFFFF" cx="168.3" cy="62.5" r="2.2"/>
		<circle fill="#FFFFFF" cx="157.1" cy="94.1" r="2.2"/>
		<circle fill="#FFFFFF" cx="185.3" cy="47.6" r="2.2"/>
		<circle fill="#FFFFFF" cx="161.4" cy="61.5" r="2.2"/>
		<circle fill="#FFFFFF" cx="176.9" cy="68.4" r="2.2"/>
		<circle fill="#FFFFFF" cx="192" cy="86.9" r="2.2"/>
	</g>
</g>
</svg>
