<svg id="Layer_1" data-name="Layer 1" xmlns="http://www.w3.org/2000/svg" viewBox="0 0 125 100">
  <title>Artboard 1</title>
  <rect x="7.3" y="19" width="110.5" height="54.1" style="fill: none;stroke: #fff;stroke-linejoin: round;stroke-width: 2.1322999000549316px"/>
  <line x1="14.5" y1="19" x2="14.5" y2="69.1" style="fill: none;stroke: #fff;stroke-linejoin: round;stroke-width: 2.1322999000549316px"/>
  <line x1="110.5" y1="23" x2="110.5" y2="73.1" style="fill: none;stroke: #fff;stroke-linejoin: round;stroke-width: 2.1322999000549316px"/>
  <polygon points="68.4 83.7 56.6 83.7 58.6 73.5 66.4 73.5 68.4 83.7" style="fill: none;stroke: #fff;stroke-linejoin: round;stroke-width: 2.1322999000549316px"/>
  <line x1="33.9" y1="83.7" x2="91.1" y2="83.7" style="fill: none;stroke: #fff;stroke-linejoin: round;stroke-width: 2.1322999000549316px"/>
  <path d="M55.8,54.2l-10-3.3-2.6-4.2a2.69,2.69,0,0,1,.6-2.7h0a2.88,2.88,0,0,1,2-.9h10a1,1,0,0,0,.8-1.7l-2.7-3.1a11.46,11.46,0,0,0-16.6-.6L37,38a12.5,12.5,0,0,0-2.5,13.7,5.36,5.36,0,0,0,3.1,2.8l15.8,5a3.42,3.42,0,0,0,3.9-1.1l1.6-2.1L57,45.7" style="fill: none;stroke: #fff;stroke-linejoin: round;stroke-width: 2.1322999000549316px"/>
  <line x1="68.4" y1="45.8" x2="95.3" y2="45.8" style="fill: none;stroke: #fff;stroke-linejoin: round;stroke-width: 2.1322999000549316px"/>
  <line x1="68.4" y1="39.8" x2="73.3" y2="39.8" style="fill: none;stroke: #fff;stroke-linejoin: round;stroke-width: 2.1322999000549316px"/>
  <line x1="68.4" y1="52.2" x2="83" y2="52.2" style="fill: none;stroke: #fff;stroke-linejoin: round;stroke-width: 2.1322999000549316px"/>
</svg>
