<svg id="bg" xmlns="http://www.w3.org/2000/svg" xmlns:xlink="http://www.w3.org/1999/xlink" viewBox="0 0 340 200">
  <defs>
    <clipPath id="clip-path">
      <rect x="3.62" y="-31.34" width="339.63" height="229.78" style="fill: none"/>
    </clipPath>
  </defs>
  <title>1-efficiency</title>
  <g style="clip-path: url(#clip-path)">
    <g style="opacity: 0.30000000000000004">
      <path d="M249.41,142.47a1.94,1.94,0,0,0,1.94-1.94v-8a1.94,1.94,0,0,1,2.49-1.85l13.53,4.06a5.37,5.37,0,0,1,3.83,5.14h0a5.37,5.37,0,0,1-5.37,5.37H257l-3.64,0-1.69,1.44a3.53,3.53,0,0,0-.81,4.38l5.4,9.9a33.12,33.12,0,0,1,4,15.86v28.61a11.66,11.66,0,0,1-3.42,8.25l-8.38,8.38a11.66,11.66,0,0,1-8.25,3.42H103.45a11.66,11.66,0,0,1-8.25-3.42l-8.38-8.38a11.66,11.66,0,0,1-3.42-8.25V176.91a33.12,33.12,0,0,1,4-15.86l5.4-9.9a3.53,3.53,0,0,0-.81-4.38l-1.69-1.44-3.64,0H77.91a5.37,5.37,0,0,1-5.37-5.37h0a5.37,5.37,0,0,1,3.83-5.14l13.53-4.06a1.94,1.94,0,0,1,2.49,1.85v8a1.94,1.94,0,0,0,1.94,1.94" style="fill: none;stroke: #fff;stroke-linejoin: round;stroke-width: 3px"/>
      <path d="M101.75,162.33l11.11,6.43a21.19,21.19,0,0,0,11.24,2.84L172,173.19l47.91-1.41a21.19,21.19,0,0,0,11.05-3.5l10.66-7" style="fill: none;stroke: #fff;stroke-linejoin: round;stroke-width: 3px"/>
      <path d="M216.1,177.77h0a6.25,6.25,0,0,0,6.25,6.25h21.22a10.15,10.15,0,0,0,10.15-10.15v-2.34a11.63,11.63,0,0,0-3.41-8.22l-3.43-3.43-.73-17.41-15.69-26.63A16,16,0,0,0,216.7,108H127a16,16,0,0,0-13.76,7.87L97.58,142.47l-.73,17.41-3.43,3.43A11.63,11.63,0,0,0,90,171.53v2.34A10.15,10.15,0,0,0,100.17,184h21.22a6.25,6.25,0,0,0,6.25-6.25h0" style="fill: none;stroke: #fff;stroke-linejoin: round;stroke-width: 3px"/>
      <path d="M232,131.89l-8.89-14.68a7.11,7.11,0,0,0-6.18-3.59H126.76a7.11,7.11,0,0,0-6.18,3.59L110.4,135a6,6,0,0,0,4.85,8.9l49.51,2.65a132.87,132.87,0,0,0,14.2,0l49.51-2.65a6,6,0,0,0,4.85-8.9" style="fill: none;stroke: #fff;stroke-linejoin: round;stroke-width: 3px"/>
    </g>
  </g>
  <g>
    <path d="M139.35,10A47.89,47.89,0,0,0,119,30.45c-10,19.21-9.85,38.4-3.16,54.11a8.28,8.28,0,0,0,7.64,5h93.83a8.41,8.41,0,0,0,7.73-5.18,59.08,59.08,0,0,0,4.63-23C229.71,18.63,184.53-13.53,139.35,10Z" style="fill: none;stroke: #fff;stroke-linejoin: round;stroke-width: 3.07335436755971px"/>
    <g style="opacity: 0.30000000000000004">
      <line x1="164.97" y1="60.37" x2="129.76" y2="43.58" style="fill: none;stroke: #fff;stroke-linejoin: round;stroke-width: 3.39627957344055px"/>
      <circle cx="170.43" cy="62.97" r="5.84" transform="matrix(0.65, -0.76, 0.76, 0.65, 11.82, 151.61)" style="fill: none;stroke: #fff;stroke-linejoin: round;stroke-width: 3.39627957344055px"/>
      <circle cx="170.43" cy="62.97" r="87.9" transform="translate(11.82 151.61) rotate(-49.48)" style="fill: none"/>
    </g>
    <g>
      <line x1="167.3" y1="57.8" x2="147.1" y2="24.42" style="fill: none;stroke: #fff;stroke-linejoin: round;stroke-width: 3.39627957344055px"/>
      <circle cx="170.43" cy="62.97" r="5.84" transform="translate(-10.79 49.89) rotate(-16.15)" style="fill: none;stroke: #fff;stroke-linejoin: round;stroke-width: 3.39627957344055px"/>
      <circle cx="170.43" cy="62.97" r="87.9" transform="translate(-10.79 49.89) rotate(-16.15)" style="fill: none"/>
    </g>
  </g>
  <text transform="translate(57.61 60.37)" style="font-size: 14px;fill: red;font-family: UniversLTStd, Univers LT Std">Già presente nei vecchi assets</text>
</svg>
