<svg id="bg" xmlns="http://www.w3.org/2000/svg" viewBox="0 0 340 200">
  <title>1-sound-future</title>
  <g>
    <circle cx="56.15" cy="35.19" r="15.21" style="fill: none;stroke: #fff;stroke-linejoin: round;stroke-width: 3px"/>
    <line x1="56.15" y1="64.86" x2="56.15" y2="56.5" style="fill: none;stroke: #fff;stroke-linejoin: round;stroke-width: 3px"/>
    <line x1="56.15" y1="13.87" x2="56.15" y2="5.52" style="fill: none;stroke: #fff;stroke-linejoin: round;stroke-width: 3px"/>
    <line x1="26.48" y1="35.19" x2="34.83" y2="35.19" style="fill: none;stroke: #fff;stroke-linejoin: round;stroke-width: 3px"/>
    <line x1="77.46" y1="35.19" x2="85.82" y2="35.19" style="fill: none;stroke: #fff;stroke-linejoin: round;stroke-width: 3px"/>
    <line x1="35.17" y1="56.17" x2="41.07" y2="50.26" style="fill: none;stroke: #fff;stroke-linejoin: round;stroke-width: 3px"/>
    <line x1="71.22" y1="20.11" x2="77.13" y2="14.21" style="fill: none;stroke: #fff;stroke-linejoin: round;stroke-width: 3px"/>
    <line x1="35.17" y1="14.21" x2="41.07" y2="20.11" style="fill: none;stroke: #fff;stroke-linejoin: round;stroke-width: 3px"/>
    <line x1="71.22" y1="50.26" x2="77.13" y2="56.17" style="fill: none;stroke: #fff;stroke-linejoin: round;stroke-width: 3px"/>
    <rect x="227.03" y="124.41" width="33.96" height="25.01" style="fill: none;stroke: #fff;stroke-linejoin: round;stroke-width: 3px"/>
    <line x1="248.7" y1="138.61" x2="253.97" y2="133.34" style="fill: none;stroke: #fff;stroke-linejoin: round;stroke-width: 3px"/>
    <line x1="260.85" y1="133.75" x2="245.65" y2="148.95" style="fill: none;stroke: #fff;stroke-linejoin: round;stroke-width: 3px"/>
    <rect x="227.03" y="87.17" width="33.96" height="25.01" style="fill: none;stroke: #fff;stroke-linejoin: round;stroke-width: 3px"/>
    <line x1="248.7" y1="101.37" x2="253.97" y2="96.1" style="fill: none;stroke: #fff;stroke-linejoin: round;stroke-width: 3px"/>
    <line x1="260.85" y1="96.51" x2="245.65" y2="111.71" style="fill: none;stroke: #fff;stroke-linejoin: round;stroke-width: 3px"/>
    <line x1="110.35" y1="161.45" x2="109.42" y2="161.45" style="fill: none;stroke: #fff;stroke-linejoin: round;stroke-width: 3px"/>
    <path d="M69.6,152.33A8.57,8.57,0,1,1,61,160.9H53v-21A15.39,15.39,0,0,1,68.4,124.54H89.54A13.43,13.43,0,0,1,103,138a7.78,7.78,0,0,0,7.78,7.78H112a7.65,7.65,0,0,1,7.65,7.65v8.05h-9.28" style="fill: none;stroke: #fff;stroke-linejoin: round;stroke-width: 3px"/>
    <path d="M101.78,152.33a8.57,8.57,0,1,1-8.57,8.57H78.08" style="fill: none;stroke: #fff;stroke-linejoin: round;stroke-width: 3px"/>
    <line x1="1" y1="169.46" x2="69.75" y2="169.46" style="fill: none;stroke: #fff;stroke-linejoin: round;stroke-width: 3px"/>
    <path d="M102,169.26h74.11V136.72a7.15,7.15,0,0,1,7.15-7.15h2.83a7.15,7.15,0,0,1,7.15,7.15v32.54l14.43,0V74H319.06l.08,88.17H306.38V133.6a14.5,14.5,0,0,0-14.5-14.5h-.6a14.5,14.5,0,0,0-14.5,14.5v35.87H339" style="fill: none;stroke: #fff;stroke-linejoin: round;stroke-width: 3px"/>
    <line x1="181.64" y1="141.28" x2="187.23" y2="141.28" style="fill: none;stroke: #fff;stroke-linejoin: round;stroke-width: 3px"/>
    <line x1="181.64" y1="148.19" x2="187.23" y2="148.19" style="fill: none;stroke: #fff;stroke-linejoin: round;stroke-width: 3px"/>
    <line x1="181.64" y1="155.1" x2="187.23" y2="155.1" style="fill: none;stroke: #fff;stroke-linejoin: round;stroke-width: 3px"/>
    <line x1="181.64" y1="162.01" x2="187.23" y2="162.01" style="fill: none;stroke: #fff;stroke-linejoin: round;stroke-width: 3px"/>
    <polyline points="281.94 74.91 281.85 57.46 219.03 24.01 155.02 58.13 154.97 169.46" style="fill: none;stroke: #fff;stroke-linejoin: round;stroke-width: 3px"/>
  </g>
  <g>
    <path d="M86.14,116.79a6.61,6.61,0,0,0,8.77-9.6,6.85,6.85,0,0,0-11.32.4l-.15.25A6.14,6.14,0,0,1,75,109.93h0Z" style="fill: none;stroke: #fff;stroke-linejoin: round;stroke-width: 3px"/>
    <path d="M99.28,104.61,96,102.43,96,101a3.79,3.79,0,1,0-4.8,3.66" style="fill: none;stroke: #fff;stroke-linejoin: round;stroke-width: 3px"/>
    <line x1="88.79" y1="118" x2="88.79" y2="123" style="fill: none;stroke: #fff;stroke-linejoin: round;stroke-width: 3px"/>
  </g>
</svg>
