<svg xmlns="http://www.w3.org/2000/svg" viewBox="0 0 340 260">
  <title>2-raceMicrogrid-racetrack</title>
  <g id="bg">
    <polyline points="87.25 95.38 86.24 86.75 93.2 86.75 95.4 104.09 88.29 104.09 90.3 115.25 78.16 98.99 87.78 98.99" style="fill: none;stroke: #fff;stroke-linejoin: round;stroke-width: 2px"/>
    <path d="M257.09,105.08a5.95,5.95,0,1,1,1.58-1.31l3.48,2,7.07-.93L264,99.91,269.22,95l-7.07-.93,1.3-7-6.26,3.41L254.12,84l-3.07,6.44-6.26-3.41,1.3,7L239,95l5.18,4.91L239,104.82l7.07.93-1.3,7,6.26-3.41,3.07,6.44,3.07-6.44,6.26,3.41-1-4.37" style="fill: none;stroke: #fff;stroke-linejoin: round;stroke-width: 2px"/>
    <g style="opacity: 0.5">
      <circle cx="168.69" cy="126.82" r="24.85" style="fill: none;stroke: #fff;stroke-linejoin: round"/>
      <g>
        <path d="M138.78,199h5.5a49.26,49.26,0,0,0,49.26-49.26V127" style="fill: none;stroke: #fff;stroke-linejoin: round"/>
        <path d="M228.09,177.57l1.7-5.23a49.26,49.26,0,0,0-31.63-62.07l-21.63-7" style="fill: none;stroke: #fff;stroke-linejoin: round"/>
        <path d="M235.31,86l-4.45-3.23a49.26,49.26,0,0,0-68.8,10.9l-13.37,18.4" style="fill: none;stroke: #fff;stroke-linejoin: round"/>
        <path d="M150.46,50.85,146,54.09a49.26,49.26,0,0,0-10.9,68.8l13.37,18.4" style="fill: none;stroke: #fff;stroke-linejoin: round"/>
        <path d="M90.8,120.68l1.7,5.23a49.26,49.26,0,0,0,62.07,31.63l21.63-7" style="fill: none;stroke: #fff;stroke-linejoin: round"/>
      </g>
      <g>
        <path d="M198.6,199h-5.5a49.26,49.26,0,0,1-49.26-49.26V127" style="fill: none;stroke: #fff;stroke-linejoin: round"/>
        <path d="M109.29,177.57l-1.7-5.23a49.26,49.26,0,0,1,31.63-62.07l21.63-7" style="fill: none;stroke: #fff;stroke-linejoin: round"/>
        <path d="M102.07,86l4.45-3.23a49.26,49.26,0,0,1,68.8,10.9l13.37,18.4" style="fill: none;stroke: #fff;stroke-linejoin: round"/>
        <path d="M186.92,50.85l4.45,3.23a49.26,49.26,0,0,1,10.9,68.8l-13.37,18.4" style="fill: none;stroke: #fff;stroke-linejoin: round"/>
        <path d="M246.58,120.68l-1.7,5.23a49.26,49.26,0,0,1-62.07,31.63l-21.63-7" style="fill: none;stroke: #fff;stroke-linejoin: round"/>
      </g>
    </g>
  </g>
  <g id="UI">
    <g style="opacity: 0.5">
      <text transform="translate(277.15 98.91)" style="font-size: 12px;fill: #fff;font-family: UniversLTStd, Univers LT Std">Solar<tspan x="0" y="11">power</tspan></text>
    </g>
    <g style="opacity: 0.5">
      <text transform="translate(187 42.21)" style="font-size: 12px;fill: #fff;font-family: UniversLTStd, Univers LT Std">Storage</text>
    </g>
    <text transform="translate(152.02 166.52)" style="font-size: 12px;fill: #fff;font-family: UniversLTStd, Univers LT Std">Meter</text>
    <g style="opacity: 0.5">
      <text transform="translate(240.66 197.07)" style="font-size: 12px;fill: #fff;font-family: UniversLTStd, Univers LT Std">Race<tspan x="0" y="11">services</tspan></text>
    </g>
    <g style="opacity: 0.5">
      <text transform="translate(52.7 194.07)" style="font-size: 12px;fill: #fff;font-family: UniversLTStd, Univers LT Std">Race <tspan x="7.34" y="11">cars</tspan></text>
    </g>
    <g style="opacity: 0.5">
      <text transform="translate(39.38 99.25)" style="font-size: 12px;fill: #fff;font-family: UniversLTStd, Univers LT Std">Other<tspan x="-23.34" y="11">resources</tspan></text>
    </g>
    <path d="M122.8,200.65h5.06a1.36,1.36,0,0,0,.89-2.4L120,190.78a1.36,1.36,0,0,0-2.25,1.07,1.38,1.38,0,0,1-1.41,1.33h-3.83a1.36,1.36,0,0,1-1.36-1.36v-4.72a1.36,1.36,0,0,0-1.36-1.36H108a1.36,1.36,0,0,0-1,.4l-5.82,5.82v-3.48a1.36,1.36,0,0,0-1.36-1.36H94.69a1.36,1.36,0,0,0-1.36,1.36v6.92a1.36,1.36,0,0,0,.4,1l3.91,3.91a1.36,1.36,0,0,0,1,.4h2.64a3.19,3.19,0,0,0,6.38,0h6a3.19,3.19,0,0,0,6.38,0" style="fill: none;stroke: #fff;stroke-linejoin: round;stroke-width: 2px"/>
    <path d="M172.16,28.45h4.4V52h-13.2V28.44h3.33V27.35a2.09,2.09,0,0,1,2.09-2.2h3.37a1,1,0,0,1,1.08,1.08" style="fill: none;stroke: #fff;stroke-linejoin: round;stroke-width: 2px"/>
    <g>
      <polyline points="224.81 211.57 231.03 184.65 220.67 184.65 219.64 188.79 210.32 188.79 207.21 201.22 216.53 201.22 217.57 197.07 224.81 197.07" style="fill: none;stroke: #fff;stroke-linejoin: round;stroke-width: 2.07080689459707px"/>
      <line x1="219.64" y1="188.79" x2="217.57" y2="197.08" style="fill: none;stroke: #fff;stroke-linejoin: round;stroke-width: 2.07080689459707px"/>
    </g>
    <g>
      <path d="M158,121.78v-7.52H179.4v29.13H158V125.07h2.27a2.12,2.12,0,0,1,2.12,2.12v4.44a2.12,2.12,0,0,0,2.12,2.12h0a2.12,2.12,0,0,0,2.12-2.12V120.5a2.13,2.13,0,0,1,2.13-2.13h0a2.13,2.13,0,0,1,2.13,2.13v6.94a2.18,2.18,0,0,0,2.18,2.18h0a2.18,2.18,0,0,0,2.18-2.18V125h.95" style="fill: none;stroke: #fff;stroke-linejoin: round;stroke-width: 2px"/>
      <line x1="163" y1="139" x2="167" y2="139" style="fill: none;stroke: #fff;stroke-linejoin: round;stroke-width: 2px"/>
    </g>
  </g>
</svg>
