<svg id="bg" xmlns="http://www.w3.org/2000/svg" xmlns:xlink="http://www.w3.org/1999/xlink" viewBox="0 0 340 252.65">
  <defs>
    <clipPath id="clip-path">
      <rect x="0.43" width="340" height="202.67" style="fill: none"/>
    </clipPath>
  </defs>
  <title>3-formulaE</title>
  <g style="clip-path: url(#clip-path)">
    <g>
      <g>
        <g>
          <circle cx="181.96" cy="120.4" r="4.25" style="fill: none;stroke: #fff;stroke-linejoin: round;stroke-width: 3px"/>
          <path d="M178.55,149.3V162h6.51V145.47H173.94V134.82a5.82,5.82,0,0,1,5.82-5.82h7.18a7.15,7.15,0,0,0,6.58-4.36l3.17-7.49" style="fill: none;stroke: #fff;stroke-linejoin: round;stroke-width: 3px"/>
        </g>
        <g>
          <circle cx="211.96" cy="128.4" r="4.25" style="fill: none;stroke: #fff;stroke-linejoin: round;stroke-width: 3px"/>
          <path d="M220,153.47V142.82a5.82,5.82,0,0,0-5.82-5.82h-4.4a5.82,5.82,0,0,0-5.82,5.82v10.65h11.12V170h-6.51V157.3" style="fill: none;stroke: #fff;stroke-linejoin: round;stroke-width: 3px"/>
        </g>
        <g>
          <circle cx="154.96" cy="132.4" r="4.25" style="fill: none;stroke: #fff;stroke-linejoin: round;stroke-width: 3px"/>
          <path d="M163,157.47V146.82a5.82,5.82,0,0,0-5.82-5.82h-4.4a5.82,5.82,0,0,0-5.82,5.82v10.65h11.12V174h-6.51V161.3" style="fill: none;stroke: #fff;stroke-linejoin: round;stroke-width: 3px"/>
        </g>
        <line x1="172.58" y1="128.75" x2="165.8" y2="118.15" style="fill: none;stroke: #fff;stroke-linejoin: round;stroke-width: 3px"/>
        <polyline points="184.45 145.51 187.95 145.51 187.95 133.01" style="fill: none;stroke: #fff;stroke-linejoin: round;stroke-width: 3px"/>
      </g>
      <polyline points="328.13 180.98 223 180.98 223 169.95 196.7 169.95 196.7 161.95 169.38 161.95 169.38 173.93 141.87 173.93 141.87 180.98 107.7 180.98" style="fill: none;stroke: #fff;stroke-linejoin: round;stroke-width: 3px"/>
      <g>
        <polyline points="27.98 180.22 36.61 180.22 29.86 159.69 46.08 159.69 52.64 180.22 41.86 180.22" style="fill: none;stroke: #fff;stroke-linejoin: round;stroke-width: 3px"/>
        <polyline points="51.14 180.22 59.77 180.22 53.11 159.69 69.23 159.69 75.8 180.22 65.02 180.22" style="fill: none;stroke: #fff;stroke-linejoin: round;stroke-width: 3px"/>
        <polyline points="74.39 180.22 83.02 180.22 76.27 159.69 92.48 159.69 99.05 180.22 88.27 180.22" style="fill: none;stroke: #fff;stroke-linejoin: round;stroke-width: 3px"/>
      </g>
      <g>
        <line x1="86.72" y1="80.47" x2="86.72" y2="72.12" style="fill: none;stroke: #fff;stroke-linejoin: round;stroke-width: 3px"/>
        <line x1="86.72" y1="29.48" x2="86.72" y2="21.13" style="fill: none;stroke: #fff;stroke-linejoin: round;stroke-width: 3px"/>
        <line x1="57.05" y1="50.8" x2="65.4" y2="50.8" style="fill: none;stroke: #fff;stroke-linejoin: round;stroke-width: 3px"/>
        <line x1="108.04" y1="50.8" x2="116.39" y2="50.8" style="fill: none;stroke: #fff;stroke-linejoin: round;stroke-width: 3px"/>
        <line x1="65.74" y1="71.78" x2="71.65" y2="65.87" style="fill: none;stroke: #fff;stroke-linejoin: round;stroke-width: 3px"/>
        <line x1="101.79" y1="35.73" x2="107.7" y2="29.82" style="fill: none;stroke: #fff;stroke-linejoin: round;stroke-width: 3px"/>
        <line x1="65.74" y1="29.82" x2="71.65" y2="35.73" style="fill: none;stroke: #fff;stroke-linejoin: round;stroke-width: 3px"/>
        <line x1="101.79" y1="65.87" x2="107.7" y2="71.78" style="fill: none;stroke: #fff;stroke-linejoin: round;stroke-width: 3px"/>
      </g>
      <g>
        <line x1="143.12" y1="83.23" x2="143.12" y2="80.19" style="fill: none;stroke: #fff;stroke-linejoin: round;stroke-width: 3px"/>
        <line x1="143.12" y1="64.67" x2="143.12" y2="61.63" style="fill: none;stroke: #fff;stroke-linejoin: round;stroke-width: 3px"/>
        <line x1="132.32" y1="72.43" x2="135.36" y2="72.43" style="fill: none;stroke: #fff;stroke-linejoin: round;stroke-width: 3px"/>
        <line x1="150.88" y1="72.43" x2="153.92" y2="72.43" style="fill: none;stroke: #fff;stroke-linejoin: round;stroke-width: 3px"/>
        <line x1="135.48" y1="80.07" x2="137.63" y2="77.92" style="fill: none;stroke: #fff;stroke-linejoin: round;stroke-width: 3px"/>
        <line x1="148.61" y1="66.95" x2="150.76" y2="64.8" style="fill: none;stroke: #fff;stroke-linejoin: round;stroke-width: 3px"/>
        <line x1="135.48" y1="64.8" x2="137.63" y2="66.95" style="fill: none;stroke: #fff;stroke-linejoin: round;stroke-width: 3px"/>
        <line x1="148.61" y1="77.92" x2="150.76" y2="80.07" style="fill: none;stroke: #fff;stroke-linejoin: round;stroke-width: 3px"/>
      </g>
      <g>
        <line x1="41.84" y1="114.3" x2="41.84" y2="111.26" style="fill: none;stroke: #fff;stroke-linejoin: round;stroke-width: 3px"/>
        <line x1="41.84" y1="95.74" x2="41.84" y2="92.7" style="fill: none;stroke: #fff;stroke-linejoin: round;stroke-width: 3px"/>
        <line x1="31.04" y1="103.5" x2="34.08" y2="103.5" style="fill: none;stroke: #fff;stroke-linejoin: round;stroke-width: 3px"/>
        <line x1="49.6" y1="103.5" x2="52.64" y2="103.5" style="fill: none;stroke: #fff;stroke-linejoin: round;stroke-width: 3px"/>
        <line x1="34.2" y1="111.14" x2="36.35" y2="108.99" style="fill: none;stroke: #fff;stroke-linejoin: round;stroke-width: 3px"/>
        <line x1="47.33" y1="98.01" x2="49.48" y2="95.86" style="fill: none;stroke: #fff;stroke-linejoin: round;stroke-width: 3px"/>
        <line x1="34.2" y1="95.86" x2="36.35" y2="98.01" style="fill: none;stroke: #fff;stroke-linejoin: round;stroke-width: 3px"/>
        <line x1="47.33" y1="108.99" x2="49.48" y2="111.14" style="fill: none;stroke: #fff;stroke-linejoin: round;stroke-width: 3px"/>
      </g>
    </g>
  </g>
</svg>
