<svg xmlns="http://www.w3.org/2000/svg" xmlns:xlink="http://www.w3.org/1999/xlink" viewBox="0 0 340 280">
  <defs>
    <clipPath id="clip-path">
      <rect x="0.91" y="5.13" width="339.52" height="282.62" style="fill: none"/>
    </clipPath>
  </defs>
  <title>3-howMuchSunMexico</title>
  <g id="bg">
    <g style="clip-path: url(#clip-path)">
      <g>
        <g style="opacity: 0.30000000000000004">
          <path d="M198.8,147.15V121.56A50.53,50.53,0,0,1,249.32,71h14.53a73.77,73.77,0,0,0,35.76-9.24l41.86-25.92" style="fill: none;stroke: #fff;stroke-linejoin: round;stroke-width: 3px"/>
          <line x1="13.51" y1="24.3" x2="0.91" y2="5.13" style="fill: none;stroke: #fff;stroke-linejoin: round;stroke-width: 3px"/>
          <path d="M340.43,225.83H302.1a9,9,0,0,1-7.74-13.58l5.21-8.87" style="fill: none;stroke: #fff;stroke-linejoin: round;stroke-width: 3px"/>
          <path d="M250.84,247.25l.93,1a32.45,32.45,0,0,0,23.52,10.09H297.6a32.3,32.3,0,0,1,22.83,9.45l20,20" style="fill: none;stroke: #fff;stroke-linejoin: round;stroke-width: 3px"/>
        </g>
        <path d="M199.05,175.12a25.52,25.52,0,0,0,25.45,25.45h29.06a7,7,0,0,0,6.13-3.57l7.11-12.55a34.06,34.06,0,0,1,29.63-17.26h10a7,7,0,0,1,6.29,10.23l-13.15,26a7,7,0,0,1-6.29,3.86h-4a7,7,0,0,0-6,3.31l-22,35.13a7,7,0,0,1-10.63,1.55L242.52,240a7,7,0,0,0-4.65-1.76h-16A104.57,104.57,0,0,1,173,226.16l-42.49-22.47A34.8,34.8,0,0,1,112,172.93h0A34.8,34.8,0,0,0,105,152L46.65,74.59a7,7,0,0,1-1.42-4.24V56a9,9,0,0,0-9-9h0a9,9,0,0,0-9,9v16.1a7,7,0,0,0,1.23,4l41.3,60.37a7,7,0,0,1-5.82,11h0a7,7,0,0,1-5.82-3.08L14.74,80.84a7,7,0,0,1-1.23-4V24.3H31.4A49.43,49.43,0,0,1,65.59,38h0A57.58,57.58,0,0,0,105.4,54h0a78.91,78.91,0,0,1,59.69,27.3L190,107.11a32.08,32.08,0,0,1,9,22.3Z" style="fill: none;stroke: #fff;stroke-linejoin: round;stroke-width: 3px"/>
      </g>
    </g>
  </g>
  <g id="UI">
    <path d="M147.27,120.18a8.84,8.84,0,1,1,2.34-1.95l5.18,2.94,10.51-1.38-7.7-7.29,7.7-7.29-10.51-1.38,1.94-10.42-9.31,5.06-4.56-9.57-4.56,9.57L129,93.41l1.94,10.42-10.51,1.38,7.7,7.29-7.7,7.29,10.51,1.38L129,131.59l9.31-5.06,4.56,9.57,4.56-9.57,9.31,5.06-1.52-6.5" style="fill: none;stroke: #fff;stroke-linejoin: round;stroke-width: 3px"/>
  </g>
</svg>
