<svg id="bg" xmlns="http://www.w3.org/2000/svg" viewBox="0 0 340 280">
  <title>3-howMuchSunGlobal</title>
  <path d="M340,218.1a410,410,0,0,0-340-.57" style="fill: none;stroke: #fff;stroke-linejoin: round;stroke-width: 3px"/>
  <g>
    <circle cx="206.96" cy="140.07" r="4.25" style="fill: none;stroke: #fff;stroke-linejoin: round;stroke-width: 3px"/>
    <path d="M203.55,169v12.66h6.51V165.14H198.94V154.49a5.82,5.82,0,0,1,5.82-5.82h7.18a7.15,7.15,0,0,0,6.58-4.36l3.17-7.49" style="fill: none;stroke: #fff;stroke-linejoin: round;stroke-width: 3px"/>
  </g>
  <g>
    <circle cx="236.96" cy="144.07" r="4.25" style="fill: none;stroke: #fff;stroke-linejoin: round;stroke-width: 3px"/>
    <path d="M245,169.14V158.49a5.82,5.82,0,0,0-5.82-5.82h-4.4a5.82,5.82,0,0,0-5.82,5.82v10.65h11.12v16.48h-6.51V173" style="fill: none;stroke: #fff;stroke-linejoin: round;stroke-width: 3px"/>
  </g>
  <g>
    <circle cx="163.96" cy="138.07" r="4.25" style="fill: none;stroke: #fff;stroke-linejoin: round;stroke-width: 3px"/>
    <path d="M179,160.14l-7-3.54v-4.11a5.82,5.82,0,0,0-5.82-5.82h-4.4a5.82,5.82,0,0,0-5.82,5.82v10.65h11.12v16.48h-6.51V167" style="fill: none;stroke: #fff;stroke-linejoin: round;stroke-width: 3px"/>
  </g>
  <line x1="197.58" y1="148.42" x2="190.8" y2="137.82" style="fill: none;stroke: #fff;stroke-linejoin: round;stroke-width: 3px"/>
  <polyline points="209.45 165.18 212.95 165.18 212.95 152.68" style="fill: none;stroke: #fff;stroke-linejoin: round;stroke-width: 3px"/>
  <g>
    <circle cx="106.15" cy="56.19" r="15.21" style="fill: none;stroke: #fff;stroke-linejoin: round;stroke-width: 3px"/>
    <line x1="106.15" y1="85.86" x2="106.15" y2="77.5" style="fill: none;stroke: #fff;stroke-linejoin: round;stroke-width: 3px"/>
    <line x1="106.15" y1="34.87" x2="106.15" y2="26.52" style="fill: none;stroke: #fff;stroke-linejoin: round;stroke-width: 3px"/>
    <line x1="76.48" y1="56.19" x2="84.83" y2="56.19" style="fill: none;stroke: #fff;stroke-linejoin: round;stroke-width: 3px"/>
    <line x1="127.46" y1="56.19" x2="135.82" y2="56.19" style="fill: none;stroke: #fff;stroke-linejoin: round;stroke-width: 3px"/>
    <line x1="85.17" y1="77.17" x2="91.07" y2="71.26" style="fill: none;stroke: #fff;stroke-linejoin: round;stroke-width: 3px"/>
    <line x1="121.22" y1="41.11" x2="127.13" y2="35.21" style="fill: none;stroke: #fff;stroke-linejoin: round;stroke-width: 3px"/>
    <line x1="85.17" y1="35.21" x2="91.07" y2="41.11" style="fill: none;stroke: #fff;stroke-linejoin: round;stroke-width: 3px"/>
    <line x1="121.22" y1="71.26" x2="127.13" y2="77.17" style="fill: none;stroke: #fff;stroke-linejoin: round;stroke-width: 3px"/>
  </g>
  <polyline points="345 153.5 319.5 153.5 319.5 210" style="fill: none;stroke: #fff;stroke-linejoin: round;stroke-width: 3px"/>
  <polyline points="296.5 201 296.5 121.5 258.5 121.5 258.5 183" style="fill: none;stroke: #fff;stroke-linejoin: round;stroke-width: 3px"/>
  <polyline points="332.5 154 332.5 102.5 276.5 102.5 276.5 113" style="fill: none;stroke: #fff;stroke-linejoin: round;stroke-width: 3px"/>
  <polyline points="64.5 195 64.5 181.5 22.5 181.5 22.5 209" style="fill: none;stroke: #fff;stroke-linejoin: round;stroke-width: 3px"/>
  <polyline points="35.5 181 35.5 159.5 0 159.5" style="fill: none;stroke: #fff;stroke-linejoin: round;stroke-width: 3px"/>
  <polyline points="314.5 102 322.5 82.5 304.5 82.5 299.49 95.35" style="fill: none;stroke: #fff;stroke-linejoin: round;stroke-width: 3px"/>
  <line x1="319.5" y1="113" x2="319.5" y2="117" style="fill: none;stroke: #fff;stroke-linejoin: round;stroke-width: 3px"/>
  <line x1="319.5" y1="123" x2="319.5" y2="127" style="fill: none;stroke: #fff;stroke-linejoin: round;stroke-width: 3px"/>
  <line x1="319.5" y1="133" x2="319.5" y2="137" style="fill: none;stroke: #fff;stroke-linejoin: round;stroke-width: 3px"/>
  <line x1="8.5" y1="183" x2="8.5" y2="187" style="fill: none;stroke: #fff;stroke-linejoin: round;stroke-width: 3px"/>
  <line x1="8.5" y1="193" x2="8.5" y2="197" style="fill: none;stroke: #fff;stroke-linejoin: round;stroke-width: 3px"/>
  <line x1="283.92" y1="140.76" x2="289.19" y2="135.49" style="fill: none;stroke: #fff;stroke-linejoin: round;stroke-width: 3px"/>
  <line x1="296.07" y1="135.9" x2="280.87" y2="151.1" style="fill: none;stroke: #fff;stroke-linejoin: round;stroke-width: 3px"/>
  <line x1="296.07" y1="160.64" x2="265.53" y2="191.18" style="fill: none;stroke: #fff;stroke-linejoin: round;stroke-width: 3px"/>
  <g>
    <path d="M94.14,179.79a6.61,6.61,0,0,0,8.77-9.6,6.85,6.85,0,0,0-11.32.4l-.15.25A6.14,6.14,0,0,1,83,172.93h0Z" style="fill: none;stroke: #fff;stroke-linejoin: round;stroke-width: 3px"/>
    <path d="M107.28,167.61,104,165.43,104,164a3.79,3.79,0,1,0-4.8,3.66" style="fill: none;stroke: #fff;stroke-linejoin: round;stroke-width: 3px"/>
    <line x1="96.5" y1="181" x2="96.5" y2="186" style="fill: none;stroke: #fff;stroke-linejoin: round;stroke-width: 3px"/>
  </g>
</svg>
