<svg id="bg" xmlns="http://www.w3.org/2000/svg" xmlns:xlink="http://www.w3.org/1999/xlink" viewBox="0 0 340 280">
  <defs>
    <clipPath id="clip-path">
      <rect x="0.43" y="2.5" width="339.57" height="277.5" style="fill: none"/>
    </clipPath>
  </defs>
  <title>3-v2gDenmark</title>
  <g style="clip-path: url(#clip-path)">
    <g>
      <rect id="_Rectangle_" data-name="&lt;Rectangle&gt;" x="283.42" y="165.53" width="40.12" height="29.55" style="fill: none;stroke: #fff;stroke-miterlimit: 10;stroke-width: 3px"/>
      <path id="_Path_" data-name="&lt;Path&gt;" d="M97.83,115.06v-8A17.51,17.51,0,0,0,80.32,89.53h0A17.51,17.51,0,0,0,62.81,107V218.19" style="fill: none;stroke: #fff;stroke-linejoin: round;stroke-width: 3px"/>
      <circle id="_Path_2" data-name="&lt;Path&gt;" cx="97.77" cy="120.14" r="4.25" style="fill: none;stroke: #fff;stroke-linejoin: round;stroke-width: 3px"/>
      <line id="_Path_3" data-name="&lt;Path&gt;" x1="89.6" y1="128.47" x2="84.63" y2="133.44" style="fill: none;stroke: #fff;stroke-linejoin: round;stroke-width: 3px"/>
      <line id="_Path_4" data-name="&lt;Path&gt;" x1="111.03" y1="107.04" x2="106.06" y2="112.01" style="fill: none;stroke: #fff;stroke-linejoin: round;stroke-width: 3px"/>
      <line id="_Path_5" data-name="&lt;Path&gt;" x1="106.06" y1="128.47" x2="111.03" y2="133.44" style="fill: none;stroke: #fff;stroke-linejoin: round;stroke-width: 3px"/>
      <line id="_Path_6" data-name="&lt;Path&gt;" x1="84.63" y1="107.04" x2="89.6" y2="112.01" style="fill: none;stroke: #fff;stroke-linejoin: round;stroke-width: 3px"/>
      <line id="_Path_7" data-name="&lt;Path&gt;" x1="309.02" y1="182.3" x2="315.24" y2="176.08" style="fill: none;stroke: #fff;stroke-linejoin: round;stroke-width: 3px"/>
      <line id="_Path_8" data-name="&lt;Path&gt;" x1="323.38" y1="176.57" x2="305.42" y2="194.53" style="fill: none;stroke: #fff;stroke-linejoin: round;stroke-width: 3px"/>
      <path id="_Path_9" data-name="&lt;Path&gt;" d="M113.9,179.47v-5.59h28.65v16.86H113.9V186.5H111.7a2.68,2.68,0,0,1-2.8-2.71v-4.32a1.26,1.26,0,0,1,1.36-1.36h.58" style="fill: none;stroke: #fff;stroke-linejoin: round;stroke-width: 3px"/>
      <rect id="_Rectangle_2" data-name="&lt;Rectangle&gt;" x="123.94" y="172.54" width="8.07" height="19.27" transform="translate(310.15 54.2) rotate(90)" style="fill: #fff"/>
      <path id="_Path_10" data-name="&lt;Path&gt;" d="M159.72,55.65A15.12,15.12,0,0,1,149,29.82a18.78,18.78,0,0,0-1.94-.1,18.57,18.57,0,1,0,17.36,25.17A15.1,15.1,0,0,1,159.72,55.65Z" style="fill: none;stroke: #fff;stroke-linejoin: round;stroke-width: 3px"/>
      <g id="_Group_" data-name="&lt;Group&gt;">
        <line id="_Path_11" data-name="&lt;Path&gt;" x1="88.67" y1="209.29" x2="89.78" y2="209.29" style="fill: none;stroke: #fff;stroke-linejoin: round;stroke-width: 3px"/>
        <path id="_Path_12" data-name="&lt;Path&gt;" d="M136.82,198.51a10.13,10.13,0,1,0,10.13,10.13l9.47,0V183.86a18.18,18.18,0,0,0-18.18-18.18h-25A15.86,15.86,0,0,0,97.4,181.54h0a9.19,9.19,0,0,1-9.19,9.19H86.74a9,9,0,0,0-9,9v9.51h11" style="fill: none;stroke: #fff;stroke-miterlimit: 10;stroke-width: 3px"/>
        <path id="_Path_13" data-name="&lt;Path&gt;" d="M98.8,198.51a10.13,10.13,0,1,0,10.13,10.13l17.88,0" style="fill: none;stroke: #fff;stroke-miterlimit: 10;stroke-width: 3px"/>
      </g>
      <line id="_Path_14" data-name="&lt;Path&gt;" x1="98.05" y1="218.79" x2="0.43" y2="218.79" style="fill: none;stroke: #fff;stroke-linecap: square;stroke-miterlimit: 10;stroke-width: 3px"/>
      <line id="_Path_15" data-name="&lt;Path&gt;" x1="260.5" y1="198.02" x2="260.5" y2="218.59" style="fill: none;stroke: #fff;stroke-linecap: square;stroke-miterlimit: 10;stroke-width: 3px"/>
      <path id="_Path_16" data-name="&lt;Path&gt;" d="M437.76,218.77H342.19V176.39a17.14,17.14,0,0,1,17.14-17.14h.7a17.14,17.14,0,0,1,17.14,17.14v33.8h15.07l-.1-72.17L327,98.51l-66.42,40.31,0,59.2" style="fill: none;stroke: #fff;stroke-linecap: square;stroke-miterlimit: 10;stroke-width: 3px"/>
      <polyline id="_Path_17" data-name="&lt;Path&gt;" points="174.32 209.07 164.31 199.06 174.32 189.04" style="fill: none;stroke: #fff;stroke-linejoin: round;stroke-width: 3px"/>
      <path id="_Path_18" data-name="&lt;Path&gt;" d="M260.54,218.62l-17,0v-8.41h0v-30a8.45,8.45,0,0,0-8.45-8.45h-3.34a8.45,8.45,0,0,0-8.45,8.45v38.44H135.69" style="fill: none;stroke: #fff;stroke-miterlimit: 10;stroke-width: 3px"/>
      <line id="_Path_19" data-name="&lt;Path&gt;" x1="164.31" y1="199.06" x2="220.06" y2="199.06" style="fill: none;stroke: #fff;stroke-linecap: round;stroke-linejoin: round;stroke-width: 3px;stroke-dasharray: 0.40001362562179565,8.000272750854492"/>
      <line id="_Path_20" data-name="&lt;Path&gt;" x1="229.79" y1="201.87" x2="236.39" y2="201.87" style="fill: none;stroke: #fff;stroke-miterlimit: 10;stroke-width: 3px"/>
      <line id="_Path_21" data-name="&lt;Path&gt;" x1="229.79" y1="210.03" x2="236.39" y2="210.03" style="fill: none;stroke: #fff;stroke-miterlimit: 10;stroke-width: 3px"/>
    </g>
  </g>
</svg>
