<svg xmlns="http://www.w3.org/2000/svg" viewBox="0 0 1920 207.19">
  <title>illustration_v2g</title>
  <g id="background_container">
    <g id="background">
      <g id="bg">
        <g id="bg2" style="opacity: 0.3">
          <g>
            <rect x="304.33" y="126.65" width="132.01" height="77.36" style="fill: none;stroke: #fff;stroke-linejoin: round;stroke-width: 3px"/>
            <g>
              <polyline points="304.33 126.65 370.34 136.84 436.35 126.65" style="fill: none;stroke: #fff;stroke-linejoin: round;stroke-width: 3px"/>
              <line x1="368.92" y1="137.29" x2="368.92" y2="204.29" style="fill: none;stroke: #fff;stroke-linejoin: round;stroke-width: 3px"/>
              <rect x="400.21" y="167.41" width="13.9" height="13.9" style="fill: none;stroke: #fff;stroke-linejoin: round;stroke-width: 3px"/>
            </g>
          </g>
          <g>
            <line x1="0.42" y1="27.79" x2="6.42" y2="27.79" style="fill: none;stroke: #fff;stroke-linecap: round;stroke-linejoin: round;stroke-width: 3px"/>
            <line x1="18.34" y1="27.79" x2="441.56" y2="27.79" style="fill: none;stroke: #fff;stroke-linecap: round;stroke-linejoin: round;stroke-width: 3px;stroke-dasharray: 11.921577453613281,11.921577453613281"/>
            <line x1="447.52" y1="27.79" x2="453.52" y2="27.79" style="fill: none;stroke: #fff;stroke-linecap: round;stroke-linejoin: round;stroke-width: 3px"/>
          </g>
          <g>
            <line x1="685.42" y1="27.79" x2="691.42" y2="27.79" style="fill: none;stroke: #fff;stroke-linecap: round;stroke-linejoin: round;stroke-width: 3px"/>
            <line x1="703.9" y1="27.79" x2="947.18" y2="27.79" style="fill: none;stroke: #fff;stroke-linecap: round;stroke-linejoin: round;stroke-width: 3px;stroke-dasharray: 12.476189613342285,12.476189613342285"/>
            <line x1="953.42" y1="27.79" x2="959.42" y2="27.79" style="fill: none;stroke: #fff;stroke-linecap: round;stroke-linejoin: round;stroke-width: 3px"/>
          </g>
          <g>
            <line x1="960.92" y1="27.79" x2="966.92" y2="27.79" style="fill: none;stroke: #fff;stroke-linecap: round;stroke-linejoin: round;stroke-width: 3px"/>
            <line x1="978.84" y1="27.79" x2="1402.06" y2="27.79" style="fill: none;stroke: #fff;stroke-linecap: round;stroke-linejoin: round;stroke-width: 3px;stroke-dasharray: 11.921577453613281,11.921577453613281"/>
            <line x1="1408.02" y1="27.79" x2="1414.02" y2="27.79" style="fill: none;stroke: #fff;stroke-linecap: round;stroke-linejoin: round;stroke-width: 3px"/>
          </g>
          <path d="M663.71,126.65h17.43a0,0,0,0,1,0,0V204a0,0,0,0,1,0,0H633.71a0,0,0,0,1,0,0V156.65A30,30,0,0,1,663.71,126.65Z" style="fill: none;stroke: #fff;stroke-linejoin: round;stroke-width: 3px"/>
          <path d="M495.78,193.29V204H448.35V126.65h17.43a30,30,0,0,1,30,30v12" style="fill: none;stroke: #fff;stroke-linejoin: round;stroke-width: 3px"/>
          <g>
            <rect x="834.12" y="126.65" width="120.3" height="77.36" style="fill: none;stroke: #fff;stroke-linejoin: round;stroke-width: 3.10498573702899px"/>
            <rect x="846.01" y="136.93" width="41.89" height="56.8" style="fill: none;stroke: #fff;stroke-linejoin: round;stroke-width: 3.10498573702899px"/>
            <rect x="900.47" y="136.93" width="41.89" height="56.8" style="fill: none;stroke: #fff;stroke-linejoin: round;stroke-width: 3.10498573702899px"/>
          </g>
          <g>
            <line x1="499.42" y1="94.79" x2="469.42" y2="94.79" style="fill: none;stroke: #fff;stroke-linejoin: round;stroke-width: 3px"/>
            <line x1="499.42" y1="83.79" x2="469.42" y2="83.79" style="fill: none;stroke: #fff;stroke-linejoin: round;stroke-width: 3px"/>
            <line x1="499.42" y1="72.79" x2="469.42" y2="72.79" style="fill: none;stroke: #fff;stroke-linejoin: round;stroke-width: 3px"/>
            <line x1="499.42" y1="60.79" x2="469.42" y2="60.79" style="fill: none;stroke: #fff;stroke-linejoin: round;stroke-width: 3px"/>
            <line x1="499.42" y1="49.79" x2="469.42" y2="49.79" style="fill: none;stroke: #fff;stroke-linejoin: round;stroke-width: 3px"/>
            <line x1="499.42" y1="38.79" x2="469.42" y2="38.79" style="fill: none;stroke: #fff;stroke-linejoin: round;stroke-width: 3px"/>
            <line x1="499.42" y1="27.79" x2="469.42" y2="27.79" style="fill: none;stroke: #fff;stroke-linejoin: round;stroke-width: 3px"/>
            <line x1="499.42" y1="15.79" x2="469.42" y2="15.79" style="fill: none;stroke: #fff;stroke-linejoin: round;stroke-width: 3px"/>
          </g>
          <g>
            <line x1="669.42" y1="94.79" x2="639.42" y2="94.79" style="fill: none;stroke: #fff;stroke-linejoin: round;stroke-width: 3px"/>
            <line x1="669.42" y1="83.79" x2="639.42" y2="83.79" style="fill: none;stroke: #fff;stroke-linejoin: round;stroke-width: 3px"/>
            <line x1="669.42" y1="72.79" x2="639.42" y2="72.79" style="fill: none;stroke: #fff;stroke-linejoin: round;stroke-width: 3px"/>
            <line x1="669.42" y1="60.79" x2="639.42" y2="60.79" style="fill: none;stroke: #fff;stroke-linejoin: round;stroke-width: 3px"/>
            <line x1="669.42" y1="49.79" x2="639.42" y2="49.79" style="fill: none;stroke: #fff;stroke-linejoin: round;stroke-width: 3px"/>
            <line x1="669.42" y1="38.79" x2="639.42" y2="38.79" style="fill: none;stroke: #fff;stroke-linejoin: round;stroke-width: 3px"/>
            <line x1="669.42" y1="27.79" x2="639.42" y2="27.79" style="fill: none;stroke: #fff;stroke-linejoin: round;stroke-width: 3px"/>
            <line x1="669.42" y1="15.79" x2="639.42" y2="15.79" style="fill: none;stroke: #fff;stroke-linejoin: round;stroke-width: 3px"/>
          </g>
          <path d="M476.73,169.65A8.61,8.61,0,1,1,490.23,165" style="fill: none;stroke: #fff;stroke-linejoin: round;stroke-width: 3px"/>
          <circle cx="488.56" cy="180.22" r="14.35" transform="translate(-11.66 324.97) rotate(-36.39)" style="fill: none;stroke: #fff;stroke-linejoin: round;stroke-width: 3px"/>
          <line x1="617.42" y1="128.95" x2="566.75" y2="128.95" style="fill: none;stroke: #fff;stroke-linejoin: round;stroke-width: 3px"/>
          <line x1="1577.42" y1="128.95" x2="1526.75" y2="128.95" style="fill: none;stroke: #fff;stroke-linejoin: round;stroke-width: 3px"/>
          <g>
            <g>
              <path d="M135.42,126.29v3.5a39,39,0,0,1-28.16,37.62l-14.93,4.21a23.32,23.32,0,0,0-16.91,22.23v10.43H141.7a6.72,6.72,0,0,0,6.72-6.72V133a6.72,6.72,0,0,0-6.72-6.72Z" style="fill: none;stroke: #fff;stroke-linejoin: round;stroke-width: 3px"/>
              <path d="M19.75,126.29H13.14A6.72,6.72,0,0,0,6.42,133v64.56a6.72,6.72,0,0,0,6.72,6.72H59.42V193.85" style="fill: none;stroke: #fff;stroke-linejoin: round;stroke-width: 3px"/>
              <path d="M66.33,171.89a39.68,39.68,0,0,1,21.75-15.66L102.76,152a23.09,23.09,0,0,0,16.66-22.23v-3.5h-81" style="fill: none;stroke: #fff;stroke-linejoin: round;stroke-width: 3px"/>
            </g>
            <circle cx="48.8" cy="142.29" r="8.61" style="fill: none;stroke: #fff;stroke-linejoin: round;stroke-width: 3px"/>
            <path d="M40.94,147.43a14.35,14.35,0,1,1,3.88-13.16" style="fill: none;stroke: #fff;stroke-linejoin: round;stroke-width: 3px"/>
            <circle cx="47.19" cy="178.29" r="18.74" style="fill: none;stroke: #fff;stroke-linejoin: round;stroke-width: 3px"/>
            <line x1="139.4" y1="159.36" x2="133.91" y2="164.84" style="fill: none;stroke: #fff;stroke-linejoin: round;stroke-width: 3px"/>
            <line x1="117.92" y1="174.29" x2="117.92" y2="184.29" style="fill: none;stroke: #fff;stroke-linejoin: round;stroke-width: 3px"/>
            <line x1="89.65" y1="189.29" x2="95.59" y2="195.23" style="fill: none;stroke: #fff;stroke-linejoin: round;stroke-width: 3px"/>
            <line x1="106.42" y1="192.79" x2="114.42" y2="192.79" style="fill: none;stroke: #fff;stroke-linejoin: round;stroke-width: 3px"/>
            <line x1="130.91" y1="186.29" x2="136.98" y2="192.35" style="fill: none;stroke: #fff;stroke-linejoin: round;stroke-width: 3px"/>
          </g>
        </g>
        <g id="bg1" style="opacity: 0.3">
          <g>
            <rect x="1264.33" y="126.65" width="132.01" height="77.36" style="fill: none;stroke: #fff;stroke-linejoin: round;stroke-width: 3px"/>
            <g>
              <polyline points="1264.33 126.65 1330.34 136.84 1396.35 126.65" style="fill: none;stroke: #fff;stroke-linejoin: round;stroke-width: 3px"/>
              <line x1="1328.92" y1="137.29" x2="1328.92" y2="204.29" style="fill: none;stroke: #fff;stroke-linejoin: round;stroke-width: 3px"/>
              <rect x="1360.21" y="167.41" width="13.9" height="13.9" style="fill: none;stroke: #fff;stroke-linejoin: round;stroke-width: 3px"/>
            </g>
          </g>
          <g>
            <line x1="1641.42" y1="27.79" x2="1647.42" y2="27.79" style="fill: none;stroke: #fff;stroke-linecap: round;stroke-linejoin: round;stroke-width: 3px"/>
            <line x1="1659.16" y1="27.79" x2="1911.55" y2="27.79" style="fill: none;stroke: #fff;stroke-linecap: round;stroke-linejoin: round;stroke-width: 3px;stroke-dasharray: 11.739130020141602,11.739130020141602"/>
            <line x1="1917.42" y1="27.79" x2="1923.42" y2="27.79" style="fill: none;stroke: #fff;stroke-linecap: round;stroke-linejoin: round;stroke-width: 3px"/>
          </g>
          <path d="M1623.71,126.65h17.43a0,0,0,0,1,0,0V204a0,0,0,0,1,0,0h-47.43a0,0,0,0,1,0,0V156.65A30,30,0,0,1,1623.71,126.65Z" style="fill: none;stroke: #fff;stroke-linejoin: round;stroke-width: 3px"/>
          <path d="M1455.78,193.29V204h-47.43V126.65h17.43a30,30,0,0,1,30,30v12" style="fill: none;stroke: #fff;stroke-linejoin: round;stroke-width: 3px"/>
          <path d="M1436.73,169.65a8.61,8.61,0,1,1,13.49-4.66" style="fill: none;stroke: #fff;stroke-linejoin: round;stroke-width: 3px"/>
          <circle cx="1448.56" cy="180.22" r="14.35" transform="translate(175.51 894.48) rotate(-36.39)" style="fill: none;stroke: #fff;stroke-linejoin: round;stroke-width: 3px"/>
          <g>
            <rect x="1794.12" y="126.65" width="120.3" height="77.36" style="fill: none;stroke: #fff;stroke-linejoin: round;stroke-width: 3.10498573702899px"/>
            <rect x="1806.01" y="136.93" width="41.89" height="56.8" style="fill: none;stroke: #fff;stroke-linejoin: round;stroke-width: 3.10498573702899px"/>
            <rect x="1860.47" y="136.93" width="41.89" height="56.8" style="fill: none;stroke: #fff;stroke-linejoin: round;stroke-width: 3.10498573702899px"/>
          </g>
          <g>
            <line x1="1459.42" y1="94.79" x2="1429.42" y2="94.79" style="fill: none;stroke: #fff;stroke-linejoin: round;stroke-width: 3px"/>
            <line x1="1459.42" y1="83.79" x2="1429.42" y2="83.79" style="fill: none;stroke: #fff;stroke-linejoin: round;stroke-width: 3px"/>
            <line x1="1459.42" y1="72.79" x2="1429.42" y2="72.79" style="fill: none;stroke: #fff;stroke-linejoin: round;stroke-width: 3px"/>
            <line x1="1459.42" y1="60.79" x2="1429.42" y2="60.79" style="fill: none;stroke: #fff;stroke-linejoin: round;stroke-width: 3px"/>
            <line x1="1459.42" y1="49.79" x2="1429.42" y2="49.79" style="fill: none;stroke: #fff;stroke-linejoin: round;stroke-width: 3px"/>
            <line x1="1459.42" y1="38.79" x2="1429.42" y2="38.79" style="fill: none;stroke: #fff;stroke-linejoin: round;stroke-width: 3px"/>
            <line x1="1459.42" y1="27.79" x2="1429.42" y2="27.79" style="fill: none;stroke: #fff;stroke-linejoin: round;stroke-width: 3px"/>
            <line x1="1459.42" y1="15.79" x2="1429.42" y2="15.79" style="fill: none;stroke: #fff;stroke-linejoin: round;stroke-width: 3px"/>
          </g>
          <g>
            <line x1="1629.42" y1="94.79" x2="1599.42" y2="94.79" style="fill: none;stroke: #fff;stroke-linejoin: round;stroke-width: 3px"/>
            <line x1="1629.42" y1="83.79" x2="1599.42" y2="83.79" style="fill: none;stroke: #fff;stroke-linejoin: round;stroke-width: 3px"/>
            <line x1="1629.42" y1="72.79" x2="1599.42" y2="72.79" style="fill: none;stroke: #fff;stroke-linejoin: round;stroke-width: 3px"/>
            <line x1="1629.42" y1="60.79" x2="1599.42" y2="60.79" style="fill: none;stroke: #fff;stroke-linejoin: round;stroke-width: 3px"/>
            <line x1="1629.42" y1="49.79" x2="1599.42" y2="49.79" style="fill: none;stroke: #fff;stroke-linejoin: round;stroke-width: 3px"/>
            <line x1="1629.42" y1="38.79" x2="1599.42" y2="38.79" style="fill: none;stroke: #fff;stroke-linejoin: round;stroke-width: 3px"/>
            <line x1="1629.42" y1="27.79" x2="1599.42" y2="27.79" style="fill: none;stroke: #fff;stroke-linejoin: round;stroke-width: 3px"/>
            <line x1="1629.42" y1="15.79" x2="1599.42" y2="15.79" style="fill: none;stroke: #fff;stroke-linejoin: round;stroke-width: 3px"/>
          </g>
          <g>
            <g>
              <path d="M1095.42,126.29v3.5a39,39,0,0,1-28.16,37.62l-14.93,4.21a23.32,23.32,0,0,0-16.91,22.23v10.43h66.28a6.72,6.72,0,0,0,6.72-6.72V133a6.72,6.72,0,0,0-6.72-6.72Z" style="fill: none;stroke: #fff;stroke-linejoin: round;stroke-width: 3px"/>
              <path d="M979.75,126.29h-6.61a6.72,6.72,0,0,0-6.72,6.72v64.56a6.72,6.72,0,0,0,6.72,6.72h46.28V193.85" style="fill: none;stroke: #fff;stroke-linejoin: round;stroke-width: 3px"/>
              <path d="M1026.33,171.89a39.68,39.68,0,0,1,21.75-15.66l14.68-4.21a23.09,23.09,0,0,0,16.66-22.23v-3.5h-81" style="fill: none;stroke: #fff;stroke-linejoin: round;stroke-width: 3px"/>
            </g>
            <circle cx="1008.8" cy="142.29" r="8.61" style="fill: none;stroke: #fff;stroke-linejoin: round;stroke-width: 3px"/>
            <path d="M1000.94,147.43a14.35,14.35,0,1,1,3.88-13.16" style="fill: none;stroke: #fff;stroke-linejoin: round;stroke-width: 3px"/>
            <circle cx="1007.19" cy="178.29" r="18.74" style="fill: none;stroke: #fff;stroke-linejoin: round;stroke-width: 3px"/>
            <line x1="1099.4" y1="159.36" x2="1093.91" y2="164.84" style="fill: none;stroke: #fff;stroke-linejoin: round;stroke-width: 3px"/>
            <line x1="1077.92" y1="174.29" x2="1077.92" y2="184.29" style="fill: none;stroke: #fff;stroke-linejoin: round;stroke-width: 3px"/>
            <line x1="1049.65" y1="189.29" x2="1055.59" y2="195.23" style="fill: none;stroke: #fff;stroke-linejoin: round;stroke-width: 3px"/>
            <line x1="1066.42" y1="192.79" x2="1074.42" y2="192.79" style="fill: none;stroke: #fff;stroke-linejoin: round;stroke-width: 3px"/>
            <line x1="1090.91" y1="186.29" x2="1096.98" y2="192.35" style="fill: none;stroke: #fff;stroke-linejoin: round;stroke-width: 3px"/>
          </g>
        </g>
        <g id="office">
          <rect x="693.14" y="126.65" width="128.98" height="77.36" style="fill: none;stroke: #fff;stroke-linejoin: round;stroke-width: 3px"/>
          <rect x="705.41" y="136.93" width="104.43" height="56.8" style="fill: none;stroke: #fff;stroke-linejoin: round;stroke-width: 3px"/>
          <g>
            <ellipse cx="784.96" cy="164.77" rx="3.17" ry="14.16" transform="translate(113.4 603.31) rotate(-45)" style="fill: none;stroke: #fff;stroke-linejoin: round;stroke-width: 2.20027989149094px"/>
            <path d="M795.09,174.66c-2.94,2.94-9.28,1.78-13.76.44a10,10,0,0,1-6.7-6.7c-1.34-4.48-2.5-10.83.44-13.76" style="fill: none;stroke: #fff;stroke-linejoin: round;stroke-width: 2.20027989149094px"/>
            <line x1="784.66" y1="164.41" x2="790.32" y2="158.76" style="fill: none;stroke: #fff;stroke-linejoin: round;stroke-width: 2px"/>
          </g>
          <g>
            <line x1="771.42" y1="182.79" x2="774.42" y2="182.79" style="fill: none;stroke: #fff;stroke-linejoin: round;stroke-width: 3px"/>
            <line x1="761.42" y1="182.79" x2="764.42" y2="182.79" style="fill: none;stroke: #fff;stroke-linejoin: round;stroke-width: 3px"/>
            <line x1="761.42" y1="172.79" x2="764.42" y2="172.79" style="fill: none;stroke: #fff;stroke-linejoin: round;stroke-width: 3px"/>
          </g>
          <path d="M725.31,116.46h11.42a3.77,3.77,0,0,1,3.77,3.77v6.42a0,0,0,0,1,0,0h-19a0,0,0,0,1,0,0v-6.42A3.77,3.77,0,0,1,725.31,116.46Z" style="fill: none;stroke: #fff;stroke-linejoin: round;stroke-width: 3px"/>
        </g>
        <g id="home">
          <rect x="160.33" y="126.65" width="132.01" height="77.36" style="fill: none;stroke: #fff;stroke-linejoin: round;stroke-width: 3px"/>
          <path d="M193.82,116.46h11.42a3.77,3.77,0,0,1,3.77,3.77v6.42a0,0,0,0,1,0,0H190a0,0,0,0,1,0,0v-6.42A3.77,3.77,0,0,1,193.82,116.46Z" style="fill: none;stroke: #fff;stroke-linejoin: round;stroke-width: 3px"/>
          <g>
            <polyline points="160.33 126.65 226.34 136.84 292.35 126.65" style="fill: none;stroke: #fff;stroke-linejoin: round;stroke-width: 3px"/>
            <line x1="224.92" y1="137.29" x2="224.92" y2="204.29" style="fill: none;stroke: #fff;stroke-linejoin: round;stroke-width: 3px"/>
            <rect x="256.21" y="167.41" width="13.9" height="13.9" style="fill: none;stroke: #fff;stroke-linejoin: round;stroke-width: 3px"/>
          </g>
        </g>
        <g id="home-2" data-name="home">
          <rect x="1652.41" y="126.65" width="132.01" height="77.36" style="fill: none;stroke: #fff;stroke-linejoin: round;stroke-width: 3px"/>
          <path d="M1685.9,116.46h11.42a3.77,3.77,0,0,1,3.77,3.77v6.42a0,0,0,0,1,0,0h-19a0,0,0,0,1,0,0v-6.42A3.77,3.77,0,0,1,1685.9,116.46Z" style="fill: none;stroke: #fff;stroke-linejoin: round;stroke-width: 3px"/>
          <g>
            <polyline points="1652.41 126.65 1718.42 136.84 1784.42 126.65" style="fill: none;stroke: #fff;stroke-linejoin: round;stroke-width: 3px"/>
            <line x1="1717" y1="137.29" x2="1717" y2="204.29" style="fill: none;stroke: #fff;stroke-linejoin: round;stroke-width: 3px"/>
            <rect x="1748.29" y="167.41" width="13.9" height="13.9" style="fill: none;stroke: #fff;stroke-linejoin: round;stroke-width: 3px"/>
          </g>
        </g>
        <g id="home-3" data-name="home">
          <rect x="1120.83" y="126.65" width="132.01" height="77.36" style="fill: none;stroke: #fff;stroke-linejoin: round;stroke-width: 3px"/>
          <path d="M1154.32,116.46h11.42a3.77,3.77,0,0,1,3.77,3.77v6.42a0,0,0,0,1,0,0h-19a0,0,0,0,1,0,0v-6.42A3.77,3.77,0,0,1,1154.32,116.46Z" style="fill: none;stroke: #fff;stroke-linejoin: round;stroke-width: 3px"/>
          <g>
            <polyline points="1120.83 126.65 1186.84 136.84 1252.85 126.65" style="fill: none;stroke: #fff;stroke-linejoin: round;stroke-width: 3px"/>
            <line x1="1185.42" y1="137.29" x2="1185.42" y2="204.29" style="fill: none;stroke: #fff;stroke-linejoin: round;stroke-width: 3px"/>
            <rect x="1216.71" y="167.41" width="13.9" height="13.9" style="fill: none;stroke: #fff;stroke-linejoin: round;stroke-width: 3px"/>
          </g>
        </g>
        <g id="cara" style="opacity: 0.3">
          <path d="M589.41,141.4h6.48a13.18,13.18,0,0,1,13.16,12.38l2,33.1a13.18,13.18,0,0,1-13.16,14H587.38a13.18,13.18,0,0,1-13.16-14l2-33.1A13.18,13.18,0,0,1,589.41,141.4Z" style="fill: none;stroke: #fff;stroke-linejoin: round;stroke-width: 3px"/>
          <path d="M575.13,172.91a15.51,15.51,0,0,1,15.49-14.72h4.07a15.51,15.51,0,0,1,15.49,14.72" style="fill: none;stroke: #fff;stroke-linejoin: round;stroke-width: 3px"/>
          <g>
            <g>
              <path d="M610.3,192.56h3.34a3.16,3.16,0,0,0,3.16-3.16v-8.33a3.16,3.16,0,0,0-3.16-3.16H611.3" style="fill: none;stroke: #fff;stroke-linejoin: round;stroke-width: 3px"/>
              <path d="M610,162.43h1.34a3.16,3.16,0,0,0,3.16-3.16v-8.33a3.16,3.16,0,0,0-3.16-3.16H608" style="fill: none;stroke: #fff;stroke-linejoin: round;stroke-width: 3px"/>
            </g>
            <g>
              <path d="M575,192.56h-3.34a3.16,3.16,0,0,1-3.16-3.16v-8.33a3.16,3.16,0,0,1,3.16-3.16H574" style="fill: none;stroke: #fff;stroke-linejoin: round;stroke-width: 3px"/>
              <path d="M575.32,162.43H574a3.16,3.16,0,0,1-3.16-3.16v-8.33a3.16,3.16,0,0,1,3.16-3.16h3.34" style="fill: none;stroke: #fff;stroke-linejoin: round;stroke-width: 3px"/>
            </g>
          </g>
        </g>
        <g id="carb" style="opacity: 0.3">
          <path d="M1549.41,141.4h6.48a13.18,13.18,0,0,1,13.16,12.38l2,33.1a13.18,13.18,0,0,1-13.16,14h-10.54a13.18,13.18,0,0,1-13.16-14l2-33.1A13.18,13.18,0,0,1,1549.41,141.4Z" style="fill: none;stroke: #fff;stroke-linejoin: round;stroke-width: 3px"/>
          <path d="M1535.13,172.91a15.51,15.51,0,0,1,15.49-14.72h4.07a15.51,15.51,0,0,1,15.49,14.72" style="fill: none;stroke: #fff;stroke-linejoin: round;stroke-width: 3px"/>
          <g>
            <g>
              <path d="M1570.3,192.56h3.34a3.16,3.16,0,0,0,3.16-3.16v-8.33a3.16,3.16,0,0,0-3.16-3.16h-2.34" style="fill: none;stroke: #fff;stroke-linejoin: round;stroke-width: 3px"/>
              <path d="M1570,162.43h1.34a3.16,3.16,0,0,0,3.16-3.16v-8.33a3.16,3.16,0,0,0-3.16-3.16H1568" style="fill: none;stroke: #fff;stroke-linejoin: round;stroke-width: 3px"/>
            </g>
            <g>
              <path d="M1535,192.56h-3.34a3.16,3.16,0,0,1-3.16-3.16v-8.33a3.16,3.16,0,0,1,3.16-3.16H1534" style="fill: none;stroke: #fff;stroke-linejoin: round;stroke-width: 3px"/>
              <path d="M1535.32,162.43H1534a3.16,3.16,0,0,1-3.16-3.16v-8.33a3.16,3.16,0,0,1,3.16-3.16h3.34" style="fill: none;stroke: #fff;stroke-linejoin: round;stroke-width: 3px"/>
            </g>
          </g>
        </g>
      </g>
    </g>
  </g>
  <g id="car">
    <g>
      <g id="car_body">
        <path d="M219.75,73v6.48a13.18,13.18,0,0,1-12.38,13.16l-43.1,2a13.18,13.18,0,0,1-14-13.16V71a13.18,13.18,0,0,1,14-13.16l43.1,2A13.18,13.18,0,0,1,219.75,73Z" style="fill: none;stroke: #fff;stroke-linejoin: round;stroke-width: 3px"/>
        <path d="M202.79,59.3a12,12,0,0,1,11.28,12" style="fill: none;stroke: #fff;stroke-linejoin: round;stroke-width: 3px"/>
        <path d="M214.07,81.21a12,12,0,0,1-11.28,12" style="fill: none;stroke: #fff;stroke-linejoin: round;stroke-width: 3px"/>
        <path d="M188.24,58.73A15.51,15.51,0,0,1,203,74.22v4.07a15.51,15.51,0,0,1-14.72,15.49" style="fill: none;stroke: #fff;stroke-miterlimit: 10;stroke-width: 3px"/>
        <g>
          <g>
            <path d="M158.59,93.9v3.34a3.16,3.16,0,0,0,3.16,3.16h8.33a3.16,3.16,0,0,0,3.16-3.16V94.9" style="fill: none;stroke: #fff;stroke-linejoin: round;stroke-width: 3px"/>
            <path d="M198.72,93.58v1.34a3.16,3.16,0,0,0,3.16,3.16h8.33a3.16,3.16,0,0,0,3.16-3.16V91.58" style="fill: none;stroke: #fff;stroke-linejoin: round;stroke-width: 3px"/>
          </g>
          <g>
            <path d="M158.59,58.6V55.26a3.16,3.16,0,0,1,3.16-3.16h8.33a3.16,3.16,0,0,1,3.16,3.16V57.6" style="fill: none;stroke: #fff;stroke-linejoin: round;stroke-width: 3px"/>
            <path d="M198.72,58.92V57.58a3.16,3.16,0,0,1,3.16-3.16h8.33a3.16,3.16,0,0,1,3.16,3.16v3.34" style="fill: none;stroke: #fff;stroke-linejoin: round;stroke-width: 3px"/>
          </g>
        </g>
      </g>
      <path id="cable" d="M149.5,116.29h0a11.5,11.5,0,0,0-11.5-11.5H123.5a10,10,0,0,1-10-10h0a10,10,0,0,1,10-10H150" style="fill: none;stroke: #fff;stroke-linejoin: round;stroke-width: 2px;opacity: 0.30000000000000004"/>
      <path id="cable_electricity_out" d="M149.5,116.29h0a11.5,11.5,0,0,0-11.5-11.5H123.5a10,10,0,0,1-10-10h0a10,10,0,0,1,10-10H150" style="fill: none;stroke: #fff;stroke-linecap: round;stroke-linejoin: round;stroke-width: 4px"/>
      <path id="cable_electricity_in" d="M149.5,116.29h0a11.5,11.5,0,0,0-11.5-11.5H123.5a10,10,0,0,1-10-10h0a10,10,0,0,1,10-10H150" style="fill: none;stroke: #fff;stroke-linecap: round;stroke-linejoin: round;stroke-width: 4px"/>
      <rect id="battery" x="166.69" y="70.76" width="19.05" height="9.46" style="fill: #fff"/>
      <path d="M192.45,78.74a1.06,1.06,0,0,0,1.05-1.05V73.51a1.06,1.06,0,0,0-1.05-1.05h-3.09V68.72a1.06,1.06,0,0,0-1.05-1.05H164.18a1.06,1.06,0,0,0-1.05,1.05V82.38a1.06,1.06,0,0,0,1.05,1.05H188.3a1.06,1.06,0,0,0,1.05-1.05V75.64" style="fill: none;stroke: #fff;stroke-linejoin: round;stroke-width: 3px"/>
    </g>
  </g>
</svg>
