<svg xmlns="http://www.w3.org/2000/svg" xmlns:xlink="http://www.w3.org/1999/xlink" viewBox="0 0 300 144.58">
  <defs>
    <clipPath id="clip-path">
      <rect y="-53" width="300" height="197.58" style="fill: none"/>
    </clipPath>
  </defs>
  <title>illustration_fastcharge</title>
  <g id="Layer_1" data-name="Layer 1">
    <g style="clip-path: url(#clip-path)">
      <g>
        <g style="opacity: 0.30000000000000004">
          <path d="M53.66,80.54a19.88,19.88,0,0,0,3.93-11.89h-9a3.24,3.24,0,0,1-3.24-3.24v-1a3.24,3.24,0,0,1,3.24-3.24H66.24a3.24,3.24,0,0,1,3.24,3.24v1a3.24,3.24,0,0,1-3.24,3.24H60.11" style="fill: none;stroke: #fff;stroke-linejoin: round;stroke-width: 3px"/>
          <path d="M15.93,35.61C12.66,29.12,8.47,24.19,2.59,24.07H2.38c-9.58.19-14.19,12.66-18.12,24.35" style="fill: none;stroke: #fff;stroke-linejoin: round;stroke-width: 3px"/>
          <path d="M26.9,64.16c-3-5.32-5.55-16.37-9.56-25.53h41v8.55a3.93,3.93,0,0,1-3.93,3.93H25.12" style="fill: none;stroke: #fff;stroke-linejoin: round;stroke-width: 3px"/>
          <path d="M103.62,122.54,96.3,104A8.31,8.31,0,0,0,81,103.72L72.13,121a10.84,10.84,0,0,1-9.9,6.42H-57.17a10.84,10.84,0,0,1-9.9-6.42l-8.85-17.31a8.31,8.31,0,0,0-15.32.33l-7.33,18.49" style="fill: none;stroke: #fff;stroke-linejoin: round;stroke-width: 3px"/>
          <path d="M67.12,122.21V85.45a5.64,5.64,0,0,1,5.64-5.64H101a5.64,5.64,0,0,1,5.64,5.64v44.5a5.64,5.64,0,0,1-5.64,5.64h-197a5.64,5.64,0,0,1-5.64-5.64V85.45a5.64,5.64,0,0,1,5.64-5.64h28.26a5.64,5.64,0,0,1,5.64,5.64v36.77" style="fill: none;stroke: #fff;stroke-linejoin: round;stroke-width: 3px"/>
          <path d="M-13,64.12c0-10,14.25-9.24,15.45-9.16,1.21-.08,15.45-.8,15.45,9.16V75.46c0,2-1.31,3.65-2.93,3.65H-10c-1.62,0-2.93-1.63-2.93-3.65V68.54a1.22,1.22,0,0,0-1.22-1.22H-25.5c-7.91,0-15.81,18.75-33.29,18.75h-3.73" style="fill: none;stroke: #fff;stroke-linejoin: round;stroke-width: 3px"/>
          <path d="M21.33,67.32h9.14c7.91,0,15.81,18.75,33.29,18.75H67l-7.4.11c-37.87,0-30.38,25.75-45,25.75H-9.64c-13.58,0-8.07-22.23-37.6-25.38" style="fill: none;stroke: #fff;stroke-linejoin: round;stroke-width: 3px"/>
        </g>
        <g style="opacity: 0.30000000000000004">
          <path d="M215.06,103.19v29.66a3.54,3.54,0,0,0,3.54,3.54h12.54a3.54,3.54,0,0,0,3.54-3.54V123" style="fill: none;stroke: #fff;stroke-linejoin: round;stroke-width: 3px"/>
          <path d="M361.69,49.56a1.71,1.71,0,0,0,1.71-1.71v-7a1.71,1.71,0,0,1,2.2-1.64l12,3.59a4.74,4.74,0,0,1,3.38,4.54h0a4.74,4.74,0,0,1-4.74,4.74h-7.78l-3.21,0-1.49,1.27a3.12,3.12,0,0,0-.71,3.87L367.76,66a29.25,29.25,0,0,1,3.57,14v25.27a10.3,10.3,0,0,1-3,7.28l-7.4,7.4a10.3,10.3,0,0,1-7.28,3H232.76a10.3,10.3,0,0,1-7.28-3l-7.4-7.4a10.3,10.3,0,0,1-3-7.28V80a29.25,29.25,0,0,1,3.57-14l4.77-8.74a3.12,3.12,0,0,0-.71-3.87l-1.49-1.27-3.21,0H210.2a4.74,4.74,0,0,1-4.74-4.74h0a4.74,4.74,0,0,1,3.38-4.54l12-3.59a1.71,1.71,0,0,1,2.2,1.64v7a1.71,1.71,0,0,0,1.71,1.71" style="fill: none;stroke: #fff;stroke-linejoin: round;stroke-width: 3px"/>
          <path d="M231.26,69.75l9.81,5.68A18.71,18.71,0,0,0,251,77.94l42.32-1.25,42.32-1.25a18.71,18.71,0,0,0,9.76-3.09l9.42-6.22" style="fill: none;stroke: #fff;stroke-linejoin: round;stroke-width: 3px"/>
          <path d="M332.27,80.74h0a5.52,5.52,0,0,0,5.52,5.52h18.75a9,9,0,0,0,9-9V75.23a10.27,10.27,0,0,0-3-7.26l-3-3-.64-15.38L345,26a14.11,14.11,0,0,0-12.16-6.95h-79.2A14.11,14.11,0,0,0,241.44,26L227.58,49.56l-.64,15.38-3,3a10.27,10.27,0,0,0-3,7.26v2.06a9,9,0,0,0,9,9h18.75a5.52,5.52,0,0,0,5.52-5.52h0" style="fill: none;stroke: #fff;stroke-linejoin: round;stroke-width: 3px"/>
          <polyline points="332.27 109.52 293.2 109.52 254.13 109.52" style="fill: none;stroke: #fff;stroke-linejoin: round;stroke-width: 3px"/>
          <path d="M346.35,40.22l-7.85-13A6.28,6.28,0,0,0,333,24.08H253.35a6.28,6.28,0,0,0-5.46,3.17L238.9,43a5.26,5.26,0,0,0,4.28,7.86l43.74,2.34a117.37,117.37,0,0,0,12.54,0l43.74-2.34A5.26,5.26,0,0,0,347.49,43" style="fill: none;stroke: #fff;stroke-linejoin: round;stroke-width: 3px"/>
        </g>
      </g>
      <path d="M131.24,126.83h47.52a2.86,2.86,0,0,1,2.86,2.86v6.91a0,0,0,0,1,0,0H128.38a0,0,0,0,1,0,0v-6.91A2.86,2.86,0,0,1,131.24,126.83Z" style="fill: none;stroke: #fff;stroke-linejoin: round;stroke-width: 2.71835635174442px"/>
      <path d="M148.89,50h12.23a9.73,9.73,0,0,1,9.73,9.48l1.75,67.35H137.41l1.75-67.35A9.73,9.73,0,0,1,148.89,50Z" style="fill: none;stroke: #fff;stroke-linejoin: round;stroke-width: 3px"/>
    </g>
    <path d="M171.82,64h5.36a14.76,14.76,0,0,1,14.76,14.76v28.42a7.85,7.85,0,0,0,7.85,7.85h0a7.85,7.85,0,0,0,7.85-7.85V92.94A7.36,7.36,0,0,1,215,85.57h0" style="fill: none;stroke: #fff;stroke-linejoin: round;stroke-width: 1.90909091444815px;opacity: 0.30000000000000004"/>
    <path d="M138.83,64H101.89A15.89,15.89,0,0,0,86,79.87h0" style="fill: none;stroke: #fff;stroke-linejoin: round;stroke-width: 1.90909091444815px;opacity: 0.30000000000000004"/>
  </g>
  <g id="Layer_4" data-name="Layer 4">
    <path id="cable_slow" d="M170.82,64h6.36a14.76,14.76,0,0,1,14.76,14.76v28.42a7.85,7.85,0,0,0,7.85,7.85h0a7.85,7.85,0,0,0,7.85-7.85V92.94A7.36,7.36,0,0,1,215,85.57h0" style="fill: none;stroke: #fff;stroke-linejoin: round;stroke-width: 3px"/>
    <path id="cable_fast" d="M138.83,64H101.89A15.89,15.89,0,0,0,86,79.87h0" style="fill: none;stroke: #fff;stroke-linejoin: round;stroke-width: 3px"/>
  </g>
  <g id="fast">
    <rect x="145.38" y="61.5" width="7.2" height="57.5" style="fill: #fff"/>
  </g>
  <g id="slow">
    <rect x="157.3" y="60.76" width="7.2" height="58.24" style="fill: #fff"/>
  </g>
</svg>
