<?xml version="1.0" encoding="utf-8"?>
<!-- Generator: Adobe Illustrator 16.0.0, SVG Export Plug-In . SVG Version: 6.00 Build 0)  -->
<!DOCTYPE svg PUBLIC "-//W3C//DTD SVG 1.1//EN" "http://www.w3.org/Graphics/SVG/1.1/DTD/svg11.dtd">
<svg version="1.1" id="outline" xmlns="http://www.w3.org/2000/svg" xmlns:xlink="http://www.w3.org/1999/xlink" x="0px" y="0px"
	 viewBox="0 0 1920 384" enable-background="new 0 0 1920 384" xml:space="preserve">
  <title>mexico_city</title>
  <g id="Layer_2" data-name="Layer 2">
    <g id="Layer_1-2" data-name="Layer 1">
      <g>
        <path d="M60.43,116.91c-27.67,0-51-18-58-43.4a11,11,0,0,1,0-5.78l.11-.4,5.06-2.38A2.4,2.4,0,0,0,8,60.84L4.43,58.21a5.18,5.18,0,0,1-2.09-4.38q.1-2.15.34-4.26A60.14,60.14,0,0,1,22,12s10.1-8.15,19.31-8.15c0,0,127.55-1.59,148.45-1.87a15.06,15.06,0,0,1,6,1.16l12,5a4.07,4.07,0,0,0,4.37-.81l4.36-4.16a3.88,3.88,0,0,1,4.23-.3C239.1,13.16,251,32.56,251,55.22a60.27,60.27,0,0,1-60.24,60.29l-3.43.11a4,4,0,0,1-4-3.31L182,104.12a3.16,3.16,0,0,0-5.37-1.71l-7.52,7.64s-6,5.8-11.59,5.8l-65.31-.11a3.18,3.18,0,0,1-3.09-2.47L79.26,71.06a38.79,38.79,0,0,0-2.58-7.5L70.77,50.79a4.21,4.21,0,0,0-3.12-2.38L54.37,46.18c-1.27-.21-3.23,1.06-3.91,2.16L41.94,63.78c-2.37,3.86-.06,8.77,4.44,8.43L62.49,71a2.73,2.73,0,0,1,2.21.87L75.56,83.66a4.11,4.11,0,0,1,1.09,2.85l-.32,23.31L75.46,114l-3.94,1.91A70.61,70.61,0,0,1,60.43,116.91Z" style="fill: none;stroke: #fff;stroke-linecap: round;stroke-linejoin: round;stroke-width: 4px"/>
        <!-- <path d="M8,32.77s7.54-16.19,32.23-19.32H216.56a34.05,34.05,0,0,1,29.51,19.32" style="fill: none;stroke: #fff;stroke-linecap: round;stroke-linejoin: round;stroke-width: 2px"/> -->
      </g>
    </g>
  </g>
</svg>
