<?xml version="1.0" encoding="utf-8"?>
<!-- Generator: Adobe Illustrator 16.0.0, SVG Export Plug-In . SVG Version: 6.00 Build 0)  -->
<!DOCTYPE svg PUBLIC "-//W3C//DTD SVG 1.1//EN" "http://www.w3.org/Graphics/SVG/1.1/DTD/svg11.dtd">
<svg version="1.1" id="outline" xmlns="http://www.w3.org/2000/svg" xmlns:xlink="http://www.w3.org/1999/xlink" x="0px" y="0px"
	 viewBox="0 0 1920 384" enable-background="new 0 0 1920 384" xml:space="preserve">
<g id="out">
	<g>
		<path fill="#00CCAA" d="M291.668,199.863l-36.635,10.584h-39.222c0,0-10.504,2.865-45.2,12.414
			c-34.695,9.549-41.924-15.006-41.924-15.006s-9.642-28.922-12.188-36.881c-2.546-7.957-11.618-23.396-22.918-23.396
			s-17.189,2.845-17.189,2.845L51.406,166.6c0,0,1.114,0-9.867,0c-10.982,0-10.743-12.414-10.743-12.414v-39.631L0,46.756
			c0,0,0,0,0-21.485C0-0.195,28.887,0,28.887,0h150.638c0,0,15.04,24.076,31.453,51.529c16.413,27.454,46.374,25.545,46.374,25.545
			s36.526,0,79.259,0c39.391,0,39.151-27.454,39.151-27.454s0-7.161,0-30.079c0-20.531,19.576-19.339,19.576-19.339
			s227.75,0,255.684,0c27.933,0,56.576,13.132,56.576,13.132l159.793,83.157c0,0-60.002,126.05-71.461,151.833
			s-41.854,29.921-41.854,29.921s-124.302,27.375-166.438,37.083c-42.137,9.709-60.52-22.918-60.52-22.918l-49.416-83.49
			c0,0-12.576-21.434-41.183-21.434c-27.335,0-38.915,24.114-38.915,24.114l-26.142,48.342c0,0-2.745,7.043-8.354,7.043
			c-5.61,0-8.356-6.088-8.356-6.088l-25.842-47.188C316.499,190.074,291.669,199.863,291.668,199.863z"/>
	</g>
</g>
<g id="padiglioni">
	<g>
		<path d="M216.096,184.326v-31.334v-31.333h-3.919h-3.919v17.427v17.43h-5.689h-5.69v13.903v13.906h9.609L216.096,184.326
			L216.096,184.326z"/>
		<path d="M174.437,121.659h19.218v62.667h-19.218V121.659z"/>
		<path d="M219.915,121.658h19.814v21.963h-19.814V121.658z"/>
		<path d="M264.916,121.658h19.815v27.932h-19.815V121.658z"/>
		<path d="M333.551,121.658h19.814v49.179h-19.814V121.658z"/>
		<path d="M480.014,121.659h9.904v29.244h-9.904V121.659z"/>
		<path d="M375.926,190.935v7.354h-6.803v2.354h6.803v7.354h-19.814v-17.065"/>
		<path d="M480.014,18.686h9.904v86.66h-9.904V18.686z"/>
		<path d="M411.737,18.686h9.906v86.66h-9.906V18.686z"/>
		<path d="M449.135,18.686h18.447v37.242h-18.447V18.686z"/>
		<path d="M379.03,121.659h19.812v45.955H379.03V121.659z"/>
		<path d="M293.344,175.782l-16.332,20.683l-46.788-37.525l16.332-20.688L293.344,175.782z"/>
		<path d="M402.187,121.659h65.292v29.244h-65.292V121.659z"/>
		<path d="M388.937,18.686h9.904v86.66h-9.904V18.686z M333.551,84.099h55.386v21.247h-55.386V84.099z"/>
		<path d="M265.791,94.723V84.099h20.81h20.81v10.624v10.623h-20.81h-20.81V94.723L265.791,94.723z"/>
		<path d="M310.751,84.099h9.908v21.247h-9.908V84.099z"/>
		<path d="M207.741,84.099h8.653v21.247h-8.653V84.099z"/>
		<path d="M196.639,58.475h9.907v46.871h-9.907V58.475z"/>
		<path d="M92.67,81.909V58.475h4.954h4.954V81.91v23.436h-4.954H92.67V81.909z"/>
		<path d="M220.312,84.099h41.619v21.247h-41.619V84.099z"/>
		<path d="M92.67,19.322h77.946v30.159H92.67V19.322z"/>
		<path d="M41.702,73.515H66.61v77.942H41.702V73.515z"/>
		<path d="M375.926,190.176v-68.519h-19.814v18.262h9.787v9.434h-9.787v40.823H375.926z"/>
		<path d="M535.666,177.044v-55.385h-19.605v18.071h9.685v9.331h-9.685v27.979L535.666,177.044L535.666,177.044z"/>
		<path d="M516.061,59.588v45.758h19.605V84.994h-9.684v-9.332h9.684V59.588H516.061z"/>
		<path d="M493.143,59.588h19.605v45.758h-19.605V59.588L493.143,59.588z"/>
		<path d="M457.674,105.346h9.805V85.014V64.682h-9.805h-9.805v8.436v8.438h4.844h4.844v4.665v4.665h-4.844h-4.844v7.229v7.231
			H457.674z"/>
		<path d="M193.849,105.346V57.361h-19.607v16.552h9.686v9.332h-9.686v22.101H193.849z"/>
		<path d="M151.399,105.346V57.361h19.218v16.552h-9.493v9.332h9.493v22.101H151.399z"/>
		<path d="M138.448,105.346h-9.609V78.328V51.312h9.609h9.609V64.87v13.562h-4.747h-4.747v4.666v4.665h4.747h4.747v8.794v8.793
			L138.448,105.346L138.448,105.346z"/>
		<path d="M115.351,105.346h-9.609V81.354V57.361h9.609h9.609v8.703v8.702h-4.747h-4.746v4.666v4.666h4.746h4.747v10.624v10.623
			L115.351,105.346L115.351,105.346z"/>
		<path d="M434.832,105.346h9.803V71.325v-34.02h-9.803h-9.802v18.541v18.542h4.842h4.841v4.666v4.666h-4.841h-4.842v10.812v10.813
			L434.832,105.346L434.832,105.346z"/>
		<path d="M493.143,177.044v-55.385h19.605v18.071h-9.684v9.331h9.684v27.979L493.143,177.044L493.143,177.044z"/>
		<path d="M658.494,194.114v-72.455h-19.605v18.071h9.687v9.331h-9.687v45.052L658.494,194.114L658.494,194.114z"/>
		<path d="M615.969,188.265V121.66h19.607v18.071h-9.685v9.331h9.685v39.202L615.969,188.265L615.969,188.265z"/>
		<path d="M706.895,188.265V121.66h19.607v24.567h-9.686v9.331h9.686v32.706L706.895,188.265L706.895,188.265z"/>
		<path d="M729.934,188.265V121.66h19.605v24.567h-9.684v9.331h9.684v32.706L729.934,188.265L729.934,188.265z"/>
		<path d="M752.969,188.265V121.66h19.607v24.567h-9.685v9.331h9.685v32.706L752.969,188.265L752.969,188.265z"/>
		<path d="M775.291,121.659h9.939v66.604h-9.939V121.659z"/>
		<path d="M706.895,105.346V59.588h19.607v23.454h-9.686v9.331h9.686v12.973H706.895z"/>
		<path d="M729.934,68.023h19.605v37.322h-19.605V68.023z"/>
		<path d="M752.969,77.096h19.607v28.25h-19.607V77.096z"/>
		<path d="M775.291,77.096h9.939v28.25h-9.939V77.096z"/>
		<path d="M307.41,170.837V149.59v-27.931h-9.907h-9.907v27.931h9.907v21.247H307.41L307.41,170.837z"/>
		<path d="M310.751,121.658h9.908v49.179h-9.908V121.658z"/>
		<path d="M538.951,121.658h9.908v55.386h-9.908V121.658z"/>
		<path d="M538.951,59.588h9.908v45.758h-9.908V59.588z"/>
		<path d="M557.957,131.207h8.355V178.6h-8.355V131.207z"/>
		<path d="M584.697,131.208h8.354v78.78h-8.354V131.208z"/>
		<path d="M558.594,59.588h8.355v36.768h-8.355V59.588z"/>
		<path d="M584.697,59.588h8.354v36.768h-8.354V59.588z"/>
		<path d="M602.602,121.659h9.312v88.33h-9.312V121.659z"/>
		<path d="M602.602,59.588h9.312v45.758h-9.312V59.588z"/>
		<path d="M251.786,121.659h10.146v18.369h-10.146V121.659z"/>
		<path d="M151.399,145.829v-24.171h9.609h9.609v24.171v24.172h-9.609h-9.609V145.829z"/>
		<path d="M138.15,121.659h9.907v32.706h-9.907V121.659z"/>
		<path d="M128.242,121.658h8.235v12.896h-8.235V121.658z"/>
		<path d="M92.67,128.105v-6.446h4.954h4.954v6.446v6.445h-4.954H92.67V128.105z"/>
		<path d="M115.35,121.658h9.908v12.896h-9.908V121.658z"/>
		<path d="M105.443,128.105v-6.446h3.759h3.759v6.446v6.445h-3.759h-3.759V128.105z"/>
		<path d="M151.399,177.701v-6.625h9.609h9.609v6.625v6.625h-9.609h-9.609V177.701z"/>
		<path d="M538.951,182.894h27.363v27.097h-27.363V182.894z"/>
		<path d="M615.969,190.414h19.607v17.188h-19.607V190.414z"/>
		<path d="M615.969,209.988h19.607v13.966h-19.607V209.988z"/>
		<path d="M638.889,212.259h19.605v11.693h-19.605V212.259z"/>
		<path d="M638.889,196.441h19.605v13.549h-19.605V196.441z"/>
		<path d="M661.568,190.414h19.131v15.277h-19.131V190.414z"/>
		<path d="M661.568,208.677h19.131v10.739h-19.131V208.677z"/>
		<path d="M684.322,208.198h19.131v13.847h-19.131V208.198z"/>
		<path d="M684.322,121.659h9.563v84.271h-9.563V121.659z"/>
		<path d="M706.895,208.198h19.132v13.847h-19.132V208.198z"/>
		<path d="M706.895,190.414h19.132v15.277h-19.132V190.414z"/>
		<path d="M775.291,190.414h9.939v13.368h-9.939V190.414z"/>
		<path d="M775.291,205.932h19.367v9.188h-19.367V205.932z"/>
		<path d="M752.969,216.316h18.771v24.826h-18.771V216.316z"/>
		<path d="M729.934,216.316h18.771v33.479h-18.771V216.316z"/>
		<path d="M771.742,213.331v-22.918h-19.129v2.864h-3.312v-2.864H730.17v22.918h19.131v-8.476h3.312v8.476H771.742z"/>
		<path d="M661.568,221.568h19.131v10.742h-19.131V221.568z"/>
		<path d="M661.568,234.579h19.131v30.438h-19.131V234.579z"/>
		<path d="M615.969,231.596h42.525v39.748h-42.525V231.596z"/>
		<path d="M615.969,225.328h19.607v3.999h-19.607V225.328z"/>
		<path d="M638.889,225.328h19.605v3.999h-19.605V225.328z"/>
		<path d="M684.322,223.955h19.131v8.354h-19.131V223.955z"/>
		<path d="M706.895,223.955h19.369v8.354h-19.369V223.955z"/>
		<path d="M684.322,234.579h41.938v21.247h-41.938V234.579z"/>
		<path id="lui" d="M661.568,121.659h19.131v66.604h-19.131V121.659z"/>
		<path d="M684.322,33.964h9.563v71.382h-9.563V33.964z"/>
		<path d="M661.568,59.588h19.131v45.758h-19.131V59.588z"/>
		<path d="M638.889,59.588h19.131v45.758h-19.131V59.588z"/>
		<path d="M616.207,59.588h19.131v45.758h-19.131V59.588z"/>
		<path d="M594.92,19.686h63.1v37.242h-63.1V19.686z"/>
		<path d="M494.234,37.307v-9.004v-9.002h15.231H524.7h15.231h15.23v9.002v9.003v9.003v9.003h-15.23H524.7h-15.234h-15.231v-9.003
			V37.307L494.234,37.307L494.234,37.307z"/>
		<path d="M516.061,180.029h19.605v29.961h-19.605V180.029z"/>
		<path d="M516.061,211.54h19.605v7.043h-19.605V211.54z"/>
		<path d="M528.117,219.658h7.551v7.043h-7.551V219.658z"/>
		<path d="M528.117,228.491h7.551v13.25h-7.551V228.491z"/>
		<path d="M610.479,279.579v-67.317H538.95v45.717h2.535v17.064h8.235v4.536h19.935v-12.397
			c-9.636-2.664-16.711-11.494-16.711-21.979c0-12.591,10.207-22.8,22.799-22.8s22.799,10.209,22.799,22.8
			c0,10.569-7.188,19.458-16.94,22.041v12.337L610.479,279.579L610.479,279.579z"/>
	</g>
</g>
</svg>
