<?xml version="1.0" encoding="utf-8"?>
<!-- Generator: Adobe Illustrator 16.0.0, SVG Export Plug-In . SVG Version: 6.00 Build 0)  -->
<!DOCTYPE svg PUBLIC "-//W3C//DTD SVG 1.1//EN" "http://www.w3.org/Graphics/SVG/1.1/DTD/svg11.dtd">
<svg version="1.1" id="padiglioni" xmlns="http://www.w3.org/2000/svg" xmlns:xlink="http://www.w3.org/1999/xlink" x="0px" y="0px"
	 width="752.958px" height="260.895px" viewBox="0 0 752.958 260.895" enable-background="new 0 0 752.958 260.895"
	 xml:space="preserve">
<g>
	<path d="M174.394,165.641v-31.334v-31.333h-3.919h-3.919v17.427v17.429h-5.689h-5.69v13.904v13.906h9.609L174.394,165.641
		L174.394,165.641z"/>
	<path d="M132.735,102.974h19.218v62.667h-19.218V102.974z"/>
	<path d="M178.213,102.973h19.814v21.963h-19.814V102.973z"/>
	<path d="M223.214,102.973h19.815v27.932h-19.815V102.973z"/>
	<path d="M291.849,102.973h19.814v49.179h-19.814V102.973z"/>
	<path d="M438.313,102.974h9.904v29.244h-9.904V102.974z"/>
	<path d="M334.224,172.249v7.354h-6.803v2.354h6.803v7.354H314.41v-17.066"/>
	<path d="M438.313,0h9.904v86.66h-9.904V0z"/>
	<path d="M370.035,0h9.907v86.66h-9.907V0z"/>
	<path d="M407.434,0h18.447v37.242h-18.447V0z"/>
	<path d="M337.328,102.974h19.812v45.955h-19.812V102.974z"/>
	<path d="M251.642,157.097L235.31,177.78l-46.788-37.526l16.332-20.687L251.642,157.097z"/>
	<path id="lui" d="M360.485,102.974h65.293v29.244h-65.293V102.974z"/>
	<path d="M347.235,0h9.904v86.66h-9.904V0z M291.849,65.413h55.386V86.66h-55.386V65.413z"/>
	<path d="M224.089,76.037V65.413h20.81h20.81v10.624V86.66h-20.81h-20.81V76.037L224.089,76.037z"/>
	<path d="M269.05,65.413h9.908V86.66h-9.908V65.413z"/>
	<path d="M166.039,65.413h8.653V86.66h-8.653V65.413z"/>
	<path d="M154.937,39.789h9.907V86.66h-9.907V39.789z"/>
	<path d="M50.969,63.224V39.789h4.954h4.954v23.436V86.66h-4.954h-4.954V63.224z"/>
	<path d="M178.611,65.413h41.619V86.66h-41.619V65.413z"/>
	<path d="M50.969,0.637h77.946v30.159H50.969V0.637z"/>
	<path d="M0,54.829h24.908v77.943H0V54.829z"/>
	<path d="M334.224,171.49v-68.518H314.41v18.262h9.787v9.433h-9.787v40.823H334.224z"/>
	<path d="M493.965,158.359v-55.385H474.36v18.071h9.684v9.331h-9.684v27.979L493.965,158.359L493.965,158.359z"/>
	<path d="M474.36,40.903V86.66h19.605V66.309h-9.684v-9.332h9.684V40.903H474.36z"/>
	<path d="M451.442,40.903h19.605V86.66h-19.605V40.903z"/>
	<path d="M415.973,86.66h9.805V66.328V45.996h-9.805h-9.805v8.436v8.438h4.844h4.844v4.665V72.2h-4.844h-4.844v7.229v7.231H415.973z
		"/>
	<path d="M152.147,86.66V38.676H132.54v16.552h9.686v9.332h-9.686V86.66H152.147z"/>
	<path d="M109.697,86.66V38.676h19.218v16.552h-9.493v9.332h9.493V86.66H109.697z"/>
	<path d="M96.746,86.66h-9.609V59.643V32.627h9.609h9.609v13.558v13.561h-4.747h-4.747v4.666v4.665h4.747h4.747v8.794v8.793
		L96.746,86.66L96.746,86.66z"/>
	<path d="M73.649,86.66H64.04V62.668V38.676h9.609h9.609v8.703v8.702h-4.747h-4.746v4.666v4.666h4.746h4.747v10.624V86.66H73.649z"
		/>
	<path d="M393.131,86.66h9.803V52.64V18.62h-9.803h-9.803v18.541v18.542h4.842h4.842v4.666v4.666h-4.842h-4.842v10.812V86.66
		H393.131z"/>
	<path d="M451.442,158.359v-55.385h19.605v18.071h-9.684v9.331h9.684v27.979L451.442,158.359L451.442,158.359z"/>
	<path d="M616.793,175.429v-72.455h-19.605v18.071h9.686v9.331h-9.686v45.053H616.793L616.793,175.429z"/>
	<path d="M574.268,169.579v-66.604h19.607v18.071h-9.684v9.331h9.684v39.202H574.268z"/>
	<path d="M665.194,169.579v-66.604h19.607v24.567h-9.686v9.331h9.686v32.706H665.194L665.194,169.579z"/>
	<path d="M688.233,169.579v-66.604h19.605v24.567h-9.684v9.331h9.684v32.706H688.233L688.233,169.579z"/>
	<path d="M711.268,169.579v-66.604h19.607v24.567h-9.684v9.331h9.684v32.706H711.268L711.268,169.579z"/>
	<path d="M733.59,102.974h9.939v66.604h-9.939V102.974z"/>
	<path d="M665.194,86.66V40.903h19.607v23.454h-9.686v9.331h9.686V86.66H665.194z"/>
	<path d="M688.233,49.338h19.605V86.66h-19.605V49.338z"/>
	<path d="M711.268,58.41h19.607v28.25h-19.607V58.41z"/>
	<path d="M733.59,58.41h9.939v28.25h-9.939V58.41z"/>
	<path d="M265.708,152.152v-21.247v-27.931h-9.907h-9.907v27.931h9.907v21.247H265.708z"/>
	<path d="M269.05,102.973h9.908v49.179h-9.908V102.973z"/>
	<path d="M497.25,102.973h9.908v55.386h-9.908V102.973z"/>
	<path d="M497.25,40.903h9.908V86.66h-9.908V40.903z"/>
	<path d="M516.256,112.522h8.355v47.392h-8.355V112.522z"/>
	<path d="M542.997,112.523h8.355v78.781h-8.355V112.523z"/>
	<path d="M516.893,40.903h8.355V77.67h-8.355V40.903z"/>
	<path d="M542.997,40.903h8.355V77.67h-8.355V40.903z"/>
	<path d="M560.901,102.974h9.311v88.33h-9.311V102.974z"/>
	<path d="M560.901,40.903h9.311V86.66h-9.311V40.903z"/>
	<path d="M210.084,102.974h10.146v18.369h-10.146V102.974z"/>
	<path d="M109.697,127.144v-24.171h9.609h9.609v24.171v24.172h-9.609h-9.609V127.144z"/>
	<path d="M96.448,102.974h9.907v32.706h-9.907V102.974z"/>
	<path d="M86.54,102.973h8.235v12.895H86.54V102.973z"/>
	<path d="M50.969,109.42v-6.446h4.954h4.954v6.446v6.445h-4.954h-4.954V109.42z"/>
	<path d="M73.648,102.973h9.908v12.895h-9.908V102.973z"/>
	<path d="M63.741,109.42v-6.446H67.5h3.759v6.446v6.445H67.5h-3.759V109.42z"/>
	<path d="M109.697,159.016v-6.625h9.609h9.609v6.625v6.625h-9.609h-9.609V159.016z"/>
	<path d="M497.25,164.208h27.363v27.097H497.25V164.208z"/>
	<path d="M574.268,171.729h19.607v17.188h-19.607V171.729z"/>
	<path d="M574.268,191.303h19.607v13.966h-19.607V191.303z"/>
	<path d="M597.188,193.573h19.605v11.694h-19.605V193.573z"/>
	<path d="M597.188,177.756h19.605v13.549h-19.605V177.756z"/>
	<path d="M619.868,171.729h19.131v15.277h-19.131V171.729z"/>
	<path d="M619.868,189.991h19.131v10.74h-19.131V189.991z"/>
	<path d="M642.622,189.513h19.131v13.847h-19.131V189.513z"/>
	<path d="M642.622,102.974h9.564v84.271h-9.564V102.974z"/>
	<path d="M665.194,189.513h19.131v13.847h-19.131V189.513z"/>
	<path d="M665.194,171.729h19.131v15.277h-19.131V171.729z"/>
	<path d="M733.59,171.729h9.939v13.368h-9.939V171.729z"/>
	<path d="M733.59,187.245h19.367v9.188H733.59V187.245z"/>
	<path d="M711.268,197.631h18.771v24.827h-18.771V197.631z"/>
	<path d="M688.233,197.631h18.77v33.479h-18.77V197.631z"/>
	<path d="M730.042,194.646v-22.918h-19.129v2.865H707.6v-2.865h-19.131v22.918H707.6v-8.476h3.312v8.476H730.042z"/>
	<path d="M619.868,202.884h19.131v10.741h-19.131V202.884z"/>
	<path d="M619.868,215.894h19.131v30.438h-19.131V215.894z"/>
	<path d="M574.268,212.909h42.525v39.749h-42.525V212.909z"/>
	<path d="M574.268,206.643h19.607v3.999h-19.607V206.643z"/>
	<path d="M597.188,206.643h19.605v3.999h-19.605V206.643z"/>
	<path d="M642.622,205.27h19.131v8.354h-19.131V205.27z"/>
	<path d="M665.194,205.27h19.369v8.354h-19.369V205.27z"/>
	<path d="M642.622,215.894h41.939v21.247h-41.939V215.894z"/>
	<path d="M619.868,102.974h19.131v66.604h-19.131V102.974z"/>
	<path d="M642.622,15.279h9.564V86.66h-9.564V15.279z"/>
	<path d="M619.868,40.903h19.131V86.66h-19.131V40.903z"/>
	<path d="M597.188,40.903h19.131V86.66h-19.131V40.903z"/>
	<path d="M574.506,40.903h19.131V86.66h-19.131V40.903z"/>
	<path d="M553.219,1h63.1v37.242h-63.1V1z"/>
	<path d="M452.534,18.621V9.617V0.615h15.232H483h15.232h15.232v9.002v9.003v9.003v9.003h-15.232H483h-15.234h-15.232v-9.003V18.621
		L452.534,18.621L452.534,18.621z"/>
	<path d="M474.36,161.344h19.605v29.961H474.36V161.344z"/>
	<path d="M474.36,192.855h19.605v7.043H474.36V192.855z"/>
	<path d="M486.417,200.973h7.551v7.043h-7.551V200.973z"/>
	<path d="M486.417,209.806h7.551v13.25h-7.551V209.806z"/>
	<path d="M568.778,260.894v-67.319h-71.529v45.717h2.535v17.066h8.236v4.536h19.934v-12.399
		c-9.635-2.664-16.711-11.493-16.711-21.979c0-12.591,10.207-22.799,22.799-22.799s22.799,10.208,22.799,22.799
		c0,10.569-7.188,19.458-16.943,22.041v12.337H568.778L568.778,260.894z"/>
</g>
</svg>
