<?xml version="1.0" encoding="utf-8"?>
<!-- Generator: Adobe Illustrator 19.0.0, SVG Export Plug-In . SVG Version: 6.00 Build 0)  -->
<svg version="1.1" id="Livello_1" xmlns="http://www.w3.org/2000/svg" xmlns:xlink="http://www.w3.org/1999/xlink" x="0px" y="0px"
	 viewBox="-63.3 356.8 434.2 234.3" enable-background="new -63.3 356.8 434.2 234.3" xml:space="preserve">
<title>illustration_battery</title>
<g id="car_front">
	<g opacity="0.3">
		<path fill="none" stroke="#FFFFFF" stroke-width="4" stroke-linejoin="round" d="M259.4,475.4c5.3-7.1,8.1-15.7,8.1-24.5h-18.6
			c-3.7,0-6.7-3-6.7-6.7c0,0,0,0,0,0l0,0v-2.1c0-3.7,3-6.7,6.7-6.7l0,0h36.5c3.7,0,6.7,3,6.7,6.7c0,0,0,0,0,0l0,0v2.1
			c0,3.7-3,6.7-6.7,6.7l0,0h-12.7"/>
		<path fill="none" stroke="#FFFFFF" stroke-width="4" stroke-linejoin="round" d="M48,475.4c-5.3-7.1-8.2-15.7-8.2-24.5h18.6
			c3.7,0,6.7-3,6.7-6.7l0,0v-2.1c0-3.7-3-6.7-6.7-6.7H22c-3.7,0-6.7,3-6.7,6.7l0,0v2.1c0,3.7,3,6.7,6.7,6.7h12.7"/>
		<path fill="none" stroke="#FFFFFF" stroke-width="4" stroke-linejoin="round" d="M181.4,382.6c-6.8-13.4-15.4-23.6-27.6-23.8h-0.4
			c-19.8,0.4-29.3,26.2-37.4,50.3"/>
		<path fill="none" stroke="#FFFFFF" stroke-width="4" stroke-linejoin="round" d="M204.1,441.6c-6.1-11-11.5-33.8-19.7-52.8h84.7
			v17.7c0,4.5-3.6,8.1-8.1,8.1h-60.5"/>
		<path fill="none" stroke="#FFFFFF" stroke-width="4" stroke-linejoin="round" d="M115.7,388.9H38.3v17.7c0,4.5,3.6,8.1,8.1,8.1
			h67.1c-3.6,10.9-6.8,20.8-10.3,27"/>
		<path fill="none" stroke="#FFFFFF" stroke-width="4" stroke-linejoin="round" d="M362.6,562.2L347.5,524
			c-5.6-14.1-25.5-14.6-31.6-0.7l-18.3,35.8c-3.6,8.1-11.6,13.3-20.5,13.3H30.4c-8.8,0-16.8-5.2-20.4-13.3l-18.3-35.8
			c-6.2-13.9-26-13.5-31.7,0.7l-15.1,38.2"/>
		<path fill="none" stroke="#FFFFFF" stroke-width="4" stroke-linejoin="round" d="M287.2,561.5v-76c0-6.4,5.2-11.6,11.6-11.6h58.4
			c6.4,0,11.6,5.2,11.6,11.6v0l0,0v91.9c0,6.4-5.2,11.6-11.6,11.6h0H-49.7c-6.4,0-11.6-5.2-11.6-11.6l0,0l0,0v-91.9
			c0-6.4,5.2-11.7,11.6-11.7c0,0,0,0,0,0H8.7c6.4,0,11.6,5.2,11.6,11.6l0,0l0,0v76"/>
		<path fill="none" stroke="#FFFFFF" stroke-width="4" stroke-linejoin="round" d="M121.7,441.5c0-20.6,29.4-19.1,31.9-18.9
			c2.5-0.2,31.9-1.7,31.9,18.9v23.4c0,4.2-2.7,7.5-6,7.5h-51.8c-3.3,0-6-3.4-6-7.5v-14.3c0-1.4-1.1-2.5-2.5-2.5c0,0,0,0,0,0H95.9
			c-16.3,0-32.7,38.8-68.8,38.8h-7.7"/>
		<path fill="none" stroke="#FFFFFF" stroke-width="4" stroke-linejoin="round" d="M192.6,448.1h18.9c16.3,0,32.7,38.7,68.8,38.7
			h6.8l-15.3,0.2c-78.2,0-62.8,53.2-92.9,53.2h-50.1c-28,0-16.7-45.9-77.7-52.4"/>
	</g>
</g>
<g id="battery_body">
	<polyline id="battery_body-2" fill="none" stroke="#FFFFFF" stroke-width="4" stroke-linejoin="round" points="222.1,488.4 
		222.1,572.1 84,572.1 84,499.3 	"/>
	
		<line id="minus" fill="none" stroke="#FFFFFF" stroke-width="4" stroke-linejoin="round" x1="102" y1="546.1" x2="115.7" y2="546.1"/>
	<g id="plus">
		<line fill="none" stroke="#FFFFFF" stroke-width="4" stroke-linejoin="round" x1="102" y1="519.5" x2="115.7" y2="519.5"/>
		<line fill="none" stroke="#FFFFFF" stroke-width="4" stroke-linejoin="round" x1="108.8" y1="512.7" x2="108.8" y2="526.4"/>
	</g>
</g>
<g id="battery_cover">
	<g>
		<polyline fill="none" stroke="#FFFFFF" stroke-width="4" stroke-linejoin="round" points="228.9,479.5 228.9,472.1 78.5,472.1 
			78.5,488.4 222.1,488.4 222.1,519.8 		"/>
		<line fill="none" stroke="#FFFFFF" stroke-width="4" stroke-linejoin="round" x1="84" y1="499.6" x2="84" y2="519.8"/>
	</g>
</g>
<g id="rotating_points">
	<g>
		<circle fill="#FFFFFF" cx="196.1" cy="518.8" r="2.4"/>
		<circle fill="#FFFFFF" cx="185.5" cy="524.9" r="2.4"/>
		<circle fill="#FFFFFF" cx="185.5" cy="512.7" r="2.4"/>
	</g>
	<circle fill="none" cx="189.1" cy="518.8" r="9.5"/>
</g>
<g id="phones">
	<g id="phone_charging">
		<rect x="133.2" y="500.9" fill="none" stroke="#FFFFFF" stroke-width="4" stroke-linejoin="round" width="40.5" height="71.1"/>
		<line fill="none" stroke="#FFFFFF" stroke-width="4" stroke-linejoin="round" x1="173.7" y1="557" x2="133.2" y2="557"/>
		<line fill="none" stroke="#FFFFFF" stroke-width="4" stroke-linejoin="round" x1="150.7" y1="564.9" x2="155.9" y2="564.9"/>
		<line fill="none" stroke="#FFFFFF" stroke-width="4" stroke-linejoin="round" x1="133.2" y1="511.3" x2="173.7" y2="511.3"/>
	</g>
	<g id="phone_charging_battery">
		
			<line id="phone_battery_line3" opacity="0.3" fill="none" stroke="#FFFFFF" stroke-width="4" stroke-linejoin="round" enable-background="new    " x1="146.4" y1="542.9" x2="161" y2="542.9"/>
		
			<line id="phone_battery_line2" fill="none" stroke="#FFFFFF" stroke-width="4" stroke-linejoin="round" stroke-opacity="0" x1="146.4" y1="534.9" x2="161" y2="534.9"/>
		
			<line id="phone_battery_line1" fill="none" stroke="#FFFFFF" stroke-width="4" stroke-linejoin="round" stroke-opacity="0" x1="146.4" y1="526.9" x2="161" y2="526.9"/>
		
			<line id="phone_battery_line0" fill="none" stroke="#FFFFFF" stroke-width="4" stroke-linejoin="round" stroke-opacity="0" x1="151.4" y1="525.2" x2="156" y2="525.2"/>
	</g>
	<g id="phone_empty">
		<rect x="253.2" y="500.9" fill="none" stroke="#FFFFFF" stroke-width="4" stroke-linejoin="round" width="40.5" height="71.1"/>
		<line fill="none" stroke="#FFFFFF" stroke-width="4" stroke-linejoin="round" x1="293.7" y1="557" x2="253.2" y2="557"/>
		<line fill="none" stroke="#FFFFFF" stroke-width="4" stroke-linejoin="round" x1="270.7" y1="564.9" x2="275.9" y2="564.9"/>
		<line fill="none" stroke="#FFFFFF" stroke-width="4" stroke-linejoin="round" x1="253.2" y1="511.3" x2="293.7" y2="511.3"/>
		<g opacity="0.3">
			<line fill="none" stroke="#FFFFFF" stroke-width="4" stroke-linejoin="round" x1="266.4" y1="542.9" x2="281" y2="542.9"/>
		</g>
	</g>
	<g id="phone_full">
		<rect x="13.2" y="500.9" fill="none" stroke="#FFFFFF" stroke-width="4" stroke-linejoin="round" width="40.5" height="71.1"/>
		<line fill="none" stroke="#FFFFFF" stroke-width="4" stroke-linejoin="round" x1="53.7" y1="557" x2="13.2" y2="557"/>
		<line fill="none" stroke="#FFFFFF" stroke-width="4" stroke-linejoin="round" x1="30.7" y1="564.9" x2="35.9" y2="564.9"/>
		<line fill="none" stroke="#FFFFFF" stroke-width="4" stroke-linejoin="round" x1="13.2" y1="511.3" x2="53.7" y2="511.3"/>
		<g>
			<line fill="none" stroke="#FFFFFF" stroke-width="4" stroke-linejoin="round" x1="26.4" y1="542.9" x2="41" y2="542.9"/>
			<line fill="none" stroke="#FFFFFF" stroke-width="4" stroke-linejoin="round" x1="26.4" y1="534.9" x2="41" y2="534.9"/>
			<line fill="none" stroke="#FFFFFF" stroke-width="4" stroke-linejoin="round" x1="26.4" y1="526.9" x2="41" y2="526.9"/>
		</g>
		<line fill="none" stroke="#FFFFFF" stroke-width="4" stroke-linejoin="round" x1="31.4" y1="525.2" x2="36" y2="525.2"/>
	</g>
</g>
</svg>
