<svg id="Layer_8" data-name="Layer 8" xmlns="http://www.w3.org/2000/svg" viewBox="0 0 1184.72 75.12">
  <title>illustration_battery_power</title>
  <g id="phone_center">
    <g>
      <rect x="722.21" y="2" width="40.52" height="71.12" style="fill: none;stroke: #fff;stroke-linejoin: round;stroke-width: 4px"/>
      <line x1="762.72" y1="58.13" x2="722.21" y2="58.13" style="fill: none;stroke: #fff;stroke-linejoin: round;stroke-width: 4px"/>
      <line x1="739.73" y1="66.02" x2="744.89" y2="66.02" style="fill: none;stroke: #fff;stroke-linejoin: round;stroke-width: 4px"/>
      <line x1="722.21" y1="12.42" x2="762.72" y2="12.42" style="fill: none;stroke: #fff;stroke-linejoin: round;stroke-width: 4px"/>
    </g>
    <g id="phone_battery">
      <line id="phone_battery_line3" x1="735.43" y1="44.04" x2="749.97" y2="44.04" style="fill: none;stroke: #fff;stroke-linejoin: round;stroke-width: 4px; opacity:.3"/>
      <line id="phone_battery_line2" x1="735.43" y1="36.04" x2="749.97" y2="36.04" style="fill: none;stroke: #fff;stroke-linejoin: round;stroke-width: 4px; opacity:0"/>
      <line id="phone_battery_line1" x1="735.43" y1="28.04" x2="749.97" y2="28.04" style="fill: none;stroke: #fff;stroke-linejoin: round;stroke-width: 4px; opacity:0"/>
      <line id="phone_battery_line0" x1="740.43" y1="26.3" x2="744.97" y2="26.3" style="fill: none;stroke: #fff;stroke-linejoin: round;stroke-width: 4px;opacity:0"/>
    </g>
  </g>
  <g id="phone_right">
    <g id="phone_right_first">
      <rect x="842.21" y="2" width="40.52" height="71.12" style="fill: none;stroke: #fff;stroke-linejoin: round;stroke-width: 4px"/>
      <line x1="882.72" y1="58.13" x2="842.21" y2="58.13" style="fill: none;stroke: #fff;stroke-linejoin: round;stroke-width: 4px"/>
      <line x1="859.73" y1="66.02" x2="864.89" y2="66.02" style="fill: none;stroke: #fff;stroke-linejoin: round;stroke-width: 4px"/>
      <line x1="842.21" y1="12.42" x2="882.72" y2="12.42" style="fill: none;stroke: #fff;stroke-linejoin: round;stroke-width: 4px"/>
      <g style="opacity: 0.3">
        <line x1="855.43" y1="44.04" x2="869.97" y2="44.04" style="fill: none;stroke: #fff;stroke-linejoin: round;stroke-width: 4px"/>
      </g>
    </g>
    <g>
      <rect x="902.21" y="2" width="40.52" height="71.12" style="fill: none;stroke: #fff;stroke-linejoin: round;stroke-width: 4px"/>
      <line x1="942.72" y1="58.13" x2="902.21" y2="58.13" style="fill: none;stroke: #fff;stroke-linejoin: round;stroke-width: 4px"/>
      <line x1="919.73" y1="66.02" x2="924.89" y2="66.02" style="fill: none;stroke: #fff;stroke-linejoin: round;stroke-width: 4px"/>
      <line x1="902.21" y1="12.42" x2="942.72" y2="12.42" style="fill: none;stroke: #fff;stroke-linejoin: round;stroke-width: 4px"/>
      <g style="opacity: 0.3">
        <line x1="915.43" y1="44.04" x2="929.97" y2="44.04" style="fill: none;stroke: #fff;stroke-linejoin: round;stroke-width: 4px"/>
      </g>
    </g>
    <g>
      <rect x="962.21" y="2" width="40.52" height="71.12" style="fill: none;stroke: #fff;stroke-linejoin: round;stroke-width: 4px"/>
      <line x1="1002.72" y1="58.13" x2="962.21" y2="58.13" style="fill: none;stroke: #fff;stroke-linejoin: round;stroke-width: 4px"/>
      <line x1="979.73" y1="66.02" x2="984.89" y2="66.02" style="fill: none;stroke: #fff;stroke-linejoin: round;stroke-width: 4px"/>
      <line x1="962.21" y1="12.42" x2="1002.72" y2="12.42" style="fill: none;stroke: #fff;stroke-linejoin: round;stroke-width: 4px"/>
      <g style="opacity: 0.3">
        <line x1="975.43" y1="44.04" x2="989.97" y2="44.04" style="fill: none;stroke: #fff;stroke-linejoin: round;stroke-width: 4px"/>
      </g>
    </g>
    <g>
      <rect x="1022.21" y="2" width="40.52" height="71.12" style="fill: none;stroke: #fff;stroke-linejoin: round;stroke-width: 4px"/>
      <line x1="1062.72" y1="58.13" x2="1022.21" y2="58.13" style="fill: none;stroke: #fff;stroke-linejoin: round;stroke-width: 4px"/>
      <line x1="1039.73" y1="66.02" x2="1044.89" y2="66.02" style="fill: none;stroke: #fff;stroke-linejoin: round;stroke-width: 4px"/>
      <line x1="1022.21" y1="12.42" x2="1062.72" y2="12.42" style="fill: none;stroke: #fff;stroke-linejoin: round;stroke-width: 4px"/>
      <g style="opacity: 0.3">
        <line x1="1035.43" y1="44.04" x2="1049.97" y2="44.04" style="fill: none;stroke: #fff;stroke-linejoin: round;stroke-width: 4px"/>
      </g>
    </g>
    <g>
      <rect x="1082.21" y="2" width="40.52" height="71.12" style="fill: none;stroke: #fff;stroke-linejoin: round;stroke-width: 4px"/>
      <line x1="1122.72" y1="58.13" x2="1082.21" y2="58.13" style="fill: none;stroke: #fff;stroke-linejoin: round;stroke-width: 4px"/>
      <line x1="1099.73" y1="66.02" x2="1104.89" y2="66.02" style="fill: none;stroke: #fff;stroke-linejoin: round;stroke-width: 4px"/>
      <line x1="1082.21" y1="12.42" x2="1122.72" y2="12.42" style="fill: none;stroke: #fff;stroke-linejoin: round;stroke-width: 4px"/>
      <g style="opacity: 0.3">
        <line x1="1095.43" y1="44.04" x2="1109.97" y2="44.04" style="fill: none;stroke: #fff;stroke-linejoin: round;stroke-width: 4px"/>
      </g>
    </g>
    <g>
      <rect x="1142.21" y="2" width="40.52" height="71.12" style="fill: none;stroke: #fff;stroke-linejoin: round;stroke-width: 4px"/>
      <line x1="1182.72" y1="58.13" x2="1142.21" y2="58.13" style="fill: none;stroke: #fff;stroke-linejoin: round;stroke-width: 4px"/>
      <line x1="1159.73" y1="66.02" x2="1164.89" y2="66.02" style="fill: none;stroke: #fff;stroke-linejoin: round;stroke-width: 4px"/>
      <line x1="1142.21" y1="12.42" x2="1182.72" y2="12.42" style="fill: none;stroke: #fff;stroke-linejoin: round;stroke-width: 4px"/>
      <g style="opacity: 0.3">
        <line x1="1155.43" y1="44.04" x2="1169.97" y2="44.04" style="fill: none;stroke: #fff;stroke-linejoin: round;stroke-width: 4px"/>
      </g>
    </g>
    <g transform="matrix(1,0,0,1,60,0)">
      <rect x="1142.21" y="2" width="40.52" height="71.12" style="fill: none;stroke: #fff;stroke-linejoin: round;stroke-width: 4px"/>
      <line x1="1182.72" y1="58.13" x2="1142.21" y2="58.13" style="fill: none;stroke: #fff;stroke-linejoin: round;stroke-width: 4px"/>
      <line x1="1159.73" y1="66.02" x2="1164.89" y2="66.02" style="fill: none;stroke: #fff;stroke-linejoin: round;stroke-width: 4px"/>
      <line x1="1142.21" y1="12.42" x2="1182.72" y2="12.42" style="fill: none;stroke: #fff;stroke-linejoin: round;stroke-width: 4px"/>
      <g style="opacity: 0.3">
        <line x1="1155.43" y1="44.04" x2="1169.97" y2="44.04" style="fill: none;stroke: #fff;stroke-linejoin: round;stroke-width: 4px"/>
      </g>
    </g>
  </g>
  <g id="phone_left">
    <g>
      <rect x="602.21" y="2" width="40.52" height="71.12" style="fill: none;stroke: #fff;stroke-linejoin: round;stroke-width: 4px"/>
      <line x1="642.72" y1="58.13" x2="602.21" y2="58.13" style="fill: none;stroke: #fff;stroke-linejoin: round;stroke-width: 4px"/>
      <line x1="619.73" y1="66.02" x2="624.89" y2="66.02" style="fill: none;stroke: #fff;stroke-linejoin: round;stroke-width: 4px"/>
      <line x1="602.21" y1="12.42" x2="642.72" y2="12.42" style="fill: none;stroke: #fff;stroke-linejoin: round;stroke-width: 4px"/>
      <g>
        <line x1="615.43" y1="44.04" x2="629.97" y2="44.04" style="fill: none;stroke: #fff;stroke-linejoin: round;stroke-width: 4px"/>
        <line x1="615.43" y1="36.04" x2="629.97" y2="36.04" style="fill: none;stroke: #fff;stroke-linejoin: round;stroke-width: 4px"/>
        <line x1="615.43" y1="28.04" x2="629.97" y2="28.04" style="fill: none;stroke: #fff;stroke-linejoin: round;stroke-width: 4px"/>
      </g>
      <line x1="620.43" y1="26.3" x2="624.97" y2="26.3" style="fill: none;stroke: #fff;stroke-linejoin: round;stroke-width: 4px"/>
    </g>
    <g>
      <rect x="482.21" y="2" width="40.52" height="71.12" style="fill: none;stroke: #fff;stroke-linejoin: round;stroke-width: 4px"/>
      <line x1="522.72" y1="58.13" x2="482.21" y2="58.13" style="fill: none;stroke: #fff;stroke-linejoin: round;stroke-width: 4px"/>
      <line x1="499.73" y1="66.02" x2="504.89" y2="66.02" style="fill: none;stroke: #fff;stroke-linejoin: round;stroke-width: 4px"/>
      <line x1="482.21" y1="12.42" x2="522.72" y2="12.42" style="fill: none;stroke: #fff;stroke-linejoin: round;stroke-width: 4px"/>
      <g>
        <line x1="495.43" y1="44.04" x2="509.97" y2="44.04" style="fill: none;stroke: #fff;stroke-linejoin: round;stroke-width: 4px"/>
        <line x1="495.43" y1="36.04" x2="509.97" y2="36.04" style="fill: none;stroke: #fff;stroke-linejoin: round;stroke-width: 4px"/>
        <line x1="495.43" y1="28.04" x2="509.97" y2="28.04" style="fill: none;stroke: #fff;stroke-linejoin: round;stroke-width: 4px"/>
      </g>
      <line x1="500.43" y1="26.3" x2="504.97" y2="26.3" style="fill: none;stroke: #fff;stroke-linejoin: round;stroke-width: 4px"/>
    </g>
    <g>
      <rect x="542.21" y="2" width="40.52" height="71.12" style="fill: none;stroke: #fff;stroke-linejoin: round;stroke-width: 4px"/>
      <line x1="582.72" y1="58.13" x2="542.21" y2="58.13" style="fill: none;stroke: #fff;stroke-linejoin: round;stroke-width: 4px"/>
      <line x1="559.73" y1="66.02" x2="564.89" y2="66.02" style="fill: none;stroke: #fff;stroke-linejoin: round;stroke-width: 4px"/>
      <line x1="542.21" y1="12.42" x2="582.72" y2="12.42" style="fill: none;stroke: #fff;stroke-linejoin: round;stroke-width: 4px"/>
      <g>
        <line x1="555.43" y1="44.04" x2="569.97" y2="44.04" style="fill: none;stroke: #fff;stroke-linejoin: round;stroke-width: 4px"/>
        <line x1="555.43" y1="36.04" x2="569.97" y2="36.04" style="fill: none;stroke: #fff;stroke-linejoin: round;stroke-width: 4px"/>
        <line x1="555.43" y1="28.04" x2="569.97" y2="28.04" style="fill: none;stroke: #fff;stroke-linejoin: round;stroke-width: 4px"/>
      </g>
      <line x1="560.43" y1="26.3" x2="564.97" y2="26.3" style="fill: none;stroke: #fff;stroke-linejoin: round;stroke-width: 4px"/>
    </g>
    <g>
      <rect x="422.21" y="2" width="40.52" height="71.12" style="fill: none;stroke: #fff;stroke-linejoin: round;stroke-width: 4px"/>
      <line x1="462.72" y1="58.13" x2="422.21" y2="58.13" style="fill: none;stroke: #fff;stroke-linejoin: round;stroke-width: 4px"/>
      <line x1="439.73" y1="66.02" x2="444.89" y2="66.02" style="fill: none;stroke: #fff;stroke-linejoin: round;stroke-width: 4px"/>
      <line x1="422.21" y1="12.42" x2="462.72" y2="12.42" style="fill: none;stroke: #fff;stroke-linejoin: round;stroke-width: 4px"/>
      <g>
        <line x1="435.43" y1="44.04" x2="449.97" y2="44.04" style="fill: none;stroke: #fff;stroke-linejoin: round;stroke-width: 4px"/>
        <line x1="435.43" y1="36.04" x2="449.97" y2="36.04" style="fill: none;stroke: #fff;stroke-linejoin: round;stroke-width: 4px"/>
        <line x1="435.43" y1="28.04" x2="449.97" y2="28.04" style="fill: none;stroke: #fff;stroke-linejoin: round;stroke-width: 4px"/>
      </g>
      <line x1="440.43" y1="26.3" x2="444.97" y2="26.3" style="fill: none;stroke: #fff;stroke-linejoin: round;stroke-width: 4px"/>
    </g>
    <g>
      <rect x="362.21" y="2" width="40.52" height="71.12" style="fill: none;stroke: #fff;stroke-linejoin: round;stroke-width: 4px"/>
      <line x1="402.72" y1="58.13" x2="362.21" y2="58.13" style="fill: none;stroke: #fff;stroke-linejoin: round;stroke-width: 4px"/>
      <line x1="379.73" y1="66.02" x2="384.89" y2="66.02" style="fill: none;stroke: #fff;stroke-linejoin: round;stroke-width: 4px"/>
      <line x1="362.21" y1="12.42" x2="402.72" y2="12.42" style="fill: none;stroke: #fff;stroke-linejoin: round;stroke-width: 4px"/>
      <g>
        <line x1="375.43" y1="44.04" x2="389.97" y2="44.04" style="fill: none;stroke: #fff;stroke-linejoin: round;stroke-width: 4px"/>
        <line x1="375.43" y1="36.04" x2="389.97" y2="36.04" style="fill: none;stroke: #fff;stroke-linejoin: round;stroke-width: 4px"/>
        <line x1="375.43" y1="28.04" x2="389.97" y2="28.04" style="fill: none;stroke: #fff;stroke-linejoin: round;stroke-width: 4px"/>
      </g>
      <line x1="380.43" y1="26.3" x2="384.97" y2="26.3" style="fill: none;stroke: #fff;stroke-linejoin: round;stroke-width: 4px"/>
    </g>
    <g>
      <rect x="242.21" y="2" width="40.52" height="71.12" style="fill: none;stroke: #fff;stroke-linejoin: round;stroke-width: 4px"/>
      <line x1="282.72" y1="58.13" x2="242.21" y2="58.13" style="fill: none;stroke: #fff;stroke-linejoin: round;stroke-width: 4px"/>
      <line x1="259.73" y1="66.02" x2="264.89" y2="66.02" style="fill: none;stroke: #fff;stroke-linejoin: round;stroke-width: 4px"/>
      <line x1="242.21" y1="12.42" x2="282.72" y2="12.42" style="fill: none;stroke: #fff;stroke-linejoin: round;stroke-width: 4px"/>
      <g>
        <line x1="255.43" y1="44.04" x2="269.97" y2="44.04" style="fill: none;stroke: #fff;stroke-linejoin: round;stroke-width: 4px"/>
        <line x1="255.43" y1="36.04" x2="269.97" y2="36.04" style="fill: none;stroke: #fff;stroke-linejoin: round;stroke-width: 4px"/>
        <line x1="255.43" y1="28.04" x2="269.97" y2="28.04" style="fill: none;stroke: #fff;stroke-linejoin: round;stroke-width: 4px"/>
      </g>
      <line x1="260.43" y1="26.3" x2="264.97" y2="26.3" style="fill: none;stroke: #fff;stroke-linejoin: round;stroke-width: 4px"/>
    </g>
    <g>
      <rect x="302.21" y="2" width="40.52" height="71.12" style="fill: none;stroke: #fff;stroke-linejoin: round;stroke-width: 4px"/>
      <line x1="342.72" y1="58.13" x2="302.21" y2="58.13" style="fill: none;stroke: #fff;stroke-linejoin: round;stroke-width: 4px"/>
      <line x1="319.73" y1="66.02" x2="324.89" y2="66.02" style="fill: none;stroke: #fff;stroke-linejoin: round;stroke-width: 4px"/>
      <line x1="302.21" y1="12.42" x2="342.72" y2="12.42" style="fill: none;stroke: #fff;stroke-linejoin: round;stroke-width: 4px"/>
      <g>
        <line x1="315.43" y1="44.04" x2="329.97" y2="44.04" style="fill: none;stroke: #fff;stroke-linejoin: round;stroke-width: 4px"/>
        <line x1="315.43" y1="36.04" x2="329.97" y2="36.04" style="fill: none;stroke: #fff;stroke-linejoin: round;stroke-width: 4px"/>
        <line x1="315.43" y1="28.04" x2="329.97" y2="28.04" style="fill: none;stroke: #fff;stroke-linejoin: round;stroke-width: 4px"/>
      </g>
      <line x1="320.43" y1="26.3" x2="324.97" y2="26.3" style="fill: none;stroke: #fff;stroke-linejoin: round;stroke-width: 4px"/>
    </g>
    <g>
      <rect x="182.21" y="2" width="40.52" height="71.12" style="fill: none;stroke: #fff;stroke-linejoin: round;stroke-width: 4px"/>
      <line x1="222.72" y1="58.13" x2="182.21" y2="58.13" style="fill: none;stroke: #fff;stroke-linejoin: round;stroke-width: 4px"/>
      <line x1="199.73" y1="66.02" x2="204.89" y2="66.02" style="fill: none;stroke: #fff;stroke-linejoin: round;stroke-width: 4px"/>
      <line x1="182.21" y1="12.42" x2="222.72" y2="12.42" style="fill: none;stroke: #fff;stroke-linejoin: round;stroke-width: 4px"/>
      <g>
        <line x1="195.43" y1="44.04" x2="209.97" y2="44.04" style="fill: none;stroke: #fff;stroke-linejoin: round;stroke-width: 4px"/>
        <line x1="195.43" y1="36.04" x2="209.97" y2="36.04" style="fill: none;stroke: #fff;stroke-linejoin: round;stroke-width: 4px"/>
        <line x1="195.43" y1="28.04" x2="209.97" y2="28.04" style="fill: none;stroke: #fff;stroke-linejoin: round;stroke-width: 4px"/>
      </g>
      <line x1="200.43" y1="26.3" x2="204.97" y2="26.3" style="fill: none;stroke: #fff;stroke-linejoin: round;stroke-width: 4px"/>
    </g>
    <g>
      <rect x="62" y="2" width="40.52" height="71.12" style="fill: none;stroke: #fff;stroke-linejoin: round;stroke-width: 4px"/>
      <line x1="102.52" y1="58.13" x2="62" y2="58.13" style="fill: none;stroke: #fff;stroke-linejoin: round;stroke-width: 4px"/>
      <line x1="79.52" y1="66.02" x2="84.69" y2="66.02" style="fill: none;stroke: #fff;stroke-linejoin: round;stroke-width: 4px"/>
      <line x1="62" y1="12.42" x2="102.52" y2="12.42" style="fill: none;stroke: #fff;stroke-linejoin: round;stroke-width: 4px"/>
      <g>
        <line x1="75.22" y1="44.04" x2="89.76" y2="44.04" style="fill: none;stroke: #fff;stroke-linejoin: round;stroke-width: 4px"/>
        <line x1="75.22" y1="36.04" x2="89.76" y2="36.04" style="fill: none;stroke: #fff;stroke-linejoin: round;stroke-width: 4px"/>
        <line x1="75.22" y1="28.04" x2="89.76" y2="28.04" style="fill: none;stroke: #fff;stroke-linejoin: round;stroke-width: 4px"/>
      </g>
      <line x1="80.22" y1="26.3" x2="84.76" y2="26.3" style="fill: none;stroke: #fff;stroke-linejoin: round;stroke-width: 4px"/>
    </g>
    <g>
      <rect x="122" y="2" width="40.52" height="71.12" style="fill: none;stroke: #fff;stroke-linejoin: round;stroke-width: 4px"/>
      <line x1="162.52" y1="58.13" x2="122" y2="58.13" style="fill: none;stroke: #fff;stroke-linejoin: round;stroke-width: 4px"/>
      <line x1="139.52" y1="66.02" x2="144.69" y2="66.02" style="fill: none;stroke: #fff;stroke-linejoin: round;stroke-width: 4px"/>
      <line x1="122" y1="12.42" x2="162.52" y2="12.42" style="fill: none;stroke: #fff;stroke-linejoin: round;stroke-width: 4px"/>
      <g>
        <line x1="135.22" y1="44.04" x2="149.76" y2="44.04" style="fill: none;stroke: #fff;stroke-linejoin: round;stroke-width: 4px"/>
        <line x1="135.22" y1="36.04" x2="149.76" y2="36.04" style="fill: none;stroke: #fff;stroke-linejoin: round;stroke-width: 4px"/>
        <line x1="135.22" y1="28.04" x2="149.76" y2="28.04" style="fill: none;stroke: #fff;stroke-linejoin: round;stroke-width: 4px"/>
      </g>
      <line x1="140.22" y1="26.3" x2="144.76" y2="26.3" style="fill: none;stroke: #fff;stroke-linejoin: round;stroke-width: 4px"/>
    </g>
    <g>
      <rect x="2" y="2" width="40.52" height="71.12" style="fill: none;stroke: #fff;stroke-linejoin: round;stroke-width: 4px"/>
      <line x1="42.52" y1="58.13" x2="2" y2="58.13" style="fill: none;stroke: #fff;stroke-linejoin: round;stroke-width: 4px"/>
      <line x1="19.52" y1="66.02" x2="24.69" y2="66.02" style="fill: none;stroke: #fff;stroke-linejoin: round;stroke-width: 4px"/>
      <line x1="2" y1="12.42" x2="42.52" y2="12.42" style="fill: none;stroke: #fff;stroke-linejoin: round;stroke-width: 4px"/>
      <g>
        <line x1="15.22" y1="44.04" x2="29.76" y2="44.04" style="fill: none;stroke: #fff;stroke-linejoin: round;stroke-width: 4px"/>
        <line x1="15.22" y1="36.04" x2="29.76" y2="36.04" style="fill: none;stroke: #fff;stroke-linejoin: round;stroke-width: 4px"/>
        <line x1="15.22" y1="28.04" x2="29.76" y2="28.04" style="fill: none;stroke: #fff;stroke-linejoin: round;stroke-width: 4px"/>
      </g>
      <line x1="20.22" y1="26.3" x2="24.76" y2="26.3" style="fill: none;stroke: #fff;stroke-linejoin: round;stroke-width: 4px"/>
    </g>
    
  </g>
</svg>
