<svg id="Layer_5" data-name="Layer 5" xmlns="http://www.w3.org/2000/svg" viewBox="0 0 1024 415">
  <title>illustration_battery_brake</title>
  <g>
    <path d="M451.74,372.33a8.27,8.27,0,0,0,6.64,3.33h20.81a18.36,18.36,0,0,0,18.36-18.36V317a19.5,19.5,0,0,1,19.5-19.5h32.85" style="fill: none;stroke: #fff;stroke-linejoin: round;stroke-width: 4px"/>
    <rect x="549.91" y="287.42" width="11" height="19.31" style="fill: none;stroke: #fff;stroke-linejoin: round;stroke-width: 4px"/>
    <path d="M450.91,358.93a8.9,8.9,0,0,1-12.58,12.58Z" style="fill: none;stroke: #fff;stroke-linejoin: round;stroke-width: 4px"/>
    <circle cx="415.63" cy="335.84" r="17.07" style="fill: none;stroke: #fff;stroke-linejoin: round;stroke-width: 4.46950574314797px"/>
    <path d="M454.66,323.85a40.82,40.82,0,1,1-28-27.31" style="fill: none;stroke: #fff;stroke-linejoin: round;stroke-width: 4.46950574314797px"/>
    <path d="M426.9,290.65l-2.44,8.64A40.23,40.23,0,0,1,452,326.16l8.59-2.64a5,5,0,0,0,3.16-6.67,54.7,54.7,0,0,0-30.22-29.51A5,5,0,0,0,426.9,290.65Z" style="fill: none;stroke: #fff;stroke-linejoin: round;stroke-width: 4px"/>
  </g>
</svg>
