# This file uses centimeters as units for non-parametric coordinates.

mtllib BackLight.mtl
g default
v -0.040348 0.329165 -2.432063
v -0.040348 0.464339 -2.432063
v 0.039704 0.329165 -2.432063
v 0.039704 0.464339 -2.432063
v -0.040348 0.329165 -2.421755
v -0.040348 0.464339 -2.421755
v 0.039704 0.464339 -2.421755
v 0.039704 0.329165 -2.421755
vt 0.222261 0.957942
vt 0.222261 0.042058
vt 0.777739 0.042058
vt 0.777739 0.957942
vt 0.222261 0.957942
vt 0.222261 0.042058
vt 0.222261 0.042058
vt 0.777739 0.042058
vt 0.777739 0.957942
vt 0.222261 0.957942
vt 0.777739 0.042058
vt 0.777739 0.957942
vn 0.000000 0.000000 -1.000000
vn 0.000000 0.000000 -1.000000
vn 0.000000 0.000000 -1.000000
vn 0.000000 0.000000 -1.000000
vn -1.000000 0.000000 0.000000
vn -1.000000 0.000000 0.000000
vn -1.000000 0.000000 0.000000
vn -1.000000 0.000000 0.000000
vn 0.000000 1.000000 0.000000
vn 0.000000 1.000000 0.000000
vn 0.000000 1.000000 0.000000
vn 0.000000 1.000000 0.000000
vn 0.000000 -1.000000 -0.000000
vn 0.000000 -1.000000 -0.000000
vn 0.000000 -1.000000 -0.000000
vn 0.000000 -1.000000 -0.000000
vn 1.000000 0.000000 0.000000
vn 1.000000 0.000000 0.000000
vn 1.000000 0.000000 0.000000
vn 1.000000 0.000000 0.000000
s 1
g FECar1:placca_posteriore FECar1:FECar1
usemtl FECar1:placca_posterioreSG
f 1/1/1 2/2/2 3/4/3
f 3/4/3 2/2/2 4/3/4
s 2
f 2/2/5 1/1/6 6/6/7
f 6/6/7 1/1/6 5/5/8
s 3
f 4/3/9 2/2/10 7/8/11
f 7/8/11 2/2/10 6/7/12
s 4
f 1/1/13 3/4/14 5/10/15
f 5/10/15 3/4/14 8/9/16
s 5
f 3/4/17 4/3/18 8/12/19
f 8/12/19 4/3/18 7/11/20
g default
v -0.040348 0.329165 -2.432063
v -0.040348 0.464339 -2.432063
v 0.039704 0.329165 -2.432063
v 0.039704 0.464339 -2.432063
v -0.040348 0.329165 -2.421755
v -0.040348 0.464339 -2.421755
v 0.039704 0.464339 -2.421755
v 0.039704 0.329165 -2.421755
vt 0.222261 0.957942
vt 0.222261 0.042058
vt 0.777739 0.042058
vt 0.777739 0.957942
vt 0.222261 0.957942
vt 0.222261 0.042058
vt 0.222261 0.042058
vt 0.777739 0.042058
vt 0.777739 0.957942
vt 0.222261 0.957942
vt 0.777739 0.042058
vt 0.777739 0.957942
vn 0.000000 0.000000 -1.000000
vn 0.000000 0.000000 -1.000000
vn 0.000000 0.000000 -1.000000
vn 0.000000 0.000000 -1.000000
vn -1.000000 0.000000 0.000000
vn -1.000000 0.000000 0.000000
vn -1.000000 0.000000 0.000000
vn -1.000000 0.000000 0.000000
vn 0.000000 1.000000 0.000000
vn 0.000000 1.000000 0.000000
vn 0.000000 1.000000 0.000000
vn 0.000000 1.000000 0.000000
vn 0.000000 -1.000000 -0.000000
vn 0.000000 -1.000000 -0.000000
vn 0.000000 -1.000000 -0.000000
vn 0.000000 -1.000000 -0.000000
vn 1.000000 0.000000 0.000000
vn 1.000000 0.000000 0.000000
vn 1.000000 0.000000 0.000000
vn 1.000000 0.000000 0.000000
s 1
g FECar1:placca_posteriore FECar1:FECar1
f 9/13/21 10/14/22 11/16/23
f 11/16/23 10/14/22 12/15/24
s 2
f 10/14/25 9/13/26 14/18/27
f 14/18/27 9/13/26 13/17/28
s 3
f 12/15/29 10/14/30 15/20/31
f 15/20/31 10/14/30 14/19/32
s 4
f 9/13/33 11/16/34 13/22/35
f 13/22/35 11/16/34 16/21/36
s 5
f 11/16/37 12/15/38 16/24/39
f 16/24/39 12/15/38 15/23/40
