<?xml version="1.0" encoding="utf-8"?>
<!-- Generator: Adobe Illustrator 18.1.1, SVG Export Plug-In . SVG Version: 6.00 Build 0)  -->
<svg version="1.1" xmlns="http://www.w3.org/2000/svg" xmlns:xlink="http://www.w3.org/1999/xlink" x="0px" y="0px"
	 viewBox="0 0 125 100" enable-background="new 0 0 125 100" xml:space="preserve">
<symbol  id="New_Symbol_2" viewBox="-16.4 -5.9 37.4 11.9">
	<text transform="matrix(1 0 0 -1 -4.3003 -3.1904)" fill="#FF0F5D" font-family="'UniversLTStd-Light'" font-size="11">LIVE</text>
	<path fill="#FF0F5D" d="M-9.4,0.6c0-1.9-1.6-3.5-3.5-3.5s-3.5,1.6-3.5,3.5s1.6,3.5,3.5,3.5S-9.4,2.5-9.4,0.6z"/>
</symbol>
<symbol  id="plus_-_b" viewBox="-19.8 -18.9 39 39">
	<g>
		<g>
			
				<image overflow="visible" opacity="0.3" width="39" height="39" xlink:href="D161D520F5CAD318.png"  transform="matrix(1 0 0 -1 -19.8232 20.0541)">
			</image>
			<g>
				<path fill="#FFFFFF" d="M-0.1,15.8c-8.3,0-15-6.7-15-15s6.7-15,15-15s15,6.7,15,15S8.2,15.8-0.1,15.8z"/>
			</g>
		</g>
		<line fill="none" stroke="#0555F9" stroke-width="1.7647" stroke-miterlimit="10" x1="-5.4" y1="-4" x2="-5.4" y2="3"/>
		<line fill="none" stroke="#0555F9" stroke-width="1.7647" stroke-miterlimit="10" x1="5.2" y1="-4" x2="5.2" y2="1.2"/>
		<line fill="none" stroke="#0555F9" stroke-width="1.7647" stroke-miterlimit="10" x1="1.7" y1="-4" x2="1.7" y2="8.3"/>
		<line fill="none" stroke="#0555F9" stroke-width="1.7647" stroke-miterlimit="10" x1="-1.8" y1="-4" x2="-1.8" y2="5.7"/>
	</g>
</symbol>
<g id="bg" display="none">
	<g id="header" display="inline">
	</g>
	<rect x="-324.3" y="-22.5" display="inline" fill="#5D5D5D" width="484.7" height="155.8"/>
</g>
<g id="icon_grids">
</g>
<g id="graphic">
	<g id="New_Symbol">
	</g>
	<g id="numero">
	</g>
	<g>
		<path fill="none" stroke="#FFFFFF" stroke-width="2" stroke-linejoin="round" stroke-miterlimit="10" d="M10.5,66.9v19.7
			c0,1.3,1.1,2.4,2.4,2.4h8.3c1.3,0,2.4-1.1,2.4-2.4v-6.6"/>
		<path fill="none" stroke="#FFFFFF" stroke-width="2" stroke-linejoin="round" stroke-miterlimit="10" d="M108.1,31.3
			c0.6,0,1.1-0.5,1.1-1.1v-4.7c0-0.8,0.7-1.3,1.5-1.1l8,2.4c1.3,0.4,2.2,1.6,2.2,3v0c0,1.7-1.4,3.2-3.2,3.2h-5.2l-2.1,0l-1,0.8
			c-0.7,0.6-0.9,1.7-0.5,2.6l3.2,5.8c1.6,2.9,2.4,6.1,2.4,9.3v16.8c0,1.8-0.7,3.6-2,4.8l-4.9,4.9c-1.3,1.3-3,2-4.8,2H22.3
			c-1.8,0-3.6-0.7-4.8-2l-4.9-4.9c-1.3-1.3-2-3-2-4.8V51.5c0-3.3,0.8-6.5,2.4-9.3l3.2-5.8c0.5-0.9,0.3-1.9-0.5-2.6l-1-0.8l-2.1,0
			H7.3c-1.7,0-3.2-1.4-3.2-3.2v0c0-1.4,0.9-2.6,2.2-3l8-2.4c0.7-0.2,1.5,0.3,1.5,1.1v4.7c0,0.6,0.5,1.1,1.1,1.1"/>
		<path fill="none" stroke="#FFFFFF" stroke-width="2" stroke-linejoin="round" stroke-miterlimit="10" d="M114.5,66.9v19.7
			c0,1.3-1.1,2.4-2.4,2.4h-8.3c-1.3,0-2.4-1.1-2.4-2.4v-6.6"/>
		<path fill="none" stroke="#FFFFFF" stroke-width="2" stroke-linejoin="round" stroke-miterlimit="10" d="M21.3,42.7l6.5,3.8
			c2,1.2,4.3,1.7,6.6,1.7l28.2,1.2l28.2-0.8c2.3-0.1,4.6-0.8,6.5-2.1l6.3-4.1"/>
		<path fill="none" stroke="#FFFFFF" stroke-width="2" stroke-linejoin="round" stroke-miterlimit="10" d="M88.5,52L88.5,52
			c0,2,1.6,3.7,3.7,3.7h12.5c3.3,0,6-2.7,6-6v-1.4c0-1.8-0.7-3.6-2-4.8l-2-2l-0.4-10.2l-9.2-15.7c-1.7-2.9-4.8-4.6-8.1-4.6H62.5
			H36.2c-3.3,0-6.4,1.8-8.1,4.6l-9.2,15.7l-0.4,10.2l-2,2c-1.3,1.3-2,3-2,4.8v1.4c0,3.3,2.7,6,6,6h12.5c2,0,3.7-1.6,3.7-3.7v0"/>
		<polyline fill="none" stroke="#FFFFFF" stroke-width="2" stroke-linejoin="round" stroke-miterlimit="10" points="88.5,71.1 
			62.5,71.1 36.5,71.1 		"/>
		<path fill="none" stroke="#FFFFFF" stroke-width="2" stroke-linejoin="round" stroke-miterlimit="10" d="M97.9,25l-5.2-8.6
			c-0.7-1.3-2.1-2.1-3.6-2.1H62.5H36c-1.5,0-2.9,0.8-3.6,2.1l-6,10.5c-1.3,2.3,0.3,5.1,2.9,5.2l29.1,1.6c2.8,0.1,5.6,0.1,8.3,0
			l29.1-1.6c2.6-0.1,4.1-3,2.9-5.2"/>
	</g>
</g>
<g id="_x33_dnav">
</g>
<g id="guide" display="none">
</g>
</svg>
