<?xml version="1.0" encoding="utf-8"?>
<!-- Generator: Adobe Illustrator 18.1.1, SVG Export Plug-In . SVG Version: 6.00 Build 0)  -->
<svg version="1.1" xmlns="http://www.w3.org/2000/svg" xmlns:xlink="http://www.w3.org/1999/xlink" x="0px" y="0px"
	 viewBox="0 0 75 65" enable-background="new 0 0 75 65" xml:space="preserve">
<symbol  id="New_Symbol_2" viewBox="-16.4 -5.9 37.4 11.9">
	<text transform="matrix(1 0 0 -1 -4.3003 -3.1904)" fill="#FF0F5D" font-family="'UniversLTStd-Light'" font-size="11">LIVE</text>
	<path fill="#FF0F5D" d="M-9.4,0.6c0-1.9-1.6-3.5-3.5-3.5s-3.5,1.6-3.5,3.5s1.6,3.5,3.5,3.5S-9.4,2.5-9.4,0.6z"/>
</symbol>
<symbol  id="plus_-_b" viewBox="-19.8 -18.9 39 39">
	<g>
		<g>
			
				<image overflow="visible" opacity="0.3" width="39" height="39" xlink:href="8F4FA87735E24676.png"  transform="matrix(1 0 0 -1 -19.8232 20.0541)">
			</image>
			<g>
				<path fill="#FFFFFF" d="M-0.1,15.8c-8.3,0-15-6.7-15-15s6.7-15,15-15s15,6.7,15,15S8.2,15.8-0.1,15.8z"/>
			</g>
		</g>
		<line fill="none" stroke="#0555F9" stroke-width="1.7647" stroke-miterlimit="10" x1="-5.4" y1="-4" x2="-5.4" y2="3"/>
		<line fill="none" stroke="#0555F9" stroke-width="1.7647" stroke-miterlimit="10" x1="5.2" y1="-4" x2="5.2" y2="1.2"/>
		<line fill="none" stroke="#0555F9" stroke-width="1.7647" stroke-miterlimit="10" x1="1.7" y1="-4" x2="1.7" y2="8.3"/>
		<line fill="none" stroke="#0555F9" stroke-width="1.7647" stroke-miterlimit="10" x1="-1.8" y1="-4" x2="-1.8" y2="5.7"/>
	</g>
</symbol>
<g id="bg" display="none">
	<g id="header" display="inline">
	</g>
</g>
<g id="icon_grids">
</g>
<g id="graphic">
	<g id="New_Symbol">
	</g>
	<g id="numero">
	</g>
	<g>
		<path fill="none" stroke="#666666" stroke-width="3" stroke-linejoin="round" d="M30.6,53.8h-17v-1.6c0-5.9,1-11.9,2.8-17.5
			l1.3-3.9c0.6-1.9-0.4-4-2.3-4.6l-5.4-1.8c-4.2-1.4-7-5.3-7-9.8v0c0-4.9,3.5-9.1,8.3-10.1l6-1.2c8.1-1.6,16.3-1.8,24.4-0.4
			l16.6,2.7c1.7,0.3,2.9,1.7,2.9,3.4v10.3c0,1.6-1.2,3-2.8,3.4l-23.7,4.7l-3,3c-3.9,3.9-3.3,10.4,1.3,13.5l5.2,3.5
			c1.1,0.8,1.8,2,1.8,3.4v3.1v4.4c0,2.7-2.2,4.8-4.8,4.8H12.3"/>
		<rect x="61.3" y="8.8" fill="none" stroke="#666666" stroke-width="3" stroke-linejoin="round" width="10.6" height="10.6"/>
	</g>
</g>
<g id="_x33_dnav">
</g>
<g id="guide" display="none">
</g>
</svg>
