<?xml version="1.0" encoding="utf-8"?>
<!-- Generator: Adobe Illustrator 18.1.1, SVG Export Plug-In . SVG Version: 6.00 Build 0)  -->
<svg version="1.1" xmlns="http://www.w3.org/2000/svg" xmlns:xlink="http://www.w3.org/1999/xlink" x="0px" y="0px"
	 viewBox="0 0 555 65" enable-background="new 0 0 555 65" xml:space="preserve">
<symbol  id="New_Symbol_2" viewBox="-16.4 -5.9 37.4 11.9">
	<text transform="matrix(1 0 0 -1 -4.3003 -3.1904)" fill="#FF0F5D" font-family="'UniversLTStd-Light'" font-size="11">LIVE</text>
	<path fill="#FF0F5D" d="M-9.4,0.6c0-1.9-1.6-3.5-3.5-3.5s-3.5,1.6-3.5,3.5s1.6,3.5,3.5,3.5S-9.4,2.5-9.4,0.6z"/>
</symbol>
<symbol  id="plus_-_b" viewBox="-19.8 -18.9 39 39">
	<g>
		<g>
			
				<image overflow="visible" opacity="0.3" width="39" height="39" xlink:href="9E2A358AF781402.png"  transform="matrix(1 0 0 -1 -19.8232 20.0541)">
			</image>
			<g>
				<path fill="#FFFFFF" d="M-0.1,15.8c-8.3,0-15-6.7-15-15s6.7-15,15-15s15,6.7,15,15S8.2,15.8-0.1,15.8z"/>
			</g>
		</g>
		<line fill="none" stroke="#0555F9" stroke-width="1.7647" stroke-miterlimit="10" x1="-5.4" y1="-4" x2="-5.4" y2="3"/>
		<line fill="none" stroke="#0555F9" stroke-width="1.7647" stroke-miterlimit="10" x1="5.2" y1="-4" x2="5.2" y2="1.2"/>
		<line fill="none" stroke="#0555F9" stroke-width="1.7647" stroke-miterlimit="10" x1="1.7" y1="-4" x2="1.7" y2="8.3"/>
		<line fill="none" stroke="#0555F9" stroke-width="1.7647" stroke-miterlimit="10" x1="-1.8" y1="-4" x2="-1.8" y2="5.7"/>
	</g>
</symbol>
<g id="bg" display="none">
	<g id="header" display="inline">
	</g>
</g>
<g id="icon_grids">
</g>
<g id="graphic">
	<g id="New_Symbol">
	</g>
	<g id="numero">
	</g>
	<g id="XMLID_87_">
		<path id="XMLID_106_" fill="#252524" d="M94,48.9h0.9h0.3H96l9.6-22.3l9.6,22.3h0.9h0.3h0.9l10-18.7c1.8-3.3,2.2-6.8,2.2-11.1
			v-5.4H124v5.4c0,3.8-0.2,6.1-1.9,9.1l-5.8,10.4l-6.2-15.2c-1.3-3.1-1.9-5.5-1.9-9.7h-5.4c0,4.2-0.6,6.6-1.9,9.7l-6.2,15.2L89,28.2
			c-1.7-3-1.9-5.3-1.9-9.1v-5.4h-5.4v5.4c0,4.3,0.5,7.8,2.2,11.1L94,48.9z"/>
		<path id="XMLID_103_" fill="#252524" d="M60,49c9.9,0,17.8-8,17.8-17.9c0-9.9-7.9-17.9-17.8-17.9c-9.9,0-17.8,8-17.8,17.9
			C42.1,41,50.1,49,60,49z M60,18.6c6.9,0,12.5,5.7,12.5,12.5c0,6.9-5.6,12.5-12.5,12.5c-6.9,0-12.5-5.7-12.5-12.5
			C47.5,24.2,53.1,18.6,60,18.6z"/>
		<g>
			<polygon id="XMLID_102_" fill="#252524" points="203.4,32.6 203.4,32.6 203.4,13.7 198.1,13.7 198.1,32.6 198.1,32.6 198.1,48.5 
				203.4,48.5 			"/>
			<polygon id="XMLID_101_" fill="#252524" points="203.4,5 203.4,5 203.4,2 198.1,2 198.1,5 198.1,5 198.1,7.5 203.4,7.5 			"/>
		</g>
		<path id="XMLID_100_" fill="#252524" d="M151.5,49c5.8,0,11.2-3,14.1-7.1l-4.3-3.2c-2.4,3-5.9,4.8-9.8,4.8
			c-6.7,0-12.5-5.6-12.5-12.5c0-6.9,5.7-12.5,12.5-12.5c6.9,0,11.1,5,12.2,9.3h-13.4v5.4h18.9v-5.4c-1.5-8.4-7.9-14.7-17.7-14.7
			c-9.8,0-17.8,8-17.8,17.9C133.6,41,141.7,49,151.5,49z"/>
		<path id="XMLID_99_" fill="#252524" d="M535.6,49c5.8,0,11.2-3,14.1-7.1l-4.3-3.2c-2.4,3-5.9,4.8-9.8,4.8
			c-6.7,0-12.5-5.6-12.5-12.5c0-6.9,5.7-12.5,12.5-12.5c6.9,0,11.1,5,12.2,9.3h-13.4v5.4h18.9v-5.4c-1.5-8.4-7.9-14.7-17.7-14.7
			c-9.8,0-17.8,8-17.8,17.9C517.7,41,525.7,49,535.6,49z"/>
		<path id="XMLID_98_" fill="#252524" d="M337.8,49c5.8,0,11.2-3,14.1-7.1l-4.3-3.2c-2.4,3-5.9,4.8-9.8,4.8
			c-6.7,0-12.5-5.6-12.5-12.5c0-6.9,5.7-12.5,12.5-12.5c2.7,0,4.7,0.5,6.4,1.9l4.1,3.6l3.6-4.1l-4.1-3.6c-2.6-2-5.3-3.2-10-3.2
			c-9.8,0-17.8,8-17.8,17.9C320,41,328,49,337.8,49z"/>
		<path id="XMLID_97_" fill="#252524" d="M1.7,60.9h5.4V32.6h0v-2c0.3-6.6,5.8-12,12.5-12c6.9,0,12.5,5.7,12.5,12.5
			c0,6.9-5.6,12.5-12.5,12.5c-2.4,0-4.8-0.8-6.9-2.2l-3.1,4.4c3,2,6.5,3.1,10,3.1c9.9,0,17.8-8,17.8-17.9c0-9.8-7.9-17.9-17.8-17.9
			c-4.9,0-9.3,1.9-12.5,5.1v-4.5H1.7v18.9h0V60.9z"/>
		<path id="XMLID_96_" fill="#252524" d="M413.5,49c3.6,0,7.1-1.1,10-3.1l-3.1-4.4c-2.1,1.3-4.5,2.2-6.9,2.2
			c-6.9,0-12.5-5.7-12.5-12.5c0-6.9,5.6-12.5,12.5-12.5c6.1,0,11.4,4.6,12.5,10.4v0.7h0v18.9h5.4V29.7v-0.1V13.7h-5.4v4.5
			c-3.2-3.1-7.6-5.1-12.5-5.1c-9.9,0-17.8,8.1-17.8,17.9C395.6,41,403.6,49,413.5,49z"/>
		<path id="XMLID_95_" fill="#252524" d="M268.2,49c3.6,0,7.1-1.1,10-3.1l-3.1-4.4c-2.1,1.3-4.5,2.2-6.9,2.2
			c-6.9,0-12.5-5.7-12.5-12.5c0-6.9,5.6-12.5,12.5-12.5c6.7,0,12.2,5.4,12.5,12v2h0v12.9c0,7.5-3.7,12.8-11.4,12.8
			c-4.7,0-8.1-2.6-10.8-6.3l-4.5,3.4c2.7,4.8,8.6,8.3,15.3,8.3c10.1,0,16.8-7.5,16.8-18.2V32.6V13.7h-5.4v4.5
			c-3.2-3.1-7.6-5.1-12.5-5.1c-9.9,0-17.8,8.1-17.8,17.9C250.4,41,258.3,49,268.2,49z"/>
		<path id="XMLID_94_" fill="#252524" d="M493.3,49c3.6,0,7.1-1.1,10-3.1l-3.1-4.4c-2.1,1.3-4.5,2.2-6.9,2.2
			c-6.9,0-12.5-5.7-12.5-12.5c0-6.9,5.6-12.5,12.5-12.5c6.7,0,12.2,5.4,12.5,12v2h0v12.9c0,7.5-3.7,12.8-11.4,12.8
			c-4.7,0-8.1-2.6-10.8-6.3l-4.5,3.4c2.7,4.8,8.6,8.3,15.3,8.3c10.1,0,16.8-7.5,16.8-18.2V32.6V13.7h-5.4v4.5
			c-3.2-3.1-7.6-5.1-12.5-5.1c-9.9,0-17.8,8.1-17.8,17.9C475.5,41,483.4,49,493.3,49z"/>
		<path id="XMLID_93_" fill="#252524" d="M364.2,28.3c1-5.4,5.3-9.7,11-9.7c5.1,0,9,4,9,9v1.3v0.7h0v18.9h5.4V29.6v-0.7v-1.3
			c0-8.1-6.3-14.4-14.4-14.4c-4.4,0-8.8,2.2-11,5.1v-4.6h0V1.3h-5.4v12.4h0v18.9h5.4V28.3z"/>
		<path id="XMLID_92_" fill="#252524" d="M216.7,28.3c1-5.4,5.3-9.7,11-9.7c5.1,0,9,4,9,9v2h0v18.9h5.4V29.6v-2
			c0-8.1-6.3-14.4-14.4-14.4c-4.4,0-8.8,2.2-11,5.1v-4.6h-5.4v18.9h5.4V28.3z"/>
		<path id="XMLID_91_" fill="#252524" d="M443.5,28.3c1-5.4,5.3-9.7,11-9.7c5.1,0,9,4,9,9v2h0v18.9h5.4V29.6v-2
			c0-8.1-6.3-14.4-14.4-14.4c-4.4,0-8.8,2.2-11,5.1v-4.6h-5.4v18.9h5.4V28.3z"/>
		<path id="XMLID_90_" fill="#252524" d="M182.2,48.5V29.6v-0.7v-2.2c0-5.5,3.1-8.2,8-8.2v-5.4c-3,0-5.8,1-8,2.6v-2.1h-5.4v15.9h0
			v18.9h0H182.2z"/>
	</g>
</g>
<g id="_x33_dnav">
</g>
<g id="guide" display="none">
</g>
</svg>
