<?xml version="1.0" encoding="utf-8"?>
<!-- Generator: Adobe Illustrator 18.1.1, SVG Export Plug-In . SVG Version: 6.00 Build 0)  -->
<svg version="1.1" id="SafeZone" xmlns="http://www.w3.org/2000/svg" xmlns:xlink="http://www.w3.org/1999/xlink" x="0px" y="0px"
	 viewBox="0 0 329 145.4" enable-background="new 0 0 329 145.4" xml:space="preserve">
<g>
	<g>
		<g>
			<g>
				<g>
					<g>
						<path d="M14.4,96.4c0,0.1,0,0.1,0,0.2c-0.1,0.4-0.3,1.7-0.3,1.7c0,0,0,0,0,0l0,0.2C14,98.9,13.7,99,13.4,99h-1.3H7.8H7.6
							c-0.9,0-1.3,0.3-1.6,1c0,0.2-0.1,0.3-0.1,0.5l-0.3,1.7h5.7c0.2,0,0.4,0.2,0.4,0.3v0.1l-0.4,2.1c0,0.2-0.3,0.4-0.5,0.4H5.1
							l-1.1,6.2C4,111.7,3.7,112,3.4,112H0.8c-0.3,0-0.5-0.2-0.5-0.5v-0.1l1.9-11c0.7-3.6,2.7-4.5,5.6-4.5H14h0
							C14.2,95.9,14.4,96.1,14.4,96.4L14.4,96.4L14.4,96.4z M125.2,101.5c0,0.4-0.1,0.7-0.1,1.1h-6c0.4-2.1,1.4-3.6,3.7-3.6
							C124.4,99,125.2,99.9,125.2,101.5 M128.9,101.6c0-3.3-1.8-5.8-5.6-5.8c-4.4,0-7.2,2-8.1,7.3l-0.3,1.8
							c-0.1,0.6-0.1,1.2-0.1,1.7c0,4.3,3.1,5.7,5.6,5.7c2.6,0,3.8-0.1,5.7-0.5c0.5-0.1,0.6-0.3,0.7-0.7l0.3-1.9V109
							c0-0.3-0.2-0.3-0.4-0.3h-0.1c-1.2,0.1-3.2,0.3-5.3,0.3c-2.1,0-2.9-1-2.9-2.6c0-0.4,0.1-0.8,0.1-1.2h9.3c0.4,0,0.6-0.3,0.7-0.7
							l0.2-1.4C128.9,102.6,128.9,102.1,128.9,101.6 M112.1,105.5l0.5-3.2v-0.1c0-0.3-0.2-0.4-0.5-0.4h-2.5c-0.3,0-0.6,0.2-0.7,0.5
							l-0.5,3.2v0.1c0,0.3,0.2,0.5,0.5,0.5h2.5C111.8,106.1,112.1,105.8,112.1,105.5 M88.7,111.7l0.4-2.2c0-0.3-0.1-0.5-0.4-0.5
							c-0.1,0-0.1,0-0.1,0h-0.1h-0.2c-1.5,0-2.3-0.5-2.3-2.1c0-0.4,0-0.9,0.1-1.5l1.6-8.8v-0.1c0-0.3-0.2-0.5-0.5-0.5h-2.7
							c-0.3,0-0.6,0.3-0.6,0.6l-1.5,8.6c-0.1,0.7-0.2,1.3-0.2,1.8c0,4.6,3.8,5.3,5.4,5.3h0.2l0.1,0C88.3,112.2,88.7,112,88.7,111.7
							 M78.9,105.6l1.6-9.1v-0.1c0-0.3-0.2-0.5-0.5-0.5h-2.7c-0.3,0-0.6,0.3-0.6,0.6l-1.6,8.8c-0.5,2.9-1.7,3.6-3.4,3.6h-0.2
							c-1.5,0-2.3-0.5-2.3-2.1c0-0.4,0-0.9,0.1-1.5l1.6-8.8v-0.1c0-0.3-0.2-0.5-0.5-0.5h-2.7c-0.3,0-0.6,0.3-0.6,0.6l-1.5,8.6
							c-0.1,0.7-0.2,1.3-0.2,1.8c0,4.6,3.8,5.3,5.4,5.3h0.2C73.4,112.2,77.8,111.8,78.9,105.6 M62.8,101.4c0.1-0.5,0.1-1,0.1-1.5
							c0-2.7-1.5-4.2-4.9-4.2h-0.7c-1.5,0-3,0.3-4,1.1c-0.7-0.7-1.9-1.1-3.5-1.1h-0.7c-3.6,0-6,1.4-6.7,5.4l-1.8,10.2v0.1
							c0,0.3,0.1,0.5,0.4,0.5h2.7c0.3,0,0.6-0.3,0.7-0.6l1.8-10.2c0.3-1.9,1.1-2.3,2.4-2.3h0.7c1.3,0,1.6,0.6,1.6,1.3
							c0,0.3-0.1,0.6-0.1,1L49,111.4v0.1c0,0.3,0.1,0.5,0.4,0.5h2.7c0.3,0,0.6-0.3,0.7-0.6l1.8-10.2c0.3-1.6,0.6-2.3,2.3-2.3h0.7
							c1.3,0,1.7,0.5,1.7,1.3c0,0.3-0.1,0.6-0.1,1l-1.8,10.2v0.1c0,0.3,0.1,0.5,0.4,0.5h2.7c0.3,0,0.6-0.3,0.7-0.6L62.8,101.4z
							 M40.4,98.4l0.4-2.2v-0.1c0-0.3-0.4-0.4-0.7-0.4c-2.5,0-4,0.2-5.9,0.8c-0.5,0.2-0.9,0.5-0.9,0.9l-2.5,14v0.1
							c0,0.3,0.2,0.5,0.5,0.5h2.6c0.3,0,0.6-0.3,0.7-0.6l2.2-12.3c0.7-0.1,1.9-0.2,2.8-0.2C40.1,98.9,40.3,98.7,40.4,98.4 M100,98.8
							c-2.5,0-3.4,1.6-3.8,4.1l-0.4,2.2c-0.1,0.6-0.2,1.2-0.2,1.7c0,1.6,0.7,2.4,2.5,2.4c1,0,2.2-0.1,2.8-0.2l1.7-10
							C102.1,98.9,101,98.8,100,98.8 M106.7,97.2l-2.4,13.5c-0.1,0.4-0.2,0.6-0.9,0.8c-1.9,0.5-4,0.7-5.8,0.7
							c-3.9,0-5.7-2.3-5.7-5.5c0-0.5,0.1-1.1,0.1-1.6l0.4-2.2c0.8-4.9,3.5-7.2,8.1-7.2c1.8,0,3.9,0.3,5.6,0.7
							c0.5,0.1,0.7,0.3,0.7,0.5C106.7,97.1,106.7,97.1,106.7,97.2 M25.3,101.6c0,0.4,0,0.8-0.1,1.3l-0.4,2.3
							c-0.5,2.7-1.7,3.8-3.7,3.8c-1.7,0-2.5-0.9-2.5-2.6c0-0.4,0-0.8,0.1-1.3l0.4-2.3c0.5-2.8,2-3.9,3.7-3.9
							C24.5,99,25.3,99.9,25.3,101.6 M29.1,101.3c0-3-1.8-5.6-5.7-5.6c-4.5,0-7.2,2.1-8.1,7.1l-0.4,2.3c-0.1,0.5-0.1,0.9-0.1,1.4
							c0,3,1.8,5.7,5.7,5.7c4.5,0,7.2-2.4,8-7.1l0.4-2.3C29.1,102.3,29.1,101.8,29.1,101.3"/>
					</g>
				</g>
			</g>
		</g>
	</g>
	<g>
		<path d="M31.4,70.1c3.1,6.7,9.8,11.1,18.3,11.1h46.1c8.5,0,16.7-4.4,22.2-11.1H31.4z"/>
		<path d="M94.9,54.1c1.2-1.9,2-3.9,2.4-6.1c0.2-1.3,0.3-2.5,0.2-3.7c-0.5-6.4-5.5-11.1-12.3-11.1h-27c-8.5,0-16.7,4.4-22.2,11.1
			h47.2c2,0,3.4,1.7,3,3.7c-0.3,1.9-2.1,3.5-4,3.7c-0.1,0-60.1,0-60.1,0C13.1,51.7,5,56,0,62.7h79.9C85.9,62.7,91.6,59.2,94.9,54.1z
			"/>
	</g>
</g>
<rect x="162.2" width="1.5" height="145.4"/>
<g>
	<path d="M203.3,106.4c0,0.1,0,0.3,0,0.4c0,0.1,0,0.3-0.1,0.5l-0.3,1.4c-0.1,0.6-0.3,1.1-0.5,1.6c-0.2,0.4-0.5,0.8-0.8,1.1
		c-0.3,0.3-0.7,0.5-1,0.6c-0.4,0.1-0.8,0.2-1.3,0.2c-0.4,0-0.7-0.1-1-0.2c-0.3-0.1-0.6-0.3-0.8-0.5c-0.2-0.2-0.4-0.5-0.5-0.8
		c-0.1-0.3-0.2-0.7-0.2-1.1c0-0.1,0-0.3,0-0.4c0-0.1,0-0.3,0.1-0.5l0.3-1.4c0.1-0.7,0.3-1.2,0.5-1.6c0.2-0.4,0.5-0.8,0.8-1.1
		c0.3-0.3,0.7-0.5,1-0.6c0.4-0.1,0.8-0.2,1.2-0.2c0.4,0,0.7,0.1,1,0.2c0.3,0.1,0.6,0.3,0.8,0.5c0.2,0.2,0.4,0.5,0.5,0.8
		C203.2,105.6,203.3,106,203.3,106.4z M202.2,106.4c0-0.6-0.1-1-0.4-1.3c-0.3-0.2-0.7-0.4-1.2-0.4c-0.6,0-1.1,0.2-1.5,0.6
		c-0.4,0.4-0.7,1.1-0.9,1.9l-0.3,1.4c0,0.2,0,0.3-0.1,0.4c0,0.1,0,0.3,0,0.4c0,0.6,0.1,1.1,0.4,1.3c0.3,0.3,0.7,0.4,1.2,0.4
		c0.6,0,1.1-0.2,1.5-0.6c0.4-0.4,0.7-1.1,0.9-1.9l0.3-1.4c0-0.2,0.1-0.3,0.1-0.5C202.2,106.7,202.2,106.6,202.2,106.4z"/>
	<path d="M208.2,104l-0.1,0.4c0,0.1-0.1,0.2-0.2,0.2h-0.5c-0.1,0-0.2,0-0.3,0c-0.1,0-0.2,0-0.2,0.1c-0.1,0.1-0.1,0.1-0.2,0.2
		c0,0.1-0.1,0.2-0.1,0.4l-0.1,0.8h1.2c0.1,0,0.2,0.1,0.2,0.2v0l-0.1,0.4c0,0.1,0,0.1-0.1,0.1c0,0-0.1,0-0.2,0h-1.2l-1,5.5
		c-0.1,0.3-0.1,0.6-0.3,0.8c-0.1,0.2-0.2,0.4-0.4,0.5c-0.2,0.1-0.3,0.2-0.5,0.2c-0.2,0-0.4,0.1-0.6,0.1c-0.1,0-0.2,0-0.3,0
		c-0.1,0-0.2,0-0.3,0c-0.1,0-0.2-0.1-0.2-0.1v0l0.1-0.4c0-0.1,0.1-0.2,0.2-0.2h0.5c0.3,0,0.4-0.1,0.6-0.2c0.1-0.1,0.2-0.3,0.3-0.6
		l1-5.5l-1-0.1c-0.1,0-0.2-0.1-0.2-0.2v0l0.1-0.3c0-0.1,0-0.1,0.1-0.1c0,0,0.1-0.1,0.2-0.1h1l0.1-0.8c0.1-0.3,0.1-0.6,0.2-0.8
		c0.1-0.2,0.2-0.4,0.4-0.5s0.3-0.2,0.5-0.2c0.2,0,0.4,0,0.7,0c0.1,0,0.2,0,0.3,0c0.1,0,0.2,0,0.3,0
		C208.1,103.9,208.2,103.9,208.2,104L208.2,104z"/>
	<path d="M212.3,104l-0.1,0.4c0,0.1-0.1,0.2-0.2,0.2h-0.5c-0.1,0-0.2,0-0.3,0c-0.1,0-0.2,0-0.2,0.1c-0.1,0.1-0.1,0.1-0.2,0.2
		c0,0.1-0.1,0.2-0.1,0.4l-0.1,0.8h1.2c0.1,0,0.2,0.1,0.2,0.2v0l-0.1,0.4c0,0.1,0,0.1-0.1,0.1c0,0-0.1,0-0.2,0h-1.2l-1,5.5
		c-0.1,0.3-0.1,0.6-0.3,0.8c-0.1,0.2-0.2,0.4-0.4,0.5c-0.2,0.1-0.3,0.2-0.5,0.2c-0.2,0-0.4,0.1-0.6,0.1c-0.1,0-0.2,0-0.3,0
		c-0.1,0-0.2,0-0.3,0c-0.1,0-0.2-0.1-0.2-0.1v0l0.1-0.4c0-0.1,0.1-0.2,0.2-0.2h0.5c0.3,0,0.4-0.1,0.6-0.2c0.1-0.1,0.2-0.3,0.3-0.6
		l1-5.5l-1-0.1c-0.1,0-0.2-0.1-0.2-0.2v0l0.1-0.3c0-0.1,0-0.1,0.1-0.1c0,0,0.1-0.1,0.2-0.1h1l0.1-0.8c0.1-0.3,0.1-0.6,0.2-0.8
		c0.1-0.2,0.2-0.4,0.4-0.5s0.3-0.2,0.5-0.2c0.2,0,0.4,0,0.7,0c0.1,0,0.2,0,0.3,0c0.1,0,0.2,0,0.3,0
		C212.2,103.9,212.3,103.9,212.3,104L212.3,104z"/>
	<path d="M214,106.3l-1,5.6c0,0.1,0,0.1-0.1,0.2c-0.1,0-0.1,0.1-0.2,0.1h-0.5c-0.1,0-0.2-0.1-0.2-0.2v0l1-5.6c0-0.1,0-0.1,0.1-0.2
		c0.1,0,0.1-0.1,0.2-0.1h0.5C213.9,106.1,214,106.2,214,106.3L214,106.3z M214.4,104l-0.2,0.9c0,0.1,0,0.1-0.1,0.2
		c-0.1,0-0.1,0.1-0.2,0.1h-0.6c-0.1,0-0.2-0.1-0.2-0.2v0l0.2-0.9c0-0.1,0-0.1,0.1-0.2c0.1,0,0.1-0.1,0.2-0.1h0.6
		C214.4,103.8,214.4,103.9,214.4,104L214.4,104z"/>
	<path d="M219.4,106.3C219.4,106.3,219.4,106.3,219.4,106.3C219.4,106.4,219.4,106.4,219.4,106.3l-0.1,0.5c0,0.1,0,0.1-0.1,0.1
		c0,0-0.1,0-0.1,0h0c-0.2,0-0.5,0-0.6-0.1c-0.2,0-0.4,0-0.7,0c-0.4,0-0.8,0.2-1.1,0.5c-0.3,0.3-0.5,0.8-0.6,1.3l-0.1,0.9
		c0,0.2-0.1,0.5-0.1,0.7c0,0.4,0.1,0.7,0.3,0.9c0.2,0.2,0.5,0.3,0.8,0.3c0.3,0,0.5,0,0.7,0c0.2,0,0.4,0,0.7-0.1h0c0,0,0.1,0,0.1,0
		c0,0,0.1,0.1,0.1,0.1v0l-0.1,0.4c0,0.1,0,0.1-0.1,0.2c0,0-0.1,0.1-0.2,0.1c-0.2,0-0.4,0.1-0.6,0.1c-0.2,0-0.5,0-0.8,0
		c-0.3,0-0.6-0.1-0.8-0.2c-0.2-0.1-0.4-0.3-0.6-0.4c-0.2-0.2-0.3-0.4-0.4-0.7c-0.1-0.3-0.1-0.5-0.1-0.8c0-0.1,0-0.2,0-0.3
		c0-0.1,0-0.2,0-0.3l0.1-0.9c0.1-0.9,0.5-1.6,1-2c0.5-0.4,1.1-0.7,1.9-0.7c0.3,0,0.5,0,0.7,0c0.2,0,0.4,0.1,0.6,0.1
		C219.3,106.2,219.4,106.2,219.4,106.3z"/>
	<path d="M221.7,106.3l-1,5.6c0,0.1,0,0.1-0.1,0.2c-0.1,0-0.1,0.1-0.2,0.1h-0.5c-0.1,0-0.2-0.1-0.2-0.2v0l1-5.6c0-0.1,0-0.1,0.1-0.2
		c0.1,0,0.1-0.1,0.2-0.1h0.5C221.6,106.1,221.7,106.2,221.7,106.3L221.7,106.3z M222.1,104l-0.2,0.9c0,0.1,0,0.1-0.1,0.2
		c-0.1,0-0.1,0.1-0.2,0.1h-0.6c-0.1,0-0.2-0.1-0.2-0.2v0l0.2-0.9c0-0.1,0-0.1,0.1-0.2c0.1,0,0.1-0.1,0.2-0.1h0.6
		C222,103.8,222.1,103.9,222.1,104L222.1,104z"/>
	<path d="M227.6,106.4C227.6,106.5,227.6,106.5,227.6,106.4l-1,5.5c0,0.1,0,0.1-0.1,0.2c0,0-0.1,0.1-0.2,0.1h-0.4
		c-0.1,0-0.1,0-0.1,0c0,0,0-0.1,0-0.1v0v0l0.1-0.3c-0.2,0.1-0.3,0.2-0.4,0.3c-0.1,0.1-0.3,0.1-0.4,0.2c-0.1,0.1-0.3,0.1-0.4,0.1
		c-0.1,0-0.3,0-0.5,0c-0.2,0-0.5,0-0.7-0.1c-0.2-0.1-0.4-0.2-0.5-0.4c-0.2-0.2-0.3-0.4-0.4-0.6c-0.1-0.2-0.1-0.5-0.1-0.9
		c0-0.2,0-0.4,0.1-0.7l0.2-1.1c0.1-0.5,0.2-0.9,0.4-1.2c0.2-0.3,0.4-0.6,0.7-0.8c0.3-0.2,0.5-0.3,0.8-0.4c0.3-0.1,0.6-0.1,1-0.1
		s0.7,0,1,0.1c0.3,0,0.6,0.1,0.9,0.2C227.5,106.3,227.6,106.4,227.6,106.4z M226.1,106.9c-0.2,0-0.4,0-0.6,0c-0.6,0-1,0.2-1.3,0.5
		c-0.3,0.3-0.5,0.8-0.6,1.3l-0.2,1.1c0,0.1,0,0.2,0,0.3c0,0.1,0,0.2,0,0.3c0,0.4,0.1,0.7,0.3,0.9c0.2,0.2,0.4,0.3,0.7,0.3
		c0.3,0,0.5-0.1,0.8-0.2c0.2-0.1,0.5-0.3,0.8-0.5l0.7-3.8C226.4,106.9,226.2,106.9,226.1,106.9z"/>
	<path d="M230.6,104.1l-1.4,7.8c0,0.1,0,0.1-0.1,0.2c0,0-0.1,0.1-0.2,0.1h-0.6c-0.1,0-0.2-0.1-0.2-0.2v0l1.4-7.8
		c0-0.1,0.1-0.2,0.2-0.2h0.6C230.5,103.9,230.6,103.9,230.6,104.1L230.6,104.1z"/>
	<path d="M240.1,105.8c0,0.1,0,0.3,0,0.5l0,0.1c-0.1,0.5-0.2,0.9-0.4,1.2c-0.2,0.3-0.5,0.6-0.8,0.8c-0.3,0.2-0.7,0.3-1.1,0.4
		c-0.4,0.1-0.8,0.1-1.3,0.1c-0.2,0-0.4,0-0.6,0c-0.2,0-0.4,0-0.5,0l-0.5,3.1c0,0.1,0,0.1-0.1,0.2c0,0-0.1,0.1-0.2,0.1h-0.6
		c-0.1,0-0.2-0.1-0.2-0.2v0v0l1.3-7.7c0-0.2,0.1-0.3,0.3-0.3c0.2,0,0.5-0.1,0.9-0.1c0.3,0,0.7,0,1,0c0.4,0,0.8,0,1.1,0.1
		c0.3,0.1,0.6,0.2,0.8,0.4c0.2,0.2,0.4,0.4,0.5,0.6C240,105.2,240.1,105.5,240.1,105.8z M239.1,105.9c0-0.4-0.1-0.7-0.4-0.9
		c-0.3-0.2-0.8-0.3-1.4-0.3c-0.2,0-0.4,0-0.6,0c-0.2,0-0.4,0-0.5,0l-0.6,3.2c0.1,0,0.1,0,0.2,0c0.1,0,0.2,0,0.3,0c0.1,0,0.2,0,0.3,0
		c0.1,0,0.2,0,0.3,0c0.8,0,1.3-0.1,1.7-0.4c0.4-0.3,0.6-0.7,0.7-1.2l0-0.1C239.1,106.1,239.1,106,239.1,105.9z"/>
	<path d="M245.6,108.1c0,0.1,0,0.2,0,0.3c0,0.1,0,0.2,0,0.3l-0.1,0.8c-0.1,0.4-0.2,0.8-0.3,1.1c-0.2,0.3-0.3,0.6-0.6,0.8
		c-0.2,0.2-0.5,0.4-0.9,0.5c-0.3,0.1-0.7,0.2-1.1,0.2c-0.3,0-0.6-0.1-0.9-0.2c-0.3-0.1-0.5-0.2-0.6-0.4c-0.2-0.2-0.3-0.4-0.4-0.7
		c-0.1-0.3-0.1-0.5-0.1-0.8c0-0.1,0-0.2,0-0.3c0-0.1,0-0.2,0-0.3l0.1-0.8c0.3-1.8,1.3-2.7,2.9-2.7c0.3,0,0.6,0.1,0.9,0.2
		c0.3,0.1,0.5,0.2,0.6,0.4c0.2,0.2,0.3,0.4,0.4,0.7C245.6,107.5,245.6,107.8,245.6,108.1z M244.7,108.1c0-0.4-0.1-0.7-0.3-0.9
		c-0.2-0.2-0.5-0.3-0.9-0.3c-0.5,0-0.9,0.2-1.2,0.5c-0.3,0.3-0.5,0.8-0.6,1.3l-0.1,0.8c0,0.2-0.1,0.5-0.1,0.6c0,0.4,0.1,0.7,0.3,0.9
		c0.2,0.2,0.5,0.3,0.9,0.3c0.2,0,0.5,0,0.7-0.1c0.2-0.1,0.4-0.2,0.5-0.4c0.2-0.2,0.3-0.4,0.4-0.6c0.1-0.2,0.2-0.5,0.2-0.7l0.1-0.8
		c0-0.1,0-0.2,0-0.3C244.7,108.3,244.7,108.2,244.7,108.1z"/>
	<path d="M254.8,106.3C254.8,106.3,254.8,106.4,254.8,106.3l-2,5.2c-0.1,0.3-0.2,0.5-0.4,0.6c-0.2,0.1-0.4,0.2-0.6,0.2
		c-0.2,0-0.4-0.1-0.5-0.2c-0.1-0.1-0.2-0.3-0.2-0.6l-0.3-3.7c0,0,0-0.1,0-0.1c0,0,0,0,0,0c0,0,0,0,0,0c0,0,0,0,0,0.1l-1.6,3.7
		c-0.1,0.3-0.3,0.5-0.5,0.6c-0.2,0.1-0.4,0.2-0.6,0.2c-0.2,0-0.4-0.1-0.6-0.2c-0.1-0.1-0.2-0.3-0.2-0.6l-0.2-5.1
		c0-0.1,0-0.1,0.1-0.2c0.1-0.1,0.1-0.1,0.2-0.1h0.6c0.1,0,0.1,0,0.1,0.1c0,0,0,0.1,0,0.1l0,5c0,0.1,0,0.1,0,0.1c0,0,0,0,0,0
		c0,0,0.1,0,0.1-0.1l1.8-4.2c0.1-0.1,0.1-0.2,0.2-0.3c0.1,0,0.2-0.1,0.3-0.1h0.6c0.1,0,0.2,0,0.3,0.1c0.1,0,0.1,0.1,0.1,0.3l0.3,4.2
		c0,0.1,0,0.1,0.1,0.1c0,0,0,0,0,0s0,0,0.1-0.1l1.8-5c0,0,0-0.1,0.1-0.1c0,0,0.1-0.1,0.1-0.1h0.6c0.1,0,0.1,0,0.1,0.1
		C254.8,106.2,254.8,106.2,254.8,106.3z"/>
	<path d="M260.3,108.1c0,0.2,0,0.4-0.1,0.7l-0.1,0.5c0,0.1,0,0.1-0.1,0.2c0,0-0.1,0.1-0.2,0.1h-3.7l0,0.1c0,0.1-0.1,0.2-0.1,0.4
		c0,0.1,0,0.2,0,0.3c0,0.4,0.1,0.7,0.4,0.9c0.2,0.2,0.6,0.3,1,0.3c0.3,0,0.7,0,1-0.1c0.3,0,0.6-0.1,0.9-0.1h0h0c0.1,0,0.1,0,0.1,0.1
		v0v0l-0.1,0.4c0,0.1,0,0.1-0.1,0.2c0,0-0.1,0.1-0.2,0.1c-0.3,0.1-0.6,0.1-0.9,0.1c-0.3,0-0.6,0-1,0c-0.3,0-0.5,0-0.8-0.1
		c-0.3-0.1-0.5-0.2-0.7-0.4c-0.2-0.2-0.4-0.4-0.5-0.6c-0.1-0.3-0.2-0.6-0.2-0.9c0-0.2,0-0.4,0.1-0.7l0.1-0.8c0.2-0.9,0.5-1.6,1-2
		s1.1-0.7,1.9-0.7c0.3,0,0.6,0.1,0.9,0.2c0.2,0.1,0.5,0.3,0.6,0.4c0.2,0.2,0.3,0.4,0.4,0.7C260.2,107.5,260.3,107.8,260.3,108.1z
		 M259.3,108c0-0.8-0.4-1.2-1.2-1.2c-0.2,0-0.5,0-0.7,0.1s-0.4,0.2-0.5,0.4c-0.2,0.2-0.3,0.3-0.4,0.6c-0.1,0.2-0.2,0.4-0.2,0.7
		l0,0.1h2.9l0-0.1C259.3,108.4,259.3,108.2,259.3,108z"/>
	<path d="M264.7,106.2l-0.1,0.5c0,0.1-0.1,0.2-0.3,0.2h0c-0.3,0-0.6,0-0.8,0.1c-0.2,0.1-0.5,0.2-0.8,0.4l-0.8,4.6
		c0,0.1,0,0.1-0.1,0.2c-0.1,0-0.1,0.1-0.2,0.1h-0.5c-0.1,0-0.2-0.1-0.2-0.2v0l1-5.6c0-0.1,0-0.1,0.1-0.2c0,0,0.1-0.1,0.2-0.1h0.5
		c0.1,0,0.2,0.1,0.2,0.2v0l0,0.3c0.3-0.2,0.6-0.4,0.8-0.5c0.3-0.1,0.5-0.1,0.8-0.1h0C264.6,106,264.7,106.1,264.7,106.2L264.7,106.2
		z"/>
	<path d="M274,105.8c0,0.1,0,0.3,0,0.5l0,0.1c-0.1,0.5-0.2,0.9-0.4,1.2c-0.2,0.3-0.5,0.6-0.8,0.8c-0.3,0.2-0.7,0.3-1.1,0.4
		c-0.4,0.1-0.8,0.1-1.3,0.1c-0.2,0-0.4,0-0.6,0c-0.2,0-0.4,0-0.5,0l-0.5,3.1c0,0.1,0,0.1-0.1,0.2c0,0-0.1,0.1-0.2,0.1H268
		c-0.1,0-0.2-0.1-0.2-0.2v0v0l1.3-7.7c0-0.2,0.1-0.3,0.3-0.3c0.2,0,0.5-0.1,0.9-0.1c0.3,0,0.7,0,1,0c0.4,0,0.8,0,1.1,0.1
		c0.3,0.1,0.6,0.2,0.8,0.4c0.2,0.2,0.4,0.4,0.5,0.6C274,105.2,274,105.5,274,105.8z M273,105.9c0-0.4-0.1-0.7-0.4-0.9
		c-0.3-0.2-0.8-0.3-1.4-0.3c-0.2,0-0.4,0-0.6,0c-0.2,0-0.4,0-0.5,0l-0.6,3.2c0.1,0,0.1,0,0.2,0c0.1,0,0.2,0,0.3,0c0.1,0,0.2,0,0.3,0
		c0.1,0,0.2,0,0.3,0c0.8,0,1.3-0.1,1.7-0.4c0.4-0.3,0.6-0.7,0.7-1.2l0-0.1C273,106.1,273,106,273,105.9z"/>
	<path d="M279.5,106.4C279.5,106.5,279.5,106.5,279.5,106.4l-1,5.5c0,0.1,0,0.1-0.1,0.2c0,0-0.1,0.1-0.2,0.1h-0.4
		c-0.1,0-0.1,0-0.1,0c0,0,0-0.1,0-0.1v0v0l0.1-0.3c-0.2,0.1-0.3,0.2-0.4,0.3c-0.1,0.1-0.3,0.1-0.4,0.2c-0.1,0.1-0.3,0.1-0.4,0.1
		c-0.1,0-0.3,0-0.5,0c-0.2,0-0.5,0-0.7-0.1c-0.2-0.1-0.4-0.2-0.5-0.4c-0.2-0.2-0.3-0.4-0.4-0.6c-0.1-0.2-0.1-0.5-0.1-0.9
		c0-0.2,0-0.4,0.1-0.7l0.2-1.1c0.1-0.5,0.2-0.9,0.4-1.2c0.2-0.3,0.4-0.6,0.7-0.8c0.3-0.2,0.5-0.3,0.8-0.4c0.3-0.1,0.6-0.1,1-0.1
		s0.7,0,1,0.1c0.3,0,0.6,0.1,0.9,0.2C279.4,106.3,279.5,106.4,279.5,106.4z M278,106.9c-0.2,0-0.4,0-0.6,0c-0.6,0-1,0.2-1.3,0.5
		c-0.3,0.3-0.5,0.8-0.6,1.3l-0.2,1.1c0,0.1,0,0.2,0,0.3c0,0.1,0,0.2,0,0.3c0,0.4,0.1,0.7,0.3,0.9c0.2,0.2,0.4,0.3,0.7,0.3
		c0.3,0,0.5-0.1,0.8-0.2c0.2-0.1,0.5-0.3,0.8-0.5l0.7-3.8C278.3,106.9,278.1,106.9,278,106.9z"/>
	<path d="M283.8,106.2l-0.1,0.5c0,0.1-0.1,0.2-0.3,0.2h0c-0.3,0-0.6,0-0.8,0.1c-0.2,0.1-0.5,0.2-0.8,0.4l-0.8,4.6
		c0,0.1,0,0.1-0.1,0.2c-0.1,0-0.1,0.1-0.2,0.1h-0.5c-0.1,0-0.2-0.1-0.2-0.2v0l1-5.6c0-0.1,0-0.1,0.1-0.2c0,0,0.1-0.1,0.2-0.1h0.5
		c0.1,0,0.2,0.1,0.2,0.2v0l0,0.3c0.3-0.2,0.6-0.4,0.8-0.5c0.3-0.1,0.5-0.1,0.8-0.1h0C283.7,106,283.8,106.1,283.8,106.2L283.8,106.2
		z"/>
	<path d="M287.8,106.3l-0.1,0.4c0,0.1,0,0.1-0.1,0.2c0,0-0.1,0.1-0.2,0.1h-1.2l-0.7,3.9c0,0.1,0,0.2,0,0.3c0,0.2,0,0.3,0.1,0.3
		c0.1,0,0.2,0.1,0.4,0.1h0.7c0,0,0.1,0,0.1,0c0,0,0,0,0,0.1v0l-0.1,0.4c0,0.1,0,0.1-0.1,0.1c0,0-0.1,0.1-0.2,0.1c-0.1,0-0.2,0-0.4,0
		c-0.1,0-0.2,0-0.3,0c-0.4,0-0.7-0.1-0.9-0.2c-0.2-0.2-0.4-0.4-0.4-0.8c0-0.1,0-0.1,0-0.2c0-0.1,0-0.1,0-0.2l0.7-3.8l-1-0.1
		c-0.1,0-0.2-0.1-0.2-0.2v0l0.1-0.3c0-0.1,0-0.1,0.1-0.1c0,0,0.1-0.1,0.2-0.1h1.1l0.2-1.1c0-0.1,0.1-0.2,0.2-0.2l0.6-0.1h0
		c0.1,0,0.1,0.1,0.1,0.2v0l-0.2,1.2h1.2C287.8,106.1,287.8,106.2,287.8,106.3L287.8,106.3z"/>
	<path d="M293.2,107.7c0,0.2,0,0.4-0.1,0.6l-0.6,3.6c0,0.1,0,0.1-0.1,0.2c-0.1,0-0.1,0.1-0.2,0.1h-0.5c-0.1,0-0.2-0.1-0.2-0.2v0
		l0.6-3.6c0-0.1,0-0.2,0-0.3c0-0.1,0-0.2,0-0.3c0-0.3-0.1-0.5-0.2-0.6c-0.1-0.1-0.4-0.2-0.8-0.2c-0.2,0-0.4,0-0.7,0.1
		c-0.2,0.1-0.5,0.2-0.9,0.3l-0.8,4.6c0,0.1,0,0.1-0.1,0.2c-0.1,0-0.1,0.1-0.2,0.1h-0.5c-0.1,0-0.1,0-0.1-0.1c0,0,0-0.1,0-0.1v0
		l1-5.6c0-0.1,0-0.1,0.1-0.2c0,0,0.1-0.1,0.2-0.1h0.5c0.1,0,0.1,0,0.1,0.1c0,0,0,0.1,0,0.1v0l0,0.2c0.3-0.1,0.5-0.3,0.8-0.4
		c0.3-0.1,0.6-0.2,1-0.2c0.3,0,0.5,0,0.8,0.1c0.2,0.1,0.4,0.2,0.5,0.4c0.1,0.2,0.2,0.3,0.3,0.5C293.2,107.3,293.2,107.5,293.2,107.7
		z"/>
	<path d="M299.4,108.1c0,0.2,0,0.4-0.1,0.7l-0.1,0.5c0,0.1,0,0.1-0.1,0.2c0,0-0.1,0.1-0.2,0.1h-3.7l0,0.1c0,0.1-0.1,0.2-0.1,0.4
		c0,0.1,0,0.2,0,0.3c0,0.4,0.1,0.7,0.4,0.9c0.2,0.2,0.6,0.3,1,0.3c0.3,0,0.7,0,1-0.1c0.3,0,0.6-0.1,0.9-0.1h0h0c0.1,0,0.1,0,0.1,0.1
		v0v0l-0.1,0.4c0,0.1,0,0.1-0.1,0.2c0,0-0.1,0.1-0.2,0.1c-0.3,0.1-0.6,0.1-0.9,0.1c-0.3,0-0.6,0-1,0c-0.3,0-0.5,0-0.8-0.1
		c-0.3-0.1-0.5-0.2-0.7-0.4c-0.2-0.2-0.4-0.4-0.5-0.6c-0.1-0.3-0.2-0.6-0.2-0.9c0-0.2,0-0.4,0.1-0.7l0.1-0.8c0.2-0.9,0.5-1.6,1-2
		s1.1-0.7,1.9-0.7c0.3,0,0.6,0.1,0.9,0.2c0.2,0.1,0.5,0.3,0.6,0.4c0.2,0.2,0.3,0.4,0.4,0.7C299.3,107.5,299.4,107.8,299.4,108.1z
		 M298.4,108c0-0.8-0.4-1.2-1.2-1.2c-0.2,0-0.5,0-0.7,0.1s-0.4,0.2-0.5,0.4c-0.2,0.2-0.3,0.3-0.4,0.6c-0.1,0.2-0.2,0.4-0.2,0.7
		l0,0.1h2.9l0-0.1C298.4,108.4,298.4,108.2,298.4,108z"/>
	<path d="M303.7,106.2l-0.1,0.5c0,0.1-0.1,0.2-0.3,0.2h0c-0.3,0-0.6,0-0.8,0.1c-0.2,0.1-0.5,0.2-0.8,0.4l-0.8,4.6
		c0,0.1,0,0.1-0.1,0.2c-0.1,0-0.1,0.1-0.2,0.1h-0.5c-0.1,0-0.2-0.1-0.2-0.2v0l1-5.6c0-0.1,0-0.1,0.1-0.2c0,0,0.1-0.1,0.2-0.1h0.5
		c0.1,0,0.2,0.1,0.2,0.2v0l0,0.3c0.3-0.2,0.6-0.4,0.8-0.5c0.3-0.1,0.5-0.1,0.8-0.1h0C303.7,106,303.7,106.1,303.7,106.2L303.7,106.2
		z"/>
</g>
<g>
	<g>
		<linearGradient id="SVGID_1_" gradientUnits="userSpaceOnUse" x1="294.9723" y1="82.9241" x2="305.73" y2="71.0686">
			<stop  offset="8.141706e-03" style="stop-color:#000000"/>
			<stop  offset="0.3" style="stop-color:#000000"/>
			<stop  offset="1" style="stop-color:#000000;stop-opacity:0"/>
		</linearGradient>
		<path fill="url(#SVGID_1_)" d="M305.2,70.7c-2.3,3.1-6,5-10.2,5v5.5c5.9,0,11.2-2.8,14.5-7.2L305.2,70.7z"/>
	</g>
	<g>
		<linearGradient id="SVGID_2_" gradientUnits="userSpaceOnUse" x1="215.1795" y1="82.9241" x2="225.9372" y2="71.0686">
			<stop  offset="6.878931e-03" style="stop-color:#000000"/>
			<stop  offset="0.3" style="stop-color:#000000"/>
			<stop  offset="1" style="stop-color:#000000;stop-opacity:0"/>
		</linearGradient>
		<path fill="url(#SVGID_2_)" d="M225.4,70.7c-2.3,3.1-6,5-10.2,5v5.5c5.9,0,11.2-2.8,14.5-7.2L225.4,70.7z"/>
	</g>
	<linearGradient id="SVGID_3_" gradientUnits="userSpaceOnUse" x1="320.876" y1="71.2731" x2="327.6597" y2="78.0567">
		<stop  offset="1.026926e-02" style="stop-color:#000000"/>
		<stop  offset="1" style="stop-color:#000000;stop-opacity:0"/>
	</linearGradient>
	<path fill="url(#SVGID_3_)" d="M324,68.8c0,4,1.8,5.7,5,7.9l-3.1,4.5c-4.7-3.1-7.3-6.6-7.3-12.4H324z"/>
	<linearGradient id="SVGID_4_" gradientUnits="userSpaceOnUse" x1="263.6202" y1="50.7438" x2="264.9018" y2="62.5109">
		<stop  offset="0" style="stop-color:#000000"/>
		<stop  offset="1" style="stop-color:#000000;stop-opacity:0"/>
	</linearGradient>
	<path fill="url(#SVGID_4_)" d="M271.5,61.5h-5.5l0-1.8c0-5.4-4.3-9.6-9.6-9.7v-5.5c8.3,0.1,15,6.7,15,15.1V61.5z"/>
	<linearGradient id="SVGID_5_" gradientUnits="userSpaceOnUse" x1="268.5325" y1="58.7332" x2="268.8106" y2="61.5673">
		<stop  offset="0" style="stop-color:#EA4986"/>
		<stop  offset="1" style="stop-color:#EA4986;stop-opacity:0"/>
	</linearGradient>
	<line fill="url(#SVGID_5_)" x1="271.5" y1="61.5" x2="266.1" y2="61.5"/>
	<rect x="266.1" y="61.5" width="5.5" height="19.1"/>
	<g>
		<path d="M295,44.6c-10.1,0-18.3,8.2-18.3,18.3s8.2,18.3,18.3,18.3c0,0,0.1,0,0.1,0v-5.5c0,0-0.1,0-0.1,0
			c-7.1,0-12.8-5.7-12.8-12.8S287.9,50,295,50c6,0,11.1,4.1,12.5,9.7l-13.5,0v5.5h19.1v-5.5C311.6,51.1,304,44.6,295,44.6z"/>
		<path d="M215.2,44.6c-10.1,0-18.3,8.2-18.3,18.3s8.2,18.3,18.3,18.3c0,0,0.1,0,0.1,0v-5.5c0,0-0.1,0-0.1,0
			c-7.1,0-12.8-5.7-12.8-12.8S208.1,50,215.2,50c6,0,11.1,4.1,12.5,9.7l-13.5,0v5.5h19.1v-5.5C231.8,51.1,224.2,44.6,215.2,44.6z"/>
		<path d="M324,68.8V33.3h-5.5v35.5c0,0,0,0.1,0,0.1L324,68.8C324,68.9,324,68.8,324,68.8z"/>
		<path d="M256.4,44.6c-4.8,0-9,1.9-12.2,5v-3.5h-5.5v19.1h5.5v-4.5c0.8-4.4,4.7-10.6,12.2-10.6c0.1,0,0.2,0,0.3,0v-5.5
			C256.5,44.6,256.4,44.6,256.4,44.6z"/>
	</g>
</g>
</svg>
