<svg xmlns="http://www.w3.org/2000/svg" xmlns:xlink="http://www.w3.org/1999/xlink" viewBox="0 0 299.01 305.28">
  <defs>
    <clipPath id="clip-path">
      <polygon points="0.01 0 299.34 0.33 299.67 148.66 278.17 148.33 278.17 71.83 183.34 71.83 183.65 119.48 127.67 120.33 127.2 178.41 77.72 178.35 78.17 237.13 0 237.13 0.01 0" style="fill: none"/>
    </clipPath>
  </defs>
  <title>illustration_solarmexico</title>
  <g id="Layer_2" data-name="Layer 2">
    <g id="village">
      <line x1="298.67" y1="236.88" y2="236.88" style="fill: none;stroke: #fff;stroke-linejoin: round;stroke-width: 3px"/>
      <g>
        <rect x="165.89" y="178.35" width="112.64" height="58.54" style="fill: none;stroke: #fff;stroke-linejoin: round;stroke-width: 3px"/>
        <line x1="161.93" y1="178.41" x2="283.38" y2="178.41" style="fill: none;stroke: #fff;stroke-linejoin: round;stroke-width: 3px"/>
        <g>
          <line x1="191.17" y1="177.96" x2="191.17" y2="184.26" style="fill: none;stroke: #fff;stroke-linejoin: round;stroke-width: 3px"/>
          <line x1="222.65" y1="177.96" x2="222.65" y2="184.26" style="fill: none;stroke: #fff;stroke-linejoin: round;stroke-width: 3px"/>
          <line x1="254.14" y1="177.96" x2="254.14" y2="184.26" style="fill: none;stroke: #fff;stroke-linejoin: round;stroke-width: 3px"/>
        </g>
        <path d="M253.43,193.47H254A13.06,13.06,0,0,1,267,206.54v30.34a0,0,0,0,1,0,0H240.37a0,0,0,0,1,0,0V206.54A13.06,13.06,0,0,1,253.43,193.47Z" style="fill: none;stroke: #fff;stroke-linejoin: round;stroke-width: 3px"/>
        <rect x="191.17" y="196.74" width="30.59" height="22.53" style="fill: none;stroke: #fff;stroke-linejoin: round;stroke-width: 3px"/>
      </g>
      <g>
        <rect x="127.2" y="119.87" width="112.64" height="58.54" style="fill: none;stroke: #fff;stroke-linejoin: round;stroke-width: 3px"/>
        <line x1="123.25" y1="119.87" x2="244.69" y2="119.87" style="fill: none;stroke: #fff;stroke-linejoin: round;stroke-width: 3px"/>
        <g>
          <line x1="152.48" y1="119.48" x2="152.48" y2="125.78" style="fill: none;stroke: #fff;stroke-linejoin: round;stroke-width: 3px"/>
          <line x1="183.97" y1="119.48" x2="183.97" y2="125.78" style="fill: none;stroke: #fff;stroke-linejoin: round;stroke-width: 3px"/>
          <line x1="215.46" y1="119.48" x2="215.46" y2="125.78" style="fill: none;stroke: #fff;stroke-linejoin: round;stroke-width: 3px"/>
        </g>
        <path d="M214.75,135h.54a13.06,13.06,0,0,1,13.06,13.06v30.34a0,0,0,0,1,0,0H201.68a0,0,0,0,1,0,0V148.06A13.06,13.06,0,0,1,214.75,135Z" style="fill: none;stroke: #fff;stroke-linejoin: round;stroke-width: 3px"/>
        <rect x="152.48" y="138.26" width="30.59" height="22.53" style="fill: none;stroke: #fff;stroke-linejoin: round;stroke-width: 3px"/>
      </g>
      <g>
        <rect x="77.72" y="178.35" width="87.81" height="58.54" style="fill: none;stroke: #fff;stroke-linejoin: round;stroke-width: 3px"/>
        <line x1="73.77" y1="178.41" x2="195.22" y2="178.41" style="fill: none;stroke: #fff;stroke-linejoin: round;stroke-width: 3px"/>
        <g>
          <line x1="103" y1="177.96" x2="103" y2="184.26" style="fill: none;stroke: #fff;stroke-linejoin: round;stroke-width: 3px"/>
          <line x1="134.49" y1="177.96" x2="134.49" y2="184.26" style="fill: none;stroke: #fff;stroke-linejoin: round;stroke-width: 3px"/>
          <line x1="165.98" y1="177.96" x2="165.98" y2="184.26" style="fill: none;stroke: #fff;stroke-linejoin: round;stroke-width: 3px"/>
        </g>
        <path d="M165.54,236.88H152.2V206.81a13.33,13.33,0,0,1,13.33-13.33h0" style="fill: none;stroke: #fff;stroke-linejoin: round;stroke-width: 3px"/>
        <rect x="103" y="196.74" width="30.59" height="22.53" style="fill: none;stroke: #fff;stroke-linejoin: round;stroke-width: 3px"/>
      </g>
      <g>
        <polyline points="298.3 148.66 239.66 148.66 239.66 178.41" style="fill: none;stroke: #fff;stroke-linejoin: round;stroke-width: 3px"/>
        <line x1="239.66" y1="148.72" x2="298.67" y2="148.72" style="fill: none;stroke: #fff;stroke-linejoin: round;stroke-width: 3px"/>
        <g>
          <line x1="264.94" y1="148.27" x2="264.94" y2="154.57" style="fill: none;stroke: #fff;stroke-linejoin: round;stroke-width: 3px"/>
          <line x1="296.42" y1="148.27" x2="296.42" y2="154.57" style="fill: none;stroke: #fff;stroke-linejoin: round;stroke-width: 3px"/>
        </g>
        <polyline points="298.67 167.05 264.94 167.05 264.94 177.96" style="fill: none;stroke: #fff;stroke-linejoin: round;stroke-width: 3px"/>
      </g>
      <g>
        <path d="M61.67,205.3v7.54a9.74,9.74,0,0,1-9.74,9.74h0" style="fill: none;stroke: #fff;stroke-linecap: round;stroke-linejoin: round;stroke-width: 3px"/>
        <line x1="50.92" y1="198.65" x2="50.92" y2="237.33" style="fill: none;stroke: #fff;stroke-linecap: round;stroke-linejoin: round;stroke-width: 3px"/>
        <path d="M51.31,228.22h0a8.48,8.48,0,0,1-8.48-8.48v-5.65" style="fill: none;stroke: #fff;stroke-linecap: round;stroke-linejoin: round;stroke-width: 3px"/>
      </g>
      <polyline points="278.17 148.33 278.17 71.83 183.17 71.83 183.17 119.33" style="fill: none;stroke: #fff;stroke-linejoin: round;stroke-width: 3px"/>
      <polyline points="127.2 160.79 115.67 160.79 115.67 147.33" style="fill: none;stroke: #fff;stroke-linejoin: round;stroke-width: 3px"/>
      <g>
        <line x1="204.19" y1="71.83" x2="204.19" y2="78.13" style="fill: none;stroke: #fff;stroke-linejoin: round;stroke-width: 3px"/>
        <line x1="257.16" y1="71.83" x2="257.16" y2="78.13" style="fill: none;stroke: #fff;stroke-linejoin: round;stroke-width: 3px"/>
      </g>
      <path d="M204.19,120.19v-2.47a26.49,26.49,0,0,1,26.49-26.49h0a26.49,26.49,0,0,1,26.49,26.49v31.42" style="fill: none;stroke: #fff;stroke-linejoin: round;stroke-width: 3px"/>
      <line x1="230.17" y1="91.33" x2="230.17" y2="120.33" style="fill: none;stroke: #fff;stroke-linejoin: round;stroke-width: 3px"/>
      <line x1="285.67" y1="71.83" x2="175.67" y2="71.83" style="fill: none;stroke: #fff;stroke-linejoin: round;stroke-width: 3px"/>
      <path d="M115.05,83.89V77.77A13.35,13.35,0,0,1,128.4,64.43h0a13.35,13.35,0,0,1,13.35,13.35v41.71" style="fill: none;stroke: #fff;stroke-linejoin: round;stroke-width: 3px"/>
      <circle cx="115.05" cy="87.75" r="3.24" style="fill: none;stroke: #fff;stroke-linejoin: round;stroke-width: 3px"/>
      <g style="opacity: 0.30000000000000004">
        <line x1="164.72" y1="151.53" x2="169.47" y2="146.78" style="fill: none;stroke: #fff;stroke-linejoin: round;stroke-width: 3px"/>
        <line x1="175.67" y1="147.15" x2="161.98" y2="160.84" style="fill: none;stroke: #fff;stroke-linejoin: round;stroke-width: 3px"/>
      </g>
      <g style="opacity: 0.30000000000000004">
        <line x1="113.72" y1="202.53" x2="118.47" y2="197.78" style="fill: none;stroke: #fff;stroke-linejoin: round;stroke-width: 3px"/>
        <line x1="124.67" y1="198.15" x2="110.98" y2="211.84" style="fill: none;stroke: #fff;stroke-linejoin: round;stroke-width: 3px"/>
      </g>
      <g style="opacity: 0.30000000000000004">
        <line x1="210.72" y1="209.53" x2="215.47" y2="204.78" style="fill: none;stroke: #fff;stroke-linejoin: round;stroke-width: 3px"/>
        <line x1="221.67" y1="205.15" x2="207.98" y2="218.84" style="fill: none;stroke: #fff;stroke-linejoin: round;stroke-width: 3px"/>
      </g>
    </g>
    <g id="daynight">
      <g id="Layer_2-2" data-name="Layer 2">
        <g id="Layer_4" data-name="Layer 4">
          <g style="clip-path: url(#clip-path)">
            <g id="sky">
              <circle id="sun" cx="72.21" cy="104.71" r="14.51" transform="translate(-52.89 81.73) rotate(-45)" style="fill: none;stroke: #fff;stroke-linejoin: round;stroke-width: 3.77887606620789px"/>
              <g id="sun_rays" data-name="sun rays">
                <circle cx="72.21" cy="104.71" r="30.24" transform="translate(-52.89 81.73) rotate(-45)" style="fill: none"/>
                <line x1="91.09" y1="123.6" x2="85.05" y2="117.55" style="fill: none;stroke: #fff;stroke-linecap: round;stroke-linejoin: round;stroke-width: 3.77887606620789px"/>
                <line x1="53.32" y1="85.82" x2="59.37" y2="91.87" style="fill: none;stroke: #fff;stroke-linecap: round;stroke-linejoin: round;stroke-width: 3.77887606620789px"/>
                <line x1="53.32" y1="123.6" x2="59.37" y2="117.55" style="fill: none;stroke: #fff;stroke-linecap: round;stroke-linejoin: round;stroke-width: 3.77887606620789px"/>
                <line x1="91.42" y1="85.5" x2="85.05" y2="91.87" style="fill: none;stroke: #fff;stroke-linecap: round;stroke-linejoin: round;stroke-width: 3.77887606620789px"/>
                <line x1="72.21" y1="77.93" x2="72.21" y2="86.55" style="fill: none;stroke: #fff;stroke-linecap: round;stroke-linejoin: round;stroke-width: 3.77887606620789px"/>
                <line x1="72.21" y1="131.42" x2="72.21" y2="122.95" style="fill: none;stroke: #fff;stroke-linecap: round;stroke-linejoin: round;stroke-width: 3.77887606620789px"/>
                <line x1="45.5" y1="104.71" x2="54.05" y2="104.71" style="fill: none;stroke: #fff;stroke-linecap: round;stroke-linejoin: round;stroke-width: 3.77887606620789px"/>
                <line x1="98.72" y1="104.71" x2="90.37" y2="104.71" style="fill: none;stroke: #fff;stroke-linecap: round;stroke-linejoin: round;stroke-width: 3.77887606620789px"/>
              </g>
              <path id="moon" d="M235.11,291.43a11.27,11.27,0,0,1,1-16.85A14.52,14.52,0,1,0,247.12,294,11.31,11.31,0,0,1,235.11,291.43Z" style="fill: none;stroke: #fff;stroke-linejoin: round;stroke-width: 3.77887606620789px"/>
            </g>
          </g>
        </g>
      </g>
    </g>
    <g id="light">
      <rect id="light1" x="152.48" y="138.26" width="30.59" height="22.53" style="fill: #fff"/>
      <rect id="light2" x="103" y="196.74" width="30.59" height="22.53" style="fill: #fff"/>
      <path id="light3" d="M127.13,133.31,118.3,87.75S117.94,91,115.05,91s-3.24-3.24-3.24-3.24L94,178h33.33" style="fill: #fff"/>
      <rect id="light4" x="191.17" y="196.74" width="30.59" height="22.53" style="fill: #fff"/>
    </g>
    <g id="Layer_4-2" data-name="Layer 4">
      <rect x="0.01" width="299" height="249.33" style="fill: #fff;opacity: 0"/>
    </g>
  </g>
</svg>
