# This file uses centimeters as units for non-parametric coordinates.

mtllib chile_circuit_land.mtl
g default
v 5.232039 0.000010 9.266414
v 5.502470 0.000010 9.266414
v 6.241299 0.000010 9.266413
v 7.250558 0.000010 9.266414
v 8.259821 0.000010 9.266413
v 8.998650 0.000010 9.266414
v 9.269079 0.000010 9.266414
v 16.886223 0.000010 9.266414
v -13.048998 0.000010 9.266414
v -3.908478 0.000010 9.266414
v 10.975382 0.000010 9.266411
v 7.237233 0.000010 -0.684984
v 5.233403 0.000001 -0.230517
v 5.502470 0.000001 -0.157753
v 6.241299 0.000001 -0.052272
v 7.250558 0.000001 -0.013663
v 8.259821 0.000001 -0.052272
v 8.998650 0.000001 -0.157753
v 9.270443 0.000001 -0.230517
v 10.896410 0.000001 -0.885297
v -3.901353 0.000001 -2.634248
v -13.043892 0.000001 -5.324760
v 16.884903 0.000001 -4.311892
v -60.650757 0.000001 -5.324760
v -60.628338 0.000001 9.266414
v 78.417969 0.000001 9.266414
v 78.385223 0.000001 -4.311892
v 5.232039 0.000001 52.121136
v 5.502470 0.000001 52.121136
v 6.241299 0.000001 52.121136
v 7.250558 0.000001 52.121136
v 8.259821 0.000001 52.121136
v 8.998650 0.000001 52.121136
v 9.269079 0.000001 52.121136
v 10.975382 0.000001 52.121132
v -3.908478 0.000001 52.121136
v -13.048998 0.000001 52.121136
v 16.886223 0.000001 52.121136
v -60.628338 0.000001 52.121136
v 78.417969 0.000001 52.121136
v 4.950925 0.000001 -0.563243
v 4.613777 0.000001 -0.684983
v 5.911176 0.000001 -0.319311
v 7.222905 0.000001 -0.230026
v 8.534633 0.000001 -0.319311
v 9.494884 0.000000 -0.563243
v 9.860689 0.000001 -0.684983
v 7.222905 0.000001 -34.025719
v 4.599450 0.000001 -34.025719
v 9.846361 0.000001 -34.025719
v 16.882206 0.000001 -34.025719
v -13.040142 0.000001 -34.025719
v 78.351089 0.000001 -34.025719
v -60.674541 0.000001 -34.025719
vt 0.000000 0.000000
vt 0.000000 1.000000
vt 1.000000 1.000000
vt 1.000000 0.000000
vt 0.000000 0.000000
vt 0.000000 1.000000
vt 1.000000 1.000000
vt 1.000000 0.000000
vt 0.000000 0.000000
vt 0.000000 1.000000
vt 1.000000 1.000000
vt 1.000000 0.000000
vt 0.000000 0.000000
vt 0.000000 1.000000
vt 1.000000 1.000000
vt 1.000000 0.000000
vt 0.000000 0.000000
vt 0.000000 1.000000
vt 1.000000 1.000000
vt 1.000000 0.000000
vt 0.000000 0.000000
vt 0.000000 1.000000
vt 1.000000 1.000000
vt 1.000000 0.000000
vt 0.000000 0.000000
vt 0.000000 0.500000
vt 1.000000 0.500000
vt 1.000000 0.000000
vt 0.000000 0.500000
vt 0.000000 1.000000
vt 1.000000 1.000000
vt 1.000000 0.500000
vt 0.000000 0.000000
vt 1.000000 0.000000
vt 0.000000 1.000000
vt 1.000000 1.000000
vt 0.000000 0.000000
vt 1.000000 0.000000
vt 1.000000 1.000000
vt 0.000000 1.000000
vt 0.000000 0.000000
vt 1.000000 0.000000
vt 1.000000 1.000000
vt 0.000000 1.000000
vt 0.000000 0.000000
vt 1.000000 0.000000
vt 1.000000 1.000000
vt 0.000000 1.000000
vt 0.000000 0.000000
vt 1.000000 0.000000
vt 1.000000 1.000000
vt 0.000000 1.000000
vt 0.000000 0.000000
vt 1.000000 0.000000
vt 1.000000 1.000000
vt 0.000000 1.000000
vt 0.000000 0.000000
vt 1.000000 0.000000
vt 1.000000 1.000000
vt 0.000000 1.000000
vt 0.000000 0.000000
vt 1.000000 0.000000
vt 1.000000 1.000000
vt 0.000000 1.000000
vt 0.000000 0.000000
vt 1.000000 0.000000
vt 1.000000 1.000000
vt 0.000000 1.000000
vt 0.000000 0.000000
vt 1.000000 0.000000
vt 1.000000 1.000000
vt 0.000000 1.000000
vt 0.000000 0.000000
vt 1.000000 0.000000
vt 1.000000 1.000000
vt 0.000000 1.000000
vt 0.000000 0.000000
vt 1.000000 0.000000
vt 1.000000 1.000000
vt 0.000000 1.000000
vt 0.000000 0.000000
vt 1.000000 0.000000
vt 1.000000 1.000000
vt 0.000000 1.000000
vt 0.000000 0.000000
vt 1.000000 0.000000
vt 1.000000 1.000000
vt 0.000000 1.000000
vt 0.000000 0.000000
vt 1.000000 0.000000
vt 1.000000 1.000000
vt 0.000000 1.000000
vt 0.364684 0.234375
vt 0.500000 0.150000
vt 0.343750 0.156250
vt 0.421875 0.291566
vt 0.500000 0.312500
vt 0.578125 0.291566
vt 0.635316 0.234375
vt 0.656250 0.156250
vt 0.000000 0.000000
vt 0.000000 1.000000
vt 1.000000 1.000000
vt 1.000000 0.000000
vt 0.000000 0.000000
vt 0.000000 1.000000
vt 1.000000 1.000000
vt 1.000000 0.000000
vt 0.000000 0.000000
vt 0.000000 1.000000
vt 1.000000 1.000000
vt 1.000000 0.000000
vt 0.000000 0.000000
vt 0.000000 1.000000
vt 1.000000 1.000000
vt 1.000000 0.000000
vt 0.000000 0.000000
vt 0.000000 1.000000
vt 1.000000 1.000000
vt 1.000000 0.000000
vt 0.000000 0.000000
vt 0.000000 1.000000
vt 1.000000 1.000000
vt 1.000000 0.000000
vn 0.000000 1.000000 -0.000001
vn 0.000000 1.000000 -0.000001
vn 0.000000 1.000000 -0.000001
vn 0.000000 1.000000 -0.000001
vn 0.000000 1.000000 -0.000001
vn 0.000000 1.000000 -0.000001
vn 0.000000 1.000000 -0.000001
vn -0.000000 1.000000 -0.000001
vn 0.000000 1.000000 -0.000001
vn 0.000000 1.000000 -0.000001
vn 0.000000 1.000000 -0.000001
vn 0.000000 1.000000 -0.000001
vn -0.000000 1.000000 -0.000001
vn -0.000000 1.000000 -0.000001
vn -0.000000 1.000000 -0.000001
vn -0.000000 1.000000 -0.000001
vn 0.000000 1.000000 -0.000001
vn -0.000000 1.000000 -0.000001
vn -0.000000 1.000000 -0.000001
vn -0.000000 1.000000 -0.000001
vn 0.000000 1.000000 -0.000001
vn -0.000000 1.000000 -0.000001
vn -0.000000 1.000000 -0.000001
vn -0.000000 1.000000 -0.000001
vn -0.000000 1.000000 -0.000001
vn -0.000000 1.000000 -0.000001
vn -0.000000 1.000000 -0.000001
vn -0.000000 1.000000 -0.000001
vn 0.000000 1.000000 -0.000001
vn 0.000000 1.000000 -0.000001
vn 0.000000 1.000000 -0.000001
vn 0.000000 1.000000 -0.000001
vn 0.000000 1.000000 -0.000001
vn 0.000000 1.000000 -0.000001
vn 0.000000 1.000000 -0.000001
vn 0.000000 1.000000 -0.000001
vn 0.000000 1.000000 -0.000001
vn -0.000000 1.000000 -0.000001
vn -0.000000 1.000000 -0.000001
vn -0.000000 1.000000 -0.000001
vn -0.000000 1.000000 -0.000001
vn -0.000000 1.000000 -0.000001
vn -0.000000 1.000000 -0.000000
vn 0.000000 1.000000 -0.000000
vn 0.000000 1.000000 -0.000001
vn 0.000000 1.000000 -0.000001
vn 0.000000 1.000000 -0.000000
vn 0.000000 1.000000 -0.000000
vn 0.000000 1.000000 0.000000
vn 0.000000 1.000000 0.000000
vn 0.000000 1.000000 0.000000
vn 0.000000 1.000000 0.000000
vn 0.000000 1.000000 0.000000
vn 0.000000 1.000000 0.000000
vn 0.000000 1.000000 0.000000
vn 0.000000 1.000000 0.000000
vn 0.000000 1.000000 0.000000
vn 0.000000 1.000000 0.000000
vn 0.000000 1.000000 0.000000
vn 0.000000 1.000000 0.000000
vn 0.000000 1.000000 0.000000
vn 0.000000 1.000000 0.000000
vn 0.000000 1.000000 0.000000
vn 0.000000 1.000000 0.000000
vn 0.000000 1.000000 0.000000
vn 0.000000 1.000000 0.000000
vn 0.000000 1.000000 0.000000
vn 0.000000 1.000000 0.000000
vn 0.000000 1.000000 0.000000
vn 0.000000 1.000000 0.000000
vn 0.000000 1.000000 0.000000
vn 0.000000 1.000000 0.000000
vn 0.000000 1.000000 0.000000
vn 0.000000 1.000000 0.000000
vn 0.000000 1.000000 0.000000
vn 0.000000 1.000000 0.000000
vn 0.000000 1.000000 0.000000
vn 0.000000 1.000000 0.000000
vn 0.000000 1.000000 0.000000
vn 0.000000 1.000000 0.000000
vn 0.000000 1.000000 0.000000
vn 0.000000 1.000000 0.000000
vn 0.000000 1.000000 0.000000
vn 0.000000 1.000000 0.000000
vn 0.000000 1.000000 0.000000
vn -0.000000 1.000000 0.000000
vn -0.000000 1.000000 0.000000
vn -0.000000 1.000000 0.000000
vn -0.000000 1.000000 0.000000
vn -0.000000 1.000000 0.000000
vn -0.000000 1.000000 0.000000
vn 0.000000 1.000000 0.000000
vn 0.000000 1.000000 0.000000
vn 0.000000 1.000000 0.000000
vn 0.000000 1.000000 0.000000
vn 0.000000 1.000000 0.000000
vn -0.000004 1.000000 0.000011
vn 0.000000 1.000000 0.000019
vn -0.000004 1.000000 0.000010
vn -0.000003 1.000000 0.000014
vn -0.000000 1.000000 0.000021
vn 0.000003 1.000000 0.000014
vn 0.000004 1.000000 0.000012
vn 0.000004 1.000000 0.000012
vn -0.000004 1.000000 -0.000000
vn -0.000000 1.000000 -0.000000
vn -0.000003 1.000000 -0.000000
vn 0.000000 1.000000 0.000000
vn 0.000004 1.000000 -0.000000
vn 0.000000 1.000000 -0.000000
vn 0.000003 1.000000 -0.000000
vn 0.000000 1.000000 -0.000000
vn -0.000000 1.000000 0.000000
vn -0.000000 1.000000 -0.000000
vn -0.000000 1.000000 -0.000000
vn 0.000000 1.000000 -0.000000
vn 0.000000 1.000000 -0.000000
vn 0.000000 1.000000 -0.000000
vn 0.000000 1.000000 -0.000000
vn 0.000000 1.000000 -0.000000
vn 0.000000 1.000000 -0.000000
vn 0.000000 1.000000 -0.000000
vn 0.000000 1.000000 -0.000000
vn 0.000000 1.000000 -0.000000
vn 0.000000 1.000000 -0.000000
vn 0.000000 1.000000 -0.000000
vn 0.000000 1.000000 -0.000000
vn 0.000000 1.000000 -0.000000
s 1
g polySurface8 polySurface6
usemtl initialShadingGroup
f 13/1/1 1/2/2 14/4/3
f 14/4/3 1/2/2 2/3/4
s 2
f 14/5/5 2/6/6 15/8/7
f 15/8/7 2/6/6 3/7/8
s 3
f 15/9/9 3/10/10 16/12/11
f 16/12/11 3/10/10 4/11/12
s 4
f 4/14/13 5/15/14 16/13/15
f 16/13/15 5/15/14 17/16/16
s 5
f 5/18/17 6/19/18 17/17/19
f 17/17/19 6/19/18 18/20/20
s 6
f 6/22/21 7/23/22 18/21/23
f 18/21/23 7/23/22 19/24/24
s 7
f 7/25/25 11/26/26 19/28/27
f 19/28/27 11/26/26 20/27/28
s 8
f 22/30/29 9/31/30 21/29/31
f 21/29/31 9/31/30 10/32/32
s 9
f 21/29/33 10/32/34 13/33/35
f 13/33/35 10/32/34 1/34/36
s 10
f 11/26/37 8/35/38 20/27/39
f 20/27/39 8/35/38 23/36/40
s 11
f 9/37/41 22/38/42 25/40/43
f 25/40/43 22/38/42 24/39/44
s 12
f 23/41/45 8/42/46 27/44/47
f 27/44/47 8/42/46 26/43/48
s 13
f 2/45/49 1/46/50 29/48/51
f 29/48/51 1/46/50 28/47/52
s 14
f 3/49/53 2/50/54 30/52/55
f 30/52/55 2/50/54 29/51/56
s 15
f 4/53/57 3/54/58 31/56/59
f 31/56/59 3/54/58 30/55/60
s 16
f 5/57/61 4/58/62 32/60/63
f 32/60/63 4/58/62 31/59/64
s 17
f 6/61/65 5/62/66 33/64/67
f 33/64/67 5/62/66 32/63/68
s 18
f 7/65/69 6/66/70 34/68/71
f 34/68/71 6/66/70 33/67/72
s 19
f 11/69/73 7/70/74 35/72/75
f 35/72/75 7/70/74 34/71/76
s 20
f 1/73/77 10/74/78 28/76/79
f 28/76/79 10/74/78 36/75/80
s 21
f 10/77/81 9/78/82 36/80/83
f 36/80/83 9/78/82 37/79/84
s 22
f 8/81/85 11/82/86 38/84/87
f 38/84/87 11/82/86 35/83/88
s 23
f 9/85/89 25/86/90 37/88/91
f 37/88/91 25/86/90 39/87/92
s 24
f 26/89/93 8/90/94 40/92/95
f 40/92/95 8/90/94 38/91/96
s 25
f 41/93/97 12/94/98 42/95/99
f 43/96/100 12/94/98 41/93/97
f 44/97/101 12/94/98 43/96/100
f 45/98/102 12/94/98 44/97/101
f 46/99/103 12/94/98 45/98/102
f 47/100/104 12/94/98 46/99/103
s 26
f 12/101/105 48/102/106 42/104/107
f 42/104/107 48/102/106 49/103/108
s 27
f 47/105/109 50/106/110 12/108/111
f 12/108/111 50/106/110 48/107/112
s 28
f 47/109/113 23/110/114 50/112/115
f 50/112/115 23/110/114 51/111/116
s 29
f 52/114/117 22/115/118 49/113/119
f 49/113/119 22/115/118 42/116/120
s 30
f 23/117/121 27/118/122 51/120/123
f 51/120/123 27/118/122 53/119/124
s 31
f 52/121/125 54/122/126 22/124/127
f 22/124/127 54/122/126 24/123/128
