# This file uses centimeters as units for non-parametric coordinates.

mtllib marrakech_circuit_land.mtl
g default
v -34.342001 -0.008637 37.387354
v 39.402946 -0.008637 37.387354
v -34.342001 -0.008637 -36.357593
v 39.402946 -0.008637 -36.357593
vt 0.000000 0.000000
vt 1.000000 0.000000
vt 0.000000 1.000000
vt 1.000000 1.000000
vn 0.000000 1.000000 0.000000
vn 0.000000 1.000000 0.000000
vn 0.000000 1.000000 0.000000
vn 0.000000 1.000000 0.000000
s 1
g pPlane1
usemtl initialShadingGroup
f 1/1/1 2/2/2 3/3/3
f 3/3/3 2/2/2 4/4/4
