# This file uses centimeters as units for non-parametric coordinates.

mtllib montreal_circuit_land.mtl
g shellDeformer1Set tweakSet1 tweakSet2 vectorAdjust1Set
v 22.339194 -0.007267 -30.179153
v 9.273685 -0.007267 -20.982392
v 9.932217 -0.007267 -20.200548
v 18.704250 -0.007267 -24.674832
v 30.313680 -0.007267 -31.918592
v 31.123329 -0.007267 -30.801001
v 22.989529 -0.007267 -25.445739
v 24.293120 -0.007267 -23.519189
v 37.456417 -0.007267 -31.712103
v 38.437478 -0.007267 -30.357907
v 26.234265 -0.007267 -22.323186
v 26.872500 -0.007267 -21.442206
v 31.610013 -0.007267 -24.068324
v 32.097132 -0.007267 -23.523092
v 41.555154 -0.007267 -28.724636
v 32.783962 -0.007267 -40.831854
v 31.603475 -0.007267 -39.387008
v 30.598040 -0.007267 -38.319404
v 29.898683 -0.007267 -37.657781
v 29.636445 -0.007267 -37.430858
v 38.530512 -0.002422 -25.535480
v 34.040048 -0.002422 -23.786880
v 32.555365 -0.002422 -22.434943
v 28.692198 -0.002422 -19.820468
v 25.191010 -0.002422 -16.462624
v 21.222160 -0.002422 -20.987344
v 19.508181 -0.002422 -20.206220
v 23.660617 -0.002422 -15.353916
v 21.293892 -0.002422 -14.276458
v 17.149983 -0.002422 -19.042820
v 15.620886 -0.002422 -18.387951
v 19.264305 -0.002422 -13.358798
v 16.521106 -0.002422 -12.599678
v 13.111101 -0.002422 -17.306641
v 11.928021 -0.002422 -16.672160
v 14.900379 -0.002422 -12.569298
v 12.141924 -0.002422 -11.714684
v 11.492746 -0.002422 -12.610769
v 13.597891 -0.002422 -13.360555
v 11.621182 -0.002422 -16.089083
v 4.342713 -0.002422 -12.827327
v 4.141068 -0.002422 -11.537467
v 9.520763 -0.002422 -12.694383
v 10.163967 -0.002422 -11.287337
v 2.007384 -0.002422 -9.439005
v -8.287828 -0.002422 -5.043397
v -8.421240 -0.002422 -4.570601
v -29.794267 -0.002422 4.549611
v -29.509795 -0.002422 4.942279
v -34.643300 -0.002422 6.926444
v -47.290028 -0.002422 7.122520
v -50.678605 -0.002422 4.426585
v -51.876741 -0.002422 5.294586
v -51.559445 -0.002422 5.732561
v -51.785580 -0.002422 6.172731
v -52.186258 -0.002422 6.340183
v -52.492017 -0.002422 7.083694
v -24.303846 -0.002422 45.992923
v 4.552768 -0.002422 54.503196
v 28.843918 -0.002422 31.048192
v 53.500168 -0.002422 19.042775
v 63.328137 -0.002422 1.329460
v 45.008924 -0.002422 -23.957263
v 43.659482 -0.002422 -24.315327
v -25.543511 0.002422 -11.717834
v -25.338123 0.002422 -10.078049
v -26.636692 0.002422 -8.776499
v -26.589963 0.002422 -7.843136
v -27.965123 0.002422 -6.647299
v -29.131951 0.002422 -7.145344
v -30.412069 0.002422 -8.912340
v -33.653835 0.002422 -6.203021
v -32.957931 0.002422 -4.373575
v -22.688531 0.002422 -5.180983
v -20.476137 0.002422 -5.348303
v -15.427949 0.002422 -7.662147
v -14.260453 0.002422 -9.759191
v -10.295903 0.002422 -14.066828
v -3.840187 0.002422 -18.029834
v 0.216678 0.002422 -22.580900
v 2.389404 0.002422 -24.784417
v 4.729875 0.002422 -30.962974
v 3.836343 0.002422 -32.196351
v 2.405794 0.002422 -32.687561
v -7.470857 0.002422 -28.487710
v -8.704234 0.002422 -27.594178
v -11.158027 0.002422 -26.891203
v -16.327699 0.002422 -21.894744
v -16.958170 0.002422 -20.539853
v -26.280896 0.002422 -12.619119
v -26.403068 0.007267 -11.548034
v -26.507181 0.007267 -12.094395
v -26.931845 0.007267 -12.055407
v -29.935466 0.007267 -9.610740
v -29.111464 0.007267 -9.585911
vt 0.900091 0.629200
vt 0.902322 0.792962
vt 0.891871 0.792197
vt 0.876260 0.692474
vt 0.866574 0.552544
vt 0.852428 0.552544
vt 0.856889 0.652267
vt 0.833057 0.653031
vt 0.821906 0.494495
vt 0.804765 0.494495
vt 0.811456 0.644111
vt 0.800305 0.644111
vt 0.793614 0.588992
vt 0.786159 0.588228
vt 0.772459 0.478437
vt 0.925707 0.478437
vt 0.920813 0.496925
vt 0.917997 0.511691
vt 0.916710 0.521475
vt 0.916404 0.525017
vt 0.461910 0.046278
vt 0.474399 0.094068
vt 0.472105 0.114523
vt 0.473635 0.162313
vt 0.466817 0.211569
vt 0.528243 0.217304
vt 0.532066 0.236229
vt 0.466817 0.230940
vt 0.472105 0.257065
vt 0.536591 0.262800
vt 0.540350 0.279431
vt 0.476693 0.279431
vt 0.486889 0.306767
vt 0.546467 0.306767
vt 0.548315 0.320404
vt 0.496383 0.320404
vt 0.505877 0.348441
vt 0.517220 0.348441
vt 0.510784 0.326457
vt 0.545320 0.326457
vt 0.562015 0.406490
vt 0.552521 0.415921
vt 0.529772 0.364307
vt 0.514225 0.367429
vt 0.547933 0.446252
vt 0.573357 0.558145
vt 0.570235 0.562096
vt 0.623059 0.794357
vt 0.618089 0.794357
vt 0.632490 0.848902
vt 0.706916 0.955060
vt 0.749672 0.966976
vt 0.749672 0.982142
vt 0.744128 0.982142
vt 0.741834 0.986666
vt 0.742854 0.990999
vt 0.738521 0.998008
vt 0.246025 0.998008
vt 0.001848 0.809650
vt 0.050467 0.466961
vt 0.001848 0.190095
vt 0.089782 0.001992
vt 0.409850 0.001992
vt 0.420938 0.011040
vt 0.850362 0.369022
vt 0.835515 0.377179
vt 0.832520 0.395785
vt 0.824491 0.401010
vt 0.822835 0.419616
vt 0.833986 0.426307
vt 0.856352 0.426307
vt 0.853357 0.469510
vt 0.833986 0.474735
vt 0.778931 0.384634
vt 0.767016 0.365263
vt 0.755864 0.309444
vt 0.766251 0.287142
vt 0.778167 0.228327
vt 0.772241 0.150907
vt 0.785622 0.089863
vt 0.790847 0.058576
vt 0.828060 0.001992
vt 0.843671 0.001992
vt 0.856352 0.010913
vt 0.880884 0.118155
vt 0.880884 0.133766
vt 0.889805 0.158362
vt 0.879419 0.231322
vt 0.871963 0.244704
vt 0.862278 0.369723
vt 0.759377 0.480858
vt 0.764538 0.478437
vt 0.766768 0.482197
vt 0.764538 0.521831
vt 0.759377 0.515140
vn 0.000000 1.000000 -0.000000
vn 0.000000 1.000000 -0.000000
vn 0.000000 1.000000 -0.000000
vn 0.000000 1.000000 -0.000000
vn 0.000000 1.000000 -0.000000
vn -0.000000 1.000000 0.000000
vn 0.000000 1.000000 -0.000000
vn 0.000000 1.000000 -0.000000
vn -0.000000 1.000000 0.000000
vn 0.000000 1.000000 -0.000000
vn 0.000000 1.000000 -0.000000
vn 0.000000 1.000000 -0.000000
vn 0.000000 1.000000 -0.000000
vn 0.000000 1.000000 -0.000000
vn 0.000000 1.000000 -0.000000
vn 0.000000 1.000000 -0.000000
vn -0.000000 1.000000 0.000000
vn 0.000000 1.000000 -0.000000
vn 0.000000 1.000000 -0.000000
vn -0.000000 1.000000 0.000000
vn 0.000000 1.000000 -0.000000
vn 0.000000 1.000000 -0.000000
vn 0.000000 1.000000 -0.000000
vn 0.000000 1.000000 -0.000000
vn -0.000000 1.000000 0.000000
vn -0.000000 1.000000 0.000000
vn 0.000000 1.000000 -0.000000
vn 0.000000 1.000000 -0.000000
vn 0.000000 1.000000 -0.000000
vn 0.000000 1.000000 -0.000000
vn 0.000000 1.000000 -0.000000
vn -0.000000 1.000000 0.000000
vn -0.000000 1.000000 0.000000
vn -0.000000 1.000000 0.000000
vn 0.000000 1.000000 -0.000000
vn 0.000000 1.000000 -0.000000
vn 0.000000 1.000000 -0.000000
vn -0.000000 1.000000 0.000000
vn -0.000000 1.000000 0.000000
vn -0.000000 1.000000 0.000000
vn -0.000000 1.000000 0.000000
vn -0.000000 1.000000 0.000000
vn -0.000000 1.000000 0.000000
vn 0.000000 1.000000 -0.000000
vn 0.000000 1.000000 -0.000000
vn 0.000000 1.000000 -0.000000
vn 0.000000 1.000000 -0.000000
vn 0.000000 1.000000 -0.000000
vn 0.000000 1.000000 -0.000000
vn 0.000000 1.000000 -0.000000
vn 0.000000 1.000000 -0.000000
vn 0.000000 1.000000 -0.000000
vn 0.000000 1.000000 -0.000000
vn 0.000000 1.000000 -0.000000
vn 0.000000 1.000000 -0.000000
vn 0.000000 1.000000 -0.000000
vn -0.000000 1.000000 0.000000
vn 0.000000 1.000000 -0.000000
vn 0.000000 1.000000 -0.000000
vn -0.000000 1.000000 0.000000
vn -0.000000 1.000000 0.000000
vn 0.000000 1.000000 -0.000000
vn 0.000000 1.000000 -0.000000
vn 0.000000 1.000000 -0.000000
vn 0.000000 1.000000 -0.000000
vn 0.000000 1.000000 -0.000000
vn 0.000000 1.000000 -0.000000
vn 0.000000 1.000000 -0.000000
vn -0.000000 1.000000 0.000000
vn -0.000000 1.000000 0.000000
vn -0.000000 1.000000 0.000000
vn 0.000000 1.000000 -0.000000
vn -0.000000 1.000000 0.000000
vn -0.000000 1.000000 0.000000
vn 0.000000 1.000000 -0.000000
vn -0.000000 1.000000 0.000000
vn 0.000000 1.000000 -0.000000
vn -0.000000 1.000000 0.000000
vn 0.000000 1.000000 -0.000000
vn -0.000000 1.000000 0.000000
vn 0.000000 1.000000 -0.000000
vn -0.000000 1.000000 0.000000
vn 0.000000 1.000000 -0.000000
vn -0.000000 1.000000 0.000000
vn 0.000000 1.000000 -0.000000
vn -0.000000 1.000000 0.000000
vn -0.000000 1.000000 0.000000
vn 0.000000 1.000000 -0.000000
vn 0.000000 1.000000 -0.000000
vn 0.000000 1.000000 -0.000000
vn 0.000000 1.000000 -0.000000
vn 0.000000 1.000000 -0.000000
vn -0.000000 1.000000 0.000000
vn -0.000000 1.000000 0.000000
vn -0.000000 1.000000 0.000000
s 1
g svgMesh1
usemtl svgBlinn1SG
f 16/16/1 17/17/2 15/15/3
f 2/2/4 3/3/5 1/1/6
f 3/3/5 4/4/7 1/1/6
f 4/4/7 5/5/8 1/1/6
f 1/1/6 5/5/8 20/20/9
f 17/17/2 18/18/10 15/15/3
f 11/11/11 12/12/12 10/10/13
f 12/12/12 13/13/14 10/10/13
f 7/7/15 8/8/16 6/6/17
f 8/8/16 9/9/18 6/6/17
f 13/13/14 14/14/19 10/10/13
f 14/14/19 15/15/3 10/10/13
f 18/18/10 19/19/20 15/15/3
f 19/19/20 20/20/9 15/15/3
f 6/6/17 9/9/18 5/5/8
f 5/5/8 9/9/18 20/20/9
f 20/20/9 9/9/18 15/15/3
f 9/9/18 10/10/13 15/15/3
s 5
f 42/42/21 43/43/22 41/41/23
f 41/41/23 43/43/22 40/40/24
f 40/40/24 43/43/22 39/39/25
f 39/39/25 43/43/22 38/38/26
f 43/43/22 44/44/27 38/38/26
f 27/27/28 28/28/29 26/26/30
f 26/26/30 28/28/29 25/25/31
f 31/31/32 32/32/33 30/30/34
f 30/30/34 32/32/33 29/29/35
f 48/48/36 49/49/37 47/47/38
f 35/35/39 36/36/40 34/34/41
f 34/34/41 36/36/40 33/33/42
f 38/38/26 44/44/27 37/37/43
f 53/53/44 54/54/45 52/52/46
f 52/52/46 54/54/45 51/51/47
f 54/54/45 55/55/48 51/51/47
f 62/62/49 63/63/50 61/61/51
f 61/61/51 63/63/50 60/60/52
f 63/63/50 64/64/53 60/60/52
f 64/64/53 21/21/54 60/60/52
f 21/21/54 22/22/55 60/60/52
f 22/22/55 23/23/56 60/60/52
f 23/23/56 24/24/57 60/60/52
f 24/24/57 25/25/31 60/60/52
f 25/25/31 28/28/29 60/60/52
f 28/28/29 29/29/35 60/60/52
f 29/29/35 32/32/33 60/60/52
f 32/32/33 33/33/42 60/60/52
f 33/33/42 36/36/40 60/60/52
f 36/36/40 37/37/43 60/60/52
f 37/37/43 44/44/27 60/60/52
f 44/44/27 45/45/58 60/60/52
f 45/45/58 46/46/59 60/60/52
f 46/46/59 47/47/38 60/60/52
f 60/60/52 47/47/38 59/59/60
f 59/59/60 47/47/38 58/58/61
f 47/47/38 49/49/37 58/58/61
f 49/49/37 50/50/62 58/58/61
f 50/50/62 51/51/47 58/58/61
f 58/58/61 51/51/47 57/57/63
f 51/51/47 55/55/48 57/57/63
f 55/55/48 56/56/64 57/57/63
s 12
f 71/71/65 72/72/66 70/70/67
f 72/72/66 73/73/68 70/70/67
f 90/90/69 65/65/70 89/89/71
f 70/70/67 73/73/68 69/69/72
f 73/73/68 74/74/73 69/69/72
f 69/69/72 74/74/73 68/68/74
f 82/82/75 83/83/76 81/81/77
f 83/83/76 84/84/78 81/81/77
f 84/84/78 85/85/79 81/81/77
f 81/81/77 85/85/79 80/80/80
f 80/80/80 85/85/79 79/79/81
f 85/85/79 86/86/82 79/79/81
f 79/79/81 86/86/82 78/78/83
f 86/86/82 87/87/84 78/78/83
f 87/87/84 88/88/85 78/78/83
f 88/88/85 89/89/71 78/78/83
f 78/78/83 89/89/71 77/77/86
f 89/89/71 65/65/70 77/77/86
f 77/77/86 65/65/70 76/76/87
f 76/76/87 65/65/70 75/75/88
f 65/65/70 66/66/89 75/75/88
f 75/75/88 66/66/89 74/74/73
f 66/66/89 67/67/90 74/74/73
f 67/67/90 68/68/74 74/74/73
s 15
f 94/94/91 95/95/92 93/93/93
f 92/92/94 93/93/93 91/91/95
f 91/91/95 93/93/93 95/95/92
g default
v 22.339194 -0.007267 -30.179153
v 9.273685 -0.007267 -20.982392
v 9.932217 -0.007267 -20.200548
v 18.704250 -0.007267 -24.674832
v 30.313680 -0.007267 -31.918592
v 31.123329 -0.007267 -30.801001
v 22.989529 -0.007267 -25.445739
v 24.293120 -0.007267 -23.519189
v 37.456417 -0.007267 -31.712103
v 38.437478 -0.007267 -30.357907
v 26.234265 -0.007267 -22.323186
v 26.872500 -0.007267 -21.442206
v 31.610013 -0.007267 -24.068324
v 32.097132 -0.007267 -23.523092
v 41.555154 -0.007267 -28.724636
v 32.783962 -0.007267 -40.831854
v 31.603475 -0.007267 -39.387008
v 30.598040 -0.007267 -38.319404
v 29.898683 -0.007267 -37.657781
v 29.636445 -0.007267 -37.430858
v 38.530512 -0.002422 -25.535480
v 34.040048 -0.002422 -23.786880
v 32.555365 -0.002422 -22.434943
v 28.692198 -0.002422 -19.820468
v 25.191010 -0.002422 -16.462624
v 21.222160 -0.002422 -20.987344
v 19.508181 -0.002422 -20.206220
v 23.660617 -0.002422 -15.353916
v 21.293892 -0.002422 -14.276458
v 17.149983 -0.002422 -19.042820
v 15.620886 -0.002422 -18.387951
v 19.264305 -0.002422 -13.358798
v 16.521106 -0.002422 -12.599678
v 13.111101 -0.002422 -17.306641
v 11.928021 -0.002422 -16.672160
v 14.900379 -0.002422 -12.569298
v 12.141924 -0.002422 -11.714684
v 11.492746 -0.002422 -12.610769
v 13.597891 -0.002422 -13.360555
v 11.621182 -0.002422 -16.089083
v 4.342713 -0.002422 -12.827327
v 4.141068 -0.002422 -11.537467
v 9.520763 -0.002422 -12.694383
v 10.163967 -0.002422 -11.287337
v 2.007384 -0.002422 -9.439005
v -8.287828 -0.002422 -5.043397
v -8.421240 -0.002422 -4.570601
v -29.794267 -0.002422 4.549611
v -29.509795 -0.002422 4.942279
v -34.643300 -0.002422 6.926444
v -47.290028 -0.002422 7.122520
v -50.678605 -0.002422 4.426585
v -51.876741 -0.002422 5.294586
v -51.559445 -0.002422 5.732561
v -51.785580 -0.002422 6.172731
v -52.186258 -0.002422 6.340183
v -52.492017 -0.002422 7.083694
v -24.303846 -0.002422 45.992923
v 4.552768 -0.002422 54.503196
v 28.843918 -0.002422 31.048192
v 53.500168 -0.002422 19.042775
v 63.328137 -0.002422 1.329460
v 45.008924 -0.002422 -23.957263
v 43.659482 -0.002422 -24.315327
v -25.543511 0.002422 -11.717834
v -25.338123 0.002422 -10.078049
v -26.636692 0.002422 -8.776499
v -26.589963 0.002422 -7.843136
v -27.965123 0.002422 -6.647299
v -29.131951 0.002422 -7.145344
v -30.412069 0.002422 -8.912340
v -33.653835 0.002422 -6.203021
v -32.957931 0.002422 -4.373575
v -22.688531 0.002422 -5.180983
v -20.476137 0.002422 -5.348303
v -15.427949 0.002422 -7.662147
v -14.260453 0.002422 -9.759191
v -10.295903 0.002422 -14.066828
v -3.840187 0.002422 -18.029834
v 0.216678 0.002422 -22.580900
v 2.389404 0.002422 -24.784417
v 4.729875 0.002422 -30.962974
v 3.836343 0.002422 -32.196351
v 2.405794 0.002422 -32.687561
v -7.470857 0.002422 -28.487710
v -8.704234 0.002422 -27.594178
v -11.158027 0.002422 -26.891203
v -16.327699 0.002422 -21.894744
v -16.958170 0.002422 -20.539853
v -26.280896 0.002422 -12.619119
v -26.403068 0.007267 -11.548034
v -26.507181 0.007267 -12.094395
v -26.931845 0.007267 -12.055407
v -29.935466 0.007267 -9.610740
v -29.111464 0.007267 -9.585911
vt 0.900091 0.629200
vt 0.902322 0.792962
vt 0.891871 0.792197
vt 0.876260 0.692474
vt 0.866574 0.552544
vt 0.852428 0.552544
vt 0.856889 0.652267
vt 0.833057 0.653031
vt 0.821906 0.494495
vt 0.804765 0.494495
vt 0.811456 0.644111
vt 0.800305 0.644111
vt 0.793614 0.588992
vt 0.786159 0.588228
vt 0.772459 0.478437
vt 0.925707 0.478437
vt 0.920813 0.496925
vt 0.917997 0.511691
vt 0.916710 0.521475
vt 0.916404 0.525017
vt 0.461910 0.046278
vt 0.474399 0.094068
vt 0.472105 0.114523
vt 0.473635 0.162313
vt 0.466817 0.211569
vt 0.528243 0.217304
vt 0.532066 0.236229
vt 0.466817 0.230940
vt 0.472105 0.257065
vt 0.536591 0.262800
vt 0.540350 0.279431
vt 0.476693 0.279431
vt 0.486889 0.306767
vt 0.546467 0.306767
vt 0.548315 0.320404
vt 0.496383 0.320404
vt 0.505877 0.348441
vt 0.517220 0.348441
vt 0.510784 0.326457
vt 0.545320 0.326457
vt 0.562015 0.406490
vt 0.552521 0.415921
vt 0.529772 0.364307
vt 0.514225 0.367429
vt 0.547933 0.446252
vt 0.573357 0.558145
vt 0.570235 0.562096
vt 0.623059 0.794357
vt 0.618089 0.794357
vt 0.632490 0.848902
vt 0.706916 0.955060
vt 0.749672 0.966976
vt 0.749672 0.982142
vt 0.744128 0.982142
vt 0.741834 0.986666
vt 0.742854 0.990999
vt 0.738521 0.998008
vt 0.246025 0.998008
vt 0.001848 0.809650
vt 0.050467 0.466961
vt 0.001848 0.190095
vt 0.089782 0.001992
vt 0.409850 0.001992
vt 0.420938 0.011040
vt 0.850362 0.369022
vt 0.835515 0.377179
vt 0.832520 0.395785
vt 0.824491 0.401010
vt 0.822835 0.419616
vt 0.833986 0.426307
vt 0.856352 0.426307
vt 0.853357 0.469510
vt 0.833986 0.474735
vt 0.778931 0.384634
vt 0.767016 0.365263
vt 0.755864 0.309444
vt 0.766251 0.287142
vt 0.778167 0.228327
vt 0.772241 0.150907
vt 0.785622 0.089863
vt 0.790847 0.058576
vt 0.828060 0.001992
vt 0.843671 0.001992
vt 0.856352 0.010913
vt 0.880884 0.118155
vt 0.880884 0.133766
vt 0.889805 0.158362
vt 0.879419 0.231322
vt 0.871963 0.244704
vt 0.862278 0.369723
vt 0.759377 0.480858
vt 0.764538 0.478437
vt 0.766768 0.482197
vt 0.764538 0.521831
vt 0.759377 0.515140
vn 0.000000 1.000000 -0.000000
vn 0.000000 1.000000 -0.000000
vn 0.000000 1.000000 -0.000000
vn 0.000000 1.000000 -0.000000
vn 0.000000 1.000000 -0.000000
vn -0.000000 1.000000 0.000000
vn 0.000000 1.000000 -0.000000
vn 0.000000 1.000000 -0.000000
vn -0.000000 1.000000 0.000000
vn 0.000000 1.000000 -0.000000
vn 0.000000 1.000000 -0.000000
vn 0.000000 1.000000 -0.000000
vn 0.000000 1.000000 -0.000000
vn 0.000000 1.000000 -0.000000
vn 0.000000 1.000000 -0.000000
vn 0.000000 1.000000 -0.000000
vn -0.000000 1.000000 0.000000
vn 0.000000 1.000000 -0.000000
vn 0.000000 1.000000 -0.000000
vn -0.000000 1.000000 0.000000
vn 0.000000 1.000000 -0.000000
vn 0.000000 1.000000 -0.000000
vn 0.000000 1.000000 -0.000000
vn 0.000000 1.000000 -0.000000
vn -0.000000 1.000000 0.000000
vn -0.000000 1.000000 0.000000
vn 0.000000 1.000000 -0.000000
vn 0.000000 1.000000 -0.000000
vn 0.000000 1.000000 -0.000000
vn 0.000000 1.000000 -0.000000
vn 0.000000 1.000000 -0.000000
vn -0.000000 1.000000 0.000000
vn -0.000000 1.000000 0.000000
vn -0.000000 1.000000 0.000000
vn 0.000000 1.000000 -0.000000
vn 0.000000 1.000000 -0.000000
vn 0.000000 1.000000 -0.000000
vn -0.000000 1.000000 0.000000
vn -0.000000 1.000000 0.000000
vn -0.000000 1.000000 0.000000
vn -0.000000 1.000000 0.000000
vn -0.000000 1.000000 0.000000
vn -0.000000 1.000000 0.000000
vn 0.000000 1.000000 -0.000000
vn 0.000000 1.000000 -0.000000
vn 0.000000 1.000000 -0.000000
vn 0.000000 1.000000 -0.000000
vn 0.000000 1.000000 -0.000000
vn 0.000000 1.000000 -0.000000
vn 0.000000 1.000000 -0.000000
vn 0.000000 1.000000 -0.000000
vn 0.000000 1.000000 -0.000000
vn 0.000000 1.000000 -0.000000
vn 0.000000 1.000000 -0.000000
vn 0.000000 1.000000 -0.000000
vn 0.000000 1.000000 -0.000000
vn -0.000000 1.000000 0.000000
vn 0.000000 1.000000 -0.000000
vn 0.000000 1.000000 -0.000000
vn -0.000000 1.000000 0.000000
vn -0.000000 1.000000 0.000000
vn 0.000000 1.000000 -0.000000
vn 0.000000 1.000000 -0.000000
vn 0.000000 1.000000 -0.000000
vn 0.000000 1.000000 -0.000000
vn 0.000000 1.000000 -0.000000
vn 0.000000 1.000000 -0.000000
vn 0.000000 1.000000 -0.000000
vn -0.000000 1.000000 0.000000
vn -0.000000 1.000000 0.000000
vn -0.000000 1.000000 0.000000
vn 0.000000 1.000000 -0.000000
vn -0.000000 1.000000 0.000000
vn -0.000000 1.000000 0.000000
vn 0.000000 1.000000 -0.000000
vn -0.000000 1.000000 0.000000
vn 0.000000 1.000000 -0.000000
vn -0.000000 1.000000 0.000000
vn 0.000000 1.000000 -0.000000
vn -0.000000 1.000000 0.000000
vn 0.000000 1.000000 -0.000000
vn -0.000000 1.000000 0.000000
vn 0.000000 1.000000 -0.000000
vn -0.000000 1.000000 0.000000
vn 0.000000 1.000000 -0.000000
vn -0.000000 1.000000 0.000000
vn -0.000000 1.000000 0.000000
vn 0.000000 1.000000 -0.000000
vn 0.000000 1.000000 -0.000000
vn 0.000000 1.000000 -0.000000
vn 0.000000 1.000000 -0.000000
vn 0.000000 1.000000 -0.000000
vn -0.000000 1.000000 0.000000
vn -0.000000 1.000000 0.000000
vn -0.000000 1.000000 0.000000
s 1
g svgMesh1
f 111/111/96 112/112/97 110/110/98
f 97/97/99 98/98/100 96/96/101
f 98/98/100 99/99/102 96/96/101
f 99/99/102 100/100/103 96/96/101
f 96/96/101 100/100/103 115/115/104
f 112/112/97 113/113/105 110/110/98
f 106/106/106 107/107/107 105/105/108
f 107/107/107 108/108/109 105/105/108
f 102/102/110 103/103/111 101/101/112
f 103/103/111 104/104/113 101/101/112
f 108/108/109 109/109/114 105/105/108
f 109/109/114 110/110/98 105/105/108
f 113/113/105 114/114/115 110/110/98
f 114/114/115 115/115/104 110/110/98
f 101/101/112 104/104/113 100/100/103
f 100/100/103 104/104/113 115/115/104
f 115/115/104 104/104/113 110/110/98
f 104/104/113 105/105/108 110/110/98
s 5
f 137/137/116 138/138/117 136/136/118
f 136/136/118 138/138/117 135/135/119
f 135/135/119 138/138/117 134/134/120
f 134/134/120 138/138/117 133/133/121
f 138/138/117 139/139/122 133/133/121
f 122/122/123 123/123/124 121/121/125
f 121/121/125 123/123/124 120/120/126
f 126/126/127 127/127/128 125/125/129
f 125/125/129 127/127/128 124/124/130
f 143/143/131 144/144/132 142/142/133
f 130/130/134 131/131/135 129/129/136
f 129/129/136 131/131/135 128/128/137
f 133/133/121 139/139/122 132/132/138
f 148/148/139 149/149/140 147/147/141
f 147/147/141 149/149/140 146/146/142
f 149/149/140 150/150/143 146/146/142
f 157/157/144 158/158/145 156/156/146
f 156/156/146 158/158/145 155/155/147
f 158/158/145 159/159/148 155/155/147
f 159/159/148 116/116/149 155/155/147
f 116/116/149 117/117/150 155/155/147
f 117/117/150 118/118/151 155/155/147
f 118/118/151 119/119/152 155/155/147
f 119/119/152 120/120/126 155/155/147
f 120/120/126 123/123/124 155/155/147
f 123/123/124 124/124/130 155/155/147
f 124/124/130 127/127/128 155/155/147
f 127/127/128 128/128/137 155/155/147
f 128/128/137 131/131/135 155/155/147
f 131/131/135 132/132/138 155/155/147
f 132/132/138 139/139/122 155/155/147
f 139/139/122 140/140/153 155/155/147
f 140/140/153 141/141/154 155/155/147
f 141/141/154 142/142/133 155/155/147
f 155/155/147 142/142/133 154/154/155
f 154/154/155 142/142/133 153/153/156
f 142/142/133 144/144/132 153/153/156
f 144/144/132 145/145/157 153/153/156
f 145/145/157 146/146/142 153/153/156
f 153/153/156 146/146/142 152/152/158
f 146/146/142 150/150/143 152/152/158
f 150/150/143 151/151/159 152/152/158
s 12
f 166/166/160 167/167/161 165/165/162
f 167/167/161 168/168/163 165/165/162
f 185/185/164 160/160/165 184/184/166
f 165/165/162 168/168/163 164/164/167
f 168/168/163 169/169/168 164/164/167
f 164/164/167 169/169/168 163/163/169
f 177/177/170 178/178/171 176/176/172
f 178/178/171 179/179/173 176/176/172
f 179/179/173 180/180/174 176/176/172
f 176/176/172 180/180/174 175/175/175
f 175/175/175 180/180/174 174/174/176
f 180/180/174 181/181/177 174/174/176
f 174/174/176 181/181/177 173/173/178
f 181/181/177 182/182/179 173/173/178
f 182/182/179 183/183/180 173/173/178
f 183/183/180 184/184/166 173/173/178
f 173/173/178 184/184/166 172/172/181
f 184/184/166 160/160/165 172/172/181
f 172/172/181 160/160/165 171/171/182
f 171/171/182 160/160/165 170/170/183
f 160/160/165 161/161/184 170/170/183
f 170/170/183 161/161/184 169/169/168
f 161/161/184 162/162/185 169/169/168
f 162/162/185 163/163/169 169/169/168
s 15
f 189/189/186 190/190/187 188/188/188
f 187/187/189 188/188/188 186/186/190
f 186/186/190 188/188/188 190/190/187
