# This file uses centimeters as units for non-parametric coordinates.

g newyork_land:default1
v -14.005129 0.000000 -3.360640
v -12.305099 0.000000 -2.168114
v -13.859122 0.000000 -0.050818
v -14.979373 0.000000 -0.898414
v -16.106865 0.000000 0.856229
v -17.350502 0.000000 0.086894
v -18.096628 0.000000 1.403250
v -15.118503 0.000000 3.511603
v -16.151140 0.000000 5.026517
v -17.109880 0.000000 4.427670
v -17.744408 0.000000 5.447381
v -16.755594 0.000000 6.087013
v -18.900604 0.000000 8.062887
v -18.548361 0.000000 10.778487
v -23.203669 0.000000 11.726439
v -22.801128 0.000000 13.220036
v -13.119164 0.000000 11.407526
v -12.999511 0.000000 12.200012
v -18.175959 0.000000 13.282564
v -17.487471 0.000000 16.564425
v -12.279259 0.000000 15.708166
v -12.121192 0.000000 16.637150
v -15.647567 0.000000 17.286657
v -16.251173 0.000000 21.512892
v -14.033813 0.000000 22.887007
v -14.017563 0.000000 24.568565
v -15.236820 0.000000 26.321550
v -14.123035 0.000000 27.039513
v -14.905814 0.000000 28.156528
v -13.971941 0.000000 28.774422
v -14.972956 0.000000 30.209427
v -16.019945 0.000000 29.483238
v -22.852160 0.000000 34.283291
v -29.421167 0.000000 30.505730
v -30.228842 0.000000 31.364513
v -31.066282 0.000000 30.663475
v -22.345156 0.000000 15.133339
v -25.020166 0.000000 13.266223
v -25.095289 0.000000 14.784540
v -32.210041 0.000000 27.524944
g newyork_land:shellDeformer3Set newyork_land:tweakSet5 newyork_land:tweakSet6 newyork_land:vectorAdjust3Set
v -32.613029 0.000000 28.771742
v -32.514484 0.000000 30.033417
v -31.952818 0.000000 31.167496
v -30.966425 0.000000 32.031532
v -23.982561 0.000000 36.059887
v -23.438894 0.000000 36.278702
v -22.866564 0.000000 36.336113
v -22.299501 0.000000 36.234394
v -21.771643 0.000000 35.975834
v -14.230518 0.000000 30.843990
v -8.802024 0.000000 34.759464
v -3.048687 0.000000 31.109446
v -2.309735 0.000000 32.146973
v -8.905596 0.000000 36.670864
v -8.203074 0.000000 37.566898
v -6.919592 0.000000 38.323120
v -4.559681 0.000000 42.081482
v -1.555786 0.000000 40.139305
v 3.285765 0.000000 46.866642
v 27.638308 0.000000 56.502361
g newyork_land:default1
v 58.438625 0.000000 -21.339886
v 55.966415 0.000000 -22.318085
v 35.715012 0.000000 -10.888103
v 32.742126 0.000000 -15.068077
v 30.976246 0.000000 -13.860610
v 35.920135 0.000000 -6.705777
v 34.853794 0.000000 -5.937790
v 33.667385 0.000000 -7.406522
v 32.992008 0.000000 -6.911284
v 28.865505 0.000000 -13.124634
v 27.081848 0.000000 -11.872220
v 29.945684 0.000000 -7.781611
v 28.021357 0.000000 -6.538648
v 25.019072 0.000000 -11.111486
v 23.154392 0.000000 -9.654305
v 25.614258 0.000000 -6.104769
v 23.866173 0.000000 -4.942258
v 20.992086 0.000000 -9.371948
v 19.047497 0.000000 -7.946390
v 21.851692 0.000000 -4.069997
v 20.387413 0.000000 -3.026237
v 18.971302 0.000000 -5.111496
v 15.616169 0.000000 -6.150232
v 6.709583 0.000000 -5.567417
v 6.676353 0.000000 -4.315553
v 9.371797 0.000000 -4.456273
v 9.140786 0.000000 -0.879740
v -0.725250 0.000000 0.784843
v -1.063480 0.000000 -1.382236
v -0.415292 0.000000 -1.414578
v -0.442465 0.000000 -3.083125
v 4.916191 0.000000 -3.180928
v 4.893073 0.000000 -5.633444
v -1.581052 0.000000 -5.636203
v -1.600236 0.000000 -5.164362
v -8.255305 0.000000 -5.279156
v -8.678176 0.000000 -5.538892
v -13.352059 0.000000 -4.222833
v 7.199888 0.000000 -16.297461
v 9.401058 0.000000 -15.790776
v 11.572034 0.000000 -16.088198
v 13.503756 0.000000 -17.122002
v 14.987155 0.000000 -18.824455
v 16.952227 0.000000 -22.148115
v 16.626274 0.000000 -27.517187
v 13.276728 0.000000 -31.626507
v 9.487389 0.000000 -34.086449
v 8.864778 0.000000 -34.357777
v 8.205935 0.000000 -34.409424
v 7.565769 0.000000 -34.246601
v 6.999194 0.000000 -33.874546
v 5.512520 0.000000 -32.501347
v -13.121572 0.000000 -27.041630
v -15.391528 0.000000 -25.358570
v -15.940118 0.000000 -22.834793
v -14.873825 0.000000 -20.480925
v -12.299123 0.000000 -19.307590
v 4.766961 0.000000 -18.042387
vt 0.067783 0.481979
vt 0.091811 0.476228
vt 0.083887 0.446001
vt 0.067783 0.450474
vt 0.062990 0.426126
vt 0.045864 0.429194
vt 0.043371 0.411364
vt 0.085548 0.401076
vt 0.080756 0.379796
vt 0.067527 0.382224
vt 0.064971 0.368165
vt 0.078711 0.365417
vt 0.063629 0.334168
vt 0.079414 0.305666
vt 0.032060 0.274800
vt 0.043052 0.260039
vt 0.142232 0.322473
vt 0.147025 0.314230
vt 0.094495 0.279593
vt 0.116478 0.246299
vt 0.170350 0.278571
vt 0.176165 0.268985
vt 0.139995 0.246363
vt 0.151817 0.196965
vt 0.182364 0.191469
vt 0.189905 0.172937
vt 0.184089 0.148206
vt 0.199554 0.145138
vt 0.195784 0.129354
vt 0.208820 0.126606
vt 0.204028 0.106348
vt 0.189266 0.109799
vt 0.134691 0.026787
vt 0.045480 0.039824
vt 0.040304 0.026787
vt 0.027971 0.030877
vt 0.056472 0.240867
vt 0.018704 0.249814
vt 0.024520 0.232687
vt 0.001578 0.060592
vt 0.002577 0.045035
vt 0.009191 0.031508
vt 0.020369 0.021420
vt 0.035064 0.016179
vt 0.129962 0.002184
vt 0.136935 0.002143
vt 0.143518 0.004013
vt 0.149346 0.007621
vt 0.154054 0.012792
vt 0.215019 0.102578
vt 0.292216 0.083023
vt 0.339889 0.148589
vt 0.352606 0.140345
vt 0.299437 0.061423
vt 0.311132 0.054585
vt 0.328641 0.051838
vt 0.371202 0.020588
vt 0.395933 0.055225
vt 0.478945 0.001992
vt 0.790543 0.001992
vt 0.790543 0.998008
vt 0.758911 0.998008
vt 0.584898 0.782905
vt 0.533711 0.816136
vt 0.519460 0.795047
vt 0.605476 0.737533
vt 0.597040 0.724369
vt 0.577486 0.735424
vt 0.572182 0.726989
vt 0.499330 0.777665
vt 0.485080 0.756002
vt 0.534670 0.723283
vt 0.518821 0.701108
vt 0.465589 0.738556
vt 0.451338 0.714272
vt 0.494090 0.685771
vt 0.479839 0.665257
vt 0.428652 0.701683
vt 0.413379 0.677399
vt 0.461371 0.646789
vt 0.449740 0.628832
vt 0.424945 0.645702
vt 0.383280 0.642507
vt 0.287295 0.597071
vt 0.292407 0.583076
vt 0.321612 0.596432
vt 0.334712 0.555853
vt 0.232848 0.494249
vt 0.219620 0.516743
vt 0.226650 0.519938
vt 0.219045 0.538279
vt 0.277901 0.562818
vt 0.266910 0.589850
vt 0.195273 0.561540
vt 0.197126 0.556236
vt 0.122997 0.528374
vt 0.117181 0.529396
vt 0.071234 0.494376
vt 0.140807 0.222368
vt 0.151600 0.151205
vt 0.185866 0.090364
vt 0.239147 0.045246
vt 0.306984 0.021252
vt 0.428506 0.001992
vt 0.583775 0.074599
vt 0.666267 0.222028
vt 0.694730 0.363150
vt 0.695471 0.384780
vt 0.689276 0.404908
vt 0.676946 0.421967
vt 0.659279 0.434393
vt 0.601160 0.462345
vt 0.220912 0.950480
vt 0.144428 0.998008
vt 0.063215 0.984674
vt 0.005969 0.925481
vt 0.001388 0.835434
vt 0.163986 0.314916
vn 0.000000 1.000000 0.000000
vn 0.000000 1.000000 0.000000
vn 0.000000 1.000000 0.000000
vn 0.000000 1.000000 0.000000
vn 0.000000 1.000000 0.000000
vn 0.000000 1.000000 0.000000
vn 0.000000 1.000000 0.000000
vn -0.000000 1.000000 -0.000000
vn 0.000000 1.000000 0.000000
vn -0.000000 1.000000 -0.000000
vn 0.000000 1.000000 0.000000
vn 0.000000 1.000000 0.000000
vn 0.000000 1.000000 0.000000
vn 0.000000 1.000000 0.000000
vn 0.000000 1.000000 0.000000
vn 0.000000 1.000000 0.000000
vn 0.000000 1.000000 0.000000
vn 0.000000 1.000000 0.000000
vn 0.000000 1.000000 0.000000
vn 0.000000 1.000000 0.000000
vn 0.000000 1.000000 0.000000
vn 0.000000 1.000000 0.000000
vn 0.000000 1.000000 0.000000
vn 0.000000 1.000000 0.000000
vn 0.000000 1.000000 0.000000
vn 0.000000 1.000000 0.000000
vn 0.000000 1.000000 0.000000
vn 0.000000 1.000000 0.000000
vn 0.000000 1.000000 0.000000
vn 0.000000 1.000000 0.000000
vn 0.000000 1.000000 0.000000
vn 0.000000 1.000000 0.000000
vn 0.000000 1.000000 0.000000
vn 0.000000 1.000000 0.000000
vn 0.000000 1.000000 0.000000
vn 0.000000 1.000000 0.000000
vn 0.000000 1.000000 0.000000
vn 0.000000 1.000000 0.000000
vn 0.000000 1.000000 0.000000
vn 0.000000 1.000000 0.000000
vn 0.000000 1.000000 0.000000
vn 0.000000 1.000000 0.000000
vn 0.000000 1.000000 0.000000
vn 0.000000 1.000000 0.000000
vn 0.000000 1.000000 0.000000
vn 0.000000 1.000000 0.000000
vn 0.000000 1.000000 0.000000
vn 0.000000 1.000000 0.000000
vn 0.000000 1.000000 0.000000
vn 0.000000 1.000000 0.000000
vn 0.000000 1.000000 0.000000
vn 0.000000 1.000000 0.000000
vn -0.000000 1.000000 -0.000000
vn 0.000000 1.000000 0.000000
vn 0.000000 1.000000 0.000000
vn 0.000000 1.000000 0.000000
vn 0.000000 1.000000 0.000000
vn 0.000000 1.000000 0.000000
vn 0.000000 1.000000 0.000000
vn 0.000000 1.000000 0.000000
vn 0.000000 1.000000 0.000000
vn 0.000000 1.000000 0.000000
vn 0.000000 1.000000 0.000000
vn 0.000000 1.000000 0.000000
vn 0.000000 1.000000 0.000000
vn 0.000000 1.000000 0.000000
vn 0.000000 1.000000 0.000000
vn 0.000000 1.000000 0.000000
vn 0.000000 1.000000 0.000000
vn 0.000000 1.000000 0.000000
vn 0.000000 1.000000 0.000000
vn 0.000000 1.000000 0.000000
vn 0.000000 1.000000 0.000000
vn 0.000000 1.000000 0.000000
vn 0.000000 1.000000 0.000000
vn 0.000000 1.000000 0.000000
vn 0.000000 1.000000 0.000000
vn 0.000000 1.000000 0.000000
vn 0.000000 1.000000 0.000000
vn 0.000000 1.000000 0.000000
vn 0.000000 1.000000 0.000000
vn 0.000000 1.000000 0.000000
vn 0.000000 1.000000 0.000000
vn 0.000000 1.000000 0.000000
vn 0.000000 1.000000 0.000000
vn 0.000000 1.000000 0.000000
vn 0.000000 1.000000 0.000000
vn 0.000000 1.000000 0.000000
vn 0.000000 1.000000 0.000000
vn 0.000000 1.000000 0.000000
vn 0.000000 1.000000 0.000000
vn 0.000000 1.000000 0.000000
vn 0.000000 1.000000 0.000000
vn 0.000000 1.000000 0.000000
vn 0.000000 1.000000 0.000000
vn 0.000000 1.000000 0.000000
vn 0.000000 1.000000 0.000000
vn 0.000000 1.000000 0.000000
vn 0.000000 1.000000 0.000000
vn 0.000000 1.000000 0.000000
vn 0.000000 1.000000 0.000000
vn 0.000000 1.000000 0.000000
vn 0.000000 1.000000 0.000000
vn 0.000000 1.000000 0.000000
vn 0.000000 1.000000 0.000000
vn 0.000000 1.000000 0.000000
vn 0.000000 1.000000 0.000000
vn 0.000000 1.000000 0.000000
vn 0.000000 1.000000 0.000000
vn 0.000000 1.000000 0.000000
vn 0.000000 1.000000 0.000000
vn 0.000000 1.000000 0.000000
vn 0.000000 1.000000 0.000000
vn 0.000000 1.000000 0.000000
vn 0.000000 1.000000 0.000000
vn 0.000000 1.000000 0.000000
vn 0.000000 1.000000 0.000000
vn 0.000000 1.000000 0.000000
vn 0.000000 1.000000 0.000000
vn -0.000000 1.000000 -0.000000
vn -0.000000 1.000000 -0.000000
vn 0.000000 1.000000 0.000000
vn 0.000000 1.000000 0.000000
vn 0.000000 1.000000 0.000000
vn 0.000000 1.000000 0.000000
vn 0.000000 1.000000 0.000000
vn 0.000000 1.000000 0.000000
vn 0.000000 1.000000 0.000000
vn 0.000000 1.000000 0.000000
vn 0.000000 1.000000 0.000000
vn 0.000000 1.000000 0.000000
vn 0.000000 1.000000 0.000000
vn 0.000000 1.000000 0.000000
vn 0.000000 1.000000 0.000000
vn 0.000000 1.000000 0.000000
vn 0.000000 1.000000 0.000000
vn 0.000000 1.000000 0.000000
vn -0.000000 1.000000 -0.000000
vn 0.000000 1.000000 0.000000
vn 0.000000 1.000000 0.000000
vn 0.000000 1.000000 0.000000
vn 0.000000 1.000000 0.000000
vn 0.000000 1.000000 0.000000
vn 0.000000 1.000000 0.000000
vn 0.000000 1.000000 0.000000
vn 0.000000 1.000000 0.000000
vn 0.000000 1.000000 0.000000
vn 0.000000 1.000000 0.000000
vn 0.000000 1.000000 0.000000
vn 0.000000 1.000000 0.000000
vn 0.000000 1.000000 0.000000
vn 0.000000 1.000000 0.000000
vn 0.000000 1.000000 0.000000
vn 0.000000 1.000000 0.000000
vn 0.000000 1.000000 0.000000
vn 0.000000 1.000000 0.000000
vn 0.000000 1.000000 0.000000
vn 0.000000 1.000000 0.000000
vn 0.000000 1.000000 0.000000
vn 0.000000 1.000000 0.000000
vn 0.000000 1.000000 0.000000
vn 0.000000 1.000000 0.000000
vn 0.000000 1.000000 0.000000
vn 0.000000 1.000000 0.000000
vn 0.000000 1.000000 0.000000
vn 0.000000 1.000000 0.000000
vn 0.000000 1.000000 0.000000
vn 0.000000 1.000000 0.000000
vn 0.000000 1.000000 0.000000
vn 0.000000 1.000000 0.000000
vn 0.000000 1.000000 0.000000
vn 0.000000 1.000000 0.000000
vn 0.000000 1.000000 0.000000
vn 0.000000 1.000000 0.000000
vn 0.000000 1.000000 0.000000
vn 0.000000 1.000000 0.000000
vn 0.000000 1.000000 0.000000
vn 0.000000 1.000000 0.000000
vn 0.000000 1.000000 0.000000
vn 0.000000 1.000000 0.000000
vn 0.000000 1.000000 0.000000
vn 0.000000 1.000000 0.000000
vn 0.000000 1.000000 0.000000
vn 0.000000 1.000000 0.000000
vn 0.000000 1.000000 0.000000
vn 0.000000 1.000000 0.000000
vn 0.000000 1.000000 0.000000
vn 0.000000 1.000000 0.000000
vn 0.000000 1.000000 0.000000
vn 0.000000 1.000000 0.000000
vn -0.000000 1.000000 -0.000000
vn 0.000000 1.000000 0.000000
vn 0.000000 1.000000 0.000000
vn -0.000000 1.000000 -0.000000
vn 0.000000 1.000000 0.000000
vn 0.000000 1.000000 0.000000
vn -0.000000 1.000000 -0.000000
vn 0.000000 1.000000 0.000000
vn 0.000000 1.000000 0.000000
vn -0.000000 1.000000 -0.000000
vn 0.000000 1.000000 0.000000
vn 0.000000 1.000000 0.000000
vn 0.000000 1.000000 0.000000
vn 0.000000 1.000000 0.000000
vn 0.000000 1.000000 0.000000
vn 0.000000 1.000000 0.000000
vn 0.000000 1.000000 0.000000
vn 0.000000 1.000000 0.000000
vn 0.000000 1.000000 0.000000
vn -0.000000 1.000000 -0.000000
vn 0.000000 1.000000 0.000000
vn 0.000000 1.000000 0.000000
vn -0.000000 1.000000 -0.000000
vn 0.000000 1.000000 0.000000
vn 0.000000 1.000000 0.000000
vn -0.000000 1.000000 -0.000000
vn 0.000000 1.000000 0.000000
vn 0.000000 1.000000 0.000000
vn -0.000000 1.000000 -0.000000
vn 0.000000 1.000000 0.000000
vn 0.000000 1.000000 0.000000
vn -0.000000 1.000000 -0.000000
vn 0.000000 1.000000 0.000000
vn 0.000000 1.000000 0.000000
vn -0.000000 1.000000 -0.000000
vn 0.000000 1.000000 0.000000
vn 0.000000 1.000000 0.000000
vn -0.000000 1.000000 -0.000000
vn 0.000000 1.000000 0.000000
vn 0.000000 1.000000 0.000000
vn -0.000000 1.000000 -0.000000
vn 0.000000 1.000000 0.000000
vn 0.000000 1.000000 0.000000
vn -0.000000 1.000000 -0.000000
vn -0.000000 1.000000 -0.000000
vn 0.000000 1.000000 0.000000
vn 0.000000 1.000000 0.000000
vn 0.000000 1.000000 0.000000
vn 0.000000 1.000000 0.000000
vn 0.000000 1.000000 0.000000
vn 0.000000 1.000000 0.000000
vn 0.000000 1.000000 0.000000
vn 0.000000 1.000000 0.000000
vn 0.000000 1.000000 0.000000
vn 0.000000 1.000000 0.000000
vn 0.000000 1.000000 0.000000
vn 0.000000 1.000000 0.000000
vn 0.000000 1.000000 0.000000
vn 0.000000 1.000000 0.000000
vn 0.000000 1.000000 0.000000
vn 0.000000 1.000000 0.000000
vn 0.000000 1.000000 0.000000
vn 0.000000 1.000000 0.000000
vn 0.000000 1.000000 0.000000
vn 0.000000 1.000000 0.000000
vn 0.000000 1.000000 0.000000
vn 0.000000 1.000000 0.000000
vn 0.000000 1.000000 0.000000
vn 0.000000 1.000000 0.000000
vn 0.000000 1.000000 0.000000
vn 0.000000 1.000000 0.000000
vn 0.000000 1.000000 0.000000
vn 0.000000 1.000000 0.000000
vn 0.000000 1.000000 0.000000
vn 0.000000 1.000000 0.000000
vn 0.000000 1.000000 0.000000
vn 0.000000 1.000000 0.000000
vn 0.000000 1.000000 0.000000
vn 0.000000 1.000000 0.000000
vn 0.000000 1.000000 0.000000
vn 0.000000 1.000000 0.000000
vn 0.000000 1.000000 0.000000
vn 0.000000 1.000000 0.000000
vn 0.000000 1.000000 0.000000
vn 0.000000 1.000000 0.000000
vn 0.000000 1.000000 0.000000
vn 0.000000 1.000000 0.000000
vn 0.000000 1.000000 0.000000
vn 0.000000 1.000000 0.000000
vn 0.000000 1.000000 0.000000
vn 0.000000 1.000000 0.000000
vn 0.000000 1.000000 0.000000
vn 0.000000 1.000000 0.000000
vn 0.000000 1.000000 0.000000
vn 0.000000 1.000000 0.000000
vn 0.000000 1.000000 0.000000
vn 0.000000 1.000000 0.000000
vn 0.000000 1.000000 0.000000
vn 0.000000 1.000000 0.000000
vn 0.000000 1.000000 0.000000
vn 0.000000 1.000000 0.000000
vn 0.000000 1.000000 0.000000
vn 0.000000 1.000000 0.000000
vn 0.000000 1.000000 0.000000
vn 0.000000 1.000000 0.000000
vn 0.000000 1.000000 0.000000
vn 0.000000 1.000000 0.000000
vn 0.000000 1.000000 0.000000
vn 0.000000 1.000000 0.000000
vn 0.000000 1.000000 0.000000
vn 0.000000 1.000000 0.000000
vn 0.000000 1.000000 0.000000
vn 0.000000 1.000000 0.000000
vn 0.000000 1.000000 0.000000
vn 0.000000 1.000000 0.000000
vn 0.000000 1.000000 0.000000
vn 0.000000 1.000000 0.000000
vn 0.000000 1.000000 0.000000
vn 0.000000 1.000000 0.000000
vn 0.000000 1.000000 0.000000
vn 0.000000 1.000000 0.000000
vn 0.000000 1.000000 0.000000
vn 0.000000 1.000000 0.000000
vn 0.000000 1.000000 0.000000
vn 0.000000 1.000000 0.000000
vn 0.000000 1.000000 0.000000
vn 0.000000 1.000000 0.000000
vn 0.000000 1.000000 0.000000
vn 0.000000 1.000000 0.000000
vn 0.000000 1.000000 0.000000
vn 0.000000 1.000000 0.000000
vn 0.000000 1.000000 0.000000
vn 0.000000 1.000000 0.000000
vn 0.000000 1.000000 0.000000
vn 0.000000 1.000000 0.000000
vn 0.000000 1.000000 0.000000
vn 0.000000 1.000000 0.000000
vn 0.000000 1.000000 0.000000
vn 0.000000 1.000000 0.000000
vn 0.000000 1.000000 0.000000
vn 0.000000 1.000000 0.000000
vn 0.000000 1.000000 0.000000
vn 0.000000 1.000000 0.000000
vn 0.000000 1.000000 0.000000
vn 0.000000 1.000000 0.000000
vn 0.000000 1.000000 0.000000
vn 0.000000 1.000000 0.000000
vn 0.000000 1.000000 0.000000
vn 0.000000 1.000000 0.000000
vn 0.000000 1.000000 0.000000
vn 0.000000 1.000000 0.000000
vn 0.000000 1.000000 0.000000
s off
g newyork_land:polySurface2 newyork_land:polySurface1
f 38/38/1 39/39/2 37/37/3
f 37/37/4 39/39/5 36/36/6
f 39/39/7 40/40/8 36/36/9
f 40/40/10 41/41/11 36/36/12
f 41/41/13 42/42/14 36/36/15
f 42/42/16 43/43/17 36/36/18
f 43/43/19 44/44/20 36/36/21
f 36/36/22 44/44/23 35/35/24
f 44/44/25 45/45/26 35/35/27
f 35/35/28 45/45/29 34/34/30
f 34/34/31 45/45/32 33/33/33
f 45/45/34 46/46/35 33/33/36
f 46/46/37 47/47/38 33/33/39
f 47/47/40 48/48/41 33/33/42
f 48/48/43 49/49/44 33/33/45
f 4/4/46 5/5/47 3/3/48
f 54/54/49 55/55/50 53/53/51
f 55/55/52 56/56/53 53/53/54
f 74/74/55 75/75/56 73/73/57
f 75/75/58 76/76/59 73/73/60
f 85/85/61 86/86/62 84/84/63
f 84/84/64 86/86/65 83/83/66
f 1/1/67 2/2/68 98/98/69
f 98/98/70 2/2/71 97/97/72
f 6/6/73 7/7/74 5/5/75
f 7/7/76 8/8/77 5/5/78
f 15/15/79 16/16/80 14/14/81
f 16/16/82 17/17/83 14/14/84
f 27/27/85 28/28/86 26/26/87
f 78/78/88 79/79/89 77/77/90
f 79/79/91 80/80/92 77/77/93
f 10/10/94 11/11/95 9/9/96
f 11/11/97 12/12/98 9/9/99
f 19/19/100 20/20/101 18/18/102
f 20/20/103 21/21/104 18/18/105
f 29/29/106 30/30/107 28/28/108
f 49/49/109 50/50/110 33/33/111
f 33/33/112 50/50/113 32/32/114
f 32/32/115 50/50/116 31/31/117
f 57/57/118 58/58/119 56/56/120
f 56/56/121 58/58/122 53/53/123
f 60/60/124 61/61/125 59/59/126
f 61/61/127 62/62/128 59/59/129
f 59/59/130 62/62/131 58/58/132
f 58/58/133 62/62/134 53/53/135
f 53/53/136 62/62/137 52/52/138
f 65/65/139 66/66/140 64/64/141
f 64/64/142 66/66/143 63/63/144
f 70/70/145 71/71/146 69/69/147
f 71/71/148 72/72/149 69/69/150
f 5/5/151 8/8/152 3/3/153
f 92/92/154 93/93/155 91/91/156
f 93/93/157 94/94/158 91/91/159
f 94/94/160 95/95/161 91/91/162
f 68/68/163 69/69/164 67/67/165
f 90/90/166 91/91/167 89/89/168
f 31/31/169 50/50/170 30/30/171
f 14/14/172 17/17/173 13/13/174
f 13/13/175 17/17/176 12/12/177
f 97/97/178 2/2/179 96/96/180
f 23/23/181 24/24/182 22/22/183
f 24/24/184 25/25/185 22/22/186
f 86/86/187 87/87/188 83/83/189
f 51/51/190 52/52/191 50/50/192
f 50/50/193 52/52/194 30/30/195
f 30/30/196 52/52/197 28/28/198
f 28/28/199 52/52/200 26/26/201
f 12/12/202 17/17/203 9/9/204
f 63/63/205 66/66/206 62/62/207
f 62/62/208 66/66/209 52/52/210
f 66/66/211 67/67/212 52/52/213
f 67/67/214 69/69/215 52/52/216
f 69/69/217 72/72/218 52/52/219
f 72/72/220 73/73/221 52/52/222
f 73/73/223 76/76/224 52/52/225
f 76/76/226 77/77/227 52/52/228
f 77/77/229 80/80/230 52/52/231
f 80/80/232 81/81/233 52/52/234
f 52/52/235 81/81/236 26/26/237
f 26/26/238 81/81/239 25/25/240
f 25/25/241 81/81/242 22/22/243
f 22/22/244 81/81/245 21/21/246
f 21/21/247 81/81/248 18/18/249
f 18/18/250 81/81/251 17/17/252
f 81/81/253 82/82/254 17/17/255
f 9/9/256 17/17/257 8/8/258
f 95/95/259 96/96/260 91/91/261
f 91/91/262 96/96/263 89/89/264
f 96/96/265 2/2/266 89/89/267
f 89/89/268 2/2/269 88/88/270
f 2/2/271 3/3/272 88/88/273
f 3/3/274 8/8/275 88/88/276
f 8/8/277 17/17/278 88/88/279
f 83/83/280 87/87/281 82/82/282
f 82/82/283 87/87/284 17/17/285
f 17/17/286 87/87/287 88/88/288
f 114/114/289 115/115/290 113/113/291
f 115/115/292 116/116/293 113/113/294
f 116/116/295 117/117/296 113/113/297
f 113/113/298 117/117/299 112/112/300
f 117/117/301 118/118/302 112/112/303
f 118/118/304 99/99/305 112/112/306
f 99/99/307 100/100/308 112/112/309
f 100/100/310 101/101/311 112/112/312
f 101/101/313 102/102/314 112/112/315
f 102/102/316 103/103/317 112/112/318
f 103/103/319 104/104/320 112/112/321
f 104/104/322 105/105/323 112/112/324
f 105/105/325 106/106/326 112/112/327
f 112/112/328 106/106/329 111/111/330
f 111/111/331 106/106/332 110/110/333
f 110/110/334 106/106/335 109/109/336
f 108/108/337 109/109/338 107/107/339
f 106/106/340 107/107/341 109/109/342
