# This file uses centimeters as units for non-parametric coordinates.

mtllib newyork_land.mtl
g default
v -14.005129 0.000000 -3.360640
v -12.305099 0.000000 -2.168114
v -13.859122 0.000000 -0.050818
v -14.979373 0.000000 -0.898414
v -16.106865 0.000000 0.856229
v -17.350502 0.000000 0.086894
v -18.096628 0.000000 1.403250
v -15.118503 0.000000 3.511603
v -16.151140 0.000000 5.026517
v -17.109880 0.000000 4.427670
v -17.744408 0.000000 5.447381
v -16.755594 0.000000 6.087013
v -18.900604 0.000000 8.062887
v -18.548361 0.000000 10.778487
v -23.203669 0.000000 11.726439
v -22.801128 0.000000 13.220036
v -13.119164 0.000000 11.407526
v -12.999511 0.000000 12.200012
v -18.175959 0.000000 13.282564
v -17.487471 0.000000 16.564425
v -12.279259 0.000000 15.708166
v -12.121192 0.000000 16.637150
v -15.647567 0.000000 17.286657
v -16.251173 0.000000 21.512892
v -14.033813 0.000000 22.887007
v -14.017563 0.000000 24.568565
v -15.236820 0.000000 26.321550
v -14.123035 0.000000 27.039513
v -14.905814 0.000000 28.156528
v -13.971941 0.000000 28.774422
v -14.972956 0.000000 30.209427
v -16.019945 0.000000 29.483238
v -22.852160 0.000000 34.283291
v -29.421167 0.000000 30.505730
v -30.228842 0.000000 31.364513
v -31.066282 0.000000 30.663475
v -22.345156 0.000000 15.133339
v -25.020166 0.000000 13.266223
v -25.095289 0.000000 14.784540
v -32.210041 0.000000 27.524944
g shellDeformer3Set tweakSet5 tweakSet6 vectorAdjust3Set
v -32.613029 0.000000 28.771742
v -32.514484 0.000000 30.033417
v -31.952818 0.000000 31.167496
v -30.966425 0.000000 32.031532
v -23.982561 0.000000 36.059887
v -23.438894 0.000000 36.278702
v -22.866564 0.000000 36.336113
v -22.299501 0.000000 36.234394
v -21.771643 0.000000 35.975834
v -14.230518 0.000000 30.843990
v -8.802024 0.000000 34.759464
v -3.048687 0.000000 31.109446
v -2.309735 0.000000 32.146973
v -8.905596 0.000000 36.670864
v -8.203074 0.000000 37.566898
v -6.919592 0.000000 38.323120
v -4.559681 0.000000 42.081482
v -1.555786 0.000000 40.139305
v 3.285765 0.000000 46.866642
v 27.638308 0.000000 56.502361
g default
v 58.438625 0.000000 -21.339886
v 55.966415 0.000000 -22.318085
v 35.715012 0.000000 -10.888103
v 32.742126 0.000000 -15.068077
v 30.976246 0.000000 -13.860610
v 35.920135 0.000000 -6.705777
v 34.853794 0.000000 -5.937790
v 33.667385 0.000000 -7.406522
v 32.992008 0.000000 -6.911284
v 28.865505 0.000000 -13.124634
v 27.081848 0.000000 -11.872220
v 29.945684 0.000000 -7.781611
v 28.021357 0.000000 -6.538648
v 25.019072 0.000000 -11.111486
v 23.154392 0.000000 -9.654305
v 25.614258 0.000000 -6.104769
v 23.866173 0.000000 -4.942258
v 20.992086 0.000000 -9.371948
v 19.047497 0.000000 -7.946390
v 21.851692 0.000000 -4.069997
v 20.387413 0.000000 -3.026237
v 18.971302 0.000000 -5.111496
v 15.616169 0.000000 -6.150232
v 6.709583 0.000000 -5.567417
v 6.676353 0.000000 -4.315553
v 9.371797 0.000000 -4.456273
v 9.140786 0.000000 -0.879740
v -0.725250 0.000000 0.784843
v -1.063480 0.000000 -1.382236
v -0.415292 0.000000 -1.414578
v -0.442465 0.000000 -3.083125
v 4.916191 0.000000 -3.180928
v 4.893073 0.000000 -5.633444
v -1.581052 0.000000 -5.636203
v -1.600236 0.000000 -5.164362
v -8.255305 0.000000 -5.279156
v -8.678176 0.000000 -5.538892
v -13.352059 0.000000 -4.222833
v 7.199888 0.000000 -16.297461
v 9.401058 0.000000 -15.790776
v 11.572034 0.000000 -16.088198
v 13.503756 0.000000 -17.122002
v 14.987155 0.000000 -18.824455
v 16.952227 0.000000 -22.148115
v 16.626274 0.000000 -27.517187
v 13.276728 0.000000 -31.626507
v 9.487389 0.000000 -34.086449
v 8.864778 0.000000 -34.357777
v 8.205935 0.000000 -34.409424
v 7.565769 0.000000 -34.246601
v 6.999194 0.000000 -33.874546
v 5.512520 0.000000 -32.501347
v -13.121572 0.000000 -27.041630
v -15.391528 0.000000 -25.358570
v -15.940118 0.000000 -22.834793
v -14.873825 0.000000 -20.480925
v -12.299123 0.000000 -19.307590
v 4.766961 0.000000 -18.042387
vt 0.067783 0.481979
vt 0.091811 0.476228
vt 0.083887 0.446001
vt 0.067783 0.450474
vt 0.062990 0.426126
vt 0.045864 0.429194
vt 0.043371 0.411364
vt 0.085548 0.401076
vt 0.080756 0.379796
vt 0.067527 0.382224
vt 0.064971 0.368165
vt 0.078711 0.365417
vt 0.063629 0.334168
vt 0.079414 0.305666
vt 0.032060 0.274800
vt 0.043052 0.260039
vt 0.142232 0.322473
vt 0.147025 0.314230
vt 0.094495 0.279593
vt 0.116478 0.246299
vt 0.170350 0.278571
vt 0.176165 0.268985
vt 0.139995 0.246363
vt 0.151817 0.196965
vt 0.182364 0.191469
vt 0.189905 0.172937
vt 0.184089 0.148206
vt 0.199554 0.145138
vt 0.195784 0.129354
vt 0.208820 0.126606
vt 0.204028 0.106348
vt 0.189266 0.109799
vt 0.134691 0.026787
vt 0.045480 0.039824
vt 0.040304 0.026787
vt 0.027971 0.030877
vt 0.056472 0.240867
vt 0.018704 0.249814
vt 0.024520 0.232687
vt 0.001578 0.060592
vt 0.002577 0.045035
vt 0.009191 0.031508
vt 0.020369 0.021420
vt 0.035064 0.016179
vt 0.129962 0.002184
vt 0.136935 0.002143
vt 0.143518 0.004013
vt 0.149346 0.007621
vt 0.154054 0.012792
vt 0.215019 0.102578
vt 0.292216 0.083023
vt 0.339889 0.148589
vt 0.352606 0.140345
vt 0.299437 0.061423
vt 0.311132 0.054585
vt 0.328641 0.051838
vt 0.371202 0.020588
vt 0.395933 0.055225
vt 0.478945 0.001992
vt 0.790543 0.001992
vt 0.790543 0.998008
vt 0.758911 0.998008
vt 0.584898 0.782905
vt 0.533711 0.816136
vt 0.519460 0.795047
vt 0.605476 0.737533
vt 0.597040 0.724369
vt 0.577486 0.735424
vt 0.572182 0.726989
vt 0.499330 0.777665
vt 0.485080 0.756002
vt 0.534670 0.723283
vt 0.518821 0.701108
vt 0.465589 0.738556
vt 0.451338 0.714272
vt 0.494090 0.685771
vt 0.479839 0.665257
vt 0.428652 0.701683
vt 0.413379 0.677399
vt 0.461371 0.646789
vt 0.449740 0.628832
vt 0.424945 0.645702
vt 0.383280 0.642507
vt 0.287295 0.597071
vt 0.292407 0.583076
vt 0.321612 0.596432
vt 0.334712 0.555853
vt 0.232848 0.494249
vt 0.219620 0.516743
vt 0.226650 0.519938
vt 0.219045 0.538279
vt 0.277901 0.562818
vt 0.266910 0.589850
vt 0.195273 0.561540
vt 0.197126 0.556236
vt 0.122997 0.528374
vt 0.117181 0.529396
vt 0.071234 0.494376
vt 0.140807 0.222368
vt 0.151600 0.151205
vt 0.185866 0.090364
vt 0.239147 0.045246
vt 0.306984 0.021252
vt 0.428506 0.001992
vt 0.583775 0.074599
vt 0.666267 0.222028
vt 0.694730 0.363150
vt 0.695471 0.384780
vt 0.689276 0.404908
vt 0.676946 0.421967
vt 0.659279 0.434393
vt 0.601160 0.462345
vt 0.220912 0.950480
vt 0.144428 0.998008
vt 0.063215 0.984674
vt 0.005969 0.925481
vt 0.001388 0.835434
vt 0.163986 0.314916
vn 0.000000 1.000000 0.000000
vn -0.000000 1.000000 0.000000
vn -0.000000 1.000000 0.000000
vn -0.000000 1.000000 0.000000
vn -0.000000 1.000000 -0.000000
vn 0.000000 1.000000 -0.000000
vn 0.000000 1.000000 0.000000
vn 0.000000 1.000000 0.000000
vn 0.000000 1.000000 -0.000000
vn 0.000000 1.000000 -0.000000
vn 0.000000 1.000000 0.000000
vn 0.000000 1.000000 -0.000000
vn -0.000000 1.000000 0.000000
vn 0.000000 1.000000 -0.000000
vn 0.000000 1.000000 -0.000000
vn 0.000000 1.000000 0.000000
vn -0.000000 1.000000 0.000000
vn 0.000000 1.000000 0.000000
vn 0.000000 1.000000 -0.000000
vn 0.000000 1.000000 0.000000
vn -0.000000 1.000000 0.000000
vn -0.000000 1.000000 0.000000
vn 0.000000 1.000000 0.000000
vn -0.000000 1.000000 -0.000000
vn 0.000000 1.000000 0.000000
vn 0.000000 1.000000 0.000000
vn 0.000000 1.000000 -0.000000
vn 0.000000 1.000000 0.000000
vn 0.000000 1.000000 0.000000
vn 0.000000 1.000000 0.000000
vn 0.000000 1.000000 0.000000
vn 0.000000 1.000000 0.000000
vn 0.000000 1.000000 -0.000000
vn 0.000000 1.000000 -0.000000
vn 0.000000 1.000000 -0.000000
vn 0.000000 1.000000 -0.000000
vn 0.000000 1.000000 0.000000
vn 0.000000 1.000000 -0.000000
vn 0.000000 1.000000 -0.000000
vn 0.000000 1.000000 0.000000
vn 0.000000 1.000000 0.000000
vn 0.000000 1.000000 0.000000
vn 0.000000 1.000000 -0.000000
vn 0.000000 1.000000 0.000000
vn 0.000000 1.000000 -0.000000
vn 0.000000 1.000000 -0.000000
vn 0.000000 1.000000 0.000000
vn 0.000000 1.000000 0.000000
vn 0.000000 1.000000 -0.000000
vn 0.000000 1.000000 -0.000000
vn 0.000000 1.000000 0.000000
vn 0.000000 1.000000 0.000000
vn 0.000000 1.000000 0.000000
vn 0.000000 1.000000 -0.000000
vn 0.000000 1.000000 0.000000
vn 0.000000 1.000000 0.000000
vn 0.000000 1.000000 -0.000000
vn 0.000000 1.000000 -0.000000
vn 0.000000 1.000000 0.000000
vn 0.000000 1.000000 0.000000
vn -0.000000 1.000000 0.000000
vn -0.000000 1.000000 0.000000
vn 0.000000 1.000000 0.000000
vn 0.000000 1.000000 0.000000
vn -0.000000 1.000000 0.000000
vn -0.000000 1.000000 0.000000
vn -0.000000 1.000000 0.000000
vn -0.000000 1.000000 0.000000
vn -0.000000 1.000000 0.000000
vn -0.000000 1.000000 -0.000000
vn 0.000000 1.000000 0.000000
vn -0.000000 1.000000 0.000000
vn 0.000000 1.000000 0.000000
vn -0.000000 1.000000 0.000000
vn 0.000000 1.000000 0.000000
vn 0.000000 1.000000 0.000000
vn 0.000000 1.000000 0.000000
vn 0.000000 1.000000 -0.000000
vn 0.000000 1.000000 0.000000
vn 0.000000 1.000000 -0.000000
vn 0.000000 1.000000 -0.000000
vn 0.000000 1.000000 -0.000000
vn 0.000000 1.000000 0.000000
vn 0.000000 1.000000 0.000000
vn 0.000000 1.000000 0.000000
vn 0.000000 1.000000 0.000000
vn 0.000000 1.000000 0.000000
vn 0.000000 1.000000 -0.000000
vn 0.000000 1.000000 -0.000000
vn 0.000000 1.000000 0.000000
vn 0.000000 1.000000 -0.000000
vn 0.000000 1.000000 0.000000
vn 0.000000 1.000000 -0.000000
vn 0.000000 1.000000 -0.000000
vn 0.000000 1.000000 0.000000
vn 0.000000 1.000000 0.000000
vn 0.000000 1.000000 0.000000
vn 0.000000 1.000000 -0.000000
vn 0.000000 1.000000 0.000000
vn 0.000000 1.000000 0.000000
vn 0.000000 1.000000 -0.000000
vn 0.000000 1.000000 -0.000000
vn 0.000000 1.000000 -0.000000
vn 0.000000 1.000000 0.000000
vn 0.000000 1.000000 0.000000
vn 0.000000 1.000000 -0.000000
vn 0.000000 1.000000 0.000000
vn 0.000000 1.000000 0.000000
vn 0.000000 1.000000 -0.000000
vn 0.000000 1.000000 0.000000
vn 0.000000 1.000000 0.000000
vn 0.000000 1.000000 0.000000
vn 0.000000 1.000000 -0.000000
vn 0.000000 1.000000 0.000000
vn 0.000000 1.000000 -0.000000
vn 0.000000 1.000000 0.000000
vn 0.000000 1.000000 0.000000
vn 0.000000 1.000000 -0.000000
s 1
g polySurface2
usemtl initialShadingGroup
f 38/38/1 39/39/2 37/37/3
f 37/37/3 39/39/2 36/36/4
f 39/39/2 40/40/5 36/36/4
f 40/40/5 41/41/6 36/36/4
f 41/41/6 42/42/7 36/36/4
f 42/42/7 43/43/8 36/36/4
f 43/43/8 44/44/9 36/36/4
f 36/36/4 44/44/9 35/35/10
f 44/44/9 45/45/11 35/35/10
f 35/35/10 45/45/11 34/34/12
f 34/34/12 45/45/11 33/33/13
f 45/45/11 46/46/14 33/33/13
f 46/46/14 47/47/15 33/33/13
f 47/47/15 48/48/16 33/33/13
f 48/48/16 49/49/17 33/33/13
f 4/4/18 5/5/19 3/3/20
f 54/54/21 55/55/22 53/53/23
f 55/55/22 56/56/24 53/53/23
f 74/74/25 75/75/26 73/73/27
f 75/75/26 76/76/28 73/73/27
f 85/85/29 86/86/30 84/84/31
f 84/84/31 86/86/30 83/83/32
f 1/1/33 2/2/34 98/98/35
f 98/98/35 2/2/34 97/97/36
f 6/6/37 7/7/38 5/5/19
f 7/7/38 8/8/39 5/5/19
f 15/15/40 16/16/41 14/14/42
f 16/16/41 17/17/43 14/14/42
f 27/27/44 28/28/45 26/26/46
f 78/78/47 79/79/48 77/77/49
f 79/79/48 80/80/50 77/77/49
f 10/10/51 11/11/52 9/9/53
f 11/11/52 12/12/54 9/9/53
f 19/19/55 20/20/56 18/18/57
f 20/20/56 21/21/58 18/18/57
f 29/29/59 30/30/60 28/28/45
f 49/49/17 50/50/61 33/33/13
f 33/33/13 50/50/61 32/32/62
f 32/32/62 50/50/61 31/31/63
f 57/57/64 58/58/65 56/56/24
f 56/56/24 58/58/65 53/53/23
f 60/60/66 61/61/67 59/59/68
f 61/61/67 62/62/69 59/59/68
f 59/59/68 62/62/69 58/58/65
f 58/58/65 62/62/69 53/53/23
f 53/53/23 62/62/69 52/52/70
f 65/65/71 66/66/72 64/64/73
f 64/64/73 66/66/72 63/63/74
f 70/70/75 71/71/76 69/69/77
f 71/71/76 72/72/78 69/69/77
f 5/5/19 8/8/39 3/3/20
f 92/92/79 93/93/80 91/91/81
f 93/93/80 94/94/82 91/91/81
f 94/94/82 95/95/83 91/91/81
f 68/68/84 69/69/77 67/67/85
f 90/90/86 91/91/81 89/89/87
f 31/31/63 50/50/61 30/30/60
f 14/14/42 17/17/43 13/13/88
f 13/13/88 17/17/43 12/12/54
f 97/97/36 2/2/34 96/96/89
f 23/23/90 24/24/91 22/22/92
f 24/24/91 25/25/93 22/22/92
f 86/86/30 87/87/94 83/83/32
f 51/51/95 52/52/70 50/50/61
f 50/50/61 52/52/70 30/30/60
f 30/30/60 52/52/70 28/28/45
f 28/28/45 52/52/70 26/26/46
f 12/12/54 17/17/43 9/9/53
f 63/63/74 66/66/72 62/62/69
f 62/62/69 66/66/72 52/52/70
f 66/66/72 67/67/85 52/52/70
f 67/67/85 69/69/77 52/52/70
f 69/69/77 72/72/78 52/52/70
f 72/72/78 73/73/27 52/52/70
f 73/73/27 76/76/28 52/52/70
f 76/76/28 77/77/49 52/52/70
f 77/77/49 80/80/50 52/52/70
f 80/80/50 81/81/96 52/52/70
f 52/52/70 81/81/96 26/26/46
f 26/26/46 81/81/96 25/25/93
f 25/25/93 81/81/96 22/22/92
f 22/22/92 81/81/96 21/21/58
f 21/21/58 81/81/96 18/18/57
f 18/18/57 81/81/96 17/17/43
f 81/81/96 82/82/97 17/17/43
f 9/9/53 17/17/43 8/8/39
f 95/95/83 96/96/89 91/91/81
f 91/91/81 96/96/89 89/89/87
f 96/96/89 2/2/34 89/89/87
f 89/89/87 2/2/34 88/88/98
f 2/2/34 3/3/20 88/88/98
f 3/3/20 8/8/39 88/88/98
f 8/8/39 17/17/43 88/88/98
f 83/83/32 87/87/94 82/82/97
f 82/82/97 87/87/94 17/17/43
f 17/17/43 87/87/94 88/88/98
s 21
f 114/114/99 115/115/100 113/113/101
f 115/115/100 116/116/102 113/113/101
f 116/116/102 117/117/103 113/113/101
f 113/113/101 117/117/103 112/112/104
f 117/117/103 118/118/105 112/112/104
f 118/118/105 99/99/106 112/112/104
f 99/99/106 100/100/107 112/112/104
f 100/100/107 101/101/108 112/112/104
f 101/101/108 102/102/109 112/112/104
f 102/102/109 103/103/110 112/112/104
f 103/103/110 104/104/111 112/112/104
f 104/104/111 105/105/112 112/112/104
f 105/105/112 106/106/113 112/112/104
f 112/112/104 106/106/113 111/111/114
f 111/111/114 106/106/113 110/110/115
f 110/110/115 106/106/113 109/109/116
f 108/108/117 109/109/116 107/107/118
f 106/106/113 107/107/118 109/109/116
