# This file uses centimeters as units for non-parametric coordinates.

g default
v -60.226532 0.000000 -36.091892
v -60.226532 0.000000 43.774837
v 28.947651 0.000000 43.774837
v 29.308559 0.000000 42.329193
v 30.403484 0.000000 40.784378
v 31.789143 0.000000 39.960930
v 32.972134 0.000000 38.336487
v 33.211987 0.000000 36.899849
v 33.277561 0.000000 35.490257
v 33.220760 0.000000 34.110596
v 33.096081 0.000000 32.764435
v 32.963394 0.000000 31.458910
v 32.880516 0.000000 30.239489
v 32.848682 0.000000 29.113398
v 32.847332 0.000000 28.063059
v 32.856403 0.000000 27.069040
v 32.857090 0.000000 26.109114
v 32.831566 0.000000 25.158300
v 32.762280 0.000000 24.188906
v 32.630852 0.000000 23.171888
v 32.417198 0.000000 22.077051
v 32.099007 0.000000 20.867788
v 31.681538 0.000000 19.544863
v 31.187618 0.000000 18.128725
v 30.640713 0.000000 16.637754
v 30.064220 0.000000 15.088808
v 29.481529 0.000000 13.497644
v 28.916039 0.000000 11.879148
v 28.391293 0.000000 10.247290
v 27.931400 0.000000 8.615927
v 27.562286 0.000000 7.013319
v 27.281338 0.000000 5.457094
v 27.060879 0.000000 3.942476
v 26.873009 0.000000 2.462946
v 26.690605 0.000000 1.011024
v 26.487419 0.000000 -0.421869
v 26.237865 0.000000 -1.845457
v 25.916557 0.000000 -3.270796
v 25.497585 0.000000 -4.710405
v 24.951550 0.000000 -6.183628
v 24.266129 0.000000 -7.693626
v 23.455456 0.000000 -9.218531
v 22.535591 0.000000 -10.735860
v 21.523029 0.000000 -12.223728
v 20.434494 0.000000 -13.660593
v 19.287064 0.000000 -15.025138
v 18.098370 0.000000 -16.296177
v 16.886730 0.000000 -17.452646
v 15.668151 0.000000 -18.476326
v 14.452519 0.000000 -19.360565
v 13.250321 0.000000 -20.110693
v 12.072427 0.000000 -20.733107
v 10.930003 0.000000 -21.234243
v 9.834599 0.000000 -21.620583
v 8.798249 0.000000 -21.898861
v 7.833747 0.000000 -22.076263
v 6.954841 0.000000 -22.160891
v 6.059489 0.000000 -22.360748
v 5.277659 0.000000 -22.281927
v 4.419860 0.000000 -22.158062
v 3.425797 0.000000 -22.043304
v 2.246284 0.000000 -21.994463
v 0.822317 0.000000 -22.060431
v -0.919857 0.000000 -22.627487
v -5.767045 0.000000 -23.615595
v -9.862657 0.000000 -24.497728
v -60.226532 0.000000 -44.203003
v -60.226532 0.000000 -38.379459
v -9.308307 0.000000 -26.657682
v -5.212698 0.000000 -25.775543
v -0.485130 0.000000 -24.814657
v 1.104325 0.000000 -24.272486
v 2.343447 0.000000 -24.222303
v 3.325272 0.000000 -24.271000
v 4.157587 0.000000 -24.372543
v 4.958009 0.000000 -24.488859
v 5.833026 0.000000 -24.579178
v 6.840173 0.000000 -24.590837
v 8.034392 0.000000 -24.297178
v 9.192115 0.000000 -24.093758
v 10.405496 0.000000 -23.776224
v 11.665683 0.000000 -23.339352
v 12.963130 0.000000 -22.777468
v 14.287766 0.000000 -22.084631
v 15.629136 0.000000 -21.254854
v 16.976498 0.000000 -20.282135
v 18.318150 0.000000 -19.162540
v 19.635841 0.000000 -17.911377
v 20.914165 0.000000 -16.550022
v 22.139980 0.000000 -15.097261
v 23.299435 0.000000 -13.571726
v 24.378139 0.000000 -11.991941
v 25.361355 0.000000 -10.376200
v 26.234062 0.000000 -8.742422
v 26.980900 0.000000 -7.107981
v 27.587166 0.000000 -5.489103
v 28.056488 0.000000 -3.897999
v 28.412514 0.000000 -2.339025
v 28.683537 0.000000 -0.808916
v 28.898342 0.000000 0.697012
v 29.085545 0.000000 2.184774
v 29.273071 0.000000 3.661573
v 29.487999 0.000000 5.135637
v 29.756596 0.000000 6.616232
v 30.104057 0.000000 8.113714
v 30.537121 0.000000 9.640577
v 31.038654 0.000000 11.195620
v 31.586544 0.000000 12.761698
v 32.158127 0.000000 14.321829
v 32.730610 0.000000 15.859915
v 33.281170 0.000000 17.360781
v 33.787029 0.000000 18.810328
v 34.225338 0.000000 20.195929
v 34.573193 0.000000 21.507406
v 34.818676 0.000000 22.740389
v 34.973194 0.000000 23.898199
v 35.055569 0.000000 24.995115
v 35.086170 0.000000 26.046629
v 35.086376 0.000000 27.069563
v 35.077221 0.000000 28.083368
v 35.078651 0.000000 29.110403
v 35.109554 0.000000 30.175684
v 35.188103 0.000000 31.306086
v 35.314510 0.000000 32.537880
v 35.441185 0.000000 33.904915
v 35.505543 0.000000 35.396225
v 35.439846 0.000000 36.997055
v 35.173546 0.000000 38.692284
v 34.038517 0.000000 40.940254
v 32.446743 0.000000 42.321457
v 31.154888 0.000000 43.774837
v 78.209198 0.000000 43.774837
v 78.209198 0.000000 -44.203003
vt 0.375000 0.773049
vt 0.375000 1.000000
vt 0.536039 1.000000
vt 0.536691 0.995892
vt 0.538668 0.991502
vt 0.541170 0.989162
vt 0.543307 0.984546
vt 0.543740 0.980464
vt 0.543858 0.976458
vt 0.543756 0.972538
vt 0.543531 0.968713
vt 0.543291 0.965003
vt 0.543141 0.961538
vt 0.543084 0.958338
vt 0.543081 0.955353
vt 0.543098 0.952528
vt 0.543099 0.949801
vt 0.543053 0.947099
vt 0.542928 0.944344
vt 0.542690 0.941454
vt 0.542305 0.938343
vt 0.541730 0.934907
vt 0.540976 0.931147
vt 0.540084 0.927123
vt 0.539096 0.922887
vt 0.538055 0.918485
vt 0.537003 0.913964
vt 0.535982 0.909364
vt 0.535034 0.904727
vt 0.534204 0.900092
vt 0.533537 0.895538
vt 0.533030 0.891115
vt 0.532632 0.886811
vt 0.532292 0.882607
vt 0.531963 0.878481
vt 0.531596 0.874410
vt 0.531145 0.870364
vt 0.530565 0.866314
vt 0.529809 0.862223
vt 0.528822 0.858037
vt 0.527585 0.853746
vt 0.526121 0.849413
vt 0.524459 0.845101
vt 0.522631 0.840873
vt 0.520665 0.836790
vt 0.518593 0.832913
vt 0.516446 0.829301
vt 0.514258 0.826014
vt 0.512058 0.823106
vt 0.509862 0.820593
vt 0.507691 0.818461
vt 0.505564 0.816693
vt 0.503501 0.815269
vt 0.501523 0.814171
vt 0.499651 0.813380
vt 0.497910 0.812876
vt 0.496322 0.812635
vt 0.494705 0.812068
vt 0.493293 0.812292
vt 0.491744 0.812643
vt 0.489949 0.812970
vt 0.487819 0.813108
vt 0.485248 0.812921
vt 0.482101 0.811310
vt 0.473348 0.808502
vt 0.465952 0.805995
vt 0.375000 0.750000
vt 0.375000 0.766548
vt 0.466953 0.799857
vt 0.474349 0.802364
vt 0.482887 0.805094
vt 0.485757 0.806635
vt 0.487995 0.806778
vt 0.489768 0.806639
vt 0.491271 0.806351
vt 0.492716 0.806020
vt 0.494296 0.805764
vt 0.496115 0.805730
vt 0.498272 0.806565
vt 0.500363 0.807143
vt 0.502554 0.808045
vt 0.504830 0.809287
vt 0.507173 0.810883
vt 0.509565 0.812852
vt 0.511987 0.815210
vt 0.514420 0.817974
vt 0.516843 0.821156
vt 0.519223 0.824711
vt 0.521531 0.828579
vt 0.523745 0.832708
vt 0.525839 0.837043
vt 0.527787 0.841532
vt 0.529562 0.846123
vt 0.531139 0.850766
vt 0.532487 0.855410
vt 0.533582 0.860010
vt 0.534430 0.864532
vt 0.535073 0.868962
vt 0.535562 0.873310
vt 0.535950 0.877589
vt 0.536288 0.881817
vt 0.536627 0.886013
vt 0.537015 0.890202
vt 0.537500 0.894409
vt 0.538127 0.898664
vt 0.538909 0.903003
vt 0.539815 0.907422
vt 0.540805 0.911872
vt 0.541837 0.916306
vt 0.542871 0.920676
vt 0.543865 0.924941
vt 0.544778 0.929060
vt 0.545570 0.932998
vt 0.546198 0.936724
vt 0.546641 0.940228
vt 0.546920 0.943518
vt 0.547069 0.946635
vt 0.547125 0.949623
vt 0.547125 0.952530
vt 0.547108 0.955411
vt 0.547111 0.958329
vt 0.547167 0.961356
vt 0.547309 0.964568
vt 0.547537 0.968069
vt 0.547766 0.971953
vt 0.547882 0.976191
vt 0.547763 0.980740
vt 0.547282 0.985557
vt 0.545233 0.991945
vt 0.542358 0.995870
vt 0.540025 1.000000
vt 0.625000 1.000000
vt 0.625000 0.750000
vn 0.000000 1.000000 0.000000
vn 0.000000 1.000000 0.000000
vn 0.000000 1.000000 0.000000
vn 0.000000 1.000000 0.000000
vn 0.000000 1.000000 -0.000000
vn 0.000000 1.000000 0.000000
vn 0.000000 1.000000 0.000000
vn 0.000000 1.000000 0.000000
vn 0.000000 1.000000 0.000000
vn 0.000000 1.000000 0.000000
vn 0.000000 1.000000 -0.000000
vn 0.000000 1.000000 -0.000000
vn 0.000000 1.000000 0.000000
vn 0.000000 1.000000 0.000000
vn 0.000000 1.000000 0.000000
vn 0.000000 1.000000 -0.000000
vn 0.000000 1.000000 -0.000000
vn 0.000000 1.000000 0.000000
vn 0.000000 1.000000 -0.000000
vn 0.000000 1.000000 0.000000
vn 0.000000 1.000000 -0.000000
vn 0.000000 1.000000 -0.000000
vn 0.000000 1.000000 0.000000
vn 0.000000 1.000000 -0.000000
vn 0.000000 1.000000 0.000000
vn 0.000000 1.000000 0.000000
vn 0.000000 1.000000 0.000000
vn 0.000000 1.000000 0.000000
vn 0.000000 1.000000 0.000000
vn 0.000000 1.000000 0.000000
vn 0.000000 1.000000 0.000000
vn 0.000000 1.000000 0.000000
vn 0.000000 1.000000 0.000000
vn 0.000000 1.000000 0.000000
vn 0.000000 1.000000 0.000000
vn 0.000000 1.000000 0.000000
vn 0.000000 1.000000 0.000000
vn 0.000000 1.000000 0.000000
vn 0.000000 1.000000 0.000000
vn 0.000000 1.000000 0.000000
vn 0.000000 1.000000 0.000000
vn 0.000000 1.000000 0.000000
vn 0.000000 1.000000 0.000000
vn 0.000000 1.000000 0.000000
vn 0.000000 1.000000 0.000000
vn 0.000000 1.000000 0.000000
vn 0.000000 1.000000 0.000000
vn 0.000000 1.000000 0.000000
vn 0.000000 1.000000 0.000000
vn 0.000000 1.000000 0.000000
vn 0.000000 1.000000 0.000000
vn 0.000000 1.000000 0.000000
vn 0.000000 1.000000 0.000000
vn 0.000000 1.000000 0.000000
vn 0.000000 1.000000 0.000000
vn 0.000000 1.000000 0.000000
vn 0.000000 1.000000 0.000000
vn 0.000000 1.000000 0.000000
vn 0.000000 1.000000 0.000000
vn 0.000000 1.000000 0.000000
vn 0.000000 1.000000 0.000000
vn 0.000000 1.000000 0.000000
vn 0.000000 1.000000 0.000000
vn 0.000000 1.000000 0.000000
vn 0.000000 1.000000 0.000000
vn 0.000000 1.000000 0.000000
vn 0.000000 1.000000 0.000000
vn 0.000000 1.000000 0.000000
vn 0.000000 1.000000 0.000000
vn 0.000000 1.000000 0.000000
vn 0.000000 1.000000 0.000000
vn 0.000000 1.000000 0.000000
vn 0.000000 1.000000 0.000000
vn 0.000000 1.000000 0.000000
vn 0.000000 1.000000 0.000000
vn 0.000000 1.000000 0.000000
vn 0.000000 1.000000 0.000000
vn 0.000000 1.000000 0.000000
vn 0.000000 1.000000 0.000000
vn 0.000000 1.000000 0.000000
vn 0.000000 1.000000 0.000000
vn 0.000000 1.000000 0.000000
vn 0.000000 1.000000 0.000000
vn 0.000000 1.000000 0.000000
vn 0.000000 1.000000 0.000000
vn 0.000000 1.000000 0.000000
vn 0.000000 1.000000 0.000000
vn 0.000000 1.000000 0.000000
vn 0.000000 1.000000 0.000000
vn 0.000000 1.000000 0.000000
vn 0.000000 1.000000 0.000000
vn 0.000000 1.000000 0.000000
vn 0.000000 1.000000 0.000000
vn 0.000000 1.000000 0.000000
vn 0.000000 1.000000 0.000000
vn 0.000000 1.000000 0.000000
vn 0.000000 1.000000 0.000000
vn 0.000000 1.000000 0.000000
vn 0.000000 1.000000 0.000000
vn 0.000000 1.000000 0.000000
vn 0.000000 1.000000 0.000000
vn 0.000000 1.000000 0.000000
vn 0.000000 1.000000 0.000000
vn 0.000000 1.000000 0.000000
vn 0.000000 1.000000 0.000000
vn 0.000000 1.000000 0.000000
vn 0.000000 1.000000 0.000000
vn 0.000000 1.000000 0.000000
vn 0.000000 1.000000 0.000000
vn 0.000000 1.000000 0.000000
vn 0.000000 1.000000 0.000000
vn 0.000000 1.000000 0.000000
vn 0.000000 1.000000 0.000000
vn 0.000000 1.000000 0.000000
vn 0.000000 1.000000 0.000000
vn 0.000000 1.000000 0.000000
vn 0.000000 1.000000 0.000000
vn 0.000000 1.000000 0.000000
vn 0.000000 1.000000 0.000000
vn 0.000000 1.000000 0.000000
vn 0.000000 1.000000 0.000000
vn 0.000000 1.000000 0.000000
vn 0.000000 1.000000 0.000000
vn 0.000000 1.000000 0.000000
vn 0.000000 1.000000 0.000000
vn 0.000000 1.000000 0.000000
vn 0.000000 1.000000 0.000000
vn 0.000000 1.000000 0.000000
vn 0.000000 1.000000 0.000000
vn 0.000000 1.000000 0.000000
vn 0.000000 1.000000 0.000000
vn 0.000000 1.000000 0.000000
vn 0.000000 1.000000 0.000000
s 1
g polySurface3
f 1/1/1 2/2/2 66/66/3
f 2/2/2 3/3/4 66/66/3
f 3/3/4 4/4/5 66/66/3
f 66/66/3 4/4/5 65/65/6
f 65/65/6 4/4/5 64/64/7
f 64/64/7 4/4/5 63/63/8
f 4/4/5 5/5/9 63/63/8
f 63/63/8 5/5/9 62/62/10
f 62/62/10 5/5/9 61/61/11
f 61/61/11 5/5/9 60/60/12
f 60/60/12 5/5/9 59/59/13
f 59/59/13 5/5/9 58/58/14
f 58/58/14 5/5/9 57/57/15
f 57/57/15 5/5/9 56/56/16
f 56/56/16 5/5/9 55/55/17
f 55/55/17 5/5/9 54/54/18
f 54/54/18 5/5/9 53/53/19
f 53/53/19 5/5/9 52/52/20
f 52/52/20 5/5/9 51/51/21
f 51/51/21 5/5/9 50/50/22
f 50/50/22 5/5/9 49/49/23
f 49/49/23 5/5/9 48/48/24
f 48/48/24 5/5/9 47/47/25
f 47/47/25 5/5/9 46/46/26
f 46/46/26 5/5/9 45/45/27
f 45/45/27 5/5/9 44/44/28
f 44/44/28 5/5/9 43/43/29
f 43/43/29 5/5/9 42/42/30
f 42/42/30 5/5/9 41/41/31
f 41/41/31 5/5/9 40/40/32
f 40/40/32 5/5/9 39/39/33
f 39/39/33 5/5/9 38/38/34
f 38/38/34 5/5/9 37/37/35
f 37/37/35 5/5/9 36/36/36
f 36/36/36 5/5/9 35/35/37
f 35/35/37 5/5/9 34/34/38
f 34/34/38 5/5/9 33/33/39
f 33/33/39 5/5/9 32/32/40
f 32/32/40 5/5/9 31/31/41
f 31/31/41 5/5/9 30/30/42
f 30/30/42 5/5/9 29/29/43
f 29/29/43 5/5/9 28/28/44
f 28/28/44 5/5/9 27/27/45
f 27/27/45 5/5/9 26/26/46
f 26/26/46 5/5/9 25/25/47
f 25/25/47 5/5/9 24/24/48
f 24/24/48 5/5/9 23/23/49
f 23/23/49 5/5/9 22/22/50
f 22/22/50 5/5/9 21/21/51
f 21/21/51 5/5/9 20/20/52
f 20/20/52 5/5/9 19/19/53
f 19/19/53 5/5/9 18/18/54
f 18/18/54 5/5/9 17/17/55
f 17/17/55 5/5/9 16/16/56
f 16/16/56 5/5/9 15/15/57
f 15/15/57 5/5/9 14/14/58
f 14/14/58 5/5/9 13/13/59
f 13/13/59 5/5/9 12/12/60
f 12/12/60 5/5/9 11/11/61
f 11/11/61 5/5/9 10/10/62
f 10/10/62 5/5/9 9/9/63
f 9/9/63 5/5/9 8/8/64
f 5/5/9 6/6/65 8/8/64
f 6/6/65 7/7/66 8/8/64
s 2
f 131/131/67 132/132/68 130/130/69
f 130/130/69 132/132/68 129/129/70
f 129/129/70 132/132/68 128/128/71
f 132/132/68 133/133/72 128/128/71
f 128/128/71 133/133/72 127/127/73
f 127/127/73 133/133/72 126/126/74
f 126/126/74 133/133/72 125/125/75
f 125/125/75 133/133/72 124/124/76
f 124/124/76 133/133/72 123/123/77
f 123/123/77 133/133/72 122/122/78
f 122/122/78 133/133/72 121/121/79
f 121/121/79 133/133/72 120/120/80
f 120/120/80 133/133/72 119/119/81
f 119/119/81 133/133/72 118/118/82
f 118/118/82 133/133/72 117/117/83
f 117/117/83 133/133/72 116/116/84
f 116/116/84 133/133/72 115/115/85
f 115/115/85 133/133/72 114/114/86
f 114/114/86 133/133/72 113/113/87
f 113/113/87 133/133/72 112/112/88
f 112/112/88 133/133/72 111/111/89
f 111/111/89 133/133/72 110/110/90
f 110/110/90 133/133/72 109/109/91
f 109/109/91 133/133/72 108/108/92
f 108/108/92 133/133/72 107/107/93
f 107/107/93 133/133/72 106/106/94
f 106/106/94 133/133/72 105/105/95
f 105/105/95 133/133/72 104/104/96
f 104/104/96 133/133/72 103/103/97
f 103/103/97 133/133/72 102/102/98
f 102/102/98 133/133/72 101/101/99
f 101/101/99 133/133/72 100/100/100
f 100/100/100 133/133/72 99/99/101
f 99/99/101 133/133/72 98/98/102
f 98/98/102 133/133/72 97/97/103
f 97/97/103 133/133/72 96/96/104
f 96/96/104 133/133/72 95/95/105
f 95/95/105 133/133/72 94/94/106
f 94/94/106 133/133/72 93/93/107
f 67/67/108 68/68/109 133/133/72
f 68/68/109 69/69/110 133/133/72
f 69/69/110 70/70/111 133/133/72
f 70/70/111 71/71/112 133/133/72
f 71/71/112 72/72/113 133/133/72
f 72/72/113 73/73/114 133/133/72
f 73/73/114 74/74/115 133/133/72
f 74/74/115 75/75/116 133/133/72
f 75/75/116 76/76/117 133/133/72
f 76/76/117 77/77/118 133/133/72
f 77/77/118 78/78/119 133/133/72
f 78/78/119 79/79/120 133/133/72
f 79/79/120 80/80/121 133/133/72
f 80/80/121 81/81/122 133/133/72
f 81/81/122 82/82/123 133/133/72
f 82/82/123 83/83/124 133/133/72
f 83/83/124 84/84/125 133/133/72
f 84/84/125 85/85/126 133/133/72
f 85/85/126 86/86/127 133/133/72
f 86/86/127 87/87/128 133/133/72
f 87/87/128 88/88/129 133/133/72
f 88/88/129 89/89/130 133/133/72
f 89/89/130 90/90/131 133/133/72
f 90/90/131 91/91/132 133/133/72
f 91/91/132 92/92/133 133/133/72
f 92/92/133 93/93/107 133/133/72
