# This file uses centimeters as units for non-parametric coordinates.

mtllib roma_circuit_land.mtl
g default
v -47.901487 0.000000 -54.113553
v -51.493913 0.000000 22.267444
v -11.286287 0.000000 -1.692031
v -11.656413 0.000000 -1.506547
v -12.795057 0.000000 -2.372083
v -12.785496 0.000000 -2.735439
v -12.164364 0.000000 -3.535283
v -11.662355 0.000000 -3.403230
v -11.330004 0.000000 -3.881798
v -11.292089 0.000000 -3.940862
v -11.145567 0.000000 -4.135806
v -11.437837 0.000000 -4.639919
v -9.950371 0.000000 -6.633942
v -9.407692 0.000000 -6.555116
v -9.245190 0.000000 -6.741354
v -9.209129 0.000000 -6.781970
v -8.833264 0.000000 -7.259985
v -9.193333 0.000000 -7.740758
v -8.286775 0.000000 -9.001884
v -7.906729 0.000000 -8.777995
v -5.216383 0.000000 -12.373750
v 58.104792 0.000000 27.422198
v 61.697218 0.000000 -48.958798
v -4.516445 0.000000 -11.924119
v -7.131546 0.000000 -8.198026
v -6.772581 0.000000 -7.992061
v -7.659721 0.000000 -6.734493
v -8.266759 0.000000 -6.873509
v -8.607405 0.000000 -6.349613
v -8.723632 0.000000 -6.371517
v -8.876940 0.000000 -6.170316
v -8.992452 0.000000 -6.011217
v -10.469599 0.000000 -4.028817
v -10.629484 0.000000 -3.815369
v -10.776006 0.000000 -3.620425
v -10.662328 0.000000 -3.524549
v -11.007026 0.000000 -2.987198
v -10.622997 0.000000 -2.587840
vt 0.375000 0.750000
vt 0.375000 1.000000
vt 0.463948 0.915576
vt 0.463126 0.916239
vt 0.460442 0.913587
vt 0.460424 0.912399
vt 0.461752 0.909691
vt 0.462909 0.910045
vt 0.463614 0.908431
vt 0.463694 0.908233
vt 0.464007 0.907574
vt 0.463288 0.905972
vt 0.466460 0.899231
vt 0.467703 0.899406
vt 0.468053 0.898772
vt 0.468131 0.898634
vt 0.468935 0.897015
vt 0.468064 0.895501
vt 0.469993 0.891243
vt 0.470882 0.891915
vt 0.476620 0.879759
vt 0.625000 1.000000
vt 0.625000 0.750000
vt 0.478261 0.881120
vt 0.472708 0.893691
vt 0.473547 0.894308
vt 0.471663 0.898551
vt 0.470266 0.898190
vt 0.469547 0.899954
vt 0.469280 0.899900
vt 0.468953 0.900581
vt 0.468707 0.901118
vt 0.465557 0.907819
vt 0.465216 0.908541
vt 0.464903 0.909200
vt 0.465172 0.909496
vt 0.464445 0.911304
vt 0.465362 0.912549
vn 0.000000 1.000000 0.000000
vn 0.000000 1.000000 0.000000
vn 0.000000 1.000000 0.000000
vn 0.000000 1.000000 0.000000
vn 0.000000 1.000000 0.000000
vn 0.000000 1.000000 0.000000
vn 0.000000 1.000000 0.000000
vn 0.000000 1.000000 0.000000
vn 0.000000 1.000000 0.000000
vn 0.000000 1.000000 0.000000
vn 0.000000 1.000000 0.000000
vn 0.000000 1.000000 0.000000
vn 0.000000 1.000000 0.000000
vn 0.000000 1.000000 0.000000
vn 0.000000 1.000000 0.000000
vn 0.000000 1.000000 0.000000
vn 0.000000 1.000000 0.000000
vn 0.000000 1.000000 0.000000
vn 0.000000 1.000000 0.000000
vn 0.000000 1.000000 0.000000
vn 0.000000 1.000000 0.000000
vn 0.000000 1.000000 0.000000
vn 0.000000 1.000000 0.000000
vn 0.000000 1.000000 0.000000
vn 0.000000 1.000000 0.000000
vn 0.000000 1.000000 0.000000
vn 0.000000 1.000000 0.000000
vn 0.000000 1.000000 0.000000
vn 0.000000 1.000000 0.000000
vn 0.000000 1.000000 0.000000
vn 0.000000 1.000000 0.000000
vn 0.000000 1.000000 0.000000
vn 0.000000 1.000000 0.000000
vn 0.000000 1.000000 0.000000
vn 0.000000 1.000000 0.000000
vn 0.000000 1.000000 0.000000
vn 0.000000 1.000000 0.000000
vn 0.000000 1.000000 0.000000
s 1
g polySurface4 pCube147
usemtl initialShadingGroup
f 3/3/1 4/4/2 2/2/3
f 4/4/2 5/5/4 2/2/3
f 20/20/5 21/21/6 19/19/7
f 21/21/6 1/1/8 19/19/7
f 8/8/9 9/9/10 7/7/11
f 19/19/7 1/1/8 18/18/12
f 17/17/13 18/18/12 16/16/14
f 11/11/15 12/12/16 10/10/17
f 1/1/8 2/2/3 18/18/12
f 14/14/18 15/15/19 13/13/20
f 5/5/4 6/6/21 2/2/3
f 10/10/17 12/12/16 9/9/10
f 9/9/10 12/12/16 7/7/11
f 16/16/14 18/18/12 15/15/19
f 15/15/19 18/18/12 13/13/20
f 18/18/12 2/2/3 13/13/20
f 13/13/20 2/2/3 12/12/16
f 12/12/16 2/2/3 7/7/11
f 2/2/3 6/6/21 7/7/11
f 2/2/3 22/22/22 3/3/1
f 1/1/8 21/21/6 23/23/23
f 21/21/6 24/24/24 23/23/23
f 22/22/22 23/23/23 3/3/1
f 3/3/1 23/23/23 38/38/25
f 25/25/26 26/26/27 24/24/24
f 38/38/25 23/23/23 37/37/28
f 37/37/28 23/23/23 36/36/29
f 35/35/30 36/36/29 34/34/31
f 36/36/29 23/23/23 34/34/31
f 34/34/31 23/23/23 33/33/32
f 28/28/33 29/29/34 27/27/35
f 30/30/36 31/31/37 29/29/34
f 24/24/24 26/26/27 23/23/23
f 31/31/37 32/32/38 29/29/34
f 26/26/27 27/27/35 23/23/23
f 29/29/34 32/32/38 27/27/35
f 32/32/38 33/33/32 27/27/35
f 23/23/23 27/27/35 33/33/32
